<?xml version="1.0" encoding="utf-8"?>
<!-- Generator: Adobe Illustrator 19.1.0, SVG Export Plug-In . SVG Version: 6.00 Build 0)  -->
<!DOCTYPE svg PUBLIC "-//W3C//DTD SVG 1.1//EN" "http://www.w3.org/Graphics/SVG/1.1/DTD/svg11.dtd">
<svg version="1.1" id="Layer_1" xmlns="http://www.w3.org/2000/svg" xmlns:xlink="http://www.w3.org/1999/xlink" x="0px" y="0px"
	 viewBox="-5 7 12 12" enable-background="new -5 7 12 12" xml:space="preserve">
<g>
	<g>
		<path fill="#FFFFFF" d="M1,18.75c-3.17,0-5.75-2.579-5.75-5.75S-2.17,7.25,1,7.25S6.75,9.829,6.75,13S4.17,18.75,1,18.75z"/>
		<g>
			<path fill="#DF3324" d="M1,7.5c3.033,0,5.5,2.467,5.5,5.5S4.033,18.5,1,18.5s-5.5-2.467-5.5-5.5S-2.033,7.5,1,7.5 M1,7
				c-3.314,0-6,2.686-6,6s2.686,6,6,6s6-2.686,6-6S4.314,7,1,7L1,7z"/>
		</g>
	</g>
	<path fill="#DF3324" d="M1.707,13l1.768-1.768c0.195-0.195,0.195-0.512,0-0.707s-0.512-0.195-0.707,0L1,12.293l-1.768-1.768
		c-0.195-0.195-0.512-0.195-0.707,0s-0.195,0.512,0,0.707L0.293,13l-1.768,1.768c-0.195,0.195-0.195,0.512,0,0.707
		c0.098,0.098,0.226,0.146,0.354,0.146s0.256-0.049,0.354-0.146L1,13.707l1.768,1.768c0.098,0.098,0.226,0.146,0.354,0.146
		s0.256-0.049,0.354-0.146c0.195-0.195,0.195-0.512,0-0.707L1.707,13z"/>
</g>
</svg>
