<?xml version="1.0" encoding="utf-8"?>
<!-- Generator: Adobe Illustrator 19.1.0, SVG Export Plug-In . SVG Version: 6.00 Build 0)  -->
<svg version="1.1" xmlns="http://www.w3.org/2000/svg" xmlns:xlink="http://www.w3.org/1999/xlink" x="0px" y="0px"
	 viewBox="0 0 16 20" enable-background="new 0 0 16 20" xml:space="preserve">
<g id="Layer_2" display="none">
	<rect x="-664.098" y="-505.828" display="inline" fill="#BABABA" width="844.492" height="608.818"/>
</g>
<g id="Layer_1">
</g>
<g id="Layer_3">
</g>
<g id="Layer_4">
</g>
<g id="Layer_5">
	<g id="Inherit_icon">
		<g>
			<g>
				<path fill="#262626" d="M10.5,0.5h-8c-1.105,0-2,0.896-2,2v15c0,1.104,0.895,2,2,2h11c1.105,0,2-0.896,2-2v-12h-5V0.5z"/>
				<polygon fill="#262626" points="11.5,0.5 11.5,4.5 15.5,4.5 15.5,4.5 				"/>
			</g>
			<g>
				<g>
					<circle fill="#FFFFFF" cx="4" cy="10" r="1.5"/>
					<circle fill="#FFFFFF" cx="8" cy="10" r="1.5"/>
					<circle fill="#FFFFFF" cx="12" cy="10" r="1.5"/>
				</g>
				<g>
					<circle fill="#1A1718" cx="4" cy="10" r="1.5"/>
					<circle fill="#1A1718" cx="8" cy="10" r="1.5"/>
					<circle fill="#1A1718" cx="12" cy="10" r="1.5"/>
				</g>
				<g>
					<circle fill="#FFFFFF" cx="4" cy="10" r="1.5"/>
					<circle fill="#FFFFFF" cx="8" cy="10" r="1.5"/>
					<circle fill="#FFFFFF" cx="12" cy="10" r="1.5"/>
				</g>
			</g>
		</g>
	</g>
</g>
</svg>
