<?xml version="1.0" encoding="utf-8"?>
<!-- Generator: Adobe Illustrator 19.1.0, SVG Export Plug-In . SVG Version: 6.00 Build 0)  -->
<svg version="1.1" xmlns="http://www.w3.org/2000/svg" xmlns:xlink="http://www.w3.org/1999/xlink" x="0px" y="0px"
	 viewBox="0 0 32 32" enable-background="new 0 0 32 32" xml:space="preserve">
<g id="Layer_2">
</g>
<g id="Layer_1">
</g>
<g id="Layer_3">
</g>
<g id="Layer_4">
</g>
<g id="Layer_5">
	<g>
		<circle fill="#735796" cx="16.574" cy="15.841" r="15"/>
		<path fill="#FFFFFF" d="M16.573,31.341c-8.547,0-15.5-6.953-15.5-15.5s6.953-15.5,15.5-15.5s15.5,6.953,15.5,15.5
			S25.12,31.341,16.573,31.341z M16.573,1.341c-7.995,0-14.5,6.505-14.5,14.5s6.505,14.5,14.5,14.5s14.5-6.505,14.5-14.5
			S24.569,1.341,16.573,1.341z"/>
	</g>
	<g>
		<g>
			<ellipse fill="#BEA9D0" cx="16.666" cy="22.417" rx="9.461" ry="2.384"/>
		</g>
		<g>
			<path fill="#FFFFFF" d="M24.131,19.358c-0.013-0.194-0.026-0.362-0.042-0.522c-0.043-0.441-0.11-0.811-0.294-1.434
				c-0.18-0.609-0.599-1.057-1.283-1.371c-0.583-0.268-1.282-0.401-1.899-0.519c-0.51-0.098-0.992-0.19-1.329-0.341
				c-0.184-0.083-0.345-0.205-0.477-0.363c-0.073-0.087-0.139-0.188-0.197-0.299c0.294-0.241,0.549-0.533,0.763-0.874
				c0.295-0.469,0.511-1.029,0.649-1.675c0.14-0.04,0.278-0.148,0.394-0.312c0.129-0.182,0.225-0.426,0.272-0.686
				c0.068-0.379,0.025-0.74-0.113-0.98c0.013-0.049,0.024-0.1,0.034-0.152c0.065-0.325,0.086-0.701,0.064-1.118
				c-0.037-0.706-0.185-1.279-0.191-1.302c-0.152-0.604-0.605-1.211-1.243-1.664c-0.508-0.361-1.368-0.791-2.58-0.791
				c-1.211,0-2.071,0.43-2.579,0.791c-0.638,0.453-1.091,1.059-1.243,1.663c-0.008,0.031-0.155,0.602-0.194,1.303
				c-0.023,0.417-0.002,0.793,0.062,1.118c0.01,0.05,0.021,0.1,0.033,0.148c-0.14,0.24-0.184,0.602-0.115,0.983
				c0.047,0.261,0.144,0.505,0.274,0.688c0.116,0.164,0.255,0.272,0.395,0.311c0.138,0.645,0.354,1.206,0.649,1.674
				c0.215,0.342,0.471,0.634,0.766,0.876c-0.058,0.11-0.123,0.21-0.195,0.296c-0.132,0.158-0.293,0.28-0.477,0.363
				c-0.337,0.151-0.819,0.243-1.329,0.341c-0.617,0.118-1.316,0.252-1.899,0.519c-0.683,0.314-1.103,0.762-1.283,1.371
				c-0.184,0.622-0.251,0.992-0.294,1.432c-0.015,0.153-0.083,0.729-0.083,0.851v0.514v0.242c0,0.011,0.003,0.022,0.003,0.033
				c0.005,0.244,0.068,0.485,0.182,0.7c0.081,0.153,0.182,0.307,0.314,0.424c0.224,0.199,0.578,0.228,0.86,0.286
				c0.253,0.052,0.507,0.098,0.762,0.14c1.528,0.251,3.383,0.4,5.388,0.4s3.86-0.149,5.388-0.4c0.274-0.045,0.547-0.095,0.819-0.152
				c0.183-0.038,0.372-0.063,0.547-0.131c0.193-0.074,0.327-0.206,0.448-0.37c0.158-0.214,0.261-0.468,0.295-0.732
				c0.008-0.066,0.013-0.132,0.013-0.199v-0.242v-0.342v-0.171C24.166,19.573,24.153,19.464,24.131,19.358z"/>
			<path fill="#735796" d="M16.656,22.925c-1.956,0-3.848-0.141-5.469-0.407c-0.261-0.043-0.521-0.091-0.779-0.143l-0.144-0.026
				c-0.294-0.053-0.659-0.118-0.95-0.376c-0.157-0.141-0.296-0.324-0.423-0.563c-0.151-0.286-0.234-0.605-0.241-0.926l-0.004-0.798
				c0-0.094,0.035-0.435,0.063-0.686l0.022-0.214c0.043-0.433,0.109-0.838,0.312-1.525c0.22-0.744,0.742-1.311,1.554-1.684
				c0.638-0.293,1.366-0.433,2.01-0.556c0.462-0.088,0.934-0.177,1.222-0.307c0.078-0.034,0.149-0.081,0.213-0.138
				c-0.194-0.202-0.369-0.429-0.524-0.676c-0.287-0.457-0.509-0.993-0.659-1.596c-0.137-0.09-0.262-0.213-0.37-0.366
				c-0.171-0.239-0.299-0.555-0.358-0.888c-0.073-0.41-0.043-0.81,0.082-1.13c-0.071-0.372-0.094-0.785-0.068-1.236
				c0.037-0.679,0.168-1.238,0.207-1.394c0.182-0.721,0.705-1.431,1.438-1.951c0.568-0.403,1.526-0.884,2.869-0.884l0,0
				c1.344,0,2.302,0.48,2.869,0.884c0.733,0.521,1.258,1.231,1.438,1.949c0.006,0.021,0.165,0.64,0.205,1.397
				c0.025,0.458,0,0.875-0.072,1.239c0.124,0.319,0.153,0.718,0.08,1.125c-0.061,0.336-0.184,0.642-0.355,0.885
				c-0.107,0.153-0.232,0.276-0.368,0.366c-0.151,0.606-0.373,1.143-0.66,1.599c-0.153,0.245-0.328,0.471-0.522,0.673
				c0.064,0.059,0.136,0.105,0.214,0.14c0.29,0.131,0.762,0.22,1.219,0.307c0.648,0.124,1.377,0.264,2.015,0.557
				c0.812,0.373,1.334,0.939,1.554,1.684c0.203,0.689,0.27,1.095,0.312,1.526c0.015,0.155,0.027,0.318,0.04,0.504
				c0.026,0.132,0.039,0.264,0.039,0.395v0.756c0,0.088-0.005,0.177-0.017,0.265c-0.045,0.347-0.18,0.681-0.389,0.963
				c-0.125,0.169-0.33,0.409-0.672,0.54c-0.162,0.062-0.333,0.098-0.503,0.13l-0.121,0.023c-0.28,0.058-0.56,0.109-0.84,0.155
				C20.504,22.784,18.613,22.925,16.656,22.925z M16.659,5.457c-1.079,0-1.841,0.38-2.29,0.698
				c-0.542,0.386-0.924,0.888-1.048,1.378c-0.024,0.099-0.146,0.603-0.179,1.208c-0.021,0.374-0.003,0.708,0.053,0.995l0.076,0.322
				l-0.102,0.174c-0.06,0.103-0.11,0.333-0.055,0.643c0.033,0.187,0.103,0.363,0.188,0.484c0.072,0.102,0.122,0.12,0.123,0.121
				l0.27,0.091l0.086,0.286c0.125,0.586,0.321,1.095,0.583,1.513c0.186,0.295,0.407,0.549,0.659,0.754l0.315,0.258l-0.188,0.361
				c-0.074,0.142-0.16,0.271-0.254,0.385c-0.185,0.22-0.405,0.387-0.659,0.5c-0.394,0.177-0.925,0.277-1.439,0.375
				c-0.59,0.113-1.256,0.241-1.782,0.482c-0.553,0.254-0.874,0.591-1.013,1.059c-0.182,0.614-0.238,0.956-0.275,1.339L9.704,19.11
				c-0.023,0.208-0.056,0.488-0.058,0.577v0.754c0.007,0.187,0.05,0.352,0.128,0.499c0.07,0.132,0.137,0.225,0.204,0.284
				c0.08,0.071,0.292,0.108,0.462,0.14l0.166,0.03c0.246,0.05,0.494,0.096,0.743,0.137c3.137,0.516,7.477,0.516,10.613,0
				c0.269-0.044,0.534-0.094,0.801-0.148l0.135-0.026c0.112-0.021,0.226-0.04,0.333-0.081c0.056-0.021,0.122-0.061,0.225-0.2
				c0.108-0.146,0.178-0.319,0.201-0.499c0.006-0.046,0.009-0.09,0.009-0.135v-0.756c0-0.072-0.008-0.147-0.024-0.223l-0.01-0.069
				c-0.013-0.189-0.025-0.354-0.041-0.509c-0.037-0.383-0.094-0.726-0.275-1.341c-0.139-0.468-0.46-0.805-1.013-1.059
				c-0.526-0.241-1.192-0.369-1.78-0.481c-0.517-0.099-1.048-0.199-1.443-0.377c-0.252-0.112-0.473-0.279-0.655-0.497
				c-0.099-0.117-0.185-0.249-0.259-0.393l-0.184-0.359l0.312-0.256c0.253-0.207,0.474-0.46,0.656-0.753
				c0.263-0.416,0.459-0.924,0.584-1.513l0.062-0.293l0.289-0.083c0,0,0.052-0.02,0.123-0.121c0.085-0.12,0.153-0.298,0.188-0.485
				c0.056-0.308,0.006-0.537-0.054-0.64l-0.103-0.177l0.078-0.317c0.058-0.29,0.076-0.624,0.057-0.999
				C20.139,8.084,20,7.544,19.999,7.538c-0.125-0.495-0.507-0.997-1.05-1.383C18.501,5.837,17.739,5.457,16.659,5.457z"/>
		</g>
	</g>
</g>
<g id="Layer_7">
</g>
</svg>
