<?xml version="1.0" encoding="utf-8"?>
<!-- Generator: Adobe Illustrator 24.0.1, SVG Export Plug-In . SVG Version: 6.00 Build 0)  -->
<svg version="1.1" id="Layer_1" xmlns="http://www.w3.org/2000/svg" xmlns:xlink="http://www.w3.org/1999/xlink" x="0px" y="0px"
	 viewBox="0 0 32 32" style="enable-background:new 0 0 32 32;" xml:space="preserve">
<style type="text/css">
	.st0{fill:none;}
	.st1{opacity:0.6;fill:#333333;enable-background:new    ;}
	.st2{fill-rule:evenodd;clip-rule:evenodd;fill:#333333;}
	.st3{fill:none;stroke:#2E3D98;}
</style>
<circle id="state" class="st0" cx="16" cy="16" r="14"/>
<g id="metaphor">
	<path class="st1" d="M15,9.5h7.5v13H15V9.5z"/>
	<path class="st2" d="M22.4,8H9.6C8.716,8,8,8.716,8,9.6v12.8C8,23.284,8.716,24,9.6,24h12.8c0.884,0,1.6-0.716,1.6-1.6V9.6
		C24,8.716,23.284,8,22.4,8z M16.5,9.5h6v13h-6V9.5z M15,9.5H9.5v13H15V9.5z"/>
	<path class="st2" d="M12.219,13.156c-0.256-0.275-0.679-0.275-0.935,0c-0.247,0.265-0.247,0.687,0,0.952l0.856,0.917H9.653
		C9.276,15.025,9,15.347,9,15.707c0,0.36,0.276,0.682,0.653,0.682h2.474l-0.843,0.904c-0.247,0.265-0.247,0.687,0,0.951
		c0.256,0.275,0.679,0.275,0.935,0l2.373-2.544L12.219,13.156z"/>
</g>
<circle id="focus" class="st3" cx="16" cy="16" r="15.5"/>
</svg>
