<?xml version="1.0" encoding="utf-8"?>
<!-- Generator: Adobe Illustrator 24.0.1, SVG Export Plug-In . SVG Version: 6.00 Build 0)  -->
<svg version="1.1" id="Layer_1" xmlns="http://www.w3.org/2000/svg" xmlns:xlink="http://www.w3.org/1999/xlink" x="0px" y="0px"
	 viewBox="0 0 32 32" style="enable-background:new 0 0 32 32;" xml:space="preserve">
<style type="text/css">
	.st0{fill:none;}
	.st1{fill:#333333;}
	.st2{fill:none;stroke:#2E3D98;}
</style>
<circle id="state" class="st0" cx="16" cy="16" r="14"/>
<path id="metaphor" class="st1" d="M21.382,10H10.618C9.178,10,8,11.144,8,12.541v6.918C8,20.857,9.178,22,10.618,22h10.764
	C22.822,22,24,20.857,24,19.459v-6.918C24,11.144,22.822,10,21.382,10z M10.618,11.412h10.764c0.087,0,0.167,0.007,0.247,0.028
	L16,15.682l-5.629-4.242C10.451,11.419,10.531,11.412,10.618,11.412z M22.545,19.459c0,0.621-0.524,1.129-1.164,1.129H10.618
	c-0.64,0-1.164-0.508-1.164-1.129v-6.918c0-0.141,0.029-0.275,0.08-0.402l6.131,4.631c0.095,0.078,0.218,0.113,0.335,0.113
	s0.24-0.035,0.334-0.113l6.131-4.631c0.051,0.127,0.08,0.261,0.08,0.402V19.459z"/>
<circle id="focus" class="st2" cx="16" cy="16" r="15.5"/>
</svg>
