<?xml version="1.0" encoding="utf-8"?>
<!-- Generator: Adobe Illustrator 24.0.1, SVG Export Plug-In . SVG Version: 6.00 Build 0)  -->
<svg version="1.1" id="Layer_1" xmlns="http://www.w3.org/2000/svg" xmlns:xlink="http://www.w3.org/1999/xlink" x="0px" y="0px"
	 viewBox="0 0 32 32" style="enable-background:new 0 0 32 32;" xml:space="preserve">
<style type="text/css">
	.st0{fill:none;}
	.st1{fill-rule:evenodd;clip-rule:evenodd;fill:#333333;}
	.st2{fill:none;stroke:#2E3D98;}
</style>
<circle id="state" class="st0" cx="16" cy="16" r="14"/>
<path id="metaphor" class="st1" d="M15.227,8.04c-0.69-0.674-1.618-1.048-2.583-1.04c-0.967-0.009-1.898,0.365-2.59,1.04
	l-1.48,1.481c-0.34,0.339-0.611,0.742-0.795,1.186c-0.184,0.444-0.279,0.92-0.279,1.4c0,0.481,0.095,0.956,0.279,1.4
	c0.184,0.444,0.454,0.847,0.795,1.186l0.216,0.216c0.676,0.675,1.59,1.059,2.545,1.068c0.955,0.009,1.877-0.356,2.565-1.019
	l4.405,4.405l-1.459,1.452c-0.105,0.104-0.188,0.229-0.245,0.365c-0.057,0.137-0.087,0.283-0.087,0.431
	c0,0.148,0.028,0.295,0.085,0.432c0.056,0.137,0.139,0.262,0.244,0.367c0.104,0.105,0.229,0.188,0.365,0.245
	c0.137,0.057,0.283,0.087,0.432,0.087c0.148,0,0.295-0.028,0.432-0.085c0.137-0.056,0.262-0.139,0.367-0.244l1.459-1.46l0.657,0.656
	l-1.452,1.459c-0.104,0.104-0.188,0.229-0.244,0.365c-0.057,0.137-0.086,0.283-0.086,0.431s0.029,0.294,0.086,0.431
	c0.056,0.136,0.139,0.261,0.244,0.365c0.103,0.107,0.227,0.192,0.364,0.25C19.602,24.97,19.749,25,19.897,25
	c0.148-0.001,0.295-0.031,0.432-0.089c0.137-0.058,0.26-0.143,0.364-0.249l1.459-1.452l0.328,0.328
	c0.213,0.203,0.496,0.314,0.79,0.311c0.294-0.003,0.575-0.122,0.783-0.33c0.208-0.208,0.326-0.489,0.33-0.783
	s-0.108-0.577-0.311-0.79l-8.58-8.58c0.667-0.686,1.035-1.608,1.026-2.565c-0.009-0.957-0.395-1.871-1.075-2.545L15.227,8.04z
	 M12.372,13.318c-0.268,0.259-0.626,0.402-0.999,0.398v0.001c-0.37,0.004-0.727-0.14-0.991-0.398l-0.216-0.216
	c-0.131-0.131-0.234-0.286-0.305-0.457c-0.071-0.171-0.107-0.354-0.107-0.538c0-0.185,0.036-0.368,0.107-0.538
	c0.071-0.171,0.174-0.326,0.305-0.457l1.48-1.481c0.264-0.264,0.622-0.412,0.995-0.412c0.373,0,0.731,0.148,0.995,0.412l0.216,0.216
	c0.13,0.13,0.234,0.284,0.305,0.454c0.071,0.17,0.107,0.352,0.107,0.537s-0.036,0.366-0.107,0.537
	c-0.071,0.17-0.174,0.325-0.305,0.455L12.372,13.318z"/>
<circle id="focus" class="st2" cx="16" cy="16" r="15.5"/>
</svg>
