<?xml version="1.0" encoding="utf-8"?>
<!-- Generator: Adobe Illustrator 24.0.1, SVG Export Plug-In . SVG Version: 6.00 Build 0)  -->
<svg version="1.1" id="Layer_1" xmlns="http://www.w3.org/2000/svg" xmlns:xlink="http://www.w3.org/1999/xlink" x="0px" y="0px"
	 viewBox="0 0 32 32" style="enable-background:new 0 0 32 32;" xml:space="preserve">
<style type="text/css">
	.st0{fill:none;}
	.st1{fill-rule:evenodd;clip-rule:evenodd;fill:#333333;}
	.st2{fill:none;stroke:#2E3D98;}
</style>
<circle id="state" class="st0" cx="16" cy="16" r="14"/>
<path id="metaphor" class="st1" d="M12.259,23.75v-2.955c-2.066,0-3.741-1.654-3.741-3.694v-2.956c0-2.04,1.675-3.694,3.741-3.694
	h7.481c2.066,0,3.741,1.654,3.741,3.694V17.1c0,2.04-1.675,3.694-3.741,3.694h-4.489L12.259,23.75z M15.868,22.295h3.873
	c2.877,0,5.241-2.308,5.241-5.194v-2.956c0-2.886-2.364-5.194-5.241-5.194h-7.481c-2.877,0-5.241,2.308-5.241,5.194V17.1
	c0,2.364,1.586,4.34,3.741,4.978v1.672c0,0.605,0.363,1.151,0.922,1.384c0.558,0.233,1.202,0.108,1.632-0.317L15.868,22.295z"/>
<circle id="focus" class="st2" cx="16" cy="16" r="15.5"/>
</svg>
