<?xml version="1.0" encoding="utf-8"?>
<!-- Generator: Adobe Illustrator 19.1.0, SVG Export Plug-In . SVG Version: 6.00 Build 0)  -->
<!DOCTYPE svg PUBLIC "-//W3C//DTD SVG 1.1//EN" "http://www.w3.org/Graphics/SVG/1.1/DTD/svg11.dtd">
<svg version="1.1" id="Layer_1" xmlns="http://www.w3.org/2000/svg" xmlns:xlink="http://www.w3.org/1999/xlink" x="0px" y="0px"
	 viewBox="-379 291 32 32" enable-background="new -379 291 32 32" xml:space="preserve">
<g>
	<g>
		<path fill="#FFFFFF" d="M-363,291c-8.837,0-16,7.163-16,16s7.163,16,16,16s16-7.163,16-16S-354.163,291-363,291z M-356,314
			c-0.583,0.583-1.538,0.583-2.121,0l-4.848-4.848l-5.13,5.13c-0.583,0.583-1.538,0.583-2.121,0c-0.583-0.583-0.583-1.538,0-2.121
			l5.13-5.13l-4.848-4.848c-0.583-0.583-0.583-1.538,0-2.121c0.583-0.583,1.538-0.583,2.121,0l4.848,4.848l4.567-4.567
			c0.583-0.583,1.538-0.583,2.121,0c0.583,0.583,0.583,1.538,0,2.121l-4.567,4.567l4.848,4.848
			C-355.417,312.462-355.417,313.417-356,314z"/>
	</g>
</g>
</svg>
