<?xml version="1.0" encoding="utf-8"?>
<!-- Generator: Adobe Illustrator 19.1.0, SVG Export Plug-In . SVG Version: 6.00 Build 0)  -->
<!DOCTYPE svg PUBLIC "-//W3C//DTD SVG 1.1//EN" "http://www.w3.org/Graphics/SVG/1.1/DTD/svg11.dtd">
<svg version="1.1" id="Layer_1" xmlns="http://www.w3.org/2000/svg" xmlns:xlink="http://www.w3.org/1999/xlink" x="0px" y="0px"
	 viewBox="-379 291 32 32" enable-background="new -379 291 32 32" xml:space="preserve">
<g>
	<path fill="#FFFFFF" d="M-363,322.5c-8.547,0-15.5-6.953-15.5-15.5s6.953-15.5,15.5-15.5s15.5,6.953,15.5,15.5
		S-354.453,322.5-363,322.5z"/>
	<g>
		<path fill="#231F20" d="M-363,292c8.271,0,15,6.729,15,15s-6.729,15-15,15s-15-6.729-15-15S-371.271,292-363,292 M-363,291
			c-8.837,0-16,7.163-16,16s7.163,16,16,16s16-7.163,16-16S-354.163,291-363,291L-363,291z"/>
	</g>
</g>
<circle fill="#333333" cx="-363" cy="315" r="2"/>
<path fill="#333333" d="M-361,309c0,1.1-0.9,2-2,2l0,0c-1.1,0-2-0.9-2-2v-11c0-1.1,0.9-2,2-2l0,0c1.1,0,2,0.9,2,2V309z"/>
</svg>
