<svg width="32" height="32" viewBox="0 0 32 32" fill="none" xmlns="http://www.w3.org/2000/svg">
<path fill-rule="evenodd" clip-rule="evenodd" d="M16 8C15.4478 8 15 8.44775 15 9V15H9C8.44775 15 8 15.4478 8 16C8 16.3501 8.17969 16.6582 8.45215 16.8369C8.60938 16.9399 8.79785 17 9 17H15V23C15 23.5522 15.4478 24 16 24C16.3789 24 16.7085 23.7891 16.8784 23.4785C16.9561 23.3364 17 23.1733 17 23V17H23C23.5522 17 24 16.5522 24 16C24 15.4478 23.5522 15 23 15H17V9C17 8.44775 16.5522 8 16 8Z" fill="white"/>
</svg>
