<?xml version="1.0" encoding="utf-8"?>
<!-- Generator: Adobe Illustrator 19.1.0, SVG Export Plug-In . SVG Version: 6.00 Build 0)  -->
<svg version="1.1" id="Layer_1" xmlns="http://www.w3.org/2000/svg" xmlns:xlink="http://www.w3.org/1999/xlink" x="0px" y="0px"
	 viewBox="0 0 24 24" enable-background="new 0 0 24 24" xml:space="preserve">
<g>
	<path fill="#EEEEEE" d="M2.5,16.5c-1.103,0-2-0.897-2-2v-12c0-1.103,0.897-2,2-2h7.707L13.5,3.793V14.5c0,1.103-0.897,2-2,2H2.5z"
		/>
	<path fill="#333333" d="M10,1l3,3v10.5c0,0.829-0.671,1.5-1.5,1.5h-9C1.671,16,1,15.329,1,14.5v-12C1,1.671,1.671,1,2.5,1H10
		 M10.414,0H10H2.5C1.122,0,0,1.122,0,2.5v12C0,15.878,1.122,17,2.5,17h9c1.378,0,2.5-1.122,2.5-2.5V4V3.586l-0.293-0.293l-3-3
		L10.414,0z"/>
	<path fill="#FFFFFF" d="M6.5,19.5c-1.103,0-2-0.897-2-2v-12c0-1.103,0.897-2,2-2h7.707L17.5,6.793V17.5c0,1.103-0.897,2-2,2H6.5z"
		/>
	<path fill="#333333" d="M14,4l3,3v10.5c0,0.829-0.671,1.5-1.5,1.5h-9C5.671,19,5,18.329,5,17.5v-12C5,4.671,5.671,4,6.5,4H14
		 M14.414,3H14H6.5C5.122,3,4,4.122,4,5.5v12C4,18.878,5.122,20,6.5,20h9c1.378,0,2.5-1.122,2.5-2.5V7V6.586l-0.293-0.293l-3-3
		L14.414,3z"/>
	<path fill="#333333" d="M16,23.5c-4.136,0-7.5-3.364-7.5-7.5s3.364-7.5,7.5-7.5s7.5,3.364,7.5,7.5S20.136,23.5,16,23.5"/>
	<path fill="#FFFFFF" d="M16,9c3.866,0,7,3.134,7,7s-3.134,7-7,7s-7-3.134-7-7S12.134,9,16,9 M16,8c-4.411,0-8,3.589-8,8
		s3.589,8,8,8s8-3.589,8-8S20.411,8,16,8"/>
	<path fill="#FFFFFF" d="M19,17h-6c-0.552,0-1-0.448-1-1s0.448-1,1-1h6c0.552,0,1,0.448,1,1S19.552,17,19,17"/>
	<path fill="#FFFFFF" d="M15,19v-6c0-0.552,0.448-1,1-1s1,0.448,1,1v6c0,0.552-0.448,1-1,1S15,19.552,15,19"/>
</g>
</svg>
