<?xml version="1.0" encoding="utf-8"?>
<!-- Generator: Adobe Illustrator 17.1.0, SVG Export Plug-In . SVG Version: 6.00 Build 0)  -->
<!DOCTYPE svg PUBLIC "-//W3C//DTD SVG 1.1//EN" "http://www.w3.org/Graphics/SVG/1.1/DTD/svg11.dtd">
<svg version="1.1" xmlns="http://www.w3.org/2000/svg" xmlns:xlink="http://www.w3.org/1999/xlink" x="0px" y="0px"
	 viewBox="0 0 32 32" enable-background="new 0 0 32 32" xml:space="preserve">
<g id="mo" display="none">
	<g display="inline">
		<rect fill="#DFE7EA" width="32" height="32"/>
	</g>
</g>
<g id="md" display="none">
	<g display="inline">
		<rect fill="#BAC9CE" width="32" height="32"/>
	</g>
</g>
<g id="Layer_2">
	<polygon fill="#333333" points="31.912,-9.033 27.669,-13.276 32,-17.607 29.923,-19.684 25.592,-15.353 21.305,-19.64 
		19.272,-17.607 23.559,-13.32 19.316,-9.077 21.393,-7 25.636,-11.243 29.879,-7 	"/>
	<polygon fill="#333333" points="32,23.125 26,23.125 26,17 23.063,17 23.063,23.125 17,23.125 17,26 23.063,26 23.063,32 26,32 
		26,26 32,26 	"/>
	<path fill="#333333" d="M17.858-17.606l1.564-1.564c-0.775-0.208-1.583-0.377-2.422-0.494v-3.145
		c0.218-0.127,0.427-0.267,0.627-0.419c0.009-0.007,0.018-0.013,0.027-0.02c0.398-0.306,0.756-0.66,1.066-1.055
		c0.015-0.019,0.029-0.04,0.044-0.059c0.132-0.172,0.253-0.351,0.366-0.537c0.021-0.035,0.044-0.07,0.064-0.106
		c0.239-0.414,0.431-0.859,0.566-1.328c0.017-0.06,0.031-0.12,0.047-0.181c0.045-0.177,0.082-0.357,0.111-0.541
		c0.011-0.069,0.023-0.137,0.031-0.206C19.98-27.504,20-27.75,20-28v-5c0-2.959-2.144-5.412-4.963-5.904
		c-0.008-0.001-0.016-0.002-0.023-0.004C14.684-38.964,14.346-39,14-39c-3.314,0-6,2.686-6,6v5c0,0.25,0.02,0.496,0.05,0.738
		c0.009,0.069,0.021,0.137,0.031,0.206c0.029,0.183,0.066,0.363,0.111,0.541c0.016,0.06,0.029,0.121,0.047,0.181
		c0.135,0.469,0.327,0.914,0.566,1.328c0.021,0.036,0.043,0.07,0.064,0.106c0.113,0.186,0.235,0.365,0.366,0.537
		c0.015,0.02,0.029,0.04,0.044,0.059c0.31,0.395,0.668,0.749,1.066,1.055c0.009,0.007,0.018,0.013,0.027,0.02
		c0.2,0.152,0.409,0.293,0.627,0.419v3.145C4.742-18.791,0.05-15.25,0.004-11h19.821l2.319-2.319L17.858-17.606z"/>
	<path fill="#333333" d="M16,27v-4.875h6.063v-1.36c-0.82-0.369-1.704-0.684-2.641-0.935c0,0,0,0,0,0
		c-0.379-0.102-0.765-0.194-1.16-0.275c-0.01-0.002-0.02-0.005-0.03-0.007c-0.403-0.082-0.813-0.154-1.231-0.212v-3.145
		c0.218-0.127,0.427-0.267,0.627-0.419c0,0,0,0,0,0c0.009-0.007,0.018-0.013,0.026-0.02c0,0,0,0,0,0
		c0.003-0.002,0.005-0.005,0.008-0.007c0.618-0.477,1.139-1.072,1.533-1.751c0,0,0,0,0,0c0-0.001,0.001-0.001,0.001-0.002
		c0.239-0.413,0.43-0.858,0.565-1.326c0,0,0,0,0,0C19.914,12.137,20,11.579,20,11V6c0-2.952-2.135-5.398-4.943-5.899
		c-0.014-0.003-0.029-0.006-0.043-0.009c0,0,0,0,0,0C14.684,0.036,14.346,0,14,0c-3.314,0-6,2.686-6,6v5
		c0,0.579,0.086,1.137,0.239,1.666c0,0,0,0,0,0c0.136,0.468,0.326,0.913,0.565,1.326c0,0.001,0.001,0.001,0.001,0.002c0,0,0,0,0,0
		c0.393,0.679,0.915,1.274,1.533,1.751c0.003,0.002,0.005,0.005,0.008,0.007c0,0,0,0,0,0c0.009,0.007,0.018,0.013,0.026,0.02
		c0,0,0,0,0,0c0.2,0.152,0.409,0.293,0.627,0.419v3.145C4.742,20.209,0.05,23.75,0.004,28h19.821h2.237v-1H16z"/>
</g>
</svg>
