<svg data-name="Layer 1" xmlns="http://www.w3.org/2000/svg" viewBox="0 0 24 24"><title>Artboard 1</title><circle cx="12" cy="12" r="12" fill="#565656"/><rect x="4" y="16" width="11" height="2" rx="1" ry="1" fill="#fff"/><circle cx="15.5" cy="8.5" r="4.5" fill="#fff"/><path d="M10,8H5a1,1,0,0,0,0,2h5.21A5.47,5.47,0,0,1,10,8.5C10,8.33,10,8.16,10,8Z" fill="#fff"/><path d="M11.26,12H5a1,1,0,0,0,0,2h9a1,1,0,0,0,.43-.11A5.5,5.5,0,0,1,11.26,12Z" fill="#fff"/><path d="M15,11.06,13,9A.75.75,0,0,1,14,8l1,1,2.47-2.47a.75.75,0,0,1,1.06,1.06Z" fill="#565656"/></svg>