<?xml version="1.0" encoding="utf-8"?>
<!-- Generator: Adobe Illustrator 18.1.1, SVG Export Plug-In . SVG Version: 6.00 Build 0)  -->
<svg version="1.1" id="Layer_1" xmlns="http://www.w3.org/2000/svg" xmlns:xlink="http://www.w3.org/1999/xlink" x="0px" y="0px"
	 viewBox="0 0 12 12" enable-background="new 0 0 12 12" xml:space="preserve">
<g>
	<g>
		<path fill="#0D9571" d="M6,11.9995c-3.3083,0-6-2.6917-6-5.9995c0-3.3083,2.6917-6,6-6s6,2.6917,6,6
			C12,9.3078,9.3083,11.9995,6,11.9995z M6,0.9231C3.2006,0.9231,0.9231,3.2006,0.9231,6S3.2006,11.0765,6,11.0765
			c2.799,0,5.0769-2.277,5.0769-5.0765S8.799,0.9231,6,0.9231z"/>
	</g>
	<g>
		<path fill="#0D9571" d="M4.8083,9.0942c-0.2362,0-0.4724-0.0901-0.6526-0.2704L2.1959,6.8649
			c-0.3606-0.3606-0.3606-0.9452,0-1.3057c0.3606-0.3606,0.9447-0.3606,1.3053,0l1.3071,1.3066l3.6905-3.6905
			c0.3606-0.3606,0.9447-0.3606,1.3053,0s0.3606,0.9447,0,1.3053L5.4609,8.8238C5.2806,9.0041,5.0445,9.0942,4.8083,9.0942z"/>
	</g>
</g>
</svg>
