<svg width="32" height="96" viewBox="0 0 32 96" fill="none" xmlns="http://www.w3.org/2000/svg">
<path opacity="0.9" fill-rule="evenodd" clip-rule="evenodd" d="M12.0858 15.286L9.15656 18.2154L8 24L13.7843 22.8434L16.7139 19.9136L12.0858 15.286ZM19.0647 17.5627L17.5624 19.0651L12.9343 14.4375L14.4369 12.9348L19.0647 17.5627ZM19.9132 16.7142L20.7259 15.9014L16.0982 11.2734L15.2854 12.0863L19.9132 16.7142ZM23.0459 13.5813C24.3206 12.3066 24.3175 10.238 23.0398 8.96023C21.7621 7.68247 19.6928 7.67942 18.4189 8.95413L17.2555 10.1176L21.8832 14.7456L23.0459 13.5813Z" fill="#333333"/>
<path d="M9.06011 8C8.85034 8.00037 8.64538 8.06286 8.47108 8.17958C8.29679 8.2963 8.16096 8.46202 8.08073 8.65585C8.00051 8.84967 7.97948 9.06291 8.0203 9.26867C8.06112 9.47442 8.16197 9.66349 8.31011 9.812L22.1861 23.688C22.3867 23.8787 22.6538 23.9834 22.9305 23.9799C23.2073 23.9764 23.4717 23.8649 23.6674 23.6693C23.8631 23.4736 23.9745 23.2092 23.978 22.9324C23.9815 22.6557 23.8768 22.3886 23.6861 22.188L9.81111 8.311C9.71258 8.21226 9.59552 8.13395 9.46664 8.08058C9.33776 8.02721 9.1996 7.99982 9.06011 8Z" fill="#333333"/>
<circle cx="16" cy="48" r="14" fill="#F3FBFF"/>
<path opacity="0.9" fill-rule="evenodd" clip-rule="evenodd" d="M12.0858 47.286L9.15656 50.2154L8 56L13.7843 54.8434L16.7139 51.9136L12.0858 47.286ZM19.0647 49.5627L17.5624 51.0651L12.9343 46.4375L14.4369 44.9348L19.0647 49.5627ZM19.9132 48.7142L20.7259 47.9014L16.0982 43.2734L15.2854 44.0863L19.9132 48.7142ZM23.0459 45.5813C24.3206 44.3066 24.3175 42.238 23.0398 40.9602C21.7621 39.6825 19.6928 39.6794 18.4189 40.9541L17.2555 42.1176L21.8832 46.7456L23.0459 45.5813Z" fill="#627783"/>
<path d="M9.06011 40C8.85034 40.0004 8.64538 40.0629 8.47108 40.1796C8.29679 40.2963 8.16096 40.462 8.08073 40.6558C8.00051 40.8497 7.97948 41.0629 8.0203 41.2687C8.06112 41.4744 8.16197 41.6635 8.31011 41.812L22.1861 55.688C22.3867 55.8787 22.6538 55.9834 22.9305 55.9799C23.2073 55.9764 23.4717 55.8649 23.6674 55.6693C23.8631 55.4736 23.9745 55.2092 23.978 54.9324C23.9815 54.6557 23.8768 54.3886 23.6861 54.188L9.81111 40.311C9.71258 40.2123 9.59552 40.1339 9.46664 40.0806C9.33776 40.0272 9.1996 39.9998 9.06011 40Z" fill="#627783"/>
<circle cx="16" cy="80" r="14" fill="#CCCCCC"/>
<path opacity="0.9" fill-rule="evenodd" clip-rule="evenodd" d="M12.0858 79.286L9.15656 82.2154L8 88L13.7843 86.8434L16.7139 83.9136L12.0858 79.286ZM19.0647 81.5627L17.5624 83.0651L12.9343 78.4375L14.4369 76.9348L19.0647 81.5627ZM19.9132 80.7142L20.7259 79.9014L16.0982 75.2734L15.2854 76.0863L19.9132 80.7142ZM23.0459 77.5813C24.3206 76.3066 24.3175 74.238 23.0398 72.9602C21.7621 71.6825 19.6928 71.6794 18.4189 72.9541L17.2555 74.1176L21.8832 78.7456L23.0459 77.5813Z" fill="#757575"/>
<path d="M9.06011 72C8.85034 72.0004 8.64538 72.0629 8.47108 72.1796C8.29679 72.2963 8.16096 72.462 8.08073 72.6558C8.00051 72.8497 7.97948 73.0629 8.0203 73.2687C8.06112 73.4744 8.16197 73.6635 8.31011 73.812L22.1861 87.688C22.3867 87.8787 22.6538 87.9834 22.9305 87.9799C23.2073 87.9764 23.4717 87.8649 23.6674 87.6693C23.8631 87.4736 23.9745 87.2092 23.978 86.9324C23.9815 86.6557 23.8768 86.3886 23.6861 86.188L9.81111 72.311C9.71258 72.2123 9.59552 72.1339 9.46664 72.0806C9.33776 72.0272 9.1996 71.9998 9.06011 72Z" fill="#757575"/>
</svg>