<svg xmlns="http://www.w3.org/2000/svg" viewBox="0 0 16 16"><title>cancel_edit16_md</title><path d="M14.1,5.908a2.827,2.827,0,0,0-.006-4h0a2.827,2.827,0,0,0-4-.006L9.086,2.911l4,4Z" fill="#666"/><rect x="9.38" y="3.375" width="0.828" height="5.662" transform="translate(-1.52 8.744) rotate(-45.003)" fill="#666"/><polygon points="4.497 7.5 2.079 9.917 1.078 14.922 6.083 13.921 8.501 11.503 4.497 7.5" fill="#666"/><path d="M1.061,0a1.062,1.062,0,0,0-.75,1.812L14.187,15.688a1.061,1.061,0,0,0,1.5-1.5L1.812.311A1.059,1.059,0,0,0,1.061,0Z" fill="#666"/></svg>