<svg data-name="Layer 1" xmlns="http://www.w3.org/2000/svg" viewBox="0 0 32 32"><title>category_nonselectable32</title><rect x="4.686" y="4.686" width="22.627" height="22.627" transform="translate(-6.627 16) rotate(-45)" fill="#fff"/><rect x="11.286" y="3.594" width="9.428" height="9.428" rx="0.866" ry="0.866" transform="translate(-1.188 13.747) rotate(-45)" fill="#a3a3a3"/><rect x="18.978" y="11.286" width="9.428" height="9.428" rx="0.866" ry="0.866" transform="translate(-4.374 21.439) rotate(-45)" fill="#8e8e8e"/><rect x="11.286" y="18.978" width="9.428" height="9.428" rx="0.866" ry="0.866" transform="translate(-12.067 18.253) rotate(-45)" fill="#727272"/><rect x="3.594" y="11.286" width="9.428" height="9.428" rx="0.866" ry="0.866" transform="translate(-8.88 10.561) rotate(-45)" fill="#8e8e8e"/><g opacity="0.8"><circle cx="24.5" cy="24.5" r="6.5" fill="#fff"/></g><path d="M29.99,18.01,18.01,29.99c-.02-.02-.03-.04-.05-.06a.546.546,0,0,1-.07-.09,7.307,7.307,0,0,1-.52-.72c-.02-.03-.03-.05-.05-.08a8.067,8.067,0,0,1-.88-1.85A8.488,8.488,0,0,1,18,19.03a7.163,7.163,0,0,1,1.04-1.02A8.428,8.428,0,0,1,28,16.76a7.34,7.34,0,0,1,1,.53c.01.01.03.02.04.03A9.192,9.192,0,0,1,29.99,18.01Z" fill="#fff"/><path d="M24.5,17A7.5,7.5,0,1,0,32,24.5,7.5,7.5,0,0,0,24.5,17Zm0,13a5.5,5.5,0,0,1-4.53-8.62l7.65,7.65A5.492,5.492,0,0,1,24.5,30Zm4.53-2.38-7.65-7.65a5.5,5.5,0,0,1,7.65,7.65Z" fill="#cd3632"/></svg>