<?xml version="1.0" encoding="utf-8"?>
<!-- Generator: Adobe Illustrator 18.1.0, SVG Export Plug-In . SVG Version: 6.00 Build 0)  -->
<!DOCTYPE svg PUBLIC "-//W3C//DTD SVG 1.1//EN" "http://www.w3.org/Graphics/SVG/1.1/DTD/svg11.dtd">
<svg version="1.1" id="Layer_1" xmlns="http://www.w3.org/2000/svg" xmlns:xlink="http://www.w3.org/1999/xlink" x="0px" y="0px"
	 viewBox="0 0 32 32" enable-background="new 0 0 32 32" xml:space="preserve">
<g id="Ppt">
</g>
<g id="Small_Folder">
</g>
<g>
	
		<rect x="4.686" y="4.686" transform="matrix(0.7071 -0.7071 0.7071 0.7071 -6.6274 16)" fill="#FFFFFF" width="22.627" height="22.627"/>
	<g>
		<g>
			<path fill="#E3992E" d="M15.388,14.362L9.946,8.92c-0.338-0.338-0.338-0.887,0-1.225l5.442-5.442
				c0.338-0.338,0.887-0.338,1.225,0l5.442,5.442c0.338,0.338,0.338,0.887,0,1.225l-5.442,5.442
				C16.274,14.7,15.726,14.7,15.388,14.362z"/>
		</g>
		<g>
			<path fill="#DD8100" d="M23.08,22.054l-5.442-5.442c-0.338-0.338-0.338-0.887,0-1.225l5.442-5.442
				c0.338-0.338,0.887-0.338,1.225,0l5.442,5.442c0.338,0.338,0.338,0.887,0,1.225l-5.442,5.442
				C23.966,22.392,23.418,22.392,23.08,22.054z"/>
		</g>
		<g>
			<path fill="#B36601" d="M15.388,29.746l-5.442-5.442c-0.338-0.338-0.338-0.887,0-1.225l5.442-5.442
				c0.338-0.338,0.887-0.338,1.225,0l5.442,5.442c0.338,0.338,0.338,0.887,0,1.225l-5.442,5.442
				C16.274,30.085,15.726,30.085,15.388,29.746z"/>
		</g>
		<g>
			<path fill="#DD8100" d="M7.695,22.054l-5.442-5.442c-0.338-0.338-0.338-0.887,0-1.225l5.442-5.442
				c0.338-0.338,0.887-0.338,1.225,0l5.442,5.442c0.338,0.338,0.338,0.887,0,1.225L8.92,22.054
				C8.582,22.392,8.034,22.392,7.695,22.054z"/>
		</g>
	</g>
</g>
<g id="fave_icon_-_selected">
</g>
</svg>
