<?xml version="1.0" encoding="utf-8"?>
<!-- Generator: Adobe Illustrator 18.1.1, SVG Export Plug-In . SVG Version: 6.00 Build 0)  -->
<svg version="1.1" id="Layer_1" xmlns="http://www.w3.org/2000/svg" xmlns:xlink="http://www.w3.org/1999/xlink" x="0px" y="0px"
	 viewBox="0 0 24 24" enable-background="new 0 0 24 24" xml:space="preserve">
<g>
	<g>
		<rect x="7.1569" y="2.48" fill="#FFFFFF" width="9.6862" height="6.9528"/>
		<path fill="#004B71" d="M17.3231,9.913H6.6769V2h10.6463V9.913z M7.6369,8.953h8.7262V2.96H7.6369V8.953z"/>
	</g>
	<g>
		<g>
			<rect x="0.48" y="14.7272" fill="#FFFFFF" width="9.6862" height="6.9528"/>
			<path fill="#004B71" d="M10.6462,22.16H0v-7.9125h10.6462V22.16z M0.96,21.2h8.7262v-5.9925H0.96V21.2z"/>
		</g>
		<g>
			<rect x="13.8338" y="14.7272" fill="#FFFFFF" width="9.6862" height="6.9528"/>
			<path fill="#004B71" d="M24,22.16H13.3538v-7.9125H24V22.16z M14.3138,21.2H23.04v-5.9925h-8.7263V21.2z"/>
		</g>
	</g>
	<g>
		<polygon fill="#004B71" points="5.8031,14.7275 4.8431,14.7275 4.8431,11.8442 11.52,11.8442 11.52,9.433 12.48,9.433 
			12.48,12.8042 5.8031,12.8042 		"/>
	</g>
	<g>
		<polygon fill="#004B71" points="19.4475,14.7275 18.4875,14.7275 18.4875,12.8042 11.8102,12.8042 11.8102,9.433 12.7702,9.433 
			12.7702,11.8442 19.4475,11.8442 		"/>
	</g>
</g>
</svg>
