<svg data-name="Layer 1" xmlns="http://www.w3.org/2000/svg" viewBox="0 0 32 32"><title>category_volume_nonselectable32</title><path d="M1.5,27.5V6.513a2,2,0,0,1,2-2h7.9a2.131,2.131,0,0,1,1.319.46l3.668,3.238A1.006,1.006,0,0,0,17,8.5H27.5a2,2,0,0,1,2,2v17Z" fill="#848484"/><path d="M11.4,5.013a1.625,1.625,0,0,1,1.009.351l3.648,3.222A1.526,1.526,0,0,0,17,9H27.5A1.5,1.5,0,0,1,29,10.5V27H2V6.513a1.5,1.5,0,0,1,1.5-1.5h7.9m0-1H3.5A2.5,2.5,0,0,0,1,6.513V28H30V10.5A2.5,2.5,0,0,0,27.5,8H17c-.027,0-.1-.024-.305-.183l-3.626-3.2-.02-.018-.021-.017a2.636,2.636,0,0,0-1.63-.567Z" fill="#fff"/><path d="M3,26H28V12a1,1,0,0,0-1-1H4a1,1,0,0,0-1,1Z" fill="#9c9c9c"/><polygon points="3 26 28 26 28 13 3 26" fill="#969696"/><rect x="9.349" y="10.753" width="5.634" height="5.634" rx="1" ry="1" transform="translate(-6.032 12.577) rotate(-45)" fill="#848484"/><rect x="13.946" y="15.349" width="5.634" height="5.634" rx="1" ry="1" transform="translate(-7.936 17.174) rotate(-45)" fill="#848484"/><rect x="9.349" y="19.946" width="5.634" height="5.634" rx="1" ry="1" transform="translate(-12.532 15.27) rotate(-45)" fill="#848484"/><rect x="4.753" y="15.349" width="5.634" height="5.634" rx="1" ry="1" transform="translate(-10.628 10.673) rotate(-45)" fill="#848484"/><rect x="9.349" y="9.753" width="5.634" height="5.634" rx="1" ry="1" transform="translate(-5.325 12.284) rotate(-45)" fill="#ececec"/><rect x="13.946" y="14.349" width="5.634" height="5.634" rx="1" ry="1" transform="translate(-7.229 16.881) rotate(-45)" fill="#dadada"/><rect x="9.349" y="18.946" width="5.634" height="5.634" rx="1" ry="1" transform="translate(-11.825 14.977) rotate(-45)" fill="#bfbfbf"/><rect x="4.753" y="14.349" width="5.634" height="5.634" rx="1" ry="1" transform="translate(-9.921 10.38) rotate(-45)" fill="#dadada"/><path d="M29,17.29V27H16.37a8.088,8.088,0,0,1-.23-1A8.285,8.285,0,0,1,16,24.5a8.461,8.461,0,0,1,.48-2.81,6.877,6.877,0,0,1,.41-.97,8.592,8.592,0,0,1,3.03-3.38c.13-.08.26-.16.4-.24A8.468,8.468,0,0,1,28,16.76,7.34,7.34,0,0,1,29,17.29Z" fill="#fff"/><g opacity="0.8"><circle cx="24.5" cy="24.5" r="6.5" fill="#fff"/></g><path d="M24.5,17A7.5,7.5,0,1,0,32,24.5,7.5,7.5,0,0,0,24.5,17Zm0,13a5.5,5.5,0,0,1-4.53-8.62l7.65,7.65A5.492,5.492,0,0,1,24.5,30Zm4.53-2.38-7.65-7.65a5.5,5.5,0,0,1,7.65,7.65Z" fill="#cd3632"/></svg>