<?xml version="1.0" encoding="utf-8"?>
<!-- Generator: Adobe Illustrator 18.1.0, SVG Export Plug-In . SVG Version: 6.00 Build 0)  -->
<!DOCTYPE svg PUBLIC "-//W3C//DTD SVG 1.1//EN" "http://www.w3.org/Graphics/SVG/1.1/DTD/svg11.dtd">
<svg version="1.1" id="Layer_1" xmlns="http://www.w3.org/2000/svg" xmlns:xlink="http://www.w3.org/1999/xlink" x="0px" y="0px"
	 viewBox="0 0 18 18" enable-background="new 0 0 18 18" xml:space="preserve">
<g>
	<g>
		<g>
			<path fill="#666666" d="M16,18H2c-1.105,0-2-0.895-2-2V2c0-1.105,0.895-2,2-2h14c1.105,0,2,0.895,2,2v14
				C18,17.105,17.105,18,16,18z"/>
		</g>
	</g>
	<path fill="#FFFFFF" d="M7.144,13.789l-3.52-3.52c-0.391-0.391-0.391-1.023,0-1.414s1.023-0.391,1.414,0l2.105,2.105l5.526-5.526
		c0.391-0.391,1.023-0.391,1.414,0s0.391,1.023,0,1.414L7.144,13.789z"/>
</g>
</svg>
