<svg version="1.1" xmlns="http://www.w3.org/2000/svg" xmlns:xlink="http://www.w3.org/1999/xlink" x="0px" y="0px" viewBox="-627 339 20 20" style="enable-background:new -627 339 20 20;" xml:space="preserve"><g/><g/><g/><g/><g/><g/><g/><g/><g><g><path d="M-617,358.5c-2.5,0-4.9-1-6.7-2.8c-3.7-3.7-3.7-9.7,0-13.4c1.8-1.8,4.2-2.8,6.7-2.8s4.9,1,6.7,2.8
			c3.7,3.7,3.7,9.7,0,13.4C-612.1,357.5-614.5,358.5-617,358.5z" fill="#FFFFFF"/><path d="M-617,340c2.4,0,4.7,0.9,6.4,2.6c3.5,3.5,3.5,9.2,0,12.7c-1.7,1.7-4,2.6-6.4,2.6s-4.7-0.9-6.4-2.6
			c-3.5-3.5-3.5-9.2,0-12.7C-621.7,340.9-619.4,340-617,340 M-617,339c-2.6,0-5.1,1-7.1,2.9c-3.9,3.9-3.9,10.2,0,14.1
			c2,2,4.5,2.9,7.1,2.9s5.1-1,7.1-2.9c3.9-3.9,3.9-10.2,0-14.1C-611.9,340-614.4,339-617,339L-617,339z" fill="#0072AA"/></g><path d="M-612,348h-4v-4c0-0.6-0.4-1-1-1c-0.6,0-1,0.4-1,1v4h-4c-0.6,0-1,0.4-1,1s0.4,1,1,1h4v4c0,0.6,0.4,1,1,1
		c0.6,0,1-0.4,1-1v-4h4c0.6,0,1-0.4,1-1S-611.4,348-612,348z" fill="#0072AA"/></g></svg>