<?xml version="1.0" encoding="utf-8"?>
<!-- Generator: Adobe Illustrator 18.1.0, SVG Export Plug-In . SVG Version: 6.00 Build 0)  -->
<!DOCTYPE svg PUBLIC "-//W3C//DTD SVG 1.1//EN" "http://www.w3.org/Graphics/SVG/1.1/DTD/svg11.dtd">
<svg version="1.1" id="Layer_1" xmlns="http://www.w3.org/2000/svg" xmlns:xlink="http://www.w3.org/1999/xlink" x="0px" y="0px"
	 viewBox="0 0 24 24" enable-background="new 0 0 24 24" xml:space="preserve">
<g id="metadata">
</g>
<g id="like_icon">
</g>
<g id="fave_icon">
</g>
<g id="fave_icon_-_selected">
</g>
<g id="comment_icon_-_selected">
</g>
<g id="Comment_icon">
</g>
<g id="fave_icon_-_selected_1_">
</g>
<g id="like_icon_-_selected">
</g>
<g>
	<g>
		<path fill="#FFFFFF" d="M12,21.5c-2.538,0-4.923-0.988-6.718-2.782c-3.704-3.704-3.704-9.731,0-13.436
			C7.077,3.488,9.462,2.5,12,2.5s4.923,0.988,6.718,2.782c3.704,3.704,3.704,9.731,0,13.436C16.923,20.512,14.538,21.5,12,21.5z"/>
		<path fill="#0072AA" d="M12,3c2.404,0,4.664,0.936,6.364,2.636c3.509,3.509,3.509,9.219,0,12.728C16.664,20.064,14.404,21,12,21
			s-4.664-0.936-6.364-2.636c-3.509-3.509-3.509-9.219,0-12.728C7.336,3.936,9.596,3,12,3 M12,2C9.441,2,6.882,2.976,4.929,4.929
			c-3.905,3.905-3.905,10.237,0,14.142C6.882,21.024,9.441,22,12,22s5.118-0.976,7.071-2.929c3.905-3.905,3.905-10.237,0-14.142
			C17.118,2.976,14.559,2,12,2L12,2z"/>
	</g>
	<path fill="#0072AA" d="M17,11h-4V7c0-0.553-0.447-1-1-1s-1,0.447-1,1v4H7c-0.553,0-1,0.447-1,1s0.447,1,1,1h4v4
		c0,0.553,0.447,1,1,1s1-0.447,1-1v-4h4c0.553,0,1-0.447,1-1S17.553,11,17,11z"/>
</g>
</svg>
