<?xml version="1.0" encoding="utf-8"?>
<!-- Generator: Adobe Illustrator 18.1.0, SVG Export Plug-In . SVG Version: 6.00 Build 0)  -->
<!DOCTYPE svg PUBLIC "-//W3C//DTD SVG 1.1//EN" "http://www.w3.org/Graphics/SVG/1.1/DTD/svg11.dtd">
<svg version="1.1" id="Layer_1" xmlns="http://www.w3.org/2000/svg" xmlns:xlink="http://www.w3.org/1999/xlink" x="0px" y="0px"
	 viewBox="0 0 32 32" enable-background="new 0 0 32 32" xml:space="preserve">
<g id="Ppt">
</g>
<g id="Small_Folder">
</g>
<g id="fave_icon_-_selected">
</g>
<g>
	<g>
		<path fill="#4D575B" d="M26.5,9.5v-7H29c0.827,0,1.5,0.673,1.5,1.5v4c0,0.827-0.673,1.5-1.5,1.5H26.5z"/>
		<g>
			<path fill="#FFFFFF" d="M29,3c0.55,0,1,0.45,1,1v4c0,0.55-0.45,1-1,1h-2V3H29 M29,2h-2h-1v1v6v1h1h2c1.103,0,2-0.897,2-2V4
				C31,2.897,30.103,2,29,2L29,2z"/>
		</g>
	</g>
	<g>
		<path fill="#798082" d="M26.5,16.5v-7H29c0.827,0,1.5,0.673,1.5,1.5v4c0,0.827-0.673,1.5-1.5,1.5H26.5z"/>
		<g>
			<path fill="#FFFFFF" d="M29,10c0.55,0,1,0.45,1,1v4c0,0.55-0.45,1-1,1h-2v-6H29 M29,9h-2h-1v1v6v1h1h2c1.103,0,2-0.897,2-2v-4
				C31,9.897,30.103,9,29,9L29,9z"/>
		</g>
	</g>
	<g>
		<path fill="#989E9E" d="M26.5,23.5v-7H29c0.827,0,1.5,0.673,1.5,1.5v4c0,0.827-0.673,1.5-1.5,1.5H26.5z"/>
		<g>
			<path fill="#FFFFFF" d="M29,17c0.55,0,1,0.45,1,1v4c0,0.55-0.45,1-1,1h-2v-6H29 M29,16h-2h-1v1v6v1h1h2c1.103,0,2-0.897,2-2v-4
				C31,16.897,30.103,16,29,16L29,16z"/>
		</g>
	</g>
	<g>
		<path fill="#B36601" d="M0.5,31.5v-31h23.737c1.248,0,2.263,1.015,2.263,2.263v26.475c0,1.248-1.015,2.263-2.263,2.263H0.5z"/>
		<g>
			<path fill="#FFFFFF" d="M24.237,1C25.207,1,26,1.793,26,2.763v26.475C26,30.207,25.207,31,24.237,31H1V1H24.237 M24.237,0H1H0v1
				v30v1h1h23.237C25.761,32,27,30.761,27,29.237V2.763C27,1.239,25.761,0,24.237,0L24.237,0z"/>
		</g>
	</g>
	<path fill="#935203" d="M1,31h23.237C25.207,31,26,30.207,26,29.237V7L1,20V31z"/>
	<g>
		<path fill-rule="evenodd" clip-rule="evenodd" fill="#683702" d="M16,11.746c0,2.068-1.343,3.745-3,3.745
			c-1.657,0-3-1.677-3-3.745C10,9.676,10.332,8,13,8C15.668,8,16,9.676,16,11.746z"/>
		<path fill-rule="evenodd" clip-rule="evenodd" fill="#683702" d="M19,18.091c0-0.343-0.215-0.655-0.541-0.762
			c-1.638-0.533-3.491-0.838-5.459-0.838s-3.821,0.305-5.459,0.838C7.215,17.435,7,17.747,7,18.091v4.4h12V18.091z"/>
	</g>
	<g>
		<path fill-rule="evenodd" clip-rule="evenodd" fill="#FFFFFF" d="M16,11.255C16,13.323,14.657,15,13,15c-1.657,0-3-1.677-3-3.745
			c0-2.07,0.332-3.746,3-3.746C15.668,7.509,16,9.185,16,11.255z"/>
		<path fill-rule="evenodd" clip-rule="evenodd" fill="#FFFFFF" d="M19,17.6c0-0.343-0.215-0.655-0.541-0.762
			C16.821,16.305,14.968,16,13,16s-3.821,0.305-5.459,0.838C7.215,16.944,7,17.256,7,17.6V22h12V17.6z"/>
	</g>
</g>
</svg>
