<?xml version="1.0" encoding="utf-8"?>
<!-- Generator: Adobe Illustrator 18.1.0, SVG Export Plug-In . SVG Version: 6.00 Build 0)  -->
<!DOCTYPE svg PUBLIC "-//W3C//DTD SVG 1.1//EN" "http://www.w3.org/Graphics/SVG/1.1/DTD/svg11.dtd">
<svg version="1.1" id="Layer_1" xmlns="http://www.w3.org/2000/svg" xmlns:xlink="http://www.w3.org/1999/xlink" x="0px" y="0px"
	 viewBox="0 0 18 18" enable-background="new 0 0 18 18" xml:space="preserve">
<g>
	<path fill="#565656" d="M15.5,4h-1V3c0-0.55-0.45-1-1-1s-1,0.45-1,1v1h-7V3c0-0.55-0.45-1-1-1s-1,0.45-1,1v1h-1
		c-0.552,0-1,0.448-1,1v10c0,0.552,0.448,1,1,1h13c0.552,0,1-0.448,1-1V5C16.5,4.448,16.052,4,15.5,4z"/>
	<rect x="3.5" y="6" fill="#FFFFFF" width="2" height="2"/>
	<rect x="6.5" y="6" fill="#FFFFFF" width="2" height="2"/>
	<rect x="9.5" y="6" fill="#FFFFFF" width="2" height="2"/>
	<rect x="12.5" y="6" fill="#FFFFFF" width="2" height="2"/>
	<rect x="3.5" y="9" fill="#FFFFFF" width="2" height="2"/>
	<rect x="6.5" y="9" fill="#FFFFFF" width="2" height="2"/>
	<rect x="9.5" y="9" fill="#FFFFFF" width="2" height="2"/>
	<rect x="12.5" y="9" fill="#FFFFFF" width="2" height="2"/>
	<rect x="3.5" y="12" fill="#FFFFFF" width="2" height="2"/>
	<rect x="6.5" y="12" fill="#FFFFFF" width="2" height="2"/>
	<rect x="9.5" y="12" fill="#FFFFFF" width="2" height="2"/>
</g>
</svg>
