<?xml version="1.0" encoding="utf-8"?>
<!-- Generator: Adobe Illustrator 18.1.1, SVG Export Plug-In . SVG Version: 6.00 Build 0)  -->
<svg version="1.1" id="Layer_1" xmlns="http://www.w3.org/2000/svg" xmlns:xlink="http://www.w3.org/1999/xlink" x="0px" y="0px"
	 viewBox="0 0 16 16" enable-background="new 0 0 16 16" xml:space="preserve">
<g>
	<g>
		<path fill="#999999" d="M12.4145,16H3.67c-1.1967,0-2.17-0.9738-2.17-2.171V2.1705C1.5,0.9738,2.4733,0,3.67,0h7.5818
			l3.3327,3.3323V13.829C14.5846,15.0262,13.6112,16,12.4145,16z M3.67,0.9412c-0.6774,0-1.2289,0.5515-1.2289,1.2293V13.829
			c0,0.6783,0.5515,1.2298,1.2289,1.2298h8.7445c0.6774,0,1.2289-0.5515,1.2289-1.2298V3.722l-2.7812-2.7808H3.67z"/>
	</g>
	<g>
		<rect x="4.0375" y="4.8423" fill="#999999" width="6.4711" height="0.4858"/>
		<rect x="4.0375" y="6.7854" fill="#999999" width="6.4711" height="0.4858"/>
		<rect x="4.0375" y="8.7284" fill="#999999" width="8.0384" height="0.4858"/>
		<rect x="4.0375" y="10.6715" fill="#999999" width="8.0384" height="0.4858"/>
	</g>
</g>
</svg>
