<?xml version="1.0" encoding="utf-8"?>
<!-- Generator: Adobe Illustrator 19.1.0, SVG Export Plug-In . SVG Version: 6.00 Build 0)  -->
<svg version="1.1" id="Layer_1" xmlns="http://www.w3.org/2000/svg" xmlns:xlink="http://www.w3.org/1999/xlink" x="0px" y="0px"
	 viewBox="0 0 24 24" enable-background="new 0 0 24 24" xml:space="preserve">
<g>
	<path fill="#333333" d="M17.497,9.499c-0.391-0.391-1.023-0.391-1.414,0l-3.099,3.098V3.001c0-0.552-0.447-1-1-1
		c-0.552,0-1,0.448-1,1v9.565L7.917,9.499c-0.391-0.391-1.024-0.391-1.414,0c-0.391,0.391-0.391,1.023,0,1.414L12,16.41l5.497-5.497
		C17.888,10.522,17.888,9.89,17.497,9.499"/>
	<path fill="#333333" d="M20,21.999H4c-0.552,0-1-0.448-1-1c0-0.552,0.448-1,1-1h16c0.552,0,1,0.448,1,1
		C21,21.551,20.552,21.999,20,21.999"/>
</g>
</svg>
