<?xml version="1.0" encoding="utf-8"?>
<!-- Generator: Adobe Illustrator 18.1.0, SVG Export Plug-In . SVG Version: 6.00 Build 0)  -->
<!DOCTYPE svg PUBLIC "-//W3C//DTD SVG 1.1//EN" "http://www.w3.org/Graphics/SVG/1.1/DTD/svg11.dtd">
<svg version="1.1" id="Layer_1" xmlns="http://www.w3.org/2000/svg" xmlns:xlink="http://www.w3.org/1999/xlink" x="0px" y="0px"
	 viewBox="0 0 24 24" enable-background="new 0 0 24 24" xml:space="preserve">
<g>
	<g>
		<circle fill="#565656" cx="12" cy="12" r="12"/>
		<g>
			<path fill="#FFFFFF" d="M17.742,10.029c1.038-1.038,1.036-2.725-0.005-3.766l0,0c-1.041-1.041-2.727-1.044-3.766-0.005
				l-0.948,0.948l3.771,3.771L17.742,10.029z"/>
			<polygon fill="#FFFFFF" points="6.423,13.806 5.48,18.52 10.194,17.577 15.851,11.92 12.08,8.149 			"/>
		</g>
	</g>
	<g>
		<path fill="#FFFFFF" d="M18.535,20.036c-0.4,0-0.777-0.156-1.061-0.439L4.404,6.525c-0.585-0.585-0.585-1.536,0-2.121
			c0.283-0.283,0.66-0.439,1.061-0.439s0.777,0.156,1.061,0.439l13.07,13.071c0.585,0.585,0.585,1.536,0,2.121
			C19.312,19.879,18.936,20.036,18.535,20.036z"/>
		<path fill="#565656" d="M5.464,4.464c0.256,0,0.512,0.098,0.707,0.293l13.071,13.071c0.391,0.391,0.391,1.023,0,1.414
			c-0.195,0.195-0.451,0.293-0.707,0.293s-0.512-0.098-0.707-0.293L4.757,6.171c-0.391-0.391-0.391-1.023,0-1.414
			C4.953,4.562,5.208,4.464,5.464,4.464 M5.464,3.464c-0.534,0-1.036,0.208-1.414,0.586c-0.78,0.78-0.78,2.049,0,2.828L17.122,19.95
			c0.378,0.378,0.88,0.586,1.414,0.586s1.036-0.208,1.414-0.586c0.78-0.78,0.78-2.049,0-2.828L6.878,4.05
			C6.501,3.672,5.998,3.464,5.464,3.464L5.464,3.464z"/>
	</g>
</g>
<g id="metadata">
</g>
</svg>
