<svg width="220" height="220" viewBox="0 0 220 220" fill="none" xmlns="http://www.w3.org/2000/svg">
<path d="M148.467 135.037L111.57 113.683V71.2419L148.467 92.5957V135.037Z" fill="#9BAFBA"/>
<path d="M148.467 135.975C148.305 135.975 148.144 135.934 147.999 135.85L111.102 114.496C110.812 114.328 110.634 114.018 110.634 113.683V71.2422C110.634 70.9071 110.812 70.5969 111.102 70.4294C111.392 70.2618 111.749 70.2618 112.038 70.4294L148.935 91.7831C149.225 91.9506 149.403 92.2608 149.403 92.5959V135.037C149.403 135.372 149.225 135.682 148.935 135.85C148.79 135.933 148.629 135.975 148.467 135.975ZM112.507 113.141L147.531 133.411V93.138L112.507 72.8679V113.141Z" fill="#666666"/>
<path d="M148.397 93.4517C148.235 93.4517 148.074 93.41 147.929 93.326L111.032 71.9723C110.743 71.8047 110.564 71.4945 110.564 71.1594C110.564 70.8243 110.743 70.5141 111.032 70.3466L147.699 49.1257C147.989 48.9581 148.345 48.9581 148.635 49.1257L185.532 70.4794C185.822 70.6469 186 70.9571 186 71.2922C186 71.6273 185.822 71.9375 185.532 72.1051L148.866 93.3264C148.72 93.41 148.559 93.4517 148.397 93.4517ZM113.373 71.1594L148.397 91.429L183.191 71.2922L148.167 51.0226L113.373 71.1594Z" fill="#666666"/>
<path d="M111.528 114.403H91.3958C90.879 114.403 90.4595 113.982 90.4595 113.464V71.226C90.4595 70.7079 90.879 70.2874 91.3958 70.2874H111.528V72.1646H92.3322V112.525H111.528V114.403Z" fill="#666666"/>
<path d="M149.273 91.7952L147.758 92.8989L148.02 93.2599L149.534 92.1562L149.273 91.7952Z" fill="#E1E8F6"/>
<path d="M114.47 113.198C114.146 113.198 113.83 113.029 113.657 112.726C113.4 112.277 113.555 111.703 114.003 111.446L118.876 108.642C119.324 108.383 119.897 108.54 120.154 108.989C120.411 109.439 120.256 110.012 119.808 110.27L114.935 113.073C114.789 113.158 114.628 113.198 114.47 113.198ZM124.216 107.592C123.891 107.592 123.576 107.423 123.403 107.12C123.146 106.67 123.301 106.097 123.749 105.839L128.622 103.036C129.07 102.777 129.643 102.933 129.9 103.383C130.157 103.832 130.002 104.406 129.554 104.664L124.681 107.467C124.534 107.552 124.374 107.592 124.216 107.592ZM133.962 101.986C133.637 101.986 133.322 101.817 133.149 101.514C132.891 101.065 133.046 100.491 133.495 100.234L138.368 97.4305C138.816 97.1715 139.389 97.3278 139.645 97.7774C139.903 98.227 139.748 98.8005 139.299 99.0581L134.427 101.861C134.28 101.946 134.12 101.986 133.962 101.986ZM143.708 96.3793C143.383 96.3793 143.068 96.2103 142.895 95.9076C142.638 95.458 142.793 94.8845 143.241 94.6269L146.176 92.9387C146.625 92.6806 147.197 92.8369 147.454 93.286C147.711 93.7356 147.556 94.3096 147.107 94.5673L144.173 96.2544C144.026 96.3394 143.866 96.3793 143.708 96.3793Z" fill="#666666"/>
<path d="M155.537 131.838C155.377 131.838 155.217 131.796 155.073 131.714C154.781 131.547 154.601 131.236 154.601 130.899V108.964L147.654 92.715C147.467 92.2776 147.636 91.7698 148.047 91.5318L184.565 70.4128C184.855 70.2452 185.212 70.2457 185.501 70.4132C185.791 70.5803 185.969 70.8905 185.969 71.2256V113.464C185.969 113.796 185.794 114.103 185.509 114.272L156.013 131.707C155.866 131.795 155.702 131.838 155.537 131.838ZM149.703 92.7417L156.398 108.401C156.448 108.518 156.474 108.644 156.474 108.771V129.256L184.097 112.928V72.8513L149.703 92.7417Z" fill="#666666"/>
<path d="M155.537 155.233C155.15 155.233 154.795 154.992 154.658 154.617L147.635 135.375C147.597 135.272 147.578 135.163 147.578 135.053V92.3452C147.578 91.8998 147.891 91.515 148.326 91.4258C148.761 91.3361 149.2 91.5656 149.375 91.9753L156.398 108.401C156.448 108.518 156.474 108.644 156.474 108.771V154.294C156.474 154.75 156.148 155.139 155.701 155.219C155.645 155.228 155.591 155.233 155.537 155.233ZM149.451 134.886L154.601 148.996V108.963L149.451 96.9177V134.886Z" fill="#666666"/>
<path d="M65.3073 167.998C81.0921 173.362 101.344 173.127 104.441 166.504C107.257 160.483 93.6901 153.904 96.0591 144.75C98.6669 134.673 117.401 133.797 117.031 129.417C116.565 123.908 86.333 118.212 57.5667 126.176C47.7231 128.901 36.1594 132.103 34.2651 139.431C31.5632 149.881 50.0477 162.813 65.3073 167.998Z" fill="#D7E2E5"/>
<path d="M97.0348 153.308C92.9058 153.308 89.5461 149.869 89.5461 145.642C89.5461 141.414 92.9058 137.975 97.0348 137.975C101.164 137.975 104.523 141.414 104.523 145.642C104.523 149.869 101.164 153.308 97.0348 153.308ZM97.0348 139.852C93.9382 139.852 91.4189 142.45 91.4189 145.642C91.4189 148.834 93.9382 151.431 97.0348 151.431C100.131 151.431 102.65 148.834 102.65 145.642C102.65 142.45 100.131 139.852 97.0348 139.852Z" fill="#666666"/>
<path d="M97.0346 162.927C97.6699 162.927 98.1849 162.398 98.1849 161.746C98.1849 161.094 97.6699 160.565 97.0346 160.565C96.3993 160.565 95.8843 161.094 95.8843 161.746C95.8843 162.398 96.3993 162.927 97.0346 162.927Z" fill="#666666"/>
<path d="M108.972 157.876C109.421 157.414 109.421 156.667 108.972 156.205C108.524 155.744 107.795 155.744 107.346 156.205C106.897 156.667 106.897 157.414 107.346 157.876C107.795 158.337 108.523 158.337 108.972 157.876Z" fill="#666666"/>
<path d="M112.718 146.823C113.353 146.823 113.868 146.294 113.868 145.642C113.868 144.99 113.353 144.461 112.718 144.461C112.083 144.461 111.568 144.99 111.568 145.642C111.568 146.294 112.083 146.823 112.718 146.823Z" fill="#666666"/>
<path d="M108.958 135.086C109.407 134.624 109.407 133.877 108.958 133.415C108.509 132.954 107.78 132.954 107.331 133.415C106.882 133.877 106.882 134.624 107.331 135.086C107.78 135.547 108.508 135.547 108.958 135.086Z" fill="#666666"/>
<path d="M97.0346 130.718C97.6699 130.718 98.1849 130.189 98.1849 129.537C98.1849 128.885 97.6699 128.356 97.0346 128.356C96.3993 128.356 95.8843 128.885 95.8843 129.537C95.8843 130.19 96.3993 130.718 97.0346 130.718Z" fill="#666666"/>
<path d="M86.763 135.101C87.212 134.64 87.212 133.892 86.763 133.431C86.314 132.969 85.5855 132.969 85.1365 133.431C84.6876 133.892 84.6876 134.64 85.1365 135.101C85.5855 135.562 86.314 135.562 86.763 135.101Z" fill="#666666"/>
<path d="M81.351 146.823C81.9863 146.823 82.5013 146.294 82.5013 145.642C82.5013 144.99 81.9863 144.461 81.351 144.461C80.7157 144.461 80.2007 144.99 80.2007 145.642C80.2007 146.294 80.7162 146.823 81.351 146.823Z" fill="#666666"/>
<path d="M86.7779 157.891C87.2269 157.43 87.2269 156.682 86.7779 156.221C86.3289 155.76 85.6004 155.76 85.1514 156.221C84.7024 156.682 84.7024 157.43 85.1514 157.891C85.6009 158.353 86.3289 158.353 86.7779 157.891Z" fill="#666666"/>
</svg>
