<svg xmlns="http://www.w3.org/2000/svg" viewBox="0 0 42 42"><title>Asset 1</title><g data-name="Layer 2"><g data-name="Layer 1"><path d="M21,1A20,20,0,1,1,1,21,20.023,20.023,0,0,1,21,1m0-1A21,21,0,1,0,42,21,21,21,0,0,0,21,0Z" fill="#004a70"/><path d="M21.448,11.279l2.614,5.3a.5.5,0,0,0,.376.274l5.846.849a.5.5,0,0,1,.277.853l-4.23,4.123a.5.5,0,0,0-.144.443l1,5.822a.5.5,0,0,1-.725.527l-5.228-2.749a.5.5,0,0,0-.465,0l-5.228,2.749a.5.5,0,0,1-.725-.527l1-5.822a.5.5,0,0,0-.144-.443l-4.23-4.123a.5.5,0,0,1,.277-.853l5.846-.849a.5.5,0,0,0,.376-.274l2.614-5.3A.5.5,0,0,1,21.448,11.279Z" fill="#fff"/></g></g></svg>