<?xml version="1.0" encoding="utf-8"?>
<!-- Generator: Adobe Illustrator 18.1.0, SVG Export Plug-In . SVG Version: 6.00 Build 0)  -->
<!DOCTYPE svg PUBLIC "-//W3C//DTD SVG 1.1//EN" "http://www.w3.org/Graphics/SVG/1.1/DTD/svg11.dtd">
<svg version="1.1" id="Layer_1" xmlns="http://www.w3.org/2000/svg" xmlns:xlink="http://www.w3.org/1999/xlink" x="0px" y="0px"
	 viewBox="0 0 32 32" enable-background="new 0 0 32 32" xml:space="preserve">
<g>
	<g>
		<path fill="#3C5666" d="M1.5,27.5V6.513c0-1.103,0.897-2,2-2h7.897c0.477,0,0.945,0.163,1.319,0.46l3.668,3.238
			C16.646,8.417,16.818,8.5,17,8.5h10.5c1.103,0,2,0.897,2,2v17H1.5z"/>
		<g>
			<path fill="#FFFFFF" d="M11.397,5.013c0.366,0,0.722,0.124,1.009,0.351l3.648,3.222C16.341,8.813,16.634,9,17,9h10.5
				c0.828,0,1.5,0.672,1.5,1.5V27H2V6.513c0-0.828,0.672-1.5,1.5-1.5H11.397 M11.397,4.013H3.5c-1.379,0-2.5,1.122-2.5,2.5V27v1h1
				h27h1v-1V10.5C30,9.121,28.878,8,27.5,8H17c-0.027,0-0.102-0.024-0.305-0.183l-3.626-3.203l-0.02-0.018L13.027,4.58
				C12.565,4.214,11.986,4.013,11.397,4.013L11.397,4.013z"/>
		</g>
	</g>
</g>
<g>
	<path fill="#627784" d="M3,26h25V12c0-0.552-0.448-1-1-1H4c-0.552,0-1,0.448-1,1V26z"/>
</g>
<g>
	<polygon fill="#586F7C" points="3,26 28,26 28,13 	"/>
</g>
<g id="Ppt">
</g>
<g id="Small_Folder">
</g>
<path fill="#3C5666" d="M16.277,13.729l1.615,3.272c0.045,0.091,0.132,0.154,0.233,0.169l3.611,0.525
	c0.253,0.037,0.354,0.348,0.171,0.527l-2.613,2.547c-0.073,0.071-0.106,0.173-0.089,0.273l0.617,3.596
	c0.043,0.252-0.222,0.445-0.448,0.326l-3.23-1.698c-0.09-0.047-0.197-0.047-0.287,0l-3.23,1.698
	c-0.227,0.119-0.491-0.073-0.448-0.326l0.617-3.596c0.017-0.1-0.016-0.202-0.089-0.273l-2.613-2.547
	c-0.183-0.179-0.082-0.49,0.171-0.527l3.611-0.525c0.101-0.015,0.188-0.078,0.233-0.169l1.615-3.272
	C15.836,13.5,16.164,13.5,16.277,13.729z"/>
<path fill="#FFDF7B" d="M16.277,12.729l1.615,3.272c0.045,0.091,0.132,0.154,0.233,0.169l3.611,0.525
	c0.253,0.037,0.354,0.348,0.171,0.527l-2.613,2.547c-0.073,0.071-0.106,0.173-0.089,0.273l0.617,3.596
	c0.043,0.252-0.222,0.445-0.448,0.326l-3.23-1.698c-0.09-0.047-0.197-0.047-0.287,0l-3.23,1.698
	c-0.227,0.119-0.491-0.073-0.448-0.326l0.617-3.596c0.017-0.1-0.016-0.202-0.089-0.273l-2.613-2.547
	c-0.183-0.179-0.082-0.49,0.171-0.527l3.611-0.525c0.101-0.015,0.188-0.078,0.233-0.169l1.615-3.272
	C15.836,12.5,16.164,12.5,16.277,12.729z"/>
<g>
	<path fill="#F9C662" d="M12.627,23.964l3.23-1.698c0.09-0.047,0.198-0.047,0.287,0l3.23,1.698c0.227,0.119,0.491-0.073,0.448-0.326
		l-0.617-3.596c-0.017-0.1,0.016-0.202,0.089-0.273l2.613-2.547c0.183-0.179,0.082-0.49-0.171-0.527l-0.657-0.095l-8.446,4.392
		l-0.454,2.647C12.135,23.891,12.4,24.083,12.627,23.964z"/>
</g>
<g id="fave_icon_-_selected">
</g>
</svg>
