<?xml version="1.0" encoding="utf-8"?>
<!-- Generator: Adobe Illustrator 18.1.1, SVG Export Plug-In . SVG Version: 6.00 Build 0)  -->
<svg version="1.1" id="Layer_1" xmlns="http://www.w3.org/2000/svg" xmlns:xlink="http://www.w3.org/1999/xlink" x="0px" y="0px"
	 viewBox="0 0 10 10" enable-background="new 0 0 10 10" xml:space="preserve">
<g>
	<path fill="#666666" d="M4.7816,9.4455c0.1907,0,0.3815-0.0728,0.5271-0.2184c0.2912-0.2912,0.2912-0.763,0-1.0542l-3.2003-3.2
		l3.2003-3.2003c0.2912-0.2912,0.2912-0.763,0-1.0542c-0.2912-0.2912-0.763-0.2912-1.0542,0L0,4.9729l4.2545,4.2541
		C4.4001,9.3727,4.5909,9.4455,4.7816,9.4455z"/>
</g>
<g>
	<path fill="#666666" d="M9.2545,9.4455c0.1907,0,0.3815-0.0728,0.5271-0.2184c0.2912-0.2912,0.2912-0.763,0-1.0542l-3.2003-3.2
		l3.2003-3.2003c0.2912-0.2912,0.2912-0.763,0-1.0542c-0.2912-0.2912-0.763-0.2912-1.0542,0L4.4729,4.9729l4.2545,4.2541
		C8.873,9.3727,9.0638,9.4455,9.2545,9.4455z"/>
</g>
</svg>
