<?xml version="1.0" encoding="utf-8"?>
<!-- Generator: Adobe Illustrator 18.1.1, SVG Export Plug-In . SVG Version: 6.00 Build 0)  -->
<svg version="1.1" id="Layer_1" xmlns="http://www.w3.org/2000/svg" xmlns:xlink="http://www.w3.org/1999/xlink" x="0px" y="0px"
	 viewBox="0 0 10 10" enable-background="new 0 0 10 10" xml:space="preserve">
<g>
	<path fill="#666666" d="M5.2184,9.4455c-0.1907,0-0.3815-0.0728-0.5271-0.2184c-0.2912-0.2912-0.2912-0.763,0-1.0542l3.2003-3.2
		L4.6913,1.7726c-0.2912-0.2912-0.2912-0.763,0-1.0542c0.2912-0.2912,0.763-0.2912,1.0542,0L10,4.9729L5.7455,9.2271
		C5.5999,9.3727,5.4091,9.4455,5.2184,9.4455z"/>
</g>
<g>
	<path fill="#666666" d="M0.7455,9.4455c-0.1907,0-0.3815-0.0728-0.5271-0.2184c-0.2912-0.2912-0.2912-0.763,0-1.0542l3.2003-3.2
		L0.2184,1.7726c-0.2912-0.2912-0.2912-0.763,0-1.0542s0.763-0.2912,1.0542,0l4.2545,4.2545L1.2726,9.2271
		C1.127,9.3727,0.9362,9.4455,0.7455,9.4455z"/>
</g>
</svg>
