<svg version="1.1" xmlns="http://www.w3.org/2000/svg" xmlns:xlink="http://www.w3.org/1999/xlink" x="0px" y="0px" viewBox="0 0 42 42" style="enable-background:new 0 0 42 42;" xml:space="preserve"><path d="M21,2.9C31,2.9,39.1,11,39.1,21S31,39.1,21,39.1S2.9,31,2.9,21c0,0,0,0,0,0C2.9,11,11,2.9,21,2.9
	C21,2.9,21,2.9,21,2.9 M21,1C10,1,1,10,1,21s9,20,20,20s20-9,20-20S32,1,21,1z" fill="#999999"/><path d="M22.2,18.8c1.5-1,2.8-1.9,2.8-3.6c0-1.6-1.3-3.1-3.9-3.1c-2.1-0.1-4,1-5.2,2.7L14.2,13c1.7-2.2,4.4-3.5,7.2-3.4
	c4,0,6.5,2.3,6.5,5.1S26,18.8,24.2,20c-1.4,1-2.7,1.8-2.7,3.3c0,0.6,0.4,1.2,0.9,1.6l-2,0.9c-0.8-0.7-1.3-1.7-1.3-2.7
	C19,21,20.7,19.9,22.2,18.8z M21,28.7c1,0,1.8,0.8,1.8,1.8S22,32.3,21,32.3c-1,0-1.8-0.8-1.8-1.8c0,0,0,0,0,0
	C19.2,29.5,20,28.7,21,28.7C21,28.7,21,28.7,21,28.7z" fill="#0072AA"/></svg>