<svg data-name="Layer 1" xmlns="http://www.w3.org/2000/svg" viewBox="0 0 32 32"><title>home_nonselectable32</title><path d="M19.49,25.32a1.013,1.013,0,0,1-1-1V17.03a1.707,1.707,0,0,0-1.71-1.7H15.19a1.708,1.708,0,0,0-1.711,1.7v7.29a1.013,1.013,0,0,1-1,1H7.52a1.013,1.013,0,0,1-1-1V14.34H4.5a.994.994,0,0,1-.6-1.787L15.4,3.7a.992.992,0,0,1,.6-.2,1.027,1.027,0,0,1,.6.192L28.1,12.554a.994.994,0,0,1-.6,1.786H25.45v9.98a1.013,1.013,0,0,1-1,1Z" fill="gray"/><path d="M16,4a.52.52,0,0,1,.3.1l11.5,8.85a.494.494,0,0,1-.3.89H25.45a.5.5,0,0,0-.5.5v9.98a.508.508,0,0,1-.5.5H19.49a.508.508,0,0,1-.5-.5V17.03a2.2,2.2,0,0,0-2.21-2.2H15.19a2.2,2.2,0,0,0-2.21,2.2v7.29a.508.508,0,0,1-.5.5H7.52a.508.508,0,0,1-.5-.5V14.34a.5.5,0,0,0-.5-.5H4.5a.494.494,0,0,1-.3-.89L15.7,4.1A.487.487,0,0,1,16,4m0-1a1.5,1.5,0,0,0-.9.3L3.59,12.158A1.494,1.494,0,0,0,4.5,14.84H6.02v9.48a1.5,1.5,0,0,0,1.5,1.5h4.96a1.5,1.5,0,0,0,1.5-1.5V17.03a1.206,1.206,0,0,1,1.21-1.2h1.59a1.206,1.206,0,0,1,1.21,1.2v7.29a1.5,1.5,0,0,0,1.5,1.5h4.96a1.5,1.5,0,0,0,1.5-1.5V14.84H27.5a1.494,1.494,0,0,0,.907-2.685L16.91,3.307A1.551,1.551,0,0,0,16,3Z" fill="#fff"/><g opacity="0.8"><circle cx="24.5" cy="24.5" r="6.5" fill="#fff"/></g><path d="M24.95,16.01v8.31a.508.508,0,0,1-.5.5H19.49a.508.508,0,0,1-.5-.5V18.03A8.456,8.456,0,0,1,24.5,16C24.65,16,24.8,16,24.95,16.01Z" fill="#fff"/><path d="M24.5,17A7.5,7.5,0,1,0,32,24.5,7.5,7.5,0,0,0,24.5,17Zm0,13a5.5,5.5,0,0,1-4.53-8.62l7.65,7.65A5.492,5.492,0,0,1,24.5,30Zm4.53-2.38-7.65-7.65a5.5,5.5,0,0,1,7.65,7.65Z" fill="#cd3632"/></svg>