<svg width="100" height="40" viewBox="0 0 100 40" fill="none" xmlns="http://www.w3.org/2000/svg">
<path d="M13.5665 26.9465C14.8585 26.9465 15.9156 25.9087 15.9156 24.6039C15.9156 23.2992 14.8585 22.2614 13.5665 22.2614C12.2744 22.2614 11.2173 23.2992 11.2173 24.6039C11.2173 25.9087 12.2744 26.9465 13.5665 26.9465Z" fill="white"/>
<path fill-rule="evenodd" clip-rule="evenodd" d="M13.5665 10.9636C13.8909 10.9636 14.1538 11.2291 14.1538 11.5566V13.8992C14.1538 14.2268 13.8909 14.4923 13.5665 14.4923C13.2422 14.4923 12.9792 14.2268 12.9792 13.8992V11.5566C12.9792 11.2291 13.2422 10.9636 13.5665 10.9636Z" fill="white"/>
<path fill-rule="evenodd" clip-rule="evenodd" d="M19.9784 12.5148C20.2651 12.6679 20.3747 13.0267 20.2232 13.3163L19.1367 15.392C18.9851 15.6816 18.6298 15.7922 18.343 15.6392C18.0562 15.4861 17.9466 15.1273 18.0982 14.8377L19.1847 12.762C19.3363 12.4724 19.6916 12.3618 19.9784 12.5148Z" fill="white"/>
<path fill-rule="evenodd" clip-rule="evenodd" d="M24.8908 16.921C25.0707 17.1935 24.9978 17.5617 24.7279 17.7434L22.7898 19.0481C22.52 19.2298 22.1553 19.1561 21.9754 18.8836C21.7955 18.6111 21.8684 18.2429 22.1383 18.0612L24.0764 16.7565C24.3462 16.5748 24.7109 16.6484 24.8908 16.921Z" fill="white"/>
<path fill-rule="evenodd" clip-rule="evenodd" d="M27.1879 23.0541C27.2247 23.3796 26.9932 23.6735 26.6709 23.7105L24.3511 23.9774C24.0288 24.0145 23.7378 23.7807 23.7011 23.4553C23.6644 23.1299 23.8959 22.836 24.2181 22.7989L26.538 22.532C26.8602 22.495 27.1512 22.7287 27.1879 23.0541Z" fill="white"/>
<path fill-rule="evenodd" clip-rule="evenodd" d="M23.0885 28.2809C23.202 27.9741 23.5403 27.8182 23.8441 27.9327L26.0465 28.763C26.3504 28.8776 26.5047 29.2192 26.3913 29.526C26.2778 29.8329 25.9395 29.9888 25.6357 29.8742L23.4333 29.0439C23.1294 28.9294 22.9751 28.5878 23.0885 28.2809Z" fill="white"/>
<path fill-rule="evenodd" clip-rule="evenodd" d="M20.2881 32.2805C20.5332 32.0659 20.9041 32.0927 21.1166 32.3402L22.6435 34.1194C22.856 34.3669 22.8295 34.7415 22.5844 34.956C22.3392 35.1705 21.9683 35.1437 21.7559 34.8962L20.2289 33.117C20.0165 32.8695 20.043 32.495 20.2881 32.2805Z" fill="white"/>
<path fill-rule="evenodd" clip-rule="evenodd" d="M15.8925 34.4957C16.2074 34.4172 16.5257 34.6114 16.6034 34.9294L17.1614 37.2127C17.2391 37.5307 17.0468 37.8521 16.7319 37.9305C16.417 38.009 16.0987 37.8148 16.021 37.4968L15.463 35.2135C15.3853 34.8955 15.5776 34.5741 15.8925 34.4957Z" fill="white"/>
<path fill-rule="evenodd" clip-rule="evenodd" d="M11.0144 34.4385C11.3281 34.5219 11.5154 34.8462 11.4329 35.163L10.8456 37.4166C10.763 37.7333 10.4418 37.9225 10.1282 37.8392C9.81449 37.7558 9.62712 37.4315 9.70967 37.1147L10.297 34.8611C10.3795 34.5443 10.7007 34.3551 11.0144 34.4385Z" fill="white"/>
<path fill-rule="evenodd" clip-rule="evenodd" d="M6.71728 32.1204C6.95275 32.3456 6.96279 32.721 6.73972 32.9588L5.15403 34.649C4.93095 34.8867 4.55923 34.8969 4.32377 34.6716C4.0883 34.4464 4.07826 34.071 4.30133 33.8332L5.88702 32.143C6.1101 31.9052 6.48182 31.8951 6.71728 32.1204Z" fill="white"/>
<path fill-rule="evenodd" clip-rule="evenodd" d="M3.9907 28.0867C4.09694 28.3962 3.93463 28.7341 3.62817 28.8413L1.42582 29.6123C1.11935 29.7196 0.784793 29.5557 0.678553 29.2462C0.572314 28.9368 0.734625 28.5989 1.04109 28.4916L3.24344 27.7207C3.5499 27.6134 3.88446 27.7773 3.9907 28.0867Z" fill="white"/>
<path fill-rule="evenodd" clip-rule="evenodd" d="M0.00582789 22.7419C0.0511219 22.4175 0.348204 22.1917 0.66938 22.2374L2.95983 22.5636C3.28101 22.6093 3.50465 22.9093 3.45936 23.2337C3.41406 23.558 3.11698 23.7838 2.79581 23.7381L0.505356 23.4119C0.18418 23.3662 -0.0394661 23.0662 0.00582789 22.7419Z" fill="white"/>
<path fill-rule="evenodd" clip-rule="evenodd" d="M2.45707 16.6405C2.64444 16.3731 3.01096 16.3098 3.27573 16.499L5.18443 17.863C5.44919 18.0522 5.51193 18.4224 5.32456 18.6897C5.13719 18.9571 4.77067 19.0204 4.50591 18.8312L2.5972 17.4672C2.33244 17.278 2.2697 16.9079 2.45707 16.6405Z" fill="white"/>
<path fill-rule="evenodd" clip-rule="evenodd" d="M7.45432 12.3933C7.74276 12.2435 8.09685 12.3582 8.24519 12.6494L9.30232 14.7251C9.45066 15.0164 9.33709 15.374 9.04865 15.5238C8.7602 15.6736 8.40612 15.5589 8.25777 15.2676L7.20064 13.1919C7.0523 12.9006 7.16587 12.5431 7.45432 12.3933Z" fill="white"/>
<path fill-rule="evenodd" clip-rule="evenodd" d="M38.0273 10.0738C38.0273 7.80238 39.8043 5.95203 42.021 5.95203C44.2376 5.95203 46.0146 7.80238 46.0146 10.0738C46.0146 12.3452 44.2376 14.1955 42.021 14.1955C39.8043 14.1955 38.0273 12.3452 38.0273 10.0738ZM42.021 7.13814C40.4789 7.13814 39.2019 8.43099 39.2019 10.0738C39.2019 11.7166 40.4789 13.0094 42.021 13.0094C43.563 13.0094 44.84 11.7166 44.84 10.0738C44.84 8.43099 43.563 7.13814 42.021 7.13814Z" fill="#CECECE"/>
<path d="M42.0209 19.1476C42.3439 19.1476 42.6082 18.8807 42.6082 18.5248C42.6082 18.169 42.3439 17.9021 42.0209 17.9021C41.6979 17.9021 41.4336 18.169 41.4336 18.5248C41.4336 18.851 41.6979 19.1476 42.0209 19.1476Z" fill="#CECECE"/>
<path d="M48.2463 16.4788C48.4812 16.2416 48.4812 15.8561 48.2463 15.5892C48.0114 15.352 47.6296 15.352 47.3947 15.5892C47.1598 15.8264 47.1598 16.2119 47.3947 16.4788C47.6296 16.7457 48.0114 16.7457 48.2463 16.4788Z" fill="#CECECE"/>
<path d="M50.1845 10.6965C50.5075 10.6965 50.7718 10.4296 50.7718 10.0738C50.7718 9.71793 50.5075 9.45105 50.1845 9.45105C49.8615 9.45105 49.5972 9.71793 49.5972 10.0738C49.5972 10.3999 49.8615 10.6965 50.1845 10.6965Z" fill="#CECECE"/>
<path d="M48.2463 4.52872C48.4812 4.29149 48.4812 3.90601 48.2463 3.63913C48.0114 3.40191 47.6296 3.40191 47.3947 3.63913C47.1598 3.87635 47.1598 4.26184 47.3947 4.52872C47.6296 4.76594 48.0114 4.76594 48.2463 4.52872Z" fill="#CECECE"/>
<path d="M42.0209 2.24542C42.3439 2.24542 42.6082 1.97854 42.6082 1.62271C42.6082 1.26688 42.3439 1 42.0209 1C41.6979 1 41.4336 1.26688 41.4336 1.62271C41.4336 1.94889 41.6979 2.24542 42.0209 2.24542Z" fill="#CECECE"/>
<path d="M36.6767 4.52872C36.9116 4.29149 36.9116 3.90601 36.6767 3.63913C36.4418 3.40191 36.06 3.40191 35.8251 3.63913C35.5902 3.87635 35.5902 4.26184 35.8251 4.52872C36.06 4.79559 36.4418 4.79559 36.6767 4.52872Z" fill="#CECECE"/>
<path d="M33.8576 10.6965C34.1806 10.6965 34.4449 10.4296 34.4449 10.0738C34.4449 9.71793 34.1806 9.45105 33.8576 9.45105C33.5346 9.45105 33.2703 9.71793 33.2703 10.0738C33.2409 10.3999 33.5052 10.6965 33.8576 10.6965Z" fill="#CECECE"/>
<path d="M36.6767 16.5084C36.9116 16.2712 36.9116 15.8857 36.6767 15.6188C36.4418 15.3816 36.06 15.3816 35.8251 15.6188C35.5902 15.8561 35.5902 16.2415 35.8251 16.5084C36.06 16.7456 36.4418 16.7456 36.6767 16.5084Z" fill="#CECECE"/>
<path opacity="0.93" d="M65.3952 19.5333C66.188 19.5333 66.834 18.9106 66.834 18.11C66.834 17.3093 66.188 16.6866 65.3952 16.6866C64.6023 16.6866 63.9563 17.3093 63.9563 18.11C63.9563 18.9106 64.6317 19.5333 65.3952 19.5333Z" fill="#E1E8F6" fill-opacity="0.7"/>
<path opacity="0.5" fill-rule="evenodd" clip-rule="evenodd" d="M68.6154 13.1427C68.8994 13.301 69.0026 13.6617 68.8459 13.9485L68.376 14.8084C68.2194 15.0952 67.8621 15.1994 67.5781 15.0412C67.2941 14.883 67.1909 14.5222 67.3476 14.2355L67.8174 13.3755C67.9741 13.0887 68.3314 12.9845 68.6154 13.1427Z" fill="#E1E8F6"/>
<path opacity="0.5" fill-rule="evenodd" clip-rule="evenodd" d="M71.2639 17.4159C71.303 17.7411 71.0736 18.0366 70.7516 18.076L69.7825 18.1946C69.4605 18.2341 69.1679 18.0024 69.1288 17.6773C69.0898 17.3521 69.3192 17.0566 69.6412 17.0171L70.6102 16.8985C70.9322 16.8591 71.2249 17.0908 71.2639 17.4159Z" fill="#E1E8F6"/>
<path opacity="0.5" fill-rule="evenodd" clip-rule="evenodd" d="M68.1493 20.719C68.3928 20.5026 68.7639 20.5266 68.9781 20.7724L69.6242 21.5138C69.8384 21.7596 69.8148 22.1344 69.5713 22.3508C69.3278 22.5671 68.9567 22.5432 68.7424 22.2973L68.0964 21.556C67.8821 21.3101 67.9058 20.9354 68.1493 20.719Z" fill="#E1E8F6"/>
<path opacity="0.5" fill-rule="evenodd" clip-rule="evenodd" d="M64.9493 21.6709C65.2723 21.7006 65.5104 21.9891 65.481 22.3152L65.3929 23.2938C65.3636 23.62 65.0779 23.8604 64.7549 23.8307C64.4318 23.8011 64.1938 23.5126 64.2232 23.1864L64.3112 22.2079C64.3406 21.8817 64.6263 21.6413 64.9493 21.6709Z" fill="#E1E8F6"/>
<path opacity="0.5" fill-rule="evenodd" clip-rule="evenodd" d="M62.168 20.1149C62.3363 20.3949 62.248 20.7596 61.9707 20.9296L61.1485 21.4337C60.8713 21.6037 60.51 21.5145 60.3417 21.2346C60.1734 20.9546 60.2617 20.5898 60.5389 20.4198L61.3611 19.9157C61.6384 19.7458 61.9996 19.8349 62.168 20.1149Z" fill="#E1E8F6"/>
<path opacity="0.5" fill-rule="evenodd" clip-rule="evenodd" d="M59.9912 16.2377C60.0907 15.9259 60.4217 15.7548 60.7304 15.8553L61.6407 16.1518C61.9494 16.2524 62.1189 16.5866 62.0193 16.8983C61.9198 17.21 61.5888 17.3812 61.2801 17.2807L60.3698 16.9841C60.0611 16.8836 59.8916 16.5494 59.9912 16.2377Z" fill="#E1E8F6"/>
<path opacity="0.5" fill-rule="evenodd" clip-rule="evenodd" d="M63.4802 12.6641C63.7827 12.5458 64.1228 12.6976 64.2399 13.003L64.5923 13.9223C64.7094 14.2277 64.5591 14.5712 64.2566 14.6894C63.9541 14.8077 63.614 14.6559 63.4969 14.3504L63.1445 13.4312C63.0274 13.1258 63.1777 12.7823 63.4802 12.6641Z" fill="#E1E8F6"/>
<path fill-rule="evenodd" clip-rule="evenodd" d="M79.8429 2.66069C78.7077 2.66069 77.7874 3.59002 77.7874 4.73639C77.7874 5.88277 78.7077 6.81209 79.8429 6.81209C80.9782 6.81209 81.8984 5.88277 81.8984 4.73639C81.8984 3.59002 80.9782 2.66069 79.8429 2.66069ZM76.6128 4.73639C76.6128 2.93494 78.059 1.47458 79.8429 1.47458C81.6269 1.47458 83.073 2.93494 83.073 4.73639C83.073 6.53784 81.6269 7.99821 79.8429 7.99821C78.059 7.99821 76.6128 6.53784 76.6128 4.73639Z" fill="#C8CECE"/>
<path d="M96.2871 13.6321C96.9358 13.6321 97.4617 13.1011 97.4617 12.446C97.4617 11.791 96.9358 11.2599 96.2871 11.2599C95.6384 11.2599 95.1125 11.791 95.1125 12.446C95.1125 13.1011 95.6384 13.6321 96.2871 13.6321Z" fill="white"/>
<path fill-rule="evenodd" clip-rule="evenodd" d="M80.3562 30.3001C79.5853 30.2518 78.8228 30.2437 78.0664 30.2699L78.0411 29.5291C78.8198 29.502 79.6059 29.5104 80.4016 29.5602L80.3562 30.3001ZM75.7809 30.4505C75.0206 30.5427 74.2643 30.6648 73.5094 30.8108L73.3712 30.0828C74.1408 29.9338 74.9142 29.809 75.6934 29.7145L75.7809 30.4505ZM84.8606 31.0484C84.1065 30.843 83.3637 30.6816 82.6305 30.5595L82.75 29.8281C83.5072 29.9542 84.2739 30.1208 85.0517 30.3327L84.8606 31.0484ZM71.2585 31.3124C70.5153 31.4977 69.7716 31.7006 69.025 31.9153L68.8239 31.2023C69.5768 30.9858 70.3291 30.7806 71.0825 30.5927L71.2585 31.3124ZM89.1464 32.6563C88.4318 32.3151 87.7289 32.0157 87.0367 31.7549L87.2934 31.0603C88.0055 31.3287 88.7274 31.6363 89.4602 31.9861L89.1464 32.6563ZM65.2029 33.0782C64.9952 33.1431 64.787 33.2082 64.5782 33.2733L64.3615 32.565C64.5694 32.5002 64.7771 32.4353 64.9844 32.3705C65.5206 32.2029 66.0549 32.036 66.5869 31.872L66.8013 32.581C66.2707 32.7445 65.7385 32.9108 65.2029 33.0782ZM34.801 33.6915C34.4335 33.5507 34.0631 33.4034 33.6897 33.2496L33.967 32.5632C34.3349 32.7148 34.6997 32.8598 35.0614 32.9984L34.801 33.6915ZM93.149 34.9391C92.4834 34.4989 91.8285 34.0953 91.1836 33.7262L91.5457 33.0813C92.2048 33.4586 92.873 33.8704 93.5512 34.319L93.149 34.9391ZM62.3509 33.9572C61.6115 34.1789 60.864 34.3958 60.1067 34.603L59.9148 33.8874C60.6649 33.6822 61.4066 33.467 62.1419 33.2466L62.3509 33.9572ZM39.2504 35.1324C38.5146 34.9387 37.7667 34.7193 37.006 34.4723L37.2307 33.7666C37.9785 34.0093 38.7132 34.2249 39.4356 34.415L39.2504 35.1324ZM57.8396 35.1816C57.0867 35.3587 56.3229 35.5219 55.5466 35.6668L55.4132 34.9378C56.1772 34.7952 56.9299 34.6344 57.6732 34.4596L57.8396 35.1816ZM43.8562 36.0457C43.0961 35.9449 42.3228 35.8175 41.5355 35.6608L41.6774 34.9334C42.4494 35.0871 43.2072 35.212 43.9517 35.3107L43.8562 36.0457ZM53.2283 36.0351C52.462 36.1348 51.6829 36.2136 50.8897 36.2675L50.8404 35.5279C51.6179 35.4751 52.3821 35.3978 53.1345 35.2998L53.2283 36.0351ZM48.5422 36.3504C47.7736 36.3522 46.9915 36.3287 46.1948 36.2769L46.2421 35.5371C47.0221 35.5879 47.7879 35.6108 48.5406 35.6091L48.5422 36.3504ZM96.8732 37.7025C96.2559 37.1961 95.6479 36.7206 95.0486 36.2746L95.4841 35.6778C96.0931 36.131 96.7103 36.6137 97.3362 37.1272L96.8732 37.7025ZM99.5043 39.9999C99.2079 39.7258 98.9136 39.4588 98.6214 39.1985L99.1069 38.6425C99.4027 38.9059 99.7004 39.1761 100 39.4532L99.5043 39.9999Z" fill="#EDEDED"/>
<path opacity="0.3" d="M83.8951 17.4871C87.7063 17.4871 90.7958 14.3672 90.7958 10.5187C90.7958 6.67013 87.7063 3.55026 83.8951 3.55026C80.0839 3.55026 76.9944 6.67013 76.9944 10.5187C76.9944 14.3672 80.0839 17.4871 83.8951 17.4871Z" fill="#E1E8F6" fill-opacity="0.3"/>
<path opacity="0.58" d="M57.0852 7.96815C57.7339 7.96815 58.2598 7.4371 58.2598 6.78203C58.2598 6.12696 57.7339 5.59592 57.0852 5.59592C56.4365 5.59592 55.9106 6.12696 55.9106 6.78203C55.9106 7.4371 56.4365 7.96815 57.0852 7.96815Z" fill="#F0F2F2"/>
</svg>
