<?xml version="1.0" encoding="utf-8"?>
<!-- Generator: Adobe Illustrator 19.1.0, SVG Export Plug-In . SVG Version: 6.00 Build 0)  -->
<svg version="1.1" xmlns="http://www.w3.org/2000/svg" xmlns:xlink="http://www.w3.org/1999/xlink" x="0px" y="0px"
	 viewBox="0 0 32 32" enable-background="new 0 0 32 32" xml:space="preserve">
<g id="Layer_2">
</g>
<g id="Layer_1">
</g>
<g id="Layer_3">
</g>
<g id="Layer_4">
</g>
<g id="Layer_5">
	<circle fill="#FFFFFF" cx="16" cy="16" r="15.417"/>
	<path fill="#9370B1" d="M5.949,24.696c0.053-0.847,0.103-1.382,0.442-2.534c0.273-0.925,0.925-1.629,1.938-2.093
		c0.089-0.041,0.184-0.071,0.276-0.108c0.217-0.193,0.412-0.413,0.575-0.673c0.254-0.405,0.441-0.889,0.56-1.446
		c0.121-0.035,0.24-0.128,0.34-0.269c0.111-0.157,0.195-0.368,0.235-0.592c0.059-0.327,0.022-0.639-0.098-0.846
		c0.011-0.043,0.021-0.086,0.03-0.131c0.056-0.28,0.074-0.605,0.055-0.965c-0.032-0.609-0.159-1.104-0.165-1.124
		c-0.131-0.522-0.522-1.045-1.073-1.437c-0.439-0.312-1.182-0.683-2.227-0.683c-1.046,0-1.788,0.371-2.227,0.683
		c-0.551,0.391-0.942,0.915-1.073,1.436c-0.007,0.027-0.134,0.519-0.167,1.125c-0.02,0.36-0.002,0.685,0.054,0.965
		c0.009,0.044,0.018,0.086,0.029,0.128c-0.121,0.207-0.159,0.52-0.1,0.849c0.041,0.225,0.125,0.436,0.236,0.594
		c0.1,0.142,0.22,0.235,0.341,0.268c0.119,0.557,0.306,1.041,0.56,1.446c0.186,0.295,0.406,0.548,0.662,0.756
		c-0.05,0.095-0.106,0.181-0.169,0.256c-0.114,0.137-0.253,0.242-0.412,0.313c-0.291,0.13-0.707,0.21-1.148,0.294
		c-0.312,0.06-0.642,0.133-0.968,0.222c0.757,1.99,1.93,3.774,3.426,5.235l-0.001-1.098C5.881,25.083,5.903,24.896,5.949,24.696z"/>
	<path fill="#C57C15" d="M27.733,20.614c-0.159-0.071-0.298-0.177-0.412-0.313c-0.063-0.075-0.12-0.162-0.17-0.258
		c0.254-0.209,0.474-0.46,0.659-0.755c0.254-0.405,0.441-0.889,0.56-1.446c0.121-0.035,0.24-0.128,0.34-0.269
		c0.111-0.157,0.195-0.368,0.235-0.592c0.059-0.327,0.022-0.639-0.098-0.846c0.011-0.043,0.021-0.086,0.03-0.131
		c0.056-0.28,0.074-0.605,0.055-0.965c-0.032-0.609-0.159-1.104-0.165-1.124c-0.131-0.522-0.522-1.045-1.073-1.437
		c-0.439-0.312-1.181-0.683-2.227-0.683s-1.788,0.371-2.227,0.683c-0.551,0.391-0.942,0.915-1.073,1.436
		c-0.007,0.027-0.134,0.519-0.167,1.125c-0.02,0.36-0.002,0.685,0.054,0.965c0.009,0.044,0.018,0.086,0.029,0.128
		c-0.121,0.207-0.159,0.52-0.1,0.849c0.041,0.225,0.124,0.436,0.236,0.594c0.101,0.142,0.22,0.235,0.341,0.268
		c0.119,0.557,0.306,1.041,0.56,1.446c0.167,0.266,0.368,0.493,0.592,0.689c0.077,0.031,0.158,0.057,0.233,0.091
		c1.013,0.464,1.664,1.168,1.938,2.093c0.336,1.139,0.387,1.659,0.453,2.615c0.032,0.166,0.049,0.331,0.049,0.491v0.829
		c1.389-1.428,2.477-3.142,3.188-5.043c-0.234-0.055-0.47-0.104-0.692-0.146C28.44,20.824,28.023,20.745,27.733,20.614z"/>
	<path fill="#0071C5" d="M25.35,24.944l-0.009-0.065c-0.064-0.927-0.106-1.381-0.417-2.434c-0.193-0.653-0.636-1.119-1.395-1.468
		c-0.213-0.098-0.444-0.178-0.682-0.251c-0.546-0.168-1.132-0.284-1.671-0.387c-0.689-0.131-1.342-0.255-1.837-0.478
		c-0.311-0.14-0.58-0.345-0.799-0.608c-0.118-0.141-0.225-0.303-0.315-0.479l-0.186-0.359l0.312-0.257
		c0.34-0.279,0.638-0.62,0.885-1.014c0.35-0.556,0.611-1.232,0.777-2.014l0.063-0.294l0.289-0.083
		c0.054-0.015,0.145-0.078,0.239-0.212c0.124-0.177,0.223-0.428,0.27-0.69c0.079-0.439,0.007-0.77-0.088-0.933l-0.103-0.178
		l0.09-0.37c0.076-0.381,0.101-0.827,0.074-1.324c-0.045-0.861-0.225-1.564-0.232-1.594c-0.169-0.674-0.687-1.357-1.42-1.879
		c-0.601-0.426-1.619-0.935-3.061-0.935c-1.44,0-2.459,0.509-3.061,0.935c-0.732,0.521-1.25,1.205-1.418,1.875
		c-0.01,0.034-0.19,0.735-0.238,1.598c-0.026,0.5-0.002,0.947,0.072,1.328l0.088,0.366l-0.104,0.177
		c-0.095,0.161-0.167,0.491-0.088,0.935c0.047,0.265,0.146,0.516,0.271,0.689c0.096,0.135,0.187,0.198,0.239,0.214l0.293,0.08
		l0.063,0.297c0.166,0.78,0.428,1.457,0.776,2.012c0.248,0.396,0.547,0.738,0.889,1.017l0.315,0.259l-0.188,0.361
		c-0.092,0.175-0.197,0.334-0.313,0.473c-0.221,0.265-0.489,0.469-0.798,0.607c-0.496,0.223-1.148,0.347-1.838,0.478
		c-0.534,0.102-1.114,0.217-1.655,0.383c-0.242,0.074-0.479,0.155-0.696,0.255c-0.76,0.349-1.202,0.814-1.396,1.468
		c-0.311,1.054-0.354,1.521-0.415,2.398c-0.041,0.202-0.055,0.316-0.055,0.425l0.001,1.263l0,0.728
		C9.375,29.282,12.547,30.5,16,30.5c3.579,0,6.853-1.31,9.385-3.467v-0.501v-1.263C25.385,25.164,25.373,25.057,25.35,24.944z"/>
	<path fill="#0071C5" d="M16,31.5C7.453,31.5,0.5,24.547,0.5,16S7.453,0.5,16,0.5S31.5,7.453,31.5,16S24.547,31.5,16,31.5z M16,1.5
		C8.005,1.5,1.5,8.005,1.5,16S8.005,30.5,16,30.5S30.5,23.995,30.5,16S23.995,1.5,16,1.5z"/>
</g>
</svg>
