<?xml version="1.0" encoding="utf-8"?>
<!-- Generator: Adobe Illustrator 18.1.1, SVG Export Plug-In . SVG Version: 6.00 Build 0)  -->
<svg version="1.1" id="Layer_1" xmlns="http://www.w3.org/2000/svg" xmlns:xlink="http://www.w3.org/1999/xlink" x="0px" y="0px"
	 viewBox="0 0 24 24" enable-background="new 0 0 24 24" xml:space="preserve">
<g>
	<path fill="none" stroke="#83649B" stroke-miterlimit="10" d="M13.7454,0.8028c3.3534,0.5706,5.9312,2.1236,7.4726,4.7302
		c2.0918,3.5373,1.6748,6.9646-1.1828,10.0889c-1.7365,1.8986-4.0926,2.963-6.8907,3.2778
		c-0.4403,0.0495-0.8851,0.0687-1.3488,0.1034c0,1.2526,0,2.507,0,3.8093c-0.0919-0.0658-0.1486-0.1001-0.1968-0.1417
		c-2.3571-2.0363-4.7113-4.0752-7.0708-6.1095c-1.4582-1.2573-2.5416-2.6994-3.0736-4.4323
		C-0.1046,7.0499,3.7261,1.7941,9.716,0.8168c0.5189-0.0847,1.0476-0.1251,1.5717-0.1861c0.3371,0,0.6741,0,1.0112,0
		C12.7813,0.6869,13.2687,0.7217,13.7454,0.8028z"/>
	<path fill="#83649B" d="M7.4921,8.894c0,0.4578,0,0.9149,0,1.3874c4.2878,0,4.2697,0,8.5794,0c0-0.4611,0-0.9183,0-1.3874
		C11.7723,8.894,11.7973,8.894,7.4921,8.894z"/>
	<path fill="#83649B" d="M16.0832,6.8713c0-0.4581,0-0.909,0-1.3779c-4.2961,0-4.2783,0-8.5869,0c0,0.4554,0,0.9171,0,1.3779
		C11.803,6.8713,11.7801,6.8713,16.0832,6.8713z"/>
	<path fill="#83649B" d="M16.0755,12.4349c-4.3006,0-4.2775,0-8.584,0c0,0.4483,0,0.8995,0,1.3696c4.2846,0,4.2735,0,8.584,0
		C16.0755,13.35,16.0755,12.8984,16.0755,12.4349z"/>
</g>
</svg>
