<svg width="222" height="342" viewBox="0 0 222 342" fill="none" xmlns="http://www.w3.org/2000/svg">
<path fill-rule="evenodd" clip-rule="evenodd" d="M56 3C56 1.34315 57.3431 0 59 0H163C164.657 0 166 1.34315 166 3V107C166 108.657 164.657 110 163 110H59C57.3431 110 56 108.657 56 107V3ZM59 3V107H163V3H59Z" fill="#333333"/>
<path fill-rule="evenodd" clip-rule="evenodd" d="M0 3C0 1.34315 1.34315 0 3 0H51C52.6569 0 54 1.34315 54 3V107C54 108.657 52.6569 110 51 110H3C1.34315 110 0 108.657 0 107V3ZM3 3V107H51V3H3Z" fill="#333333"/>
<path fill-rule="evenodd" clip-rule="evenodd" d="M168 3C168 1.34315 169.343 0 171 0H219C220.657 0 222 1.34315 222 3V107C222 108.657 220.657 110 219 110H171C169.343 110 168 108.657 168 107V3ZM171 3V107H219V3H171Z" fill="#333333"/>
<path d="M59 119H163V223H59V119Z" fill="#DCE4E8"/>
<path fill-rule="evenodd" clip-rule="evenodd" d="M56 119C56 117.343 57.3431 116 59 116H163C164.657 116 166 117.343 166 119V223C166 224.657 164.657 226 163 226H59C57.3431 226 56 224.657 56 223V119ZM59 119V223H163V119H59Z" fill="#627783"/>
<path d="M3 119H51V223H3V119Z" fill="#DCE4E8"/>
<path fill-rule="evenodd" clip-rule="evenodd" d="M0 119C0 117.343 1.34315 116 3 116H51C52.6569 116 54 117.343 54 119V223C54 224.657 52.6569 226 51 226H3C1.34315 226 0 224.657 0 223V119ZM3 119V223H51V119H3Z" fill="#627783"/>
<path d="M171 119H219V223H171V119Z" fill="#DCE4E8"/>
<path fill-rule="evenodd" clip-rule="evenodd" d="M168 119C168 117.343 169.343 116 171 116H219C220.657 116 222 117.343 222 119V223C222 224.657 220.657 226 219 226H171C169.343 226 168 224.657 168 223V119ZM171 119V223H219V119H171Z" fill="#627783"/>
<path d="M59 235H163V339H59V235Z" fill="#F9F9F9"/>
<path fill-rule="evenodd" clip-rule="evenodd" d="M56 235C56 233.343 57.3431 232 59 232H163C164.657 232 166 233.343 166 235V339C166 340.657 164.657 342 163 342H59C57.3431 342 56 340.657 56 339V235ZM59 235V339H163V235H59Z" fill="#757575"/>
<path d="M3 235H51V339H3V235Z" fill="#F9F9F9"/>
<path fill-rule="evenodd" clip-rule="evenodd" d="M0 235C0 233.343 1.34315 232 3 232H51C52.6569 232 54 233.343 54 235V339C54 340.657 52.6569 342 51 342H3C1.34315 342 0 340.657 0 339V235ZM3 235V339H51V235H3Z" fill="#757575"/>
<path d="M171 235H219V339H171V235Z" fill="#F9F9F9"/>
<path fill-rule="evenodd" clip-rule="evenodd" d="M168 235C168 233.343 169.343 232 171 232H219C220.657 232 222 233.343 222 235V339C222 340.657 220.657 342 219 342H171C169.343 342 168 340.657 168 339V235ZM171 235V339H219V235H171Z" fill="#757575"/>
</svg>
