<svg version="1.1" xmlns="http://www.w3.org/2000/svg" xmlns:xlink="http://www.w3.org/1999/xlink" x="0px" y="0px" viewBox="0 0 32 32" style="enable-background:new 0 0 32 32;" xml:space="preserve"><g><g><g><g><g><g><path d="M24.808,31.487H7.192c-2.158,0-4.241-1.737-4.241-3.872V4.385c0-2.135,2.083-3.872,4.241-3.872h15.332
							l6.524,6.453v20.649C29.048,29.75,26.966,31.487,24.808,31.487z" fill="#0072AA"/><path d="M24.808,32H7.192c-2.532,0-4.754-2.049-4.754-4.385V4.385C2.438,2.049,4.66,0,7.192,0h15.543l6.827,6.752
							v20.863C29.562,29.951,27.34,32,24.808,32z M7.192,1.027c-1.951,0-3.727,1.601-3.727,3.358v23.23
							c0,1.757,1.776,3.358,3.727,3.358h17.616c1.951,0,3.727-1.601,3.727-3.358V7.18l-6.221-6.153H7.192z" fill="#FFFFFF"/></g></g></g><polygon points="22.345,1.097 22.345,7.206 28.522,7.206 			" fill="#004B71"/></g></g><g><g><g><g><path d="M18.43,16.636c0.409-0.549,0.652-1.229,0.652-1.967c0-1.818-1.474-3.292-3.292-3.292
						c-1.818,0-3.292,1.474-3.292,3.292s1.474,3.292,3.292,3.292c0.311,0,0.612-0.043,0.897-0.124l2.859,10.672l1.279-2.933
						L18.43,16.636z M14.314,14.669c0-0.815,0.661-1.476,1.476-1.476c0.815,0,1.476,0.661,1.476,1.476
						c0,0.816-0.661,1.476-1.476,1.476C14.975,16.145,14.314,15.484,14.314,14.669z" fill="#004B71"/><path d="M12.846,18.036l-2.02,7.54l1.28,2.933l2.546-9.5C13.971,18.825,13.359,18.49,12.846,18.036z" fill="#004B71"/></g><polygon points="17.073,7.24 17.073,10.421 16.524,10.421 16.524,11.057 15.127,11.057 15.127,10.421 
					14.579,10.421 14.579,7.24 				" fill="#004B71"/></g></g></g><g><g><g><g><path d="M18.104,16.475c0.409-0.549,0.652-1.229,0.652-1.967c0-1.818-1.474-3.292-3.292-3.292
						c-1.818,0-3.292,1.474-3.292,3.292s1.474,3.292,3.292,3.292c0.311,0,0.612-0.043,0.897-0.124l2.859,10.672l1.279-2.933
						L18.104,16.475z M13.988,14.507c0-0.815,0.661-1.476,1.476-1.476c0.815,0,1.476,0.661,1.476,1.476
						c0,0.816-0.661,1.476-1.476,1.476C14.649,15.984,13.988,15.323,13.988,14.507z" fill="#FFFFFF"/><path d="M12.52,17.875l-2.02,7.54l1.28,2.933l2.546-9.5C13.645,18.664,13.033,18.329,12.52,17.875z" fill="#FFFFFF"/></g><polygon points="16.747,7.079 16.747,10.26 16.198,10.26 16.198,10.896 14.802,10.896 14.802,10.26 14.253,10.26 
					14.253,7.079 				" fill="#FFFFFF"/></g></g></g></g></svg>