<svg id="Layer_1" data-name="Layer 1" xmlns="http://www.w3.org/2000/svg" viewBox="0 0 42 42"><title>li_header_fav42_on</title><circle cx="21" cy="21" r="21" style="fill:#111b58"/><g id="Layer_2" data-name="Layer 2"><g id="Layer_1-2" data-name="Layer 1-2"><path d="M21.448,11.279l2.614,5.3a.5.5,0,0,0,.376.274l5.846.849a.5.5,0,0,1,.277.853l-4.23,4.123a.5.5,0,0,0-.144.443l1,5.822a.5.5,0,0,1-.725.527l-5.228-2.749a.5.5,0,0,0-.465,0L15.541,29.47a.5.5,0,0,1-.725-.527l1-5.822a.5.5,0,0,0-.144-.443l-4.23-4.123a.5.5,0,0,1,.277-.853l5.846-.849a.5.5,0,0,0,.376-.274l2.614-5.3a.5.5,0,0,1,.893,0Z" style="fill:#fff"/></g></g></svg>