<svg id="Layer_1" data-name="Layer 1" xmlns="http://www.w3.org/2000/svg" viewBox="0 0 42 42"><title>li_header_user42_on</title><g id="Layer_2" data-name="Layer 2"><g id="Layer_1-2" data-name="Layer 1-2"><path d="M21,0A21,21,0,1,0,42,21,21,21,0,0,0,21,0Z" style="fill:#111b58"/></g></g><path d="M31.1,30.8V29.3a8.51,8.51,0,0,0-.5-2.6,2.6,2.6,0,0,0-1.5-1.6,23.348,23.348,0,0,0-2.5-.7,8.3,8.3,0,0,1-2-.5,5.5,5.5,0,0,1-.9-.7c-.1-.2-.3-.3-.3-.5l-.4-.4.4-.3a5.241,5.241,0,0,0,1-1.1,4.808,4.808,0,0,0,.8-2.2l.1-.3.3-.1c.1,0,.1-.1.2-.2.1-.2.2-.5.3-.7a1.454,1.454,0,0,0-.1-1l-.1-.2.1-.4a6.15,6.15,0,0,0,.1-1.4,14.519,14.519,0,0,0-.3-1.7,3.573,3.573,0,0,0-1.5-2,5.149,5.149,0,0,0-3.3-1,5.828,5.828,0,0,0-3.3,1,3.444,3.444,0,0,0-1.5,2c0,.1-.2.9-.3,1.7a6.15,6.15,0,0,0,.1,1.4l.1.4-.1.1a1.454,1.454,0,0,0-.1,1,2.389,2.389,0,0,0,.3.7l.2.2.3.1.1.3a11.256,11.256,0,0,0,.8,2.2,5.241,5.241,0,0,0,1,1.1l.4.3-.2.4a2.351,2.351,0,0,1-1.2,1.2,8.3,8.3,0,0,1-2,.5A11.068,11.068,0,0,0,13,25a2.6,2.6,0,0,0-1.5,1.6,14.7,14.7,0,0,0-.5,2.6c0,.2-.1.3-.1.5v1.1a1.752,1.752,0,0,0,1.7,1.7H29.4A1.685,1.685,0,0,0,31.1,30.8Z" style="fill:#fff"/></svg>