<?xml version="1.0" encoding="utf-8"?>
<!-- Generator: Adobe Illustrator 18.1.0, SVG Export Plug-In . SVG Version: 6.00 Build 0)  -->
<!DOCTYPE svg PUBLIC "-//W3C//DTD SVG 1.1//EN" "http://www.w3.org/Graphics/SVG/1.1/DTD/svg11.dtd">
<svg version="1.1" id="Layer_1" xmlns="http://www.w3.org/2000/svg" xmlns:xlink="http://www.w3.org/1999/xlink" x="0px" y="0px"
	 viewBox="0 0 18 18" enable-background="new 0 0 18 18" xml:space="preserve">
<g>
	<path fill="#333333" d="M9,2c3.86,0,7,3.14,7,7s-3.14,7-7,7s-7-3.14-7-7S5.14,2,9,2 M9,1C4.582,1,1,4.582,1,9s3.582,8,8,8
		s8-3.582,8-8S13.418,1,9,1L9,1z"/>
	<path fill="#333333" d="M9,5c2.206,0,4,1.794,4,4s-1.794,4-4,4s-4-1.794-4-4S6.794,5,9,5 M9,4C6.239,4,4,6.239,4,9s2.239,5,5,5
		s5-2.239,5-5S11.761,4,9,4L9,4z"/>
	<g>
		<circle fill="#333333" cx="9" cy="9" r="2"/>
	</g>
</g>
</svg>
