<?xml version="1.0" encoding="utf-8"?>
<!-- Generator: Adobe Illustrator 18.1.0, SVG Export Plug-In . SVG Version: 6.00 Build 0)  -->
<!DOCTYPE svg PUBLIC "-//W3C//DTD SVG 1.1//EN" "http://www.w3.org/Graphics/SVG/1.1/DTD/svg11.dtd">
<svg version="1.1" id="Layer_1" xmlns="http://www.w3.org/2000/svg" xmlns:xlink="http://www.w3.org/1999/xlink" x="0px" y="0px"
	 viewBox="0 0 18 18" enable-background="new 0 0 18 18" xml:space="preserve">
<g>
	<path fill="#333333" d="M9,2c3.86,0,7,3.14,7,7s-3.14,7-7,7s-7-3.14-7-7S5.14,2,9,2 M9,1C4.582,1,1,4.582,1,9s3.582,8,8,8
		s8-3.582,8-8S13.418,1,9,1L9,1z"/>
	<path fill="#333333" d="M12.547,11.467c-0.082,0-0.166-0.021-0.242-0.062L8.5,9.296V3.909c0-0.276,0.224-0.5,0.5-0.5
		s0.5,0.224,0.5,0.5v4.797l3.289,1.823c0.242,0.134,0.329,0.438,0.195,0.68C12.893,11.374,12.723,11.467,12.547,11.467z"/>
</g>
</svg>
