<?xml version="1.0" encoding="utf-8"?>
<!-- Generator: Adobe Illustrator 18.1.0, SVG Export Plug-In . SVG Version: 6.00 Build 0)  -->
<!DOCTYPE svg PUBLIC "-//W3C//DTD SVG 1.1//EN" "http://www.w3.org/Graphics/SVG/1.1/DTD/svg11.dtd">
<svg version="1.1" id="Layer_1" xmlns="http://www.w3.org/2000/svg" xmlns:xlink="http://www.w3.org/1999/xlink" x="0px" y="0px"
	 viewBox="0 0 18 18" enable-background="new 0 0 18 18" xml:space="preserve">
<g>
	<path fill="#333333" d="M9.369,1.972l2.153,4.363c0.06,0.122,0.176,0.206,0.31,0.225l4.815,0.7
		c0.338,0.049,0.473,0.464,0.228,0.702l-3.484,3.396c-0.097,0.095-0.141,0.231-0.118,0.365l0.822,4.795
		c0.058,0.336-0.295,0.593-0.598,0.434l-4.306-2.264c-0.12-0.063-0.263-0.063-0.383,0l-4.306,2.264
		c-0.302,0.159-0.655-0.098-0.598-0.434l0.822-4.795c0.023-0.134-0.021-0.27-0.118-0.365L1.125,7.962
		C0.88,7.724,1.015,7.309,1.353,7.26l4.815-0.7c0.134-0.019,0.25-0.104,0.31-0.225l2.153-4.363C8.782,1.666,9.218,1.666,9.369,1.972
		z"/>
</g>
</svg>
