<?xml version="1.0" encoding="utf-8"?>
<!-- Generator: Adobe Illustrator 18.1.0, SVG Export Plug-In . SVG Version: 6.00 Build 0)  -->
<!DOCTYPE svg PUBLIC "-//W3C//DTD SVG 1.1//EN" "http://www.w3.org/Graphics/SVG/1.1/DTD/svg11.dtd">
<svg version="1.1" id="Layer_1" xmlns="http://www.w3.org/2000/svg" xmlns:xlink="http://www.w3.org/1999/xlink" x="0px" y="0px"
	 viewBox="0 0 24 24" enable-background="new 0 0 24 24" xml:space="preserve">
<g id="metadata">
	<circle fill="#FFFFFF" cx="12" cy="12" r="12"/>
	<g>
		<circle fill="#333333" cx="12" cy="7" r="1"/>
		<path fill="#333333" d="M13,10v7c0,0.552-0.448,1-1,1h0c-0.552,0-1-0.448-1-1v-7c0-0.552,0.448-1,1-1h0C12.552,9,13,9.448,13,10z"
			/>
	</g>
	<path fill="#333333" d="M12,2c5.514,0,10,4.486,10,10s-4.486,10-10,10S2,17.514,2,12S6.486,2,12,2 M12,1C5.925,1,1,5.925,1,12
		s4.925,11,11,11s11-4.925,11-11S18.075,1,12,1L12,1z"/>
</g>
<g id="like_icon">
</g>
<g id="fave_icon">
</g>
<g id="fave_icon_-_selected">
</g>
<g id="comment_icon_-_selected">
</g>
<g id="Comment_icon">
</g>
<g id="fave_icon_-_selected_1_">
</g>
<g id="like_icon_-_selected">
</g>
</svg>
