<?xml version="1.0" encoding="utf-8"?>
<!-- Generator: Adobe Illustrator 18.1.0, SVG Export Plug-In . SVG Version: 6.00 Build 0)  -->
<!DOCTYPE svg PUBLIC "-//W3C//DTD SVG 1.1//EN" "http://www.w3.org/Graphics/SVG/1.1/DTD/svg11.dtd">
<svg version="1.1" id="Layer_1" xmlns="http://www.w3.org/2000/svg" xmlns:xlink="http://www.w3.org/1999/xlink" x="0px" y="0px"
	 viewBox="0 0 32 32" enable-background="new 0 0 32 32" xml:space="preserve">
<g id="Ppt">
</g>
<g id="Small_Folder">
</g>
<g>
	<g>
		<g>
			<path fill="#0071C5" d="M7,31.5c-1.93,0-3.5-1.57-3.5-3.5V4c0-1.93,1.57-3.5,3.5-3.5h15.207L28.5,6.793V28
				c0,1.93-1.57,3.5-3.5,3.5H7z"/>
			<path fill="#FFFFFF" d="M22,1l6,6v21c0,1.657-1.343,3-3,3H7c-1.657,0-3-1.343-3-3V4c0-1.657,1.343-3,3-3H22 M22.414,0H22H7
				C4.794,0,3,1.794,3,4v24c0,2.206,1.794,4,4,4h18c2.206,0,4-1.794,4-4V7V6.586l-0.293-0.293l-6-6L22.414,0L22.414,0z"/>
		</g>
	</g>
	<polygon fill-rule="evenodd" clip-rule="evenodd" fill="#005B93" points="22,1 22,7 28,7 	"/>
	<path fill="#005B93" d="M16,12c1.654,0,3,1.346,3,3v3c0,1.654-1.346,3-3,3s-3-1.346-3-3v-3C13,13.346,14.346,12,16,12 M16,10
		c-2.75,0-5,2.25-5,5v3c0,2.75,2.25,5,5,5s5-2.25,5-5v-3C21,12.25,18.75,10,16,10L16,10z"/>
	<path fill="#FFFFFF" d="M16,11c1.654,0,3,1.346,3,3v3c0,1.654-1.346,3-3,3s-3-1.346-3-3v-3C13,12.346,14.346,11,16,11 M16,9
		c-2.75,0-5,2.25-5,5v3c0,2.75,2.25,5,5,5s5-2.25,5-5v-3C21,11.25,18.75,9,16,9L16,9z"/>
</g>
<g id="fave_icon_-_selected">
</g>
</svg>
