<svg version="1.1" xmlns="http://www.w3.org/2000/svg" xmlns:xlink="http://www.w3.org/1999/xlink" x="0px" y="0px" viewBox="0 0 32 32" style="enable-background:new 0 0 32 32;" xml:space="preserve"><path d="M28.333,3.667h-1C27.149,3.667,27,3.517,27,3.333V3c0-0.368-0.299-0.667-0.667-0.667H9.667
	C9.298,2.333,9,2.632,9,3v26c0,0.368,0.298,0.667,0.667,0.667h16.667C26.701,29.667,27,29.368,27,29V10
	c0-0.184,0.149-0.333,0.333-0.333h1C28.701,9.667,29,9.368,29,9V4.333C29,3.965,28.701,3.667,28.333,3.667z" fill="#FFFFFF" stroke="#979593" stroke-miterlimit="10"/><path d="M24.333,14H15c-0.184,0-0.333-0.149-0.333-0.333c0-0.184,0.149-0.333,0.333-0.333h9.333
	c0.184,0,0.333,0.149,0.333,0.333C24.667,13.851,24.517,14,24.333,14z" fill="#C8C6C4"/><path d="M24.333,16H15c-0.184,0-0.333-0.149-0.333-0.333c0-0.184,0.149-0.333,0.333-0.333h9.333
	c0.184,0,0.333,0.149,0.333,0.333C24.667,15.851,24.517,16,24.333,16z" fill="#C8C6C4"/><path d="M24.333,18H15c-0.184,0-0.333-0.149-0.333-0.333c0-0.184,0.149-0.333,0.333-0.333h9.333
	c0.184,0,0.333,0.149,0.333,0.333C24.667,17.851,24.517,18,24.333,18z" fill="#C8C6C4"/><path d="M24.333,20H15c-0.184,0-0.333-0.149-0.333-0.333c0-0.184,0.149-0.333,0.333-0.333h9.333
	c0.184,0,0.333,0.149,0.333,0.333C24.667,19.851,24.517,20,24.333,20z" fill="#C8C6C4"/><path d="M24.333,22H15c-0.184,0-0.333-0.149-0.333-0.333c0-0.184,0.149-0.333,0.333-0.333h9.333
	c0.184,0,0.333,0.149,0.333,0.333C24.667,21.851,24.517,22,24.333,22z" fill="#C8C6C4"/><path d="M4,24.667h12c0.736,0,1.333-0.597,1.333-1.333v-12C17.333,10.597,16.736,10,16,10H4
	c-0.736,0-1.333,0.597-1.333,1.333v12C2.667,24.07,3.264,24.667,4,24.667z" fill="#7719AA"/><path d="M6.135,13.333h2.17l3.84,5.802c0-0.01-0.021-5.802-0.021-5.802h1.719v8h-2.08L7.872,15.63
	c0.031,0.245,0.046,5.704,0.046,5.704H6.135V13.333z" fill="#F9F7F7"/></svg>