<?xml version="1.0" encoding="utf-8"?>
<!-- Generator: Adobe Illustrator 19.1.0, SVG Export Plug-In . SVG Version: 6.00 Build 0)  -->
<svg version="1.1" xmlns="http://www.w3.org/2000/svg" xmlns:xlink="http://www.w3.org/1999/xlink" x="0px" y="0px"
	 viewBox="0 0 32 32" enable-background="new 0 0 32 32" xml:space="preserve">
<g id="Layer_2">
</g>
<g id="Layer_1">
</g>
<g id="Layer_3">
	<g>
		<circle fill="#DF3324" cx="16" cy="16" r="13.552"/>
		<path fill="#FFFFFF" d="M16,2.448c7.485,0,13.552,6.068,13.552,13.552S23.485,29.552,16,29.552
			C8.515,29.552,2.448,23.485,2.448,16S8.515,2.448,16,2.448 M16,1.448C7.976,1.448,1.448,7.976,1.448,16S7.976,30.552,16,30.552
			c8.024,0,14.552-6.528,14.552-14.552S24.024,1.448,16,1.448L16,1.448z"/>
	</g>
	<circle fill="#FFFFFF" cx="16" cy="16" r="9.829"/>
	<circle fill="#DF3324" cx="16" cy="16" r="6.703"/>
	<g>
		<path fill="#DF3324" d="M30.633,5.416c-0.036-0.134-0.141-0.237-0.275-0.273l-2.709-0.714L26.9,1.686
			c-0.035-0.134-0.139-0.238-0.273-0.275c-0.135-0.037-0.277,0.002-0.374,0.1l-2.977,2.977c-0.072,0.073-0.113,0.171-0.113,0.274
			v3.028l-6.161,6.161c-0.308-0.153-0.649-0.246-1.015-0.246c-1.269,0-2.3,1.031-2.3,2.3s1.031,2.3,2.3,2.3
			c1.268,0,2.299-1.031,2.299-2.3c0-0.337-0.076-0.655-0.208-0.944l6.179-6.179h3.026c0.103,0,0.201-0.04,0.274-0.114l2.977-2.978
			C30.63,5.691,30.669,5.549,30.633,5.416z"/>
		<path fill="#FFFFFF" d="M26.525,1.397c0.034,0,0.068,0.005,0.102,0.014c0.134,0.036,0.237,0.141,0.273,0.275l0.75,2.743
			l2.709,0.714c0.134,0.035,0.238,0.139,0.275,0.273c0.036,0.134-0.002,0.276-0.1,0.373l-2.977,2.978
			c-0.072,0.073-0.171,0.114-0.274,0.114h-3.026l-6.179,6.179c0.132,0.289,0.208,0.607,0.208,0.944c0,1.269-1.031,2.3-2.299,2.3
			c-1.269,0-2.3-1.031-2.3-2.3s1.031-2.3,2.3-2.3c0.366,0,0.707,0.094,1.015,0.246l6.161-6.161V4.762
			c0-0.103,0.04-0.201,0.113-0.274l2.977-2.977C26.326,1.438,26.424,1.397,26.525,1.397 M26.525,0.397
			c-0.37,0-0.717,0.144-0.979,0.406l-2.977,2.977c-0.262,0.262-0.406,0.61-0.406,0.981v2.613l-5.42,5.42
			c-0.248-0.061-0.501-0.092-0.756-0.092c-1.82,0-3.3,1.48-3.3,3.3s1.48,3.3,3.3,3.3c1.819,0,3.299-1.48,3.299-3.3
			c0-0.226-0.023-0.449-0.07-0.668l5.455-5.455h2.611c0.369,0,0.728-0.15,0.986-0.411l2.973-2.974
			c0.35-0.35,0.487-0.864,0.357-1.342c-0.129-0.477-0.507-0.852-0.985-0.978l-2.151-0.567l-0.598-2.187
			c-0.123-0.469-0.498-0.847-0.976-0.976C26.773,0.414,26.649,0.397,26.525,0.397L26.525,0.397z"/>
	</g>
</g>
<g id="Layer_4">
</g>
<g id="Layer_5">
</g>
<g id="Layer_7">
</g>
</svg>
