<svg data-name="Layer 2" xmlns="http://www.w3.org/2000/svg" viewBox="0 0 32 32"><title>mime</title><path d="M5.309,0.483A4.849,4.849,0,0,0,.465,5.327V26.622a4.849,4.849,0,0,0,4.844,4.844h21.3a4.849,4.849,0,0,0,4.844-4.844V5.326A4.849,4.849,0,0,0,26.605.482H5.309Z" fill="#4d575b"/><path d="M26.6,31.974H5.31A5.358,5.358,0,0,1-.043,26.622V5.327A5.358,5.358,0,0,1,5.31-.025H26.6a5.358,5.358,0,0,1,5.352,5.352v21.3A5.358,5.358,0,0,1,26.6,31.974ZM5.31,0.991h0A4.341,4.341,0,0,0,.974,5.327V26.622A4.341,4.341,0,0,0,5.31,30.957H26.6a4.341,4.341,0,0,0,4.336-4.336V5.326A4.341,4.341,0,0,0,26.6.991H5.31Z" fill="#fff"/><path d="M20.48,8.043H8.46a1.5,1.5,0,0,0-1.5,1.5v14a1.5,1.5,0,0,0,1.5,1.5h5.979v-1H8.46a0.5,0.5,0,0,1-.5-0.5v-14a0.5,0.5,0,0,1,.5-0.5H20.48v-1Z" fill="#fff"/><rect x="14.458" y="14.497" width="12.021" height="12.021" rx="1.551" ry="1.551" fill="#d24625"/><path d="M26.969,16.048v8.919a2.043,2.043,0,0,1-2.041,2.04H16.009a2.043,2.043,0,0,1-2.04-2.04V16.048a2.043,2.043,0,0,1,2.04-2.04h8.918A2.043,2.043,0,0,1,26.969,16.048Zm-2.041,9.981a1.063,1.063,0,0,0,1.063-1.062V16.048a1.063,1.063,0,0,0-1.063-1.062H16.009a1.062,1.062,0,0,0-1.062,1.062v8.919a1.062,1.062,0,0,0,1.062,1.062h8.918Z" fill="#fff"/><rect x="20.487" y="5.512" width="6" height="6" rx="0.774" ry="0.774" fill="#627784"/><path d="M26.986,6.286v4.452a1.275,1.275,0,0,1-1.273,1.274H21.261a1.275,1.275,0,0,1-1.274-1.274V6.286a1.275,1.275,0,0,1,1.274-1.273h4.452A1.275,1.275,0,0,1,26.986,6.286Zm-1.273,4.727a0.278,0.278,0,0,0,.273-0.274V6.286a0.274,0.274,0,0,0-.273-0.273H21.261a0.278,0.278,0,0,0-.274.273v4.452a0.279,0.279,0,0,0,.274.274h4.452Z" fill="#fff"/><rect x="4.472" y="13.524" width="6" height="6" rx="0.774" ry="0.774" fill="#627784"/><path d="M10.972,14.3V18.75A1.275,1.275,0,0,1,9.7,20.024H5.246A1.275,1.275,0,0,1,3.972,18.75V14.3a1.275,1.275,0,0,1,1.274-1.273H9.7A1.275,1.275,0,0,1,10.972,14.3ZM9.7,19.024a0.278,0.278,0,0,0,.273-0.274V14.3A0.274,0.274,0,0,0,9.7,14.024H5.246a0.278,0.278,0,0,0-.274.273V18.75a0.279,0.279,0,0,0,.274.274H9.7Z" fill="#fff"/><path d="M20.481,22a1,1,0,0,1-1-1V17.01a1,1,0,0,1,2,0V21A1,1,0,0,1,20.481,22Z" fill="#fff"/><circle cx="20.46" cy="24.013" r="1" fill="#fff"/></svg>