<svg version="1.1" xmlns="http://www.w3.org/2000/svg" xmlns:xlink="http://www.w3.org/1999/xlink" x="0px" y="0px" viewBox="0 0 32 32" style="enable-background:new 0 0 32 32;" xml:space="preserve"><path d="M22.057,2.333H9C8.632,2.333,8.333,2.632,8.333,3v26c0,0.368,0.298,0.667,0.667,0.667h19.333
	C28.701,29.667,29,29.368,29,29V9.276c0-0.177-0.07-0.346-0.195-0.471l-6.276-6.276C22.404,2.404,22.234,2.333,22.057,2.333z" fill="#FFFFFF" stroke="#979593" stroke-miterlimit="10"/><path d="M22.333,2.333v6C22.333,8.702,22.632,9,23,9h6" fill="none" stroke="#979593" stroke-miterlimit="10"/><path d="M25.667,25.667H12.333c-0.368,0-0.667-0.299-0.667-0.667V13h14c0.368,0,0.667,0.299,0.667,0.667V25
	C26.333,25.368,26.035,25.667,25.667,25.667z" fill="none" stroke="#C8C6C4" stroke-miterlimit="10"/><path d="M23.667,16h-10c-0.184,0-0.333-0.149-0.333-0.333V15c0-0.184,0.149-0.333,0.333-0.333h10
	C23.851,14.667,24,14.816,24,15v0.667C24,15.851,23.851,16,23.667,16z" fill="#8BBF8A"/><path d="M23.667,18.667h-10c-0.184,0-0.333-0.149-0.333-0.333v-0.667c0-0.184,0.149-0.333,0.333-0.333h10
	c0.184,0,0.333,0.149,0.333,0.333v0.667C24,18.517,23.851,18.667,23.667,18.667z" fill="#8BBF8A"/><path d="M19,20h7v1.333h-7c-0.184,0-0.333-0.149-0.333-0.333v-0.667C18.667,20.149,18.816,20,19,20z" fill="#8BBF8A"/><path d="M23.667,24h-10c-0.184,0-0.333-0.149-0.333-0.333V23c0-0.184,0.149-0.333,0.333-0.333h10
	C23.851,22.667,24,22.816,24,23v0.667C24,23.851,23.851,24,23.667,24z" fill="#8BBF8A"/><path d="M4,24.667h12c0.736,0,1.333-0.597,1.333-1.333v-12C17.333,10.597,16.736,10,16,10H4
	c-0.736,0-1.333,0.597-1.333,1.333v12C2.667,24.07,3.264,24.667,4,24.667z" fill="#31752F"/><path d="M10.446,13.333c0.934,0,1.648,0.214,2.144,0.641c0.496,0.428,0.744,1.048,0.744,1.858
	c0,0.52-0.122,0.984-0.367,1.389c-0.246,0.405-0.594,0.72-1.046,0.945c-0.453,0.225-0.976,0.337-1.573,0.337H8.859v2.829H7.333v-8
	H10.446z M8.859,17.283h1.313c0.513,0,0.899-0.118,1.161-0.354c0.262-0.236,0.392-0.581,0.392-1.035
	c0-0.881-0.501-1.322-1.504-1.322H8.859V17.283z" fill="#F9F7F7"/></svg>