<?xml version="1.0" encoding="utf-8"?>
<!-- Generator: Adobe Illustrator 18.1.0, SVG Export Plug-In . SVG Version: 6.00 Build 0)  -->
<!DOCTYPE svg PUBLIC "-//W3C//DTD SVG 1.1//EN" "http://www.w3.org/Graphics/SVG/1.1/DTD/svg11.dtd">
<svg version="1.1" id="Layer_1" xmlns="http://www.w3.org/2000/svg" xmlns:xlink="http://www.w3.org/1999/xlink" x="0px" y="0px"
	 viewBox="0 0 32 32" enable-background="new 0 0 32 32" xml:space="preserve">
<g id="Ppt">
</g>
<g id="Small_Folder">
</g>
<g>
	<g>
		<g>
			<path fill="#0072AA" d="M7,31.5c-1.93,0-3.5-1.57-3.5-3.5V4c0-1.93,1.57-3.5,3.5-3.5h15.207L28.5,6.793V28
				c0,1.93-1.57,3.5-3.5,3.5H7z"/>
			<path fill="#FFFFFF" d="M22,1l6,6v21c0,1.657-1.343,3-3,3H7c-1.657,0-3-1.343-3-3V4c0-1.657,1.343-3,3-3H22 M22.414,0H22H7
				C4.794,0,3,1.794,3,4v24c0,2.206,1.794,4,4,4h18c2.206,0,4-1.794,4-4V7V6.586l-0.293-0.293l-6-6L22.414,0L22.414,0z"/>
		</g>
	</g>
	<polygon fill-rule="evenodd" clip-rule="evenodd" fill="#004B71" points="22,1 22,7 28,7 	"/>
	<path fill="#004B71" d="M17.5,10c0.276,0,0.5-0.224,0.5-0.5S17.776,9,17.5,9h-1V8C16.776,8,17,7.776,17,7.5S16.776,7,16.5,7V6h1
		C17.776,6,18,5.776,18,5.5S17.776,5,17.5,5h-1V4C16.776,4,17,3.776,17,3.5S16.776,3,16.5,3V2h-1v1h-1C14.224,3,14,3.224,14,3.5
		S14.224,4,14.5,4h1v1C15.224,5,15,5.224,15,5.5S15.224,6,15.5,6v1h-1C14.224,7,14,7.224,14,7.5S14.224,8,14.5,8h1v1
		C15.224,9,15,9.224,15,9.5s0.224,0.5,0.5,0.5v1h-1c-0.276,0-0.5,0.224-0.5,0.5s0.224,0.5,0.5,0.5h1v1c-0.276,0-0.5,0.224-0.5,0.5
		s0.224,0.5,0.5,0.5v1h-1c-0.276,0-0.5,0.224-0.5,0.5s0.224,0.5,0.5,0.5h1v1.072C14.641,17.296,14,18.074,14,19v5c0,1.1,0.9,2,2,2
		s2-0.9,2-2v-5c0-0.926-0.641-1.704-1.5-1.928V16c0.276,0,0.5-0.224,0.5-0.5S16.776,15,16.5,15v-1h1c0.276,0,0.5-0.224,0.5-0.5
		S17.776,13,17.5,13h-1v-1c0.276,0,0.5-0.224,0.5-0.5S16.776,11,16.5,11v-1H17.5z M17,24c0,0.552-0.448,1-1,1s-1-0.448-1-1
		c0-0.552,0.448-1,1-1S17,23.448,17,24z"/>
	<path fill="#FFFFFF" d="M17.5,9C17.776,9,18,8.776,18,8.5S17.776,8,17.5,8h-1V7C16.776,7,17,6.776,17,6.5S16.776,6,16.5,6V5h1
		C17.776,5,18,4.776,18,4.5S17.776,4,17.5,4h-1V3C16.776,3,17,2.776,17,2.5S16.776,2,16.5,2V1h-1v1h-1C14.224,2,14,2.224,14,2.5
		S14.224,3,14.5,3h1v1C15.224,4,15,4.224,15,4.5S15.224,5,15.5,5v1h-1C14.224,6,14,6.224,14,6.5S14.224,7,14.5,7h1v1
		C15.224,8,15,8.224,15,8.5S15.224,9,15.5,9v1h-1c-0.276,0-0.5,0.224-0.5,0.5s0.224,0.5,0.5,0.5h1v1c-0.276,0-0.5,0.224-0.5,0.5
		s0.224,0.5,0.5,0.5v1h-1c-0.276,0-0.5,0.224-0.5,0.5s0.224,0.5,0.5,0.5h1v1.072C14.641,16.296,14,17.074,14,18v5c0,1.1,0.9,2,2,2
		s2-0.9,2-2v-5c0-0.926-0.641-1.704-1.5-1.928V15c0.276,0,0.5-0.224,0.5-0.5S16.776,14,16.5,14v-1h1c0.276,0,0.5-0.224,0.5-0.5
		S17.776,12,17.5,12h-1v-1c0.276,0,0.5-0.224,0.5-0.5S16.776,10,16.5,10V9H17.5z M17,23c0,0.552-0.448,1-1,1s-1-0.448-1-1
		c0-0.552,0.448-1,1-1S17,22.448,17,23z"/>
</g>
<g id="fave_icon_-_selected">
</g>
</svg>
