<svg version="1.1" xmlns="http://www.w3.org/2000/svg" xmlns:xlink="http://www.w3.org/1999/xlink" x="0px" y="0px" viewBox="0 0 32 32" style="enable-background:new 0 0 32 32;" xml:space="preserve"><g><g><path d="M4.7,32c-2,0-4.7-2.5-4.7-5.2V5.2C0,2.5,2.5,1,5.2,1h21.6C29.5,1,31,2.5,31,5.2v21.6c0,2.7-1.5,5.2-4.2,5.2
			H4.7L4.7,32z" fill="#FFFFFF"/><path d="M26.8,32H4.7C2.5,32,0,29.9,0,26.8V5.2C0,2.2,2.2,0,5.2,0h21.6c3,0,5.2,2.2,5.2,5.2v21.6
			C32,29.8,29.8,32,26.8,32z M5.2,1C2.8,1,1,2.8,1,5.2v21.6C1,29.3,3,31,4.7,31h22.1c2.4,0,4.2-1.8,4.2-4.2V5.2
			C31,2.8,29.2,1,26.8,1H5.2z" fill="#666666"/></g></g><g/><g/><g><path d="M6.7,14.4L5,12.7c-0.2-0.2-0.2-0.5,0-0.7s0.5-0.2,0.7,0l1,1L9,10.7c0.2-0.2,0.5-0.2,0.7,0s0.2,0.5,0,0.7
		L6.7,14.4z" fill="#227247"/><path d="M6.7,22.4L5,20.7c-0.2-0.2-0.2-0.5,0-0.7c0.2-0.2,0.5-0.2,0.7,0l1,1L9,18.7c0.2-0.2,0.5-0.2,0.7,0
		s0.2,0.5,0,0.7L6.7,22.4z" fill="#227247"/><path d="M22.1,12h-9.5c-0.3,0-0.5-0.2-0.5-0.5s0.2-0.5,0.5-0.5h9.5c0.3,0,0.5,0.2,0.5,0.5S22.4,12,22.1,12z" fill="#666666"/><path d="M22.1,20h-9.5c-0.3,0-0.5-0.2-0.5-0.5s0.2-0.5,0.5-0.5h9.5c0.3,0,0.5,0.2,0.5,0.5S22.4,20,22.1,20z" fill="#666666"/><path d="M25,26h-3.8c-0.6,0-1-0.4-1-0.9s0.4-1.1,1-1.1H25V8h-3.8c-0.6,0-1-0.4-1-0.9s0.4-1.1,1-1.1H25c1.1,0,2,0.8,2,2
		v15.9C27,25.1,26.1,26,25,26z" fill="#7B9AB0"/></g><g/><g/><g/></svg>