<svg version="1.1" xmlns="http://www.w3.org/2000/svg" xmlns:xlink="http://www.w3.org/1999/xlink" x="0px" y="0px" viewBox="0 0 32 32" style="enable-background:new 0 0 32 32;" xml:space="preserve"><path d="M22.057,2.333H9C8.632,2.333,8.333,2.632,8.333,3v26c0,0.368,0.298,0.667,0.667,0.667h19.333
	C28.701,29.667,29,29.368,29,29V9.276c0-0.177-0.07-0.346-0.195-0.471l-6.276-6.276C22.404,2.404,22.234,2.333,22.057,2.333z" fill="#FFFFFF" stroke="#979593" stroke-miterlimit="10"/><path d="M22.333,2.333v6C22.333,8.702,22.632,9,23,9h6" fill="none" stroke="#979593" stroke-miterlimit="10"/><path d="M26.333,25.333h-5H16h-5c-0.184,0-0.333,0.149-0.333,0.333C10.667,25.851,10.816,26,11,26h5h5.333h5
	c0.184,0,0.333-0.149,0.333-0.333C26.667,25.482,26.518,25.333,26.333,25.333z" fill="#C8C6C4"/><path d="M26.333,23.333h-5H16h-5c-0.184,0-0.333,0.149-0.333,0.333C10.667,23.851,10.816,24,11,24h5h5.333h5
	c0.184,0,0.333-0.149,0.333-0.333C26.667,23.482,26.518,23.333,26.333,23.333z" fill="#C8C6C4"/><path d="M20,11.333c2.577,0,4.667,2.089,4.667,4.667H20V11.333z" fill="#F5BA9D"/><path d="M24.667,16.667c0,3.295-2.989,5.893-6.403,5.229c-2.079-0.404-3.755-2.08-4.159-4.159
	c-0.663-3.415,1.934-6.403,5.229-6.403v5.333H24.667z" fill="#C8C6C4"/><path d="M4,24.667h12c0.736,0,1.333-0.597,1.333-1.333v-12C17.333,10.597,16.736,10,16,10H4
	c-0.736,0-1.333,0.597-1.333,1.333v12C2.667,24.07,3.264,24.667,4,24.667z" fill="#C43E1C"/><path d="M10.446,13.333c0.933,0,1.648,0.214,2.144,0.641c0.496,0.428,0.744,1.048,0.744,1.858
	c0,0.52-0.122,0.984-0.367,1.389c-0.246,0.405-0.594,0.72-1.046,0.945c-0.453,0.225-0.977,0.337-1.573,0.337H8.859v2.829H7.333v-8
	H10.446z M8.859,17.283h1.313c0.513,0,0.9-0.118,1.161-0.354c0.262-0.236,0.392-0.581,0.392-1.035c0-0.881-0.501-1.322-1.504-1.322
	H8.859V17.283z" fill="#F9F7F7"/></svg>