<?xml version="1.0" encoding="utf-8"?>
<!-- Generator: Adobe Illustrator 18.1.0, SVG Export Plug-In . SVG Version: 6.00 Build 0)  -->
<!DOCTYPE svg PUBLIC "-//W3C//DTD SVG 1.1//EN" "http://www.w3.org/Graphics/SVG/1.1/DTD/svg11.dtd">
<svg version="1.1" id="Layer_1" xmlns="http://www.w3.org/2000/svg" xmlns:xlink="http://www.w3.org/1999/xlink" x="0px" y="0px"
	 viewBox="0 0 32 32" enable-background="new 0 0 32 32" xml:space="preserve">
<g id="Ppt">
</g>
<g id="Small_Folder">
</g>
<g>
	<g>
		<g>
			<path fill="#C57C15" d="M7,31.5c-1.93,0-3.5-1.57-3.5-3.5V4c0-1.93,1.57-3.5,3.5-3.5h15.207L28.5,6.793V28
				c0,1.93-1.57,3.5-3.5,3.5H7z"/>
			<path fill="#FFFFFF" d="M22,1l6,6v21c0,1.657-1.343,3-3,3H7c-1.657,0-3-1.343-3-3V4c0-1.657,1.343-3,3-3H22 M22.414,0H22H7
				C4.794,0,3,1.794,3,4v24c0,2.206,1.794,4,4,4h18c2.206,0,4-1.794,4-4V7V6.586l-0.293-0.293l-6-6L22.414,0L22.414,0z"/>
		</g>
	</g>
	<polygon fill-rule="evenodd" clip-rule="evenodd" fill="#B26602" points="22,1 22,7 28,7 	"/>
	<g>
		<path fill="#B26602" d="M10.536,21.54c-0.256,0-0.512-0.098-0.707-0.293l-4.243-4.242l4.243-4.243
			c0.391-0.391,1.023-0.391,1.414,0s0.391,1.023,0,1.414l-2.829,2.829l2.829,2.828c0.391,0.391,0.391,1.023,0,1.414
			C11.047,21.442,10.792,21.54,10.536,21.54z"/>
		<path fill="#B26602" d="M21.5,21.54c-0.256,0-0.512-0.098-0.707-0.293c-0.391-0.391-0.391-1.023,0-1.414l2.829-2.828l-2.829-2.829
			c-0.391-0.391-0.391-1.023,0-1.414s1.023-0.391,1.414,0l4.243,4.243l-4.243,4.242C22.012,21.442,21.756,21.54,21.5,21.54z"/>
		<path fill="#B26602" d="M12.77,24c-0.075,0-0.151-0.017-0.223-0.053c-0.247-0.124-0.347-0.424-0.224-0.671l6.46-12.92
			c0.124-0.246,0.423-0.349,0.671-0.224c0.247,0.124,0.347,0.424,0.224,0.671l-6.46,12.92C13.129,23.898,12.953,24,12.77,24z"/>
	</g>
	<path fill="#FFFFFF" d="M13.5,21.5c-0.075,0-0.151-0.017-0.223-0.053c-0.247-0.124-0.347-0.424-0.224-0.671l5-10
		c0.124-0.247,0.424-0.349,0.671-0.224c0.247,0.124,0.347,0.424,0.224,0.671l-5,10C13.859,21.398,13.683,21.5,13.5,21.5z"/>
	<g>
		<path fill="#FFFFFF" d="M12.77,22.96c-0.075,0-0.151-0.017-0.223-0.053c-0.247-0.124-0.347-0.424-0.224-0.671l6.46-12.92
			c0.124-0.246,0.423-0.349,0.671-0.224c0.247,0.124,0.347,0.424,0.224,0.671l-6.46,12.92C13.129,22.858,12.953,22.96,12.77,22.96z"
			/>
		<path fill="#FFFFFF" d="M10.536,20.5c-0.256,0-0.512-0.098-0.707-0.293l-4.243-4.242l4.243-4.243c0.391-0.391,1.023-0.391,1.414,0
			s0.391,1.023,0,1.414l-2.829,2.829l2.829,2.828c0.391,0.391,0.391,1.023,0,1.414C11.047,20.402,10.792,20.5,10.536,20.5z"/>
		<path fill="#FFFFFF" d="M21.5,20.5c-0.256,0-0.512-0.098-0.707-0.293c-0.391-0.391-0.391-1.023,0-1.414l2.829-2.828l-2.829-2.829
			c-0.391-0.391-0.391-1.023,0-1.414s1.023-0.391,1.414,0l4.243,4.243l-4.243,4.242C22.012,20.402,21.756,20.5,21.5,20.5z"/>
	</g>
</g>
<g id="fave_icon_-_selected">
</g>
</svg>
