<?xml version="1.0" encoding="utf-8"?>
<!-- Generator: Adobe Illustrator 19.2.0, SVG Export Plug-In . SVG Version: 6.00 Build 0)  -->
<!DOCTYPE svg PUBLIC "-//W3C//DTD SVG 1.1//EN" "http://www.w3.org/Graphics/SVG/1.1/DTD/svg11.dtd">
<svg version="1.1" xmlns="http://www.w3.org/2000/svg" xmlns:xlink="http://www.w3.org/1999/xlink" x="0px" y="0px"
	 viewBox="0 0 32 32" enable-background="new 0 0 32 32" xml:space="preserve">
<symbol  id="Shortcut_2_" viewBox="-7.5 -7.5 15 15">
	<g>
		<g>
			<circle opacity="0.9" fill="#3C5666" cx="0" cy="0" r="7"/>
			<path fill="#FFFFFF" d="M0,6.5c3.59,0,6.5-2.91,6.5-6.5S3.59-6.5,0-6.5S-6.5-3.59-6.5,0S-3.59,6.5,0,6.5 M0,7.5
				c-4.136,0-7.5-3.364-7.5-7.5S-4.136-7.5,0-7.5S7.5-4.136,7.5,0S4.136,7.5,0,7.5L0,7.5z"/>
		</g>
	</g>
	<path fill="#3C5666" d="M4.207,0.5L1.854,2.854c-0.195,0.195-0.512,0.195-0.707,0s-0.195-0.512,0-0.707L2.293,1H1.5
		C-1.359,1-3-0.641-3-3.5C-3-3.776-2.776-4-2.5-4S-2-3.776-2-3.5C-2-1.903-1.393,0,1.5,0h0.793L1.146-1.146
		c-0.195-0.195-0.195-0.512,0-0.707C1.244-1.951,1.372-2,1.5-2s0.256,0.049,0.354,0.146L4.207,0.5z"/>
	<path fill="#FFFFFF" d="M4.207,1.5L1.854,3.854c-0.195,0.195-0.512,0.195-0.707,0s-0.195-0.512,0-0.707L2.293,2H1.5
		C-1.359,2-3,0.359-3-2.5C-3-2.776-2.776-3-2.5-3S-2-2.776-2-2.5C-2-0.903-1.393,1,1.5,1h0.793L1.146-0.146
		c-0.195-0.195-0.195-0.512,0-0.707C1.244-0.951,1.372-1,1.5-1s0.256,0.049,0.354,0.146L4.207,1.5z"/>
</symbol>
<g id="Layer_1">
	<g id="Ppt">
	</g>
	<g id="Small_Folder">
	</g>
	<g id="fave_icon_-_selected">
	</g>
	<g id="Shortcut_1_">
	</g>
	<g id="comment_icon_-_selected">
	</g>
	<g id="Comment_icon">
		<g>
			<path fill="#9AB3C2" d="M7,31.5c-1.93,0-3.5-1.57-3.5-3.5V4c0-1.93,1.57-3.5,3.5-3.5h15.207L28.5,6.793V28
				c0,1.93-1.57,3.5-3.5,3.5H7z"/>
			<path fill="#FFFFFF" d="M22,1l6,6v21c0,1.657-1.343,3-3,3H7c-1.657,0-3-1.343-3-3V4c0-1.657,1.343-3,3-3H22 M22.414,0H22H7
				C4.794,0,3,1.794,3,4v24c0,2.206,1.794,4,4,4h18c2.206,0,4-1.794,4-4V7V6.586l-0.293-0.293l-6-6L22.414,0L22.414,0z"/>
		</g>
		<polygon fill-rule="evenodd" clip-rule="evenodd" fill="#627783" points="22,1 22,7 28,7 		"/>
		<path fill="#627783" d="M13.414,11l1.293-1.293c0.391-0.391,0.391-1.023,0-1.414s-1.023-0.391-1.414,0L12,9.586l-1.293-1.293
			c-0.391-0.391-1.023-0.391-1.414,0s-0.391,1.023,0,1.414L10.586,11l-1.293,1.293c-0.391,0.391-0.391,1.023,0,1.414
			C9.488,13.902,9.744,14,10,14s0.512-0.098,0.707-0.293L12,12.414l1.293,1.293C13.488,13.902,13.744,14,14,14
			s0.512-0.098,0.707-0.293c0.391-0.391,0.391-1.023,0-1.414L13.414,11z"/>
		<path fill="#627783" d="M23,12h-4c-0.553,0-1-0.447-1-1s0.447-1,1-1h4c0.553,0,1,0.447,1,1S23.553,12,23,12z"/>
		<path fill="#FFFFFF" d="M13.414,10l1.293-1.293c0.391-0.391,0.391-1.023,0-1.414s-1.023-0.391-1.414,0L12,8.586l-1.293-1.293
			c-0.391-0.391-1.023-0.391-1.414,0s-0.391,1.023,0,1.414L10.586,10l-1.293,1.293c-0.391,0.391-0.391,1.023,0,1.414
			C9.488,12.902,9.744,13,10,13s0.512-0.098,0.707-0.293L12,11.414l1.293,1.293C13.488,12.902,13.744,13,14,13
			s0.512-0.098,0.707-0.293c0.391-0.391,0.391-1.023,0-1.414L13.414,10z"/>
		<path fill="#FFFFFF" d="M23,11h-4c-0.553,0-1-0.447-1-1s0.447-1,1-1h4c0.553,0,1,0.447,1,1S23.553,11,23,11z"/>
		<path fill="#627783" d="M23,23h-4c-0.553,0-1-0.447-1-1s0.447-1,1-1h4c0.553,0,1,0.447,1,1S23.553,23,23,23z"/>
		<g>
			<g>
				<path fill="#627783" d="M14,19.5c0.271,0,0.5,0.229,0.5,0.5v4c0,0.271-0.229,0.5-0.5,0.5h-4c-0.271,0-0.5-0.229-0.5-0.5v-4
					c0-0.271,0.229-0.5,0.5-0.5H14 M14,18h-4c-1.1,0-2,0.9-2,2v4c0,1.1,0.9,2,2,2h4c1.1,0,2-0.9,2-2v-4C16,18.9,15.1,18,14,18L14,18
					z"/>
			</g>
		</g>
	</g>
</g>
<g id="shortcut_overlay" display="none">
	<g id="Shortcut" display="inline">
	</g>
	
		<use xlink:href="#Shortcut_2_"  width="15" height="15" x="-7.5" y="-7.5" transform="matrix(1 0 0 -1 7.5 24.5)" display="inline" overflow="visible"/>
</g>
</svg>
