<svg data-name="Layer 2" xmlns="http://www.w3.org/2000/svg" viewBox="0 0 32 32"><title>mime</title><g data-name="Comment icon"><path d="M9.284,30.668a0.692,0.692,0,0,1-.706-0.7L8.55,22.118H7.9a7.405,7.405,0,0,1-7.4-7.4V7.9A7.405,7.405,0,0,1,7.9.5H24.1a7.405,7.405,0,0,1,7.4,7.4v6.825a7.405,7.405,0,0,1-7.4,7.4H17.021L9.8,30.426A0.665,0.665,0,0,1,9.284,30.668Z" fill="#c57c15"/><path d="M24.1,1A6.9,6.9,0,0,1,31,7.9v6.825a6.9,6.9,0,0,1-6.9,6.9h-7.31l-0.3.344L9.421,30.1a0.171,0.171,0,0,1-.137.071,0.2,0.2,0,0,1-.206-0.2L9.052,22.615l0-1H7.9a6.9,6.9,0,0,1-6.9-6.9V7.9A6.9,6.9,0,0,1,7.9,1H24.1m0-1H7.9A7.9,7.9,0,0,0,0,7.9v6.825a7.906,7.906,0,0,0,7.9,7.9H8.052l0.026,7.358a1.192,1.192,0,0,0,1.206,1.192,1.17,1.17,0,0,0,.891-0.414l7.073-8.136H24.1a7.906,7.906,0,0,0,7.9-7.9V7.9A7.906,7.906,0,0,0,24.1,0h0Z" fill="#fff"/></g><g data-name="fave icon - selected"><path d="M16.323,5.431l1.884,3.817a0.361,0.361,0,0,0,.271.2l4.213,0.612a0.36,0.36,0,0,1,.2.615l-3.049,2.971a0.36,0.36,0,0,0-.1.319l0.72,4.2a0.36,0.36,0,0,1-.523.38l-3.768-1.981a0.358,0.358,0,0,0-.335,0l-3.768,1.981a0.36,0.36,0,0,1-.523-0.38l0.72-4.2a0.361,0.361,0,0,0-.1-0.319L9.11,10.673a0.36,0.36,0,0,1,.2-0.615l4.213-.612a0.359,0.359,0,0,0,.271-0.2l1.884-3.817A0.361,0.361,0,0,1,16.323,5.431Z" fill="#b26602"/></g><g data-name="fave icon - selected"><path d="M16.323,4.431l1.884,3.817a0.361,0.361,0,0,0,.271.2l4.213,0.612a0.36,0.36,0,0,1,.2.615l-3.049,2.971a0.36,0.36,0,0,0-.1.319l0.72,4.2a0.36,0.36,0,0,1-.523.38l-3.768-1.981a0.358,0.358,0,0,0-.335,0l-3.768,1.981a0.36,0.36,0,0,1-.523-0.38l0.72-4.2a0.361,0.361,0,0,0-.1-0.319L9.11,9.673a0.36,0.36,0,0,1,.2-0.615l4.213-.612a0.359,0.359,0,0,0,.271-0.2l1.884-3.817A0.361,0.361,0,0,1,16.323,4.431Z" fill="#fff"/></g></svg>