<svg version="1.1" xmlns="http://www.w3.org/2000/svg" xmlns:xlink="http://www.w3.org/1999/xlink" x="0px" y="0px" viewBox="0 0 32 32" style="enable-background:new 0 0 32 32;" xml:space="preserve"><path d="M7,31.5c-1.93,0-3.5-1.57-3.5-3.5V4c0-1.93,1.57-3.5,3.5-3.5h15.207L28.5,6.793V28c0,1.93-1.57,3.5-3.5,3.5H7z" fill="#2A5699"/><path d="M22,1l6,6v21c0,1.657-1.343,3-3,3H7c-1.657,0-3-1.343-3-3V4c0-1.657,1.343-3,3-3H22z M22.414,0H22H7
	C4.794,0,3,1.794,3,4v24c0,2.206,1.794,4,4,4h18c2.206,0,4-1.794,4-4V7V6.586l-0.293-0.293l-6-6L22.414,0z" fill="#FFFFFF"/><path d="M22,1v6h6L22,1z" fill-rule="evenodd" clip-rule="evenodd" fill="#13386D"/><path d="M4,16h24v12c0,1.657-1.343,3-3,3H7c-1.657,0-3-1.343-3-3V16z" fill="#339DD8"/><path d="M13.064,25.315l-1.197-5.023c-0.095-0.399,0.207-0.781,0.617-0.781h0.025c0.298,0,0.556,0.207,0.62,0.498
	l0.867,3.95l0.986-3.702c0.117-0.44,0.515-0.745,0.97-0.745c0.46,0,0.862,0.313,0.973,0.759l0.945,3.763l0.885-4.025
	c0.064-0.291,0.322-0.498,0.62-0.498c0.41,0,0.713,0.384,0.616,0.784l-1.218,5.024C18.676,25.718,18.317,26,17.906,26
	c-0.404,0-0.758-0.272-0.862-0.662l-1.114-4.179l-1.109,4.179C14.717,25.728,14.364,26,13.96,26h-0.028
	C13.519,26,13.16,25.716,13.064,25.315z" fill="#006699"/><path d="M13.064,24.805l-1.197-5.023C11.772,19.383,12.074,19,12.484,19h0.025c0.298,0,0.556,0.208,0.62,0.498
	l0.867,3.949l0.986-3.702C15.099,19.306,15.496,19,15.951,19c0.46,0,0.862,0.313,0.973,0.759l0.945,3.763l0.885-4.025
	C18.818,19.208,19.076,19,19.374,19c0.41,0,0.713,0.384,0.616,0.784l-1.218,5.024c-0.097,0.4-0.455,0.682-0.867,0.682
	c-0.404,0-0.758-0.272-0.862-0.662l-1.114-4.179l-1.109,4.179c-0.104,0.391-0.457,0.663-0.862,0.663h-0.028
	C13.519,25.49,13.16,25.207,13.064,24.805z" fill="#FFFFFF"/><path d="M11.017,22.615c0,0.595-0.079,1.105-0.236,1.53c-0.154,0.421-0.376,0.766-0.667,1.033
	c-0.291,0.267-0.645,0.465-1.063,0.592c-0.415,0.124-0.909,0.186-1.485,0.186h-1.55c-0.11,0-0.204-0.032-0.281-0.095
	c-0.074-0.067-0.11-0.174-0.11-0.321v-5.658c0-0.147,0.037-0.252,0.11-0.316c0.077-0.067,0.171-0.1,0.281-0.1h1.665
	c0.578,0,1.068,0.069,1.47,0.206c0.405,0.134,0.744,0.334,1.018,0.602c0.278,0.264,0.488,0.592,0.632,0.983
	C10.945,21.647,11.017,22.1,11.017,22.615z M9.652,22.66c0-0.308-0.037-0.594-0.11-0.858c-0.07-0.264-0.186-0.493-0.346-0.687
	c-0.157-0.194-0.361-0.344-0.612-0.451c-0.247-0.11-0.573-0.166-0.978-0.166H6.939v4.414h0.687c0.361,0,0.665-0.047,0.913-0.14
	c0.247-0.094,0.453-0.234,0.617-0.421c0.167-0.191,0.291-0.426,0.371-0.707C9.611,23.363,9.652,23.035,9.652,22.66z" fill="#006699"/><path d="M26.219,20.326c0-0.083-0.019-0.161-0.054-0.23c-0.019-0.047-0.043-0.086-0.074-0.116
	c-0.019-0.021-0.046-0.043-0.079-0.067c-0.012-0.009-0.024-0.017-0.036-0.025c-0.033-0.022-0.071-0.045-0.115-0.069
	c-0.111-0.062-0.251-0.119-0.421-0.171c-0.166-0.055-0.362-0.101-0.587-0.137c-0.225-0.039-0.475-0.059-0.749-0.059
	c-0.499,0-0.953,0.077-1.361,0.23c-0.405,0.153-0.75,0.375-1.038,0.666c-0.287,0.287-0.509,0.638-0.666,1.052
	c-0.157,0.411-0.235,0.876-0.235,1.395c0,0.503,0.073,0.953,0.22,1.351c0.147,0.395,0.359,0.731,0.636,1.008
	c0.277,0.274,0.615,0.485,1.013,0.631C23.076,25.928,23.53,26,24.036,26c0.173,0,0.344-0.008,0.514-0.024
	c0.173-0.016,0.343-0.041,0.509-0.073c0.17-0.033,0.333-0.072,0.49-0.118c0.157-0.046,0.287-0.09,0.392-0.132
	c0.108-0.042,0.178-0.1,0.21-0.171c0.036-0.075,0.054-0.161,0.054-0.259v-2.521c0-0.065-0.008-0.122-0.024-0.171
	c-0.016-0.052-0.041-0.096-0.073-0.132c-0.029-0.036-0.065-0.062-0.108-0.078c-0.039-0.019-0.085-0.029-0.137-0.029h-2.139
	c-0.007,0-0.015,0.001-0.022,0.002c-0.269,0.017-0.482,0.228-0.482,0.486c0,0.269,0.232,0.487,0.518,0.487c0.008,0,0.016,0,0.024,0
	h1.161v1.468c-0.121,0.065-0.251,0.114-0.392,0.147c-0.14,0.033-0.282,0.049-0.426,0.049c-0.294,0-0.563-0.047-0.808-0.142
	c-0.241-0.095-0.449-0.235-0.622-0.421c-0.173-0.186-0.308-0.416-0.406-0.69c-0.095-0.277-0.142-0.597-0.142-0.959
	c0-0.33,0.047-0.63,0.142-0.901c0.095-0.274,0.23-0.507,0.406-0.7c0.176-0.196,0.388-0.346,0.636-0.45
	c0.248-0.108,0.525-0.162,0.832-0.162c0.287,0,0.538,0.029,0.754,0.088c0.211,0.057,0.393,0.118,0.547,0.184
	c0.076,0.043,0.163,0.068,0.257,0.068C25.987,20.844,26.219,20.612,26.219,20.326z" fill-rule="evenodd" clip-rule="evenodd" fill="#006699"/><path d="M11.017,22.15c0,0.595-0.079,1.105-0.236,1.53c-0.154,0.421-0.376,0.766-0.667,1.033
	c-0.291,0.267-0.645,0.465-1.063,0.592c-0.415,0.124-0.909,0.186-1.485,0.186h-1.55c-0.11,0-0.204-0.032-0.281-0.095
	c-0.074-0.067-0.11-0.174-0.11-0.321v-5.657c0-0.147,0.037-0.253,0.11-0.316C5.812,19.033,5.906,19,6.016,19h1.665
	c0.578,0,1.068,0.069,1.47,0.206c0.405,0.134,0.744,0.334,1.018,0.602c0.278,0.264,0.488,0.592,0.632,0.983
	C10.945,21.182,11.017,21.635,11.017,22.15z M9.652,22.195c0-0.308-0.037-0.594-0.11-0.858c-0.07-0.264-0.186-0.493-0.346-0.687
	c-0.157-0.194-0.361-0.344-0.612-0.451c-0.247-0.11-0.573-0.166-0.978-0.166H6.939v4.414h0.687c0.361,0,0.665-0.047,0.913-0.14
	c0.247-0.094,0.453-0.234,0.617-0.421c0.167-0.191,0.291-0.426,0.371-0.707C9.611,22.897,9.652,22.569,9.652,22.195z" fill="#FFFFFF"/><path d="M26.219,19.861c0-0.083-0.019-0.161-0.054-0.23c-0.019-0.047-0.043-0.086-0.074-0.116
	c-0.019-0.021-0.046-0.043-0.079-0.067c-0.012-0.009-0.024-0.017-0.036-0.025c-0.033-0.022-0.071-0.045-0.115-0.069
	c-0.111-0.062-0.251-0.119-0.421-0.171c-0.166-0.056-0.362-0.101-0.587-0.137c-0.225-0.039-0.475-0.059-0.749-0.059
	c-0.499,0-0.953,0.077-1.361,0.23c-0.405,0.153-0.75,0.375-1.038,0.666c-0.287,0.287-0.509,0.638-0.666,1.052
	c-0.157,0.411-0.235,0.876-0.235,1.395c0,0.503,0.073,0.953,0.22,1.351c0.147,0.395,0.359,0.731,0.636,1.008
	c0.277,0.274,0.615,0.485,1.013,0.631c0.401,0.144,0.855,0.215,1.361,0.215c0.173,0,0.344-0.008,0.514-0.024
	c0.173-0.016,0.343-0.041,0.509-0.073c0.17-0.033,0.333-0.072,0.49-0.118c0.157-0.046,0.287-0.09,0.392-0.132
	c0.108-0.042,0.178-0.1,0.21-0.171c0.036-0.075,0.054-0.162,0.054-0.259v-2.521c0-0.065-0.008-0.122-0.024-0.171
	c-0.016-0.052-0.041-0.096-0.073-0.132c-0.029-0.036-0.065-0.062-0.108-0.078c-0.039-0.02-0.085-0.029-0.137-0.029h-2.139
	c-0.007,0-0.015,0.001-0.022,0.002c-0.269,0.017-0.482,0.228-0.482,0.486c0,0.269,0.232,0.487,0.518,0.487
	c0.008,0,0.016,0,0.024-0.001h1.161v1.468c-0.121,0.065-0.251,0.114-0.392,0.147c-0.14,0.033-0.282,0.049-0.426,0.049
	c-0.294,0-0.563-0.047-0.808-0.142c-0.241-0.095-0.449-0.235-0.622-0.421c-0.173-0.186-0.308-0.416-0.406-0.69
	c-0.095-0.277-0.142-0.597-0.142-0.959c0-0.33,0.047-0.63,0.142-0.901c0.095-0.274,0.23-0.507,0.406-0.7
	c0.176-0.196,0.388-0.346,0.636-0.45c0.248-0.108,0.525-0.162,0.832-0.162c0.287,0,0.538,0.029,0.754,0.088
	c0.211,0.057,0.393,0.118,0.547,0.184c0.076,0.043,0.163,0.068,0.257,0.068C25.987,20.378,26.219,20.146,26.219,19.861z" fill-rule="evenodd" clip-rule="evenodd" fill="#FFFFFF"/><path d="M9,1h1v5h3v2h15v1H13v3h-3v4H9v-4H7V9H4V8h3V6h2V1z" fill-rule="evenodd" clip-rule="evenodd" fill="#FFFFFF"/><rect x="8" y="7" width="4" height="4" fill="#2A5699"/><circle cx="10" cy="9" r="0.75" fill="#FFFFFF"/></svg>