<svg data-name="Layer 1" xmlns="http://www.w3.org/2000/svg" viewBox="0 0 32 32"><title>mime_folder_nonselectable32</title><path d="M1.5,27.5V6.513A2.009,2.009,0,0,1,3.5,4.5h7.9a2.14,2.14,0,0,1,1.319.473l3.668,3.238A1.006,1.006,0,0,0,17,8.5H27.5a2,2,0,0,1,2,2v17Z" fill="gray"/><path d="M11.4,5a1.638,1.638,0,0,1,1.009.364l3.648,3.222A1.526,1.526,0,0,0,17,9H27.5A1.5,1.5,0,0,1,29,10.5V27H2V6.513A1.511,1.511,0,0,1,3.5,5h7.9m0-1H3.5A2.509,2.509,0,0,0,1,6.513V28H30V10.5A2.5,2.5,0,0,0,27.5,8H17c-.027,0-.1-.024-.305-.183l-3.626-3.2-.02-.018-.021-.017A2.643,2.643,0,0,0,11.4,4Z" fill="#fff"/><path d="M3,26H28V12a1,1,0,0,0-1-1H4a1,1,0,0,0-1,1Z" fill="#adadad"/><polygon points="3 26 28 26 28 13 3 26" fill="#9a9a9a"/><path d="M29,17.29V27H16.37a8.088,8.088,0,0,1-.23-1A8.285,8.285,0,0,1,16,24.5,8.506,8.506,0,0,1,24.5,16a8.364,8.364,0,0,1,3.5.76A7.34,7.34,0,0,1,29,17.29Z" fill="#fff"/><g opacity="0.8"><circle cx="24.5" cy="24.5" r="6.5" fill="#fff"/></g><path d="M24.5,17A7.5,7.5,0,1,0,32,24.5,7.5,7.5,0,0,0,24.5,17Zm0,13a5.5,5.5,0,0,1-4.53-8.62l7.65,7.65A5.492,5.492,0,0,1,24.5,30Zm4.53-2.38-7.65-7.65a5.5,5.5,0,0,1,7.65,7.65Z" fill="#cd3632"/></svg>