<?xml version="1.0" encoding="utf-8"?>
<!-- Generator: Adobe Illustrator 19.2.0, SVG Export Plug-In . SVG Version: 6.00 Build 0)  -->
<!DOCTYPE svg PUBLIC "-//W3C//DTD SVG 1.1//EN" "http://www.w3.org/Graphics/SVG/1.1/DTD/svg11.dtd">
<svg version="1.1" id="Layer_1" xmlns="http://www.w3.org/2000/svg" xmlns:xlink="http://www.w3.org/1999/xlink" x="0px" y="0px"
	 viewBox="0 0 32 32" enable-background="new 0 0 32 32" xml:space="preserve">
<g id="Ppt">
</g>
<g id="Small_Folder">
</g>
<g id="fave_icon_-_selected">
</g>
<g id="Shortcut_1_">
</g>
<g id="comment_icon_-_selected">
</g>
<g id="Comment_icon">
</g>
<g>
	<path fill="#FFFFFF" d="M16,31.5c-0.706,0-2.054-1.339-2.411-2.268C7.344,27.933,2.5,21.75,2.5,15v-0.5H3
		c0.701,0,1.364,0.271,1.866,0.762c0.358,0.35,0.728,0.712,1.15,0.965l1.459,0.876c0.313,0.188,0.499,0.531,0.485,0.896
		S7.736,18.69,7.41,18.854l-0.958,0.479c1.542,3.413,4.688,4.611,7.245,4.993L14.215,12.5H12c-0.827,0-1.5-0.673-1.5-1.5
		s0.673-1.5,1.5-1.5h2.346l0.104-2.372C13.27,6.542,12.5,5.328,12.5,4c0-1.93,1.57-3.5,3.5-3.5s3.5,1.57,3.5,3.5
		c0,1.328-0.77,2.542-1.95,3.128L17.654,9.5H20c0.827,0,1.5,0.673,1.5,1.5s-0.673,1.5-1.5,1.5h-2.215l0.518,11.826
		c2.557-0.382,5.704-1.581,7.252-4.993l-0.968-0.479c-0.326-0.163-0.537-0.49-0.551-0.854c-0.014-0.364,0.171-0.707,0.484-0.895
		l0.141-0.084c0.818-0.491,1.746-1.048,2.472-1.759C27.636,14.771,28.299,14.5,29,14.5h0.5V15c0,6.754-4.851,12.94-11.102,14.234
		C18.025,30.19,16.698,31.5,16,31.5z M16,3.5c-0.276,0-0.5,0.225-0.5,0.5s0.224,0.5,0.5,0.5s0.5-0.225,0.5-0.5S16.276,3.5,16,3.5z"
		/>
	<path fill="#FFFFFF" d="M16,1c1.657,0,3,1.343,3,3c0,1.291-0.82,2.383-1.965,2.805L17.175,10H20c0.55,0,1,0.45,1,1s-0.45,1-1,1
		h-2.737l0.565,12.893c3.654-0.407,6.696-2.078,8.183-5.352c0.111-0.244,0-0.535-0.239-0.654l-0.96-0.48
		c-0.352-0.176-0.371-0.67-0.034-0.873l0.14-0.084c0.902-0.541,1.813-1.094,2.565-1.829C27.877,15.234,28.414,15,29,15
		c0,6.498-4.773,12.684-11.001,13.803L18,28.826C18,29.424,16.55,31,16,31s-2-1.576-2-2.174l0.001-0.023C7.773,27.684,3,21.498,3,15
		c0.586,0,1.123,0.234,1.517,0.62c0.388,0.379,0.777,0.757,1.242,1.036l1.459,0.876c0.338,0.203,0.319,0.7-0.034,0.876l-0.957,0.478
		c-0.239,0.12-0.35,0.411-0.239,0.654c1.487,3.274,4.529,4.946,8.183,5.353L14.737,12H12c-0.55,0-1-0.45-1-1s0.45-1,1-1h2.825
		l0.14-3.195C13.82,6.383,13,5.291,13,4C13,2.343,14.343,1,16,1 M16,5c0.551,0,1-0.449,1-1s-0.449-1-1-1s-1,0.449-1,1S15.449,5,16,5
		 M16,0c-2.206,0-4,1.794-4,4c0,1.406,0.755,2.701,1.937,3.415L13.868,9H12c-1.103,0-2,0.897-2,2s0.897,2,2,2h1.692l-0.47,10.738
		c-2.198-0.426-4.707-1.522-6.109-4.176l0.52-0.26c0.49-0.245,0.807-0.737,0.828-1.284c0.021-0.547-0.258-1.062-0.727-1.344
		l-1.459-0.876c-0.373-0.224-0.721-0.564-1.058-0.894C4.62,14.321,3.833,14,3,14H2v1c0,6.894,4.896,13.218,11.25,14.67
		C13.79,30.735,15.089,32,16,32s2.21-1.265,2.75-2.33C25.104,28.218,30,21.894,30,15v-1h-1c-0.833,0-1.62,0.321-2.216,0.905
		c-0.685,0.67-1.586,1.21-2.38,1.687l-0.14,0.084c-0.469,0.281-0.747,0.795-0.726,1.342c0.021,0.547,0.338,1.038,0.827,1.283
		l0.523,0.261c-1.402,2.654-3.911,3.75-6.109,4.176L18.308,13H20c1.103,0,2-0.897,2-2s-0.897-2-2-2h-1.868l-0.069-1.585
		C19.245,6.701,20,5.406,20,4C20,1.794,18.206,0,16,0L16,0z"/>
</g>
<g>
	<path fill="#188FE0" d="M15,4c0-0.551,0.449-1,1-1V1c-1.657,0-3,1.343-3,3c0,1.291,0.82,2.383,1.965,2.805L14.825,10H12
		c-0.55,0-1,0.45-1,1s0.45,1,1,1h2.737l-0.565,12.893c-3.654-0.407-6.696-2.078-8.183-5.353c-0.111-0.244,0-0.535,0.239-0.654
		l0.957-0.478c0.353-0.176,0.372-0.673,0.034-0.876L5.76,16.656c-0.465-0.279-0.854-0.657-1.242-1.036C4.123,15.234,3.586,15,3,15
		c0,6.498,4.773,12.684,11.001,13.803L14,28.826C14,29.424,15.45,31,16,31V5C15.449,5,15,4.551,15,4z"/>
	<path fill="#006190" d="M18,28.826l-0.001-0.023C24.227,27.684,29,21.498,29,15c-0.586,0-1.123,0.234-1.517,0.62
		c-0.752,0.735-1.663,1.288-2.565,1.829l-0.14,0.084c-0.337,0.202-0.318,0.697,0.034,0.873l0.96,0.48
		c0.239,0.12,0.35,0.411,0.239,0.654c-1.487,3.274-4.529,4.946-8.183,5.352L17.263,12H20c0.55,0,1-0.45,1-1s-0.45-1-1-1h-2.825
		l-0.14-3.195C18.18,6.383,19,5.291,19,4c0-1.657-1.343-3-3-3v2c0.551,0,1,0.449,1,1s-0.449,1-1,1v26C16.55,31,18,29.424,18,28.826z
		"/>
</g>
<g>
	<path fill="#188FE0" d="M16,3c0.551,0,1,0.449,1,1s-0.449,1-1,1s-1-0.449-1-1S15.449,3,16,3 M16,1c-1.657,0-3,1.343-3,3
		s1.343,3,3,3s3-1.343,3-3S17.657,1,16,1L16,1z"/>
</g>
</svg>
