<?xml version="1.0" encoding="utf-8"?>
<!-- Generator: Adobe Illustrator 19.1.0, SVG Export Plug-In . SVG Version: 6.00 Build 0)  -->
<svg version="1.1" xmlns="http://www.w3.org/2000/svg" xmlns:xlink="http://www.w3.org/1999/xlink" x="0px" y="0px"
	 viewBox="0 0 32 32" enable-background="new 0 0 32 32" xml:space="preserve">
<g id="Layer_2">
</g>
<g id="Layer_1">
	<g>
		<g>
			<g>
				<g>
					<path fill="#0071C5" d="M7,31.5c-1.93,0-3.5-1.57-3.5-3.5V4c0-1.93,1.57-3.5,3.5-3.5h15.207L28.5,6.793V28
						c0,1.93-1.57,3.5-3.5,3.5H7z"/>
					<path fill="#FFFFFF" d="M22,1l6,6v21c0,1.657-1.343,3-3,3H7c-1.657,0-3-1.343-3-3V4c0-1.657,1.343-3,3-3H22 M22.414,0H22H7
						C4.794,0,3,1.794,3,4v24c0,2.206,1.794,4,4,4h18c2.206,0,4-1.794,4-4V7V6.586l-0.293-0.293l-6-6L22.414,0L22.414,0z"/>
				</g>
			</g>
			<polygon fill="#005B93" points="22,1 22,7 28,7 			"/>
		</g>
	</g>
	<g>
		<path fill="#005B93" d="M20.717,22.775h-9.434c-0.724,0-1.312-0.588-1.312-1.312v-9.433c0-0.723,0.588-1.312,1.312-1.312h9.434
			c0.724,0,1.312,0.588,1.312,1.312v9.433C22.028,22.187,21.44,22.775,20.717,22.775z M11.283,11.719
			c-0.169,0-0.312,0.143-0.312,0.312v9.433c0,0.169,0.143,0.312,0.312,0.312h9.434c0.169,0,0.312-0.143,0.312-0.312v-9.433
			c0-0.169-0.143-0.312-0.312-0.312H11.283z"/>
		<path fill="#005B93" d="M16,25.962c-0.553,0-1-0.448-1-1V9.038c0-0.552,0.447-1,1-1s1,0.448,1,1v15.925
			C17,25.515,16.553,25.962,16,25.962z"/>
		<path fill="#005B93" d="M23.058,18H8.942c-0.553,0-1-0.448-1-1s0.447-1,1-1h14.115c0.553,0,1,0.448,1,1S23.61,18,23.058,18z"/>
	</g>
	<g>
		<path fill="#FFFFFF" d="M20.717,21.775h-9.434c-0.724,0-1.312-0.588-1.312-1.312v-9.433c0-0.723,0.588-1.312,1.312-1.312h9.434
			c0.724,0,1.312,0.588,1.312,1.312v9.433C22.028,21.187,21.44,21.775,20.717,21.775z M11.283,10.719
			c-0.169,0-0.312,0.143-0.312,0.312v9.433c0,0.169,0.143,0.312,0.312,0.312h9.434c0.169,0,0.312-0.143,0.312-0.312v-9.433
			c0-0.169-0.143-0.312-0.312-0.312H11.283z"/>
		<path fill="#FFFFFF" d="M16,24.962c-0.553,0-1-0.448-1-1V8.038c0-0.552,0.447-1,1-1s1,0.448,1,1v15.925
			C17,24.515,16.553,24.962,16,24.962z"/>
		<path fill="#FFFFFF" d="M23.058,17H8.942c-0.553,0-1-0.448-1-1s0.447-1,1-1h14.115c0.553,0,1,0.448,1,1S23.61,17,23.058,17z"/>
	</g>
</g>
<g id="Layer_3">
</g>
<g id="Layer_4">
</g>
<g id="Layer_5">
</g>
<g id="Layer_7">
</g>
</svg>
