<svg data-name="Layer 2" xmlns="http://www.w3.org/2000/svg" viewBox="0 0 32 32"><title>mime</title><path d="M7,31.5A3.5,3.5,0,0,1,3.5,28V4A3.5,3.5,0,0,1,7,.5H22.207L28.5,6.793V28A3.5,3.5,0,0,1,25,31.5H7Z" fill="#fff"/><path d="M22,1l6,6V28a3,3,0,0,1-3,3H7a3,3,0,0,1-3-3V4A3,3,0,0,1,7,1H22m0.414-1H7A4,4,0,0,0,3,4V28a4,4,0,0,0,4,4H25a4,4,0,0,0,4-4V6.586l-0.293-.293-6-6L22.414,0h0Z" fill="#627784"/><polygon points="22 1 22 7 28 7 22 1" fill="#e0e4e6"/><path d="M14.5,13.016H7.529a0.5,0.5,0,0,1,0-1H14.5A0.5,0.5,0,0,1,14.5,13.016Z" fill="#e0e4e6"/><path d="M14.5,12.016H7.529a0.5,0.5,0,0,1,0-1H14.5A0.5,0.5,0,0,1,14.5,12.016Z" fill="#627784"/><path d="M14.5,15.01H7.529a0.5,0.5,0,0,1,0-1H14.5A0.5,0.5,0,1,1,14.5,15.01Z" fill="#627784"/><path d="M14.5,19H7.529a0.5,0.5,0,1,1,0-1H14.5A0.5,0.5,0,0,1,14.5,19Z" fill="#e0e4e6"/><path d="M14.5,18H7.529a0.5,0.5,0,1,1,0-1H14.5A0.5,0.5,0,0,1,14.5,18Z" fill="#627784"/><path d="M19,8.01H8.044a1,1,0,0,1,0-2H19A1,1,0,1,1,19,8.01Z" fill="#e0e4e6"/><path d="M19,7.01H8.044a1,1,0,1,1,0-2H19A1,1,0,0,1,19,7.01Z" fill="#627784"/><rect x="17.025" y="11.881" width="7.979" height="7.125" rx="1" ry="1" fill="#e0e4e6"/><rect x="17.025" y="11.006" width="7.979" height="6.994" rx="1" ry="1" fill="#627784"/><path d="M14.5,16H7.523a0.5,0.5,0,0,1,0-1H14.5A0.5,0.5,0,0,1,14.5,16Z" fill="#e0e4e6"/><path d="M14.5,22.005H7.529a0.5,0.5,0,0,1,0-1H14.5A0.5,0.5,0,1,1,14.5,22.005Z" fill="#e0e4e6"/><path d="M14.5,21.005H7.529a0.5,0.5,0,0,1,0-1H14.5A0.5,0.5,0,1,1,14.5,21.005Z" fill="#627784"/><path d="M14.5,27.995H7.529a0.5,0.5,0,1,1,0-1H14.5A0.5,0.5,0,0,1,14.5,27.995Z" fill="#e0e4e6"/><path d="M14.5,27H7.529a0.5,0.5,0,1,1,0-1H14.5A0.5,0.5,0,0,1,14.5,27Z" fill="#627784"/><path d="M14.5,24H7.529a0.5,0.5,0,0,1,0-1H14.5A0.5,0.5,0,1,1,14.5,24Z" fill="#627784"/><path d="M14.5,24.994H7.523a0.5,0.5,0,1,1,0-1H14.5A0.5,0.5,0,0,1,14.5,24.994Z" fill="#e0e4e6"/><path d="M24.5,22.005H17.529a0.5,0.5,0,0,1,0-1H24.5A0.5,0.5,0,0,1,24.5,22.005Z" fill="#e0e4e6"/><path d="M24.5,21.005H17.529a0.5,0.5,0,0,1,0-1H24.5A0.5,0.5,0,0,1,24.5,21.005Z" fill="#627784"/><path d="M24.5,27.995H17.529a0.5,0.5,0,1,1,0-1H24.5A0.5,0.5,0,1,1,24.5,27.995Z" fill="#e0e4e6"/><path d="M24.5,27H17.529a0.5,0.5,0,1,1,0-1H24.5A0.5,0.5,0,1,1,24.5,27Z" fill="#627784"/><path d="M24.5,24H17.529a0.5,0.5,0,0,1,0-1H24.5A0.5,0.5,0,0,1,24.5,24Z" fill="#627784"/><path d="M24.5,24.994H17.523a0.5,0.5,0,0,1,0-1H24.5A0.5,0.5,0,0,1,24.5,24.994Z" fill="#e0e4e6"/></svg>