<svg version="1.1" xmlns="http://www.w3.org/2000/svg" xmlns:xlink="http://www.w3.org/1999/xlink" x="0px" y="0px" viewBox="0 0 32 32" style="enable-background:new 0 0 32 32;" xml:space="preserve"><path d="M22.057,2.333H9C8.632,2.333,8.333,2.632,8.333,3v26c0,0.368,0.298,0.667,0.667,0.667h19.333
	C28.701,29.667,29,29.368,29,29V9.276c0-0.177-0.07-0.346-0.195-0.471l-6.276-6.276C22.404,2.404,22.234,2.333,22.057,2.333z" fill="#FFFFFF" stroke="#979593" stroke-miterlimit="10"/><path d="M22.333,2.333v6C22.333,8.702,22.632,9,23,9h6" fill="none" stroke="#979593" stroke-miterlimit="10"/><path d="M26.333,14H15c-0.184,0-0.333-0.149-0.333-0.333c0-0.184,0.149-0.333,0.333-0.333h11.333
	c0.184,0,0.333,0.149,0.333,0.333C26.667,13.851,26.517,14,26.333,14z" fill="#C8C6C4"/><path d="M26.333,16H15c-0.184,0-0.333-0.149-0.333-0.333c0-0.184,0.149-0.333,0.333-0.333h11.333
	c0.184,0,0.333,0.149,0.333,0.333C26.667,15.851,26.517,16,26.333,16z" fill="#C8C6C4"/><path d="M26.333,18H15c-0.184,0-0.333-0.149-0.333-0.333c0-0.184,0.149-0.333,0.333-0.333h11.333
	c0.184,0,0.333,0.149,0.333,0.333C26.667,17.851,26.517,18,26.333,18z" fill="#C8C6C4"/><path d="M26.333,20H15c-0.184,0-0.333-0.149-0.333-0.333c0-0.184,0.149-0.333,0.333-0.333h11.333
	c0.184,0,0.333,0.149,0.333,0.333C26.667,19.851,26.517,20,26.333,20z" fill="#C8C6C4"/><path d="M26.333,22H15c-0.184,0-0.333-0.149-0.333-0.333c0-0.184,0.149-0.333,0.333-0.333h11.333
	c0.184,0,0.333,0.149,0.333,0.333C26.667,21.851,26.517,22,26.333,22z" fill="#C8C6C4"/><path d="M4,24.667h12c0.736,0,1.333-0.597,1.333-1.333v-12C17.333,10.597,16.736,10,16,10H4
	c-0.736,0-1.333,0.597-1.333,1.333v12C2.667,24.07,3.264,24.667,4,24.667z" fill="#185ABD"/><path d="M7.886,19.548c0.022,0.174,0.036,0.326,0.043,0.455h0.025c0.01-0.123,0.03-0.271,0.058-0.445
	c0.029-0.174,0.057-0.32,0.084-0.44L9.281,14h1.53l1.224,5.042c0.061,0.249,0.112,0.566,0.153,0.951h0.02
	c0.017-0.266,0.059-0.573,0.127-0.92L13.315,14h1.392l-1.714,7.333h-1.627l-1.168-4.858c-0.034-0.14-0.072-0.323-0.115-0.547
	c-0.043-0.225-0.069-0.389-0.079-0.491h-0.02c-0.014,0.12-0.04,0.297-0.079,0.532c-0.039,0.236-0.071,0.409-0.095,0.522
	l-1.096,4.842H7.062L5.333,14h1.418l1.066,5.13C7.841,19.235,7.864,19.375,7.886,19.548z" fill="#F9F7F7"/></svg>