<svg data-name="Layer 2" xmlns="http://www.w3.org/2000/svg" viewBox="0 0 32 32"><title>mime</title><path d="M24.965,18.246a8.909,8.909,0,0,0-.4-2.346,2.6,2.6,0,0,0-1.539-1.645,10.138,10.138,0,0,0-2.278-.623,7.891,7.891,0,0,1-1.594-.409,1.589,1.589,0,0,1-.572-0.435,1.988,1.988,0,0,1-.236-0.359,4.309,4.309,0,0,0,.916-1.048,6.17,6.17,0,0,0,.778-2.009A0.917,0.917,0,0,0,20.509,9a2.1,2.1,0,0,0,.326-0.822A1.792,1.792,0,0,0,20.7,7q0.023-.089.041-0.182a5.465,5.465,0,0,0,.077-1.341,8.674,8.674,0,0,0-.229-1.562,3.689,3.689,0,0,0-1.491-2,5.519,5.519,0,0,0-6.188,0,3.689,3.689,0,0,0-1.491,2,8.67,8.67,0,0,0-.233,1.563,5.448,5.448,0,0,0,.075,1.341Q11.279,6.91,11.3,7a1.786,1.786,0,0,0-.138,1.179A2.091,2.091,0,0,0,11.491,9a0.912,0.912,0,0,0,.474.373,6.169,6.169,0,0,0,.778,2.008,4.306,4.306,0,0,0,.919,1.051,1.987,1.987,0,0,1-.234.355,1.59,1.59,0,0,1-.572.435,7.89,7.89,0,0,1-1.594.409,10.137,10.137,0,0,0-2.278.623A2.6,2.6,0,0,0,7.445,15.9a8.84,8.84,0,0,0-.4,2.314,1.876,1.876,0,0,0-.052.425v0.907c0,0.013,0,.026,0,0.039a1.9,1.9,0,0,0,1.895,1.86H23.109a1.9,1.9,0,0,0,1.9-1.9V18.638A1.885,1.885,0,0,0,24.965,18.246Z" fill="#3c4549"/><path d="M23.108,21.928H8.891a2.4,2.4,0,0,1-2.379-2.334l0-.956A2.281,2.281,0,0,1,6.573,18.1a8.766,8.766,0,0,1,.408-2.34,3.1,3.1,0,0,1,1.8-1.948,10.475,10.475,0,0,1,2.39-.658,7.7,7.7,0,0,0,1.487-.375,1.111,1.111,0,0,0,.369-0.271,4.909,4.909,0,0,1-.693-0.87,6.546,6.546,0,0,1-.788-1.927,1.537,1.537,0,0,1-.45-0.434,2.568,2.568,0,0,1-.411-1.018,2.408,2.408,0,0,1,.106-1.323l-0.006-.03A5.856,5.856,0,0,1,10.7,5.451,9.117,9.117,0,0,1,10.949,3.8,4.176,4.176,0,0,1,12.63,1.525a6,6,0,0,1,6.748,0A4.167,4.167,0,0,1,21.059,3.8h0A9.1,9.1,0,0,1,21.3,5.452a5.911,5.911,0,0,1-.085,1.46l-0.007.031a2.407,2.407,0,0,1,.1,1.317A2.581,2.581,0,0,1,20.9,9.277a1.54,1.54,0,0,1-.448.433,6.485,6.485,0,0,1-.788,1.929,4.923,4.923,0,0,1-.691.869,1.09,1.09,0,0,0,.373.274,7.681,7.681,0,0,0,1.485.375,10.428,10.428,0,0,1,2.389.658,3.091,3.091,0,0,1,1.8,1.948,9.246,9.246,0,0,1,.419,2.418,2.342,2.342,0,0,1,.046.458v0.907A2.386,2.386,0,0,1,23.108,21.928ZM16,1.455a4.789,4.789,0,0,0-2.813.86,3.206,3.206,0,0,0-1.3,1.719A8.318,8.318,0,0,0,11.67,5.5a4.939,4.939,0,0,0,.066,1.22c0.01,0.055.021,0.1,0.033,0.149L11.82,7.069l-0.1.173a1.319,1.319,0,0,0-.079.848,1.6,1.6,0,0,0,.247.628,0.47,0.47,0,0,0,.21.189l0.282,0.079,0.061,0.287a5.734,5.734,0,0,0,.715,1.852,3.859,3.859,0,0,0,.815.934l0.3,0.25-0.182.349a2.385,2.385,0,0,1-.294.443,2.069,2.069,0,0,1-.743.566,8.276,8.276,0,0,1-1.7.443,9.8,9.8,0,0,0-2.17.586A2.117,2.117,0,0,0,7.91,16.037a8.44,8.44,0,0,0-.382,2.211,1.949,1.949,0,0,0-.051.391v0.907a1.432,1.432,0,0,0,1.414,1.414H23.108a1.416,1.416,0,0,0,1.415-1.414V18.638a1.418,1.418,0,0,0-.032-0.293l-0.009-.066a8.42,8.42,0,0,0-.384-2.242,2.114,2.114,0,0,0-1.277-1.342,9.767,9.767,0,0,0-2.166-.586,8.238,8.238,0,0,1-1.7-.443,2.066,2.066,0,0,1-.747-0.568,2.444,2.444,0,0,1-.292-0.443l-0.184-.349,0.3-.251a3.843,3.843,0,0,0,.813-0.932,5.709,5.709,0,0,0,.714-1.852l0.061-.285L19.9,8.907a0.478,0.478,0,0,0,.21-0.188,1.635,1.635,0,0,0,.245-0.628,1.318,1.318,0,0,0-.079-0.847l-0.1-.171,0.085-.348A5.049,5.049,0,0,0,20.334,5.5a8.224,8.224,0,0,0-.213-1.46,3.2,3.2,0,0,0-1.3-1.727A4.8,4.8,0,0,0,16,1.455Z" fill="#fff"/><path d="M29.621,19.014H2.379a0.911,0.911,0,0,0-.908.908s0.921,3.359.943,3.438a0.912,0.912,0,0,0,.873.66H6.969v6.011A1.484,1.484,0,0,0,8.4,31H24.016a0.971,0.971,0,0,0,.969-0.969V24.02h3.728a0.912,0.912,0,0,0,.9-0.759c0.008-.048.921-3.339,0.921-3.339A0.911,0.911,0,0,0,29.621,19.014Z" fill="#fff"/><path d="M29.621,19.014a0.911,0.911,0,0,1,.908.908s-0.913,3.29-.921,3.339a0.912,0.912,0,0,1-.9.759H24.984v6.011a0.971,0.971,0,0,1-.969.969H8.4a1.484,1.484,0,0,1-1.434-.969V24.02H3.288a0.912,0.912,0,0,1-.873-0.66c-0.023-.079-0.943-3.438-0.943-3.438a0.911,0.911,0,0,1,.908-0.908H29.621m0-1H2.379A1.91,1.91,0,0,0,.471,19.922v0.119L0.5,20.158c0.926,3.821.947,3.453,0.954,3.477A1.917,1.917,0,0,0,3.288,25.02H5.969v5.011a2,2,0,0,0,2,1.969H24.016a1.971,1.971,0,0,0,1.969-1.969V25.02h2.728a1.9,1.9,0,0,0,1.882-1.594c0.035-.149.906-3.266,0.906-3.266l0.029-.117v-0.12a1.91,1.91,0,0,0-1.908-1.908h0Z" fill="#fff"/><path d="M6.469,24.525v0H3.288A1.417,1.417,0,0,1,1.934,23.5C1.911,23.419.971,19.99,0.971,19.99V19.922a1.41,1.41,0,0,1,1.408-1.408H29.621a1.41,1.41,0,0,1,1.408,1.408V19.99l-0.019.065s-0.876,3.158-.917,3.32a1.392,1.392,0,0,1-1.382,1.144H25.484l-0.5,0H6.469Z" fill="#c57c15"/><path d="M29.621,19.014a0.911,0.911,0,0,1,.908.908s-0.913,3.291-.921,3.339a0.912,0.912,0,0,1-.9.759H24.984v0H6.969v0H3.288a0.912,0.912,0,0,1-.873-0.66c-0.023-.079-0.943-3.438-0.943-3.438a0.911,0.911,0,0,1,.908-0.908H29.621m0-1H2.379A1.91,1.91,0,0,0,.471,19.922v0.135l0.036,0.13s0.924,3.369.946,3.448A1.917,1.917,0,0,0,3.288,25.02H5.969l1,0H25.984v0h2.728a1.9,1.9,0,0,0,1.873-1.546c0.069-.261.573-2.08,0.907-3.285l0.036-.131V19.922a1.91,1.91,0,0,0-1.908-1.908h0Z" fill="#fff"/><path d="M6.969,30.031A0.98,0.98,0,0,0,7.948,31H24.016a0.971,0.971,0,0,0,.969-0.969V24.025H6.969v6.007Z" fill="#b26602"/></svg>