<svg width="20" height="20" viewBox="0 0 20 20" fill="none" xmlns="http://www.w3.org/2000/svg">
<path d="M20 10C20 15.5 15.5 20 10 20C4.5 20 0 15.5 0 10C0 4.5 4.5 0 10 0C15.5 0 20 4.5 20 10Z" fill="#DF6800"/>
<path d="M10 15.9167C10.5983 15.9167 11.0833 15.4316 11.0833 14.8333C11.0833 14.235 10.5983 13.75 10 13.75C9.4017 13.75 8.91667 14.235 8.91667 14.8333C8.91667 15.4316 9.4017 15.9167 10 15.9167Z" fill="white"/>
<path d="M9 10.9166V4.41659C9 3.83325 9.41667 3.33325 10 3.33325C10.5833 3.33325 11.0833 3.83325 11.0833 4.41659V10.9166C11.0833 11.4999 10.5833 11.9999 10 11.9999C9.41667 11.9166 9 11.4999 9 10.9166Z" fill="white"/>
</svg>
