<?xml version="1.0" encoding="UTF-8" standalone="no"?><!DOCTYPE svg PUBLIC "-//W3C//DTD SVG 1.1//EN" "http://www.w3.org/Graphics/SVG/1.1/DTD/svg11.dtd"><svg width="100%" height="100%" viewBox="0 0 32 32" version="1.1" xmlns="http://www.w3.org/2000/svg" xmlns:xlink="http://www.w3.org/1999/xlink" xml:space="preserve" xmlns:serif="http://www.serif.com/" style="fill-rule:evenodd;clip-rule:evenodd;stroke-linejoin:round;stroke-miterlimit:2;"><path d="M31.91,18.33c-0.165,-0.6 -0.565,-1.109 -1.11,-1.41l-11.96,-6.73c0.333,-1.003 0.357,-2.083 0.07,-3.1c-0.388,-1.377 -1.31,-2.544 -2.56,-3.24l-0.32,-0.18c-0.506,-0.284 -1.058,-0.481 -1.63,-0.58l-0.26,-0.26c-2.516,-2.425 -6.554,-2.425 -9.07,0l-2.19,2.19c-1.203,1.202 -1.88,2.834 -1.88,4.535c0,1.701 0.677,3.333 1.88,4.535l0.32,0.32c1.878,1.87 4.731,2.393 7.15,1.31c0.367,-0.168 0.719,-0.369 1.05,-0.6l1.04,1.04l0.01,0l4.12,4.12l-1.45,1.44c-1.033,1.042 -1.033,2.748 0,3.79c0.501,0.493 1.177,0.77 1.88,0.77c0.268,0.001 0.534,-0.04 0.79,-0.12c-0.08,0.256 -0.121,0.522 -0.12,0.79c0,0.004 0,0.007 0,0.011c0,1.458 1.2,2.659 2.659,2.659c0.71,0 1.392,-0.285 1.891,-0.79l1.46,-1.46c1.054,0.84 2.588,0.753 3.54,-0.2c1.024,-1.028 1.033,-2.711 0.02,-3.75c0.382,-0.209 0.697,-0.52 0.91,-0.9l0.74,-1.32c0.242,0.08 0.495,0.12 0.75,0.12c0.217,0 0.432,-0.03 0.64,-0.09c0.602,-0.167 1.113,-0.567 1.42,-1.11c0.307,-0.544 0.383,-1.19 0.21,-1.79Zm-21.22,-9.89l-2.19,2.2c-0.211,0.19 -0.486,0.294 -0.77,0.29c-0.281,0.007 -0.555,-0.097 -0.76,-0.29l-0.23,-0.23l-0.09,-0.09c-0.197,-0.204 -0.309,-0.476 -0.31,-0.76c-0.002,-0.287 0.109,-0.564 0.31,-0.77l0.7,-0.7l1.49,-1.49c0.202,-0.205 0.478,-0.32 0.765,-0.32c0.287,0 0.563,0.115 0.765,0.32l0.32,0.32c0.203,0.201 0.319,0.474 0.32,0.76c0.001,0.286 -0.114,0.561 -0.32,0.76Zm10.53,8.96l-1.06,-1.06l1.26,0.71l-0.2,0.35Z" style="fill:#fff;fill-rule:nonzero;"/><path d="M30.31,17.79l-12.73,-7.16c0.538,-1.002 0.671,-2.173 0.37,-3.27c-0.317,-1.123 -1.07,-2.074 -2.09,-2.64l-0.32,-0.18c-0.803,-0.447 -1.728,-0.626 -2.64,-0.51c0.929,0.987 1.445,2.294 1.44,3.65c-0.005,1.396 -0.55,2.736 -1.52,3.74l2.6,2.6c0.325,-0.302 0.604,-0.649 0.83,-1.03l6.54,3.68l-1.22,2.15c-0.235,0.419 -0.235,0.931 0,1.35c0.119,0.214 0.296,0.391 0.51,0.51c0.651,0.36 1.482,0.126 1.85,-0.52l1.22,-2.17l0.97,0.55l-1.21,2.16c-0.364,0.65 -0.13,1.485 0.52,1.85c0.203,0.118 0.434,0.18 0.669,0.18c0.488,0 0.939,-0.269 1.171,-0.7l1.22,-2.15l0.49,0.27c0.315,0.172 0.684,0.215 1.03,0.12c0.345,-0.1 0.639,-0.329 0.82,-0.64c0.359,-0.648 0.125,-1.476 -0.52,-1.84Z" style="fill:#b3850d;fill-rule:nonzero;"/><path d="M20.338,29.118c-1.186,-0.008 -2.158,-0.987 -2.158,-2.173c0,-0.571 0.225,-1.12 0.627,-1.527l1.794,-1.8l-0.264,-0.264l-1.8,1.8c-0.841,0.837 -2.221,0.837 -3.062,0c-0.84,-0.843 -0.84,-2.228 0,-3.071l1.8,-1.795l-5.829,-5.829c-2.333,1.897 -5.761,1.724 -7.89,-0.4l-0.32,-0.319c-1.11,-1.107 -1.735,-2.611 -1.735,-4.179c0,-1.568 0.625,-3.072 1.735,-4.179l2.19,-2.197c2.319,-2.232 6.039,-2.232 8.358,0l0.32,0.32c2.138,2.122 2.312,5.563 0.4,7.891l12.362,12.357c0.405,0.406 0.633,0.957 0.633,1.53c0,1.189 -0.978,2.167 -2.166,2.167c-0.575,0 -1.127,-0.229 -1.533,-0.636l-0.133,-0.133l-1.8,1.8c-0.404,0.408 -0.955,0.637 -1.529,0.637Zm-10.728,-23.335c-0.421,-0.002 -0.826,0.165 -1.123,0.463l-2.187,2.19c-0.613,0.613 -0.613,1.622 0,2.235l0.32,0.32c0.625,0.585 1.61,0.585 2.235,0l2.188,-2.2c0.297,-0.294 0.464,-0.696 0.464,-1.113c0,-0.418 -0.167,-0.82 -0.464,-1.114l-0.32,-0.32c-0.294,-0.296 -0.695,-0.462 -1.113,-0.461Z" style="fill:#775909;fill-rule:nonzero;"/><path d="M9.61,2c1.426,-0.012 2.8,0.541 3.82,1.538l0.32,0.32c2.078,2.06 2.11,5.459 0.072,7.558l12.69,12.69c0.295,0.31 0.46,0.721 0.46,1.149c0,0.913 -0.752,1.665 -1.665,1.665c-0.428,0 -0.839,-0.165 -1.149,-0.46l-0.485,-0.485l-2.158,2.148c-0.31,0.317 -0.734,0.497 -1.177,0.5c-0.444,-0.001 -0.868,-0.181 -1.177,-0.5c-0.312,-0.312 -0.488,-0.736 -0.488,-1.177c0,-0.441 0.176,-0.865 0.488,-1.177l2.148,-2.158l-0.971,-0.971l-2.158,2.16c-0.313,0.311 -0.736,0.486 -1.177,0.486c-0.915,0 -1.668,-0.753 -1.668,-1.669c0,-0.443 0.177,-0.869 0.491,-1.182l2.158,-2.147l-6.515,-6.515c-2.106,2.024 -5.492,1.992 -7.559,-0.073l-0.32,-0.32c-1.017,-1.013 -1.589,-2.39 -1.589,-3.826c0,-1.435 0.572,-2.812 1.589,-3.825l2.189,-2.191c1.023,-0.998 2.401,-1.552 3.831,-1.538m-1.879,9.933c0.55,0.006 1.081,-0.206 1.477,-0.589l2.189,-2.2c0.39,-0.388 0.609,-0.916 0.609,-1.466c0,-0.55 -0.219,-1.078 -0.609,-1.466l-0.32,-0.32c-0.807,-0.807 -2.136,-0.807 -2.943,0l-2.19,2.19c-0.39,0.39 -0.61,0.92 -0.61,1.471c0,0.552 0.22,1.082 0.61,1.472l0.32,0.32c0.391,0.382 0.919,0.594 1.466,0.589m1.88,-10.934c-1.694,-0.011 -3.326,0.648 -4.538,1.831l-2.189,2.189c-1.204,1.2 -1.882,2.832 -1.882,4.532c0,1.701 0.678,3.333 1.882,4.533l0.32,0.32c2.189,2.188 5.667,2.49 8.2,0.712l5.166,5.166l-1.447,1.44c-0.503,0.5 -0.786,1.181 -0.786,1.891c0,1.463 1.204,2.667 2.667,2.667c0.267,0 0.532,-0.04 0.787,-0.119c-0.077,0.253 -0.116,0.517 -0.116,0.782c0,0.005 0,0.009 0,0.014c0,1.458 1.2,2.659 2.659,2.659c0.71,0 1.391,-0.284 1.89,-0.789l1.462,-1.455c0.468,0.366 1.046,0.565 1.641,0.565c1.461,0 2.664,-1.202 2.664,-2.664c0,-0.701 -0.277,-1.375 -0.771,-1.874l-12.049,-12.05c1.791,-2.53 1.487,-6.017 -0.713,-8.2l-0.32,-0.32c-1.209,-1.181 -2.837,-1.839 -4.527,-1.83Zm-1.879,9.933c-0.283,0.004 -0.555,-0.104 -0.759,-0.3l-0.32,-0.32c-0.202,-0.201 -0.316,-0.474 -0.316,-0.759c-0.002,-0.288 0.112,-0.565 0.316,-0.769l2.188,-2.185c0.204,-0.204 0.481,-0.318 0.769,-0.316c0.285,0 0.558,0.114 0.759,0.316l0.32,0.32c0.202,0.201 0.316,0.474 0.316,0.759c0.002,0.285 -0.112,0.559 -0.316,0.759l-2.19,2.2c-0.208,0.194 -0.484,0.299 -0.768,0.294l0.001,0.001Z" style="fill:#fff;fill-rule:nonzero;"/></svg>