<?xml version="1.0" encoding="UTF-8" standalone="no"?><!DOCTYPE svg PUBLIC "-//W3C//DTD SVG 1.1//EN" "http://www.w3.org/Graphics/SVG/1.1/DTD/svg11.dtd"><svg width="100%" height="100%" viewBox="0 0 32 32" version="1.1" xmlns="http://www.w3.org/2000/svg" xmlns:xlink="http://www.w3.org/1999/xlink" xml:space="preserve" xmlns:serif="http://www.serif.com/" style="fill-rule:evenodd;clip-rule:evenodd;stroke-linejoin:round;stroke-miterlimit:2;"><g id="Layer_3"><path d="M32,24.428l0,1c0,0.001 0,0.003 0,0.004c0,0.865 -0.712,1.577 -1.577,1.577c-0.001,0 -0.003,0 -0.004,0l-10.852,0c0.086,-0.109 0.164,-0.223 0.235,-0.342c0.064,-0.107 0.115,-0.222 0.15,-0.342c0.112,-0.287 0.17,-0.592 0.171,-0.9l0,-1c-0.004,-0.172 -0.018,-0.343 -0.043,-0.513c-0.047,-0.92 -0.205,-1.831 -0.47,-2.713c-0.063,-0.209 -0.149,-0.41 -0.256,-0.6c-0.094,-0.195 -0.217,-0.375 -0.364,-0.534c-0.129,-0.176 -0.288,-0.327 -0.469,-0.448c-0.175,-0.153 -0.369,-0.282 -0.577,-0.385c0.423,-0.084 0.838,-0.205 1.239,-0.363c0.501,-0.236 0.908,-0.635 1.154,-1.132l0.213,-0.385l-0.342,-0.278c-0.355,-0.302 -0.664,-0.655 -0.918,-1.046c-0.372,-0.644 -0.639,-1.344 -0.791,-2.072l-0.063,-0.321l-0.321,-0.085c-0.095,-0.051 -0.176,-0.124 -0.235,-0.214c-0.146,-0.208 -0.241,-0.448 -0.278,-0.7c-0.075,-0.314 -0.045,-0.645 0.086,-0.94l0.128,-0.192l-0.107,-0.384c-0.066,-0.453 -0.088,-0.911 -0.064,-1.368c0.03,-0.554 0.109,-1.104 0.235,-1.644c0.249,-0.789 0.762,-1.468 1.453,-1.923c1.901,-1.278 4.399,-1.278 6.3,0c0.691,0.455 1.204,1.134 1.453,1.923c0.121,0.541 0.2,1.091 0.235,1.644c0.024,0.457 0.002,0.915 -0.064,1.368l-0.107,0.384l0.107,0.192c0.142,0.292 0.172,0.627 0.085,0.94c-0.039,0.249 -0.126,0.489 -0.256,0.705c-0.065,0.085 -0.144,0.157 -0.235,0.214l-0.321,0.085l-0.064,0.321c-0.148,0.732 -0.423,1.434 -0.811,2.072c-0.236,0.393 -0.541,0.74 -0.9,1.025l-0.343,0.278l0.193,0.406c0.101,0.172 0.215,0.336 0.341,0.491c0.228,0.272 0.513,0.491 0.834,0.641c0.617,0.223 1.253,0.387 1.9,0.491c0.828,0.123 1.639,0.345 2.414,0.662c0.683,0.251 1.212,0.806 1.431,1.5c0.254,0.81 0.398,1.651 0.427,2.5l0.022,0.086c0.019,0.104 0.028,0.209 0.026,0.315Z" style="fill:#333;fill-rule:nonzero;"/><path d="M19.033,24.428l0,1c0,0.001 0,0.003 0,0.004c0,0.865 -0.712,1.577 -1.577,1.577c-0.001,0 -0.003,0 -0.004,0l-15.871,0c-0.864,-0.005 -1.573,-0.713 -1.581,-1.577l0,-1c-0.003,-0.15 0.012,-0.301 0.043,-0.448c0.031,-0.836 0.175,-1.664 0.427,-2.461c0.219,-0.694 0.748,-1.249 1.431,-1.5c0.782,-0.32 1.6,-0.542 2.436,-0.662c0.64,-0.104 1.27,-0.268 1.879,-0.491c0.325,-0.145 0.611,-0.364 0.834,-0.641c0.126,-0.155 0.24,-0.319 0.341,-0.491l0.193,-0.385l-0.343,-0.278c-0.355,-0.297 -0.659,-0.651 -0.9,-1.046c-0.388,-0.638 -0.663,-1.34 -0.811,-2.072l-0.064,-0.321l-0.321,-0.085c-0.091,-0.057 -0.17,-0.129 -0.235,-0.214c-0.137,-0.213 -0.231,-0.451 -0.278,-0.7c-0.071,-0.316 -0.034,-0.648 0.107,-0.94l0.107,-0.192l-0.107,-0.384c-0.066,-0.453 -0.088,-0.911 -0.064,-1.368c0.035,-0.553 0.114,-1.103 0.235,-1.644c0.258,-0.791 0.78,-1.47 1.477,-1.924c0.915,-0.652 2.017,-0.989 3.14,-0.961c1.122,-0.021 2.222,0.316 3.14,0.961c0.691,0.455 1.204,1.134 1.453,1.923c0.126,0.54 0.205,1.09 0.235,1.644c0.024,0.457 0.002,0.915 -0.064,1.368l-0.107,0.384l0.107,0.192c0.139,0.293 0.176,0.624 0.107,0.94c-0.046,0.251 -0.14,0.49 -0.278,0.705c-0.065,0.085 -0.144,0.157 -0.235,0.214l-0.321,0.085l-0.063,0.321c-0.152,0.728 -0.419,1.428 -0.791,2.072c-0.254,0.391 -0.563,0.744 -0.918,1.046l-0.342,0.257l0.213,0.406c0.246,0.497 0.653,0.896 1.154,1.132c0.617,0.22 1.253,0.384 1.9,0.491c0.086,0.021 0.15,0.021 0.235,0.043c0.187,0.033 0.373,0.075 0.556,0.128c0.194,0.033 0.387,0.075 0.577,0.128c0.357,0.096 0.707,0.217 1.046,0.363c0.688,0.244 1.219,0.802 1.431,1.5c0.255,0.81 0.399,1.651 0.427,2.5l0.022,0.086c0.017,0.104 0.025,0.21 0.022,0.315Z" style="fill:#333;fill-rule:nonzero;"/></g></svg>