<svg data-name="Layer 1" xmlns="http://www.w3.org/2000/svg" viewBox="0 0 32 32"><title>mime_perspective_asset_volume32</title><path d="M25.031,1.5h-18l-6,9.667V30.5h30V11.167ZM2.5,11.167l5.25-8.459H24.312l5.25,8.459Z" fill="#00a99d"/><polygon points="9.431 3.917 8.712 5.125 23.351 5.125 22.631 3.917 9.431 3.917 9.431 3.917" fill="#00877a"/><polygon points="7.871 6.333 7.151 7.542 24.912 7.542 24.192 6.333 7.871 6.333 7.871 6.333" fill="#00877a"/><polygon points="6.431 8.75 5.712 9.958 26.351 9.958 25.631 8.75 6.431 8.75 6.431 8.75" fill="#00877a"/><polygon points="19.171 16.835 19.171 15.395 11.426 15.395 11.426 20.371 11.426 21.811 11.426 26.787 18.926 26.787 18.926 25.347 12.857 25.347 12.857 21.811 14.789 21.811 16.101 21.811 16.101 20.371 14.789 20.371 12.857 20.371 12.857 16.835 19.171 16.835" fill="#fff"/><rect x="14.348" y="19.326" width="3.506" height="3.53" fill="#fff"/><rect x="17.949" y="14.35" width="3.506" height="3.53" fill="#fff"/><rect x="17.174" y="24.302" width="3.506" height="3.53" fill="#fff"/><rect x="10.089" y="19.108" width="1.505" height="4.031" transform="translate(-10.282 31.965) rotate(-90)" fill="#fff"/></svg>