<svg width="42" height="42" viewBox="0 0 42 42" fill="none" xmlns="http://www.w3.org/2000/svg">
<path d="M40.5 21C40.5 31.7696 31.7696 40.5 21 40.5C10.2304 40.5 1.5 31.7696 1.5 21C1.5 10.2304 10.2304 1.5 21 1.5C31.7696 1.5 40.5 10.2304 40.5 21Z" fill="#067D14" stroke="#89EF95" stroke-width="3" stroke-linecap="square"/>
<path d="M18.68 28L12.566 21.8688C11.8113 21.112 11.8113 19.977 12.566 19.2202C13.3206 18.4635 14.4526 18.4635 15.2072 19.2202L18.68 22.703L26.7928 14.5675C27.5474 13.8108 28.6794 13.8108 29.434 14.5675C30.1887 15.3243 30.1887 16.4593 29.434 17.2161L18.68 28Z" fill="white"/>
</svg>
