<?xml version="1.0" encoding="utf-8"?>
<!-- Generator: Adobe Illustrator 18.1.1, SVG Export Plug-In . SVG Version: 6.00 Build 0)  -->
<svg version="1.1" id="Layer_1" xmlns="http://www.w3.org/2000/svg" xmlns:xlink="http://www.w3.org/1999/xlink" x="0px" y="0px"
	 viewBox="0 0 12 12" enable-background="new 0 0 12 12" xml:space="preserve">
<g>
	<g>
		<path fill="#DF3B14" d="M6,12c-3.3083,0-6-2.6917-6-6s2.6917-6,6-6s6,2.6917,6,6S9.3083,12,6,12z M6,0.9231
			C3.2006,0.9231,0.9231,3.2006,0.9231,6c0,2.799,2.2775,5.0769,5.0769,5.0769c2.799,0,5.0769-2.2779,5.0769-5.0769
			C11.0769,3.2006,8.799,0.9231,6,0.9231z"/>
	</g>
	<g>
		<path fill="#DF3B14" d="M3.8284,9.0947c-0.2362,0-0.4724-0.0901-0.6526-0.2704c-0.3606-0.3606-0.3606-0.9447,0-1.3053
			l4.3431-4.3436c0.3606-0.3606,0.9447-0.3606,1.3053,0s0.3606,0.9447,0,1.3053L4.4811,8.8242
			C4.3008,9.0045,4.0646,9.0947,3.8284,9.0947z"/>
	</g>
</g>
</svg>
