<?xml version="1.0" encoding="utf-8"?>
<!-- Generator: Adobe Illustrator 18.1.1, SVG Export Plug-In . SVG Version: 6.00 Build 0)  -->
<svg version="1.1" id="Layer_1" xmlns="http://www.w3.org/2000/svg" xmlns:xlink="http://www.w3.org/1999/xlink" x="0px" y="0px"
	 viewBox="0 0 24 24" enable-background="new 0 0 24 24" xml:space="preserve">
<g>
	<g>
		<rect x="0.48" y="0.48" fill="#FFFFFF" width="23.04" height="23.04"/>
		<path fill="#00806F" d="M24,24H0V0h24V24z M0.96,23.04h22.08V0.96H0.96V23.04z"/>
	</g>
	<g>
		<g>
			<path fill="#00806F" d="M9.1842,21.0506h-0.96v-0.96h0.48v-0.48h0.96v0.96C9.6642,20.8359,9.4495,21.0506,9.1842,21.0506z"/>
		</g>
		<g>
			<rect x="5.4422" y="20.0906" fill="#00806F" width="1.8544" height="0.96"/>
		</g>
		<g>
			<path fill="#00806F" d="M4.515,21.0506h-0.96c-0.2653,0-0.48-0.2147-0.48-0.48v-0.96h0.96v0.48h0.48V21.0506z"/>
		</g>
		<g>
			<path fill="#00806F" d="M4.035,18.6591h-0.96v-1.9022h0.96V18.6591z M4.035,15.8053h-0.96v-1.9031h0.96V15.8053z M4.035,12.9511
				h-0.96v-1.9027h0.96V12.9511z M4.035,10.0973h-0.96V8.1947h0.96V10.0973z M4.035,7.2436h-0.96V5.3409h0.96V7.2436z"/>
		</g>
		<g>
			<path fill="#00806F" d="M4.035,4.3894h-0.96v-0.96c0-0.2653,0.2147-0.48,0.48-0.48h0.96v0.96h-0.48V4.3894z"/>
		</g>
		<g>
			<rect x="5.4422" y="2.9494" fill="#00806F" width="1.8544" height="0.96"/>
		</g>
		<g>
			<path fill="#00806F" d="M9.6642,4.3894h-0.96v-0.48h-0.48v-0.96h0.96c0.2653,0,0.48,0.2147,0.48,0.48V4.3894z"/>
		</g>
		<g>
			<path fill="#00806F" d="M9.6642,18.6591h-0.96v-1.9022h0.96V18.6591z M9.6642,15.8053h-0.96v-1.9022h0.96V15.8053z
				 M9.6642,12.9516h-0.96v-1.9027h0.96V12.9516z M9.6642,10.0973h-0.96V8.1947h0.96V10.0973z M9.6642,7.2436h-0.96V5.3409h0.96
				V7.2436z"/>
		</g>
	</g>
	<g>
		<g>
			<path fill="#00806F" d="M20.445,7.8942h-0.96v-0.96h0.48v-0.48h0.96v0.96C20.925,7.6795,20.7103,7.8942,20.445,7.8942z"/>
		</g>
		<g>
			<path fill="#00806F" d="M18.6159,7.8942h-1.7381v-0.96h1.7381V7.8942z M16.0088,7.8942h-1.7381v-0.96h1.7381V7.8942z"/>
		</g>
		<g>
			<path fill="#00806F" d="M13.4025,7.8942H12.442c-0.2653,0-0.48-0.2147-0.48-0.48v-0.96h0.96v0.48h0.4805V7.8942z"/>
		</g>
		<g>
			<rect x="11.962" y="4.9059" fill="#00806F" width="0.96" height="1.0322"/>
		</g>
		<g>
			<path fill="#00806F" d="M12.922,4.3894h-0.96v-0.96c0-0.2653,0.2147-0.48,0.48-0.48h0.9605v0.96H12.922V4.3894z"/>
		</g>
		<g>
			<path fill="#00806F" d="M18.6169,3.9094h-1.7381v-0.96h1.7381V3.9094z M16.0097,3.9094h-1.7381v-0.96h1.7381V3.9094z"/>
		</g>
		<g>
			<path fill="#00806F" d="M20.925,4.3894h-0.96v-0.48h-0.48v-0.96h0.96c0.2653,0,0.48,0.2147,0.48,0.48V4.3894z"/>
		</g>
		<g>
			<rect x="19.965" y="4.9059" fill="#00806F" width="0.96" height="1.0322"/>
		</g>
	</g>
	<g>
		<g>
			<path fill="#00806F" d="M20.445,21.0506h-0.96v-0.96h0.48v-0.48h0.96v0.96C20.925,20.8359,20.7103,21.0506,20.445,21.0506z"/>
		</g>
		<g>
			<path fill="#00806F" d="M18.6159,21.0506h-1.7381v-0.96h1.7381V21.0506z M16.0088,21.0506h-1.7381v-0.96h1.7381V21.0506z"/>
		</g>
		<g>
			<path fill="#00806F" d="M13.4025,21.0506H12.442c-0.2653,0-0.48-0.2147-0.48-0.48v-0.96h0.96v0.48h0.4805V21.0506z"/>
		</g>
		<g>
			<path fill="#00806F" d="M12.922,18.7519h-0.96v-1.7175h0.96V18.7519z M12.922,16.1756h-0.96v-1.7175h0.96V16.1756z
				 M12.922,13.5994h-0.96v-1.717h0.96V13.5994z"/>
		</g>
		<g>
			<path fill="#00806F" d="M12.922,11.0236h-0.96v-0.96c0-0.2653,0.2147-0.48,0.48-0.48h0.9605v0.96H12.922V11.0236z"/>
		</g>
		<g>
			<path fill="#00806F" d="M18.6169,10.5436h-1.7381v-0.96h1.7381V10.5436z M16.0097,10.5436h-1.7381v-0.96h1.7381V10.5436z"/>
		</g>
		<g>
			<path fill="#00806F" d="M20.925,11.0236h-0.96v-0.48h-0.48v-0.96h0.96c0.2653,0,0.48,0.2147,0.48,0.48V11.0236z"/>
		</g>
		<g>
			<path fill="#00806F" d="M20.925,18.7519h-0.96v-1.7175h0.96V18.7519z M20.925,16.1756h-0.96v-1.7175h0.96V16.1756z
				 M20.925,13.5994h-0.96v-1.717h0.96V13.5994z"/>
		</g>
	</g>
</g>
</svg>
