<?xml version="1.0" encoding="utf-8"?>
<!-- Generator: Adobe Illustrator 19.1.0, SVG Export Plug-In . SVG Version: 6.00 Build 0)  -->
<!DOCTYPE svg PUBLIC "-//W3C//DTD SVG 1.1//EN" "http://www.w3.org/Graphics/SVG/1.1/DTD/svg11.dtd">
<svg version="1.1" xmlns="http://www.w3.org/2000/svg" xmlns:xlink="http://www.w3.org/1999/xlink" x="0px" y="0px"
	 viewBox="0 0 32 32" enable-background="new 0 0 32 32" xml:space="preserve">
<g>
	<g id="shortcut">
		<g>
			<g>
				<path opacity="0.9" fill="#3C5666" d="M7.5,31.5c-3.859,0-7-3.141-7-7s3.141-7,7-7s7,3.141,7,7S11.359,31.5,7.5,31.5z"/>
				<path fill="#FFFFFF" d="M7.5,18c3.59,0,6.5,2.91,6.5,6.5S11.09,31,7.5,31S1,28.09,1,24.5S3.91,18,7.5,18 M7.5,17
					C3.364,17,0,20.364,0,24.5S3.364,32,7.5,32s7.5-3.364,7.5-7.5S11.636,17,7.5,17L7.5,17z"/>
			</g>
		</g>
		<path fill="#3C5666" d="M11.707,24l-2.354-2.354c-0.195-0.195-0.512-0.195-0.707,0s-0.195,0.512,0,0.707L9.793,23.5H9
			c-2.859,0-4.5,1.641-4.5,4.5c0,0.276,0.224,0.5,0.5,0.5s0.5-0.224,0.5-0.5c0-1.597,0.607-3.5,3.5-3.5h0.793l-1.146,1.146
			c-0.195,0.195-0.195,0.512,0,0.707C8.744,26.451,8.872,26.5,9,26.5s0.256-0.049,0.354-0.146L11.707,24z"/>
		<path fill="#FFFFFF" d="M11.707,23l-2.354-2.354c-0.195-0.195-0.512-0.195-0.707,0s-0.195,0.512,0,0.707L9.793,22.5H9
			c-2.859,0-4.5,1.641-4.5,4.5c0,0.276,0.224,0.5,0.5,0.5s0.5-0.224,0.5-0.5c0-1.597,0.607-3.5,3.5-3.5h0.793l-1.146,1.146
			c-0.195,0.195-0.195,0.512,0,0.707C8.744,25.451,8.872,25.5,9,25.5s0.256-0.049,0.354-0.146L11.707,23z"/>
	</g>
</g>
</svg>
