<?xml version="1.0" encoding="UTF-8" standalone="no"?><!DOCTYPE svg PUBLIC "-//W3C//DTD SVG 1.1//EN" "http://www.w3.org/Graphics/SVG/1.1/DTD/svg11.dtd"><svg width="100%" height="100%" viewBox="0 0 32 32" version="1.1" xmlns="http://www.w3.org/2000/svg" xmlns:xlink="http://www.w3.org/1999/xlink" xml:space="preserve" xmlns:serif="http://www.serif.com/" style="fill-rule:evenodd;clip-rule:evenodd;stroke-linejoin:round;stroke-miterlimit:2;"><circle cx="16" cy="16" r="14" style="fill:none;"/><path d="M14.253,8.685c-3.099,0 -5.597,2.497 -5.597,5.596c0,3.099 2.498,5.596 5.597,5.596c3.099,0 5.596,-2.497 5.596,-5.596c0,-3.099 -2.497,-5.596 -5.596,-5.596Zm-8.261,5.596c0,-4.572 3.689,-8.261 8.261,-8.261c4.571,0 8.261,3.689 8.261,8.261c0,1.804 -0.574,3.47 -1.551,4.825l4.624,4.625c0.521,0.52 0.521,1.365 0,1.884c-0.519,0.521 -1.364,0.521 -1.884,0l-4.625,-4.624c-1.355,0.977 -3.021,1.551 -4.825,1.551c-4.572,0 -8.261,-3.69 -8.261,-8.261Z" style="fill:#333;"/></svg>