<?xml version="1.0" encoding="UTF-8" standalone="no"?><!DOCTYPE svg PUBLIC "-//W3C//DTD SVG 1.1//EN" "http://www.w3.org/Graphics/SVG/1.1/DTD/svg11.dtd"><svg width="100%" height="100%" viewBox="0 0 32 32" version="1.1" xmlns="http://www.w3.org/2000/svg" xmlns:xlink="http://www.w3.org/1999/xlink" xml:space="preserve" xmlns:serif="http://www.serif.com/" style="fill-rule:evenodd;clip-rule:evenodd;stroke-linejoin:round;stroke-miterlimit:2;"><circle cx="16" cy="16" r="14" style="fill:none;"/><path d="M18.55,12.473c0.06,0.121 0.177,0.205 0.312,0.225l4.859,0.696c0.34,0.049 0.477,0.462 0.23,0.699l-3.516,3.383c-0.098,0.095 -0.143,0.23 -0.119,0.363l0.83,4.777c0.058,0.334 -0.299,0.59 -0.603,0.432l-0.479,-0.249l-3.866,-2.006c-0.121,-0.063 -0.266,-0.063 -0.386,0l-4.345,2.255c-0.306,0.158 -0.662,-0.098 -0.603,-0.432l0.83,-4.777c0.023,-0.132 -0.021,-0.268 -0.119,-0.363l-3.516,-3.383c-0.249,-0.237 -0.112,-0.65 0.229,-0.699l4.858,-0.696c0.136,-0.02 0.253,-0.104 0.313,-0.225l1.933,-3.866l0.239,-0.479c0.153,-0.305 0.594,-0.305 0.746,0l2.173,4.345Zm-0.448,-5.186l1.822,3.644l4.075,0.584c1.913,0.276 2.688,2.6 1.296,3.939l-0.002,0.001l-2.946,2.835l0.696,4.005c0.327,1.881 -1.675,3.328 -3.396,2.433l-3.642,-1.89l-3.643,1.891c-1.714,0.89 -3.726,-0.545 -3.394,-2.436l0,-0.003l0.695,-4l-2.942,-2.83l-0.004,-0.004c-1.397,-1.339 -0.621,-3.665 1.292,-3.941l4.075,-0.584l1.823,-3.648c0.858,-1.707 3.336,-1.716 4.195,0.004Z" style="fill:#333;"/></svg>