<svg version="1.1" xmlns="http://www.w3.org/2000/svg" xmlns:xlink="http://www.w3.org/1999/xlink" x="0px" y="0px" viewBox="0 0 16 16" style="enable-background:new 0 0 16 16;" xml:space="preserve"><path d="M8,14.667c-3.667,0-6.667-3-6.667-6.667c0-3.667,3-6.667,6.667-6.667c3.667,0,6.667,3,6.667,6.667
	C14.667,11.667,11.667,14.667,8,14.667z" fill="#FFFFFF"/><path d="M8,2c3.333,0,6,2.667,6,6c0,3.333-2.667,6-6,6c-3.333,0-6-2.667-6-6C2,4.667,4.667,2,8,2z M8,0.667
	C3.933,0.667,0.667,3.933,0.667,8c0,4.067,3.267,7.333,7.333,7.333c4.067,0,7.333-3.267,7.333-7.333
	C15.333,3.933,12.067,0.667,8,0.667z" fill="#004267"/><path d="M8,0.667c4.067,0,7.333,3.267,7.333,7.333c0,4.067-3.267,7.333-7.333,7.333c-4.067,0-7.333-3.267-7.333-7.333
	C0.667,3.933,3.933,0.667,8,0.667z M8,0C3.6,0,0,3.6,0,8s3.6,8,8,8s8-3.6,8-8S12.4,0,8,0z" fill="#FFFFFF"/><path d="M12.667,8c0,0.644-0.522,1.167-1.167,1.167c-0.644,0-1.167-0.522-1.167-1.167s0.522-1.167,1.167-1.167
	C12.144,6.833,12.667,7.356,12.667,8z M7.667,9c0.552,0,1-0.448,1-1c0-0.552-0.448-1-1-1c-0.552,0-1,0.448-1,1
	C6.667,8.552,7.114,9,7.667,9z M4.167,8.833C4.627,8.833,5,8.46,5,8c0-0.46-0.373-0.833-0.833-0.833C3.706,7.167,3.333,7.54,3.333,8
	C3.333,8.46,3.706,8.833,4.167,8.833z" fill-rule="evenodd" clip-rule="evenodd" fill="#004267"/></svg>