<?xml version="1.0" encoding="utf-8"?>
<!-- Generator: Adobe Illustrator 19.2.0, SVG Export Plug-In . SVG Version: 6.00 Build 0)  -->
<!DOCTYPE svg PUBLIC "-//W3C//DTD SVG 1.1//EN" "http://www.w3.org/Graphics/SVG/1.1/DTD/svg11.dtd">
<svg version="1.1" id="Layer_1" xmlns="http://www.w3.org/2000/svg" xmlns:xlink="http://www.w3.org/1999/xlink" x="0px" y="0px"
	 viewBox="0 0 32 32" enable-background="new 0 0 32 32" xml:space="preserve">
<path fill="#FFFFFF" d="M24,8.456V3c0-1.654-1.346-3-3-3H11C9.346,0,8,1.346,8,3v5.456C6.062,10.506,5,13.168,5,16
	c0,2.831,1.062,5.494,3,7.544V29c0,1.654,1.346,3,3,3h10c1.654,0,3-1.346,3-3v-5.456c1.938-2.05,3-4.713,3-7.544
	C27,13.168,25.938,10.506,24,8.456z"/>
<g>
	<path fill="#E08E18" d="M21,31H11c-1.1,0-2-0.9-2-2V3c0-1.1,0.9-2,2-2h10c1.1,0,2,0.9,2,2v26C23,30.1,22.1,31,21,31z"/>
</g>
<rect x="11" y="1" fill="#C95427" width="1" height="30"/>
<rect x="20" y="1" fill="#C95427" width="1" height="30"/>
<g id="Ppt">
</g>
<g id="Small_Folder">
</g>
<g id="fave_icon_-_selected">
</g>
<g id="Shortcut_1_">
</g>
<g id="comment_icon_-_selected">
</g>
<g id="Comment_icon">
</g>
<g>
	<circle fill="#EAF6FC" cx="16" cy="16" r="9"/>
	<path fill="#00A4D8" d="M16,8c4.411,0,8,3.589,8,8c0,4.411-3.589,8-8,8s-8-3.589-8-8C8,11.589,11.589,8,16,8 M16,6
		C10.477,6,6,10.477,6,16c0,5.523,4.477,10,10,10s10-4.477,10-10C26,10.477,21.523,6,16,6L16,6z"/>
	<path fill="#627783" d="M16,7c4.963,0,9,4.037,9,9s-4.037,9-9,9s-9-4.037-9-9S11.037,7,16,7 M16,6C10.477,6,6,10.477,6,16
		c0,5.523,4.477,10,10,10s10-4.477,10-10C26,10.477,21.523,6,16,6L16,6z"/>
</g>
<circle fill="#333333" cx="16" cy="16" r="1"/>
<line fill="none" stroke="#333333" stroke-linecap="round" stroke-miterlimit="10" x1="20.243" y1="11.757" x2="16" y2="16"/>
</svg>
