<svg version="1.1" xmlns="http://www.w3.org/2000/svg" xmlns:xlink="http://www.w3.org/1999/xlink" x="0px" y="0px" viewBox="0 0 16 16" style="enable-background:new 0 0 16 16;" xml:space="preserve"><path d="M8,14.667c-3.667,0-6.667-3-6.667-6.667c0-3.667,3-6.667,6.667-6.667c3.667,0,6.667,3,6.667,6.667
	C14.667,11.667,11.667,14.667,8,14.667z" fill="#FFFFFF"/><path d="M8,2c3.333,0,6,2.667,6,6c0,3.333-2.667,6-6,6c-3.333,0-6-2.667-6-6C2,4.667,4.667,2,8,2z M8,0.667
	C3.933,0.667,0.667,3.933,0.667,8c0,4.067,3.267,7.333,7.333,7.333c4.067,0,7.333-3.267,7.333-7.333
	C15.333,3.933,12.067,0.667,8,0.667z" fill="#04620F"/><path d="M6.933,10.867L4.667,8.6C4.4,8.333,4.4,7.933,4.667,7.667C4.933,7.4,5.333,7.4,5.6,7.667L6.933,9l3.4-3.4
	C10.6,5.333,11,5.333,11.267,5.6c0.267,0.267,0.267,0.667,0,0.933L6.933,10.867z" fill="#04620F"/><path d="M8,0.667c4.067,0,7.333,3.267,7.333,7.333c0,4.067-3.267,7.333-7.333,7.333c-4.067,0-7.333-3.267-7.333-7.333
	C0.667,3.933,3.933,0.667,8,0.667z M8,0C3.6,0,0,3.6,0,8s3.6,8,8,8s8-3.6,8-8S12.4,0,8,0z" fill="#FFFFFF"/></svg>