<?xml version="1.0" encoding="UTF-8"?>
<!-- Generator: Adobe Illustrator 19.2.0, SVG Export Plug-In . SVG Version: 6.00 Build 0)  -->
<!DOCTYPE svg PUBLIC "-//W3C//DTD SVG 1.1//EN" "http://www.w3.org/Graphics/SVG/1.1/DTD/svg11.dtd">
<svg version="1.1" id="Layer_1" xmlns="http://www.w3.org/2000/svg" xmlns:xlink="http://www.w3.org/1999/xlink" x="0px" y="0px" viewBox="0 0 18 18" enable-background="new 0 0 18 18" xml:space="preserve">
<g>
	<g>
		<g>
			<path fill="#CD3632" d="M9,17.5c-4.687,0-8.5-3.813-8.5-8.5S4.313,0.5,9,0.5c4.687,0,8.5,3.813,8.5,8.5S13.687,17.5,9,17.5z"/>
			<path fill="#FFFFFF" d="M9,1c4.418,0,8,3.582,8,8s-3.582,8-8,8s-8-3.582-8-8S4.582,1,9,1 M9,0C4.037,0,0,4.037,0,9s4.037,9,9,9     s9-4.037,9-9S13.963,0,9,0L9,0z"/>
		</g>
	</g>
	<path fill="#FFFFFF" d="M13.263,8.293L9,4.03L4.737,8.293c-0.391,0.391-0.391,1.023,0,1.414s1.023,0.391,1.414,0L8,7.858v5.586   c0,0.553,0.448,1,1,1s1-0.447,1-1V7.858l1.849,1.849C12.044,9.902,12.3,10,12.556,10s0.512-0.098,0.707-0.293   C13.653,9.316,13.653,8.684,13.263,8.293z"/>
</g>
</svg>