<?xml version="1.0" encoding="utf-8"?>
<!-- Generator: Adobe Illustrator 18.1.1, SVG Export Plug-In . SVG Version: 6.00 Build 0)  -->
<svg version="1.1" id="Layer_1" xmlns="http://www.w3.org/2000/svg" xmlns:xlink="http://www.w3.org/1999/xlink" x="0px" y="0px"
	 viewBox="0 0 24 24" enable-background="new 0 0 24 24" xml:space="preserve">
<g>
	<g>
		<path fill="#333333" d="M22.56,10.3856h-7.5056c-0.7941,0-1.44-0.6459-1.44-1.44V1.44c0-0.7941,0.6459-1.44,1.44-1.44H22.56
			C23.3541,0,24,0.6459,24,1.44v7.5056C24,9.7397,23.3541,10.3856,22.56,10.3856z M15.0544,0.96c-0.2644,0-0.48,0.2152-0.48,0.48
			v7.5056c0,0.2648,0.2156,0.48,0.48,0.48H22.56c0.2644,0,0.48-0.2152,0.48-0.48V1.44c0-0.2648-0.2156-0.48-0.48-0.48H15.0544z"/>
	</g>
	<g>
		<path fill="#333333" d="M8.9456,10.3856H1.44c-0.7941,0-1.44-0.6459-1.44-1.44V1.44C0,0.6459,0.6459,0,1.44,0h7.5056
			c0.7941,0,1.44,0.6459,1.44,1.44v7.5056C10.3856,9.7397,9.7397,10.3856,8.9456,10.3856z M1.44,0.96
			c-0.2648,0-0.48,0.2152-0.48,0.48v7.5056c0,0.2648,0.2152,0.48,0.48,0.48h7.5056c0.2648,0,0.48-0.2152,0.48-0.48V1.44
			c0-0.2648-0.2152-0.48-0.48-0.48H1.44z"/>
	</g>
	<g>
		<path fill="#333333" d="M22.56,24h-7.5056c-0.7941,0-1.44-0.6459-1.44-1.44v-7.5056c0-0.7941,0.6459-1.44,1.44-1.44H22.56
			c0.7941,0,1.44,0.6459,1.44,1.44V22.56C24,23.3541,23.3541,24,22.56,24z M15.0544,14.5744c-0.2644,0-0.48,0.2156-0.48,0.48V22.56
			c0,0.2644,0.2156,0.48,0.48,0.48H22.56c0.2644,0,0.48-0.2156,0.48-0.48v-7.5056c0-0.2644-0.2156-0.48-0.48-0.48H15.0544z"/>
	</g>
	<g>
		<path fill="#333333" d="M8.9456,24H1.44C0.6459,24,0,23.3541,0,22.56v-7.5056c0-0.7941,0.6459-1.44,1.44-1.44h7.5056
			c0.7941,0,1.44,0.6459,1.44,1.44V22.56C10.3856,23.3541,9.7397,24,8.9456,24z M1.44,14.5744c-0.2648,0-0.48,0.2156-0.48,0.48
			V22.56c0,0.2644,0.2152,0.48,0.48,0.48h7.5056c0.2648,0,0.48-0.2156,0.48-0.48v-7.5056c0-0.2644-0.2152-0.48-0.48-0.48H1.44z"/>
	</g>
</g>
</svg>
