<?xml version="1.0" encoding="utf-8"?>
<!-- Generator: Adobe Illustrator 18.1.0, SVG Export Plug-In . SVG Version: 6.00 Build 0)  -->
<!DOCTYPE svg PUBLIC "-//W3C//DTD SVG 1.1//EN" "http://www.w3.org/Graphics/SVG/1.1/DTD/svg11.dtd">
<svg version="1.1" id="Layer_1" xmlns="http://www.w3.org/2000/svg" xmlns:xlink="http://www.w3.org/1999/xlink" x="0px" y="0px"
	 viewBox="0 0 154 154" enable-background="new 0 0 154 154" xml:space="preserve">
<path fill="#FFFFFF" d="M16,79v58.967c0,8.422,6.828,15.25,15.25,15.25h91.5c8.422,0,15.25-6.828,15.25-15.25V79H16z"/>
<g>
	<g>
		<g>
			<path fill="#E8ECEE" d="M16,80V17c0-8.822,7.178-16,16-16h75.414L138,31.586V80H16z"/>
		</g>
	</g>
</g>
<path fill="#6088A0" d="M107.857,0H32.029C22.655,0,15,7.626,15,17v66h2V17.416C17,8.609,23.862,2,32.029,2H107l30,30v50h2
	l0.029-50.828L107.857,0z"/>
<g>
	<g>
		<g>
			<path fill="#6088A0" d="M17.38,140.244C17.38,140.244,17.38,140.244,17.38,140.244c-0.007-0.031-0.013-0.061-0.02-0.091
				c0,0,0,0,0-0.001c-0.002-0.01-0.004-0.02-0.006-0.03c0,0,0-0.001,0-0.001c-0.001-0.005-0.002-0.01-0.003-0.014c0,0,0,0,0-0.001
				c-0.002-0.01-0.004-0.02-0.006-0.03c0,0,0-0.001,0-0.001c-0.001-0.005-0.002-0.009-0.003-0.014c0,0,0-0.001,0-0.001
				c-0.002-0.01-0.004-0.02-0.006-0.03c0,0,0-0.001,0-0.001c-0.001-0.005-0.002-0.009-0.003-0.014c0,0,0-0.001,0-0.001
				c-0.002-0.01-0.004-0.019-0.006-0.029c0-0.001,0-0.001,0-0.002c-0.001-0.004-0.002-0.009-0.003-0.013c0-0.001,0-0.001,0-0.002
				c-0.002-0.01-0.004-0.02-0.006-0.029c0-0.001,0-0.001,0-0.002c-0.001-0.004-0.002-0.009-0.003-0.013c0-0.001,0-0.001,0-0.002
				c-0.002-0.01-0.004-0.019-0.006-0.029c0-0.001,0-0.002,0-0.003c-0.001-0.004-0.002-0.008-0.002-0.012
				c0-0.001,0-0.002-0.001-0.003c-0.002-0.01-0.004-0.019-0.006-0.029c0-0.001,0-0.002,0-0.002
				c-0.001-0.004-0.002-0.009-0.002-0.012c0-0.001,0-0.001,0-0.002c-0.002-0.01-0.004-0.019-0.005-0.029
				c0-0.001,0-0.002-0.001-0.003c-0.001-0.004-0.001-0.008-0.002-0.011c0-0.001,0-0.002-0.001-0.003
				c-0.002-0.01-0.003-0.018-0.005-0.028c0-0.001,0-0.003-0.001-0.004c-0.001-0.004-0.001-0.007-0.002-0.011
				c0-0.001,0-0.002-0.001-0.003c-0.001-0.005-0.002-0.009-0.003-0.014c0,0,0,0,0,0c-0.001-0.005-0.002-0.009-0.003-0.014
				c0-0.001,0-0.003-0.001-0.004c-0.001-0.004-0.001-0.007-0.002-0.011c0-0.001,0-0.002-0.001-0.004
				c-0.002-0.01-0.003-0.019-0.005-0.028c0-0.001,0-0.002-0.001-0.003c-0.001-0.004-0.001-0.008-0.002-0.012
				c0-0.001,0-0.002,0-0.003c-0.001-0.005-0.002-0.009-0.003-0.014c0,0,0-0.001,0-0.001c-0.001-0.004-0.002-0.009-0.002-0.013
				c0-0.001,0-0.003-0.001-0.004c-0.001-0.003-0.001-0.008-0.002-0.011c0-0.001,0-0.002-0.001-0.004
				c-0.001-0.004-0.002-0.01-0.002-0.014c0,0,0-0.001,0-0.001c-0.001-0.004-0.001-0.009-0.002-0.013c0-0.001,0-0.002-0.001-0.004
				c-0.001-0.003-0.001-0.008-0.002-0.011c0-0.001,0-0.002-0.001-0.003c-0.001-0.004-0.002-0.01-0.002-0.014c0,0,0-0.001,0-0.001
				c-0.001-0.004-0.001-0.009-0.002-0.013c0-0.001,0-0.003-0.001-0.004c-0.001-0.003-0.001-0.007-0.002-0.01
				c0-0.001,0-0.003-0.001-0.004c-0.001-0.004-0.002-0.01-0.002-0.014c0,0,0-0.001,0-0.002c-0.001-0.004-0.001-0.008-0.002-0.013
				c0-0.001,0-0.003-0.001-0.004c-0.001-0.003-0.001-0.008-0.002-0.011c0-0.001,0-0.002,0-0.003
				c-0.001-0.004-0.002-0.01-0.002-0.014c0,0,0-0.001,0-0.001c-0.001-0.004-0.001-0.008-0.002-0.013c0-0.001,0-0.003-0.001-0.004
				c-0.001-0.004-0.001-0.008-0.002-0.011c0-0.001,0-0.002,0-0.003c-0.001-0.005-0.002-0.01-0.002-0.014c0,0,0-0.001,0-0.001
				c-0.001-0.004-0.001-0.009-0.002-0.013c0-0.001,0-0.002-0.001-0.004c-0.001-0.004-0.001-0.008-0.002-0.012
				c0-0.001,0-0.002,0-0.002c-0.001-0.005-0.002-0.01-0.002-0.015c0,0,0-0.001,0-0.001c-0.001-0.004-0.001-0.009-0.002-0.013
				c0-0.001,0-0.002-0.001-0.003c-0.001-0.004-0.001-0.008-0.002-0.012c0-0.001,0-0.002,0-0.003
				c-0.001-0.005-0.002-0.01-0.002-0.015c0,0,0,0,0,0c-0.001-0.005-0.001-0.009-0.002-0.014c0-0.001,0-0.002,0-0.003
				c-0.001-0.004-0.001-0.008-0.002-0.012c0-0.001,0-0.001,0-0.002c-0.001-0.005-0.002-0.01-0.002-0.015c0,0,0-0.001,0-0.001
				c-0.001-0.005-0.001-0.008-0.002-0.013c0-0.001,0-0.002,0-0.003c-0.001-0.004-0.001-0.009-0.002-0.012c0-0.001,0-0.002,0-0.002
				c-0.001-0.005-0.001-0.01-0.002-0.015c0,0,0,0,0-0.001c-0.001-0.005-0.001-0.009-0.002-0.014c0-0.001,0-0.002,0-0.003
				c-0.001-0.004-0.001-0.009-0.002-0.014c0,0,0-0.001,0-0.001c-0.001-0.01-0.003-0.02-0.004-0.03c0-0.001,0-0.002,0-0.002
				c-0.001-0.004-0.001-0.009-0.002-0.013c0-0.001,0-0.001,0-0.002c-0.001-0.01-0.003-0.02-0.004-0.03c0-0.001,0-0.001,0-0.002
				c-0.001-0.005-0.001-0.01-0.002-0.014v0c-0.001-0.01-0.003-0.02-0.004-0.03c0-0.001,0-0.001,0-0.002
				c-0.001-0.005-0.001-0.009-0.002-0.014c0,0,0,0,0-0.001c-0.001-0.01-0.003-0.02-0.004-0.03c0-0.001,0-0.001,0-0.002
				c-0.002-0.015-0.004-0.03-0.006-0.046c0,0,0,0,0-0.001c-0.042-0.323-0.074-0.648-0.095-0.977l-0.065-0.984L15,137.133
				l0.066,0.998c0.1,1.514,0.401,3.005,0.895,4.432l0.327,0.945l1.89-0.654l-0.322-0.931
				C17.666,141.377,17.507,140.817,17.38,140.244z"/>
			<rect x="15" y="101" fill="#6088A0" width="2" height="6"/>
			<rect x="137.029" y="88.129" fill="#6088A0" width="2" height="6"/>
			<rect x="15" y="125" fill="#6088A0" width="2" height="6"/>
			<rect x="15" y="113" fill="#6088A0" width="2" height="6"/>
			<rect x="15" y="89" fill="#6088A0" width="2" height="6"/>
			<rect x="137.029" y="112.129" fill="#6088A0" width="2" height="6"/>
			<rect x="137.029" y="124.129" fill="#6088A0" width="2" height="6"/>
			<rect x="137.029" y="100.129" fill="#6088A0" width="2" height="6"/>
			<rect x="80.464" y="152" fill="#6088A0" width="6" height="2"/>
			<rect x="104.464" y="152" fill="#6088A0" width="6" height="2"/>
			<rect x="92.464" y="152" fill="#6088A0" width="6" height="2"/>
			<path fill="#6088A0" d="M132.396,147.841c-0.634,0.606-1.319,1.157-2.051,1.645l0,0c-0.009,0.006-0.017,0.012-0.026,0.017
				c0,0,0,0,0,0c-0.013,0.009-0.025,0.017-0.038,0.025c0,0-0.001,0-0.001,0.001c-0.008,0.005-0.017,0.011-0.025,0.017
				c0,0-0.001,0.001-0.001,0.001c-0.004,0.002-0.007,0.005-0.011,0.007c-0.001,0.001-0.002,0.001-0.002,0.002
				c-0.008,0.005-0.016,0.01-0.024,0.016c-0.001,0.001-0.002,0.001-0.003,0.002c-0.003,0.002-0.007,0.005-0.01,0.007
				c-0.001,0-0.001,0.001-0.002,0.001c-0.004,0.003-0.008,0.005-0.012,0.008c-0.001,0-0.002,0.001-0.002,0.002
				c-0.003,0.002-0.006,0.004-0.01,0.006c-0.001,0.001-0.002,0.001-0.003,0.002c-0.004,0.002-0.008,0.005-0.011,0.007
				c0,0,0,0-0.001,0c-0.004,0.003-0.008,0.005-0.012,0.008c-0.001,0.001-0.002,0.001-0.003,0.002
				c-0.003,0.002-0.006,0.004-0.009,0.006c-0.001,0.001-0.002,0.002-0.004,0.002c-0.004,0.003-0.007,0.005-0.011,0.007
				c-0.001,0.001-0.002,0.001-0.003,0.002c-0.003,0.002-0.006,0.004-0.009,0.006c-0.001,0.001-0.003,0.002-0.004,0.002
				c-0.003,0.002-0.006,0.004-0.009,0.006c-0.001,0.001-0.002,0.001-0.003,0.002c-0.004,0.002-0.007,0.005-0.011,0.007
				c-0.002,0.001-0.003,0.002-0.005,0.003c-0.002,0.001-0.005,0.003-0.007,0.004c-0.002,0.001-0.003,0.002-0.005,0.003
				c-0.003,0.002-0.005,0.003-0.008,0.005c-0.003,0.002-0.005,0.003-0.008,0.005c-0.002,0.001-0.004,0.002-0.006,0.004
				c-0.002,0.001-0.004,0.003-0.006,0.004c-0.002,0.001-0.003,0.002-0.005,0.003c-0.004,0.003-0.008,0.005-0.012,0.008
				c-0.001,0.001-0.002,0.002-0.004,0.002c-0.002,0.001-0.004,0.003-0.007,0.004c-0.002,0.001-0.003,0.002-0.005,0.003
				c-0.002,0.001-0.004,0.003-0.007,0.004c-0.002,0.001-0.003,0.002-0.005,0.003c-0.004,0.003-0.008,0.005-0.012,0.008
				c-0.002,0.001-0.002,0.002-0.004,0.003c-0.002,0.001-0.005,0.003-0.007,0.005c-0.001,0.001-0.003,0.002-0.004,0.003
				c-0.002,0.002-0.005,0.003-0.007,0.004c-0.001,0.001-0.002,0.001-0.003,0.002c-0.005,0.003-0.009,0.006-0.014,0.008
				c-0.001,0.001-0.003,0.002-0.004,0.002c-0.003,0.002-0.005,0.003-0.008,0.005c-0.001,0.001-0.001,0.001-0.003,0.002
				c-0.008,0.005-0.017,0.011-0.025,0.016c-0.001,0-0.002,0.001-0.003,0.002c-0.009,0.005-0.017,0.011-0.026,0.016
				c0,0-0.002,0.001-0.002,0.001c-0.003,0.002-0.006,0.003-0.008,0.005c-0.001,0-0.001,0.001-0.002,0.001
				c-0.009,0.006-0.018,0.011-0.027,0.017c0,0-0.001,0-0.001,0.001c-0.009,0.006-0.019,0.011-0.028,0.017l0,0
				c-0.003,0.002-0.006,0.004-0.009,0.006c0,0-0.001,0-0.001,0.001c-0.009,0.006-0.019,0.011-0.028,0.017
				c-0.199,0.12-0.4,0.235-0.604,0.346l-0.879,0.476l0.953,1.759l0.879-0.476c1.328-0.719,2.557-1.615,3.652-2.661l0.723-0.691
				l-1.381-1.446L132.396,147.841z"/>
			<rect x="116.464" y="152" fill="#6088A0" width="6" height="2"/>
			<path fill="#6088A0" d="M137.036,136.13l-0.008,1c-0.007,0.873-0.089,1.729-0.24,2.56l0,0c-0.003,0.015-0.005,0.03-0.008,0.045
				l0,0.001c-0.003,0.015-0.005,0.03-0.008,0.044c0,0.001,0,0.001,0,0.002c-0.003,0.015-0.005,0.029-0.008,0.044
				c0,0.001,0,0.002,0,0.003c-0.001,0.003-0.001,0.006-0.002,0.01c0,0,0,0.002,0,0.002c-0.002,0.01-0.004,0.021-0.006,0.031
				c0,0.001,0,0.002-0.001,0.003c-0.001,0.003-0.001,0.006-0.002,0.01c0,0.001,0,0.002-0.001,0.003
				c-0.002,0.01-0.004,0.02-0.006,0.03c0,0.001-0.001,0.003-0.001,0.005c-0.001,0.003-0.001,0.005-0.002,0.008
				c0,0.001-0.001,0.003-0.001,0.005c-0.001,0.006-0.002,0.012-0.003,0.018c0,0,0,0.001,0,0.002
				c-0.001,0.003-0.001,0.005-0.002,0.008c0,0.001-0.001,0.004-0.001,0.005c-0.001,0.003-0.001,0.005-0.002,0.008
				c0,0.002-0.001,0.004-0.001,0.006c-0.001,0.006-0.002,0.011-0.003,0.017c0,0,0,0.002,0,0.002
				c-0.001,0.003-0.001,0.005-0.002,0.008c0,0.002-0.001,0.004-0.001,0.006c0,0.002-0.001,0.005-0.001,0.007
				c0,0.002-0.001,0.004-0.001,0.007s-0.001,0.005-0.001,0.007c-0.001,0.004-0.002,0.008-0.002,0.012
				c0,0.002-0.001,0.005-0.001,0.007c0,0.002-0.001,0.004-0.001,0.006c0,0.002-0.001,0.005-0.002,0.007
				c0,0.002-0.001,0.004-0.001,0.006c0,0.002-0.001,0.005-0.001,0.007s-0.001,0.005-0.002,0.008
				c-0.001,0.004-0.002,0.007-0.002,0.011c0,0.002-0.001,0.004-0.001,0.006c0,0.002-0.001,0.005-0.001,0.007
				c-0.001,0.002-0.001,0.004-0.001,0.006s-0.001,0.005-0.002,0.007c-0.001,0.003-0.001,0.006-0.002,0.009s-0.001,0.006-0.002,0.009
				c-0.001,0.002-0.001,0.005-0.002,0.007c0,0.002-0.001,0.004-0.001,0.006c0,0.002-0.001,0.005-0.002,0.008
				c0,0.002-0.001,0.004-0.001,0.006c-0.001,0.004-0.002,0.008-0.003,0.012c0,0.002-0.001,0.004-0.001,0.005
				c-0.001,0.003-0.001,0.006-0.002,0.009c0,0.002-0.001,0.004-0.001,0.006c-0.001,0.003-0.001,0.005-0.002,0.008
				c0,0.002-0.001,0.004-0.001,0.006c-0.001,0.004-0.002,0.008-0.002,0.011c0,0.002-0.001,0.003-0.001,0.005
				c-0.001,0.003-0.001,0.006-0.002,0.01c0,0.002-0.001,0.004-0.001,0.006c-0.001,0.003-0.001,0.006-0.002,0.008
				c0,0.002-0.001,0.003-0.001,0.005c-0.001,0.004-0.002,0.008-0.003,0.012c0,0.001,0,0.002-0.001,0.003
				c-0.001,0.004-0.002,0.008-0.003,0.012c0,0.002-0.001,0.003-0.001,0.004c-0.001,0.003-0.001,0.007-0.002,0.009
				c0,0.002-0.001,0.003-0.001,0.005c-0.001,0.004-0.002,0.008-0.003,0.012c0,0.001,0,0.001,0,0.002
				c-0.001,0.004-0.002,0.009-0.003,0.013c0,0.002-0.001,0.003-0.001,0.005c-0.001,0.003-0.001,0.006-0.002,0.009
				c0,0.002-0.001,0.003-0.001,0.005c-0.001,0.004-0.002,0.007-0.003,0.011c0,0.001,0,0.002-0.001,0.003
				c-0.001,0.004-0.002,0.009-0.003,0.013c0,0.001-0.001,0.002-0.001,0.003c-0.001,0.003-0.002,0.007-0.002,0.011
				c0,0.001-0.001,0.003-0.001,0.004c-0.001,0.004-0.002,0.008-0.003,0.012c0,0,0,0.001,0,0.001
				c-0.001,0.005-0.002,0.009-0.003,0.014c0,0.001-0.001,0.002-0.001,0.003c-0.001,0.003-0.002,0.008-0.003,0.011
				c0,0.001,0,0.002-0.001,0.003c-0.001,0.004-0.002,0.008-0.003,0.012c0,0,0,0.001,0,0.002c-0.001,0.005-0.002,0.009-0.003,0.014
				c0,0.001,0,0.002-0.001,0.003c-0.001,0.004-0.002,0.008-0.003,0.011c0,0.001-0.001,0.002-0.001,0.003
				c-0.001,0.004-0.002,0.008-0.003,0.012c0,0,0,0.001,0,0.002c-0.001,0.005-0.002,0.01-0.003,0.014c0,0.001,0,0.001,0,0.002
				c-0.001,0.004-0.002,0.008-0.003,0.013c0,0.001,0,0.002-0.001,0.003c-0.001,0.004-0.002,0.009-0.003,0.013c0,0,0,0.001,0,0.001
				c-0.001,0.005-0.002,0.01-0.004,0.015c0,0,0,0,0,0c-0.001,0.005-0.002,0.009-0.003,0.014c0,0.001,0,0.002-0.001,0.002
				c-0.001,0.004-0.002,0.009-0.003,0.013c0,0,0,0.001,0,0.001c-0.001,0.005-0.002,0.01-0.004,0.014c0,0,0,0,0,0.001
				c-0.001,0.005-0.002,0.009-0.003,0.013c0,0.001,0,0.002-0.001,0.003c-0.001,0.004-0.002,0.008-0.003,0.012
				c0,0.001,0,0.001,0,0.002c-0.002,0.01-0.005,0.019-0.007,0.029c0,0.001,0,0.001,0,0.002c-0.001,0.005-0.002,0.009-0.003,0.014
				c0,0,0,0,0,0c-0.003,0.01-0.005,0.019-0.007,0.029c0,0,0,0.001,0,0.001c-0.001,0.005-0.002,0.009-0.004,0.014
				c0,0,0,0.001,0,0.001c-0.003,0.01-0.005,0.02-0.008,0.029c0,0,0,0,0,0c-0.001,0.005-0.003,0.01-0.004,0.015c0,0,0,0,0,0
				c-0.004,0.015-0.008,0.029-0.011,0.044c0,0,0,0,0,0c-0.003,0.01-0.005,0.02-0.008,0.029c0,0,0,0,0,0
				c-0.001,0.005-0.002,0.009-0.004,0.014c0,0,0,0,0,0c-0.004,0.015-0.008,0.029-0.012,0.044c0,0,0,0,0,0
				c-0.016,0.06-0.033,0.12-0.049,0.18l-0.271,0.96l1.925,0.543l0.271-0.962c0.409-1.45,0.623-2.956,0.635-4.474l0.008-1
				L137.036,136.13z"/>
			<rect x="56.464" y="152" fill="#6088A0" width="6" height="2"/>
			<rect x="32.464" y="152" fill="#6088A0" width="6" height="2"/>
			<rect x="44.464" y="152" fill="#6088A0" width="6" height="2"/>
			<rect x="68.464" y="152" fill="#6088A0" width="6" height="2"/>
			<path fill="#6088A0" d="M24.174,149.782c0,0-0.001,0-0.001-0.001c-0.012-0.008-0.025-0.015-0.037-0.023
				c-0.001,0-0.001-0.001-0.002-0.001c-0.009-0.006-0.018-0.011-0.027-0.017c0,0-0.001-0.001-0.001-0.001
				c-0.003-0.002-0.005-0.003-0.008-0.005c-0.001-0.001-0.002-0.001-0.003-0.002c-0.008-0.005-0.017-0.01-0.025-0.016
				c-0.001-0.001-0.002-0.001-0.003-0.002c-0.002-0.002-0.005-0.003-0.008-0.005c-0.001-0.001-0.002-0.001-0.003-0.002
				c-0.004-0.003-0.009-0.006-0.014-0.008c-0.001-0.001-0.002-0.001-0.003-0.002c-0.002-0.001-0.005-0.003-0.007-0.005
				c-0.001-0.001-0.003-0.002-0.004-0.002c-0.002-0.002-0.005-0.003-0.007-0.005c-0.001-0.001-0.002-0.002-0.004-0.002
				c-0.004-0.003-0.008-0.005-0.012-0.008c-0.002-0.001-0.003-0.002-0.005-0.003c-0.002-0.001-0.004-0.003-0.006-0.004
				c-0.002-0.001-0.004-0.002-0.005-0.003c-0.003-0.002-0.005-0.003-0.008-0.005c-0.002-0.002-0.005-0.003-0.008-0.005
				c-0.002-0.001-0.004-0.003-0.006-0.004c-0.002-0.001-0.004-0.003-0.006-0.004c-0.002-0.001-0.004-0.002-0.006-0.004
				c-0.003-0.002-0.005-0.003-0.008-0.005c-0.002-0.001-0.005-0.003-0.007-0.004c-0.002-0.002-0.005-0.003-0.007-0.004
				c-0.002-0.001-0.004-0.002-0.005-0.003c-0.002-0.001-0.004-0.003-0.006-0.004c-0.002-0.001-0.004-0.002-0.005-0.003
				c-0.003-0.002-0.007-0.005-0.01-0.007c-0.001-0.001-0.003-0.002-0.005-0.003c-0.002-0.002-0.005-0.003-0.007-0.005
				c-0.002-0.001-0.003-0.002-0.005-0.003c-0.003-0.002-0.005-0.003-0.008-0.005c-0.001-0.001-0.003-0.002-0.004-0.003
				c-0.003-0.002-0.007-0.005-0.01-0.007c-0.001-0.001-0.003-0.002-0.004-0.003c-0.003-0.002-0.005-0.003-0.008-0.005
				c-0.001-0.001-0.003-0.002-0.004-0.003c-0.004-0.002-0.008-0.005-0.011-0.007c-0.001-0.001-0.002-0.001-0.003-0.002
				c-0.003-0.002-0.007-0.004-0.009-0.006c-0.001-0.001-0.002-0.002-0.004-0.002c-0.003-0.002-0.006-0.004-0.009-0.006
				c-0.001-0.001-0.002-0.001-0.003-0.002c-0.004-0.003-0.008-0.005-0.012-0.008c-0.001,0-0.002-0.001-0.003-0.002
				c-0.004-0.002-0.006-0.004-0.01-0.006c-0.001-0.001-0.002-0.001-0.003-0.002c-0.008-0.005-0.016-0.01-0.024-0.016
				c-0.001-0.001-0.002-0.001-0.003-0.002c-0.004-0.002-0.007-0.004-0.01-0.007c-0.001,0-0.001-0.001-0.002-0.001
				c-0.004-0.003-0.008-0.005-0.012-0.008c0,0-0.001-0.001-0.001-0.001c-0.003-0.002-0.007-0.005-0.011-0.007
				c-0.001,0-0.001-0.001-0.002-0.001c-0.004-0.003-0.008-0.005-0.012-0.008c0,0,0,0,0,0c-0.004-0.003-0.008-0.005-0.012-0.008
				c0,0-0.001-0.001-0.001-0.001c-0.004-0.003-0.007-0.005-0.011-0.008c0,0-0.001-0.001-0.001-0.001
				c-0.008-0.005-0.017-0.011-0.025-0.017c0,0-0.001-0.001-0.001-0.001c-0.012-0.008-0.025-0.017-0.038-0.026c0,0,0,0-0.001,0
				c-0.009-0.006-0.017-0.011-0.025-0.017c0,0,0,0-0.001,0c-0.013-0.009-0.025-0.017-0.038-0.026c0,0,0,0-0.001-0.001
				c-0.034-0.023-0.068-0.047-0.102-0.071l0,0c-0.222-0.155-0.439-0.315-0.651-0.481l0,0c-0.02-0.016-0.041-0.032-0.061-0.048l0,0
				c-0.004-0.003-0.008-0.006-0.012-0.01c-0.008-0.006-0.016-0.013-0.024-0.019c0,0-0.001-0.001-0.001-0.001
				c-0.008-0.006-0.016-0.012-0.023-0.019c0,0-0.001-0.001-0.001-0.001c-0.004-0.003-0.007-0.006-0.011-0.008
				c0,0-0.001-0.001-0.001-0.001c-0.008-0.006-0.015-0.012-0.023-0.019c0,0-0.001-0.001-0.001-0.001
				c-0.004-0.003-0.007-0.006-0.011-0.009c0,0,0,0,0,0c-0.004-0.003-0.008-0.007-0.012-0.01c0,0-0.001,0-0.001-0.001
				c-0.003-0.003-0.007-0.005-0.01-0.008c-0.001-0.001-0.002-0.001-0.002-0.002c-0.007-0.006-0.015-0.012-0.022-0.018
				c-0.001-0.001-0.002-0.001-0.002-0.002c-0.003-0.003-0.006-0.005-0.009-0.008c-0.001-0.001-0.001-0.001-0.002-0.002
				c-0.004-0.003-0.007-0.006-0.011-0.009c0,0,0,0-0.001-0.001c-0.004-0.003-0.007-0.005-0.01-0.008
				c-0.001-0.001-0.002-0.001-0.002-0.002c-0.003-0.003-0.006-0.005-0.009-0.008c-0.001-0.001-0.001-0.001-0.002-0.002
				c-0.004-0.003-0.007-0.006-0.011-0.009c-0.001-0.001-0.002-0.001-0.003-0.002c-0.003-0.002-0.006-0.005-0.008-0.007
				c-0.001-0.001-0.002-0.002-0.004-0.003c-0.004-0.003-0.007-0.006-0.01-0.009c0,0-0.001,0-0.001-0.001
				c-0.003-0.003-0.007-0.005-0.01-0.008c-0.001-0.001-0.002-0.002-0.004-0.003c-0.003-0.002-0.005-0.004-0.008-0.006
				c-0.001-0.001-0.002-0.002-0.003-0.003c-0.003-0.003-0.007-0.005-0.01-0.008c-0.001-0.001-0.003-0.002-0.004-0.003
				c-0.002-0.002-0.005-0.004-0.007-0.006c-0.001-0.001-0.003-0.003-0.004-0.004c-0.002-0.002-0.004-0.003-0.006-0.005
				c-0.002-0.002-0.004-0.003-0.006-0.005c-0.003-0.002-0.005-0.004-0.007-0.006c-0.002-0.001-0.003-0.003-0.005-0.004
				c-0.002-0.002-0.004-0.003-0.005-0.004c-0.002-0.002-0.004-0.003-0.006-0.005c-0.002-0.002-0.003-0.002-0.005-0.004
				c-0.003-0.003-0.007-0.006-0.01-0.008c-0.001-0.001-0.003-0.002-0.004-0.004c-0.002-0.002-0.004-0.003-0.006-0.005
				c-0.001-0.001-0.003-0.002-0.004-0.004c-0.007-0.006-0.014-0.012-0.021-0.018c-0.001-0.001-0.002-0.002-0.003-0.003
				c-0.002-0.002-0.004-0.004-0.007-0.006c-0.001-0.001-0.001-0.001-0.003-0.002c-0.005-0.004-0.01-0.009-0.015-0.013l0,0
				c-0.003-0.002-0.005-0.005-0.008-0.007c0,0-0.001-0.001-0.001-0.001c-0.002-0.002-0.004-0.003-0.006-0.005l-0.762-0.648
				l-1.296,1.524l0.762,0.648c1.154,0.982,2.433,1.804,3.801,2.445l0.906,0.424l0.849-1.811l-0.906-0.424
				C25.155,150.348,24.656,150.078,24.174,149.782z"/>
		</g>
	</g>
</g>
<g>
	<path fill="#F4F8F8" d="M79.01,118c-22.607,0-41-18.393-41-41s18.393-41,41-41s41,18.393,41,41S101.617,118,79.01,118z"/>
	<g>
		<path fill="#6088A0" d="M79.01,36.5c22.332,0,40.5,18.168,40.5,40.5s-18.168,40.5-40.5,40.5S38.51,99.332,38.51,77
			S56.678,36.5,79.01,36.5 M79.01,35.5c-22.92,0-41.5,18.58-41.5,41.5s18.58,41.5,41.5,41.5c22.92,0,41.5-18.58,41.5-41.5
			S101.93,35.5,79.01,35.5L79.01,35.5z"/>
	</g>
</g>
<polygon fill-rule="evenodd" clip-rule="evenodd" fill="#B2C7CD" points="107,2 107,32 137,32 "/>
<path fill="#6088A0" d="M92.704,78.306c-0.781-0.781-2.047-0.781-2.828,0l-8.867,8.867V59.511c0-1.104-0.896-2-2-2s-2,0.896-2,2
	v27.66l-8.865-8.865c-0.781-0.781-2.047-0.781-2.828,0s-0.781,2.047,0,2.828L79.01,94.828l13.694-13.694
	C93.485,80.353,93.485,79.087,92.704,78.306z"/>
</svg>
