<?xml version="1.0" encoding="utf-8"?>
<!-- Generator: Adobe Illustrator 19.1.0, SVG Export Plug-In . SVG Version: 6.00 Build 0)  -->
<!DOCTYPE svg PUBLIC "-//W3C//DTD SVG 1.1//EN" "http://www.w3.org/Graphics/SVG/1.1/DTD/svg11.dtd">
<svg version="1.1" id="Layer_1" xmlns="http://www.w3.org/2000/svg" xmlns:xlink="http://www.w3.org/1999/xlink" x="0px" y="0px"
	 viewBox="0 0 36 36" enable-background="new 0 0 36 36" xml:space="preserve">
<g>
	<g>
		<g>
			<circle fill="#00A389" cx="18" cy="18" r="18"/>
		</g>
	</g>
	<g>
		<path fill="#FFFFFF" d="M23.168,11C23.627,11,24,11.373,24,11.832v11.337C24,23.627,23.627,24,23.168,24H9.832
			C9.373,24,9,23.627,9,23.168V11.832C9,11.373,9.373,11,9.832,11H23.168 M23.168,10H9.832C8.82,10,8,10.82,8,11.832v11.337
			C8,24.18,8.82,25,9.832,25h13.337C24.18,25,25,24.18,25,23.168V11.832C25,10.82,24.18,10,23.168,10L23.168,10z"/>
	</g>
	<g>
		<path fill="#FFFFFF" d="M28,28.5c-0.4,0-0.777-0.156-1.061-0.439l-3.058-3.057C23.126,25.333,22.326,25.5,21.5,25.5
			c-3.309,0-6-2.691-6-6s2.691-6,6-6s6,2.691,6,6c0,1.319-0.437,2.596-1.238,3.641l2.799,2.799C29.344,26.223,29.5,26.6,29.5,27
			s-0.156,0.777-0.439,1.061S28.4,28.5,28,28.5z M21.5,16.5c-1.654,0-3,1.346-3,3s1.346,3,3,3s3-1.346,3-3S23.154,16.5,21.5,16.5z"
			/>
		<path fill="#00A389" d="M21.5,14c3.038,0,5.5,2.462,5.5,5.5c0,1.413-0.538,2.698-1.414,3.672l3.121,3.121
			c0.391,0.391,0.391,1.023,0,1.414C28.512,27.902,28.256,28,28,28s-0.512-0.098-0.707-0.293l-3.306-3.306
			C23.239,24.781,22.396,25,21.5,25c-3.038,0-5.5-2.462-5.5-5.5C16,16.462,18.462,14,21.5,14 M21.5,23c1.93,0,3.5-1.57,3.5-3.5
			S23.43,16,21.5,16c-1.93,0-3.5,1.57-3.5,3.5S19.57,23,21.5,23 M21.5,13c-3.584,0-6.5,2.916-6.5,6.5s2.916,6.5,6.5,6.5
			c0.78,0,1.539-0.137,2.263-0.409l2.823,2.823C26.964,28.792,27.466,29,28,29s1.036-0.208,1.414-0.586
			C29.792,28.036,30,27.534,30,27s-0.208-1.036-0.586-1.414l-2.499-2.499C27.62,22.027,28,20.783,28,19.5
			C28,15.916,25.084,13,21.5,13L21.5,13z M21.5,22c-1.378,0-2.5-1.122-2.5-2.5s1.122-2.5,2.5-2.5s2.5,1.122,2.5,2.5
			S22.878,22,21.5,22L21.5,22z"/>
	</g>
</g>
</svg>
