<?xml version="1.0" encoding="utf-8"?>
<!-- Generator: Adobe Illustrator 19.1.0, SVG Export Plug-In . SVG Version: 6.00 Build 0)  -->
<!DOCTYPE svg PUBLIC "-//W3C//DTD SVG 1.1//EN" "http://www.w3.org/Graphics/SVG/1.1/DTD/svg11.dtd">
<svg version="1.1" id="Layer_1" xmlns="http://www.w3.org/2000/svg" xmlns:xlink="http://www.w3.org/1999/xlink" x="0px" y="0px"
	 viewBox="0 0 24 24" enable-background="new 0 0 24 24" xml:space="preserve">
<g id="metadata">
</g>
<g id="like_icon">
</g>
<g id="fave_icon">
</g>
<g id="fave_icon_-_selected">
</g>
<g id="comment_icon_-_selected">
</g>
<g id="Comment_icon">
</g>
<g id="fave_icon_-_selected_1_">
</g>
<g id="like_icon_-_selected">
</g>
<g id="copy_x2F_move_icon">
</g>
<g id="download_icon_2">
</g>
<g id="share_icon_2">
</g>
<g id="reserve_icon">
</g>
<g id="edit_icon">
	<g id="edit_icon_2">
	</g>
	<g id="trash_icon">
		<g id="trash">
		</g>
	</g>
	<g>
		<circle fill="#333333" cx="17" cy="17" r="7"/>
	</g>
	<path fill="#FFFFFF" d="M22,15.38l-2.939-2.939c-0.244-0.244-0.639-0.244-0.883,0s-0.244,0.639,0,0.883l1.432,1.432h-0.99
		c-3.571,0-5.62,2.049-5.62,5.62C13,20.721,13.279,21,13.624,21c0.345,0,0.624-0.279,0.624-0.624c0-1.994,0.759-4.371,4.371-4.371
		h0.99l-1.432,1.432c-0.244,0.244-0.244,0.639,0,0.883c0.122,0.122,0.282,0.183,0.441,0.183s0.32-0.061,0.441-0.183L22,15.38z"/>
	<g>
		<path fill="#757575" d="M9,17c0-3.357,2.069-6.226,5-7.413V3l-3-3H2C0.895,0,0,0.895,0,2v14c0,1.105,0.895,2,2,2h7.069
			C9.028,17.672,9,17.339,9,17z"/>
	</g>
</g>
<g id="metadata_2">
</g>
</svg>
