<svg data-name="Layer 1" xmlns="http://www.w3.org/2000/svg" viewBox="0 0 24 24"><title>toolbar_edit_mo_1</title><path d="M22.941,7.186a3.627,3.627,0,0,0-.007-5.13h0A3.627,3.627,0,0,0,17.8,2.05L16.513,3.341,21.65,8.478Z" fill="#627783"/><path d="M16,20.324a1.669,1.669,0,0,1-1.667,1.667H2.667A1.669,1.669,0,0,1,1,20.324V3.658A1.669,1.669,0,0,1,2.667,1.991h9.919L14.58,3.985l0,0,.64-.64.063-.063L13,.991H2.667A2.667,2.667,0,0,0,0,3.658V20.324a2.667,2.667,0,0,0,2.667,2.667H14.333A2.667,2.667,0,0,0,17,20.324V14.416l-1,1Z" fill="#90a3af"/><polygon points="7.524 12.33 6.24 18.751 12.661 17.467 20.366 9.762 15.229 4.625 7.524 12.33" fill="#627783"/></svg>