<?xml version="1.0" encoding="utf-8"?>
<!-- Generator: Adobe Illustrator 19.1.0, SVG Export Plug-In . SVG Version: 6.00 Build 0)  -->
<svg version="1.1" id="Layer_1" xmlns="http://www.w3.org/2000/svg" xmlns:xlink="http://www.w3.org/1999/xlink" x="0px" y="0px"
	 viewBox="0 0 24 24" enable-background="new 0 0 24 24" xml:space="preserve">
<g>
	<g>
		<g>
			<path fill="#FFFFFF" d="M2,19.5c-0.827,0-1.5-0.673-1.5-1.5V2c0-0.827,0.673-1.5,1.5-1.5h9.793L15.5,4.207V18
				c0,0.827-0.673,1.5-1.5,1.5H2z"/>
			<path fill="#333333" d="M11.586,1L15,4.414V18c0,0.551-0.449,1-1,1H2c-0.551,0-1-0.449-1-1V2c0-0.551,0.449-1,1-1H11.586 M12,0H2
				C0.896,0,0,0.896,0,2v16c0,1.104,0.896,2,2,2h12c1.104,0,2-0.896,2-2V4L12,0z"/>
			<path fill="#333333" d="M16,23.5c-4.136,0-7.5-3.364-7.5-7.5s3.364-7.5,7.5-7.5s7.5,3.364,7.5,7.5S20.136,23.5,16,23.5"/>
			<path fill="#FFFFFF" d="M16,9c3.866,0,7,3.134,7,7s-3.134,7-7,7s-7-3.134-7-7S12.134,9,16,9 M16,8c-4.411,0-8,3.589-8,8
				s3.589,8,8,8s8-3.589,8-8S20.411,8,16,8"/>
		</g>
	</g>
	
		<line fill="none" stroke="#FFFFFF" stroke-width="2" stroke-linecap="round" stroke-miterlimit="10" x1="12.241" y1="15.941" x2="19.828" y2="15.941"/>
</g>
</svg>
