<svg data-name="Layer 1" xmlns="http://www.w3.org/2000/svg" viewBox="0 0 32 32"><title>virtual_folder_nonselectable32</title><path d="M1.5,27.493V6.507a2,2,0,0,1,2-2h7.9a2.132,2.132,0,0,1,1.319.46L16.385,8.2A1.012,1.012,0,0,0,17,8.493H27.5a2,2,0,0,1,2,2v17Z" fill="#797979"/><path d="M3,25.993H28v-14a1,1,0,0,0-1-1H4a1,1,0,0,0-1,1Z" fill="#8f8f8f"/><polygon points="3.001 25.993 28.001 25.993 28.001 12.993 3.001 25.993" fill="#898989"/><polygon points="22.006 13.991 9.009 13.991 9.009 20.988 12.644 20.988 22.006 16.12 22.006 13.991" fill="#898989"/><path d="M22.025,13.971H8.985a.981.981,0,0,0-.979.979v7.039a.981.981,0,0,0,.979.979H14L14,24h-.5a.5.5,0,0,0,0,1h4a.5.5,0,0,0,0-1H17l0-1.032h5.02A.981.981,0,0,0,23,21.99V14.95A.98.98,0,0,0,22.025,13.971Z" fill="#797979"/><path d="M22.025,12.984H8.985a.981.981,0,0,0-.979.979V21a.981.981,0,0,0,.979.981H14v1.03h-.5a.5.5,0,0,0,0,1h4a.5.5,0,0,0,0-1H17v-1.03h5.02A.981.981,0,0,0,23,21V13.963A.981.981,0,0,0,22.025,12.984Z" fill="#fff"/><rect x="9.008" y="13.992" width="12.997" height="6.997" fill="#797979"/><path d="M11.4,5.007a1.628,1.628,0,0,1,1.009.351L16.057,8.58A1.522,1.522,0,0,0,17,8.993H27.5a1.5,1.5,0,0,1,1.5,1.5v16.5H2V6.507a1.5,1.5,0,0,1,1.5-1.5h7.9m0-1H3.5A2.5,2.5,0,0,0,1,6.507V27.993H30v-17.5a2.5,2.5,0,0,0-2.5-2.5H17a.711.711,0,0,1-.3-.183l-3.626-3.2-.02-.018-.022-.016a2.633,2.633,0,0,0-1.63-.567h0Z" fill="#fff"/><path d="M29,17.29V27H16.37a8.088,8.088,0,0,1-.23-1A8.285,8.285,0,0,1,16,24.5,8.506,8.506,0,0,1,24.5,16a8.364,8.364,0,0,1,3.5.76A7.34,7.34,0,0,1,29,17.29Z" fill="#fff"/><g opacity="0.8"><circle cx="24.5" cy="24.5" r="6.5" fill="#fff"/></g><path d="M24.5,17A7.5,7.5,0,1,0,32,24.5,7.5,7.5,0,0,0,24.5,17Zm0,13a5.5,5.5,0,0,1-4.53-8.62l7.65,7.65A5.492,5.492,0,0,1,24.5,30Zm4.53-2.38-7.65-7.65a5.5,5.5,0,0,1,7.65,7.65Z" fill="#cd3632"/></svg>