<svg version="1.1" xmlns="http://www.w3.org/2000/svg" xmlns:xlink="http://www.w3.org/1999/xlink" x="0px" y="0px" viewBox="0 0 24 24" style="enable-background:new 0 0 24 24;" xml:space="preserve"><g><g><circle cx="12" cy="12" r="12" fill="#D86D00"/></g><g><g><g><path d="M23.055,10.822l-2.4,4.6l-2.787-4.373l1.893-0.08c-0.373-2.64-2.04-4.907-4.507-6.027
					c-3.92-1.787-8.547-0.04-10.333,3.867c-1.227,2.693-0.84,5.813,1.013,8.12l-1.04,0.827c-2.16-2.693-2.613-6.333-1.187-9.493
					c2.08-4.587,7.507-6.627,12.093-4.533c2.92,1.32,4.907,4.027,5.293,7.173L23.055,10.822z" fill="#FFFFFF"/></g></g></g><g><g><path d="M19.467,16.937c0.233,0.176,0.275,0.456,0.109,0.674c-0.168,0.22-0.445,0.246-0.676,0.068
				c-0.225-0.171-0.283-0.444-0.105-0.674C18.961,16.784,19.245,16.764,19.467,16.937z" fill="#FFFFFF"/></g><g><path d="M18.534,18.067c0.198,0.212,0.193,0.495-0.008,0.684c-0.202,0.187-0.478,0.165-0.675-0.046
				c-0.194-0.207-0.207-0.486,0.005-0.685C18.058,17.833,18.34,17.86,18.534,18.067z" fill="#FFFFFF"/></g><g><path d="M17.423,19.032c0.16,0.242,0.11,0.522-0.119,0.673c-0.229,0.152-0.5,0.087-0.66-0.155
				c-0.156-0.237-0.123-0.513,0.12-0.673C16.992,18.725,17.265,18.797,17.423,19.032z" fill="#FFFFFF"/></g><g><path d="M16.158,19.81c0.119,0.265,0.022,0.532-0.229,0.644c-0.252,0.113-0.508,0.003-0.625-0.263
				c-0.116-0.26-0.037-0.526,0.228-0.644C15.783,19.434,16.043,19.55,16.158,19.81z" fill="#FFFFFF"/></g><g><path d="M14.787,20.361c0.072,0.28-0.069,0.528-0.334,0.595c-0.267,0.069-0.5-0.082-0.572-0.364
				c-0.072-0.274,0.054-0.524,0.334-0.595C14.483,19.927,14.718,20.086,14.787,20.361z" fill="#FFFFFF"/></g><g><path d="M13.348,20.673c0.024,0.289-0.155,0.51-0.428,0.533c-0.272,0.023-0.479-0.164-0.503-0.453
				c-0.024-0.281,0.138-0.509,0.427-0.533C13.117,20.196,13.325,20.391,13.348,20.673z" fill="#FFFFFF"/></g><g><path d="M11.867,20.748c-0.022,0.289-0.235,0.477-0.509,0.455c-0.275-0.022-0.445-0.24-0.422-0.529
				c0.023-0.284,0.219-0.481,0.51-0.458C11.72,20.239,11.892,20.466,11.867,20.748z" fill="#FFFFFF"/></g><g><path d="M10.419,20.581c-0.072,0.281-0.312,0.431-0.578,0.364c-0.266-0.066-0.4-0.311-0.33-0.593
				c0.07-0.274,0.297-0.437,0.581-0.363C10.358,20.054,10.489,20.306,10.419,20.581z" fill="#FFFFFF"/></g><g><path d="M8.969,20.156c-0.116,0.266-0.378,0.375-0.632,0.263c-0.251-0.11-0.34-0.373-0.224-0.641
				c0.114-0.258,0.364-0.38,0.63-0.262C8.998,19.627,9.085,19.898,8.969,20.156z" fill="#FFFFFF"/></g><g><path d="M7.668,19.528c-0.16,0.243-0.435,0.307-0.665,0.156c-0.23-0.15-0.276-0.425-0.116-0.666
				c0.155-0.237,0.421-0.316,0.664-0.156C7.78,19.012,7.821,19.293,7.668,19.528z" fill="#FFFFFF"/></g><g><path d="M6.451,18.668c-0.197,0.214-0.481,0.231-0.683,0.046c-0.203-0.187-0.203-0.464-0.008-0.679
				c0.193-0.21,0.471-0.243,0.684-0.046C6.647,18.176,6.642,18.459,6.451,18.668z" fill="#FFFFFF"/></g></g><g><path d="M11.709,13.905c-0.156,0-0.312-0.055-0.438-0.164l-2.689-2.338c-0.278-0.242-0.307-0.663-0.066-0.941
			c0.243-0.279,0.663-0.306,0.941-0.066l2.248,1.955l4.062-3.592c0.272-0.243,0.695-0.22,0.94,0.058
			c0.245,0.275,0.219,0.697-0.057,0.941l-4.499,3.98C12.025,13.849,11.867,13.905,11.709,13.905z" fill="#FFFFFF"/></g></g></svg>