<?xml version="1.0" encoding="utf-8"?>
<!-- Generator: Adobe Illustrator 19.2.1, SVG Export Plug-In . SVG Version: 6.00 Build 0)  -->
<svg version="1.1" id="Layer_1" xmlns="http://www.w3.org/2000/svg" xmlns:xlink="http://www.w3.org/1999/xlink" x="0px" y="0px"
	 viewBox="0 0 32 32" style="enable-background:new 0 0 32 32;" xml:space="preserve">
<style type="text/css">
	.st0{fill:#B36601;}
	.st1{fill:#FFFFFF;}
	.st2{fill:#E3992E;}
	.st3{fill:#DD8100;}
</style>
<g>
	<g>
		<g>
			<path class="st0" d="M1.5,27.5v-21c0-1.1,0.9-2,2.1-2h8.2c0.5,0,0.9,0.2,1.3,0.5l3.8,3.2c0.3,0.2,0.4,0.3,0.6,0.3h10.9
				c1.1,0,2.1,0.9,2.1,2v17H1.5z"/>
		</g>
		<g>
			<g>
				<path class="st1" d="M11.8,5c0.4,0,0.7,0.1,1,0.4l3.7,3.2C16.8,8.8,17.1,9,17.4,9h10.9c0.8,0,1.7,0.7,1.7,1.5V27H2V6.5
					C2,5.7,2.7,5,3.6,5H11.8 M11.8,4H3.6C2.1,4,1,5.1,1,6.5V27v1h1H30h1v-1V10.5C31,9.1,29.9,8,28.4,8H17.6c0,0-0.1,0-0.3-0.2
					l-3.7-3.2l0,0l0,0C13,4.2,12.4,4,11.8,4L11.8,4z"/>
			</g>
		</g>
	</g>
</g>
<g>
	<path class="st2" d="M28,11H4c-0.6,0-1,0.4-1,1v14l26-13v-1C29,11.5,28.6,11,28,11z"/>
</g>
<g>
	<polygon class="st3" points="29,26 29,13 3.1,26 	"/>
</g>
<g>
	<g>
		<g>
			<path class="st0" d="M9,17.9v-3.9c0-0.6,0.4-1.1,1.1-1.1h3.9c0.6,0,1.1,0.4,1.1,1.1v3.9c0,0.6-0.4,1.1-1.1,1.1h-3.9
				C9.4,19,9,18.5,9,17.9z"/>
		</g>
	</g>
</g>
<g>
	<g>
		<g>
			<path class="st0" d="M16,17.9v-3.9c0-0.6,0.4-1.1,1.1-1.1h3.9c0.6,0,1.1,0.4,1.1,1.1v3.9c0,0.6-0.4,1.1-1.1,1.1h-3.9
				C16.4,19,16,18.5,16,17.9z"/>
		</g>
	</g>
</g>
<g>
	<g>
		<g>
			<path class="st0" d="M9,24.9v-3.9c0-0.6,0.4-1.1,1.1-1.1h3.9c0.6,0,1.1,0.4,1.1,1.1v3.9c0,0.6-0.4,1.1-1.1,1.1h-3.9
				C9.4,26,9,25.5,9,24.9z"/>
		</g>
	</g>
</g>
<g>
	<g>
		<g>
			<path class="st0" d="M16,24.9v-3.9c0-0.6,0.4-1.1,1.1-1.1h3.9c0.6,0,1.1,0.4,1.1,1.1v3.9c0,0.6-0.4,1.1-1.1,1.1h-3.9
				C16.4,26,16,25.5,16,24.9z"/>
		</g>
	</g>
</g>
<g>
	<g>
		<g>
			<path class="st1" d="M9,16.9v-3.9c0-0.6,0.4-1.1,1.1-1.1h3.9c0.6,0,1.1,0.4,1.1,1.1v3.9c0,0.6-0.4,1.1-1.1,1.1h-3.9
				C9.4,18,9,17.5,9,16.9z"/>
		</g>
	</g>
</g>
<g>
	<g>
		<g>
			<path class="st1" d="M16,16.9v-3.9c0-0.6,0.4-1.1,1.1-1.1h3.9c0.6,0,1.1,0.4,1.1,1.1v3.9c0,0.6-0.4,1.1-1.1,1.1h-3.9
				C16.4,18,16,17.5,16,16.9z"/>
		</g>
	</g>
</g>
<g>
	<g>
		<g>
			<path class="st1" d="M9,23.9v-3.9c0-0.6,0.4-1.1,1.1-1.1h3.9c0.6,0,1.1,0.4,1.1,1.1v3.9c0,0.6-0.4,1.1-1.1,1.1h-3.9
				C9.4,25,9,24.5,9,23.9z"/>
		</g>
	</g>
</g>
<g>
	<g>
		<g>
			<path class="st1" d="M16,23.9v-3.9c0-0.6,0.4-1.1,1.1-1.1h3.9c0.6,0,1.1,0.4,1.1,1.1v3.9c0,0.6-0.4,1.1-1.1,1.1h-3.9
				C16.4,25,16,24.5,16,23.9z"/>
		</g>
	</g>
</g>
</svg>
