<?xml version="1.0" encoding="utf-8"?>
<!-- Generator: Adobe Illustrator 19.1.0, SVG Export Plug-In . SVG Version: 6.00 Build 0)  -->
<!DOCTYPE svg PUBLIC "-//W3C//DTD SVG 1.1//EN" "http://www.w3.org/Graphics/SVG/1.1/DTD/svg11.dtd">
<svg version="1.1" id="Layer_1" xmlns="http://www.w3.org/2000/svg" xmlns:xlink="http://www.w3.org/1999/xlink" x="0px" y="0px"
	 viewBox="0 0 24 24" enable-background="new 0 0 24 24" xml:space="preserve">
<g id="metadata">
</g>
<g id="like_icon">
</g>
<g id="fave_icon">
	<path fill="#FFFFFF" fill-opacity="0" stroke="#FFFFFF" stroke-miterlimit="10" d="M12.448,3.016l2.614,5.297c0.073,0.148,0.214,0.25,0.376,0.274
		l5.846,0.849c0.41,0.06,0.574,0.564,0.277,0.853l-4.23,4.123c-0.118,0.115-0.172,0.28-0.144,0.443l0.999,5.822
		c0.07,0.408-0.359,0.72-0.725,0.527l-5.228-2.749c-0.146-0.077-0.32-0.077-0.465,0L6.54,21.204
		c-0.367,0.193-0.796-0.119-0.725-0.527l0.999-5.822c0.028-0.162-0.026-0.328-0.144-0.443l-4.23-4.123
		C2.141,10,2.305,9.496,2.715,9.436l5.846-0.849c0.163-0.024,0.304-0.126,0.376-0.274l2.614-5.297
		C11.735,2.645,12.265,2.645,12.448,3.016z"/>
</g>
<g id="fave_icon_-_selected">
</g>
<g id="comment_icon_-_selected">
</g>
<g id="Comment_icon">
</g>
<g id="fave_icon_-_selected_1_">
</g>
<g id="like_icon_-_selected">
</g>
</svg>
