<?xml version="1.0" encoding="utf-8"?>
<!-- Generator: Adobe Illustrator 21.0.0, SVG Export Plug-In . SVG Version: 6.00 Build 0)  -->
<svg version="1.1" id="Layer_1" xmlns="http://www.w3.org/2000/svg" xmlns:xlink="http://www.w3.org/1999/xlink" x="0px" y="0px"
	 viewBox="0 0 32 32" style="enable-background:new 0 0 32 32;" xml:space="preserve">
<style type="text/css">
	.st0{fill:#CCCCCC;}
	.st1{fill:#333333;}
</style>
<title>Asset 1</title>
<g id="Layer_2">
	<g id="Layer_1-2">
		<g>
			<path class="st0" d="M16,3c7.18,0,13,5.82,13,13s-5.82,13-13,13S3,23.18,3,16S8.82,3,16,3 M16,2C8.268,2,2,8.268,2,16
				s6.268,14,14,14s14-6.268,14-14S23.732,2,16,2z"/>
		</g>
		<path class="st1" d="M22.707,21.293l-3.147-3.147c0.666-0.945,1.06-2.094,1.06-3.336c0-3.204-2.606-5.81-5.81-5.81h-0.002
			C11.612,9.007,9.007,11.612,9,14.81c0,3.204,2.606,5.81,5.81,5.81c1.241,0,2.39-0.395,3.336-1.06l3.147,3.147
			C21.488,22.902,21.744,23,22,23s0.512-0.098,0.707-0.293C23.098,22.316,23.098,21.684,22.707,21.293z M11,14.812
			c0.004-2.098,1.714-3.808,3.812-3.812c2.1,0.001,3.808,1.71,3.808,3.81c0,2.101-1.709,3.81-3.81,3.81S11,16.911,11,14.812z"/>
	</g>
</g>
</svg>
