<?xml version="1.0" encoding="utf-8"?>
<!-- Generator: Adobe Illustrator 19.1.0, SVG Export Plug-In . SVG Version: 6.00 Build 0)  -->
<!DOCTYPE svg PUBLIC "-//W3C//DTD SVG 1.1//EN" "http://www.w3.org/Graphics/SVG/1.1/DTD/svg11.dtd">
<svg version="1.1" id="Layer_1" xmlns="http://www.w3.org/2000/svg" xmlns:xlink="http://www.w3.org/1999/xlink" x="0px" y="0px"
	 viewBox="-624 336 30 30" style="enable-background:new -624 336 30 30;" xml:space="preserve">
<style type="text/css">
	.st0{fill:#FFFFFF;}
</style>
<g>
	<g>
		<path class="st0" d="M-609,337.5c7.4,0,13.5,6.1,13.5,13.5s-6.1,13.5-13.5,13.5s-13.5-6.1-13.5-13.5S-616.4,337.5-609,337.5
			 M-609,336c-8.3,0-15,6.7-15,15s6.7,15,15,15s15-6.7,15-15S-600.7,336-609,336L-609,336z"/>
	</g>
</g>
<path class="st0" d="M-603.5,355.4l-4.4-4.4l4.4-4.4c0.1-0.1,0.2-0.3,0.2-0.5c0-0.2-0.1-0.4-0.2-0.5c-0.3-0.3-0.8-0.3-1.1,0
	l-4.4,4.4l-4.4-4.4c-0.1-0.1-0.3-0.2-0.5-0.2c0,0,0,0,0,0c-0.2,0-0.4,0.1-0.5,0.2c-0.1,0.1-0.2,0.3-0.2,0.5c0,0.2,0.1,0.4,0.2,0.5
	l4.4,4.4l-4.4,4.4c-0.3,0.3-0.3,0.8,0,1.1c0.3,0.3,0.8,0.3,1.1,0l4.4-4.4l4.4,4.4c0.1,0.1,0.3,0.2,0.5,0.2c0.2,0,0.4-0.1,0.5-0.2
	C-603.2,356.2-603.2,355.7-603.5,355.4z"/>
</svg>
