<svg xmlns="http://www.w3.org/2000/svg" viewBox="0 0 42 42"><title>header_help42_mo</title><path d="M22.2,18.8c1.5-1,2.8-1.9,2.8-3.6,0-1.6-1.3-3.1-3.9-3.1a6.032,6.032,0,0,0-5.2,2.7L14.2,13a8.925,8.925,0,0,1,7.2-3.4c4,0,6.5,2.3,6.5,5.1S26,18.8,24.2,20c-1.4,1-2.7,1.8-2.7,3.3a2.059,2.059,0,0,0,.9,1.6l-2,.9a3.5,3.5,0,0,1-1.3-2.7C19,21,20.7,19.9,22.2,18.8ZM21,28.7a1.8,1.8,0,1,1-1.8,1.8A1.793,1.793,0,0,1,21,28.7Z" fill="#0072aa"/><path d="M21,1.952A19.048,19.048,0,1,1,1.952,21,19.1,19.1,0,0,1,21,1.952M21,1A20,20,0,1,0,41,21,20,20,0,0,0,21,1Z" fill="#666"/></svg>