<?xml version="1.0" encoding="utf-8"?>
<!-- Generator: Adobe Illustrator 22.0.0, SVG Export Plug-In . SVG Version: 6.00 Build 0)  -->
<svg version="1.1" id="Layer_1" xmlns="http://www.w3.org/2000/svg" xmlns:xlink="http://www.w3.org/1999/xlink" x="0px" y="0px"
	 viewBox="0 0 42 42" style="enable-background:new 0 0 42 42;" xml:space="preserve">
<style type="text/css">
	.st0{fill:#DCDCDC;}
	.st1{fill:#0072AA;}
</style>
<path class="st0" d="M20.8,2C31.3,1.8,39.9,10.3,40,20.8S31.7,39.9,21.2,40C10.7,40.2,2.1,31.7,2,21.2C1.9,10.7,10.3,2.1,20.8,2
	 M20.8,1C9.7,1.1,0.9,10.2,1,21.2S10.2,41.1,21.2,41c11-0.1,19.9-9.2,19.8-20.2C40.9,9.7,31.8,0.9,20.8,1C20.8,1,20.8,1,20.8,1z"/>
<path class="st1" d="M22.2,18.8c1.5-1,2.8-1.9,2.8-3.6c0-1.6-1.3-3.1-3.9-3.1c-2.1-0.1-4,1-5.2,2.7L14.2,13c1.7-2.2,4.4-3.5,7.2-3.4
	c4,0,6.5,2.3,6.5,5.1S26,18.8,24.2,20c-1.4,1-2.7,1.8-2.7,3.3c0,0.6,0.4,1.2,0.9,1.6l-2,0.9c-0.8-0.7-1.3-1.7-1.3-2.7
	C19,21,20.7,19.9,22.2,18.8z M21,28.7c1,0,1.8,0.8,1.8,1.8S22,32.3,21,32.3c-1,0-1.8-0.8-1.8-1.8c0,0,0,0,0,0
	C19.2,29.5,20,28.7,21,28.7C21,28.7,21,28.7,21,28.7z"/>
</svg>
