<svg id="Layer_1" data-name="Layer 1" xmlns="http://www.w3.org/2000/svg" viewBox="0 0 24 24"><defs><style>.cls-1,.cls-2{fill:#666;}.cls-2{opacity:0.4;}</style></defs><title>toolbar_workflowArtboard 2 copy 2</title><path class="cls-1" d="M7,15H5v4a2,2,0,0,0,2,2h8V19H7Z"/><path class="cls-1" d="M7,3A2,2,0,0,0,5,5V9H7V5h8V3Z"/><rect class="cls-2" x="14.4" y="1.4" width="6.2" height="6.2" rx="1.1" ry="1.1"/><path class="cls-1" d="M19.5,2a.5.5,0,0,1,.5.5v4a.5.5,0,0,1-.5.5h-4a.5.5,0,0,1-.5-.5v-4a.5.5,0,0,1,.5-.5h4m0-1.2h-4a1.7,1.7,0,0,0-1.7,1.7v4a1.7,1.7,0,0,0,1.7,1.7h4a1.7,1.7,0,0,0,1.7-1.7v-4A1.7,1.7,0,0,0,19.5.8Z"/><rect class="cls-2" x="14.4" y="16.4" width="6.2" height="6.2" rx="1.1" ry="1.1"/><path class="cls-1" d="M19.5,17a.5.5,0,0,1,.5.5v4a.5.5,0,0,1-.5.5h-4a.5.5,0,0,1-.5-.5v-4a.5.5,0,0,1,.5-.5h4m0-1.2h-4a1.7,1.7,0,0,0-1.7,1.7v4a1.7,1.7,0,0,0,1.7,1.7h4a1.7,1.7,0,0,0,1.7-1.7v-4a1.7,1.7,0,0,0-1.7-1.7Z"/><rect class="cls-2" x="2.4" y="8.9" width="6.2" height="6.2" rx="1.1" ry="1.1"/><path class="cls-1" d="M7.5,9.5A.5.5,0,0,1,8,10v4a.5.5,0,0,1-.5.5h-4A.5.5,0,0,1,3,14V10a.5.5,0,0,1,.5-.5h4m0-1.2h-4A1.7,1.7,0,0,0,1.8,10v4a1.7,1.7,0,0,0,1.7,1.7h4A1.7,1.7,0,0,0,9.2,14V10A1.7,1.7,0,0,0,7.5,8.3Z"/></svg>