<svg id="Layer_1" data-name="Layer 1" xmlns="http://www.w3.org/2000/svg" viewBox="0 0 56 56"><title>Artboard 2follow_up_toggle32</title><path d="M28,0A28,28,0,1,1,0,28,28,28,0,0,1,28,0" style="fill:#fff"/><path d="M28,4A24,24,0,1,1,4,28,24,24,0,0,1,28,4" style="fill:#067d14"/><path d="M14.971,28.931A3.148,3.148,0,0,1,14,26.542a2.451,2.451,0,0,1,1.03-1.83,3.573,3.573,0,0,1,2.138-.794,2.761,2.761,0,0,1,1.975.852l5.918,6.178L37.917,17.855a2.982,2.982,0,0,1,4.179,0,3.106,3.106,0,0,1,.891,2,2.4,2.4,0,0,1-.6,1.857L25.06,39Z" style="fill:#dcf2de"/></svg>