<svg xmlns="http://www.w3.org/2000/svg" viewBox="0 0 42 42"><title>header_favourite42</title><path d="M20.788,1.954A19.047,19.047,0,1,1,1.954,21.212,19.1,19.1,0,0,1,20.788,1.954M20.777,1A20,20,0,1,0,41,20.777,20,20,0,0,0,20.777,1Z" fill="#dcdcdc"/><path d="M21.292,11.3l2.659,5.271c.1.1.2.3.4.295l5.809.736a.44.44,0,0,1,.406.6c0,.1-.1.2-.1.3l-4.154,4.147c-.1.1-.2.3-.1.4l1.065,5.788a.55.55,0,0,1-.394.605.367.367,0,0,1-.3-.1L21.364,26.7a.447.447,0,0,0-.5.006l-5.17,2.758a.663.663,0,0,1-.7-.193.369.369,0,0,1-.1-.3l.936-5.811c0-.2,0-.3-.105-.4l-4.245-4.053a.483.483,0,0,1-.008-.7.367.367,0,0,1,.3-.1l5.791-.865c.2,0,.3-.1.4-.3l2.541-5.329a.575.575,0,0,1,.7-.208C21.19,11.1,21.291,11.2,21.292,11.3Z" fill="#333"/></svg>