<?xml version="1.0" encoding="UTF-8"?>
<!-- Generator: Adobe Illustrator 18.1.0, SVG Export Plug-In . SVG Version: 6.00 Build 0)  -->
<!DOCTYPE svg PUBLIC "-//W3C//DTD SVG 1.1//EN" "http://www.w3.org/Graphics/SVG/1.1/DTD/svg11.dtd">
<svg version="1.1" id="Layer_1" xmlns="http://www.w3.org/2000/svg" xmlns:xlink="http://www.w3.org/1999/xlink" x="0px" y="0px" viewBox="0 0 24 24" enable-background="new 0 0 24 24" xml:space="preserve">
<path fill="#333333" d="M23.804,11.137l-11.5-8.846c-0.179-0.138-0.429-0.138-0.608,0l-11.5,8.846  c-0.377,0.29-0.172,0.894,0.304,0.894h2.025c0.275,0,0.499,0.223,0.499,0.499v9.974c0,0.275,0.223,0.499,0.499,0.499h4.956  c0.275,0,0.499-0.223,0.499-0.499v-7.283c0-1.22,0.989-2.208,2.208-2.208h1.599c1.22,0,2.208,0.989,2.208,2.208v7.283  c0,0.275,0.223,0.499,0.499,0.499h4.956c0.275,0,0.499-0.223,0.499-0.499V12.53c0-0.275,0.223-0.499,0.499-0.499H23.5  C23.977,12.031,24.182,11.428,23.804,11.137z"/>
<g id="metadata">
</g>
</svg>