<?xml version="1.0" encoding="utf-8"?>
<!-- Generator: Adobe Illustrator 19.1.0, SVG Export Plug-In . SVG Version: 6.00 Build 0)  -->
<!DOCTYPE svg PUBLIC "-//W3C//DTD SVG 1.1//EN" "http://www.w3.org/Graphics/SVG/1.1/DTD/svg11.dtd">
<svg version="1.1" id="Layer_1" xmlns="http://www.w3.org/2000/svg" xmlns:xlink="http://www.w3.org/1999/xlink" x="0px" y="0px"
	 viewBox="-386 298 18 18" enable-background="new -386 298 18 18" xml:space="preserve">
<g>
	<path class="ql_bg" opacity="0.75" fill="#333333" enable-background="new    " d="M-377,314.5c-4.136,0-7.5-3.364-7.5-7.5s3.364-7.5,7.5-7.5
		s7.5,3.364,7.5,7.5S-372.864,314.5-377,314.5z"/>
	<path class="ql_arrow" fill="#F7F7F7" d="M-377,299c-4.418,0-8,3.582-8,8s3.582,8,8,8s8-3.582,8-8S-372.582,299-377,299z M-377,314
		c-1.75,0-3.349-0.65-4.577-1.716l7.077-7.077V310c0,0.276,0.224,0.5,0.5,0.5s0.5-0.224,0.5-0.5v-6.5h-6.5
		c-0.276,0-0.5,0.224-0.5,0.5s0.224,0.5,0.5,0.5h4.793l-7.077,7.077C-383.35,310.349-384,308.75-384,307c0-3.86,3.14-7,7-7
		s7,3.14,7,7S-373.14,314-377,314z"/>
</g>
</svg>
