<svg width="32" height="32" viewBox="0 0 32 32" fill="none" xmlns="http://www.w3.org/2000/svg">
<circle cx="16" cy="16" r="14" fill="#F3FBFF"/>
<path fill-rule="evenodd" clip-rule="evenodd" d="M9.25 18C10.4926 18 11.5 16.9926 11.5 15.75C11.5 14.5074 10.4926 13.5 9.25 13.5C8.00736 13.5 7 14.5074 7 15.75C7 16.9926 8.00736 18 9.25 18ZM16 18C17.2426 18 18.25 16.9926 18.25 15.75C18.25 14.5074 17.2426 13.5 16 13.5C14.7574 13.5 13.75 14.5074 13.75 15.75C13.75 16.9926 14.7574 18 16 18ZM25 15.75C25 16.9926 23.9926 18 22.75 18C21.5074 18 20.5 16.9926 20.5 15.75C20.5 14.5074 21.5074 13.5 22.75 13.5C23.9926 13.5 25 14.5074 25 15.75Z" fill="#627783"/>
</svg>
