<?xml version="1.0" encoding="utf-8"?>
<!-- Generator: Adobe Illustrator 19.1.0, SVG Export Plug-In . SVG Version: 6.00 Build 0)  -->
<!DOCTYPE svg PUBLIC "-//W3C//DTD SVG 1.1//EN" "http://www.w3.org/Graphics/SVG/1.1/DTD/svg11.dtd">
<svg version="1.1" id="Layer_1" xmlns="http://www.w3.org/2000/svg" xmlns:xlink="http://www.w3.org/1999/xlink" x="0px" y="0px"
	 viewBox="-299 391 12 12" enable-background="new -299 391 12 12" xml:space="preserve">
<g>
	<g>
		<path fill="#FFFFFF" d="M-293,402.75c-3.17,0-5.75-2.579-5.75-5.75s2.58-5.75,5.75-5.75s5.75,2.579,5.75,5.75
			S-289.83,402.75-293,402.75z"/>
		<g>
			<path fill="#DF3324" d="M-293,391.5c3.033,0,5.5,2.467,5.5,5.5s-2.467,5.5-5.5,5.5s-5.5-2.467-5.5-5.5S-296.033,391.5-293,391.5
				 M-293,391c-3.314,0-6,2.686-6,6s2.686,6,6,6s6-2.686,6-6S-289.686,391-293,391L-293,391z"/>
		</g>
	</g>
	<path fill="#DF3324" d="M-292.293,397l1.768-1.768c0.195-0.195,0.195-0.512,0-0.707s-0.512-0.195-0.707,0l-1.768,1.768
		l-1.768-1.768c-0.195-0.195-0.512-0.195-0.707,0s-0.195,0.512,0,0.707l1.768,1.768l-1.768,1.768c-0.195,0.195-0.195,0.512,0,0.707
		c0.098,0.098,0.226,0.146,0.354,0.146s0.256-0.049,0.354-0.146l1.767-1.768l1.768,1.768c0.098,0.098,0.226,0.146,0.354,0.146
		s0.256-0.049,0.354-0.146c0.195-0.195,0.195-0.512,0-0.707L-292.293,397z"/>
</g>
</svg>
