<?xml version="1.0" encoding="utf-8"?>
<!-- Generator: Adobe Illustrator 17.1.0, SVG Export Plug-In . SVG Version: 6.00 Build 0)  -->
<!DOCTYPE svg PUBLIC "-//W3C//DTD SVG 1.1//EN" "http://www.w3.org/Graphics/SVG/1.1/DTD/svg11.dtd">
<svg version="1.1" id="Layer_1" xmlns="http://www.w3.org/2000/svg" xmlns:xlink="http://www.w3.org/1999/xlink" x="0px" y="0px"
	 viewBox="0 0 26 26" enable-background="new 0 0 26 26" xml:space="preserve">
<g id="Small_Doc_icon">
	<g id="Doc">
		<g>
			<g>
				<g>
					<path fill="#2B5798" d="M6,25.5c-1.378,0-2.5-1.121-2.5-2.5V3c0-1.378,1.122-2.5,2.5-2.5h11.72l4.78,4.817V23
						c0,1.379-1.121,2.5-2.5,2.5H6z"/>
					<path fill="#FFFFFF" d="M17.512,1L22,5.523V23c0,1.105-0.895,2-2,2H6c-1.105,0-2-0.895-2-2V3c0-1.105,0.895-2,2-2H17.512
						 M17.928,0h-0.417H6C4.346,0,3,1.346,3,3v20c0,1.654,1.346,3,3,3h14c1.654,0,3-1.346,3-3V5.523V5.112l-0.29-0.292l-4.488-4.523
						L17.928,0L17.928,0z"/>
				</g>
			</g>
		</g>
		<g>
			<path fill="#FFFFFF" d="M8.293,18.624c-0.875-1.428-1.312-2.868-1.312-4.322c0-1.285,0.324-2.517,0.975-3.695
				c0.649-1.176,1.591-2.253,2.826-3.231l1.484,0.906c0.13,0.077,0.22,0.171,0.27,0.28c0.052,0.109,0.077,0.216,0.077,0.318
				c0,0.115-0.025,0.225-0.077,0.328c-0.05,0.104-0.109,0.193-0.174,0.27c-0.165,0.193-0.343,0.419-0.53,0.675
				c-0.186,0.257-0.358,0.538-0.511,0.839c-0.155,0.302-0.283,0.633-0.387,0.993c-0.103,0.36-0.153,0.746-0.153,1.158
				c0,0.437,0.069,0.904,0.211,1.399s0.379,1.013,0.714,1.553c0.115,0.18,0.174,0.36,0.174,0.54c0,0.41-0.232,0.699-0.695,0.867
				L8.293,18.624z M14.698,18.624c-0.875-1.428-1.312-2.868-1.312-4.322c0-1.285,0.324-2.517,0.973-3.695
				c0.649-1.176,1.593-2.253,2.826-3.231l1.486,0.906c0.128,0.077,0.218,0.171,0.27,0.28c0.052,0.109,0.077,0.216,0.077,0.318
				c0,0.115-0.025,0.225-0.077,0.328c-0.052,0.104-0.109,0.193-0.174,0.27c-0.167,0.193-0.343,0.419-0.53,0.675
				c-0.186,0.257-0.358,0.538-0.513,0.839c-0.153,0.302-0.283,0.633-0.385,0.993c-0.103,0.36-0.155,0.746-0.155,1.158
				c0,0.437,0.071,0.904,0.214,1.399c0.14,0.495,0.379,1.013,0.714,1.553c0.115,0.18,0.174,0.36,0.174,0.54
				c0,0.41-0.232,0.699-0.695,0.867L14.698,18.624z"/>
		</g>
	</g>
</g>
</svg>
