<?xml version="1.0" encoding="utf-8"?>
<!-- Generator: Adobe Illustrator 19.1.0, SVG Export Plug-In . SVG Version: 6.00 Build 0)  -->
<!DOCTYPE svg PUBLIC "-//W3C//DTD SVG 1.1//EN" "http://www.w3.org/Graphics/SVG/1.1/DTD/svg11.dtd">
<svg version="1.1" id="Layer_1" xmlns="http://www.w3.org/2000/svg" xmlns:xlink="http://www.w3.org/1999/xlink" x="0px" y="0px"
	 viewBox="-293 385 24 24" enable-background="new -293 385 24 24" xml:space="preserve">
<g>
	<path fill="#333333" d="M-277,407h-8c-1.105,0-2-0.895-2-2v-12h12v12C-275,406.105-275.895,407-277,407"/>
	<path fill="#333333" d="M-279,390h-4v-1h4V390z M-279,388h-4c-0.552,0-1,0.448-1,1v1c0,0.552,0.448,1,1,1h4c0.552,0,1-0.448,1-1v-1
		C-278,388.448-278.448,388-279,388"/>
	<path fill="#333333" d="M-275,390h-12c-0.552,0-1,0.448-1,1v1h14v-1C-274,390.448-274.448,390-275,390"/>
</g>
</svg>
