<?xml version="1.0" encoding="utf-8"?>
<!-- Generator: Adobe Illustrator 19.1.0, SVG Export Plug-In . SVG Version: 6.00 Build 0)  -->
<!DOCTYPE svg PUBLIC "-//W3C//DTD SVG 1.1//EN" "http://www.w3.org/Graphics/SVG/1.1/DTD/svg11.dtd">
<svg version="1.1" id="Layer_1" xmlns="http://www.w3.org/2000/svg" xmlns:xlink="http://www.w3.org/1999/xlink" x="0px" y="0px"
	 viewBox="0 0 24 24" enable-background="new 0 0 24 24" xml:space="preserve">
<g id="metadata">
</g>
<g id="like_icon">
</g>
<g id="fave_icon">
</g>
<g id="fave_icon_-_selected">
</g>
<g id="comment_icon_-_selected">
</g>
<g id="Comment_icon">
	<g>
		<path fill="#FFFFFF" d="M7.022,23.17c-0.249,0-0.508-0.188-0.509-0.5l-0.021-5.839H5.994c-3.017,0-5.471-2.454-5.471-5.47v-5.06
			c0-3.016,2.454-5.47,5.47-5.47h12.016c3.016,0,5.47,2.454,5.47,5.47v5.06c0,3.016-2.454,5.47-5.47,5.47h-5.258l-5.359,6.165
			C7.266,23.14,7.122,23.17,7.022,23.17z"/>
		<g>
			<path fill="#333333" d="M18.008,1.331c2.74,0,4.97,2.23,4.97,4.97v5.06c0,2.74-2.23,4.97-4.97,4.97h-5.03h-0.456l-0.299,0.344
				l-5.21,5.993l-0.02-5.34l-0.004-0.997H5.993c-2.74,0-4.97-2.23-4.97-4.97v-5.06c0-2.74,2.23-4.97,4.97-4.97H18.008 M18.008,0.331
				H5.992c-3.297,0-5.97,2.673-5.97,5.97v5.06c0,3.297,2.673,5.97,5.97,5.97h0.001l0.019,5.34c0.002,0.606,0.497,0.998,1.009,0.998
				c0.267,0,0.538-0.107,0.746-0.346l5.21-5.992h5.03c3.297,0,5.97-2.673,5.97-5.97v-5.06C23.978,3.004,21.305,0.331,18.008,0.331
				L18.008,0.331z"/>
		</g>
	</g>
</g>
<g id="fave_icon_-_selected_1_">
</g>
<g id="like_icon_-_selected">
</g>
</svg>
