<?xml version="1.0" encoding="utf-8"?>
<!-- Generator: Adobe Illustrator 19.1.0, SVG Export Plug-In . SVG Version: 6.00 Build 0)  -->
<svg version="1.1" id="Layer_1" xmlns="http://www.w3.org/2000/svg" xmlns:xlink="http://www.w3.org/1999/xlink" x="0px" y="0px"
	 viewBox="0 0 12 12" style="enable-background:new 0 0 12 12;" xml:space="preserve">
<style type="text/css">
	.st0{fill:#E51E25;}
	.st1{fill:#8A1E2E;}
	.st2{fill:#FFFFFF;}
</style>
<g>
	<circle class="st0" cx="6" cy="6" r="5.454"/>
	<path class="st1" d="M6,12c-3.308,0-6-2.692-6-6s2.692-6,6-6s6,2.692,6,6S9.308,12,6,12z M6,1.091C3.293,1.091,1.091,3.293,1.091,6
		S3.293,10.909,6,10.909S10.909,8.707,10.909,6S8.707,1.091,6,1.091z"/>
</g>
<g>
	<path class="st2" d="M5.274,8.781c0-0.099,0.018-0.193,0.055-0.283c0.037-0.089,0.088-0.166,0.154-0.23
		c0.065-0.064,0.143-0.115,0.232-0.154C5.804,8.076,5.9,8.057,6.003,8.057c0.099,0,0.193,0.019,0.283,0.058
		c0.089,0.038,0.166,0.089,0.23,0.154c0.064,0.064,0.115,0.14,0.154,0.23c0.038,0.089,0.058,0.184,0.058,0.283
		c0,0.103-0.019,0.198-0.058,0.286C6.63,9.154,6.579,9.23,6.515,9.294c-0.064,0.064-0.14,0.114-0.23,0.151
		C6.196,9.482,6.101,9.5,6.003,9.5C5.9,9.5,5.804,9.482,5.715,9.445C5.625,9.408,5.547,9.358,5.482,9.294
		C5.417,9.23,5.365,9.154,5.329,9.066C5.292,8.978,5.274,8.883,5.274,8.781z M6.573,2.5v2.742c0,0.291-0.015,0.576-0.043,0.856
		c-0.029,0.28-0.067,0.576-0.115,0.89H5.614c-0.048-0.313-0.086-0.61-0.115-0.89C5.47,5.819,5.456,5.534,5.456,5.242V2.5H6.573z"/>
</g>
</svg>
