<?xml version="1.0" encoding="utf-8"?>
<!-- Generator: Adobe Illustrator 19.1.0, SVG Export Plug-In . SVG Version: 6.00 Build 0)  -->
<svg version="1.1" id="Layer_1" xmlns="http://www.w3.org/2000/svg" xmlns:xlink="http://www.w3.org/1999/xlink" x="0px" y="0px"
	 viewBox="0 0 12 12" style="enable-background:new 0 0 12 12;" xml:space="preserve">
<style type="text/css">
	.st0{fill:#E51E25;}
	.st1{fill:#8A1E2E;}
	.st2{fill:#FFFFFF;}
</style>
<g>
	<g>
		<circle class="st0" cx="6" cy="6" r="5.454"/>
		<path class="st1" d="M6,12c-3.308,0-6-2.692-6-6s2.692-6,6-6s6,2.692,6,6S9.308,12,6,12z M6,1.091
			C3.293,1.091,1.091,3.293,1.091,6S3.293,10.909,6,10.909S10.909,8.707,10.909,6S8.707,1.091,6,1.091z"/>
	</g>
	<g>
		<g>
			<path class="st2" d="M8.495,6.909h-4.99C3.002,6.909,2.596,6.502,2.596,6s0.407-0.909,0.909-0.909h4.99
				c0.502,0,0.909,0.407,0.909,0.909S8.997,6.909,8.495,6.909z"/>
		</g>
	</g>
</g>
</svg>
