<?xml version="1.0" encoding="utf-8"?>
<!-- Generator: Adobe Illustrator 17.1.0, SVG Export Plug-In . SVG Version: 6.00 Build 0)  -->
<!DOCTYPE svg PUBLIC "-//W3C//DTD SVG 1.1//EN" "http://www.w3.org/Graphics/SVG/1.1/DTD/svg11.dtd">
<svg version="1.1" id="Layer_1" xmlns="http://www.w3.org/2000/svg" xmlns:xlink="http://www.w3.org/1999/xlink" x="0px" y="0px"
	 viewBox="0 0 32 32" enable-background="new 0 0 32 32" xml:space="preserve">
<g>
	<g>
		<path fill="#0072AA" d="M32,28c0,2.2-1.8,4-4,4H4c-2.2,0-4-1.8-4-4V4c0-2.2,1.8-4,4-4h24c2.2,0,4,1.8,4,4V28z"/>
	</g>
	<g>
		<path id="f_9_" fill="#FFFFFF" d="M16.482,26v-9.123h3.062l0.458-3.555h-3.521v-2.27c0-1.029,0.286-1.731,1.762-1.731l1.883-0.001
			V6.14C19.801,6.097,18.683,6,17.383,6c-2.714,0-4.573,1.657-4.573,4.7v2.622H9.74v3.555h3.07V26H16.482z"/>
	</g>
</g>
</svg>
