<?xml version="1.0" encoding="utf-8"?>
<!-- Generator: Adobe Illustrator 19.1.0, SVG Export Plug-In . SVG Version: 6.00 Build 0)  -->
<svg version="1.1" id="Layer_1" xmlns="http://www.w3.org/2000/svg" xmlns:xlink="http://www.w3.org/1999/xlink" x="0px" y="0px"
	 viewBox="0 0 32 32" style="enable-background:new 0 0 32 32;" xml:space="preserve">
<style type="text/css">
	.st0{fill:#007BB5;}
	.st1{fill:#FFFFFF;}
</style>
<g>
	<g>
		<path class="st0" d="M29.632,0H2.36C1.058,0,0,1.033,0,2.307v27.384C0,30.965,1.058,32,2.36,32h27.272
			c1.305,0,2.367-1.035,2.367-2.309V2.307C31.999,1.033,30.937,0,29.632,0z"/>
		<path class="st1" d="M4.741,11.997h4.751v15.271H4.741V11.997z M7.118,4.405c1.518,0,2.751,1.233,2.751,2.752
			c0,1.52-1.233,2.753-2.751,2.753c-1.524,0-2.753-1.233-2.753-2.753C4.365,5.638,5.594,4.405,7.118,4.405"/>
		<path class="st1" d="M12.47,11.997h4.55v2.088h0.065c0.633-1.201,2.181-2.467,4.49-2.467c4.806,0,5.694,3.162,5.694,7.275v8.375
			h-4.746v-7.426c0-1.771-0.03-4.049-2.466-4.049c-2.47,0-2.846,1.93-2.846,3.922v7.553h-4.74V11.997z"/>
	</g>
</g>
</svg>
