<svg xmlns="http://www.w3.org/2000/svg" viewBox="0 0 96 96"><title>user_profile96</title><circle cx="48" cy="48" r="48" fill="#008a8b"/><path d="M48,3.473A44.527,44.527,0,1,1,3.473,48,44.526,44.526,0,0,1,48,3.473m0-1.591A46.118,46.118,0,1,0,94.118,48,46.118,46.118,0,0,0,48,1.882Z" fill="#fff"/><path d="M16.433,72.923a8.636,8.636,0,0,1,4.985-5.317,36.678,36.678,0,0,1,8.639-2.326A27.6,27.6,0,0,0,36.7,63.618,7.808,7.808,0,0,0,40.69,59.63l.665-1.328-1.33-1A17.407,17.407,0,0,1,36.7,53.645a37.316,37.316,0,0,1-2.658-7.31l-.333-1-1-.333-.664-.664a7.966,7.966,0,0,1-1-2.326,4.831,4.831,0,0,1,.329-3.319l.332-.332-.332-1.33a20.432,20.432,0,0,1-.333-4.651c.333-2.659,1-5.317,1-5.646a11.44,11.44,0,0,1,4.988-6.647A19.369,19.369,0,0,1,48,16.766a17.11,17.11,0,0,1,10.966,3.325,11.877,11.877,0,0,1,4.984,6.646,48.246,48.246,0,0,1,1,5.649,20.441,20.441,0,0,1-.333,4.652l-.332,1.329.332.665a4.837,4.837,0,0,1,.333,3.323c-.333.663-.665,1.661-1,2.325-.333.333-.333.665-.665.665l-1,.332-.333,1a15.971,15.971,0,0,1-2.659,7.31,17.407,17.407,0,0,1-3.323,3.658l-1.328,1,1.328,1.329c0,.664.665,1,1,1.661a18.243,18.243,0,0,0,2.991,2.326,27.576,27.576,0,0,0,6.644,1.657,77.6,77.6,0,0,1,8.309,2.326A8.638,8.638,0,0,1,79.9,73.254c.3.841.552,1.7.774,2.558a42.937,42.937,0,1,0-65.042.352C15.866,75.076,16.125,73.993,16.433,72.923Z" fill="#fff"/></svg>