<?xml version="1.0" encoding="utf-8"?>
<!-- Generator: Adobe Illustrator 20.1.0, SVG Export Plug-In . SVG Version: 6.00 Build 0)  -->
<svg version="1.1" id="Layer_1" xmlns="http://www.w3.org/2000/svg" xmlns:xlink="http://www.w3.org/1999/xlink" x="0px" y="0px"
	 viewBox="0 0 32 32" style="enable-background:new 0 0 32 32;" xml:space="preserve">
<style type="text/css">
	.st0{fill:#FFFFFF;}
	.st1{fill:#666666;}
</style>
<title>Artboard 1</title>
<path class="st0" d="M31.5,26c0.013,1.367-1.084,2.487-2.452,2.5c-0.016,0-0.032,0-0.048,0H3c-1.367,0.013-2.487-1.084-2.5-2.452
	c0-0.016,0-0.032,0-0.048V5.9C0.531,4.548,1.648,3.475,3,3.5h26.1c1.367-0.013,2.487,1.084,2.5,2.452c0,0.016,0,0.032,0,0.048
	L31.5,26z"/>
<path class="st1" d="M29,4c1.103,0.003,1.997,0.897,2,2v20c-0.003,1.103-0.897,1.997-2,2H3c-1.103-0.003-1.997-0.897-2-2V6
	c0.003-1.103,0.897-1.997,2-2H29 M29,3H3C1.345,3.005,0.005,4.345,0,6v20c0.005,1.655,1.345,2.995,3,3h26
	c1.655-0.005,2.995-1.345,3-3V6C31.995,4.345,30.655,3.005,29,3z"/>
<g>
	<path class="st1" d="M29,11.903H19c-0.277,0-0.503-0.225-0.503-0.503s0.226-0.503,0.503-0.503h10c0.277,0,0.503,0.225,0.503,0.503
		S29.277,11.903,29,11.903z"/>
</g>
<g>
	<path class="st1" d="M29,14.903H19c-0.277,0-0.503-0.225-0.503-0.503s0.226-0.503,0.503-0.503h10c0.277,0,0.503,0.225,0.503,0.503
		S29.277,14.903,29,14.903z"/>
</g>
<g>
	<path class="st1" d="M29,17.903H19c-0.277,0-0.503-0.226-0.503-0.503s0.226-0.503,0.503-0.503h10c0.277,0,0.503,0.226,0.503,0.503
		S29.277,17.903,29,17.903z"/>
</g>
<g>
	<path class="st1" d="M29,20.903H19c-0.277,0-0.503-0.226-0.503-0.503s0.226-0.503,0.503-0.503h10c0.277,0,0.503,0.226,0.503,0.503
		S29.277,20.903,29,20.903z"/>
</g>
<path class="st1" d="M16.272,19.802c-0.155-0.526-0.509-0.899-1.113-1.177c-0.546-0.25-1.216-0.378-1.808-0.491
	c-0.522-0.1-1.012-0.194-1.373-0.356c-0.221-0.099-0.412-0.245-0.571-0.433c-0.084-0.1-0.16-0.217-0.228-0.346l-0.105-0.202
	l0.177-0.145c0.266-0.218,0.499-0.485,0.692-0.794c0.272-0.432,0.475-0.957,0.603-1.561l0.035-0.165l0.162-0.046
	c0.075-0.022,0.161-0.094,0.236-0.2c0.104-0.148,0.182-0.347,0.222-0.564c0.054-0.301,0.024-0.598-0.079-0.777l-0.058-0.099
	l0.029-0.111c0.012-0.044,0.021-0.089,0.031-0.135c0.059-0.296,0.079-0.644,0.058-1.032c-0.036-0.669-0.178-1.221-0.18-1.227
	c-0.134-0.536-0.541-1.076-1.117-1.485c-0.467-0.333-1.26-0.729-2.381-0.729c-1.121,0-1.914,0.396-2.381,0.728
	C6.548,8.865,6.14,9.404,6.007,9.937c-0.003,0.009-0.147,0.562-0.184,1.232c-0.021,0.389-0.002,0.737,0.057,1.033
	c0.009,0.045,0.019,0.089,0.03,0.131l0.029,0.112L5.88,12.544c-0.104,0.176-0.134,0.475-0.08,0.778
	c0.039,0.218,0.118,0.419,0.223,0.566c0.075,0.105,0.16,0.177,0.236,0.198l0.164,0.045l0.035,0.167
	c0.128,0.601,0.331,1.127,0.603,1.56c0.194,0.309,0.428,0.576,0.696,0.796L7.933,16.8l-0.106,0.202
	c-0.066,0.126-0.142,0.241-0.226,0.341c-0.157,0.189-0.349,0.334-0.571,0.434c-0.361,0.162-0.851,0.256-1.369,0.355
	c-0.595,0.114-1.267,0.242-1.813,0.492c-0.596,0.274-0.959,0.659-1.112,1.177c-0.28,0.949-0.384,1.93-0.361,2.918
	C2.393,23.437,2.967,24,3.656,24h11.69c0.706,0,1.28-0.574,1.28-1.28C16.627,21.727,16.553,20.756,16.272,19.802z"/>
</svg>
