<?xml version="1.0" encoding="utf-8"?>
<!-- Generator: Adobe Illustrator 19.1.0, SVG Export Plug-In . SVG Version: 6.00 Build 0)  -->
<!DOCTYPE svg PUBLIC "-//W3C//DTD SVG 1.1//EN" "http://www.w3.org/Graphics/SVG/1.1/DTD/svg11.dtd">
<svg version="1.1" id="Layer_1" xmlns="http://www.w3.org/2000/svg" xmlns:xlink="http://www.w3.org/1999/xlink" x="0px" y="0px"
	 viewBox="-2 4 18 18" enable-background="new -2 4 18 18" xml:space="preserve">
<g id="partial_check">
	<g>
		<g>
			<path fill="#FFFFFF" d="M16,20c0,1.1-0.9,2-2,2H0c-1.1,0-2-0.9-2-2V6c0-1.1,0.9-2,2-2h14c1.1,0,2,0.9,2,2V20z"/>
		</g>
		<path fill="#757575" d="M14,5c0.551,0,1,0.449,1,1v14c0,0.551-0.449,1-1,1H0c-0.551,0-1-0.449-1-1V6c0-0.551,0.449-1,1-1H14 M14,4
			H0c-1.1,0-2,0.9-2,2v14c0,1.1,0.9,2,2,2h14c1.1,0,2-0.9,2-2V6C16,4.9,15.1,4,14,4L14,4z"/>
	</g>
	<path fill="#767676" d="M11,14H3c-0.6,0-1-0.4-1-1s0.4-1,1-1h8c0.6,0,1,0.4,1,1S11.5,14,11,14z"/>
</g>
</svg>
