<?xml version="1.0" encoding="UTF-8" standalone="no"?>
<!DOCTYPE svg PUBLIC "-//W3C//DTD SVG 1.1//EN" "http://www.w3.org/Graphics/SVG/1.1/DTD/svg11.dtd">
<svg width="100%" height="100%" viewBox="0 0 32 32" version="1.1" xmlns="http://www.w3.org/2000/svg" xmlns:xlink="http://www.w3.org/1999/xlink" xml:space="preserve" xmlns:serif="http://www.serif.com/" style="fill-rule:evenodd;clip-rule:evenodd;stroke-linejoin:round;stroke-miterlimit:2;">
    <g id="New_Symbol_16" transform="matrix(1.77778,0,0,1.77778,0,3.55556)">
        <g transform="matrix(1,0,0,1,-2,0)">
            <path d="M4,15.5C3.173,15.5 2.5,14.827 2.5,14L2.5,0C2.5,-0.827 3.173,-1.5 4,-1.5L18,-1.5C18.827,-1.5 19.5,-0.827 19.5,0L19.5,14C19.5,14.827 18.827,15.5 18,15.5L4,15.5Z" style="fill:rgb(204,204,204);fill-rule:nonzero;"/>
        </g>
        <g transform="matrix(1,0,0,1,-2,0)">
            <path d="M18,-1C18.551,-1 19,-0.552 19,0L19,14C19,14.551 18.551,15 18,15L4,15C3.449,15 3,14.551 3,14L3,0C3,-0.552 3.449,-1 4,-1L18,-1M18,-2L4,-2C2.9,-2 2,-1.1 2,0L2,14C2,15.1 2.9,16 4,16L18,16C19.1,16 20,15.1 20,14L20,0C20,-1.1 19.1,-2 18,-2Z" style="fill:rgb(169,169,169);fill-rule:nonzero;"/>
        </g>
    </g>
</svg>
