<?xml version="1.0" encoding="utf-8"?>
<!-- Generator: Adobe Illustrator 19.1.0, SVG Export Plug-In . SVG Version: 6.00 Build 0)  -->
<!DOCTYPE svg PUBLIC "-//W3C//DTD SVG 1.1//EN" "http://www.w3.org/Graphics/SVG/1.1/DTD/svg11.dtd">
<svg version="1.1" id="Layer_1" xmlns="http://www.w3.org/2000/svg" xmlns:xlink="http://www.w3.org/1999/xlink" x="0px" y="0px"
	 viewBox="2 -2 18 18" enable-background="new 2 -2 18 18" xml:space="preserve">
<g id="New_Symbol_17">
	<g>
		<g>
			<path fill="#FFFFFF" d="M20,14c0,1.1-0.9,2-2,2H4c-1.1,0-2-0.9-2-2V0c0-1.1,0.9-2,2-2h14c1.1,0,2,0.9,2,2V14z"/>
		</g>
		<path fill="#757575" d="M18-1c0.551,0,1,0.449,1,1v14c0,0.551-0.449,1-1,1H4c-0.551,0-1-0.449-1-1V0c0-0.551,0.449-1,1-1H18 M18-2
			H4C2.9-2,2-1.1,2,0v14c0,1.1,0.9,2,2,2h14c1.1,0,2-0.9,2-2V0C20-1.1,19.1-2,18-2L18-2z"/>
	</g>
</g>
</svg>
