<svg id="Layer_1" data-name="Layer 1" xmlns="http://www.w3.org/2000/svg" viewBox="0 0 24 24"><defs><style>.cls-1{fill:#eeb111;}.cls-2{fill:#fff;}</style></defs><title>status_task_delayed24</title><circle class="cls-1" cx="12" cy="12" r="12"/><path class="cls-2" d="M22,11.1l-2.15,4.121-2.5-3.917,1.7-.072a7,7,0,1,0-12.388,5.34l-.932.741a8.185,8.185,0,1,1,14.513-6.14Z"/><path class="cls-2" d="M18.785,16.58a.419.419,0,1,1-.6.061A.409.409,0,0,1,18.785,16.58Z"/><path class="cls-2" d="M17.95,17.592a.418.418,0,0,1-.008.613.445.445,0,0,1-.6-.655A.418.418,0,0,1,17.95,17.592Z"/><path class="cls-2" d="M16.954,18.457a.416.416,0,0,1-.106.6.444.444,0,1,1,.106-.6Z"/><path class="cls-2" d="M15.821,19.154a.417.417,0,0,1-.205.577.445.445,0,0,1-.356-.813A.414.414,0,0,1,15.821,19.154Z"/><path class="cls-2" d="M14.593,19.647a.416.416,0,0,1-.3.533.443.443,0,0,1-.213-.859A.413.413,0,0,1,14.593,19.647Z"/><path class="cls-2" d="M13.3,19.927a.416.416,0,0,1-.383.477.444.444,0,1,1,.383-.477Z"/><path class="cls-2" d="M11.976,19.994a.415.415,0,0,1-.456.408.445.445,0,1,1,.456-.408Z"/><path class="cls-2" d="M10.679,19.845a.417.417,0,0,1-.518.326.444.444,0,1,1,.518-.326Z"/><path class="cls-2" d="M9.38,19.464a.42.42,0,1,1-.2-.574A.415.415,0,0,1,9.38,19.464Z"/><path class="cls-2" d="M8.214,18.9a.415.415,0,0,1-.6.14A.444.444,0,0,1,8.11,18.3.415.415,0,0,1,8.214,18.9Z"/><path class="cls-2" d="M7.124,18.131a.418.418,0,0,1-.612.041.445.445,0,1,1,.612-.041Z"/><path class="cls-2" d="M11.835,13.863a.6.6,0,0,1-.393-.147L9.033,11.622a.6.6,0,1,1,.784-.9l2.014,1.751,3.64-3.218a.6.6,0,0,1,.791.895l-4.031,3.566A.6.6,0,0,1,11.835,13.863Z"/></svg>