<svg id="Layer_1" data-name="Layer 1" xmlns="http://www.w3.org/2000/svg" viewBox="0 0 24 24"><defs><style>.cls-1{fill:#725ea6;}.cls-2{fill:#fff;}</style></defs><title>status_task_runningbehind24</title><circle class="cls-1" cx="12" cy="12" r="12"/><g id="Layer_3" data-name="Layer 3"><path class="cls-2" d="M10.123,8.971l-.335-.9-.935.346A2.392,2.392,0,0,0,8.23,7.75l.419-.912-.876-.4-.422.918a2.41,2.41,0,0,0-.9-.033L6.1,6.372l-.9.335.351.949a2.407,2.407,0,0,0-.662.612l-.918-.422-.4.876.912.419a2.39,2.39,0,0,0-.041.909L3.5,10.4l.335.9.927-.344a2.385,2.385,0,0,0,.622.68l-.41.893.876.4.407-.886a2.4,2.4,0,0,0,.93.038L7.524,13l.9-.335-.338-.911a2.433,2.433,0,0,0,.681-.635l.886.407.4-.876-.892-.41A2.392,2.392,0,0,0,9.2,9.314ZM7.577,10.934a1.446,1.446,0,1,1,.67-1.459A1.449,1.449,0,0,1,7.577,10.934Z"/></g><g id="Layer_3-2" data-name="Layer 3"><path class="cls-2" d="M20.5,13.841V12.149H18.75a4.2,4.2,0,0,0-.622-1.472l1.246-1.245-1.2-1.2L16.924,9.49a4.217,4.217,0,0,0-1.464-.6V7.109H13.769V8.886a4.193,4.193,0,0,0-1.463.6L11.051,8.235l-1.2,1.2L11.1,10.677a4.217,4.217,0,0,0-.622,1.472H8.729v1.692h1.736a4.22,4.22,0,0,0,.609,1.5L9.855,16.558l1.2,1.2,1.211-1.21a4.216,4.216,0,0,0,1.507.63V18.88H15.46V17.174a4.221,4.221,0,0,0,1.508-.63l1.21,1.21,1.2-1.2-1.219-1.219a4.2,4.2,0,0,0,.609-1.5Zm-5.388,1.678A2.539,2.539,0,1,1,17.1,13.527,2.542,2.542,0,0,1,15.112,15.519Z"/></g></svg>