<?xml version="1.0" encoding="utf-8"?><!DOCTYPE svg PUBLIC "-//W3C//DTD SVG 1.1//EN" "http://www.w3.org/Graphics/SVG/1.1/DTD/svg11.dtd"><svg xmlns="http://www.w3.org/2000/svg" xmlns:xlink="http://www.w3.org/1999/xlink"><symbol viewBox="2 -2 18 18" id="controls--checkbox--impl--images--checkbox" xmlns="http://www.w3.org/2000/svg"><path fill="#FFF" d="M20 14c0 1.1-.9 2-2 2H4c-1.1 0-2-.9-2-2V0c0-1.1.9-2 2-2h14c1.1 0 2 .9 2 2v14z"/><path fill="#757575" d="M18-1c.551 0 1 .449 1 1v14c0 .551-.449 1-1 1H4c-.551 0-1-.449-1-1V0c0-.551.449-1 1-1h14m0-1H4c-1.1 0-2 .9-2 2v14c0 1.1.9 2 2 2h14c1.1 0 2-.9 2-2V0c0-1.1-.9-2-2-2z"/></symbol><symbol viewBox="0 0 18 18" id="controls--checkbox--impl--images--checkbox_all_selected" xmlns="http://www.w3.org/2000/svg"><path fill="#666" d="M16 18H2a2 2 0 01-2-2V2a2 2 0 012-2h14a2 2 0 012 2v14a2 2 0 01-2 2z"/><path fill="#FFF" d="M7.144 13.789l-3.52-3.52a.999.999 0 111.414-1.414l2.105 2.105 5.526-5.526a.999.999 0 111.414 1.414l-6.939 6.941z"/></symbol><symbol viewBox="0 0 32 32" fill-rule="evenodd" clip-rule="evenodd" stroke-linejoin="round" stroke-miterlimit="2" id="controls--checkbox--impl--images--checkbox_disabled" xmlns="http://www.w3.org/2000/svg"><path d="M3.556 31.111a2.67 2.67 0 01-2.667-2.667V3.556A2.67 2.67 0 013.556.889h24.888a2.67 2.67 0 012.667 2.667v24.888a2.67 2.67 0 01-2.667 2.667H3.556z" fill="#ccc" fill-rule="nonzero"/><path d="M28.444 1.778c.98 0 1.778.796 1.778 1.778v24.888a1.78 1.78 0 01-1.778 1.778H3.556a1.78 1.78 0 01-1.778-1.778V3.556a1.78 1.78 0 011.778-1.778h24.888m0-1.778H3.556A3.566 3.566 0 000 3.556v24.888C0 30.4 1.6 32 3.556 32h24.888C30.4 32 32 30.4 32 28.444V3.556C32 1.6 30.4 0 28.444 0z" fill="#a9a9a9" fill-rule="nonzero"/></symbol><symbol viewBox="-2 4 18 18" id="controls--checkbox--impl--images--checkbox_mixed" xmlns="http://www.w3.org/2000/svg"><path fill="#FFF" d="M16 20c0 1.1-.9 2-2 2H0c-1.1 0-2-.9-2-2V6c0-1.1.9-2 2-2h14c1.1 0 2 .9 2 2v14z"/><path fill="#757575" d="M14 5c.551 0 1 .449 1 1v14c0 .551-.449 1-1 1H0c-.551 0-1-.449-1-1V6c0-.551.449-1 1-1h14m0-1H0c-1.1 0-2 .9-2 2v14c0 1.1.9 2 2 2h14c1.1 0 2-.9 2-2V6c0-1.1-.9-2-2-2z"/><path fill="#767676" d="M11 14H3c-.6 0-1-.4-1-1s.4-1 1-1h8c.6 0 1 .4 1 1s-.5 1-1 1z"/></symbol><symbol viewBox="0 0 18 18" id="controls--checkbox--impl--images--checkbox_on24_dis" xmlns="http://www.w3.org/2000/svg"><path fill="#F5F5F5" d="M2 17.5c-.827 0-1.5-.673-1.5-1.5V2C.5 1.173 1.173.5 2 .5h14c.827 0 1.5.673 1.5 1.5v14c0 .827-.673 1.5-1.5 1.5H2z"/><path fill="#A9A9A9" d="M16 1c.551 0 1 .449 1 1v14c0 .551-.449 1-1 1H2c-.551 0-1-.449-1-1V2c0-.551.449-1 1-1h14m0-1H2C.9 0 0 .9 0 2v14c0 1.1.9 2 2 2h14c1.1 0 2-.9 2-2V2c0-1.1-.9-2-2-2z"/><g><path fill="#A9A9A9" d="M7.3 13.3L3.8 9.8c-.4-.4-.4-1 0-1.4s1-.4 1.4 0l2.1 2.1L12.8 5c.4-.4 1-.4 1.4 0s.4 1 0 1.4l-6.9 6.9z"/></g></symbol><symbol viewBox="0 0 18 18" id="controls--checkbox--impl--images--checkbox_partial_dis" xmlns="http://www.w3.org/2000/svg"><path fill="#F5F5F5" d="M2 17.5c-.827 0-1.5-.673-1.5-1.5V2C.5 1.173 1.173.5 2 .5h14c.827 0 1.5.673 1.5 1.5v14c0 .827-.673 1.5-1.5 1.5H2z"/><path fill="#A9A9A9" d="M16 1c.551 0 1 .449 1 1v14c0 .551-.449 1-1 1H2c-.551 0-1-.449-1-1V2c0-.551.449-1 1-1h14m0-1H2C.9 0 0 .9 0 2v14c0 1.1.9 2 2 2h14c1.1 0 2-.9 2-2V2c0-1.1-.9-2-2-2z"/><path fill="#767676" d="M13 10H5c-.6 0-1-.4-1-1s.4-1 1-1h8c.6 0 1 .4 1 1s-.5 1-1 1z"/></symbol><symbol viewBox="0 0 18 18" id="controls--checkbox--impl--images--checkbox_selected" xmlns="http://www.w3.org/2000/svg"><path fill="#FFF" d="M16 18H2a2 2 0 01-2-2V2a2 2 0 012-2h14a2 2 0 012 2v14a2 2 0 01-2 2z"/><path fill="#FFF" d="M15.674 17.581H2.326a1.907 1.907 0 01-1.907-1.907V2.326c0-1.053.854-1.907 1.907-1.907h13.349c1.053 0 1.907.854 1.907 1.907v13.349a1.907 1.907 0 01-1.908 1.906z"/><path fill="#666" d="M16 1c.551 0 1 .449 1 1v14c0 .551-.449 1-1 1H2c-.551 0-1-.449-1-1V2c0-.551.449-1 1-1h14m0-1H2a2 2 0 00-2 2v14a2 2 0 002 2h14a2 2 0 002-2V2a2 2 0 00-2-2z"/><g><path fill="#333" d="M7.144 13.789l-3.52-3.52a.999.999 0 111.414-1.414l2.105 2.105 5.526-5.526a.999.999 0 111.414 1.414l-6.939 6.941z"/></g></symbol><symbol viewBox="0 0 18 18" id="controls--disclosure--impl--images--caret_down" xmlns="http://www.w3.org/2000/svg"><path fill="none" stroke="#333" stroke-width="2" stroke-linecap="round" stroke-miterlimit="10" d="M14 7l-5 5-5-5"/></symbol><symbol viewBox="0 0 18 18" id="controls--disclosure--impl--images--caret_up" xmlns="http://www.w3.org/2000/svg"><path fill="none" stroke="#333" stroke-width="2" stroke-linecap="round" stroke-miterlimit="10" d="M4 12l5-5 5 5"/></symbol><symbol viewBox="0 0 32 32" id="controls--form--fields--alpaca--test--alpnodepickerfield--test.facets_volume" xmlns="http://www.w3.org/2000/svg"><path fill="#B36601" d="M1.5 27.5V6.513c0-1.11.897-2.013 2-2.013h7.897c.467 0 .936.167 1.319.472l3.668 3.239c.262.206.435.289.616.289h10.5c1.103 0 2 .897 2 2v17h-28z"/><path fill="#FFF" d="M11.397 5c.366 0 .722.136 1.009.364l3.648 3.222c.287.227.58.414.946.414h10.5a1.5 1.5 0 011.5 1.5V27H2V6.513C2 5.684 2.672 5 3.5 5h7.897m0-1H3.5A2.509 2.509 0 001 6.513V28h29V10.5C30 9.122 28.878 8 27.5 8H17c-.027 0-.102-.024-.305-.183l-3.626-3.203-.02-.018-.022-.016a2.643 2.643 0 00-1.63-.58z"/><path fill="#E3992E" d="M3 26h25V12a1 1 0 00-1-1H4a1 1 0 00-1 1v14z"/><g><path fill="#DD8100" d="M3 26h25V13z"/></g></symbol><symbol id="controls--form--fields--alpaca--test--alpnodepickerfield--test.facets_volume_nonselectable32" viewBox="0 0 32 32" xmlns="http://www.w3.org/2000/svg"><defs><style>.akcls-1{fill:gray}.akcls-2{fill:#fff}.akcls-3{fill:#adadad}.akcls-4{fill:#9a9a9a}.akcls-5{opacity:.8}.akcls-6{fill:#cd3632}</style></defs><path class="akcls-1" d="M1.5 27.5V6.513a2.009 2.009 0 012-2.013h7.9a2.14 2.14 0 011.319.473l3.668 3.238A1.006 1.006 0 0017 8.5h10.5a2 2 0 012 2v17z"/><path class="akcls-2" d="M11.4 5a1.638 1.638 0 011.009.364l3.648 3.222A1.526 1.526 0 0017 9h10.5a1.5 1.5 0 011.5 1.5V27H2V6.513A1.511 1.511 0 013.5 5h7.9m0-1H3.5A2.509 2.509 0 001 6.513V28h29V10.5A2.5 2.5 0 0027.5 8H17c-.027 0-.1-.024-.305-.183l-3.626-3.2-.02-.018-.021-.017A2.643 2.643 0 0011.4 4z"/><path class="akcls-3" d="M3 26h25V12a1 1 0 00-1-1H4a1 1 0 00-1 1z"/><path class="akcls-4" d="M3 26h25V13L3 26z"/><path class="akcls-2" d="M29 17.29V27H16.37a8.088 8.088 0 01-.23-1 8.285 8.285 0 01-.14-1.5 8.506 8.506 0 018.5-8.5 8.364 8.364 0 013.5.76 7.34 7.34 0 011 .53z"/><g class="akcls-5"><circle class="akcls-2" cx="24.5" cy="24.5" r="6.5"/></g><path class="akcls-6" d="M24.5 17a7.5 7.5 0 107.5 7.5 7.5 7.5 0 00-7.5-7.5zm0 13a5.5 5.5 0 01-4.53-8.62l7.65 7.65a5.492 5.492 0 01-3.12.97zm4.53-2.38l-7.65-7.65a5.5 5.5 0 017.65 7.65z"/></symbol><symbol viewBox="0 0 32 32" id="controls--form--fields--alpaca--test--alptypeaheadfield--test.mime_workspace" xmlns="http://www.w3.org/2000/svg"><path fill="#4A5962" d="M14.672 11.609h5.782V4.525a3.136 3.136 0 00-3.127-3.127H4.589a3.136 3.136 0 00-3.127 3.127v12.739a3.136 3.136 0 003.127 3.127h6.957v-5.655a3.136 3.136 0 013.126-3.127z"/><path fill="#FFF" d="M17.328 1.399a3.136 3.136 0 013.127 3.127v7.084h-5.782a3.136 3.136 0 00-3.127 3.127v5.655H4.589a3.136 3.136 0 01-3.127-3.127V4.525a3.136 3.136 0 013.127-3.127h12.739m0-.999H4.589A4.132 4.132 0 00.462 4.526v12.739a4.132 4.132 0 004.127 4.127h7.957v-6.655a2.13 2.13 0 012.127-2.127h6.782V4.525A4.132 4.132 0 0017.328.399z"/><path fill="#7B9AB0" d="M27.411 11.609h-6.957v5.655a3.136 3.136 0 01-3.127 3.127h-5.782v7.084a3.136 3.136 0 003.127 3.127h12.739a3.136 3.136 0 003.127-3.127V14.736a3.136 3.136 0 00-3.127-3.127z"/><path fill="#FFF" d="M27.411 11.609a3.136 3.136 0 013.127 3.127v12.739a3.136 3.136 0 01-3.127 3.127H14.672a3.136 3.136 0 01-3.127-3.127v-7.084h5.782a3.136 3.136 0 003.127-3.127v-5.655h6.957m0-1h-7.957v6.655a2.13 2.13 0 01-2.127 2.127h-6.782v8.084a4.132 4.132 0 004.127 4.127h12.739a4.132 4.132 0 004.127-4.127V14.736a4.131 4.131 0 00-4.127-4.127z"/><g><path fill="#627783" d="M20.454 17.264v-5.655h-5.782a3.136 3.136 0 00-3.127 3.127v5.655h5.782a3.136 3.136 0 003.127-3.127z"/><path fill="#FFF" d="M20.454 11.609v5.655a3.136 3.136 0 01-3.127 3.127h-5.782v-5.655a3.136 3.136 0 013.127-3.127h5.782m1-1h-6.782a4.132 4.132 0 00-4.127 4.127v6.655h6.782a4.131 4.131 0 004.127-4.127v-6.655z"/></g></symbol><symbol viewBox="0 0 24 24" id="controls--globalmessage--impl--images--close" xmlns="http://www.w3.org/2000/svg"><g fill="none" stroke="#333" stroke-width="2" stroke-linecap="round" stroke-miterlimit="10"><path d="M21 3L3 21M21 21L3 3"/></g></symbol><symbol viewBox="0 0 30 30" id="controls--globalmessage--impl--images--dismiss" xmlns="http://www.w3.org/2000/svg"><path fill="#231F20" d="M15 30C6.729 30 0 23.27 0 15S6.729 0 15 0s15 6.729 15 15-6.729 15-15 15zm0-28.965C7.299 1.035 1.034 7.299 1.034 15S7.299 28.964 15 28.964 28.966 22.7 28.966 15 22.701 1.035 15 1.035z"/><path fill="#231F20" d="M15.731 15l4.548-4.547a.518.518 0 00-.731-.732L15 14.268 10.451 9.72a.517.517 0 10-.731.732L14.269 15l-4.548 4.547a.518.518 0 00.731.732L15 15.731l4.549 4.548a.515.515 0 00.731 0 .518.518 0 000-.732L15.731 15z"/></symbol><symbol id="controls--globalmessage--impl--images--dismiss_white" viewBox="-624 336 30 30" xml:space="preserve" xmlns="http://www.w3.org/2000/svg"><style>.aost0{fill:#fff}</style><path class="aost0" d="M-609 337.5c7.4 0 13.5 6.1 13.5 13.5s-6.1 13.5-13.5 13.5-13.5-6.1-13.5-13.5 6.1-13.5 13.5-13.5m0-1.5c-8.3 0-15 6.7-15 15s6.7 15 15 15 15-6.7 15-15-6.7-15-15-15z"/><path class="aost0" d="M-603.5 355.4l-4.4-4.4 4.4-4.4c.1-.1.2-.3.2-.5s-.1-.4-.2-.5c-.3-.3-.8-.3-1.1 0l-4.4 4.4-4.4-4.4c-.1-.1-.3-.2-.5-.2s-.4.1-.5.2c-.1.1-.2.3-.2.5s.1.4.2.5l4.4 4.4-4.4 4.4c-.3.3-.3.8 0 1.1.3.3.8.3 1.1 0l4.4-4.4 4.4 4.4c.1.1.3.2.5.2s.4-.1.5-.2c.3-.3.3-.8 0-1.1z"/></symbol><symbol viewBox="0 0 24 24" id="controls--globalmessage--impl--images--notification--formfield_clear24" xmlns="http://www.w3.org/2000/svg"><g data-name="New Symbol 31"><circle cx="12" cy="12" r="12" fill="#eee"/><rect x="11" y="4.955" width="2" height="14" rx="1" ry="1" transform="rotate(45 12 11.955)" fill="#666"/><rect x="11" y="4.955" width="2" height="14" rx="1" ry="1" transform="rotate(135 12 11.955)" fill="#666"/></g></symbol><symbol viewBox="0 0 24 24" id="controls--globalmessage--impl--images--notification--formfield_clear24_dis" xmlns="http://www.w3.org/2000/svg"><g data-name="New Symbol 31"><circle cx="12" cy="12" r="12" fill="#999"/><rect x="11" y="4.955" width="2" height="14" rx="1" ry="1" transform="rotate(45 12 11.955)" fill="#eee"/><rect x="11" y="4.955" width="2" height="14" rx="1" ry="1" transform="rotate(135 12 11.955)" fill="#eee"/></g></symbol><symbol viewBox="0 0 24 24" id="controls--globalmessage--impl--images--notification--formfield_clear24_dummy" xmlns="http://www.w3.org/2000/svg"><g data-name="New Symbol 31"><circle cx="12" cy="12" r="12" fill="#eee"/><rect x="11" y="4.955" width="2" height="14" rx="1" ry="1" transform="rotate(45 12 11.955)" fill="#666"/><rect x="11" y="4.955" width="2" height="14" rx="1" ry="1" transform="rotate(135 12 11.955)" fill="#666"/></g></symbol><symbol viewBox="0 0 24 24" id="controls--globalmessage--impl--images--notification--formfield_clear24_md" xmlns="http://www.w3.org/2000/svg"><g data-name="New Symbol 31"><circle cx="12" cy="12" r="12" fill="#666"/><rect x="11" y="4.955" width="2" height="14" rx="1" ry="1" transform="rotate(45 12 11.955)" fill="#eee"/><rect x="11" y="4.955" width="2" height="14" rx="1" ry="1" transform="rotate(135 12 11.955)" fill="#eee"/></g></symbol><symbol viewBox="0 0 24 24" id="controls--globalmessage--impl--images--notification--formfield_clear24_mo" xmlns="http://www.w3.org/2000/svg"><g data-name="New Symbol 31"><circle cx="12" cy="12" r="12" fill="#eee"/><rect x="11" y="4.955" width="2" height="14" rx="1" ry="1" transform="rotate(45 12 11.955)" fill="#627783"/><rect x="11" y="4.955" width="2" height="14" rx="1" ry="1" transform="rotate(135 12 11.955)" fill="#627783"/></g></symbol><symbol viewBox="0 0 24 24" id="controls--globalmessage--impl--images--notification--notification_error_red" xmlns="http://www.w3.org/2000/svg"><g data-name="New Symbol 31"><circle cx="12" cy="12" r="12" fill="#df3324"/><rect x="11" y="4.955" width="2" height="14" rx="1" ry="1" transform="rotate(45 12 11.955)" fill="#eee"/><rect x="11" y="4.955" width="2" height="14" rx="1" ry="1" transform="rotate(135 12 11.955)" fill="#eee"/></g></symbol><symbol id="controls--globalmessage--impl--images--notification--notification_information" viewBox="0 0 32 32" xml:space="preserve" xmlns="http://www.w3.org/2000/svg"><style>.avst0{fill:#2e3d98}.avst1{fill:#fff}</style><circle class="avst0" cx="16" cy="16" r="16"/><circle class="avst1" cx="16" cy="7" r="2"/><path class="avst1" d="M18 24c0 1.1-.9 2-2 2s-2-.9-2-2V14c0-1.1.9-2 2-2s2 .9 2 2v10z"/></symbol><symbol id="controls--globalmessage--impl--images--notification--notification_question24" viewBox="0 0 24 24" xml:space="preserve" xmlns="http://www.w3.org/2000/svg"><style>.awst0{fill:#111b58}.awst1{fill:#fff}</style><path class="awst0" d="M24 12c0 6.6-5.4 12-12 12S0 18.6 0 12 5.4 0 12 0s12 5.4 12 12"/><path class="awst1" d="M8.8 7.6c.2-.2.4-.3.6-.5.2-.1.5-.3.7-.4l.9-.3c.3-.1.7-.1 1-.1.4 0 .9.1 1.3.2s.7.3 1 .6c.3.3.5.6.7.9.2.4.2.8.2 1.2 0 .4-.1.7-.2 1.1-.1.3-.3.6-.5.8l-.6.6c-.2.2-.4.3-.6.5-.2.1-.3.3-.5.4-.1.1-.2.3-.3.5l-.2 1.2H11l-.1-1.4v-.2c0-.2.1-.4.2-.6.1-.2.3-.4.5-.5.2-.2.4-.3.6-.5.2-.1.4-.3.6-.5.2-.2.3-.4.5-.6.1-.2.2-.5.2-.8 0-.2 0-.4-.1-.5-.1-.2-.2-.3-.3-.4-.1-.1-.3-.2-.5-.3-.4.1-.6 0-.8 0-.3 0-.5 0-.8.1-.2.1-.4.1-.6.2-.2.1-.3.2-.4.2 0 .1-.1.2-.2.2-.2 0-.4-.1-.4-.3l-.6-.8zm1.6 9.8c0-.2 0-.3.1-.5s.2-.3.3-.4c.1-.1.3-.2.4-.3.2-.1.3-.1.5-.1s.3 0 .5.1c.3.1.5.4.7.7.1.3.1.7 0 1-.1.1-.2.3-.3.4-.1.1-.3.2-.4.3-.2.1-.3.1-.5.1s-.3 0-.5-.1c-.1-.1-.3-.1-.4-.3-.1-.1-.2-.2-.3-.4-.1-.1-.1-.3-.1-.5z"/></symbol><symbol id="controls--globalmessage--impl--images--notification--notification_success" viewBox="0 0 32 32" xml:space="preserve" xmlns="http://www.w3.org/2000/svg"><style>.axst0{fill:#067d14}.axst1{fill:#fff}</style><circle class="axst0" cx="16" cy="16" r="16"/><path class="axst1" d="M25 10c-.6-.6-1.5-.6-2.1 0L14 18.9l-4.3-4.3c-.6-.6-1.5-.6-2.1 0s-.6 1.5 0 2.1l6.4 6.4L25.1 12c.5-.5.5-1.5-.1-2z"/></symbol><symbol id="controls--globalmessage--impl--images--notification--notification_success24" viewBox="0 0 24 24" xml:space="preserve" xmlns="http://www.w3.org/2000/svg"><style>.ayst0{fill:#067d14}.ayst1{fill:#fff}</style><g id="ayLayer_2"><g id="ayAdmin"><path class="ayst0" d="M24 12c0 6.6-5.4 12-12 12S0 18.6 0 12 5.4 0 12 0s12 5.4 12 12"/><path class="ayst1" d="M10.2 17.2l-4.6-4.6c-.4-.4-.4-1.1 0-1.6.4-.4 1.1-.4 1.5 0l3.1 3.1 6.7-6.5c.4-.4 1.1-.4 1.6 0s.4 1.1 0 1.6l-8.3 8z"/></g></g></symbol><symbol id="controls--globalmessage--impl--images--notification--notification_warning" viewBox="0 0 32 32" xml:space="preserve" xmlns="http://www.w3.org/2000/svg"><style>.azst0{fill:#df6800}.azst1{fill:#fff}</style><circle class="azst0" cx="16" cy="16" r="16"/><circle class="azst1" cx="16" cy="7" r="2"/><path class="azst1" d="M18 24c0 1.1-.9 2-2 2s-2-.9-2-2V14c0-1.1.9-2 2-2s2 .9 2 2v10z"/></symbol><symbol id="controls--globalmessage--impl--images--notification--status_completed" viewBox="0 0 24 24" xml:space="preserve" xmlns="http://www.w3.org/2000/svg"><style>.bast0{fill:#fff}.bast1{fill:#067d14}</style><path class="bast0" d="M12 22C6.5 22 2 17.5 2 12S6.5 2 12 2s10 4.5 10 10-4.5 10-10 10z"/><path class="bast1" d="M12 3c5 0 9 4 9 9s-4 9-9 9-9-4-9-9 4-9 9-9m0-2C5.9 1 1 5.9 1 12s4.9 11 11 11 11-4.9 11-11S18.1 1 12 1z"/><path class="bast1" d="M10.4 16.3L7 12.9c-.4-.4-.4-1 0-1.4s1-.4 1.4 0l2 2 5.1-5.1c.4-.4 1-.4 1.4 0s.4 1 0 1.4l-6.5 6.5z"/><g><path class="bast0" d="M12 1c6.1 0 11 4.9 11 11s-4.9 11-11 11S1 18.1 1 12 5.9 1 12 1m0-1C5.4 0 0 5.4 0 12s5.4 12 12 12 12-5.4 12-12S18.6 0 12 0z"/></g></symbol><symbol viewBox="-379 291 32 32" id="controls--globalmessage--impl--images--notification_confirmation_white" xmlns="http://www.w3.org/2000/svg"><path fill="#FFF" d="M-363 291c-8.837 0-16 7.163-16 16s7.163 16 16 16 16-7.163 16-16-7.163-16-16-16zm1.481 23.884a1.61 1.61 0 01-.888.878 1.71 1.71 0 01-.655.128c-.237 0-.46-.043-.667-.128a1.678 1.678 0 01-.539-.35 1.57 1.57 0 01-.355-.528 1.7 1.7 0 01-.128-.661c0-.229.043-.448.128-.655.085-.207.204-.385.355-.533a1.76 1.76 0 01.539-.355c.207-.089.429-.133.667-.133a1.686 1.686 0 011.188.488 1.686 1.686 0 01.488 1.188c.001.237-.044.457-.133.661zm2.99-10.145a4.018 4.018 0 01-.617 1.072 4.873 4.873 0 01-.806.789l-.822.628a6.608 6.608 0 00-.672.578 1.141 1.141 0 00-.339.639l-.256 1.622h-1.878l-.189-1.811c-.007-.037-.011-.068-.011-.094v-.095c0-.326.081-.609.244-.85s.367-.467.611-.678c.244-.211.507-.417.789-.617.281-.2.544-.417.789-.65.244-.234.448-.498.611-.795.163-.296.244-.645.244-1.044 0-.267-.05-.506-.15-.717a1.623 1.623 0 00-.417-.545 1.896 1.896 0 00-.639-.35 2.555 2.555 0 00-.806-.122c-.422 0-.78.046-1.072.139a3.998 3.998 0 00-.744.311 9.011 9.011 0 00-.516.311c-.141.092-.267.139-.378.139-.266 0-.459-.111-.578-.333l-.722-1.145a8.02 8.02 0 01.829-.632 5.934 5.934 0 012.106-.872 6.468 6.468 0 011.322-.128 5.53 5.53 0 011.761.266c.53.178.983.432 1.361.761s.67.728.878 1.194c.207.467.311.989.311 1.566 0 .565-.082 1.052-.244 1.463z"/></symbol><symbol viewBox="4 -4 32 32" id="controls--globalmessage--impl--images--notification_error" xmlns="http://www.w3.org/2000/svg"><circle fill="#DF3324" cx="20" cy="12" r="16"/><path fill="#FFF" d="M27.11 16.707l-4.848-4.848 4.567-4.567c.583-.583.583-1.538 0-2.121s-1.538-.583-2.121 0l-4.567 4.567-4.848-4.848c-.583-.583-1.538-.583-2.121 0s-.583 1.538 0 2.121l4.848 4.848-5.13 5.13c-.583.583-.583 1.538 0 2.121s1.538.583 2.121 0l5.13-5.13 4.848 4.848c.583.583 1.538.583 2.121 0s.583-1.538 0-2.121z"/></symbol><symbol viewBox="-379 291 32 32" id="controls--globalmessage--impl--images--notification_error_white" xmlns="http://www.w3.org/2000/svg"><path fill="#FFF" d="M-363 291c-8.837 0-16 7.163-16 16s7.163 16 16 16 16-7.163 16-16-7.163-16-16-16zm7 23a1.505 1.505 0 01-2.121 0l-4.848-4.848-5.13 5.13a1.505 1.505 0 01-2.121 0 1.505 1.505 0 010-2.121l5.13-5.13-4.848-4.848a1.505 1.505 0 010-2.121 1.505 1.505 0 012.121 0l4.848 4.848 4.567-4.567a1.505 1.505 0 012.121 0 1.505 1.505 0 010 2.121l-4.567 4.567 4.848 4.848a1.505 1.505 0 010 2.121z"/></symbol><symbol viewBox="-379 291 32 32" id="controls--globalmessage--impl--images--notification_information" xmlns="http://www.w3.org/2000/svg"><circle fill="#0072AA" cx="-363" cy="307" r="16"/><circle fill="#FFF" cx="-363" cy="298" r="2"/><path fill="#FFF" d="M-361 315c0 1.1-.9 2-2 2s-2-.9-2-2v-10c0-1.1.9-2 2-2s2 .9 2 2v10z"/></symbol><symbol viewBox="-379 291 32 32" id="controls--globalmessage--impl--images--notification_information_white" xmlns="http://www.w3.org/2000/svg"><path fill="#FFF" d="M-363 291c-8.837 0-16 7.163-16 16s7.163 16 16 16 16-7.163 16-16-7.163-16-16-16zm2 24c0 1.1-.9 2-2 2s-2-.9-2-2v-10c0-1.1.9-2 2-2s2 .9 2 2v10zm-2-15a2 2 0 11-.001-3.999A2 2 0 01-363 300z"/></symbol><symbol viewBox="-379 291 32 32" id="controls--globalmessage--impl--images--notification_success" xmlns="http://www.w3.org/2000/svg"><circle fill="#207245" cx="-363" cy="307" r="16"/><path fill="#FFF" d="M-353.969 300.967a1.505 1.505 0 00-2.121 0l-8.936 8.936-4.27-4.27c-.583-.583-1.538-.583-2.121 0s-.583 1.538 0 2.121l6.389 6.388 11.06-11.055a1.503 1.503 0 00-.001-2.12z"/></symbol><symbol viewBox="-379 291 32 32" id="controls--globalmessage--impl--images--notification_success_white" xmlns="http://www.w3.org/2000/svg"><path fill="#FFF" d="M-363 291c-8.837 0-16 7.163-16 16s7.163 16 16 16 16-7.163 16-16-7.163-16-16-16zm9.031 12.088l-11.06 11.055-6.389-6.388c-.583-.583-.583-1.538 0-2.121s1.538-.583 2.121 0l4.27 4.27 8.936-8.936a1.505 1.505 0 012.121 0 1.5 1.5 0 01.001 2.12z"/></symbol><symbol viewBox="-379 291 32 32" id="controls--globalmessage--impl--images--notification_warning" xmlns="http://www.w3.org/2000/svg"><circle fill="#FF9F00" cx="-363" cy="307" r="16"/><circle fill="#333" cx="-363" cy="315" r="2"/><path fill="#333" d="M-361 309c0 1.1-.9 2-2 2s-2-.9-2-2v-11c0-1.1.9-2 2-2s2 .9 2 2v11z"/></symbol><symbol viewBox="-379 291 32 32" id="controls--globalmessage--impl--images--notification_warning_white" xmlns="http://www.w3.org/2000/svg"><path fill="#FFF" d="M-363 322.5c-8.547 0-15.5-6.953-15.5-15.5s6.953-15.5 15.5-15.5 15.5 6.953 15.5 15.5-6.953 15.5-15.5 15.5z"/><path fill="#231F20" d="M-363 292c8.271 0 15 6.729 15 15s-6.729 15-15 15-15-6.729-15-15 6.729-15 15-15m0-1c-8.837 0-16 7.163-16 16s7.163 16 16 16 16-7.163 16-16-7.163-16-16-16z"/><circle fill="#333" cx="-363" cy="315" r="2"/><path fill="#333" d="M-361 309c0 1.1-.9 2-2 2s-2-.9-2-2v-11c0-1.1.9-2 2-2s2 .9 2 2v11z"/></symbol><symbol viewBox="0 0 28 28" id="controls--globalmessage--impl--progresspanel--impl--images--circle_close" xmlns="http://www.w3.org/2000/svg"><path fill="#FFF" d="M14 27.5C6.556 27.5.5 21.444.5 14S6.556.5 14 .5 27.5 6.556 27.5 14 21.444 27.5 14 27.5z"/><path fill="#DCDCDC" d="M14 1c7.168 0 13 5.832 13 13s-5.832 13-13 13S1 21.168 1 14 6.832 1 14 1m0-1C6.268 0 0 6.268 0 14s6.268 14 14 14 14-6.268 14-14S21.732 0 14 0z"/><g fill="none" stroke="#565656" stroke-linecap="round" stroke-miterlimit="10"><path d="M9.25 9.25l9.5 9.5M18.75 9.25l-9.5 9.5"/></g></symbol><symbol id="controls--globalmessage--impl--progresspanel--impl--images--notification--notification_warning" viewBox="0 0 32 32" xml:space="preserve" xmlns="http://www.w3.org/2000/svg"><style>.blst0{fill:#df6800}.blst1{fill:#fff}</style><circle class="blst0" cx="16" cy="16" r="16"/><circle class="blst1" cx="16" cy="7" r="2"/><path class="blst1" d="M18 24c0 1.1-.9 2-2 2s-2-.9-2-2V14c0-1.1.9-2 2-2s2 .9 2 2v10z"/></symbol><symbol viewBox="0 0 32 32" id="controls--list--test--images--icons--mime_document" xmlns="http://www.w3.org/2000/svg"><path fill="#627784" d="M7 31.5c-1.93 0-3.5-1.57-3.5-3.5V4C3.5 2.07 5.07.5 7 .5h15.207L28.5 6.793V28c0 1.93-1.57 3.5-3.5 3.5H7z"/><path fill="#FFF" d="M22 1l6 6v21a3 3 0 01-3 3H7a3 3 0 01-3-3V4a3 3 0 013-3h15m.414-1H7C4.794 0 3 1.794 3 4v24c0 2.206 1.794 4 4 4h18c2.206 0 4-1.794 4-4V6.586l-.293-.293-6-6L22.414 0z"/></symbol><symbol viewBox="0 0 32 32" id="controls--list--test--images--icons--mime_excel" xmlns="http://www.w3.org/2000/svg"><path fill="#207245" d="M7 31.5c-1.9 0-3.5-1.6-3.5-3.5V4C3.5 2.1 5.1.5 7 .5h15.2l6.3 6.3V28c0 1.9-1.6 3.5-3.5 3.5H7z"/><path fill="#FFF" d="M22 1l6 6v21c0 1.7-1.3 3-3 3H7c-1.7 0-3-1.3-3-3V4c0-1.7 1.3-3 3-3h15m.4-1H7C4.8 0 3 1.8 3 4v24c0 2.2 1.8 4 4 4h18c2.2 0 4-1.8 4-4V6.6l-.3-.3-6-6-.3-.3z"/><g fill-rule="evenodd" clip-rule="evenodd" fill="#FFF"><path d="M11.9 10.3l9.8 9.8c.4.4.4 1.1 0 1.6-.4.4-1.1.4-1.6 0l-9.8-9.8c-.4-.4-.4-1.1 0-1.6.5-.4 1.2-.4 1.6 0z"/><path d="M10.3 20.1l9.8-9.8c.4-.4 1.1-.4 1.6 0 .4.4.4 1.1 0 1.6l-9.8 9.8c-.4.4-1.1.4-1.6 0-.4-.5-.4-1.2 0-1.6z"/></g></symbol><symbol viewBox="0 0 32 32" id="controls--list--test--images--icons--mime_folder" xmlns="http://www.w3.org/2000/svg"><path fill="#627784" d="M29 10.5A1.5 1.5 0 0027.5 9H17c-.366 0-.659-.187-.946-.414l-3.648-3.222a1.622 1.622 0 00-1.009-.351H3.5a1.5 1.5 0 00-1.5 1.5V27h27V10.5z"/></symbol><symbol viewBox="0 0 32 32" id="controls--list--test--images--icons--mime_pdf" xmlns="http://www.w3.org/2000/svg"><path fill="#DF3324" d="M7 31.5c-1.9 0-3.5-1.6-3.5-3.5V4C3.5 2.1 5.1.5 7 .5h15c.1 0 .3.1.4.1l6 6c.1.1.1.2.1.4v21c0 1.9-1.6 3.5-3.5 3.5H7z"/><path fill="#FFF" d="M22 1l6 6v21c0 1.7-1.3 3-3 3H7c-1.7 0-3-1.3-3-3V4c0-1.7 1.3-3 3-3h15m0-1H7C4.8 0 3 1.8 3 4v24c0 2.2 1.8 4 4 4h18c2.2 0 4-1.8 4-4V7c0-.3-.1-.5-.3-.7l-6-6c-.2-.2-.4-.3-.7-.3z"/><path fill="#FFF" d="M25.1 18.4c-.4-.7-1.9-.8-3.1-.8-.6 0-1.3 0-2.1.1-.5-.3-1.1-.6-1.5-1-1.2-1-2.1-2.6-2.6-4.3.2-1.3.2-2.3.3-3.4v-.5-.1s.1-.1.1-.2c0-.6 0-1-.2-1.2-.2-.2-.5-.3-.6-.2H15c-.3 0-.6.2-.7.7-.3 1.2-.2 3.1.4 5.1-.4 1.3-.9 2.9-1.9 4.7-2.1 4.2-3.7 6.5-4.8 6.8.2-.6 1.1-2 2.7-3.1.1-.1.1-.2.1-.3-.1-.1-.2-.1-.3-.1-2.2 1.2-3.1 2.5-3.3 3.3v.6l.1.1.4.2c.1.1.3.1.5.1 1 0 2.4-1.5 4.2-4.6 1.9-.7 4.6-1.3 7-1.5 1.5.8 3.2 1.3 4.3 1.3.9 0 1.1-.3 1.2-.6v-.1s.1 0 .1-.1c.3-.5.2-.7.1-.9zm-.5.6c0 .1.1.1.1.1-.1 0-.2.1-.4.1-.6 0-1.5-.2-2.5-.6h.3c1.9-.1 2.4.3 2.5.4zM15.2 7.6c0-.1 0-.1.1-.2.1.1.3.3.3.7 0 0 0 .1.1.1 0 0-.1.1-.1.2 0 .2-.1.5-.1.8 0 .3-.1.7-.2 1.1-.2-1.2-.2-2.2-.1-2.7zm-1.4 10.2c.7-1.4 1.2-2.6 1.5-3.7.6 1.3 1.3 2.4 2.3 3.3.2.2.4.3.6.5-1.7.3-3.6.8-5.3 1.5.4-.5.6-1 .9-1.6z"/></symbol><symbol viewBox="0 0 24 24" id="controls--selected.count--impl--images--close" xmlns="http://www.w3.org/2000/svg"><g fill="none" stroke="#333" stroke-width="2" stroke-linecap="round" stroke-miterlimit="10"><path d="M21 3L3 21M21 21L3 3"/></g></symbol><symbol viewBox="0 0 24 24" id="controls--signin--impl--css--image--formfield_clear" xmlns="http://www.w3.org/2000/svg"><circle fill="#DCDCDC" cx="12" cy="12" r="12"/><path fill="#FFF" stroke="#666" stroke-linecap="round" stroke-miterlimit="10" d="M15.837 8.164l-7.721 7.72M15.837 15.884l-7.721-7.72"/></symbol><symbol viewBox="0 0 24 24" id="controls--signin--impl--css--image--formfield_error" xmlns="http://www.w3.org/2000/svg"><path fill="#FFF" d="M12 23.5C5.659 23.5.5 18.341.5 12S5.659.5 12 .5 23.5 5.659 23.5 12 18.341 23.5 12 23.5z"/><path fill="#DF3324" d="M12 1c6.065 0 11 4.935 11 11s-4.935 11-11 11S1 18.065 1 12 5.935 1 12 1m0-1C5.373 0 0 5.373 0 12s5.373 12 12 12 12-5.373 12-12S18.627 0 12 0z"/><g><g fill="#DF3324"><circle cx="12" cy="17.75" r="1.25"/><path d="M10.75 14V5.25a1.25 1.25 0 012.5 0V14a1.25 1.25 0 01-2.5 0z"/></g></g></symbol><symbol viewBox="0 0 279 32" id="controls--signin--impl--css--image--signin-cs" xmlns="http://www.w3.org/2000/svg"><path fill="#fff" d="M127 3h1v23h-1zM148.885 17a7.259 7.259 0 01-.577 2.058 5.181 5.181 0 01-1.166 1.638 5.317 5.317 0 01-1.785 1.092 7.491 7.491 0 01-5.113-.1 5.579 5.579 0 01-2.079-1.5 7.05 7.05 0 01-1.354-2.457 10.718 10.718 0 01-.483-3.371 10.2 10.2 0 01.525-3.413 7.339 7.339 0 011.418-2.478 5.936 5.936 0 012.078-1.512 6.3 6.3 0 012.531-.515 6.934 6.934 0 012.352.357 4.788 4.788 0 011.67 1A5.055 5.055 0 01148 9.309a9.965 9.965 0 01.672 1.911l-1.218.273a9.023 9.023 0 00-.578-1.659A4.035 4.035 0 00146 8.6a3.687 3.687 0 00-1.291-.777 5.4 5.4 0 00-1.827-.273 4.7 4.7 0 00-2.205.5 4.781 4.781 0 00-1.639 1.407 6.625 6.625 0 00-1.028 2.142 9.748 9.748 0 00-.357 2.709 9.987 9.987 0 00.347 2.72 6.62 6.62 0 001 2.13 4.526 4.526 0 001.648 1.4 5.006 5.006 0 002.269.494 5.978 5.978 0 002.047-.3 3.612 3.612 0 001.365-.851 3.953 3.953 0 00.84-1.292 7.653 7.653 0 00.456-1.609zM156.152 22.14a5.384 5.384 0 01-2.131-.4 4.232 4.232 0 01-1.575-1.145 5.227 5.227 0 01-.987-1.8 7.5 7.5 0 01-.347-2.352 7.341 7.341 0 01.368-2.394 5.4 5.4 0 011.028-1.827 4.468 4.468 0 011.607-1.166 5.278 5.278 0 012.12-.409 5.41 5.41 0 012.121.4 4.323 4.323 0 011.6 1.145 5.142 5.142 0 011 1.8 7.4 7.4 0 01.347 2.331 7.535 7.535 0 01-.357 2.394 5.375 5.375 0 01-1.019 1.837 4.378 4.378 0 01-1.616 1.176 5.41 5.41 0 01-2.159.41zm.042-1.05a3.771 3.771 0 001.743-.368 3.316 3.316 0 001.176-1 4.153 4.153 0 00.673-1.491 7.9 7.9 0 00.21-1.869 7.575 7.575 0 00-.21-1.816 4.161 4.161 0 00-.673-1.48 3.321 3.321 0 00-1.176-1 4.291 4.291 0 00-3.476 0 3.206 3.206 0 00-1.176 1 4.267 4.267 0 00-.661 1.48 7.62 7.62 0 00-.21 1.837 7.751 7.751 0 00.21 1.848 4.259 4.259 0 00.661 1.491 3.2 3.2 0 001.176 1 3.789 3.789 0 001.733.368zM163.9 10.989h1.218v1.764A5.645 5.645 0 01167 11.146a4.746 4.746 0 012.132-.493 3.4 3.4 0 012.729 1.029 4.355 4.355 0 01.882 2.919v7.2h-1.218v-6.864a3.881 3.881 0 00-.609-2.446 2.352 2.352 0 00-1.932-.746 4.114 4.114 0 00-1.334.242 3.551 3.551 0 00-1.27.767 4.125 4.125 0 00-.945 1.123 3.336 3.336 0 00-.315 1.586V21.8h-1.22zM176.157 12h-1.681v-1.011h1.681V8.007h1.217v2.982h3.066V12h-3.066v7.077a2.577 2.577 0 00.336 1.354 1.262 1.262 0 001.176.557 4.334 4.334 0 00.926-.084 5.8 5.8 0 00.672-.189l.252.987a4.892 4.892 0 01-1.953.336 2.815 2.815 0 01-1.449-.315 2.038 2.038 0 01-.788-.83 3.259 3.259 0 01-.325-1.187q-.063-.672-.062-1.407zM191.214 18.969a3.683 3.683 0 01-1.344 2.289 4.837 4.837 0 01-3.108.882 4.519 4.519 0 01-3.622-1.5 6.12 6.12 0 01-1.292-4.126 7.894 7.894 0 01.368-2.52 5.253 5.253 0 011.028-1.837 4.3 4.3 0 011.555-1.124 4.982 4.982 0 011.963-.378 5.069 5.069 0 012.143.409 3.893 3.893 0 011.438 1.113 4.49 4.49 0 01.808 1.669 8.171 8.171 0 01.253 2.079v.775h-8.316a6.3 6.3 0 00.23 1.732 4.147 4.147 0 00.693 1.407 3.3 3.3 0 001.155.945 3.523 3.523 0 001.6.347 5.245 5.245 0 001.386-.158 2.7 2.7 0 00.945-.451 2.31 2.31 0 00.6-.683 3.609 3.609 0 00.347-.872zm-1.071-3.318a6.49 6.49 0 00-.188-1.617 3.61 3.61 0 00-.588-1.271 2.638 2.638 0 00-1.051-.83 3.756 3.756 0 00-1.554-.294 3.325 3.325 0 00-2.52.987 4.924 4.924 0 00-1.135 3.024zM194.031 10.989h1.219v1.764a5.643 5.643 0 011.879-1.607 4.749 4.749 0 012.132-.493 3.4 3.4 0 012.729 1.029 4.355 4.355 0 01.882 2.919v7.2h-1.218v-6.864a3.887 3.887 0 00-.608-2.446 2.355 2.355 0 00-1.933-.746 4.1 4.1 0 00-1.333.242 3.547 3.547 0 00-1.271.767 4.142 4.142 0 00-.945 1.123 3.337 3.337 0 00-.314 1.586V21.8h-1.219zM206.287 12h-1.68v-1.011h1.68V8.007h1.213v2.982h3.066V12H207.5v7.077a2.577 2.577 0 00.336 1.354 1.26 1.26 0 001.176.557 4.33 4.33 0 00.925-.084 5.74 5.74 0 00.672-.189l.252.987a4.882 4.882 0 01-1.953.336 2.817 2.817 0 01-1.449-.315 2.035 2.035 0 01-.787-.83 3.24 3.24 0 01-.326-1.187q-.063-.672-.062-1.407zM218.025 17.877a3.605 3.605 0 001.449 2.425 7.524 7.524 0 005.2.494 3.157 3.157 0 001.187-.672 2.387 2.387 0 00.63-.987 3.76 3.76 0 00.189-1.2 4.18 4.18 0 00-.116-1 2.112 2.112 0 00-.44-.861 2.78 2.78 0 00-.935-.682 6.079 6.079 0 00-1.6-.462l-1.868-.315a12.425 12.425 0 01-1.942-.483 4.758 4.758 0 01-1.439-.767 3 3 0 01-.892-1.187 4.436 4.436 0 01-.3-1.743 3.547 3.547 0 01.431-1.785 3.72 3.72 0 011.154-1.25 5.239 5.239 0 011.7-.735 8.587 8.587 0 012.068-.242 7.766 7.766 0 012.353.3 4.643 4.643 0 011.554.809 3.741 3.741 0 01.945 1.145 6.972 6.972 0 01.524 1.291l-1.176.336a6.649 6.649 0 00-.493-1.166 2.749 2.749 0 00-.756-.872 3.4 3.4 0 00-1.187-.546 6.915 6.915 0 00-1.743-.189 7.2 7.2 0 00-1.933.22 3.534 3.534 0 00-1.26.609 2.209 2.209 0 00-.692.924 3.093 3.093 0 00-.211 1.145 3.624 3.624 0 00.147 1.092 1.841 1.841 0 00.5.8 2.909 2.909 0 00.956.567 8.616 8.616 0 001.5.4l2.121.378a10.274 10.274 0 011.964.546 4.384 4.384 0 011.375.851 3.165 3.165 0 01.811 1.235 4.872 4.872 0 01.263 1.68 4.015 4.015 0 01-.336 1.627 3.7 3.7 0 01-1 1.333 4.942 4.942 0 01-1.648.9 7.184 7.184 0 01-2.31.336 10.417 10.417 0 01-2.258-.231 5.482 5.482 0 01-1.827-.746 4.2 4.2 0 01-1.291-1.333 4.719 4.719 0 01-.63-1.995zM239.679 18.969a3.683 3.683 0 01-1.344 2.289 4.837 4.837 0 01-3.108.882 4.519 4.519 0 01-3.622-1.5 6.12 6.12 0 01-1.292-4.126 7.894 7.894 0 01.368-2.52 5.253 5.253 0 011.028-1.837 4.3 4.3 0 011.555-1.124 4.982 4.982 0 011.963-.378 5.069 5.069 0 012.143.409 3.893 3.893 0 011.438 1.113 4.49 4.49 0 01.808 1.669 8.171 8.171 0 01.253 2.079v.775h-8.316a6.3 6.3 0 00.23 1.732 4.147 4.147 0 00.693 1.407 3.3 3.3 0 001.155.945 3.523 3.523 0 001.6.347 5.245 5.245 0 001.386-.158 2.7 2.7 0 00.945-.451 2.31 2.31 0 00.6-.683 3.609 3.609 0 00.347-.872zm-1.071-3.318a6.49 6.49 0 00-.188-1.617 3.61 3.61 0 00-.588-1.271 2.638 2.638 0 00-1.051-.83 3.756 3.756 0 00-1.554-.294 3.325 3.325 0 00-2.52.987 4.924 4.924 0 00-1.135 3.024zM242.5 10.989h1.219v1.764a4.953 4.953 0 011.49-1.428 3.416 3.416 0 011.785-.5q.231 0 .431.01a3.534 3.534 0 01.431.053l-.147 1.155a4.235 4.235 0 00-.692-.063 3.345 3.345 0 00-1.113.2 2.986 2.986 0 00-1.071.683 3.475 3.475 0 00-.8 1.018 3.006 3.006 0 00-.314 1.418V21.8H242.5zM249.107 10.989h1.407l3.675 9.492 3.759-9.492h1.323L254.9 21.8h-1.428zM269.624 18.969a3.683 3.683 0 01-1.344 2.289 4.837 4.837 0 01-3.108.882 4.519 4.519 0 01-3.622-1.5 6.12 6.12 0 01-1.292-4.126 7.894 7.894 0 01.368-2.52 5.253 5.253 0 011.028-1.837 4.3 4.3 0 011.555-1.124 4.982 4.982 0 011.963-.378 5.069 5.069 0 012.143.409 3.893 3.893 0 011.438 1.113 4.49 4.49 0 01.808 1.669 8.171 8.171 0 01.253 2.079v.775H261.5a6.3 6.3 0 00.23 1.732 4.147 4.147 0 00.693 1.407 3.3 3.3 0 001.155.945 3.523 3.523 0 001.6.347 5.245 5.245 0 001.386-.158 2.7 2.7 0 00.945-.451 2.31 2.31 0 00.6-.683 3.609 3.609 0 00.347-.872zm-1.071-3.318a6.49 6.49 0 00-.188-1.617 3.61 3.61 0 00-.588-1.271 2.638 2.638 0 00-1.051-.83 3.756 3.756 0 00-1.554-.294 3.325 3.325 0 00-2.52.987 4.924 4.924 0 00-1.135 3.024zM272.442 10.989h1.219v1.764a4.953 4.953 0 011.49-1.428 3.416 3.416 0 011.785-.5q.231 0 .431.01a3.534 3.534 0 01.431.053l-.147 1.155a4.235 4.235 0 00-.692-.063 3.345 3.345 0 00-1.113.2 2.986 2.986 0 00-1.071.683 3.475 3.475 0 00-.8 1.018 3.006 3.006 0 00-.314 1.418V21.8h-1.219zM16.063 14.558c0 3.78-2.176 7.874-8.017 7.874C3.837 22.432 0 20.084 0 14.558c0-4.581 2.892-8.1 8.619-7.788 6.099.343 7.444 5.067 7.444 7.788zm-10.88-2.877a5.191 5.191 0 00-.744 2.849c0 2.319 1.145 4.419 3.608 4.419 2.377 0 3.55-1.932 3.55-4.223a4.866 4.866 0 00-1.231-3.66 3.25 3.25 0 00-2.577-.81 2.989 2.989 0 00-2.606 1.425zM55.147 8.459a4.3 4.3 0 011.489-1.174 7.3 7.3 0 012.72-.515 5.653 5.653 0 012.663.572c1.575.83 1.976 2.176 1.976 4.5v10.217h-4.381v-8.418a5.986 5.986 0 00-.2-2.233 2 2 0 00-1.976-1.145c-2.319 0-2.319 1.861-2.319 3.722v8.075h-4.41V7.141h4.438zM48.615 18.2c-.4.851-1.7 4.233-7.445 4.233-4.438 0-7.559-2.715-7.559-7.612 0-3.608 1.775-8.051 7.674-8.051a6.883 6.883 0 015.383 1.952c1.947 2.09 2.062 5.011 2.119 6.7h-10.68a3.366 3.366 0 003.407 3.722 3.955 3.955 0 003.78-2.634zm-4.381-5.526a3.555 3.555 0 00-.83-2.119 3.105 3.105 0 00-2.148-.83 3.032 3.032 0 00-2.233.974 3.905 3.905 0 00-.888 1.976zM109.926 10.238h2.921v-3.1h-2.892V4h-4.381v3.141h-.695l-2.006 3.1h2.7v7.1a5.783 5.783 0 00.63 3.379c.945 1.374 2.606 1.46 4.123 1.46a14.089 14.089 0 002.319-.229v-3.442l-1.575.057c-1.174 0-1.174-.773-1.145-1.689zM66.189 4h4.381v3.142h4.553l-2.005 3.1h-2.577v6.638c-.029.916-.029 1.689 1.145 1.689l1.575-.057v3.436a14.089 14.089 0 01-2.319.229c-1.518 0-3.178-.086-4.123-1.46a5.783 5.783 0 01-.63-3.379zM116.905 10.239h-.541V7.6h-1v-.459h2.519V7.6h-.98zm4.245 0h-.532l.019-1.912.028-.634-.149.522-.634 2.024h-.482l-.625-2.024-.159-.513.037.625.019 1.912h-.522v-3.1h.737l.774 2.444.756-2.444h.737z"/><path d="M88.926 18.212l-.839 1.3c-.785 1.152-2.263 2.924-6.5 2.924-4.438 0-7.42-2.715-7.42-7.612 0-3.608 1.775-8.051 7.674-8.051a6.883 6.883 0 015.383 1.952c1.947 2.09 2.062 5.011 2.119 6.7H78.667c-.029 1.861.891 3.722 3.268 3.722 2.405 0 3.1-1.575 3.64-2.634zm-4.131-5.54a3.555 3.555 0 00-.83-2.119 3.105 3.105 0 00-2.148-.83 3.032 3.032 0 00-2.233.974 3.905 3.905 0 00-.888 1.976z" fill="#fff"/><path fill="#fff" d="M103.935 22.061l-5.477-7.853 4.568-7.067h-5.014l-2.156 3.336-2.327-3.336h-5.014l4.929 7.067-5.076 7.853h5.014l2.664-4.122 2.876 4.122h5.013zM22.123 8.459a4.784 4.784 0 013.922-1.689c3.665 0 6.243 2.777 6.243 7.76 0 3.064-1.116 7.9-6.427 7.9a4.771 4.771 0 01-3.766-1.689V27h-4.41V7.141h4.438zm2.977 1.753a2.819 2.819 0 00-2.262 1.119 5.26 5.26 0 00-.916 3.278 5.014 5.014 0 001.059 3.438 2.7 2.7 0 001.976.9c2.148 0 3.092-2.262 3.092-4.447 0-1.839-.544-3.784-2.348-4.21a2.332 2.332 0 00-.601-.078z"/></symbol><symbol id="controls--thumbnail--content--favorite--impl--images--switch_favorite24" viewBox="0 0 24 24" xml:space="preserve" xmlns="http://www.w3.org/2000/svg"><style>.bust0{fill-rule:evenodd;clip-rule:evenodd;fill:#333}</style><path class="bust0" d="M14.322 9.134a.39.39 0 00.292.213l4.544.66a.389.389 0 01.215.663l-3.288 3.205a.386.386 0 00-.112.344l.776 4.526a.388.388 0 01-.563.41l-.449-.236-3.615-1.901a.385.385 0 00-.361 0l-4.064 2.137a.389.389 0 01-.564-.41l.777-4.526a.386.386 0 00-.112-.344L4.51 10.67a.388.388 0 01.214-.663l4.544-.66a.387.387 0 00.292-.213l1.808-3.663.224-.455a.39.39 0 01.697 0l2.033 4.118zm-.418-4.914l1.704 3.452 3.811.553c1.789.262 2.513 2.464 1.211 3.733l-.001.001-2.756 2.686.651 3.794c.306 1.784-1.567 3.155-3.177 2.307l-3.406-1.791-3.407 1.791c-1.601.844-3.484-.515-3.174-2.307v-.003l.65-3.79-2.751-2.682-.003-.004c-1.307-1.269-.581-3.473 1.208-3.735l3.811-.553L9.98 4.217c.803-1.619 3.12-1.627 3.924.003z"/></symbol><symbol id="controls--thumbnail--content--favorite--impl--images--switch_favorite24_md" viewBox="0 0 24 24" xml:space="preserve" xmlns="http://www.w3.org/2000/svg"><style>.bvst0{fill-rule:evenodd;clip-rule:evenodd;fill:#666}</style><path class="bvst0" d="M14.322 9.134a.39.39 0 00.292.213l4.544.66a.389.389 0 01.215.663l-3.288 3.205a.386.386 0 00-.112.344l.776 4.526a.388.388 0 01-.563.41l-.449-.236-3.615-1.901a.385.385 0 00-.361 0l-4.064 2.137a.389.389 0 01-.564-.41l.777-4.526a.386.386 0 00-.112-.344L4.51 10.67a.388.388 0 01.214-.663l4.544-.66a.387.387 0 00.292-.213l1.808-3.663.224-.455a.39.39 0 01.697 0l2.033 4.118zm-.418-4.914l1.704 3.452 3.811.554c1.789.262 2.513 2.464 1.211 3.733l-.001.001-2.756 2.686.651 3.794c.306 1.783-1.567 3.155-3.177 2.307l-3.406-1.791-3.407 1.791c-1.601.843-3.484-.516-3.174-2.308v-.003l.65-3.79-2.751-2.682-.003-.004c-1.307-1.269-.581-3.473 1.208-3.735l3.811-.554L9.98 4.217c.803-1.619 3.12-1.627 3.924.003z"/></symbol><symbol id="controls--thumbnail--content--favorite--impl--images--switch_favorite24_mo" viewBox="0 0 24 24" xml:space="preserve" xmlns="http://www.w3.org/2000/svg"><style>.bwst0{fill-rule:evenodd;clip-rule:evenodd;fill:#627783}</style><path class="bwst0" d="M14.322 9.134a.39.39 0 00.292.213l4.544.66a.389.389 0 01.215.663l-3.288 3.205a.386.386 0 00-.112.344l.776 4.526a.388.388 0 01-.563.41l-.449-.236-3.615-1.901a.385.385 0 00-.361 0l-4.064 2.137a.389.389 0 01-.564-.41l.777-4.526a.386.386 0 00-.112-.344L4.51 10.67a.388.388 0 01.214-.663l4.544-.66a.387.387 0 00.292-.213l1.808-3.663.224-.455a.39.39 0 01.697 0l2.033 4.118zm-.418-4.914l1.704 3.452 3.811.554c1.789.262 2.513 2.464 1.211 3.733l-.001.001-2.756 2.686.651 3.794c.306 1.784-1.567 3.155-3.177 2.307l-3.406-1.791-3.407 1.791c-1.601.843-3.484-.516-3.174-2.308v-.003l.65-3.79-2.751-2.682-.003-.004c-1.307-1.269-.581-3.473 1.208-3.735l3.811-.553L9.98 4.217c.803-1.619 3.12-1.627 3.924.003z"/></symbol><symbol id="controls--thumbnail--content--favorite--impl--images--switch_favorite_on24" viewBox="0 0 24 24" xml:space="preserve" xmlns="http://www.w3.org/2000/svg"><style>.bxst0{fill-rule:evenodd;clip-rule:evenodd;fill:#333}</style><path class="bxst0" d="M13.904 4.22l1.704 3.452 3.811.553c1.789.262 2.513 2.464 1.211 3.733l-.001.001-2.756 2.686.651 3.794c.306 1.784-1.567 3.155-3.177 2.307l-3.406-1.791-3.407 1.791c-1.601.844-3.484-.515-3.174-2.307v-.003l.65-3.79-2.751-2.682-.003-.004c-1.307-1.269-.581-3.473 1.208-3.735l3.811-.553L9.98 4.217c.803-1.619 3.12-1.627 3.924.003z"/></symbol><symbol id="controls--thumbnail--content--favorite--impl--images--switch_favorite_on24_md" viewBox="0 0 24 24" xml:space="preserve" xmlns="http://www.w3.org/2000/svg"><style>.byst0{fill-rule:evenodd;clip-rule:evenodd;fill:#666}</style><path class="byst0" d="M13.904 4.22l1.704 3.452 3.811.554c1.789.262 2.513 2.464 1.211 3.733l-.001.001-2.756 2.686.651 3.794c.306 1.783-1.567 3.155-3.177 2.307l-3.406-1.791-3.407 1.791c-1.601.843-3.484-.516-3.174-2.308v-.003l.65-3.79-2.751-2.682-.003-.004c-1.307-1.269-.581-3.473 1.208-3.735l3.811-.554L9.98 4.217c.803-1.619 3.12-1.627 3.924.003z"/></symbol><symbol id="controls--thumbnail--content--favorite--impl--images--switch_favorite_on24_mo" viewBox="0 0 24 24" xml:space="preserve" xmlns="http://www.w3.org/2000/svg"><style>.bzst0{fill-rule:evenodd;clip-rule:evenodd;fill:#627783}</style><path class="bzst0" d="M13.904 4.22l1.704 3.452 3.811.553c1.789.262 2.513 2.464 1.211 3.733l-.001.001-2.756 2.686.651 3.794c.306 1.784-1.567 3.155-3.177 2.307l-3.406-1.791-3.407 1.791c-1.601.844-3.484-.515-3.174-2.307v-.003l.65-3.79-2.751-2.682-.003-.004c-1.307-1.269-.581-3.473 1.208-3.735l3.811-.553L9.98 4.217c.803-1.619 3.12-1.627 3.924.003z"/></symbol><symbol viewBox="0 0 18 18" id="controls--thumbnail--content--select--impl--images--checkbox" xmlns="http://www.w3.org/2000/svg"><path fill="#FFF" d="M16 18H2a2 2 0 01-2-2V2a2 2 0 012-2h14a2 2 0 012 2v14a2 2 0 01-2 2z"/><path fill="#A9A9A9" d="M16 1c.551 0 1 .449 1 1v14c0 .551-.449 1-1 1H2c-.551 0-1-.449-1-1V2c0-.551.449-1 1-1h14m0-1H2a2 2 0 00-2 2v14a2 2 0 002 2h14a2 2 0 002-2V2a2 2 0 00-2-2z"/></symbol><symbol viewBox="0 0 18 18" id="controls--thumbnail--content--select--impl--images--checkbox_all_selected" xmlns="http://www.w3.org/2000/svg"><path fill="#999" d="M15 1c1.103 0 2 .897 2 2v12c0 1.103-.897 2-2 2H3c-1.103 0-2-.897-2-2V3c0-1.103.897-2 2-2h12m0-1H3a3 3 0 00-3 3v12a3 3 0 003 3h12a3 3 0 003-3V3a3 3 0 00-3-3z"/><path fill="none" stroke="#333" stroke-width="2" stroke-linecap="round" stroke-miterlimit="10" d="M13.377 6.142l-6.233 6.233-2.813-2.813"/></symbol><symbol viewBox="0 0 18 18" id="controls--thumbnail--content--select--impl--images--checkbox_disabled" xmlns="http://www.w3.org/2000/svg"><path fill="#FFF" d="M16 18H2a2 2 0 01-2-2V2a2 2 0 012-2h14a2 2 0 012 2v14a2 2 0 01-2 2z"/><path fill="#EEE" d="M15.674 17.581H2.326a1.907 1.907 0 01-1.907-1.907V2.326c0-1.053.854-1.907 1.907-1.907h13.349c1.053 0 1.907.854 1.907 1.907v13.349a1.907 1.907 0 01-1.908 1.906z"/><path fill="#A9A9A9" d="M16 1c.551 0 1 .449 1 1v14c0 .551-.449 1-1 1H2c-.551 0-1-.449-1-1V2c0-.551.449-1 1-1h14m0-1H2a2 2 0 00-2 2v14a2 2 0 002 2h14a2 2 0 002-2V2a2 2 0 00-2-2z"/></symbol><symbol viewBox="0 0 18 18" id="controls--thumbnail--content--select--impl--images--checkbox_mixed" xmlns="http://www.w3.org/2000/svg"><path fill="#999" d="M15 1c1.103 0 2 .897 2 2v12c0 1.103-.897 2-2 2H3c-1.103 0-2-.897-2-2V3c0-1.103.897-2 2-2h12m0-1H3a3 3 0 00-3 3v12a3 3 0 003 3h12a3 3 0 003-3V3a3 3 0 00-3-3z"/><path fill="#666" d="M12.982 10.004h-8a1 1 0 010-2h8a1 1 0 010 2z"/></symbol><symbol viewBox="0 0 18 18" id="controls--thumbnail--content--select--impl--images--checkbox_selected" xmlns="http://www.w3.org/2000/svg"><path fill="#666" d="M16 18H2a2 2 0 01-2-2V2a2 2 0 012-2h14a2 2 0 012 2v14a2 2 0 01-2 2z"/><path fill="#FFF" d="M7.144 13.789l-3.52-3.52a.999.999 0 111.414-1.414l2.105 2.105 5.526-5.526a.999.999 0 111.414 1.414l-6.939 6.941z"/></symbol><symbol viewBox="0 0 37.007 42" id="controls--thumbnail--content--thumbnail.icon--util--images--play_arrow" xmlns="http://www.w3.org/2000/svg"><path fill="#FFF" d="M.003 0l37 21-37 21z"/></symbol><symbol viewBox="0 0 18 18" id="controls--tree--impl--images--checkbox" xmlns="http://www.w3.org/2000/svg"><path fill="#FFF" d="M16 18H2a2 2 0 01-2-2V2a2 2 0 012-2h14a2 2 0 012 2v14a2 2 0 01-2 2z"/><path fill="#A9A9A9" d="M16 1c.551 0 1 .449 1 1v14c0 .551-.449 1-1 1H2c-.551 0-1-.449-1-1V2c0-.551.449-1 1-1h14m0-1H2a2 2 0 00-2 2v14a2 2 0 002 2h14a2 2 0 002-2V2a2 2 0 00-2-2z"/></symbol><symbol viewBox="-1 -5 24 24" id="controls--tree--impl--images--checkbox24_dis" xmlns="http://www.w3.org/2000/svg"><path fill="#CCC" d="M1.667 18.333c-1.103 0-2-.897-2-2V-2.333c0-1.103.897-2 2-2h18.667c1.103 0 2 .897 2 2v18.667c0 1.103-.897 2-2 2H1.667z"/><path fill="#A9A9A9" d="M20.333-3.667c.735 0 1.333.598 1.333 1.333v18.667c0 .735-.598 1.333-1.333 1.333H1.667a1.335 1.335 0 01-1.333-1.333V-2.333c0-.735.598-1.333 1.333-1.333h18.666m0-1.334H1.667A2.675 2.675 0 00-1-2.333v18.667C-1 17.8.2 19 1.667 19h18.667C21.8 19 23 17.8 23 16.333V-2.333C23-3.8 21.8-5 20.333-5z"/></symbol><symbol viewBox="0 0 18 18" id="controls--tree--impl--images--checkbox_all_selected" xmlns="http://www.w3.org/2000/svg"><path fill="#999" d="M15 1c1.103 0 2 .897 2 2v12c0 1.103-.897 2-2 2H3c-1.103 0-2-.897-2-2V3c0-1.103.897-2 2-2h12m0-1H3a3 3 0 00-3 3v12a3 3 0 003 3h12a3 3 0 003-3V3a3 3 0 00-3-3z"/><path fill="none" stroke="#333" stroke-width="2" stroke-linecap="round" stroke-miterlimit="10" d="M13.377 6.142l-6.233 6.233-2.813-2.813"/></symbol><symbol viewBox="0 0 18 18" id="controls--tree--impl--images--checkbox_disabled" xmlns="http://www.w3.org/2000/svg"><path fill="#FFF" d="M16 18H2a2 2 0 01-2-2V2a2 2 0 012-2h14a2 2 0 012 2v14a2 2 0 01-2 2z"/><path fill="#EEE" d="M15.674 17.581H2.326a1.907 1.907 0 01-1.907-1.907V2.326c0-1.053.854-1.907 1.907-1.907h13.349c1.053 0 1.907.854 1.907 1.907v13.349a1.907 1.907 0 01-1.908 1.906z"/><path fill="#A9A9A9" d="M16 1c.551 0 1 .449 1 1v14c0 .551-.449 1-1 1H2c-.551 0-1-.449-1-1V2c0-.551.449-1 1-1h14m0-1H2a2 2 0 00-2 2v14a2 2 0 002 2h14a2 2 0 002-2V2a2 2 0 00-2-2z"/></symbol><symbol viewBox="0 0 18 18" id="controls--tree--impl--images--checkbox_mixed" xmlns="http://www.w3.org/2000/svg"><path fill="#999" d="M15 1c1.103 0 2 .897 2 2v12c0 1.103-.897 2-2 2H3c-1.103 0-2-.897-2-2V3c0-1.103.897-2 2-2h12m0-1H3a3 3 0 00-3 3v12a3 3 0 003 3h12a3 3 0 003-3V3a3 3 0 00-3-3z"/><path fill="#666" d="M12.982 10.004h-8a1 1 0 010-2h8a1 1 0 010 2z"/></symbol><symbol viewBox="0 0 24 24" id="controls--tree--impl--images--checkbox_on24_dis" xmlns="http://www.w3.org/2000/svg"><path fill="#F5F5F5" d="M2.667 23.333c-1.103 0-2-.897-2-2V2.667c0-1.103.897-2 2-2h18.667c1.103 0 2 .897 2 2v18.667c0 1.103-.897 2-2 2H2.667z"/><path fill="#A9A9A9" d="M21.333 1.333c.735 0 1.333.598 1.333 1.333v18.667c0 .735-.598 1.333-1.333 1.333H2.667a1.335 1.335 0 01-1.333-1.333V2.667c0-.735.598-1.333 1.333-1.333h18.666m0-1.334H2.667A2.675 2.675 0 000 2.667v18.667C0 22.8 1.2 24 2.667 24h18.667C22.8 24 24 22.8 24 21.333V2.667C24 1.2 22.8 0 21.333 0z"/><g><path fill="#A9A9A9" d="M9.733 17.733l-4.667-4.667c-.533-.533-.533-1.333 0-1.867s1.333-.533 1.867 0l2.8 2.8 7.333-7.333c.533-.533 1.333-.533 1.867 0s.533 1.333 0 1.867l-9.2 9.2z"/></g></symbol><symbol viewBox="0 0 18 18" id="controls--tree--impl--images--checkbox_selected" xmlns="http://www.w3.org/2000/svg"><path fill="#666" d="M16 18H2a2 2 0 01-2-2V2a2 2 0 012-2h14a2 2 0 012 2v14a2 2 0 01-2 2z"/><path fill="#FFF" d="M7.144 13.789l-3.52-3.52a.999.999 0 111.414-1.414l2.105 2.105 5.526-5.526a.999.999 0 111.414 1.414l-6.939 6.941z"/></symbol></svg>