<?xml version="1.0" encoding="utf-8"?>
<!-- Generator: Adobe Illustrator 22.1.0, SVG Export Plug-In . SVG Version: 6.00 Build 0)  -->
<svg version="1.1" id="Layer_1" xmlns="http://www.w3.org/2000/svg" xmlns:xlink="http://www.w3.org/1999/xlink" x="0px" y="0px"  width="400"  height="350"
	 viewBox="0 0 479 17" style="enable-background:new 0 0 479 17;" xml:space="preserve">
<style type="text/css">
	.st0{clip-path:url(#SVGID_2_);}
	.st1{fill:#FFFFFF;}
	.st2{fill:#333333;}
	.st3{fill:#CCCCCC;}
	.st4{fill:#757575;}
</style>
<g>
	<defs>
		<rect id="SVGID_1_" width="479" height="17"/>
	</defs>
	<clipPath id="SVGID_2_">
		<use xlink:href="#SVGID_1_"  style="overflow:visible;"/>
	</clipPath>
	<g class="st0">
		<rect class="st1" width="17" height="17"/>
		<path class="st1" d="M8,5H5v1h3V5z"/>
		<path class="st1" d="M7,9.5c0,1.3,0,2.7,0,4v2h9v-1h-3v-4h3v-1h-3v-4h3v-4H7v2v1H5v1h2h1h4v4H8c-0.2,0-0.3,0-0.5,0S7.2,9.5,7,9.5z
			 M12,10.5v4H8v-4H12z"/>
		<path class="st2" d="M16,5V1H7v3H4v6h3v5h9v-1h-3v-4h3V9h-3V5H16z M5,9V5h2h1h2h2v4h-2H8H7H5z M12,14H8v-4h4V14z"/>
		<rect x="5" y="5" class="st3" width="7" height="4"/>
		<path class="st1" d="M4,7.5L1,5.1v5L4,7.5z"/>
		<path class="st2" d="M4,6.9L1,4.5v5L4,6.9z"/>
		<rect x="22" class="st1" width="17" height="17"/>
		<path class="st1" d="M31,6h3V5h-3V6z"/>
		<path class="st1" d="M31.5,9.5c-0.2,0-0.3,0-0.5,0h-4v-4h4h1h2v-1h-2v-1v-2h-9v4h3v4h-3v1h3v4h-3v1h9v-2c0-1.3,0-2.7,0-4
			C31.8,9.5,31.7,9.5,31.5,9.5z M31,10.5v4h-4v-4H31z"/>
		<path class="st2" d="M26,5v4h-3v1h3v4h-3v1h9v-5h3V4h-3V1h-9v4H26z M32,9h-1h-2h-2V5h2h2h1h2v4H32z M27,10h4v4h-4V10z"/>
		<rect x="27" y="5" class="st3" width="7" height="4"/>
		<path class="st1" d="M35,7.5l3-2.4v5L35,7.5z"/>
		<path class="st2" d="M35,6.9l3-2.4v5L35,6.9z"/>
		<rect x="44" class="st1" width="17" height="17"/>
		<path class="st1" d="M51.374,5.167l-0.707,0.707l4.031,4.031l0.707-0.707L51.374,5.167z"/>
		<path class="st1" d="M54.697,5.096l-4.031,4.031l0.707,0.707l4.031-4.031L54.697,5.096z"/>
		<path class="st1" d="M45,3.5v10v2h16v-2v-10v-2H45V3.5z M56,5.5h4v4h-4V5.5z M56,10.5h4v4h-4V10.5z M51,5.5h4v4h-4V5.5z M51,10.5
			h4v4h-4V10.5z M46,5.5h4v4h-4V5.5z M46,10.5h4v4h-4V10.5z"/>
		<path class="st2" d="M45,1v2v10v2h16v-2V3V1H45z M46,5h4v4h-4V5z M51,5h4v4h-4V5z M56,5h4v4h-4V5z M46,10h4v4h-4V10z M51,10h4v4
			h-4V10z M56,10h4v4h-4V10z"/>
		<rect x="51" y="5" class="st4" width="4" height="4"/>
		<rect x="56" y="5" class="st4" width="4" height="4"/>
		<rect x="66" class="st1" width="17" height="17"/>
		<path class="st1" d="M66,1.5v2v10v2h16v-2v-10v-2H66z M71,14.5h-4v-4h4V14.5z M71,9.5h-4v-4h4V9.5z M81,5.5v4v1V14v0.5h-4V14h-1
			v0.5h-4V14v-3.5v-1v-4V5h9V5.5z"/>
		<path class="st2" d="M66,1v2v10v2h16v-2V3V1H66z M71,14h-4v-4h4V14z M71,9h-4V5h4V9z M81,9v1v4h-4h-1h-4v-4V9V5h4h1h4V9z"/>
		<rect x="72" y="5" class="st4" width="9" height="9"/>
		<path class="st1" d="M79.586,6.42c0.552,0.534,0.552,1.412,0,1.946l-0.513,0.458l-2.011-1.946l0.513-0.496
			C78.127,5.848,79.034,5.886,79.586,6.42z M73,12.793l0.513-2.48l3.036-2.938L78.6,9.358l-3.037,2.938L73,12.793z"/>
		<rect x="88" class="st1" width="17" height="17"/>
		<path class="st1" d="M88,1.5v2v10v2h16v-2v-10v-2H88z M93,14.5h-4v-4h4V14.5z M93,9.5h-4v-4h4V9.5z M103,5.5v4v1V14v0.5h-4V14h-1
			v0.5h-4V14v-3.5v-1v-4V5h9V5.5z"/>
		<path class="st2" d="M88,1v2v10v2h16v-2V3V1H88z M93,14h-4v-4h4V14z M93,9h-4V5h4V9z M103,9v1v4h-4h-1h-4v-4V9V5h4h1h4V9z"/>
		<rect x="94" y="5" class="st3" width="9" height="9"/>
		<rect x="110" class="st1" width="17" height="17"/>
		<path class="st1" d="M110,1.5v2v10v2h16v-2v-10v-2H110z M121,10.5h4v4h-4V10.5z M121,5.5h4v4h-4V5.5z M116,10.5h4v4h-4V10.5z
			 M111,10.5h4v4h-4V10.5z M111,5.5h4h1h4V9v0.5h-4V9h-1v0.5h-4V9V5.5z"/>
		<path class="st2" d="M110,1v2v10v2h16v-2V3V1H110z M121,10h4v4h-4V10z M121,5h4v4h-4V5z M116,10h4v4h-4V10z M111,10h4v4h-4V10z
			 M111,5h2h2h1h1h3v4h-3h-1h-1h-2h-2V5z"/>
		<rect x="111" y="5" class="st3" width="9" height="4"/>
		<rect x="132" class="st1" width="17" height="17"/>
		<path class="st1" d="M132,1.5v2v10v2h16v-2v-10v-2H132z M137,8v1.5v1v2.3v1.7h-4v-1.7v-2.3v-1V8V5.5h4V8z M142,14.5h-4v-4h4V14.5z
			 M142,9.5h-4v-4h4V9.5z M147,14.5h-4v-4h4V14.5z M147,9.5h-4v-4h4V9.5z"/>
		<path class="st2" d="M132,1v2v10v2h16v-2V3V1H132z M137,6.9V9v1v2.2V14h-4v-1.8V10V9V6.9V5h4V6.9z M142,14h-4v-4h4V14z M142,9h-4
			V5h4V9z M147,14h-4v-4h4V14z M147,9h-4V5h4V9z"/>
		<rect x="133" y="5" class="st3" width="4" height="9"/>
		<rect x="154" class="st1" width="17" height="17"/>
		<path class="st1" d="M162.5,5.5h-1v1h1V5.5z M162.5,7.5h-1v1h1V7.5z M162.5,9.5h-1v1h1V9.5z M162.5,11.5h-1v1h1V11.5z M162.5,13.5
			h-1v1h1V13.5z"/>
		<path class="st2" d="M162.5,5h-1v1h1V5z M162.5,7h-1v1h1V7z M162.5,9h-1v1h1V9z M162.5,11h-1v1h1V11z M162.5,13h-1v1h1V13z"/>
		<path class="st1" d="M154,1.5v2v10v2h16v-2v-10v-2H154z M169,5.5v4v1V14v0.5h-4V14h-1v0.5h-4V14h-1v0.5h-4V14v-3.5v-1v-4V5h14V5.5
			z"/>
		<path class="st2" d="M154,1v2v10v2h16v-2V3V1H154z M169,9v1v4h-4h-1h-4h-1h-4v-4V9V5h4h1h4h1h4V9z"/>
		<path class="st1" d="M166,9.1h-2.5c-0.3,0-0.5,0.2-0.5,0.5s0.2,0.5,0.5,0.5h2.5v1l2-1.6L166,8V9.1z"/>
		<path class="st2" d="M168.5,9.6l-2-1.5v1H164c-0.3,0-0.5,0.2-0.5,0.5s0.2,0.5,0.5,0.5h2.5v1L168.5,9.6z"/>
		<path class="st1" d="M157,10h2.5c0.3,0,0.5-0.2,0.5-0.5S159.8,9,159.5,9H157V8l-2,1.6l2,1.5V10z"/>
		<path class="st2" d="M155.5,9.5l2,1.5v-1h2.5c0.3,0,0.5-0.2,0.5-0.5S160.3,9,160,9h-2.5V8L155.5,9.5z"/>
		<rect x="176" class="st1" width="17" height="17"/>
		<rect x="198" class="st1" width="17" height="17"/>
		<path class="st1" d="M214,12.9c0,2.1-1.7,3.8-3.8,3.8c-2.1,0-3.8-1.7-3.8-3.8s1.7-3.8,3.8-3.8C212.3,9.2,214,10.9,214,12.9z"/>
		<path class="st1" d="M198,3.5v10v2h16v-2v-10v-2h-16V3.5z M209,5.5h4v4h-4V5.5z M209,10.5h4v4h-4V10.5z M204,5.5h4v4h-4V5.5z
			 M204,10.5h4v4h-4V10.5z M199,5.5h4v4h-4V5.5z M199,10.5h4v4h-4V10.5z"/>
		<path class="st2" d="M198,1v2v10v2h8.3c-0.221-0.308-0.407-0.643-0.552-1H204v-4h1.932c0.187-0.363,0.419-0.699,0.689-1H204V5h4
			v2.932c0.315-0.162,0.65-0.291,1-0.381V5h4v3.3c0.378,0.272,0.715,0.598,1,0.966L214,3V1H198z M207.858,9.206
			C207.569,9.433,207.313,9.7,207.1,10L207.858,9.206z M209,10.856c-0.366,0.325-0.6,0.799-0.6,1.344c0,0.527,0.228,1.011,0.6,1.345
			V10.856z M199,5h4v4h-4V5z M199,10h4v4h-4V10z"/>
		<path class="st1" d="M210.2,15.5c1.823,0,3.3-1.477,3.3-3.3s-1.477-3.3-3.3-3.3s-3.3,1.477-3.3,3.3S208.377,15.5,210.2,15.5z"/>
		<path class="st2" d="M210.2,16c-2.1,0-3.8-1.7-3.8-3.8s1.7-3.8,3.8-3.8c2.1,0,3.8,1.7,3.8,3.8S212.3,16,210.2,16z"/>
		<path class="st1" d="M208.635,10.598c-0.234,0.234-0.234,0.614,0,0.849l0.778,0.778l-0.778,0.778
			c-0.234,0.234-0.234,0.614,0,0.849c0.234,0.234,0.614,0.234,0.849,0l0.778-0.778l0.778,0.778c0.234,0.234,0.614,0.234,0.849,0
			c0.234-0.234,0.234-0.614,0-0.849l-0.778-0.778l0.778-0.778c0.234-0.234,0.234-0.614,0-0.849c-0.234-0.234-0.614-0.234-0.849,0
			l-0.778,0.778l-0.778-0.778C209.249,10.363,208.869,10.363,208.635,10.598z"/>
		<path class="st1" d="M177.5,9.5v1h1v-1H177.5z M179.5,9.5v1h1v-1H179.5z M181.5,9.5v1h1v-1H181.5z M183.5,9.5v1h1v-1H183.5z
			 M185.5,9.5v1h1v-1H185.5z M187.5,9.5v1h1v-1H187.5z M189.5,9.5v1h1v-1H189.5z"/>
		<path class="st1" d="M176,1.5v2v10v2h16v-2v-10v-2H176z M191,5.5v4v1V14v0.5h-4V14h-1v0.5h-4V14h-1v0.5h-4V14v-3.5v-1v-4V5h14V5.5
			z"/>
		<path class="st2" d="M176,1v2v10v2h16v-2V3V1H176z M191,9v1v4h-4h-1h-4h-1h-4v-4V9V5h4h1h4h1h4V9z"/>
		<path class="st1" d="M183.6,8v0.5c0,0.3,0.2,0.5,0.5,0.5s0.5-0.2,0.5-0.5V8h1L184,6l-1.5,2H183.6z"/>
		<path class="st2" d="M184.1,5.5l-1.5,2h1V8c0,0.3,0.2,0.5,0.5,0.5s0.5-0.2,0.5-0.5V7.5h1L184.1,5.5z"/>
		<path class="st1" d="M184.4,11v-0.5c0-0.3-0.2-0.5-0.5-0.5s-0.5,0.2-0.5,0.5V11h-1l1.6,2l1.5-2H184.4z"/>
		<path class="st2" d="M183.9,13.5l1.5-2h-1V11c0-0.3-0.2-0.5-0.5-0.5s-0.5,0.2-0.5,0.5v0.5h-1L183.9,13.5z"/>
		<path class="st2" d="M177.5,9v1h1V9H177.5z M179.5,9v1h1V9H179.5z M181.5,9v1h1V9H181.5z M183.5,9v1h1V9H183.5z M185.5,9v1h1V9
			H185.5z M187.5,9v1h1V9H187.5z M189.5,9v1h1V9H189.5z"/>
		<rect x="220" class="st1" width="17" height="17"/>
		<path class="st1" d="M220,3.5v10v2h16v-2v-10v-2h-16V3.5z M231,5.5h4v4h-4V5.5z M231,10.5h4v4h-4V10.5z M226,5.5h4v4h-4V5.5z
			 M226,10.5h4v4h-4V10.5z M221,5.5h4v4h-4V5.5z M221,10.5h4v4h-4V10.5z"/>
		<path class="st2" d="M220,1v2v10v2h8.3c-0.2-0.3-0.4-0.6-0.6-1H226v-4h1.9c0.2-0.4,0.4-0.7,0.7-1H226V5h4v2.9
			c0.3-0.2,0.6-0.3,1-0.4V5h4v3.3c0.4,0.3,0.7,0.6,1,1V3V1H220z M229.2,14.5c0.1,0.2,0.3,0.3,0.4,0.5
			C229.5,14.8,229.3,14.7,229.2,14.5z M231,13.5v-2.7c-0.4,0.3-0.6,0.8-0.6,1.3C230.4,12.7,230.6,13.2,231,13.5z M221,5h4v4h-4V5z
			 M221,10h4v4h-4V10z"/>
		<path class="st1" d="M232.2,15.5c1.8,0,3.3-1.5,3.3-3.3s-1.5-3.3-3.3-3.3s-3.3,1.5-3.3,3.3S230.4,15.5,232.2,15.5z"/>
		<path class="st2" d="M232.2,16c-2.1,0-3.8-1.7-3.8-3.8s1.7-3.8,3.8-3.8c2.1,0,3.8,1.7,3.8,3.8S234.3,16,232.2,16z"/>
		<path class="st1" d="M232.3,9.9c-0.3,0-0.6,0.3-0.6,0.6v1.1h-1.1c-0.3,0-0.6,0.3-0.6,0.6s0.3,0.6,0.6,0.6h1.1v1.1
			c0,0.3,0.3,0.6,0.6,0.6s0.6-0.3,0.6-0.6v-1.1h1.1c0.3,0,0.6-0.3,0.6-0.6s-0.3-0.6-0.6-0.6h-1.1v-1.1
			C232.9,10.2,232.6,9.9,232.3,9.9z"/>
		<rect x="242" class="st1" width="17" height="17"/>
		<path class="st1" d="M242,13.5v-10v-2h16v2v5.337c-0.284-0.403-0.621-0.766-1-1.08V5.5h-4v1.022c-0.343,0.031-0.678,0.093-1,0.185
			V5.5h-4v4h0.6c-0.162,0.317-0.294,0.651-0.393,1H248V12v2.5h0.6c0.183,0.358,0.404,0.693,0.657,1H242V13.5z M257.743,15.5H258
			v-0.337C257.919,15.279,257.833,15.391,257.743,15.5z M247,5.5h-4v4h4V5.5z M247,10.5h-4v4h4V10.5z"/>
		<path class="st2" d="M242,13V3V1h16v2v5.837c-0.284-0.403-0.621-0.766-1-1.08V5h-4v1.522c-0.343,0.031-0.678,0.093-1,0.185V5h-4v4
			h0.889c-0.204,0.313-0.377,0.648-0.515,1H248v2v2h0.375c0.138,0.352,0.311,0.687,0.515,1H242V13z M247,5h-4v4h4V5z M247,10h-4v4h4
			V10z"/>
		<path class="st2" d="M253.5,7.375c-0.426,0-0.772,0.345-0.772,0.772v0.611c-0.35,0.082-0.678,0.221-0.976,0.403l-0.431-0.431
			c-0.301-0.301-0.79-0.301-1.091,0c-0.301,0.301-0.301,0.79,0,1.091l0.424,0.424c-0.188,0.299-0.329,0.63-0.415,0.983h-0.591
			c-0.426,0-0.772,0.345-0.772,0.772s0.345,0.772,0.772,0.772h0.579c0.082,0.36,0.221,0.697,0.408,1.003l-0.404,0.404
			c-0.301,0.301-0.301,0.79,0,1.091c0.301,0.301,0.79,0.301,1.091,0l0.397-0.397c0.307,0.193,0.647,0.337,1.01,0.423v0.557
			c0,0.426,0.346,0.772,0.772,0.772s0.772-0.345,0.772-0.772v-0.557c0.363-0.086,0.704-0.23,1.01-0.423l0.397,0.397
			c0.301,0.301,0.79,0.301,1.091,0c0.301-0.301,0.301-0.79,0-1.091l-0.404-0.404c0.187-0.306,0.327-0.643,0.408-1.003h0.579
			c0.426,0,0.772-0.345,0.772-0.772s-0.345-0.772-0.772-0.772h-0.591c-0.086-0.353-0.227-0.684-0.415-0.983l0.424-0.424
			c0.301-0.301,0.301-0.79,0-1.091c-0.301-0.302-0.79-0.302-1.092,0l-0.431,0.431c-0.298-0.182-0.626-0.32-0.976-0.403V8.147
			C254.272,7.72,253.926,7.375,253.5,7.375z M251.685,12.027c0-1.001,0.814-1.815,1.815-1.815s1.815,0.814,1.815,1.815
			s-0.814,1.815-1.815,1.815S251.685,13.027,251.685,12.027z"/>
		<rect x="264" class="st1" width="17" height="17"/>
		<path class="st1" d="M277,5l3,2.4v-5L277,5z"/>
		<path class="st2" d="M277,4.6l3,2.4V2L277,4.6z"/>
		<path class="st3" d="M276,6V3h-10v3H276z"/>
		<path class="st1" d="M274,7h-8v0.5h8V7z"/>
		<path class="st1" d="M274,11h-8v0.5h8V11z"/>
		<path class="st1" d="M275,15h-10v0.5h10V15z"/>
		<path class="st2" d="M276,3v3h-10V3H276z M277,2h-12v5h12V2z"/>
		<path class="st2" d="M274,7v3h-8V7H274z M275,6h-10v5h10V6z"/>
		<path class="st2" d="M274,11v3h-8v-3H274z M275,10h-10v5h10V10z"/>
		<rect x="286" class="st1" width="17" height="17"/>
		<path class="st1" d="M299,13l3-2.4v5L299,13z"/>
		<path class="st2" d="M299,12.4l3-2.4v5L299,12.4z"/>
		<path class="st3" d="M298,11v3h-10v-3H298z"/>
		<path class="st1" d="M296,7.5h-8V7h8V7.5z"/>
		<path class="st1" d="M296,3.5h-8V3h8V3.5z"/>
		<path class="st1" d="M299,15.5h-12V15h12V15.5z"/>
		<path class="st2" d="M298,14v-3h-10v3H298z M299,15h-12v-5h12V15z"/>
		<path class="st2" d="M296,10V7h-8v3H296z M297,11h-10V6h10V11z"/>
		<path class="st2" d="M296,6V3h-8v3H296z M297,7h-10V2h10V7z"/>
		<rect x="308" class="st1" width="17" height="17"/>
		<path class="st1" d="M325,13l-3-2.4v5L325,13z"/>
		<path class="st2" d="M325,12.4l-3-2.4v5L325,12.4z"/>
		<path class="st4" d="M320,11v3h-8v-3H320z"/>
		<path class="st1" d="M318,7.5h-8V7h8V7.5z"/>
		<path class="st1" d="M318,3.5h-8V3h8V3.5z"/>
		<path class="st1" d="M321,15.5h-10V15h10V15.5z"/>
		<path class="st2" d="M320,14v-3h-8v3H320z M321,15h-10v-5h10V15z"/>
		<path class="st2" d="M318,10V7h-8v3H318z M319,11h-10V6h10V11z"/>
		<path class="st2" d="M318,6V3h-8v3H318z M319,7h-10V2h10V7z"/>
		<rect x="330" class="st1" width="17" height="17"/>
		<path class="st1" d="M334.6,4.5l2.4-3h-5L334.6,4.5z"/>
		<path class="st2" d="M334.6,4l2.4-3h-5L334.6,4z"/>
		<path class="st3" d="M336,5h-3v10h3V5z"/>
		<path class="st1" d="M337,7v0.5h3V7H337z"/>
		<path class="st1" d="M332,16.5V16h13v0.5H332z"/>
		<path class="st1" d="M341,7.5V7h3v0.5H341z"/>
		<path class="st2" d="M333,5h3v10h-3V5z M332,4v12h5V4H332z"/>
		<path class="st2" d="M337,7h3v8h-3V7z M336,6v10h5V6H336z"/>
		<path class="st2" d="M341,7h3v8h-3V7z M340,6v10h5V6H340z"/>
		<rect x="352" class="st1" width="17" height="17"/>
		<path class="st1" d="M364.4,4.5l-2.4-3h5L364.4,4.5z"/>
		<path class="st2" d="M364.4,4L362,1h5L364.4,4z"/>
		<path class="st3" d="M363,5h3v10h-3V5z"/>
		<path class="st1" d="M362,7v0.5h-3V7H362z"/>
		<path class="st1" d="M367,16.5V16h-13v0.5H367z"/>
		<path class="st1" d="M358,7.5V7h-3v0.5H358z"/>
		<path class="st2" d="M366,5h-3v10h3V5z M367,4v12h-5V4H367z"/>
		<path class="st2" d="M362,7h-3v8h3V7z M363,6v10h-5V6H363z"/>
		<path class="st2" d="M358,7h-3v8h3V7z M359,6v10h-5V6H359z"/>
		<rect x="374" class="st1" width="17" height="17"/>
		<path class="st1" d="M386.4,0.5l-2.4,3h5L386.4,0.5z"/>
		<path class="st2" d="M386.4,0L384,3h5L386.4,0z"/>
		<path class="st4" d="M385,5h3v8h-3V5z"/>
		<path class="st1" d="M384,7v0.5h-3V7H384z"/>
		<path class="st1" d="M385,16.5V16h-9v0.5H385z"/>
		<path class="st1" d="M380,7.5V7h-3v0.5H380z"/>
		<path class="st2" d="M388,5h-3v8h3V5z M389,4v10h-5V4H389z"/>
		<path class="st2" d="M384,7h-3v8h3V7z M385,6v10h-5V6H385z"/>
		<path class="st2" d="M380,7h-3v8h3V7z M381,6v10h-5V6H381z"/>
		<path class="st1" d="M389,14.5V14h-4v0.5H389z"/>
		<rect x="396" class="st1" width="17" height="17"/>
		<path class="st2" d="M399,16h6v-1v-4v-1V6V5V1V0h-6V16z M404,11v4h-4v-4H404z M404,6v4h-4V6H404z M404,1v4h-4V1H404z"/>
		<path class="st1" d="M400,1v0.5h4V1H400z"/>
		<path class="st1" d="M400,6v0.5h4V6H400z"/>
		<path class="st1" d="M400,11v0.5h4V11H400z"/>
		<path class="st1" d="M399,16v0.5h6V16H399z"/>
		<path class="st1" d="M411,8.5l-2,1.5V9h-2.5c-0.3,0-0.5-0.2-0.5-0.5V8.4c0-0.2,0.2-0.4,0.5-0.4h2.5V7L411,8.5z"/>
		<path class="st2" d="M411,8l-2,1.5v-1h-2.5c-0.3,0-0.5-0.2-0.5-0.5V7.9c0-0.2,0.2-0.4,0.5-0.4h2.5v-1L411,8z"/>
		<rect x="418" class="st1" width="17" height="17"/>
		<path class="st2" d="M433,16h-6v-1v-4v-1V6V5V1V0h6V16z M428,11v4h4v-4H428z M428,6v4h4V6H428z M428,1v4h4V1H428z"/>
		<path class="st1" d="M432,1v0.5h-4V1H432z"/>
		<path class="st1" d="M432,6v0.5h-4V6H432z"/>
		<path class="st1" d="M432,11v0.5h-4V11H432z"/>
		<path class="st1" d="M433,16v0.5h-6V16H433z"/>
		<path class="st1" d="M421,8.5l2,1.5V9h2.5c0.3,0,0.5-0.2,0.5-0.5V8.4c0-0.2-0.2-0.4-0.5-0.4H423V7L421,8.5z"/>
		<path class="st2" d="M421,8l2,1.5v-1h2.5c0.3,0,0.5-0.2,0.5-0.5V7.9c0-0.2-0.2-0.4-0.5-0.4H423v-1L421,8z"/>
		<rect x="440" class="st1" width="17" height="17"/>
		<path class="st2" d="M441,14V8h1h4h1h4h1h4h1v6H441z M446,9h-4v4h4V9z M451,9h-4v4h4V9z M456,9h-4v4h4V9z"/>
		<path class="st1" d="M446,9.5h-4V9h4V9.5z"/>
		<path class="st1" d="M451,9.5h-4V9h4V9.5z"/>
		<path class="st1" d="M456,9.5h-4V9h4V9.5z"/>
		<path class="st1" d="M457,14.5h-16V14h16V14.5z"/>
		<path class="st1" d="M449,2.5l-1.5,2h1V7c0,0.3,0.2,0.5,0.5,0.5h0.1c0.2,0,0.4-0.2,0.4-0.5V4.5h1L449,2.5z"/>
		<path class="st2" d="M449,2l-1.5,2h1v2.5c0,0.3,0.2,0.5,0.5,0.5h0.1c0.2,0,0.4-0.2,0.4-0.5V4h1L449,2z"/>
		<rect x="462" class="st1" width="17" height="17"/>
		<path class="st2" d="M463,2v6h1h4h1h4h1h4h1V2H463z M468,7h-4V3h4V7z M473,7h-4V3h4V7z M478,7h-4V3h4V7z"/>
		<path class="st1" d="M468,3h-4v0.5h4V3z"/>
		<path class="st1" d="M473,3h-4v0.5h4V3z"/>
		<path class="st1" d="M478,3h-4v0.5h4V3z"/>
		<path class="st1" d="M479,8h-16v0.5h16V8z"/>
		<path class="st1" d="M471,14.5l-1.5-2h1V10c0-0.3,0.2-0.5,0.5-0.5h0.1c0.2,0,0.4,0.2,0.4,0.5v2.5h1L471,14.5z"/>
		<path class="st2" d="M471,14l-1.5-2h1V9.5c0-0.3,0.2-0.5,0.5-0.5h0.1c0.2,0,0.4,0.2,0.4,0.5V12h1L471,14z"/>
	</g>
</g>
</svg>
