<?xml version="1.0" encoding="UTF-8"?>
<!-- Generator: Adobe Illustrator 19.1.0, SVG Export Plug-In . SVG Version: 6.00 Build 0)  -->
<svg version="1.1" id="Layer_1" xmlns="http://www.w3.org/2000/svg" xmlns:xlink="http://www.w3.org/1999/xlink" x="0px" y="0px" viewBox="0 0 32 32" style="enable-background:new 0 0 32 32;" xml:space="preserve">
<style type="text/css">
	.st0{fill:#333333;}
</style>
<g>
	<g>
		<path class="st0" d="M15.275,1.24C6.839,1.24,0,8.079,0,16.515C0,24.952,6.839,31.79,15.275,31.79S30.55,24.952,30.55,16.515    C30.55,8.079,23.711,1.24,15.275,1.24z M25.245,26.486c-1.295,1.295-2.803,2.312-4.482,3.022    c-1.738,0.735-3.584,1.108-5.488,1.108s-3.75-0.373-5.488-1.108c-1.679-0.71-3.187-1.727-4.482-3.022s-2.312-2.803-3.022-4.482    c-0.735-1.738-1.108-3.584-1.108-5.488c0-1.904,0.373-3.75,1.108-5.488c0.71-1.679,1.727-3.187,3.022-4.482    C6.6,5.25,8.108,4.233,9.787,3.523c1.738-0.735,3.584-1.108,5.488-1.108s3.75,0.373,5.488,1.108    c1.679,0.71,3.187,1.727,4.482,3.022c1.295,1.295,2.312,2.803,3.022,4.482c0.735,1.738,1.108,3.584,1.108,5.488    c0,1.904-0.373,3.75-1.108,5.488C27.557,23.682,26.54,25.19,25.245,26.486z"/>
	</g>
	<g>
		<path class="st0" d="M22.753,9.038C21.78,8.065,20.648,7.302,19.39,6.77c-1.301-0.55-2.685-0.829-4.115-0.829    S12.461,6.219,11.16,6.77C9.901,7.302,8.77,8.065,7.797,9.038c-0.973,0.973-1.736,2.104-2.268,3.363    C4.979,13.701,4.7,15.086,4.7,16.515c0,1.43,0.279,2.814,0.829,4.115c0.532,1.259,1.295,2.39,2.268,3.363    c0.973,0.973,2.104,1.736,3.363,2.268c1.301,0.55,2.685,0.829,4.115,0.829c1.43,0,2.814-0.279,4.115-0.829    c1.259-0.532,2.39-1.295,3.363-2.268c0.973-0.973,1.736-2.104,2.268-3.363c0.55-1.301,0.829-2.685,0.829-4.115    s-0.279-2.814-0.829-4.115C24.488,11.142,23.725,10.011,22.753,9.038z M23.939,20.173c-0.473,1.119-1.152,2.124-2.017,2.99    c-0.865,0.865-1.871,1.544-2.99,2.017c-1.155,0.489-2.386,0.736-3.657,0.736s-2.502-0.248-3.657-0.736    c-1.119-0.473-2.124-1.152-2.99-2.017c-0.865-0.865-1.544-1.871-2.017-2.99c-0.489-1.155-0.736-2.386-0.736-3.657    c0-1.272,0.248-2.502,0.736-3.657c0.473-1.119,1.152-2.124,2.017-2.99c0.865-0.865,1.871-1.544,2.99-2.017    c1.155-0.489,2.386-0.736,3.657-0.736s2.502,0.248,3.657,0.736c1.119,0.473,2.125,1.152,2.99,2.017    c0.865,0.865,1.544,1.871,2.017,2.99c0.489,1.155,0.736,2.386,0.736,3.657C24.675,17.787,24.427,19.017,23.939,20.173z"/>
	</g>
	<g>
		<path class="st0" d="M30.159,17.445c-0.962-0.213-1.917,0.197-2.444,0.962l-6.58-1.459c0.01-0.143,0.015-0.288,0.015-0.433    c0-0.797-0.154-1.566-0.458-2.284c-0.295-0.698-0.72-1.328-1.263-1.87c-0.543-0.543-1.172-0.967-1.871-1.263    c-0.064-0.027-0.128-0.052-0.192-0.077l0.422-1.903c0.916-0.154,1.691-0.846,1.905-1.809c0.281-1.267-0.518-2.521-1.785-2.802    c-1.267-0.281-2.521,0.518-2.802,1.785c-0.213,0.963,0.197,1.918,0.962,2.444l-0.425,1.915c-0.122-0.007-0.245-0.012-0.369-0.012    c-0.797,0-1.566,0.154-2.284,0.458c-0.447,0.189-0.866,0.432-1.252,0.724L7.011,7.094c0.383-0.863,0.221-1.908-0.486-2.615    c-0.918-0.918-2.406-0.918-3.323,0c-0.918,0.918-0.918,2.406,0,3.323C3.889,8.49,4.896,8.662,5.744,8.32l4.762,4.762    c-0.259,0.357-0.476,0.742-0.649,1.15C9.554,14.95,9.4,15.718,9.4,16.515c0,0.797,0.154,1.566,0.458,2.284    c0.013,0.03,0.026,0.061,0.04,0.091l-1.708,1.088c-0.757-0.539-1.794-0.598-2.626-0.068c-1.095,0.697-1.416,2.15-0.719,3.244    c0.697,1.095,2.15,1.417,3.244,0.719c0.832-0.53,1.217-1.495,1.048-2.409l1.71-1.089c0.088,0.1,0.179,0.198,0.274,0.294    c0.543,0.543,1.172,0.968,1.87,1.263c0.718,0.304,1.487,0.458,2.284,0.458c0.797,0,1.566-0.154,2.284-0.458    c0.026-0.011,0.051-0.022,0.077-0.034l3.636,5.708c-0.539,0.757-0.598,1.795-0.068,2.626c0.697,1.094,2.15,1.416,3.244,0.719    c1.094-0.697,1.416-2.15,0.719-3.244c-0.53-0.832-1.495-1.217-2.409-1.048l-3.635-5.706c0.104-0.091,0.206-0.186,0.305-0.285    c0.543-0.543,0.968-1.172,1.263-1.87c0.019-0.044,0.036-0.088,0.054-0.132l6.587,1.46c0.154,0.916,0.846,1.691,1.809,1.905    c1.267,0.281,2.521-0.518,2.802-1.785C32.225,18.981,31.425,17.726,30.159,17.445z M15.275,18.865    c-0.323,0-0.629-0.06-0.911-0.179c-0.278-0.118-0.531-0.289-0.751-0.509c-0.22-0.22-0.391-0.472-0.509-0.75    c-0.119-0.282-0.18-0.588-0.18-0.911c0-0.323,0.06-0.629,0.179-0.911c0.118-0.278,0.289-0.531,0.509-0.751    c0.22-0.22,0.473-0.391,0.751-0.509c0.281-0.119,0.588-0.179,0.911-0.179c0.323,0,0.629,0.06,0.911,0.179    c0.278,0.118,0.531,0.289,0.751,0.509c0.22,0.22,0.391,0.472,0.509,0.751c0.119,0.282,0.18,0.588,0.18,0.911    c0,0.323-0.06,0.629-0.179,0.911c-0.118,0.278-0.289,0.531-0.509,0.751c-0.22,0.22-0.472,0.391-0.75,0.509    C15.904,18.805,15.598,18.865,15.275,18.865z"/>
	</g>
</g>
</svg>