<?xml version="1.0" encoding="utf-8"?>
<!-- Generator: Adobe Illustrator 18.1.0, SVG Export Plug-In . SVG Version: 6.00 Build 0)  -->
<!DOCTYPE svg PUBLIC "-//W3C//DTD SVG 1.1//EN" "http://www.w3.org/Graphics/SVG/1.1/DTD/svg11.dtd">
<svg version="1.1" id="Layer_1" xmlns="http://www.w3.org/2000/svg" xmlns:xlink="http://www.w3.org/1999/xlink" x="0px" y="0px"
	 viewBox="0 0 32 32" enable-background="new 0 0 32 32" xml:space="preserve">
<g id="Ppt">
</g>
<g id="Small_Folder">
</g>
<g id="fave_icon_-_selected">
</g>
<g>
	<g>
		<g>
			<path fill="#146634" d="M1.5,27.5V6.513c0-1.103,0.897-2,2-2h7.897c0.477,0,0.945,0.163,1.319,0.46l3.668,3.238
				C16.604,8.383,16.793,8.5,17,8.5h10.5c1.103,0,2,0.897,2,2v17H1.5z"/>
			<g>
				<path fill="#FFFFFF" d="M11.397,5.013c0.366,0,0.722,0.124,1.009,0.351l3.648,3.222C16.341,8.813,16.634,9,17,9h10.5
					c0.828,0,1.5,0.672,1.5,1.5V27H2V6.513c0-0.828,0.672-1.5,1.5-1.5H11.397 M11.397,4.013H3.5c-1.378,0-2.5,1.122-2.5,2.5V27v1h1
					h27h1v-1V10.5C30,9.121,28.878,8,27.5,8H17c-0.027,0-0.102-0.024-0.305-0.183l-3.626-3.203l-0.02-0.018L13.027,4.58
					C12.565,4.214,11.986,4.013,11.397,4.013L11.397,4.013z"/>
			</g>
		</g>
	</g>
	<g>
		<path fill="#70A024" d="M3,26h25V12c0-0.552-0.448-1-1-1H4c-0.552,0-1,0.448-1,1V26z"/>
	</g>
	<g>
		<polygon fill="#569316" points="3,26 28,26 28,13 		"/>
	</g>
	<polygon fill="#146634" points="21,18 17.054,18 17.054,14 14.054,14 14.054,18 10,18 10,21 14.054,21 14.054,25 17.054,25 
		17.054,21 21,21 	"/>
	<polygon fill="#FFFFFF" points="21,17 17.054,17 17.054,13 14.054,13 14.054,17 10,17 10,20 14.054,20 14.054,24 17.054,24 
		17.054,20 21,20 	"/>
</g>
</svg>
