<?xml version="1.0" encoding="utf-8"?>
<!-- Generator: Adobe Illustrator 18.1.1, SVG Export Plug-In . SVG Version: 6.00 Build 0)  -->
<svg version="1.1" id="Layer_1" xmlns="http://www.w3.org/2000/svg" xmlns:xlink="http://www.w3.org/1999/xlink" x="0px" y="0px"
	 viewBox="0 0 24 24" enable-background="new 0 0 24 24" xml:space="preserve">
<g>
	<g>
		<path fill="#83649B" d="M3.12,11.38v11.35c0,0.63,0.5,1.13,1.13,1.13h15.7c0.62,0,1.13-0.5,1.13-1.13V11.38H3.12z M4.12,12.38
			h15.96v6.85H4.12V12.38z M20.08,22.73c0,0.07-0.06,0.13-0.13,0.13H4.25c-0.07,0-0.13-0.06-0.13-0.13V20.2h15.96V22.73z"/>
	</g>
	<g>
		<path fill="#83649B" d="M22.9,12.95l-0.01,0.59c-0.03,0.11-0.67,2.57-2.41,2.57c-0.92,0-1.38-0.58-1.75-1.05
			c-0.35-0.44-0.56-0.67-0.98-0.67s-0.63,0.23-0.98,0.67c-0.37,0.47-0.83,1.05-1.76,1.05c-0.92,0-1.38-0.58-1.76-1.05
			c-0.35-0.44-0.55-0.67-0.97-0.67h-0.36c-0.43,0-0.63,0.23-0.98,0.67c-0.37,0.47-0.84,1.05-1.76,1.05s-1.39-0.58-1.76-1.05
			c-0.35-0.44-0.55-0.67-0.97-0.67c-0.43,0-0.63,0.23-0.98,0.67C5.1,15.53,4.63,16.11,3.71,16.11c-1.41,0-2.07-1.64-2.23-2.6v-0.57
			c0-1.54,1.36-2.8,3.03-2.8h2.22v-3.4H7.5v3.4h4.21V4.62h0.77v5.52h4.18v-3.4h0.77v3.4h2.44C21.54,10.14,22.9,11.4,22.9,12.95z"/>
	</g>
	<path fill="#83649B" d="M8.0662,4.6507c0,0.7378-0.4429,1.3359-0.9894,1.3359S6.0875,5.3885,6.0875,4.6507
		s0.9894-1.8789,0.9894-1.8789S8.0662,3.9129,8.0662,4.6507z"/>
	<path fill="#83649B" d="M13.1253,2.1211c0,0.7378-0.4429,1.3359-0.9894,1.3359c-0.5464,0-0.9894-0.5981-0.9894-1.3359
		s0.9894-1.8789,0.9894-1.8789S13.1253,1.3833,13.1253,2.1211z"/>
	<path fill="#83649B" d="M18.1845,4.6507c0,0.7378-0.4429,1.3359-0.9894,1.3359c-0.5464,0-0.9894-0.5981-0.9894-1.3359
		s0.9894-1.8789,0.9894-1.8789S18.1845,3.9129,18.1845,4.6507z"/>
	<g>
		<rect x="4.12" y="18.73" fill="#83649B" width="15.96" height="0.5"/>
		<rect x="4.12" y="20.2" fill="#83649B" width="15.96" height="0.5"/>
	</g>
</g>
</svg>
