<?xml version="1.0" encoding="utf-8"?>
<!-- Generator: Adobe Illustrator 18.1.0, SVG Export Plug-In . SVG Version: 6.00 Build 0)  -->
<!DOCTYPE svg PUBLIC "-//W3C//DTD SVG 1.1//EN" "http://www.w3.org/Graphics/SVG/1.1/DTD/svg11.dtd">
<svg version="1.1" id="Layer_1" xmlns="http://www.w3.org/2000/svg" xmlns:xlink="http://www.w3.org/1999/xlink" x="0px" y="0px"
	 viewBox="0 0 24 24" enable-background="new 0 0 24 24" xml:space="preserve">
<g>
	<g>
		<rect x="0.5" y="8.5" fill="#8CC53E" width="6" height="6"/>
		<path fill="#6D6E71" d="M6,9v5H1V9H6 M7,8H0v7h7V8L7,8z"/>
	</g>
	<g>
		<rect x="17.5" y="0.5" fill="#8CC53E" width="6" height="6"/>
		<path fill="#6D6E71" d="M23,1v5h-5V1H23 M24,0h-7v7h7V0L24,0z"/>
	</g>
	<g>
		<rect x="17.5" y="17.5" fill="#8CC53E" width="6" height="6"/>
		<path fill="#6D6E71" d="M23,18v5h-5v-5H23 M24,17h-7v7h7V17L24,17z"/>
	</g>
	<polyline fill="none" stroke="#6D6E71" stroke-miterlimit="10" points="18,3.5 12.5,3.5 12.5,21.5 18,21.5 	"/>
	<line fill="none" stroke="#6D6E71" stroke-miterlimit="10" x1="7" y1="11.5" x2="12" y2="11.5"/>
</g>
</svg>
