<svg version="1.1" xmlns="http://www.w3.org/2000/svg" xmlns:xlink="http://www.w3.org/1999/xlink" x="0px" y="0px" viewBox="0 0 12 12" style="enable-background:new 0 0 12 12;" xml:space="preserve"><path d="M6,1c2.8,0,5,2.2,5,5s-2.2,5-5,5S1,8.8,1,6S3.2,1,6,1" fill="#FFFFFF"/><path d="M6,1c2.8,0,5,2.2,5,5s-2.2,5-5,5S1,8.8,1,6S3.2,1,6,1 M6,0.5C3,0.5,0.5,3,0.5,6S3,11.5,6,11.5S11.5,9,11.5,6
	S9,0.5,6,0.5L6,0.5z" fill="#DF3324"/><path d="M6.6,6l1.6-1.6c0.2-0.2,0.2-0.5,0-0.6c-0.2-0.2-0.5-0.2-0.6,0L6,5.4L4.4,3.7c-0.2-0.2-0.5-0.2-0.6,0
	c-0.2,0.2-0.2,0.5,0,0.6L5.4,6L3.7,7.6c-0.2,0.2-0.2,0.5,0,0.6c0.1,0.1,0.2,0.1,0.3,0.1c0.1,0,0.2,0,0.3-0.1L6,6.6l1.6,1.6
	c0.1,0.1,0.2,0.1,0.3,0.1s0.2,0,0.3-0.1c0.2-0.2,0.2-0.5,0-0.6L6.6,6z" fill="#DF3324"/></svg>