<svg xmlns="http://www.w3.org/2000/svg" viewBox="0 0 96 96"><title>content_empty96</title><path d="M20.339,95.5A10.355,10.355,0,0,1,10,85.161V10.839A10.355,10.355,0,0,1,20.339.5h46.88L86,20.2V85A10.646,10.646,0,0,1,75.5,95.5Z" fill="#fff"/><path d="M67.006.993l18.5,19.4V85A10.14,10.14,0,0,1,75.5,95.007H20.339a9.857,9.857,0,0,1-9.846-9.846V10.839A9.857,9.857,0,0,1,20.339.993H67.006M67.431,0H20.339A10.839,10.839,0,0,0,9.5,10.839V85.161A10.839,10.839,0,0,0,20.339,96H75.5a11.116,11.116,0,0,0,11-11V20L67.431,0Z" fill="#627784"/><rect x="52" y="28.5" width="25" height="21" rx="2.614" ry="2.614" fill="#edeeef"/><rect x="52" y="28.5" width="25" height="21" rx="2.614" ry="2.614" fill="none" stroke="#627784" stroke-linecap="round" stroke-miterlimit="10" stroke-dasharray="2.916 2.916"/><rect x="52" y="56.5" width="25" height="30" rx="2.614" ry="2.614" fill="#edeeef"/><rect x="52" y="56.5" width="25" height="30" rx="2.614" ry="2.614" fill="none" stroke="#627784" stroke-linecap="round" stroke-miterlimit="10" stroke-dasharray="2.93 2.93"/><rect x="19" y="28.5" width="25" height="58" rx="2.614" ry="2.614" fill="#edeeef"/><rect x="19" y="28.5" width="25" height="58" rx="2.614" ry="2.614" fill="none" stroke="#627784" stroke-linecap="round" stroke-miterlimit="10" stroke-dasharray="2.991 2.991"/><rect x="19" y="9.5" width="41" height="9" rx="2.614" ry="2.614" fill="#edeeef"/><rect x="19" y="9.5" width="41" height="9" rx="2.614" ry="2.614" fill="none" stroke="#627784" stroke-linecap="round" stroke-miterlimit="10" stroke-dasharray="2.984 2.984"/><polyline points="67 0.5 67 20.5 86 20.5" fill="none" stroke="#627784" stroke-linecap="round" stroke-miterlimit="10"/></svg>