<svg xmlns="http://www.w3.org/2000/svg" viewBox="0 0 96 96"><title>content_error96</title><path d="M20.339,95.5A10.355,10.355,0,0,1,10,85.161V10.839A10.355,10.355,0,0,1,20.339.5h46.88L86,20.2V85A10.646,10.646,0,0,1,75.5,95.5Z" fill="#fff"/><path d="M67.006.993l18.5,19.4V85A10.14,10.14,0,0,1,75.5,95.007H20.339a9.857,9.857,0,0,1-9.846-9.846V10.839A9.857,9.857,0,0,1,20.339.993H67.006M67.431,0H20.339A10.839,10.839,0,0,0,9.5,10.839V85.161A10.839,10.839,0,0,0,20.339,96H75.5a11.116,11.116,0,0,0,11-11V20L67.431,0Z" fill="#627784"/><path d="M72,48A24,24,0,1,1,48,24,24,24,0,0,1,72,48" fill="#df3324"/><path d="M56.58,58.66a2,2,0,0,1-1.48-.62L48,50.96,40.9,58A2.051,2.051,0,0,1,38,55.1L45.04,48,38,40.9a2,2,0,0,1-.073-2.827L38,38a2,2,0,0,1,2.827-.073L40.9,38,48,45.04,55.1,38a2,2,0,0,1,2.827-.073L58,38a2,2,0,0,1,.135,2.825q-.065.07-.135.135L50.96,48,58,55.1a2,2,0,0,1,.073,2.827L58,58A2,2,0,0,1,56.58,58.66Z" fill="#fff"/><polyline points="67 0.5 67 20.5 86 20.5" fill="none" stroke="#627784" stroke-linecap="round" stroke-miterlimit="10"/></svg>