<?xml version="1.0" encoding="utf-8"?>
<!-- Generator: Adobe Illustrator 18.1.1, SVG Export Plug-In . SVG Version: 6.00 Build 0)  -->
<svg version="1.1" id="Layer_1" xmlns="http://www.w3.org/2000/svg" xmlns:xlink="http://www.w3.org/1999/xlink" x="0px" y="0px"
	 viewBox="0 0 24 24" enable-background="new 0 0 24 24" xml:space="preserve">
<g>
	<g>
		<path fill="#333333" d="M18.5,24H5c-1.6542,0-3-1.3458-3-3V3c0-1.6542,1.3458-3,3-3h11.5605L21.5,4.9395V21
			C21.5,22.6542,20.1542,24,18.5,24z M5,0.75C3.7593,0.75,2.75,1.7593,2.75,3v18c0,1.2407,1.0093,2.25,2.25,2.25h13.5
			c1.2407,0,2.25-1.0093,2.25-2.25V5.25l-4.5-4.5H5z"/>
	</g>
	<g>
		<rect x="4.9311" y="7.125" fill="#333333" width="10.5028" height="0.75"/>
		<rect x="4.9311" y="10.125" fill="#333333" width="10.5028" height="0.75"/>
		<rect x="4.9311" y="13.125" fill="#333333" width="13.0467" height="0.75"/>
		<rect x="4.9311" y="16.125" fill="#333333" width="13.0467" height="0.75"/>
	</g>
</g>
</svg>
