<svg id="Layer_1" data-name="Layer 1" xmlns="http://www.w3.org/2000/svg" width="21" height="21" viewBox="0 0 21 21"><title>drag_dots24</title><path d="M13.5,3A1.5,1.5,0,1,1,15,1.5,1.5,1.5,0,0,1,13.5,3" style="fill:#4c4545"/><path d="M7.5,3A1.5,1.5,0,1,1,9,1.5,1.5,1.5,0,0,1,7.5,3" style="fill:#4c4545"/><path d="M13.5,9A1.5,1.5,0,1,1,15,7.5,1.5,1.5,0,0,1,13.5,9" style="fill:#4c4545"/><path d="M7.5,9A1.5,1.5,0,1,1,9,7.5,1.5,1.5,0,0,1,7.5,9" style="fill:#4c4545"/><path d="M13.5,15A1.5,1.5,0,1,1,15,13.5,1.5,1.5,0,0,1,13.5,15" style="fill:#4c4545"/><path d="M7.5,15A1.5,1.5,0,1,1,9,13.5,1.5,1.5,0,0,1,7.5,15" style="fill:#4c4545"/><path d="M13.5,21A1.5,1.5,0,1,1,15,19.5,1.5,1.5,0,0,1,13.5,21" style="fill:#4c4545"/><path d="M7.5,21A1.5,1.5,0,1,1,9,19.5,1.5,1.5,0,0,1,7.5,21" style="fill:#4c4545"/></svg>