<?xml version="1.0" encoding="utf-8"?>
<!-- Generator: Adobe Illustrator 19.1.0, SVG Export Plug-In . SVG Version: 6.00 Build 0)  -->
<svg version="1.1" id="Layer_1" xmlns="http://www.w3.org/2000/svg" xmlns:xlink="http://www.w3.org/1999/xlink" x="0px" y="0px"
	 viewBox="0 0 24 24" enable-background="new 0 0 24 24" xml:space="preserve">
<g>
	<path fill="#FFFFFF" d="M2,19.658c-0.827,0-1.5-0.673-1.5-1.5v-16c0-0.827,0.673-1.5,1.5-1.5h9.793L15.5,4.365v13.793
		c0,0.827-0.673,1.5-1.5,1.5H2z"/>
	<path fill="#333333" d="M11.586,1.158L15,4.572v13.586c0,0.551-0.449,1-1,1H2c-0.551,0-1-0.449-1-1v-16c0-0.551,0.449-1,1-1H11.586
		 M12,0.158H2c-1.104,0-2,0.896-2,2v16c0,1.104,0.896,2,2,2h12c1.104,0,2-0.896,2-2v-14L12,0.158z"/>
	<path fill="#FFFFFF" d="M14.073,20.28c1.131,0,2.049-0.917,2.049-2.049v-7.69l-7.108,7.107l-0.219,0.219l-0.061,0.304L8.312,20.28
		H14.073z"/>
	<path fill="#333333" d="M23.085,13.853c1.222-1.222,1.219-3.206-0.006-4.431c-1.225-1.225-3.209-1.228-4.431-0.006l-1.115,1.115
		l4.437,4.437L23.085,13.853z"/>
	<polygon fill="#333333" points="9.768,18.296 8.659,23.842 14.205,22.733 20.861,16.077 16.424,11.64 	"/>
</g>
</svg>
