<svg width="220" height="130" viewBox="0 0 220 130" fill="none" xmlns="http://www.w3.org/2000/svg">
<g opacity="0.5">
<path d="M23.6676 126.537C36.6176 126.537 47.1155 115.99 47.1155 102.981C47.1155 89.9712 36.6176 79.4248 23.6676 79.4248C10.7177 79.4248 0.219727 89.9712 0.219727 102.981C0.219727 115.99 10.7177 126.537 23.6676 126.537Z" fill="#D7E2E5"/>
</g>
<path d="M166.741 46.7801C171.83 46.7801 175.955 42.6488 175.955 37.5526C175.955 32.4565 171.83 28.3252 166.741 28.3252C161.652 28.3252 157.526 32.4565 157.526 37.5526C157.526 42.6488 161.652 46.7801 166.741 46.7801Z" fill="#D7E2E5"/>
<path d="M114.927 75.8146C124.826 75.8146 132.85 67.7328 132.85 57.7635C132.85 47.7942 124.826 39.7124 114.927 39.7124C105.028 39.7124 97.0039 47.7942 97.0039 57.7635C97.0039 67.7328 105.028 75.8146 114.927 75.8146Z" fill="#D7E2E5"/>
<path fill-rule="evenodd" clip-rule="evenodd" d="M70.2858 90.6198L64.7896 91.7108C64.284 91.8111 63.7919 91.4797 63.6912 90.9709C63.5905 90.4621 63.9191 89.9678 64.4248 89.8674L69.9209 88.7765C70.4266 88.6761 70.9187 89.0076 71.0194 89.5163C71.1201 90.0251 70.7919 90.5194 70.2858 90.6198ZM59.2935 92.8017L53.7974 93.8927C53.2917 93.993 52.7996 93.6616 52.6989 93.1528C52.5982 92.644 52.9269 92.1497 53.4325 92.0493L58.9286 90.9583C59.4343 90.858 59.9264 91.1894 60.0271 91.6982C60.1278 92.207 59.7996 92.7013 59.2935 92.8017ZM48.3012 94.9836L42.8051 96.0745C42.2994 96.1749 41.8073 95.8435 41.7066 95.3347C41.6059 94.8259 41.9346 94.3315 42.4402 94.2312L47.9364 93.1402C48.442 93.0399 48.9341 93.3713 49.0348 93.8801C49.1355 94.3889 48.8073 94.8831 48.3012 94.9836Z" fill="#666666"/>
<path d="M150.226 27.5229H126.328C125.854 27.5229 125.469 27.1362 125.469 26.6597V1.17494C125.469 0.698469 125.854 0.311768 126.328 0.311768C126.803 0.311768 127.188 0.698469 127.188 1.17494V25.7969H150.226C150.7 25.7969 151.085 26.1836 151.085 26.6601C151.085 27.1366 150.701 27.5229 150.226 27.5229Z" fill="#666666"/>
<path d="M36.1991 117.984C32.3069 117.984 28.8327 115.199 28.0912 111.223L17.1659 52.4282C16.3298 47.9423 19.286 43.6088 23.7552 42.7676L69.4141 34.2049C69.6002 34.1708 69.7836 34.1428 69.9645 34.1217C69.9877 23.9742 70.0143 13.8302 70.0409 3.68661L70.0487 0.861015L70.9079 0H126.62L127.243 0.26931L151.585 26.0657L151.82 26.6591L151.838 48.4887L150.794 49.332L146.669 48.4214C145.598 48.184 144.496 48.3817 143.564 48.9799C142.632 49.5789 141.988 50.5021 141.751 51.5798L130.607 102.446C130.48 103.022 130.477 103.61 130.6 104.197L129.759 105.238H89.0042C87.8043 107.341 85.734 108.834 83.369 109.276L37.7114 117.843C37.2031 117.938 36.6979 117.984 36.1991 117.984ZM71.7649 1.72635L71.7594 3.69136C71.7323 14.1042 71.7048 24.518 71.6812 34.9352L70.822 35.7962C70.4736 35.7962 70.1153 35.8312 69.7265 35.9024L24.0709 44.4642C20.5335 45.1301 18.193 48.5599 18.8546 52.1106L29.78 110.906C30.4424 114.456 33.8586 116.806 37.3965 116.146L83.0542 107.579C85.0651 107.203 87.0067 105.379 87.9154 103.511H88.4878H128.794C128.779 103.028 128.824 102.547 128.93 102.072L140.073 51.2077C140.409 49.6795 141.32 48.3718 142.639 47.525C143.958 46.6778 145.521 46.399 147.039 46.7352L150.118 47.4149L150.102 27.0035L126.25 1.72635H71.7649Z" fill="#666666"/>
<path d="M70.7616 59.6586C70.7607 59.6586 70.7598 59.6586 70.759 59.6586C70.2847 59.6573 69.9011 59.2697 69.9023 58.7928L69.9629 34.9304C69.9642 34.4544 70.3483 34.0698 70.8221 34.0698C70.823 34.0698 70.8239 34.0698 70.8247 34.0698C71.299 34.0711 71.6826 34.4583 71.6813 34.9356L71.6208 58.798C71.6195 59.274 71.235 59.6586 70.7616 59.6586Z" fill="#666666"/>
<path d="M88.4875 105.238C88.4875 105.238 71.4261 105.238 70.908 105.238C70.39 105.238 70.0488 105.126 70.0488 104.375C70.0489 103.624 70.0488 74.8585 70.0488 74.8585C70.0488 74.3821 70.4338 73.9954 70.908 73.9954C71.3823 73.9954 71.7673 74.3821 71.7673 74.8585V103.512H88.4875C88.9618 103.512 89.3467 103.898 89.3467 104.375C89.3467 104.851 88.9622 105.238 88.4875 105.238Z" fill="#666666"/>
<path d="M219.65 84.8051L210.564 125.949C209.982 128.571 207.358 130.24 204.73 129.664L138.487 115.138C136.555 114.714 135.141 113.197 134.749 111.385C134.61 110.725 134.601 110.023 134.758 109.326L145.7 59.7887C146.282 57.166 148.906 55.4932 151.534 56.0732L155.584 56.96L188.299 64.1346C190.222 64.7062 191.007 65.5846 191.365 66.2739C192.42 68.2914 190.737 70.3509 191.834 72.3557C192.445 73.4653 193.61 74.0033 194.466 74.2849C201.616 75.8526 208.771 77.4204 215.921 78.9923C218.554 79.5685 220.233 82.1824 219.65 84.8051Z" fill="#D7E2E5"/>
<path d="M202.098 124.125C201.683 124.125 201.264 124.081 200.843 123.988L133.382 109.073C131.154 108.579 129.403 106.807 128.92 104.557C128.745 103.723 128.749 102.889 128.93 102.073L140.073 51.2085C140.409 49.6803 141.32 48.3726 142.639 47.5258C143.958 46.6786 145.521 46.3998 147.039 46.736L184.54 55.0293C186.333 55.5671 187.558 56.451 188.18 57.6564C188.841 58.9313 188.656 60.1821 188.493 61.2848C188.348 62.2601 188.224 63.1026 188.648 63.8855C189.018 64.5618 189.744 65.0879 190.804 65.4461L193.269 65.9912C199.715 67.4163 206.164 68.8414 212.61 70.2704C214.131 70.6057 215.433 71.5203 216.276 72.8465C217.119 74.1711 217.397 75.7416 217.061 77.2686L207.808 119.516C207.204 122.254 204.779 124.125 202.098 124.125ZM145.779 48.3234C145.002 48.3234 144.239 48.5469 143.565 48.9798C142.632 49.5788 141.988 50.502 141.751 51.5797L130.607 102.446C130.48 103.022 130.477 103.61 130.6 104.197C130.941 105.785 132.178 107.038 133.751 107.387L201.211 122.302C203.431 122.793 205.638 121.376 206.129 119.144L215.382 76.8961C215.619 75.8197 215.422 74.7114 214.827 73.7762C214.231 72.8392 213.313 72.1935 212.24 71.9566C205.794 70.5276 199.345 69.1025 192.899 67.6774L190.305 67.0995C188.797 66.5997 187.732 65.797 187.14 64.7146C186.439 63.4211 186.627 62.1518 186.792 61.0314C186.935 60.066 187.058 59.2321 186.654 58.4523C186.258 57.6827 185.391 57.0915 184.077 56.6931L146.668 48.4222C146.374 48.3557 146.075 48.3234 145.779 48.3234Z" fill="#666666"/>
<path d="M109.706 73.2054C99.2828 73.2054 90.8032 64.6868 90.8032 54.2156C90.8032 43.7445 99.2828 35.2258 109.706 35.2258C120.129 35.2258 128.609 43.7445 128.609 54.2156C128.609 64.6868 120.129 73.2054 109.706 73.2054ZM109.706 36.9522C100.23 36.9522 92.5216 44.6966 92.5216 54.2156C92.5216 63.7347 100.23 71.4791 109.706 71.4791C119.181 71.4791 126.89 63.7347 126.89 54.2156C126.89 44.6966 119.181 36.9522 109.706 36.9522Z" fill="#666666"/>
<path d="M13.4542 69.9728C14.8242 69.9728 15.9348 68.856 15.9348 67.4784C15.9348 66.1007 14.8242 64.9839 13.4542 64.9839C12.0842 64.9839 10.9736 66.1007 10.9736 67.4784C10.9736 68.856 12.0842 69.9728 13.4542 69.9728Z" fill="#CFCFCF"/>
<path d="M158.991 21.9627C160.56 21.9627 161.831 20.683 161.831 19.1044C161.831 17.5258 160.56 16.2461 158.991 16.2461C157.422 16.2461 156.15 17.5258 156.15 19.1044C156.15 20.683 157.422 21.9627 158.991 21.9627Z" fill="#9BAFBA"/>
<path opacity="0.58" d="M170.559 12.7738C171.588 12.7738 172.421 11.9347 172.421 10.8997C172.421 9.86468 171.588 9.02563 170.559 9.02563C169.53 9.02563 168.696 9.86468 168.696 10.8997C168.696 11.9347 169.53 12.7738 170.559 12.7738Z" fill="#949494"/>
<path fill-rule="evenodd" clip-rule="evenodd" d="M77.2847 74.2985L82.7808 73.2076C83.2869 73.1071 83.6151 72.6128 83.5144 72.104C83.4137 71.5953 82.9216 71.2638 82.416 71.3642L76.9198 72.4551C76.4142 72.5555 76.0855 73.0499 76.1862 73.5586C76.2869 74.0674 76.779 74.3989 77.2847 74.2985ZM66.2924 76.4804L71.7885 75.3894C72.2946 75.289 72.6228 74.7947 72.5221 74.2859C72.4214 73.7772 71.9293 73.4457 71.4237 73.5461L65.9275 74.637C65.4219 74.7374 65.0932 75.2318 65.1939 75.7405C65.2946 76.2493 65.7868 76.5808 66.2924 76.4804ZM55.3001 78.6623L60.7963 77.5713C61.3024 77.4709 61.6306 76.9766 61.5299 76.4678C61.4292 75.959 60.937 75.6276 60.4314 75.728L54.9353 76.8189C54.4296 76.9193 54.101 77.4136 54.2017 77.9224C54.3024 78.4312 54.7945 78.7626 55.3001 78.6623ZM44.3078 80.8442L49.804 79.7532C50.3101 79.6528 50.6383 79.1585 50.5376 78.6497C50.4369 78.1409 49.9448 77.8095 49.4391 77.9098L43.943 79.0008C43.4373 79.1012 43.1087 79.5955 43.2094 80.1043C43.3101 80.6131 43.8022 80.9445 44.3078 80.8442ZM33.3156 83.026L38.8117 81.9351C39.3178 81.8346 39.646 81.3404 39.5453 80.8316C39.4446 80.3228 38.9525 79.9914 38.4468 80.0917L32.9507 81.1827C32.445 81.283 32.1164 81.7774 32.2171 82.2862C32.3178 82.795 32.8099 83.1264 33.3156 83.026Z" fill="#666666"/>
<path fill-rule="evenodd" clip-rule="evenodd" d="M65.8976 60.7399L60.4015 61.8309C59.8958 61.9313 59.4037 61.5998 59.303 61.091C59.2023 60.5823 59.531 60.0879 60.0366 59.9875L65.5327 58.8966C66.0384 58.7962 66.5305 59.1277 66.6312 59.6364C66.7319 60.1452 66.4037 60.6395 65.8976 60.7399ZM54.9053 62.9218L49.4092 64.0128C48.9035 64.1131 48.4114 63.7817 48.3107 63.2729C48.21 62.7641 48.5387 62.2698 49.0443 62.1694L54.5405 61.0785C55.0461 60.9781 55.5382 61.3096 55.6389 61.8183C55.7396 62.3271 55.4114 62.8214 54.9053 62.9218ZM43.913 65.1037L38.4169 66.1947C37.9112 66.295 37.4191 65.9636 37.3184 65.4548C37.2177 64.946 37.5464 64.4517 38.052 64.3513L43.5482 63.2604C44.0538 63.16 44.5459 63.4914 44.6466 64.0002C44.7473 64.509 44.4191 65.0033 43.913 65.1037Z" fill="#666666"/>
<path opacity="0.7" d="M47.4044 21.5097C49.225 21.5097 50.7008 20.076 50.7008 18.3073C50.7008 16.5387 49.225 15.105 47.4044 15.105C45.5838 15.105 44.1079 16.5387 44.1079 18.3073C44.1079 20.076 45.5838 21.5097 47.4044 21.5097Z" fill="#666666"/>
<path opacity="0.5" d="M47.4039 8.84792C47.0586 8.84792 46.7783 8.57163 46.7783 8.23119V6.03225C46.7783 5.69182 47.0586 5.41553 47.4039 5.41553C47.7493 5.41553 48.0296 5.69182 48.0296 6.03225V8.23119C48.0296 8.57194 47.7496 8.84792 47.4039 8.84792Z" fill="#666666"/>
<path opacity="0.5" d="M52.2604 10.0006C52.161 10.0006 52.0596 9.97712 51.9658 9.92778C51.6611 9.76713 51.5463 9.39339 51.7096 9.09274L52.7647 7.15004C52.9277 6.85001 53.3068 6.73745 53.6115 6.89749C53.9162 7.05815 54.031 7.43189 53.8677 7.73254L52.8126 9.67523C52.6999 9.88245 52.4838 10.0006 52.2604 10.0006Z" fill="#666666"/>
<path opacity="0.5" d="M55.9755 13.2244C55.7741 13.2244 55.5767 13.1288 55.4556 12.9518C55.2629 12.6691 55.3389 12.2861 55.6255 12.0961L57.4933 10.8577C57.7802 10.6678 58.1687 10.7424 58.3617 11.0252C58.5544 11.308 58.4784 11.6909 58.1918 11.8809L56.324 13.1193C56.2167 13.1905 56.0956 13.2244 55.9755 13.2244Z" fill="#666666"/>
<path opacity="0.5" d="M57.7323 17.7714C57.4191 17.7714 57.1485 17.5399 57.1116 17.2256C57.0719 16.8871 57.3178 16.5812 57.6609 16.542L59.9026 16.2857C60.2454 16.2447 60.5564 16.489 60.5961 16.8272C60.6358 17.1658 60.39 17.4717 60.0468 17.5109L57.8051 17.7671C57.7807 17.7702 57.7564 17.7714 57.7323 17.7714Z" fill="#666666"/>
<path opacity="0.5" d="M59.2054 23.3652C59.1316 23.3652 59.0565 23.3519 58.9836 23.3248L56.874 22.5348C56.5508 22.4136 56.3885 22.0574 56.5111 21.7392C56.6337 21.4209 56.9954 21.2609 57.3182 21.3815L59.4278 22.1715C59.751 22.2927 59.9133 22.6488 59.7907 22.9671C59.6956 23.2132 59.4579 23.3652 59.2054 23.3652Z" fill="#666666"/>
<path opacity="0.5" d="M55.7113 28.2108C55.5367 28.2108 55.3631 28.1392 55.2392 27.9992L53.7668 26.3341C53.5397 26.0772 53.5669 25.6874 53.8275 25.4639C54.0881 25.24 54.4832 25.2668 54.7103 25.5234L56.1827 27.1885C56.4098 27.4454 56.3826 27.8352 56.122 28.0588C56.0035 28.1608 55.8571 28.2108 55.7113 28.2108Z" fill="#666666"/>
<path opacity="0.5" d="M50.3046 30.901C50.0228 30.901 49.7669 30.7123 49.6971 30.4304L49.1697 28.2956C49.0881 27.9647 49.2939 27.6311 49.6296 27.5503C49.9643 27.4707 50.3037 27.6724 50.3856 28.0036L50.9131 30.1384C50.9947 30.4693 50.7889 30.8029 50.4532 30.8837C50.4035 30.8954 50.3537 30.901 50.3046 30.901Z" fill="#666666"/>
<path opacity="0.5" d="M44.2176 30.816C44.1641 30.816 44.11 30.8092 44.0559 30.795C43.7221 30.7075 43.5235 30.3695 43.6126 30.0405L44.1841 27.9269C44.273 27.5973 44.6161 27.4021 44.9499 27.4897C45.2837 27.5773 45.4823 27.9152 45.3932 28.2442L44.8217 30.3578C44.7472 30.6338 44.4941 30.816 44.2176 30.816Z" fill="#666666"/>
<path opacity="0.5" d="M38.8765 27.9976C38.722 27.9976 38.5674 27.9414 38.4464 27.8286C38.1955 27.5942 38.1848 27.2041 38.4223 26.9568L39.9604 25.3558C40.1978 25.1085 40.5935 25.0977 40.845 25.3321C41.0959 25.5664 41.1066 25.9565 40.8691 26.2038L39.331 27.8048C39.2081 27.9328 39.0423 27.9976 38.8765 27.9976Z" fill="#666666"/>
<path opacity="0.5" d="M35.5151 23.0875C35.2554 23.0875 35.0133 22.9268 34.9235 22.6718C34.8109 22.3495 34.9842 21.9983 35.3108 21.8873L37.4423 21.1614C37.7695 21.0519 38.1252 21.2215 38.2378 21.5429C38.3504 21.8651 38.1771 22.2163 37.8505 22.3273L35.719 23.0532C35.6518 23.0764 35.5826 23.0875 35.5151 23.0875Z" fill="#666666"/>
<path opacity="0.5" d="M37.1196 17.5367C37.0915 17.5367 37.063 17.5348 37.0342 17.5308L34.8145 17.232C34.4722 17.1861 34.2326 16.8752 34.2792 16.5376C34.3258 16.1999 34.6409 15.9613 34.9837 16.01L37.2034 16.3088C37.5457 16.3547 37.7853 16.6656 37.7387 17.0032C37.6961 17.3128 37.4277 17.5367 37.1196 17.5367Z" fill="#666666"/>
<path opacity="0.5" d="M38.9867 13.0326C38.861 13.0326 38.7343 12.9956 38.6242 12.9182L36.8001 11.6373C36.5189 11.4396 36.4532 11.0545 36.6537 10.7773C36.8542 10.4997 37.2453 10.4353 37.5265 10.6326L39.3505 11.9136C39.6317 12.1112 39.6974 12.4964 39.4969 12.7736C39.3746 12.9426 39.1819 13.0326 38.9867 13.0326Z" fill="#666666"/>
<path opacity="0.5" d="M42.7898 9.89402C42.5617 9.89402 42.3415 9.77067 42.2314 9.55636L41.2207 7.59208C41.0643 7.28834 41.1875 6.91708 41.4956 6.7632C41.8038 6.6084 42.1801 6.73052 42.3365 7.03394L43.3472 8.99822C43.5036 9.30196 43.3804 9.67323 43.0722 9.8271C42.9815 9.87274 42.8849 9.89402 42.7898 9.89402Z" fill="#666666"/>
<path d="M7.45923 77.7576C8.48789 77.7576 9.32178 76.9186 9.32178 75.8836C9.32178 74.8486 8.48789 74.0095 7.45923 74.0095C6.43058 74.0095 5.59668 74.8486 5.59668 75.8836C5.59668 76.9186 6.43058 77.7576 7.45923 77.7576Z" fill="#9BAFBA"/>
<path d="M173.322 93.8717C169.878 93.8717 167.076 90.9867 167.076 87.4404C167.076 83.894 169.878 81.009 173.322 81.009C176.766 81.009 179.568 83.894 179.568 87.4404C179.568 90.9867 176.766 93.8717 173.322 93.8717ZM173.322 82.5838C170.74 82.5838 168.638 84.7625 168.638 87.4404C168.638 90.1183 170.74 92.2969 173.322 92.2969C175.905 92.2969 178.006 90.1183 178.006 87.4404C178.006 84.7625 175.905 82.5838 173.322 82.5838Z" fill="#9BAFBA"/>
<path d="M173.322 101.941C173.852 101.941 174.282 101.497 174.282 100.95C174.282 100.404 173.852 99.96 173.322 99.96C172.792 99.96 172.363 100.404 172.363 100.95C172.363 101.497 172.792 101.941 173.322 101.941Z" fill="#9BAFBA"/>
<path d="M183.28 97.7031C183.654 97.3161 183.654 96.689 183.28 96.302C182.905 95.915 182.297 95.915 181.923 96.302C181.548 96.689 181.548 97.3161 181.923 97.7031C182.297 98.0901 182.905 98.0901 183.28 97.7031Z" fill="#9BAFBA"/>
<path d="M186.404 88.4315C186.934 88.4315 187.363 87.9878 187.363 87.441C187.363 86.8941 186.934 86.4504 186.404 86.4504C185.874 86.4504 185.444 86.8941 185.444 87.441C185.444 87.9878 185.874 88.4315 186.404 88.4315Z" fill="#9BAFBA"/>
<path d="M183.267 78.5854C183.642 78.1984 183.642 77.5713 183.267 77.1843C182.893 76.7973 182.285 76.7973 181.911 77.1843C181.536 77.5713 181.536 78.1984 181.911 78.5854C182.285 78.9724 182.892 78.9724 183.267 78.5854Z" fill="#9BAFBA"/>
<path d="M173.322 74.922C173.852 74.922 174.282 74.4783 174.282 73.9314C174.282 73.3842 173.852 72.9409 173.322 72.9409C172.792 72.9409 172.363 73.3846 172.363 73.9314C172.363 74.4787 172.792 74.922 173.322 74.922Z" fill="#9BAFBA"/>
<path d="M164.755 78.5979C165.129 78.2109 165.129 77.5837 164.755 77.1967C164.38 76.8097 163.773 76.8097 163.398 77.1967C163.024 77.5837 163.024 78.2109 163.398 78.5979C163.773 78.9845 164.38 78.9845 164.755 78.5979Z" fill="#9BAFBA"/>
<path d="M160.24 88.4315C160.77 88.4315 161.2 87.9878 161.2 87.441C161.2 86.8941 160.77 86.4504 160.24 86.4504C159.71 86.4504 159.281 86.8941 159.281 87.441C159.281 87.9878 159.711 88.4315 160.24 88.4315Z" fill="#9BAFBA"/>
<path d="M164.767 97.7165C165.141 97.3295 165.141 96.7024 164.767 96.3154C164.392 95.9284 163.785 95.9284 163.41 96.3154C163.036 96.7024 163.036 97.3295 163.41 97.7165C163.785 98.1035 164.392 98.1035 164.767 97.7165Z" fill="#9BAFBA"/>
<path d="M118.039 54.7613H101.947C101.385 54.7613 100.929 54.3021 100.929 53.7362C100.929 53.1704 101.385 52.7112 101.947 52.7112H118.039C118.601 52.7112 119.057 53.1704 119.057 53.7362C119.057 54.3021 118.601 54.7613 118.039 54.7613Z" fill="#666666"/>
<path d="M109.993 62.8611C109.431 62.8611 108.975 62.4019 108.975 61.836V45.6361C108.975 45.0703 109.431 44.6111 109.993 44.6111C110.555 44.6111 111.011 45.0703 111.011 45.6361V61.836C111.011 62.4019 110.555 62.8611 109.993 62.8611Z" fill="#666666"/>
</svg>
