<svg width="220" height="130" viewBox="0 0 220 130" fill="none" xmlns="http://www.w3.org/2000/svg">
<g opacity="0.2">
<path d="M23.6677 126.537C36.6176 126.537 47.1156 115.99 47.1156 102.981C47.1156 89.9712 36.6176 79.4248 23.6677 79.4248C10.7178 79.4248 0.21981 89.9712 0.21981 102.981C0.21981 115.99 10.7178 126.537 23.6677 126.537Z" fill="#F3F6FB"/>
</g>
<path d="M166.741 46.7801C171.83 46.7801 175.955 42.6488 175.955 37.5526C175.955 32.4565 171.83 28.3252 166.741 28.3252C161.652 28.3252 157.526 32.4565 157.526 37.5526C157.526 42.6488 161.652 46.7801 166.741 46.7801Z" fill="#D7E2E5"/>
<g opacity="0.95">
<path d="M114.927 75.8146C124.826 75.8146 132.85 67.7328 132.85 57.7635C132.85 47.7942 124.826 39.7124 114.927 39.7124C105.029 39.7124 97.0042 47.7942 97.0042 57.7635C97.0042 67.7328 105.029 75.8146 114.927 75.8146Z" fill="white"/>
</g>
<path fill-rule="evenodd" clip-rule="evenodd" d="M70.2861 90.6198L64.7899 91.7108C64.2843 91.8111 63.7922 91.4797 63.6915 90.9709C63.5908 90.4621 63.9194 89.9678 64.4251 89.8674L69.9212 88.7765C70.4269 88.6761 70.919 89.0076 71.0197 89.5163C71.1204 90.0251 70.7922 90.5194 70.2861 90.6198ZM59.2938 92.8017L53.7977 93.8927C53.292 93.993 52.7999 93.6616 52.6992 93.1528C52.5985 92.644 52.9272 92.1497 53.4328 92.0493L58.9289 90.9583C59.4346 90.858 59.9267 91.1894 60.0274 91.6982C60.1281 92.207 59.7999 92.7013 59.2938 92.8017ZM48.3015 94.9836L42.8054 96.0745C42.2997 96.1749 41.8076 95.8435 41.7069 95.3347C41.6062 94.8259 41.9349 94.3315 42.4405 94.2312L47.9367 93.1402C48.4423 93.0399 48.9344 93.3713 49.0351 93.8801C49.1358 94.3889 48.8076 94.8831 48.3015 94.9836Z" fill="#00B8BA"/>
<path d="M150.226 27.5229H126.328C125.854 27.5229 125.469 27.1362 125.469 26.6597V1.17494C125.469 0.698469 125.854 0.311768 126.328 0.311768C126.803 0.311768 127.188 0.698469 127.188 1.17494V25.7969H150.226C150.7 25.7969 151.085 26.1836 151.085 26.6601C151.085 27.1366 150.701 27.5229 150.226 27.5229Z" fill="#09BCEF"/>
<path d="M36.1994 117.984C32.3072 117.984 28.833 115.199 28.0915 111.223L17.1662 52.4282C16.3302 47.9423 19.2863 43.6088 23.7555 42.7676L69.4145 34.2049C69.6005 34.1708 69.7839 34.1428 69.9648 34.1217C69.988 23.9742 70.0146 13.8302 70.0413 3.68661L70.049 0.861015L70.9082 0H126.62L127.243 0.26931L151.585 26.0657L151.821 26.6591L151.838 48.4887L150.794 49.332L146.669 48.4214C145.598 48.184 144.496 48.3817 143.564 48.9799C142.632 49.5789 141.988 50.5021 141.751 51.5798L130.608 102.446C130.48 103.022 130.477 103.61 130.6 104.197L129.76 105.238H89.0045C87.8046 107.341 85.7343 108.834 83.3694 109.276L37.7117 117.843C37.2034 117.938 36.6982 117.984 36.1994 117.984ZM71.7653 1.72635L71.7597 3.69136C71.7326 14.1042 71.7051 24.518 71.6815 34.9352L70.8223 35.7962C70.4739 35.7962 70.1156 35.8312 69.7268 35.9024L24.0712 44.4642C20.5339 45.1301 18.1934 48.5599 18.855 52.1106L29.7803 110.906C30.4427 114.456 33.859 116.806 37.3968 116.146L83.0545 107.579C85.0654 107.203 87.007 105.379 87.9157 103.511H88.4881H128.794C128.78 103.028 128.825 102.547 128.93 102.072L140.073 51.2077C140.409 49.6795 141.321 48.3718 142.639 47.525C143.958 46.6778 145.522 46.399 147.04 46.7352L150.118 47.4149L150.102 27.0035L126.25 1.72635H71.7653Z" fill="#09BCEF"/>
<path d="M70.7618 59.6586C70.7609 59.6586 70.7601 59.6586 70.7592 59.6586C70.2849 59.6573 69.9013 59.2697 69.9026 58.7928L69.9631 34.9304C69.9644 34.4544 70.3485 34.0698 70.8224 34.0698C70.8232 34.0698 70.8241 34.0698 70.8249 34.0698C71.2992 34.0711 71.6829 34.4583 71.6816 34.9356L71.621 58.798C71.6197 59.274 71.2352 59.6586 70.7618 59.6586Z" fill="#09BCEF"/>
<path d="M88.4876 105.238C88.4876 105.238 71.4262 105.238 70.9081 105.238C70.3901 105.238 70.0489 105.126 70.0489 104.375C70.049 103.624 70.0489 74.8585 70.0489 74.8585C70.0489 74.3821 70.4338 73.9954 70.9081 73.9954C71.3824 73.9954 71.7673 74.3821 71.7673 74.8585V103.512H88.4876C88.9619 103.512 89.3468 103.898 89.3468 104.375C89.3468 104.851 88.9623 105.238 88.4876 105.238Z" fill="#09BCEF"/>
<g opacity="0.4">
<path d="M219.651 84.8051L210.564 125.949C209.982 128.571 207.358 130.24 204.73 129.664L138.487 115.138C136.555 114.714 135.142 113.197 134.749 111.385C134.61 110.725 134.602 110.023 134.758 109.326L145.7 59.7887C146.283 57.166 148.907 55.4932 151.535 56.0732L155.584 56.96L188.299 64.1346C190.222 64.7062 191.007 65.5846 191.366 66.2739C192.42 68.2914 190.737 70.3509 191.834 72.3557C192.446 73.4653 193.61 74.0033 194.466 74.2849C201.617 75.8526 208.771 77.4204 215.921 78.9923C218.554 79.5685 220.233 82.1824 219.651 84.8051Z" fill="#F3F6FB"/>
</g>
<path d="M202.098 124.125C201.683 124.125 201.264 124.081 200.843 123.988L133.382 109.073C131.154 108.579 129.403 106.807 128.92 104.557C128.745 103.723 128.749 102.889 128.93 102.073L140.073 51.2085C140.409 49.6803 141.32 48.3726 142.639 47.5258C143.958 46.6786 145.522 46.3998 147.039 46.736L184.54 55.0293C186.333 55.5671 187.558 56.451 188.18 57.6564C188.841 58.9313 188.656 60.1821 188.493 61.2848C188.349 62.2601 188.224 63.1026 188.648 63.8855C189.018 64.5618 189.744 65.0879 190.804 65.4461L193.269 65.9912C199.715 67.4163 206.164 68.8414 212.61 70.2704C214.131 70.6057 215.433 71.5203 216.276 72.8465C217.119 74.1711 217.397 75.7416 217.061 77.2686L207.808 119.516C207.204 122.254 204.779 124.125 202.098 124.125ZM145.779 48.3234C145.003 48.3234 144.239 48.5469 143.565 48.9798C142.632 49.5788 141.988 50.502 141.751 51.5797L130.607 102.446C130.48 103.022 130.477 103.61 130.6 104.197C130.941 105.785 132.178 107.038 133.751 107.387L201.211 122.302C203.432 122.793 205.638 121.376 206.129 119.144L215.382 76.8961C215.62 75.8197 215.422 74.7114 214.827 73.7762C214.231 72.8392 213.313 72.1935 212.24 71.9566C205.794 70.5276 199.345 69.1025 192.899 67.6774L190.305 67.0995C188.797 66.5997 187.732 65.797 187.14 64.7146C186.439 63.4211 186.627 62.1518 186.793 61.0314C186.935 60.066 187.058 59.2321 186.655 58.4523C186.258 57.6827 185.391 57.0915 184.077 56.6931L146.669 48.4222C146.374 48.3557 146.075 48.3234 145.779 48.3234Z" fill="#09BCEF"/>
<path d="M109.706 73.2054C99.2827 73.2054 90.8032 64.6868 90.8032 54.2156C90.8032 43.7445 99.2827 35.2258 109.706 35.2258C120.129 35.2258 128.609 43.7445 128.609 54.2156C128.609 64.6868 120.129 73.2054 109.706 73.2054ZM109.706 36.9522C100.23 36.9522 92.5216 44.6966 92.5216 54.2156C92.5216 63.7347 100.23 71.4791 109.706 71.4791C119.181 71.4791 126.89 63.7347 126.89 54.2156C126.89 44.6966 119.181 36.9522 109.706 36.9522Z" fill="#00B8BA"/>
<path d="M13.4543 69.9728C14.8243 69.9728 15.9348 68.856 15.9348 67.4784C15.9348 66.1007 14.8243 64.9839 13.4543 64.9839C12.0843 64.9839 10.9737 66.1007 10.9737 67.4784C10.9737 68.856 12.0843 69.9728 13.4543 69.9728Z" fill="#CFCFCF"/>
<g opacity="0.8">
<path d="M158.991 21.9627C160.56 21.9627 161.832 20.683 161.832 19.1044C161.832 17.5258 160.56 16.2461 158.991 16.2461C157.422 16.2461 156.15 17.5258 156.15 19.1044C156.15 20.683 157.422 21.9627 158.991 21.9627Z" fill="#9BAFBA"/>
</g>
<path opacity="0.58" d="M170.559 12.7738C171.588 12.7738 172.422 11.9347 172.422 10.8997C172.422 9.86468 171.588 9.02563 170.559 9.02563C169.53 9.02563 168.697 9.86468 168.697 10.8997C168.697 11.9347 169.53 12.7738 170.559 12.7738Z" fill="#949494"/>
<path fill-rule="evenodd" clip-rule="evenodd" d="M77.2849 74.2985L82.7811 73.2076C83.2872 73.1071 83.6154 72.6128 83.5147 72.104C83.414 71.5953 82.9218 71.2638 82.4162 71.3642L76.9201 72.4551C76.4144 72.5555 76.0858 73.0499 76.1865 73.5586C76.2872 74.0674 76.7793 74.3989 77.2849 74.2985ZM66.2926 76.4804L71.7888 75.3894C72.2949 75.289 72.6231 74.7947 72.5224 74.2859C72.4217 73.7772 71.9296 73.4457 71.4239 73.5461L65.9278 74.637C65.4221 74.7374 65.0935 75.2318 65.1942 75.7405C65.2949 76.2493 65.787 76.5808 66.2926 76.4804ZM55.3004 78.6623L60.7965 77.5713C61.3026 77.4709 61.6308 76.9766 61.5301 76.4678C61.4294 75.959 60.9373 75.6276 60.4316 75.728L54.9355 76.8189C54.4298 76.9193 54.1012 77.4136 54.2019 77.9224C54.3026 78.4312 54.7947 78.7626 55.3004 78.6623ZM44.3081 80.8442L49.8042 79.7532C50.3103 79.6528 50.6385 79.1585 50.5378 78.6497C50.4371 78.1409 49.945 77.8095 49.4394 77.9098L43.9432 79.0008C43.4376 79.1012 43.1089 79.5955 43.2096 80.1043C43.3103 80.6131 43.8024 80.9445 44.3081 80.8442ZM33.3158 83.026L38.8119 81.9351C39.318 81.8346 39.6462 81.3404 39.5455 80.8316C39.4448 80.3228 38.9527 79.9914 38.4471 80.0917L32.9509 81.1827C32.4453 81.283 32.1166 81.7774 32.2173 82.2862C32.318 82.795 32.8101 83.1264 33.3158 83.026Z" fill="#00B8BA"/>
<path fill-rule="evenodd" clip-rule="evenodd" d="M65.8978 60.7399L60.4017 61.8309C59.896 61.9313 59.4039 61.5998 59.3032 61.091C59.2025 60.5823 59.5311 60.0879 60.0368 59.9875L65.5329 58.8966C66.0386 58.7962 66.5307 59.1277 66.6314 59.6364C66.7321 60.1452 66.4039 60.6395 65.8978 60.7399ZM54.9055 62.9218L49.4094 64.0128C48.9037 64.1131 48.4116 63.7817 48.3109 63.2729C48.2102 62.7641 48.5389 62.2698 49.0445 62.1694L54.5407 61.0785C55.0463 60.9781 55.5384 61.3096 55.6391 61.8183C55.7398 62.3271 55.4116 62.8214 54.9055 62.9218ZM43.9132 65.1037L38.4171 66.1947C37.9114 66.295 37.4193 65.9636 37.3186 65.4548C37.2179 64.946 37.5466 64.4517 38.0522 64.3513L43.5484 63.2604C44.054 63.16 44.5461 63.4914 44.6468 64.0002C44.7475 64.509 44.4193 65.0033 43.9132 65.1037Z" fill="#00B8BA"/>
<path opacity="0.7" d="M47.4045 21.5097C49.2251 21.5097 50.701 20.076 50.701 18.3073C50.701 16.5387 49.2251 15.105 47.4045 15.105C45.584 15.105 44.1081 16.5387 44.1081 18.3073C44.1081 20.076 45.584 21.5097 47.4045 21.5097Z" fill="white"/>
<path opacity="0.5" d="M47.4042 8.84792C47.0588 8.84792 46.7786 8.57163 46.7786 8.23119V6.03225C46.7786 5.69182 47.0588 5.41553 47.4042 5.41553C47.7495 5.41553 48.0298 5.69182 48.0298 6.03225V8.23119C48.0298 8.57194 47.7499 8.84792 47.4042 8.84792Z" fill="white"/>
<path opacity="0.5" d="M52.2607 10.0006C52.1612 10.0006 52.0599 9.97712 51.966 9.92778C51.6613 9.76713 51.5465 9.39339 51.7098 9.09274L52.7649 7.15004C52.9279 6.85001 53.3071 6.73745 53.6117 6.89749C53.9164 7.05815 54.0312 7.43189 53.8679 7.73254L52.8128 9.67523C52.7002 9.88245 52.484 10.0006 52.2607 10.0006Z" fill="white"/>
<path opacity="0.5" d="M55.976 13.2244C55.7745 13.2244 55.5771 13.1288 55.4561 12.9518C55.2634 12.6691 55.3394 12.2861 55.6259 12.0961L57.4937 10.8577C57.7806 10.6678 58.1691 10.7424 58.3621 11.0252C58.5548 11.308 58.4788 11.6909 58.1923 11.8809L56.3244 13.1193C56.2171 13.1905 56.0961 13.2244 55.976 13.2244Z" fill="white"/>
<path opacity="0.5" d="M57.7325 17.7714C57.4194 17.7714 57.1488 17.5399 57.1119 17.2256C57.0721 16.8871 57.318 16.5812 57.6612 16.542L59.9028 16.2857C60.2457 16.2447 60.5566 16.489 60.5963 16.8272C60.6361 17.1658 60.3902 17.4717 60.047 17.5109L57.8054 17.7671C57.781 17.7702 57.7566 17.7714 57.7325 17.7714Z" fill="white"/>
<path opacity="0.5" d="M59.2056 23.3652C59.1317 23.3652 59.0567 23.3519 58.9838 23.3248L56.8741 22.5348C56.551 22.4136 56.3886 22.0574 56.5113 21.7392C56.6339 21.4209 56.9955 21.2609 57.3183 21.3815L59.428 22.1715C59.7511 22.2927 59.9135 22.6488 59.7908 22.9671C59.6957 23.2132 59.458 23.3652 59.2056 23.3652Z" fill="white"/>
<path opacity="0.5" d="M55.7118 28.2108C55.5372 28.2108 55.3636 28.1392 55.2397 27.9992L53.7673 26.3341C53.5402 26.0772 53.5674 25.6874 53.828 25.4639C54.0886 25.24 54.4837 25.2668 54.7108 25.5234L56.1832 27.1885C56.4103 27.4454 56.3831 27.8352 56.1225 28.0588C56.0039 28.1608 55.8575 28.2108 55.7118 28.2108Z" fill="white"/>
<path opacity="0.5" d="M50.305 30.901C50.0232 30.901 49.7673 30.7123 49.6976 30.4304L49.1701 28.2956C49.0885 27.9647 49.2943 27.6311 49.63 27.5503C49.9647 27.4707 50.3041 27.6724 50.3861 28.0036L50.9135 30.1384C50.9951 30.4693 50.7893 30.8029 50.4536 30.8837C50.4039 30.8954 50.3542 30.901 50.305 30.901Z" fill="white"/>
<path opacity="0.5" d="M44.218 30.816C44.1646 30.816 44.1104 30.8092 44.0563 30.795C43.7225 30.7075 43.5239 30.3695 43.6131 30.0405L44.1846 27.9269C44.2734 27.5973 44.6166 27.4021 44.9504 27.4897C45.2841 27.5773 45.4828 27.9152 45.3936 28.2442L44.8221 30.3578C44.7476 30.6338 44.4946 30.816 44.218 30.816Z" fill="white"/>
<path opacity="0.5" d="M38.8767 27.9976C38.7222 27.9976 38.5676 27.9414 38.4466 27.8286C38.1957 27.5942 38.185 27.2041 38.4225 26.9568L39.9606 25.3558C40.198 25.1085 40.5937 25.0977 40.8452 25.3321C41.0961 25.5664 41.1068 25.9565 40.8693 26.2038L39.3312 27.8048C39.2083 27.9328 39.0425 27.9976 38.8767 27.9976Z" fill="white"/>
<path opacity="0.5" d="M35.5155 23.0875C35.2558 23.0875 35.0137 22.9268 34.9239 22.6718C34.8113 22.3495 34.9846 21.9983 35.3112 21.8873L37.4427 21.1614C37.7699 21.0519 38.1256 21.2215 38.2382 21.5429C38.3508 21.8651 38.1775 22.2163 37.8509 22.3273L35.7194 23.0532C35.6522 23.0764 35.583 23.0875 35.5155 23.0875Z" fill="white"/>
<path opacity="0.5" d="M37.1199 17.5367C37.0917 17.5367 37.0633 17.5348 37.0345 17.5308L34.8147 17.232C34.4725 17.1861 34.2329 16.8752 34.2795 16.5376C34.3261 16.1999 34.6411 15.9613 34.984 16.01L37.2037 16.3088C37.546 16.3547 37.7856 16.6656 37.739 17.0032C37.6964 17.3128 37.428 17.5367 37.1199 17.5367Z" fill="white"/>
<path opacity="0.5" d="M38.9869 13.0326C38.8611 13.0326 38.7344 12.9956 38.6243 12.9182L36.8003 11.6373C36.519 11.4396 36.4533 11.0545 36.6539 10.7773C36.8544 10.4997 37.2454 10.4353 37.5266 10.6326L39.3507 11.9136C39.6319 12.1112 39.6976 12.4964 39.4971 12.7736C39.3747 12.9426 39.1821 13.0326 38.9869 13.0326Z" fill="white"/>
<path opacity="0.5" d="M42.7898 9.89402C42.5618 9.89402 42.3416 9.77067 42.2315 9.55636L41.2207 7.59208C41.0643 7.28834 41.1876 6.91708 41.4957 6.7632C41.8038 6.6084 42.1802 6.73052 42.3366 7.03394L43.3473 8.99822C43.5037 9.30196 43.3804 9.67323 43.0723 9.8271C42.9816 9.87274 42.8849 9.89402 42.7898 9.89402Z" fill="white"/>
<g opacity="0.8">
<path d="M7.45946 77.7576C8.48812 77.7576 9.322 76.9186 9.322 75.8836C9.322 74.8486 8.48812 74.0095 7.45946 74.0095C6.4308 74.0095 5.5969 74.8486 5.5969 75.8836C5.5969 76.9186 6.4308 77.7576 7.45946 77.7576Z" fill="#9BAFBA"/>
</g>
<path d="M173.322 93.8717C169.879 93.8717 167.076 90.9867 167.076 87.4404C167.076 83.894 169.879 81.009 173.322 81.009C176.766 81.009 179.568 83.894 179.568 87.4404C179.568 90.9867 176.766 93.8717 173.322 93.8717ZM173.322 82.5838C170.74 82.5838 168.638 84.7625 168.638 87.4404C168.638 90.1183 170.74 92.2969 173.322 92.2969C175.905 92.2969 178.006 90.1183 178.006 87.4404C178.006 84.7625 175.905 82.5838 173.322 82.5838Z" fill="white"/>
<path d="M173.323 101.941C173.853 101.941 174.282 101.497 174.282 100.95C174.282 100.404 173.853 99.96 173.323 99.96C172.793 99.96 172.363 100.404 172.363 100.95C172.363 101.497 172.793 101.941 173.323 101.941Z" fill="white"/>
<path d="M183.28 97.7031C183.654 97.3161 183.654 96.689 183.28 96.302C182.905 95.915 182.298 95.915 181.923 96.302C181.549 96.689 181.549 97.3161 181.923 97.7031C182.298 98.0901 182.905 98.0901 183.28 97.7031Z" fill="white"/>
<path d="M186.404 88.4315C186.934 88.4315 187.363 87.9878 187.363 87.441C187.363 86.8941 186.934 86.4504 186.404 86.4504C185.874 86.4504 185.444 86.8941 185.444 87.441C185.444 87.9878 185.874 88.4315 186.404 88.4315Z" fill="white"/>
<path d="M183.267 78.5854C183.642 78.1984 183.642 77.5713 183.267 77.1843C182.893 76.7973 182.285 76.7973 181.911 77.1843C181.536 77.5713 181.536 78.1984 181.911 78.5854C182.285 78.9724 182.892 78.9724 183.267 78.5854Z" fill="white"/>
<path d="M173.323 74.922C173.853 74.922 174.282 74.4783 174.282 73.9314C174.282 73.3842 173.853 72.9409 173.323 72.9409C172.793 72.9409 172.363 73.3846 172.363 73.9314C172.363 74.4787 172.793 74.922 173.323 74.922Z" fill="white"/>
<path d="M164.755 78.5979C165.13 78.2109 165.13 77.5837 164.755 77.1967C164.381 76.8097 163.773 76.8097 163.398 77.1967C163.024 77.5837 163.024 78.2109 163.398 78.5979C163.773 78.9845 164.381 78.9845 164.755 78.5979Z" fill="white"/>
<path d="M160.241 88.4315C160.77 88.4315 161.2 87.9878 161.2 87.441C161.2 86.8941 160.77 86.4504 160.241 86.4504C159.711 86.4504 159.281 86.8941 159.281 87.441C159.281 87.9878 159.711 88.4315 160.241 88.4315Z" fill="white"/>
<path d="M164.767 97.7165C165.142 97.3295 165.142 96.7024 164.767 96.3154C164.393 95.9284 163.785 95.9284 163.41 96.3154C163.036 96.7024 163.036 97.3295 163.41 97.7165C163.785 98.1035 164.393 98.1035 164.767 97.7165Z" fill="white"/>
<path d="M118.039 54.7613H101.947C101.385 54.7613 100.929 54.3021 100.929 53.7362C100.929 53.1704 101.385 52.7112 101.947 52.7112H118.039C118.601 52.7112 119.057 53.1704 119.057 53.7362C119.057 54.3021 118.601 54.7613 118.039 54.7613Z" fill="#00B8BA"/>
<path d="M109.993 62.8611C109.431 62.8611 108.974 62.4019 108.974 61.836V45.6361C108.974 45.0703 109.431 44.6111 109.993 44.6111C110.555 44.6111 111.011 45.0703 111.011 45.6361V61.836C111.011 62.4019 110.555 62.8611 109.993 62.8611Z" fill="#00B8BA"/>
</svg>
