<svg width="220" height="220" viewBox="0 0 220 220" fill="none" xmlns="http://www.w3.org/2000/svg">
<path d="M168.985 120.032C188.323 120.032 204 104.312 204 84.9201C204 65.5286 188.323 49.8086 168.985 49.8086C149.647 49.8086 133.971 65.5286 133.971 84.9201C133.971 104.312 149.647 120.032 168.985 120.032Z" fill="#EBF1F2"/>
<path d="M56.2689 176.196C67.3205 176.196 76.2795 167.212 76.2795 156.13C76.2795 145.048 67.3205 136.064 56.2689 136.064C45.2174 136.064 36.2583 145.048 36.2583 156.13C36.2583 167.212 45.2174 176.196 56.2689 176.196Z" fill="#D7E2E5"/>
<path d="M36.156 148.424C31.3054 148.424 27.3589 144.38 27.3589 139.41C27.3589 134.44 31.3054 130.396 36.156 130.396C41.007 130.396 44.9535 134.44 44.9535 139.41C44.9535 144.38 41.007 148.424 36.156 148.424ZM36.156 132.305C32.3551 132.305 29.2631 135.492 29.2631 139.41C29.2631 143.327 32.3551 146.514 36.156 146.514C39.9568 146.514 43.0493 143.327 43.0493 139.41C43.0493 135.492 39.9568 132.305 36.156 132.305Z" fill="#9BAFBA"/>
<path d="M36.1565 160.115C36.9173 160.115 37.5338 159.481 37.5338 158.7C37.5338 157.919 36.9173 157.286 36.1565 157.286C35.3958 157.286 34.7793 157.919 34.7793 158.7C34.7793 159.481 35.3958 160.115 36.1565 160.115Z" fill="#9BAFBA"/>
<path d="M50.4501 154.064C50.9881 153.512 50.9881 152.616 50.4501 152.063C49.9122 151.511 49.0405 151.511 48.5026 152.063C47.9646 152.615 47.9646 153.511 48.5026 154.064C49.0405 154.616 49.9122 154.616 50.4501 154.064Z" fill="#9BAFBA"/>
<path d="M54.9349 140.824C55.6956 140.824 56.3121 140.191 56.3121 139.41C56.3121 138.629 55.6956 137.995 54.9349 137.995C54.1741 137.995 53.5576 138.629 53.5576 139.41C53.5576 140.191 54.1746 140.824 54.9349 140.824Z" fill="#9BAFBA"/>
<path d="M50.4321 126.765C50.97 126.213 50.97 125.317 50.4321 124.764C49.8941 124.212 49.0225 124.212 48.4845 124.764C47.9466 125.317 47.9466 126.212 48.4845 126.765C49.0225 127.317 49.8946 127.317 50.4321 126.765Z" fill="#9BAFBA"/>
<path d="M36.1565 121.534C36.9173 121.534 37.5338 120.901 37.5338 120.12C37.5338 119.338 36.9173 118.705 36.1565 118.705C35.3958 118.705 34.7793 119.339 34.7793 120.12C34.7793 120.901 35.3958 121.534 36.1565 121.534Z" fill="#9BAFBA"/>
<path d="M23.8574 126.783C24.3953 126.231 24.3953 125.335 23.8574 124.782C23.3194 124.23 22.4478 124.23 21.9098 124.782C21.3719 125.335 21.3719 126.23 21.9098 126.783C22.4478 127.335 23.3194 127.335 23.8574 126.783Z" fill="#9BAFBA"/>
<path d="M17.3772 140.824C18.138 140.824 18.7545 140.191 18.7545 139.41C18.7545 138.629 18.138 137.995 17.3772 137.995C16.6165 137.995 16 138.629 16 139.41C16 140.191 16.6165 140.824 17.3772 140.824Z" fill="#9BAFBA"/>
<path d="M23.8754 154.082C24.4134 153.53 24.4134 152.634 23.8754 152.081C23.3375 151.529 22.4658 151.529 21.9279 152.081C21.3899 152.634 21.3899 153.529 21.9279 154.082C22.4658 154.635 23.3375 154.635 23.8754 154.082Z" fill="#9BAFBA"/>
<path d="M157.337 75.814H129.976C129.45 75.814 129.023 75.3863 129.023 74.8593V45.7345C129.023 45.2075 129.45 44.7798 129.976 44.7798C130.501 44.7798 130.928 45.2075 130.928 45.7345V73.9045H157.337C157.862 73.9045 158.289 74.3323 158.289 74.8593C158.289 75.3863 157.862 75.814 157.337 75.814Z" fill="#666666"/>
<path d="M192.384 67.4691C188.451 67.4691 185.25 64.273 185.25 60.3444C185.25 56.4158 188.451 53.2197 192.384 53.2197C196.318 53.2197 199.518 56.4158 199.518 60.3444C199.518 64.273 196.318 67.4691 192.384 67.4691ZM192.384 54.8104C189.329 54.8104 186.843 57.2931 186.843 60.3444C186.843 63.3958 189.329 65.8784 192.384 65.8784C195.44 65.8784 197.926 63.3958 197.926 60.3444C197.926 57.2931 195.44 54.8104 192.384 54.8104Z" fill="#CACACA"/>
<path d="M136.29 86.7889H132.983V84.8794H136.29V86.7889ZM127.27 86.7889H121.557V84.8794H127.27V86.7889ZM115.844 86.7889H110.131V84.8794H115.844V86.7889ZM104.419 86.7889H98.706V84.8794H104.419V86.7889ZM92.9933 86.7889H87.2807V84.8794H92.9933V86.7889ZM81.568 86.7889H75.8553V84.8794H81.568V86.7889ZM70.1426 86.7889H64.4299V84.8794H70.1426V86.7889ZM58.7172 86.7889H53.0045V84.8794H58.7172V86.7889ZM47.2918 86.7889H41.5791V84.8794H47.2918V86.7889Z" fill="#A8A8A8"/>
<path d="M158.245 164.208H66.523L65.5709 163.253V129.517C65.5709 128.99 65.9974 128.562 66.523 128.562C67.0486 128.562 67.4751 128.99 67.4751 129.517V162.298H157.292L157.226 74.8185L129.9 45.91H67.4727L67.3066 111.162C67.3052 111.689 66.8796 112.114 66.3545 112.114C66.3535 112.114 66.353 112.114 66.3521 112.114C65.8265 112.113 65.4009 111.685 65.4023 111.157L65.5709 44.9524L66.523 44H130.309L131 44.2979L158.869 73.7802L159.13 74.4361L159.197 163.251L158.245 164.208Z" fill="#666666"/>
<path d="M192.584 148.837H186.872V146.927H192.584V143.436H194.489V146.927C194.489 147.98 193.635 148.837 192.584 148.837ZM181.159 148.837H175.446V146.927H181.159V148.837ZM169.734 148.837H164.021V146.927H169.734V148.837ZM158.308 148.837H152.596V146.927H158.308V148.837ZM146.883 148.837H141.17V146.927H146.883V148.837ZM135.457 148.837H129.745V146.927H135.457V148.837ZM124.032 148.837H118.319V146.927H124.032V148.837ZM112.607 148.837H106.894V146.927H112.607V148.837ZM101.181 148.837H100.2C99.1494 148.837 98.2954 147.98 98.2954 146.927V143.683H100.2V146.927H101.181V148.837ZM100.199 137.954H98.2949V132.226H100.199V137.954ZM194.489 137.707H192.584V131.979H194.489V137.707ZM100.199 126.497H98.2949V120.769H100.199V126.497ZM194.489 126.25H192.584V120.522H194.489V126.25ZM100.199 115.04H98.2949V109.312H100.199V115.04ZM194.489 114.793H192.584V109.065H194.489V114.793ZM189.114 108.316H183.401V106.406H189.114V108.316ZM177.689 108.316H171.976V106.406H177.689V108.316ZM166.263 108.316H160.55V106.406H166.263V108.316ZM154.838 108.316H149.125V106.406H154.838V108.316ZM143.412 108.316H137.7V106.406H143.412V108.316ZM131.987 108.316H126.274V106.406H131.987V108.316ZM120.562 108.316H114.849V106.406H120.562V108.316ZM109.136 108.316H103.423V106.406H109.136V108.316Z" fill="#A8A8A8"/>
</svg>
