<?xml version="1.0" encoding="utf-8"?>
<!-- Generator: Adobe Illustrator 18.1.0, SVG Export Plug-In . SVG Version: 6.00 Build 0)  -->
<!DOCTYPE svg PUBLIC "-//W3C//DTD SVG 1.1//EN" "http://www.w3.org/Graphics/SVG/1.1/DTD/svg11.dtd">
<svg version="1.1" id="Layer_1" xmlns="http://www.w3.org/2000/svg" xmlns:xlink="http://www.w3.org/1999/xlink" x="0px" y="0px"
	 viewBox="0 0 24 24" enable-background="new 0 0 24 24" xml:space="preserve">
<g>
	<path fill="#333333" d="M22,10h-7c-0.552,0-1-0.448-1-1V2c0-0.552,0.448-1,1-1h7c0.552,0,1,0.448,1,1v7C23,9.552,22.552,10,22,10z"
		/>
	<path fill="#333333" d="M9,10H2c-0.552,0-1-0.448-1-1V2c0-0.552,0.448-1,1-1h7c0.552,0,1,0.448,1,1v7C10,9.552,9.552,10,9,10z"/>
	<path fill="#333333" d="M22,23h-7c-0.552,0-1-0.448-1-1v-7c0-0.552,0.448-1,1-1h7c0.552,0,1,0.448,1,1v7C23,22.552,22.552,23,22,23
		z"/>
	<path fill="#333333" d="M9,23H2c-0.552,0-1-0.448-1-1v-7c0-0.552,0.448-1,1-1h7c0.552,0,1,0.448,1,1v7C10,22.552,9.552,23,9,23z"/>
</g>
<g id="metadata">
</g>
</svg>
