<?xml version="1.0" encoding="utf-8"?>
<!-- Generator: Adobe Illustrator 18.1.0, SVG Export Plug-In . SVG Version: 6.00 Build 0)  -->
<!DOCTYPE svg PUBLIC "-//W3C//DTD SVG 1.1//EN" "http://www.w3.org/Graphics/SVG/1.1/DTD/svg11.dtd">
<svg version="1.1" id="Layer_1" xmlns="http://www.w3.org/2000/svg" xmlns:xlink="http://www.w3.org/1999/xlink" x="0px" y="0px"
	 viewBox="0 0 36 36" enable-background="new 0 0 36 36" xml:space="preserve">
<path fill="#99B2C2" d="M18,0C8.059,0,0,8.059,0,18s8.059,18,18,18s18-8.059,18-18S27.941,0,18,0z M27.329,25.971h-0.017H6.758
	l0.017-15.363c0-0.604,0.489-1.094,1.091-1.094h6.029c0.277,0,0.547,0.094,0.765,0.266l2.45,1.94
	c0.218,0.172,0.487,0.266,0.765,0.266h8.363c0.603,0,1.091,0.49,1.091,1.094l-0.001,0.548H9.843c-0.568,0-1.029,0.46-1.029,1.029
	L8.129,22.2l2.497-6.866c0.148-0.406,0.534-0.677,0.967-0.677h18.382c0.714,0,1.211,0.709,0.967,1.38L27.329,25.971z"/>
</svg>
