<svg id="Layer_1" data-name="Layer 1" xmlns="http://www.w3.org/2000/svg" width="32" height="32" viewBox="0 0 32 32"><title>image_user_placeholder32</title><g id="Layer_2" data-name="Layer 2"><g id="Layer_1-2" data-name="Layer 1-2"><path d="M16,31.5A15.5,15.5,0,1,1,31.5,16,15.517,15.517,0,0,1,16,31.5Z" style="fill:#00639b"/><path d="M16,1A15,15,0,1,1,1,16,15,15,0,0,1,16,1m0-1A16,16,0,1,0,32,16,16.018,16.018,0,0,0,16,0Z" style="fill:#fff"/></g></g><path d="M23.214,21.786V20.714a6.079,6.079,0,0,0-.357-1.857,1.857,1.857,0,0,0-1.071-1.143,16.677,16.677,0,0,0-1.786-.5,5.929,5.929,0,0,1-1.429-.357,3.929,3.929,0,0,1-.643-.5c-.071-.143-.214-.214-.214-.357l-.286-.286.286-.214a3.744,3.744,0,0,0,.714-.786A3.434,3.434,0,0,0,19,13.143l.071-.214.214-.071c.071,0,.071-.071.143-.143.071-.143.143-.357.214-.5a1.039,1.039,0,0,0-.071-.714l-.071-.143.071-.286a4.393,4.393,0,0,0,.071-1,10.371,10.371,0,0,0-.214-1.214,2.552,2.552,0,0,0-1.071-1.429A3.678,3.678,0,0,0,16,6.714a4.163,4.163,0,0,0-2.357.714,2.46,2.46,0,0,0-1.071,1.429c0,.071-.143.643-.214,1.214a4.393,4.393,0,0,0,.071,1l.071.286-.071.071a1.039,1.039,0,0,0-.071.714,1.706,1.706,0,0,0,.214.5l.143.143.214.071.071.214a8.04,8.04,0,0,0,.571,1.571,3.744,3.744,0,0,0,.714.786l.286.214-.143.286a1.679,1.679,0,0,1-.857.857,5.929,5.929,0,0,1-1.429.357,7.906,7.906,0,0,0-1.857.5,1.857,1.857,0,0,0-1.071,1.143,10.5,10.5,0,0,0-.357,1.857c0,.143-.071.214-.071.357v.786A1.251,1.251,0,0,0,10,23H22a1.2,1.2,0,0,0,1.214-1.193Q23.214,21.8,23.214,21.786Z" style="fill:#fff"/></svg>