<svg width="222" height="342" viewBox="0 0 222 342" fill="none" xmlns="http://www.w3.org/2000/svg">
<path fill-rule="evenodd" clip-rule="evenodd" d="M0 3C0 1.34315 1.34315 0 3 0H219C220.657 0 222 1.34315 222 3V107C222 108.657 220.657 110 219 110H3C1.34315 110 0 108.657 0 107V3ZM3 3V107H219V3H3Z" fill="#333333"/>
<path d="M3 119H219V223H3V119Z" fill="#DCE4E8"/>
<path d="M3 235H219V339H3V235Z" fill="#F9F9F9"/>
<path fill-rule="evenodd" clip-rule="evenodd" d="M0 119C0 117.343 1.34315 116 3 116H219C220.657 116 222 117.343 222 119V223C222 224.657 220.657 226 219 226H3C1.34315 226 0 224.657 0 223V119ZM3 119V223H219V119H3Z" fill="#627783"/>
<path fill-rule="evenodd" clip-rule="evenodd" d="M0 235C0 233.343 1.34315 232 3 232H219C220.657 232 222 233.343 222 235V339C222 340.657 220.657 342 219 342H3C1.34315 342 0 340.657 0 339V235ZM3 235V339H219V235H3Z" fill="#757575"/>
</svg>
