<svg id="Layer_1" data-name="Layer 1" xmlns="http://www.w3.org/2000/svg" viewBox="0 0 16 16"><title>Artboard 1list_view_hide16_md</title><path d="M2,15.5A1.5,1.5,0,0,1,.5,14V2A1.5,1.5,0,0,1,2,.5H14A1.5,1.5,0,0,1,15.5,2V14A1.5,1.5,0,0,1,14,15.5Z" style="fill:#fff"/><rect x="0.875" y="0.5" width="1.75" height="15" style="fill:#676767"/><path d="M14,1a1,1,0,0,1,1,1V14a1,1,0,0,1-1,1H2a1,1,0,0,1-1-1V2A1,1,0,0,1,2,1H14M2,0A2,2,0,0,0,0,2V14a2,2,0,0,0,2,2H14a2,2,0,0,0,2-2V2a2,2,0,0,0-2-2Z" style="fill:#676767"/><path d="M7.146,10.32,4.318,7.493,7.13,4.68a.5.5,0,0,1,.7.707l-2.1,2.105L7.854,9.613a.5.5,0,1,1-.708.707Z" style="fill:#676767"/></svg>