<?xml version="1.0" encoding="utf-8"?>
<!-- Generator: Adobe Illustrator 19.1.0, SVG Export Plug-In . SVG Version: 6.00 Build 0)  -->
<svg version="1.1" id="Layer_1" xmlns="http://www.w3.org/2000/svg" xmlns:xlink="http://www.w3.org/1999/xlink" x="0px" y="0px"
	 viewBox="0 0 24 24" enable-background="new 0 0 24 24" xml:space="preserve">
<g>
	<g>
		<path fill="#FFFFFF" d="M2,19.5c-0.827,0-1.5-0.673-1.5-1.5V2c0-0.827,0.673-1.5,1.5-1.5h9.793L15.5,4.207V18
			c0,0.827-0.673,1.5-1.5,1.5H2z"/>
		<path fill="#333333" d="M11.586,1L15,4.414V18c0,0.551-0.449,1-1,1H2c-0.551,0-1-0.449-1-1V2c0-0.551,0.449-1,1-1H11.586 M12,0H2
			C0.896,0,0,0.896,0,2v16c0,1.104,0.896,2,2,2h12c1.104,0,2-0.896,2-2V4L12,0z"/>
		<path fill="#333333" d="M16,23.5c-4.136,0-7.5-3.364-7.5-7.5s3.364-7.5,7.5-7.5s7.5,3.364,7.5,7.5S20.136,23.5,16,23.5"/>
		<path fill="#FFFFFF" d="M16,9c3.866,0,7,3.134,7,7s-3.134,7-7,7s-7-3.134-7-7S12.134,9,16,9 M16,8c-4.411,0-8,3.589-8,8
			s3.589,8,8,8s8-3.589,8-8S20.411,8,16,8"/>
		<path fill="#FFFFFF" d="M21,14.38l-2.939-2.939c-0.244-0.244-0.639-0.244-0.883,0s-0.244,0.639,0,0.883l1.432,1.432h-0.99
			c-3.571,0-5.62,2.048-5.62,5.619C12,19.72,12.279,20,12.624,20c0.346,0,0.625-0.28,0.625-0.625c0-1.994,0.758-4.371,4.371-4.371
			h0.99l-1.432,1.432c-0.244,0.244-0.244,0.639,0,0.883c0.122,0.122,0.282,0.183,0.442,0.183c0.159,0,0.319-0.061,0.441-0.183
			L21,14.38z"/>
	</g>
</g>
</svg>
