<svg version="1.1" xmlns="http://www.w3.org/2000/svg" xmlns:xlink="http://www.w3.org/1999/xlink" x="0px" y="0px" viewBox="0 0 16 16" style="enable-background:new 0 0 16 16;" xml:space="preserve"><g><path d="M2,15.5c-0.827,0-1.5-0.673-1.5-1.5V2c0-0.827,0.673-1.5,1.5-1.5h12c0.827,0,1.5,0.673,1.5,1.5v12
		c0,0.827-0.673,1.5-1.5,1.5H2z" fill="#FFFFFF"/><rect x="1" y="0.5" width="5" height="15" fill="#333333"/><rect x="1" y="1" width="4" height="14" fill="#999999"/><path d="M14,1c0.551,0,1,0.449,1,1v12c0,0.551-0.449,1-1,1H2c-0.551,0-1-0.449-1-1V2c0-0.551,0.449-1,1-1H14 M14,0H2
		C0.895,0,0,0.895,0,2v12c0,1.105,0.895,2,2,2h12c1.105,0,2-0.895,2-2V2C16,0.895,15.105,0,14,0L14,0z" fill="#333333"/></g></svg>