<svg data-name="Layer 2" xmlns="http://www.w3.org/2000/svg" viewBox="0 0 32 32"><title>mime</title><path d="M22,14.042h9V8a3,3,0,0,0-3-3H14v9.042a4.012,4.012,0,0,1-4,4H1V24a3,3,0,0,0,3,3H18V18.042A4.012,4.012,0,0,1,22,14.042Z" fill="#0072aa"/><path d="M28,4a4.012,4.012,0,0,1,4,4h0a4.012,4.012,0,0,0-4-4h0Z" fill="#1291ce"/><path d="M0,8H0A4.012,4.012,0,0,1,4,4H4A4.012,4.012,0,0,0,0,8Z" fill="#1291ce"/><path d="M20,18.042V27h8a3,3,0,0,0,3-3V16.042H22A2,2,0,0,0,20,18.042Z" fill="#9370b1"/><path d="M12,14.042V5H4A3,3,0,0,0,1,8v8.042h9A2,2,0,0,0,12,14.042Z" fill="#c57c15"/><path d="M4,28a3.988,3.988,0,0,1-2.825-1.175A3.988,3.988,0,0,0,4,28H4Z" fill="#fff"/><path d="M30.825,26.825A3.988,3.988,0,0,1,28,28h0A3.988,3.988,0,0,0,30.825,26.825Z" fill="#fff"/><path d="M32,24a3.988,3.988,0,0,1-1.175,2.825A3.988,3.988,0,0,0,32,24h0Z" fill="#fff"/><path d="M0,24a3.987,3.987,0,0,0,1.175,2.825A3.988,3.988,0,0,1,0,24H0Z" fill="#fff"/><path d="M18,28V27H4a3,3,0,0,1-3-3V18.042H0V24a4.012,4.012,0,0,0,4,4H18Z" fill="#fff"/><path d="M4,5h8V4H4A4.012,4.012,0,0,0,0,8v8.042H1V8A3,3,0,0,1,4,5Z" fill="#fff"/><path d="M31,24a3,3,0,0,1-3,3H20v1h8a4.012,4.012,0,0,0,4-4V16.042H31V24Z" fill="#fff"/><path d="M28,4H14V5H28a3,3,0,0,1,3,3v6.042h1V8A4.012,4.012,0,0,0,28,4Z" fill="#fff"/><path d="M14,14.042V5H12v9.042a2,2,0,0,1-2,2H1v2h9A4.012,4.012,0,0,0,14,14.042Z" fill="#fff"/><rect y="16.042" width="1" height="2" fill="#fff"/><rect x="12" y="4" width="2" height="1" fill="#fff"/><path d="M20,18.042a2,2,0,0,1,2-2h9v-2H22a4.012,4.012,0,0,0-4,4V27h2V18.042Z" fill="#fff"/><rect x="31" y="14.042" width="1" height="2" fill="#fff"/><rect x="18" y="27" width="2" height="1" fill="#fff"/></svg>