<svg data-name="Layer 2" xmlns="http://www.w3.org/2000/svg" viewBox="0 0 32 32"><title>mime</title><path d="M29.621,1H2.379a0.911,0.911,0,0,0-.908.908s0.921,3.359.943,3.438a0.912,0.912,0,0,0,.873.66H6.969V24.061a0.985,0.985,0,0,0,.984.969H24.016a0.971,0.971,0,0,0,.969-0.969V6.006h3.728a0.912,0.912,0,0,0,.9-0.759c0.008-.048.921-3.339,0.921-3.339A0.911,0.911,0,0,0,29.621,1Z" fill="#fff"/><path d="M29.621,1a0.911,0.911,0,0,1,.908.908s-0.913,3.29-.921,3.339a0.912,0.912,0,0,1-.9.759H24.984V24.061a0.971,0.971,0,0,1-.969.969H7.953a0.985,0.985,0,0,1-.984-0.969V6.006H3.288a0.912,0.912,0,0,1-.873-0.66C2.392,5.267,1.471,1.908,1.471,1.908A0.911,0.911,0,0,1,2.379,1H29.621m0-1H2.379A1.91,1.91,0,0,0,.471,1.908V2.027L0.5,2.143C1.425,5.964,1.446,5.6,1.453,5.621A1.917,1.917,0,0,0,3.288,7.006H5.969V24.061A1.984,1.984,0,0,0,7.953,26.03H24.016a1.971,1.971,0,0,0,1.969-1.969V7.006h2.728a1.9,1.9,0,0,0,1.882-1.594c0.035-.149.906-3.266,0.906-3.266l0.029-.117V1.908A1.91,1.91,0,0,0,29.621,0h0Z" fill="#fff"/><path d="M6.469,6.51v0H3.288A1.416,1.416,0,0,1,1.934,5.483C1.911,5.4.971,1.975,0.971,1.975V1.908A1.41,1.41,0,0,1,2.379.5H29.621a1.41,1.41,0,0,1,1.408,1.408V1.976l-0.019.065S30.134,5.2,30.094,5.363a1.393,1.393,0,0,1-1.382,1.143H25.484l-0.5,0H6.469Z" fill="#c57c15"/><path d="M29.621,1a0.911,0.911,0,0,1,.908.908s-0.913,3.29-.921,3.339a0.912,0.912,0,0,1-.9.759H24.984v0H6.969v0H3.288a0.912,0.912,0,0,1-.873-0.66C2.392,5.267,1.471,1.908,1.471,1.908A0.911,0.911,0,0,1,2.379,1H29.621m0-1H2.379A1.91,1.91,0,0,0,.471,1.908V2.043l0.036,0.13s0.924,3.37.946,3.448A1.917,1.917,0,0,0,3.288,7.006H5.969l1,0H25.984v0h2.728A1.9,1.9,0,0,0,30.585,5.46c0.069-.261.573-2.081,0.907-3.284l0.036-.131V1.908A1.91,1.91,0,0,0,29.621,0h0Z" fill="#fff"/><path d="M6.969,24.061a0.985,0.985,0,0,0,.984.969H24.016a0.971,0.971,0,0,0,.969-0.969V6.01H6.969V24.061Z" fill="#b26602"/><path d="M27.465,12.017h-9.98a2.5,2.5,0,0,0-2.5,2.5v7.99a2.5,2.5,0,0,0,2.5,2.5h2.483l0.02,5.385,4.577-5.385h2.9a2.491,2.491,0,0,0,.42-0.042V24.194A5,5,0,0,0,22.892,19.2H21.258l1.8,1.8a1,1,0,1,1-1.414,1.414l-4.191-4.191,4.1-4.1a1,1,0,0,1,1.414,1.414L21.311,17.2h1.581a7,7,0,0,1,6.93,6.107,2.469,2.469,0,0,0,.143-0.8v-7.99A2.5,2.5,0,0,0,27.465,12.017Z" fill="#0072aa"/><path d="M27.465,11.017h-9.98a3.5,3.5,0,0,0-3.5,3.5v7.99a3.5,3.5,0,0,0,3.5,3.5h1.487l0.017,4.557a0.932,0.932,0,0,0,.944.935,0.722,0.722,0,0,0,.6-0.323l4.492-5.168h2.444a3.5,3.5,0,0,0,3.5-3.5v-7.99A3.5,3.5,0,0,0,27.465,11.017Zm2.5,11.49a2.469,2.469,0,0,1-.143.8,7,7,0,0,0-6.93-6.107H21.311l1.657-1.657a1,1,0,0,0-1.414-1.414l-4.1,4.1,4.191,4.191A1,1,0,0,0,23.062,21l-1.8-1.8h1.634a5,5,0,0,1,4.993,4.994v0.771a2.491,2.491,0,0,1-.42.042h-2.9l-4.577,5.385-0.02-5.385H17.485a2.5,2.5,0,0,1-2.5-2.5v-7.99a2.5,2.5,0,0,1,2.5-2.5h9.98a2.5,2.5,0,0,1,2.5,2.5v7.99Z" fill="#fff"/></svg>