<svg data-name="Layer 2" xmlns="http://www.w3.org/2000/svg" viewBox="0 0 32 32"><title>mime</title><g data-name="Comment icon"><path d="M9.285,31.084a0.693,0.693,0,0,1-.707-0.694L8.55,22.534H7.9a7.405,7.405,0,0,1-7.4-7.4V8.312A7.405,7.405,0,0,1,7.9.916H24.1a7.405,7.405,0,0,1,7.4,7.4v6.825a7.405,7.405,0,0,1-7.4,7.4H17.02L9.8,30.842A0.668,0.668,0,0,1,9.285,31.084Z" fill="#9370b1"/><path d="M24.1,1.416a6.9,6.9,0,0,1,6.9,6.9v6.825a6.9,6.9,0,0,1-6.9,6.9h-7.31l-0.3.344L9.421,30.513a0.17,0.17,0,0,1-.137.071,0.2,0.2,0,0,1-.206-0.2L9.052,23.031l0-1H7.9a6.9,6.9,0,0,1-6.9-6.9V8.313a6.9,6.9,0,0,1,6.9-6.9H24.1m0-1H7.9A7.9,7.9,0,0,0,0,8.313v6.825a7.906,7.906,0,0,0,7.9,7.9H8.052l0.026,7.358a1.192,1.192,0,0,0,1.206,1.192,1.17,1.17,0,0,0,.891-0.414l7.073-8.136H24.1a7.906,7.906,0,0,0,7.9-7.9V8.313a7.906,7.906,0,0,0-7.9-7.9h0Z" fill="#fff"/></g><path d="M11.821,10.158a3.037,3.037,0,0,1,.514-1.619,3.95,3.95,0,0,1,1.5-1.358,4.711,4.711,0,0,1,2.3-.538,4.906,4.906,0,0,1,2.153.45,3.491,3.491,0,0,1,1.442,1.224A3.005,3.005,0,0,1,20.232,10a2.6,2.6,0,0,1-.29,1.253,3.843,3.843,0,0,1-.689.93q-0.4.391-1.435,1.316a5.737,5.737,0,0,0-.458.458,1.835,1.835,0,0,0-.257.361,1.762,1.762,0,0,0-.13.328c-0.031.109-.077,0.3-0.14,0.576a0.935,0.935,0,0,1-1,.875,1.025,1.025,0,0,1-.736-0.286,1.122,1.122,0,0,1-.3-0.85,3.134,3.134,0,0,1,.219-1.224,3.1,3.1,0,0,1,.58-0.908,13.469,13.469,0,0,1,.976-0.93q0.539-.47.778-0.711a2.369,2.369,0,0,0,.4-0.534,1.288,1.288,0,0,0,.164-0.639,1.487,1.487,0,0,0-.5-1.136,1.826,1.826,0,0,0-1.291-.463,1.787,1.787,0,0,0-1.362.467,3.714,3.714,0,0,0-.74,1.376,1.115,1.115,0,0,1-1.085.95,1.065,1.065,0,0,1-.795-0.332A1.019,1.019,0,0,1,11.821,10.158Zm4.1,9.219a1.322,1.322,0,0,1-.9-0.332,1.166,1.166,0,0,1-.383-0.93,1.2,1.2,0,0,1,.37-0.892,1.25,1.25,0,0,1,.908-0.361,1.236,1.236,0,0,1,1.254,1.253,1.177,1.177,0,0,1-.379.926A1.279,1.279,0,0,1,15.925,19.377Z" fill="#735796"/><path d="M11.821,9.026a3.037,3.037,0,0,1,.514-1.619,3.95,3.95,0,0,1,1.5-1.358,4.711,4.711,0,0,1,2.3-.538,4.906,4.906,0,0,1,2.153.45,3.491,3.491,0,0,1,1.442,1.224,3.005,3.005,0,0,1,.509,1.683,2.6,2.6,0,0,1-.29,1.253,3.843,3.843,0,0,1-.689.93q-0.4.391-1.435,1.316a5.737,5.737,0,0,0-.458.458,1.835,1.835,0,0,0-.257.361,1.762,1.762,0,0,0-.13.328c-0.031.109-.077,0.3-0.14,0.576a0.935,0.935,0,0,1-1,.875,1.025,1.025,0,0,1-.736-0.286,1.122,1.122,0,0,1-.3-0.85,3.134,3.134,0,0,1,.219-1.224A3.1,3.1,0,0,1,15.6,11.7a13.469,13.469,0,0,1,.976-0.93q0.539-.47.778-0.711a2.369,2.369,0,0,0,.4-0.534,1.288,1.288,0,0,0,.164-0.639,1.487,1.487,0,0,0-.5-1.136,1.826,1.826,0,0,0-1.291-.463,1.787,1.787,0,0,0-1.362.467,3.714,3.714,0,0,0-.74,1.376,1.115,1.115,0,0,1-1.085.95,1.065,1.065,0,0,1-.795-0.332A1.019,1.019,0,0,1,11.821,9.026Zm4.1,9.219a1.322,1.322,0,0,1-.9-0.332,1.166,1.166,0,0,1-.383-0.93,1.2,1.2,0,0,1,.37-0.892,1.25,1.25,0,0,1,.908-0.361,1.236,1.236,0,0,1,1.254,1.253,1.177,1.177,0,0,1-.379.926A1.279,1.279,0,0,1,15.925,18.244Z" fill="#fff"/></svg>