<?xml version="1.0" encoding="utf-8"?>
<!-- Generator: Adobe Illustrator 18.1.0, SVG Export Plug-In . SVG Version: 6.00 Build 0)  -->
<!DOCTYPE svg PUBLIC "-//W3C//DTD SVG 1.1//EN" "http://www.w3.org/Graphics/SVG/1.1/DTD/svg11.dtd">
<svg version="1.1" id="Layer_1" xmlns="http://www.w3.org/2000/svg" xmlns:xlink="http://www.w3.org/1999/xlink" x="0px" y="0px"
	 viewBox="0 0 32 32" enable-background="new 0 0 32 32" xml:space="preserve">
<g>
	<g>
		<g>
			<path fill="#D7DFE2" d="M4,4v24c0,1.657,1.343,3,3,3h18c1.657,0,3-1.343,3-3V7l-6-6H7C5.343,1,4,2.343,4,4z"/>
		</g>
	</g>
	<g>
		<g>
			<path fill="#D7DFE2" d="M7,31.5c-1.93,0-3.5-1.57-3.5-3.5V4c0-1.93,1.57-3.5,3.5-3.5h15.207L28.5,6.793V28
				c0,1.93-1.57,3.5-3.5,3.5H7z"/>
			<path fill="#FFFFFF" d="M22,1l6,6v21c0,1.657-1.343,3-3,3H7c-1.657,0-3-1.343-3-3V4c0-1.657,1.343-3,3-3H22 M22.414,0H22H7
				C4.794,0,3,1.794,3,4v24c0,2.206,1.794,4,4,4h18c2.206,0,4-1.794,4-4V7V6.586l-0.293-0.293l-6-6L22.414,0L22.414,0z"/>
		</g>
	</g>
	<g>
		<polygon fill="#627784" points="7.459,1 4,4.459 4,5.874 8.874,1 		"/>
		<polygon fill="#627784" points="11.626,1 4,8.626 4,10.041 13.04,1 		"/>
		<polygon fill="#627784" points="15.793,1 4,12.793 4,14.207 17.207,1 		"/>
		<polygon fill="#627784" points="19.959,1 4,16.959 4,18.374 21.374,1 		"/>
		<polygon fill="#627784" points="23.063,2.063 4,21.126 4,22.541 23.77,2.77 		"/>
		<polygon fill="#627784" points="25.146,4.146 4,25.293 4,26.707 25.853,4.853 		"/>
		<path fill="#627784" d="M27.23,6.23L4.255,29.204c0.139,0.316,0.333,0.6,0.566,0.848L27.937,6.937L27.23,6.23z"/>
		<path fill="#627784" d="M28,9.626L6.661,30.966C6.773,30.979,6.884,31,7,31h1.04L28,11.04V9.626z"/>
		<polygon fill="#627784" points="28,13.792 10.793,31 12.207,31 28,15.207 		"/>
		<polygon fill="#627784" points="28,17.959 14.959,31 16.374,31 28,19.374 		"/>
		<polygon fill="#627784" points="28,22.126 19.126,31 20.54,31 28,23.54 		"/>
		<polygon fill="#627784" points="28,26.292 23.293,31 24.707,31 28,27.707 		"/>
	</g>
	<polygon fill-rule="evenodd" clip-rule="evenodd" fill="#4D575B" points="22,1 22,7 28,7 	"/>
</g>
<g id="Ppt">
</g>
<g id="Small_Folder">
</g>
<g id="fave_icon_-_selected">
</g>
</svg>
