<?xml version="1.0" encoding="utf-8"?>
<!-- Generator: Adobe Illustrator 19.1.0, SVG Export Plug-In . SVG Version: 6.00 Build 0)  -->
<!DOCTYPE svg PUBLIC "-//W3C//DTD SVG 1.1//EN" "http://www.w3.org/Graphics/SVG/1.1/DTD/svg11.dtd">
<svg version="1.1" xmlns="http://www.w3.org/2000/svg" xmlns:xlink="http://www.w3.org/1999/xlink" x="0px" y="0px"
	 viewBox="0 0 32 32" enable-background="new 0 0 32 32" xml:space="preserve">
<symbol viewBox="-7.5 -7.5 15 15">
	<g>
		<g>
			<path opacity="0.9" fill="#3C5666" d="M0-7c-3.859,0-7,3.141-7,7s3.141,7,7,7s7-3.141,7-7S3.859-7,0-7z"/>
			<path fill="#FFFFFF" d="M0,6.5c3.59,0,6.5-2.91,6.5-6.5S3.59-6.5,0-6.5S-6.5-3.59-6.5,0S-3.59,6.5,0,6.5 M0,7.5
				c-4.136,0-7.5-3.364-7.5-7.5S-4.136-7.5,0-7.5S7.5-4.136,7.5,0S4.136,7.5,0,7.5L0,7.5z"/>
		</g>
	</g>
	<path fill="#3C5666" d="M4.207,0.5L1.854,2.854c-0.195,0.195-0.512,0.195-0.707,0s-0.195-0.512,0-0.707L2.293,1H1.5
		C-1.359,1-3-0.641-3-3.5C-3-3.776-2.776-4-2.5-4S-2-3.776-2-3.5C-2-1.903-1.393,0,1.5,0h0.793L1.146-1.146
		c-0.195-0.195-0.195-0.512,0-0.707C1.244-1.951,1.372-2,1.5-2s0.256,0.049,0.354,0.146L4.207,0.5z"/>
	<path fill="#FFFFFF" d="M4.207,1.5L1.854,3.854c-0.195,0.195-0.512,0.195-0.707,0s-0.195-0.512,0-0.707L2.293,2H1.5
		C-1.359,2-3,0.359-3-2.5C-3-2.776-2.776-3-2.5-3S-2-2.776-2-2.5C-2-0.903-1.393,1,1.5,1h0.793L1.146-0.146
		c-0.195-0.195-0.195-0.512,0-0.707C1.244-0.951,1.372-1,1.5-1s0.256,0.049,0.354,0.146L4.207,1.5z"/>
</symbol>
<g>
	<g>
		<g>
			<path fill="#00A389" d="M7,31.5c-1.93,0-3.5-1.57-3.5-3.5V4c0-1.93,1.57-3.5,3.5-3.5h15.207L28.5,6.793V28
				c0,1.93-1.57,3.5-3.5,3.5H7z"/>
			<g>
				<path fill="#FFFFFF" d="M22,1l6,6v21c0,1.657-1.343,3-3,3H7c-1.657,0-3-1.343-3-3V4c0-1.657,1.343-3,3-3H22 M22.414,0H22H7
					C4.794,0,3,1.794,3,4v24c0,2.206,1.794,4,4,4h18c2.206,0,4-1.794,4-4V7V6.586l-0.293-0.293l-6-6L22.414,0L22.414,0z"/>
			</g>
		</g>
	</g>
	<polygon fill-rule="evenodd" clip-rule="evenodd" fill="#00795A" points="22,1 22,7 28,7 	"/>
	<path fill="#00795A" d="M21.707,21.293l-3.121-3.121C19.462,17.198,20,15.913,20,14.5c0-3.038-2.462-5.5-5.5-5.5
		C11.462,9,9,11.462,9,14.5c0,3.038,2.462,5.5,5.5,5.5c0.896,0,1.739-0.219,2.487-0.599l3.306,3.306C20.488,22.902,20.744,23,21,23
		s0.512-0.098,0.707-0.293C22.098,22.316,22.098,21.684,21.707,21.293z M11,14.5c0-1.93,1.57-3.5,3.5-3.5c1.93,0,3.5,1.57,3.5,3.5
		S16.43,18,14.5,18C12.57,18,11,16.43,11,14.5z"/>
	<path fill="#FFFFFF" d="M21.707,20.293l-3.121-3.121C19.462,16.198,20,14.913,20,13.5c0-3.038-2.462-5.5-5.5-5.5
		C11.462,8,9,10.462,9,13.5c0,3.038,2.462,5.5,5.5,5.5c0.896,0,1.739-0.219,2.487-0.599l3.306,3.306C20.488,21.902,20.744,22,21,22
		s0.512-0.098,0.707-0.293C22.098,21.316,22.098,20.684,21.707,20.293z M11,13.5c0-1.93,1.57-3.5,3.5-3.5c1.93,0,3.5,1.57,3.5,3.5
		S16.43,17,14.5,17C12.57,17,11,15.43,11,13.5z"/>
</g>
</svg>
