<svg version="1.1" xmlns="http://www.w3.org/2000/svg" xmlns:xlink="http://www.w3.org/1999/xlink" x="0px" y="0px" viewBox="0 0 32 32" style="enable-background:new 0 0 32 32;" xml:space="preserve"><symbol viewBox="-7.5 -7.5 15 15"><g><g><circle cx="0" cy="0" r="7" opacity="0.9" fill="#3C5666" enable-background="new"/><path d="M0,6.5c3.6,0,6.5-2.9,6.5-6.5S3.6-6.5,0-6.5S-6.5-3.6-6.5,0S-3.6,6.5,0,6.5 M0,7.5c-4.1,0-7.5-3.4-7.5-7.5
				S-4.1-7.5,0-7.5S7.5-4.1,7.5,0S4.1,7.5,0,7.5L0,7.5z" fill="#FFFFFF"/></g></g><path d="M4.2,0.5L1.9,2.9C1.7,3,1.3,3,1.1,2.9S1,2.3,1.1,2.1L2.3,1H1.5C-1.4,1-3-0.6-3-3.5C-3-3.8-2.8-4-2.5-4
		S-2-3.8-2-3.5C-2-1.9-1.4,0,1.5,0h0.8L1.1-1.1C1-1.3,1-1.7,1.1-1.9C1.2-2,1.4-2,1.5-2s0.3,0,0.4,0.1L4.2,0.5z" fill="#3C5666"/><path d="M4.2,1.5L1.9,3.9C1.7,4,1.3,4,1.1,3.9S1,3.3,1.1,3.1L2.3,2H1.5C-1.4,2-3,0.4-3-2.5C-3-2.8-2.8-3-2.5-3
		S-2-2.8-2-2.5C-2-0.9-1.4,1,1.5,1h0.8L1.1-0.1C1-0.3,1-0.7,1.1-0.9C1.2-1,1.4-1,1.5-1s0.3,0,0.4,0.1L4.2,1.5z" fill="#FFFFFF"/></symbol><g><g/><g/><g/><g><g><path d="M26.5,9.5v-7H29c0.8,0,1.5,0.7,1.5,1.5v4c0,0.8-0.7,1.5-1.5,1.5H26.5z" fill="#4D575B"/><g><path d="M29,3c0.5,0,1,0.5,1,1v4c0,0.6-0.5,1-1,1h-2V3H29 M29,2h-2h-1v1v6v1h1h2c1.1,0,2-0.9,2-2V4
					C31,2.9,30.1,2,29,2L29,2z" fill="#FFFFFF"/></g></g><g><path d="M26.5,16.5v-7H29c0.8,0,1.5,0.7,1.5,1.5v4c0,0.8-0.7,1.5-1.5,1.5H26.5z" fill="#798082"/><g><path d="M29,10c0.5,0,1,0.4,1,1v4c0,0.6-0.5,1-1,1h-2v-6H29 M29,9h-2h-1v1v6v1h1h2c1.1,0,2-0.9,2-2v-4
					C31,9.9,30.1,9,29,9L29,9z" fill="#FFFFFF"/></g></g><g><path d="M26.5,23.5v-7H29c0.8,0,1.5,0.7,1.5,1.5v4c0,0.8-0.7,1.5-1.5,1.5H26.5z" fill="#989E9E"/><g><path d="M29,17c0.5,0,1,0.5,1,1v4c0,0.5-0.5,1-1,1h-2v-6H29 M29,16h-2h-1v1v6v1h1h2c1.1,0,2-0.9,2-2v-4
					C31,16.9,30.1,16,29,16L29,16z" fill="#FFFFFF"/></g></g><g><path d="M0.5,31.5v-31h23.7c1.2,0,2.3,1,2.3,2.3v26.5c0,1.2-1,2.3-2.3,2.3L0.5,31.5L0.5,31.5z" fill="#0072AA"/><g><path d="M24.2,1c1,0,1.8,0.8,1.8,1.8v26.5c0,1-0.8,1.8-1.8,1.8H1V1H24.2 M24.2,0H1H0v1v30v1h1h23.2
					c1.5,0,2.8-1.2,2.8-2.8V2.8C27,1.2,25.8,0,24.2,0L24.2,0z" fill="#FFFFFF"/></g></g></g><g/><path d="M19,14H8c-0.6,0-1-0.4-1-1V8c0-0.6,0.4-1,1-1h11c0.6,0,1,0.4,1,1v5C20,13.6,19.6,14,19,14z" fill="#275899"/><path d="M19,15H8c-0.6,0-1-0.4-1-1V9c0-0.6,0.4-1,1-1h11c0.6,0,1,0.4,1,1v5C20,14.6,19.6,15,19,15z" fill="#FFFFFF"/><g/><g/></g><g display="none"><g display="inline"/><use xlink:href="#Shortcut_2_" width="15" height="15" x="-7.5" y="-7.5" transform="matrix(1 0 0 -1 7.5 24.5)" style="display:inline;overflow:visible;"/></g></svg>