<?xml version="1.0" encoding="utf-8"?>
<!-- Generator: Adobe Illustrator 19.2.0, SVG Export Plug-In . SVG Version: 6.00 Build 0)  -->
<!DOCTYPE svg PUBLIC "-//W3C//DTD SVG 1.1//EN" "http://www.w3.org/Graphics/SVG/1.1/DTD/svg11.dtd">
<svg version="1.1" xmlns="http://www.w3.org/2000/svg" xmlns:xlink="http://www.w3.org/1999/xlink" x="0px" y="0px"
	 viewBox="0 0 32 32" enable-background="new 0 0 32 32" xml:space="preserve">
<symbol  id="Shortcut_2_" viewBox="-7.5 -7.5 15 15">
	<g>
		<g>
			<circle opacity="0.9" fill="#3C5666" cx="0" cy="0" r="7"/>
			<path fill="#FFFFFF" d="M0,6.5c3.59,0,6.5-2.91,6.5-6.5S3.59-6.5,0-6.5S-6.5-3.59-6.5,0S-3.59,6.5,0,6.5 M0,7.5
				c-4.136,0-7.5-3.364-7.5-7.5S-4.136-7.5,0-7.5S7.5-4.136,7.5,0S4.136,7.5,0,7.5L0,7.5z"/>
		</g>
	</g>
	<path fill="#3C5666" d="M4.207,0.5L1.854,2.854c-0.195,0.195-0.512,0.195-0.707,0s-0.195-0.512,0-0.707L2.293,1H1.5
		C-1.359,1-3-0.641-3-3.5C-3-3.776-2.776-4-2.5-4S-2-3.776-2-3.5C-2-1.903-1.393,0,1.5,0h0.793L1.146-1.146
		c-0.195-0.195-0.195-0.512,0-0.707C1.244-1.951,1.372-2,1.5-2s0.256,0.049,0.354,0.146L4.207,0.5z"/>
	<path fill="#FFFFFF" d="M4.207,1.5L1.854,3.854c-0.195,0.195-0.512,0.195-0.707,0s-0.195-0.512,0-0.707L2.293,2H1.5
		C-1.359,2-3,0.359-3-2.5C-3-2.776-2.776-3-2.5-3S-2-2.776-2-2.5C-2-0.903-1.393,1,1.5,1h0.793L1.146-0.146
		c-0.195-0.195-0.195-0.512,0-0.707C1.244-0.951,1.372-1,1.5-1s0.256,0.049,0.354,0.146L4.207,1.5z"/>
</symbol>
<g id="Layer_1">
	<g id="Ppt">
	</g>
	<g id="Small_Folder">
	</g>
	<g id="fave_icon_-_selected">
	</g>
	<g id="Shortcut_1_">
	</g>
	<g id="comment_icon_-_selected">
	</g>
	<g id="Comment_icon">
	</g>
	<g>
		<g>
			<path fill="#DF3324" d="M1.5,31.5v-31H28c1.379,0,2.5,1.121,2.5,2.5v26c0,1.379-1.121,2.5-2.5,2.5H1.5z"/>
			<g>
				<path fill="#FFFFFF" d="M28,1c1.1,0,2,0.9,2,2v26c0,1.1-0.9,2-2,2H2V1H28 M28,0H2H1v1v30v1h1h26c1.654,0,3-1.346,3-3V3
					C31,1.346,29.654,0,28,0L28,0z"/>
			</g>
		</g>
	</g>
	<rect x="2" y="1" fill="#8C0A00" width="4" height="30"/>
	<path fill="#FFFFFF" d="M13,17h-2c-0.552,0-1,0.448-1,1v8c0,0.552,0.448,1,1,1h2c0.552,0,1-0.448,1-1v-8C14,17.448,13.552,17,13,17
		z"/>
	<path fill="#FFFFFF" d="M19,12h-2c-0.552,0-1,0.448-1,1v13c0,0.552,0.448,1,1,1h2c0.552,0,1-0.448,1-1V13
		C20,12.448,19.552,12,19,12z"/>
	<path fill="#FFFFFF" d="M25,5h-2c-0.552,0-1,0.448-1,1v20c0,0.552,0.448,1,1,1h2c0.552,0,1-0.448,1-1V6C26,5.448,25.552,5,25,5z"/>
</g>
<g id="shortcut_overlay" display="none">
	<g id="Shortcut" display="inline">
	</g>
	
		<use xlink:href="#Shortcut_2_"  width="15" height="15" x="-7.5" y="-7.5" transform="matrix(1 0 0 -1 7.5 24.5)" display="inline" overflow="visible"/>
</g>
</svg>
