<?xml version="1.0" encoding="utf-8"?>
<!-- Generator: Adobe Illustrator 19.2.0, SVG Export Plug-In . SVG Version: 6.00 Build 0)  -->
<!DOCTYPE svg PUBLIC "-//W3C//DTD SVG 1.1//EN" "http://www.w3.org/Graphics/SVG/1.1/DTD/svg11.dtd">
<svg version="1.1" id="Layer_1" xmlns="http://www.w3.org/2000/svg" xmlns:xlink="http://www.w3.org/1999/xlink" x="0px" y="0px"
	 viewBox="0 0 32 32" enable-background="new 0 0 32 32" xml:space="preserve">
<g id="Ppt">
</g>
<g id="Small_Folder">
</g>
<g id="fave_icon_-_selected">
</g>
<g id="Shortcut_1_">
</g>
<g id="comment_icon_-_selected">
</g>
<g id="Comment_icon">
</g>
<g>
	<g>
		<g>
			<path fill="#9370B1" d="M7,31.5c-1.93,0-3.5-1.57-3.5-3.5V4c0-1.93,1.57-3.5,3.5-3.5h15.207L28.5,6.793V28
				c0,1.93-1.57,3.5-3.5,3.5H7z"/>
			<path fill="#FFFFFF" d="M22,1l6,6v21c0,1.657-1.343,3-3,3H7c-1.657,0-3-1.343-3-3V4c0-1.657,1.343-3,3-3H22 M22.414,0H22H7
				C4.794,0,3,1.794,3,4v24c0,2.206,1.794,4,4,4h18c2.206,0,4-1.794,4-4V7V6.586l-0.293-0.293l-6-6L22.414,0L22.414,0z"/>
		</g>
	</g>
	<polygon fill-rule="evenodd" clip-rule="evenodd" fill="#735796" points="22,1 22,7 28,7 	"/>
</g>
<path fill="#735796" d="M17,7c-3.019,0-3.912,2.574-3.958,2.712c-0.014,0.046-0.585,1.947-1.295,4.288H10c-0.553,0-1,0.447-1,1
	s0.447,1,1,1h1.139c-0.886,2.908-1.805,5.891-2.081,6.664c-0.515,1.441-1.685,1.376-1.918,1.346
	c-0.543-0.078-1.045,0.296-1.129,0.838c-0.084,0.546,0.29,1.057,0.836,1.141c0.134,0.021,0.287,0.032,0.454,0.032
	c1.121,0,2.875-0.542,3.64-2.685c0.309-0.864,1.346-4.239,2.289-7.336H15c0.553,0,1-0.447,1-1s-0.447-1-1-1h-1.163
	c0.599-1.977,1.062-3.518,1.107-3.672C14.994,10.191,15.47,9,17,9c0.553,0,1-0.447,1-1S17.553,7,17,7z"/>
<path fill="#FFFFFF" d="M17,6c-3.019,0-3.912,2.574-3.958,2.712c-0.014,0.046-0.585,1.947-1.295,4.288H10c-0.553,0-1,0.447-1,1
	s0.447,1,1,1h1.139c-0.886,2.908-1.805,5.891-2.081,6.664c-0.515,1.441-1.685,1.376-1.918,1.346
	c-0.543-0.078-1.045,0.296-1.129,0.838c-0.084,0.546,0.29,1.057,0.836,1.141c0.134,0.021,0.287,0.032,0.454,0.032
	c1.121,0,2.875-0.542,3.64-2.685c0.309-0.864,1.346-4.239,2.289-7.336H15c0.553,0,1-0.447,1-1s-0.447-1-1-1h-1.163
	c0.599-1.977,1.062-3.518,1.107-3.672C14.994,9.191,15.47,8,17,8c0.553,0,1-0.447,1-1S17.553,6,17,6z"/>
<path fill="#735796" d="M22.414,18l2.293-2.293c0.391-0.391,0.391-1.023,0-1.414s-1.023-0.391-1.414,0L21,16.586l-2.293-2.293
	c-0.391-0.391-1.023-0.391-1.414,0s-0.391,1.023,0,1.414L19.586,18l-2.293,2.293c-0.391,0.391-0.391,1.023,0,1.414
	C17.488,21.902,17.744,22,18,22s0.512-0.098,0.707-0.293L21,19.414l2.293,2.293C23.488,21.902,23.744,22,24,22
	s0.512-0.098,0.707-0.293c0.391-0.391,0.391-1.023,0-1.414L22.414,18z"/>
<path fill="#FFFFFF" d="M22.414,17l2.293-2.293c0.391-0.391,0.391-1.023,0-1.414s-1.023-0.391-1.414,0L21,15.586l-2.293-2.293
	c-0.391-0.391-1.023-0.391-1.414,0s-0.391,1.023,0,1.414L19.586,17l-2.293,2.293c-0.391,0.391-0.391,1.023,0,1.414
	C17.488,20.902,17.744,21,18,21s0.512-0.098,0.707-0.293L21,18.414l2.293,2.293C23.488,20.902,23.744,21,24,21
	s0.512-0.098,0.707-0.293c0.391-0.391,0.391-1.023,0-1.414L22.414,17z"/>
</svg>
