<?xml version="1.0" encoding="utf-8"?>
<!-- Generator: Adobe Illustrator 18.1.0, SVG Export Plug-In . SVG Version: 6.00 Build 0)  -->
<!DOCTYPE svg PUBLIC "-//W3C//DTD SVG 1.1//EN" "http://www.w3.org/Graphics/SVG/1.1/DTD/svg11.dtd">
<svg version="1.1" id="Layer_1" xmlns="http://www.w3.org/2000/svg" xmlns:xlink="http://www.w3.org/1999/xlink" x="0px" y="0px"
	 viewBox="0 0 32 32" enable-background="new 0 0 32 32" xml:space="preserve">
<g id="Ppt">
</g>
<g id="Small_Folder">
</g>
<g>
	<path fill="#D3DEE5" d="M29,22.999c0,0.32-0.169,0.615-0.445,0.775l-3.498,2.032l-8.613,5.003c-0.275,0.16-0.614,0.16-0.889,0
		L3.445,23.774C3.169,23.614,3,23.319,3,22.999V8.93c0-0.32,0.169-0.615,0.445-0.775L15.555,1.12c0.275-0.16,0.614-0.16,0.889,0
		l12.111,7.035C28.831,8.315,29,8.61,29,8.93V22.999z"/>
	<polygon fill="#8797A1" points="29,22.999 16,31 16,16 29,8 	"/>
	<polygon fill="#EEF2F5" points="3,8 16,16 29,8 16,1 	"/>
	<path fill="#4D575B" d="M29.058,7.29l-12.11-7.034c-0.575-0.334-1.321-0.334-1.895,0L2.941,7.29C2.36,7.628,2,8.257,2,8.93v14.069
		c0,0.673,0.36,1.302,0.942,1.64l12.11,7.034c0.288,0.167,0.615,0.256,0.948,0.256s0.66-0.089,0.947-0.255l12.112-7.035
		C29.64,24.301,30,23.672,30,22.999V8.93C30,8.257,29.64,7.628,29.058,7.29z M16,2.019l11.578,6.724l-11.385,6.613
		c-0.119,0.067-0.266,0.069-0.386-0.001L4.422,8.743L16,2.019z M4,22.94V9.654l11.304,6.565c0.042,0.025,0.089,0.036,0.134,0.056
		v13.308L4,22.94z M16.438,29.656V16.328c0.088-0.029,0.176-0.06,0.257-0.107L28,9.654V22.94L16.438,29.656z"/>
</g>
<g id="fave_icon_-_selected">
</g>
</svg>
