<?xml version="1.0" encoding="utf-8"?>
<!-- Generator: Adobe Illustrator 19.1.0, SVG Export Plug-In . SVG Version: 6.00 Build 0)  -->
<svg version="1.1" xmlns="http://www.w3.org/2000/svg" xmlns:xlink="http://www.w3.org/1999/xlink" x="0px" y="0px"
	 viewBox="0 0 32 32" enable-background="new 0 0 32 32" xml:space="preserve">
<g id="Layer_2">
</g>
<g id="Layer_1">
</g>
<g id="Layer_3">
	<g>
		<g>
			<path fill="#0071C5" d="M31.243,22.435c-0.063-0.903-0.106-1.371-0.416-2.422c-0.223-0.754-0.742-1.309-1.588-1.698
				c-0.722-0.332-1.588-0.497-2.352-0.643c-0.632-0.121-1.229-0.235-1.646-0.422c-0.228-0.102-0.427-0.254-0.591-0.45
				c-0.09-0.108-0.172-0.232-0.244-0.37c0.364-0.299,0.68-0.66,0.945-1.082c0.365-0.58,0.633-1.275,0.803-2.074
				c0.174-0.05,0.344-0.184,0.487-0.386c0.159-0.226,0.279-0.527,0.337-0.849c0.084-0.469,0.032-0.916-0.14-1.213
				c0.016-0.061,0.03-0.124,0.043-0.188c0.08-0.402,0.107-0.868,0.079-1.384c-0.046-0.874-0.229-1.584-0.236-1.613
				c-0.188-0.748-0.749-1.499-1.539-2.061c-0.629-0.447-1.695-0.98-3.194-0.98s-2.565,0.533-3.194,0.98
				c-0.79,0.561-1.351,1.312-1.539,2.06c-0.01,0.038-0.192,0.745-0.24,1.614c-0.028,0.517-0.002,0.983,0.077,1.385
				c0.012,0.062,0.026,0.123,0.041,0.183c-0.174,0.297-0.228,0.746-0.143,1.217c0.058,0.323,0.179,0.626,0.339,0.852
				c0.144,0.203,0.315,0.337,0.49,0.385c0.17,0.799,0.439,1.493,0.804,2.073c0.266,0.423,0.583,0.785,0.949,1.085
				c-0.071,0.137-0.152,0.26-0.242,0.367c-0.164,0.196-0.363,0.347-0.591,0.45c-0.417,0.187-1.014,0.301-1.646,0.422
				c-0.764,0.146-1.63,0.312-2.352,0.643c-0.846,0.389-1.366,0.944-1.588,1.698c-0.307,1.038-0.352,1.507-0.414,2.389
				c-0.033,0.142-0.054,0.287-0.054,0.439v0.936c0,0.014,0.004,0.027,0.004,0.04c0.022,1.059,0.892,1.92,1.956,1.92h14.679
				c1.078,0,1.96-0.882,1.96-1.96v-0.724V22.84C31.287,22.701,31.271,22.566,31.243,22.435z"/>
			<path fill="#FFFFFF" d="M29.326,26.236H14.648c-1.326,0-2.429-1.081-2.457-2.409l-0.004-0.987c0-0.174,0.021-0.354,0.066-0.55
				c0.051-0.809,0.098-1.321,0.422-2.419c0.262-0.888,0.888-1.563,1.859-2.01c0.772-0.355,1.666-0.527,2.453-0.678
				c0.627-0.12,1.188-0.228,1.548-0.39c0.146-0.065,0.274-0.159,0.383-0.279c-0.268-0.267-0.508-0.567-0.717-0.899
				c-0.356-0.567-0.629-1.235-0.812-1.989c-0.171-0.104-0.328-0.255-0.464-0.444c-0.205-0.289-0.354-0.663-0.425-1.056
				c-0.09-0.5-0.05-0.985,0.108-1.366l-0.005-0.021c-0.088-0.448-0.116-0.955-0.086-1.512c0.052-0.953,0.255-1.712,0.257-1.72
				c0.215-0.852,0.847-1.707,1.732-2.335C19.196,4.683,20.359,4.1,21.991,4.1c1.634,0,2.797,0.583,3.484,1.072
				C26.36,5.8,26.993,6.656,27.21,7.518c0.05,0.196,0.207,0.88,0.251,1.708c0.029,0.562-0.001,1.068-0.089,1.508
				c-0.002,0.011-0.004,0.021-0.006,0.031c0.156,0.38,0.195,0.864,0.105,1.361c-0.07,0.394-0.22,0.767-0.422,1.05
				c-0.134,0.19-0.29,0.341-0.461,0.446c-0.184,0.755-0.457,1.424-0.814,1.991c-0.208,0.331-0.446,0.632-0.714,0.897
				c0.109,0.121,0.239,0.217,0.386,0.282c0.359,0.162,0.921,0.27,1.516,0.384c0.816,0.156,1.711,0.327,2.486,0.684
				c0.971,0.446,1.597,1.122,1.858,2.01c0.321,1.089,0.37,1.587,0.433,2.496c0.032,0.157,0.048,0.316,0.048,0.473v0.937
				C31.787,25.133,30.683,26.236,29.326,26.236z M21.991,5.1c-1.368,0-2.335,0.482-2.905,0.887c-0.693,0.493-1.184,1.14-1.344,1.774
				c-0.004,0.016-0.18,0.688-0.226,1.52c-0.025,0.474-0.003,0.897,0.068,1.261l0.085,0.356l-0.103,0.176
				c-0.089,0.151-0.157,0.461-0.082,0.875c0.044,0.248,0.137,0.486,0.255,0.652c0.086,0.121,0.169,0.179,0.217,0.192l0.291,0.081
				l0.063,0.296c0.157,0.74,0.405,1.384,0.737,1.912c0.235,0.375,0.52,0.699,0.842,0.964l0.314,0.258l-0.188,0.36
				c-0.088,0.168-0.189,0.322-0.302,0.456c-0.212,0.254-0.472,0.451-0.77,0.585c-0.467,0.21-1.084,0.328-1.738,0.453
				c-0.763,0.146-1.593,0.306-2.255,0.61c-0.718,0.33-1.137,0.77-1.318,1.385c-0.295,0.999-0.336,1.445-0.395,2.282
				c-0.039,0.197-0.053,0.305-0.053,0.403v0.937c0.021,0.818,0.674,1.46,1.461,1.46h14.678c0.806,0,1.461-0.655,1.461-1.46V22.84
				c0-0.098-0.011-0.198-0.032-0.299l-0.011-0.071c-0.061-0.88-0.101-1.312-0.396-2.315c-0.182-0.615-0.601-1.055-1.317-1.385
				c-0.665-0.306-1.496-0.465-2.229-0.604c-0.681-0.131-1.298-0.249-1.765-0.459c-0.296-0.133-0.555-0.329-0.769-0.584
				c-0.115-0.139-0.217-0.293-0.305-0.461L23.775,16.3l0.314-0.257c0.321-0.263,0.604-0.586,0.838-0.961
				c0.333-0.528,0.581-1.172,0.738-1.912l0.062-0.294l0.289-0.083c0.049-0.014,0.131-0.072,0.217-0.193
				c0.116-0.165,0.208-0.401,0.253-0.649c0.075-0.414,0.008-0.723-0.08-0.874l-0.103-0.177l0.087-0.359
				c0.071-0.359,0.096-0.784,0.071-1.262c-0.041-0.757-0.191-1.393-0.222-1.512c-0.16-0.639-0.65-1.286-1.345-1.779
				C24.327,5.583,23.361,5.1,21.991,5.1z"/>
		</g>
		<g>
			<path fill="#005B93" d="M19.269,22.435c-0.063-0.903-0.106-1.371-0.416-2.422c-0.223-0.754-0.742-1.309-1.588-1.698
				c-0.722-0.332-1.588-0.497-2.352-0.643c-0.632-0.121-1.229-0.235-1.646-0.422c-0.228-0.102-0.427-0.254-0.591-0.45
				c-0.09-0.108-0.172-0.232-0.244-0.37c0.364-0.299,0.68-0.66,0.945-1.082c0.365-0.58,0.633-1.275,0.803-2.074
				c0.174-0.05,0.344-0.184,0.487-0.386c0.159-0.226,0.279-0.527,0.337-0.849c0.084-0.469,0.032-0.916-0.14-1.213
				c0.016-0.061,0.03-0.124,0.043-0.188c0.08-0.402,0.107-0.868,0.079-1.384c-0.046-0.874-0.229-1.584-0.236-1.613
				c-0.188-0.748-0.749-1.499-1.539-2.061c-0.629-0.447-1.695-0.98-3.194-0.98S7.452,5.133,6.822,5.58
				c-0.79,0.561-1.351,1.312-1.539,2.06c-0.01,0.038-0.192,0.745-0.24,1.614C5.015,9.77,5.041,10.236,5.12,10.638
				c0.012,0.062,0.026,0.123,0.041,0.183c-0.174,0.297-0.228,0.746-0.143,1.217c0.058,0.323,0.179,0.626,0.339,0.852
				c0.144,0.203,0.315,0.337,0.49,0.385c0.17,0.799,0.439,1.493,0.804,2.073c0.266,0.423,0.583,0.785,0.949,1.085
				c-0.071,0.137-0.152,0.26-0.242,0.367c-0.164,0.196-0.363,0.347-0.591,0.45c-0.417,0.187-1.014,0.301-1.646,0.422
				c-0.764,0.146-1.63,0.312-2.352,0.643c-0.846,0.389-1.366,0.944-1.588,1.698c-0.307,1.038-0.352,1.507-0.414,2.389
				c-0.033,0.142-0.054,0.287-0.054,0.439v0.936c0,0.014,0.004,0.027,0.004,0.04c0.022,1.059,0.892,1.92,1.956,1.92h14.679
				c1.078,0,1.96-0.882,1.96-1.96v-0.724V22.84C19.312,22.701,19.297,22.566,19.269,22.435z"/>
			<path fill="#FFFFFF" d="M17.352,26.236H2.674c-1.327,0-2.429-1.081-2.456-2.41L0.213,22.84c0-0.177,0.022-0.357,0.068-0.553
				c0.048-0.804,0.095-1.316,0.42-2.416c0.262-0.888,0.888-1.563,1.859-2.01c0.772-0.355,1.666-0.527,2.453-0.678
				c0.629-0.121,1.19-0.229,1.549-0.39c0.145-0.065,0.272-0.159,0.382-0.279c-0.269-0.267-0.508-0.568-0.717-0.9
				c-0.355-0.565-0.629-1.233-0.812-1.988c-0.171-0.104-0.328-0.255-0.464-0.444c-0.205-0.289-0.354-0.663-0.425-1.056
				c-0.09-0.5-0.05-0.985,0.108-1.366L4.63,10.738C4.542,10.29,4.514,9.783,4.544,9.226C4.59,8.394,4.749,7.711,4.798,7.521
				c0.218-0.866,0.85-1.722,1.735-2.35C7.222,4.683,8.385,4.1,10.016,4.1c1.634,0,2.797,0.583,3.484,1.072
				c0.885,0.628,1.518,1.483,1.734,2.346l0,0c0.001,0,0.2,0.761,0.251,1.708c0.029,0.557,0,1.064-0.089,1.508
				c-0.002,0.011-0.004,0.021-0.006,0.031c0.156,0.38,0.195,0.863,0.106,1.36c-0.072,0.396-0.222,0.769-0.423,1.051
				c-0.134,0.19-0.29,0.341-0.461,0.446c-0.184,0.755-0.457,1.423-0.812,1.99c-0.21,0.332-0.449,0.633-0.715,0.898
				c0.108,0.121,0.238,0.217,0.385,0.282c0.359,0.162,0.921,0.27,1.516,0.384c0.816,0.156,1.711,0.327,2.486,0.684
				c0.971,0.446,1.597,1.122,1.858,2.01c0.321,1.087,0.37,1.585,0.434,2.497c0.031,0.158,0.047,0.317,0.047,0.472v0.937
				C19.812,25.133,18.709,26.236,17.352,26.236z M10.016,5.1c-1.368,0-2.335,0.482-2.905,0.887C6.418,6.48,5.928,7.127,5.767,7.761
				c-0.031,0.124-0.184,0.758-0.226,1.52c-0.025,0.474-0.003,0.897,0.068,1.261l0.085,0.356l-0.103,0.176
				c-0.089,0.151-0.157,0.461-0.082,0.875c0.044,0.248,0.137,0.486,0.255,0.652c0.086,0.121,0.169,0.179,0.217,0.192l0.291,0.081
				l0.063,0.296c0.157,0.741,0.405,1.384,0.737,1.911c0.235,0.376,0.519,0.7,0.842,0.965l0.314,0.258l-0.188,0.36
				c-0.087,0.167-0.188,0.319-0.299,0.454c-0.216,0.257-0.475,0.453-0.771,0.587c-0.466,0.209-1.083,0.327-1.735,0.453
				c-0.767,0.146-1.597,0.306-2.259,0.61c-0.718,0.33-1.137,0.77-1.318,1.385c-0.296,1.001-0.336,1.446-0.394,2.281
				c-0.04,0.199-0.054,0.305-0.054,0.404v0.937c0.021,0.818,0.674,1.46,1.461,1.46h14.679c0.805,0,1.46-0.655,1.46-1.46V22.84
				c0-0.098-0.011-0.199-0.032-0.302l-0.01-0.067c-0.062-0.882-0.102-1.314-0.397-2.316c-0.182-0.615-0.601-1.055-1.317-1.385
				c-0.665-0.306-1.496-0.465-2.229-0.604c-0.681-0.131-1.298-0.249-1.765-0.459c-0.296-0.133-0.555-0.329-0.769-0.584
				c-0.117-0.141-0.219-0.296-0.305-0.464l-0.185-0.359l0.312-0.256c0.321-0.263,0.604-0.587,0.84-0.962
				c0.331-0.527,0.579-1.171,0.736-1.911l0.062-0.294l0.289-0.083c0.049-0.014,0.131-0.072,0.217-0.193
				c0.116-0.164,0.209-0.401,0.254-0.651c0.074-0.411,0.007-0.721-0.081-0.872l-0.103-0.177l0.087-0.359
				c0.072-0.363,0.096-0.787,0.071-1.261c-0.045-0.827-0.219-1.502-0.22-1.509c-0.162-0.643-0.652-1.29-1.347-1.783
				C12.352,5.583,11.387,5.1,10.016,5.1z"/>
		</g>
	</g>
</g>
<g id="Layer_4">
</g>
<g id="Layer_5">
</g>
<g id="Layer_7">
</g>
</svg>
