<svg data-name="Layer 2" xmlns="http://www.w3.org/2000/svg" viewBox="0 0 32 32"><title>mime</title><path d="M7,31.5A3.5,3.5,0,0,1,3.5,28V4A3.5,3.5,0,0,1,7,.5H22.207L28.5,6.793V28A3.5,3.5,0,0,1,25,31.5H7Z" fill="#9370b1"/><path d="M25,32H7a4,4,0,0,1-4-4V4A4,4,0,0,1,7,0H22.414L29,6.586V28A4,4,0,0,1,25,32ZM7,1A3,3,0,0,0,4,4V28a3,3,0,0,0,3,3H25a3,3,0,0,0,3-3V7L22,1H7Z" fill="#fff"/><path d="M22,1l6,6V28a3,3,0,0,1-3,3H7a3,3,0,0,1-3-3V4A3,3,0,0,1,7,1H22m0.414-1H7A4,4,0,0,0,3,4V28a4,4,0,0,0,4,4H25a4,4,0,0,0,4-4V6.586l-0.293-.293-6-6L22.414,0h0Z" fill="#fff"/><polygon points="22 1 22 7 28 7 22 1" fill="#735796"/><path d="M20.885,9.014h-10a2.868,2.868,0,0,0-2.917,2.917v8.083a3.009,3.009,0,0,0,3,3h2.017L13,28.069a0.438,0.438,0,0,0,.444.436,0.418,0.418,0,0,0,.323-0.152l4.641-5.339h2.672a2.913,2.913,0,0,0,2.885-3V11.931A3.011,3.011,0,0,0,20.885,9.014Z" fill="#735796"/><path d="M20.885,8.014h-10a2.868,2.868,0,0,0-2.917,2.917v8.083a3.009,3.009,0,0,0,3,3h2.017L13,27.069a0.438,0.438,0,0,0,.444.436,0.418,0.418,0,0,0,.323-0.152l4.641-5.339h2.672a2.913,2.913,0,0,0,2.885-3V10.931A3.011,3.011,0,0,0,20.885,8.014Z" fill="#fff"/><path d="M12.156,12.956a2.781,2.781,0,0,1,.469-1.48,3.61,3.61,0,0,1,1.369-1.241,4.3,4.3,0,0,1,2.1-.492,4.484,4.484,0,0,1,1.968.41,3.2,3.2,0,0,1,1.319,1.119,2.747,2.747,0,0,1,.466,1.537,2.388,2.388,0,0,1-.265,1.146,3.494,3.494,0,0,1-.631.849q-0.364.359-1.311,1.2a5.268,5.268,0,0,0-.418.419,1.689,1.689,0,0,0-.235.331,1.6,1.6,0,0,0-.119.3q-0.042.151-.127,0.527a0.855,0.855,0,0,1-.915.8,0.936,0.936,0,0,1-.673-0.261,1.026,1.026,0,0,1-.273-0.776,2.848,2.848,0,0,1,.2-1.118,2.814,2.814,0,0,1,.531-0.831,12,12,0,0,1,.892-0.85q0.492-.43.712-0.65a2.232,2.232,0,0,0,.369-0.488,1.184,1.184,0,0,0,.15-0.585,1.359,1.359,0,0,0-.458-1.038,1.67,1.67,0,0,0-1.18-.423,1.635,1.635,0,0,0-1.246.427,3.4,3.4,0,0,0-.676,1.258,1.019,1.019,0,0,1-.992.868,0.969,0.969,0,0,1-.726-0.3A0.927,0.927,0,0,1,12.156,12.956Zm3.751,8.427a1.207,1.207,0,0,1-.818-0.3,1.066,1.066,0,0,1-.35-0.85,1.093,1.093,0,0,1,.339-0.814,1.141,1.141,0,0,1,.83-0.331,1.131,1.131,0,0,1,1.146,1.145,1.072,1.072,0,0,1-.347.846A1.165,1.165,0,0,1,15.907,21.384Z" fill="#735796"/></svg>