<svg version="1.1" xmlns="http://www.w3.org/2000/svg" xmlns:xlink="http://www.w3.org/1999/xlink" x="0px" y="0px" viewBox="0 0 32 32" style="enable-background:new 0 0 32 32;" xml:space="preserve"><path d="M9,29.333h19.333c0.183,0,0.333-0.15,0.333-0.333V9.333H23c-0.551,0-1-0.449-1-1V2.667H9
	c-0.183,0-0.333,0.15-0.333,0.333v26C8.667,29.183,8.817,29.333,9,29.333z" fill="#FFFFFF"/><path d="M28.195,8.667l-5.529-5.529v5.195c0,0.183,0.15,0.333,0.333,0.333H28.195z" fill="#FFFFFF"/><path d="M29.04,8.569l-6.276-6.277C22.576,2.106,22.322,2.001,22.057,2H9C8.449,2,8,2.449,8,3v26c0,0.551,0.449,1,1,1
	h19.333c0.551,0,1-0.449,1-1V9.276C29.333,9.009,29.229,8.758,29.04,8.569z M22.667,3.138l5.529,5.529H23
	c-0.088,0-0.173-0.035-0.236-0.098c-0.062-0.062-0.098-0.147-0.098-0.236V3.138z M28.333,29.333H9c-0.088,0-0.173-0.035-0.236-0.098
	C8.702,29.173,8.667,29.088,8.667,29V3c0-0.183,0.15-0.333,0.333-0.333h13v5.667c0,0.551,0.449,1,1,1h5.667V29
	C28.667,29.183,28.517,29.333,28.333,29.333z" opacity="0.64" fill="#605E5C" enable-background="new"/><path d="M4,24.667h12c0.354,0,0.693-0.141,0.943-0.391c0.25-0.25,0.39-0.589,0.39-0.943v-12
	c0-0.354-0.14-0.693-0.39-0.943C16.693,10.141,16.354,10,16,10H4c-0.354,0-0.693,0.141-0.943,0.391
	c-0.25,0.25-0.391,0.589-0.391,0.943v12c0,0.354,0.14,0.693,0.391,0.943C3.307,24.526,3.646,24.667,4,24.667z" fill="#185ABD"/><path d="M9.599,18.715c0.237,0.677,0.377,1.104,0.42,1.281h-0.011c0.043-0.177,0.193-0.635,0.453-1.371l1.864-5.289
	l1.669-0.001l-3.107,7.993l-1.808,0.001L6,13.335l1.72-0.001L9.599,18.715L9.599,18.715z" fill="#FFFFFF"/><path d="M23,17.333c-0.088,0-0.173-0.035-0.236-0.098S22.667,17.088,22.667,17v-2H22v2c0,0.088-0.035,0.173-0.098,0.236
	s-0.147,0.098-0.236,0.098h-1.333V18h3.333c0.088,0,0.173,0.035,0.236,0.098S24,18.245,24,18.333v2h0.667v-2
	c0-0.265-0.105-0.519-0.293-0.707c-0.188-0.188-0.442-0.293-0.707-0.293H23z" fill="#185ABD"/><path d="M18.667,15.333h2V20h-2V15.333z" fill="#41A5EE"/><path d="M19.667,13l2.667-2.667L25,13l-2.667,2.667L19.667,13z" fill="#103F91"/><path d="M24.333,24.667c1.289,0,2.333-1.045,2.333-2.333c0-1.289-1.045-2.333-2.333-2.333
	C23.045,20,22,21.045,22,22.333C22,23.622,23.045,24.667,24.333,24.667z" fill="#2B7CD3"/></svg>