<?xml version="1.0" encoding="utf-8"?>
<!-- Generator: Adobe Illustrator 19.1.0, SVG Export Plug-In . SVG Version: 6.00 Build 0)  -->
<svg version="1.1" id="Layer_1" xmlns="http://www.w3.org/2000/svg" xmlns:xlink="http://www.w3.org/1999/xlink" x="0px" y="0px"
	 viewBox="0 0 24 24" enable-background="new 0 0 24 24" xml:space="preserve">
<g>
	<path fill="#333333" d="M6.5,12c0,1.381-1.119,2.5-2.5,2.5S1.5,13.381,1.5,12S2.619,9.5,4,9.5S6.5,10.619,6.5,12"/>
	<path fill="#333333" d="M14.5,12c0,1.381-1.119,2.5-2.5,2.5S9.5,13.381,9.5,12s1.119-2.5,2.5-2.5S14.5,10.619,14.5,12"/>
	<path fill="#333333" d="M22.5,12c0,1.381-1.119,2.5-2.5,2.5s-2.5-1.119-2.5-2.5s1.119-2.5,2.5-2.5S22.5,10.619,22.5,12"/>
</g>
</svg>
