<svg xmlns="http://www.w3.org/2000/svg" viewBox="0 0 24 24"><title>owner_change24_mo</title><path d="M14.006,13.962V13a5.461,5.461,0,0,0-.322-1.673,1.672,1.672,0,0,0-.965-1.03,15,15,0,0,0-1.609-.45,5.384,5.384,0,0,1-1.287-.322,3.557,3.557,0,0,1-.579-.451c-.065-.128-.193-.193-.193-.321l-.258-.258L9.051,8.3a3.382,3.382,0,0,0,.643-.708,3.086,3.086,0,0,0,.515-1.416l.064-.193.194-.064c.064,0,.064-.065.128-.129.065-.129.129-.322.193-.45a.936.936,0,0,0-.064-.644l-.064-.129.064-.257a3.944,3.944,0,0,0,.064-.9A9.207,9.207,0,0,0,10.6,2.314,2.3,2.3,0,0,0,9.63,1.027,3.316,3.316,0,0,0,7.506.383a3.757,3.757,0,0,0-2.124.644,2.217,2.217,0,0,0-.965,1.287c0,.064-.129.579-.193,1.094a4,4,0,0,0,.064.9l.065.257-.065.065a.934.934,0,0,0-.064.643,1.541,1.541,0,0,0,.193.451l.129.128.193.065.064.193a7.292,7.292,0,0,0,.515,1.416,3.412,3.412,0,0,0,.644.708l.257.193-.129.257a1.507,1.507,0,0,1-.772.772,5.291,5.291,0,0,1-1.287.322,7.127,7.127,0,0,0-1.673.451,1.674,1.674,0,0,0-.966,1.029,9.425,9.425,0,0,0-.321,1.674c0,.128-.065.193-.065.321v.708A1.127,1.127,0,0,0,2.1,15.056H12.912a1.083,1.083,0,0,0,1.094-1.074Z" fill="#627783"/><path d="M22.71,13.71a1.014,1.014,0,0,1-1.42,0L20,12.41V13a8.011,8.011,0,0,1-8,8h-.59l1.3,1.29a1.008,1.008,0,0,1,0,1.42,1.014,1.014,0,0,1-1.42,0L7.59,20l3.7-3.71a1,1,0,0,1,1.42,1.42L11.41,19H12a6,6,0,0,0,6-6v-.59l-1.29,1.3a1,1,0,0,1-1.42-1.42L19,8.59l3.71,3.7A1.008,1.008,0,0,1,22.71,13.71Z" fill="#627783"/></svg>