<?xml version="1.0" encoding="UTF-8" standalone="no"?><!DOCTYPE svg PUBLIC "-//W3C//DTD SVG 1.1//EN" "http://www.w3.org/Graphics/SVG/1.1/DTD/svg11.dtd"><svg width="100%" height="100%" viewBox="0 0 32 32" version="1.1" xmlns="http://www.w3.org/2000/svg" xmlns:xlink="http://www.w3.org/1999/xlink" xml:space="preserve" xmlns:serif="http://www.serif.com/" style="fill-rule:evenodd;clip-rule:evenodd;stroke-linejoin:round;stroke-miterlimit:2;"><path d="M27,6l0,20c-0.003,1.096 -0.904,1.997 -2,2l-4,0l0,0.25c-0.007,1.506 -1.244,2.743 -2.75,2.75c-0.147,0.004 -0.295,-0.006 -0.44,-0.03l-10.5,-1.75c-1.329,-0.212 -2.316,-1.374 -2.31,-2.72l0,-21c-0.006,-1.346 0.981,-2.508 2.31,-2.72l10.46,-1.74c0.158,-0.03 0.319,-0.044 0.48,-0.04c0.001,0 0.003,0 0.004,0c1.506,0 2.746,1.24 2.746,2.746c0,0.001 0,0.003 0,0.004l0,0.25l4,0c1.096,0.003 1.997,0.904 2,2Z" style="fill:#fff;fill-rule:nonzero;"/><path d="M20.89,3l-0.06,0c0.058,0.118 0.102,0.242 0.13,0.37c-0.008,-0.126 -0.031,-0.25 -0.07,-0.37Z" style="fill:#fff;fill-rule:nonzero;"/><path d="M26,6l0,20c0,0.549 -0.451,1 -1,1l-4,0l0,-22l4,0c0.549,0 1,0.451 1,1Z" style="fill:#3f4950;fill-rule:nonzero;"/><path d="M19.388,2.42c-0.318,-0.27 -0.721,-0.419 -1.138,-0.42c-0.094,-0.003 -0.187,0.003 -0.28,0.018l-10.5,1.75c-0.846,0.137 -1.473,0.875 -1.47,1.732l0,21c-0.003,0.857 0.624,1.595 1.47,1.732l10.5,1.75c0.093,0.015 0.186,0.021 0.28,0.018c0.96,0 1.75,-0.79 1.75,-1.75l0,-24.5c-0.002,-0.511 -0.226,-0.996 -0.612,-1.33Zm-2.888,14.58c-0.823,0 -1.5,-0.677 -1.5,-1.5c0,-0.823 0.677,-1.5 1.5,-1.5c0.823,0 1.5,0.677 1.5,1.5c0,0.005 0,0.01 0,0.015c0,0.815 -0.67,1.485 -1.485,1.485c-0.005,0 -0.01,0 -0.015,0Z" style="fill:#00b8ba;fill-rule:nonzero;"/></svg>