<?xml version="1.0" encoding="UTF-8" standalone="no"?><!DOCTYPE svg PUBLIC "-//W3C//DTD SVG 1.1//EN" "http://www.w3.org/Graphics/SVG/1.1/DTD/svg11.dtd"><svg width="100%" height="100%" viewBox="0 0 18 18" version="1.1" xmlns="http://www.w3.org/2000/svg" xmlns:xlink="http://www.w3.org/1999/xlink" xml:space="preserve" xmlns:serif="http://www.serif.com/" style="fill-rule:evenodd;clip-rule:evenodd;stroke-linejoin:round;stroke-miterlimit:2;"><path d="M12,17.5c0,0 0,0 0,0c-0.823,0 -1.5,-0.677 -1.5,-1.5c0,-0.224 0.05,-0.444 0.146,-0.646c-0.572,0.272 -1.258,0.154 -1.706,-0.294c-0.582,-0.582 -0.582,-1.539 0,-2.121l0.939,-0.939l-3.229,-3.229c-1.482,1.092 -3.561,0.933 -4.86,-0.371l-0.19,-0.19c-0.703,-0.702 -1.099,-1.656 -1.099,-2.65c0,-0.994 0.396,-1.948 1.099,-2.65l1.313,-1.31c1.471,-1.415 3.829,-1.415 5.3,0l0.187,0.19c1.303,1.3 1.461,3.379 0.369,4.86l7.289,7.289c0.276,0.28 0.431,0.659 0.431,1.052c0,0.823 -0.677,1.5 -1.5,1.5c-0.364,0 -0.716,-0.132 -0.989,-0.372l-0.941,0.941c-0.28,0.282 -0.662,0.44 -1.059,0.44Zm-6.438,-14c-0.198,0 -0.388,0.079 -0.527,0.219l-1.316,1.315c-0.14,0.14 -0.219,0.33 -0.219,0.528c0,0.197 0.079,0.387 0.219,0.527l0.192,0.192c0.296,0.275 0.759,0.275 1.055,0l1.315,-1.315c0.14,-0.14 0.219,-0.33 0.219,-0.527c0,-0.198 -0.079,-0.388 -0.219,-0.528l-0.192,-0.192c-0.139,-0.14 -0.329,-0.219 -0.527,-0.219Z" style="fill:#627783;fill-rule:nonzero;"/><path d="M5.562,1.031c0.856,-0.009 1.682,0.322 2.295,0.92l0.192,0.192c1.243,1.238 1.263,3.274 0.045,4.536l7.614,7.614c0.195,0.188 0.305,0.448 0.305,0.719c0,0.549 -0.451,1 -1,1c-0.271,0 -0.531,-0.11 -0.719,-0.305l-0.294,-0.293l-1.293,1.293c-0.186,0.18 -0.436,0.281 -0.695,0.281c-0.548,0 -1,-0.452 -1,-1c0,-0.259 0.101,-0.509 0.281,-0.695l1.293,-1.293l-0.586,-0.586l-1.293,1.293c-0.186,0.18 -0.436,0.281 -0.695,0.281c-0.548,0 -1,-0.452 -1,-1c0,-0.259 0.101,-0.509 0.281,-0.695l1.293,-1.293l-3.907,-3.907c-1.262,1.218 -3.298,1.198 -4.536,-0.045l-0.192,-0.192c-0.609,-0.608 -0.951,-1.434 -0.951,-2.295c0,-0.861 0.342,-1.687 0.951,-2.295l1.316,-1.315c0.613,-0.598 1.439,-0.929 2.295,-0.92m-1.124,5.957c0.329,0.003 0.646,-0.124 0.881,-0.353l1.316,-1.316c0.234,-0.233 0.365,-0.551 0.365,-0.881c0,-0.33 -0.131,-0.648 -0.365,-0.881l-0.192,-0.192c-0.233,-0.234 -0.551,-0.365 -0.881,-0.365c-0.33,0 -0.648,0.131 -0.881,0.365l-1.316,1.316c-0.234,0.233 -0.365,0.551 -0.365,0.881c0,0.33 0.131,0.648 0.365,0.881l0.192,0.192c0.235,0.229 0.552,0.356 0.881,0.353m1.124,-6.957c-1.12,-0.006 -2.199,0.43 -3,1.213l-1.318,1.315c-1.645,1.646 -1.645,4.354 0,6l0.192,0.192c1.361,1.364 3.489,1.635 5.148,0.657l2.588,2.592l-0.586,0.586c-0.375,0.375 -0.586,0.884 -0.586,1.414c0,1.097 0.903,2 2,2c0.001,1.097 0.903,1.999 2,1.999c0.53,0 1.038,-0.211 1.413,-0.585l0.647,-0.647c0.289,0.154 0.613,0.235 0.941,0.235c1.097,0 2,-0.903 2,-2c0,-0.531 -0.212,-1.041 -0.588,-1.416l-7,-7c0.979,-1.66 0.707,-3.789 -0.658,-5.149l-0.192,-0.192c-0.801,-0.783 -1.88,-1.219 -3,-1.213l-0.001,-0.001Zm-1.124,5.957c-0.064,0.003 -0.126,-0.019 -0.174,-0.06l-0.192,-0.192c-0.046,-0.046 -0.072,-0.108 -0.072,-0.173c0,-0.066 0.026,-0.128 0.072,-0.174l1.316,-1.317c0.046,-0.046 0.108,-0.072 0.174,-0.072c0.065,0 0.127,0.026 0.173,0.072l0.192,0.192c0.046,0.046 0.072,0.108 0.072,0.174c0,0.065 -0.026,0.127 -0.072,0.173l-1.315,1.317c-0.048,0.041 -0.11,0.063 -0.174,0.06Z" style="fill:#fff;fill-rule:nonzero;"/></svg>