<?xml version="1.0" encoding="UTF-8" standalone="no"?><!DOCTYPE svg PUBLIC "-//W3C//DTD SVG 1.1//EN" "http://www.w3.org/Graphics/SVG/1.1/DTD/svg11.dtd"><svg width="100%" height="100%" viewBox="0 0 18 18" version="1.1" xmlns="http://www.w3.org/2000/svg" xmlns:xlink="http://www.w3.org/1999/xlink" xml:space="preserve" xmlns:serif="http://www.serif.com/" style="fill-rule:evenodd;clip-rule:evenodd;stroke-linejoin:round;stroke-miterlimit:2;"><path d="M10,17.5c-0.086,0.001 -0.172,-0.006 -0.257,-0.02l-5.985,-1c-0.722,-0.118 -1.258,-0.748 -1.258,-1.48l0,-12c-0.001,-0.733 0.535,-1.365 1.259,-1.483l6,-1c0.08,-0.012 0.16,-0.018 0.241,-0.017c0.823,0 1.5,0.677 1.5,1.5l0,14c0,0.823 -0.677,1.5 -1.5,1.5Z" style="fill:#333;fill-rule:nonzero;"/><path d="M10,1c0.549,0 1,0.451 1,1l0,14c0,0.549 -0.451,1 -1,1c-0.054,0.002 -0.107,-0.002 -0.16,-0.01l-6,-1c-0.483,-0.078 -0.841,-0.5 -0.84,-0.99l0,-12c-0.001,-0.49 0.357,-0.912 0.84,-0.99l6,-1c0.053,-0.008 0.106,-0.012 0.16,-0.01m-0.5,8c0.274,0 0.5,-0.226 0.5,-0.5c0,-0.274 -0.226,-0.5 -0.5,-0.5c-0.274,0 -0.5,0.226 -0.5,0.5c0,0.274 0.226,0.5 0.5,0.5m0.5,-9c-0.119,-0.002 -0.239,0.007 -0.356,0.029l-5.968,0.994c-0.965,0.156 -1.68,1 -1.676,1.977l0,12c-0.001,0.978 0.714,1.82 1.679,1.977l6,1c0.106,0.018 0.214,0.026 0.321,0.023c1.097,0 2,-0.903 2,-2l0,-14c0,-1.097 -0.903,-2 -2,-2Z" style="fill:#fff;fill-rule:nonzero;"/><path d="M11.5,16.5l0,-2l2,0l0,-11l-2,0l0,-2l2.5,0c0.823,0 1.5,0.677 1.5,1.5l0,12c0,0.823 -0.677,1.5 -1.5,1.5l-2.5,0Z" style="fill:#333;fill-rule:nonzero;"/><path d="M14,2c0.549,0 1,0.451 1,1l0,12c0,0.549 -0.451,1 -1,1l-2,0l0,-1l2,0l0,-12l-2,0l0,-1l2,0m0,-1l-3,0l0,3l2,0l0,10l-2,0l0,3l3,0c1.097,0 2,-0.903 2,-2l0,-12c0,-1.097 -0.903,-2 -2,-2Z" style="fill:#fff;fill-rule:nonzero;"/></svg>