<svg data-name="Layer 1" xmlns="http://www.w3.org/2000/svg" viewBox="0 0 32 32"><title>mime_perspective_asset_folder_nonselectable32</title><path d="M2.184,26.788V5.8a2.009,2.009,0,0,1,2-2.013h7.9A2.133,2.133,0,0,1,13.4,4.26L17.068,7.5a1.013,1.013,0,0,0,.616.289h10.5a2,2,0,0,1,2,2v17Z" fill="#848484"/><path d="M12.081,4.288a1.635,1.635,0,0,1,1.009.364l3.648,3.222a1.528,1.528,0,0,0,.946.414h10.5a1.5,1.5,0,0,1,1.5,1.5v16.5h-27V5.8a1.511,1.511,0,0,1,1.5-1.513h7.9m0-1h-7.9A2.509,2.509,0,0,0,1.684,5.8V27.288h29V9.788a2.5,2.5,0,0,0-2.5-2.5h-10.5c-.027,0-.1-.024-.3-.183L13.753,3.9l-.02-.018-.022-.016a2.643,2.643,0,0,0-1.63-.58Z" fill="#fff"/><path d="M3.684,25.288h25v-14a1,1,0,0,0-1-1h-23a1,1,0,0,0-1,1Z" fill="#9c9c9c"/><polygon points="3.684 25.288 28.684 25.288 28.684 12.288 3.684 25.288" fill="#969696"/><ellipse cx="16.184" cy="17.951" rx="6.825" ry="6.701" fill="#848484"/><polygon points="19.837 16.096 19.837 13.938 17.639 13.938 17.639 14.576 13.549 14.576 13.549 17.619 11.918 17.619 11.918 18.539 13.549 18.539 13.549 21.542 17.153 21.542 17.153 22.181 19.351 22.181 19.351 20.023 17.153 20.023 17.153 20.661 14.446 20.661 14.446 18.539 14.446 18.5 15.381 18.5 15.381 19.138 17.579 19.138 17.579 16.98 15.381 16.98 15.381 17.619 14.446 17.619 14.446 15.457 17.639 15.457 17.639 16.096 19.837 16.096" fill="#fff"/><path d="M30.047,17.969A8.664,8.664,0,0,0,15.87,27H30.047Z" fill="#fff"/><path d="M24.1,16.77a7.5,7.5,0,1,0,7.5,7.5A7.5,7.5,0,0,0,24.1,16.77Zm0,13a5.5,5.5,0,0,1-4.53-8.62l7.65,7.65A5.493,5.493,0,0,1,24.1,29.77Zm4.53-2.38-7.65-7.65a5.5,5.5,0,0,1,7.65,7.65Z" fill="#cd3632"/></svg>