<?xml version="1.0" encoding="utf-8"?>
<!-- Generator: Adobe Illustrator 19.2.0, SVG Export Plug-In . SVG Version: 6.00 Build 0)  -->
<!DOCTYPE svg PUBLIC "-//W3C//DTD SVG 1.1//EN" "http://www.w3.org/Graphics/SVG/1.1/DTD/svg11.dtd">
<svg version="1.1" id="Layer_1" xmlns="http://www.w3.org/2000/svg" xmlns:xlink="http://www.w3.org/1999/xlink" x="0px" y="0px"
	 viewBox="0 0 32 32" enable-background="new 0 0 32 32" xml:space="preserve">
<path fill="#FFFFFF" d="M27.704,7.139c-0.003-0.048-0.009-0.095-0.018-0.142c0.413-0.754,0.301-1.721-0.337-2.358
	c-0.374-0.374-0.873-0.58-1.404-0.58c-0.34,0-0.666,0.084-0.955,0.243c-0.047-0.008-0.094-0.014-0.142-0.017
	C21.729,1.441,19.118,0,17.082,0h0L16.96,0.002l-0.968,0.027l-0.964-0.027L14.906,0c-2.036,0-4.647,1.441-7.767,4.284
	C7.092,4.287,7.045,4.293,6.998,4.301C6.709,4.142,6.383,4.058,6.043,4.058c-0.53,0-1.028,0.206-1.402,0.58
	C4,5.278,3.888,6.245,4.302,6.998C4.294,7.045,4.288,7.092,4.284,7.139c-2.9,3.181-4.34,5.834-4.283,7.889L0.029,16h0.972h1.077
	h0.897l0.098-0.891c0.128-1.174,1.644-2.617,3.562-4.445c0.078-0.075,0.157-0.15,0.237-0.226c0.255,0.233,0.583,0.361,0.931,0.361
	c0.06,0,0.119-0.004,0.177-0.011l5.207,5.207L1.928,27.253c-0.774,0.774-0.774,2.033,0,2.807c0.374,0.374,0.873,0.58,1.404,0.58
	c0.531,0,1.03-0.206,1.404-0.58l11.259-11.259l11.285,11.285c0.374,0.374,0.872,0.579,1.402,0.579s1.028-0.206,1.402-0.579
	c0.377-0.377,0.583-0.875,0.583-1.406s-0.206-1.028-0.58-1.402L18.802,15.994l5.207-5.207c0.058,0.007,0.117,0.011,0.177,0.011
	c0.348,0,0.676-0.128,0.931-0.361c0.08,0.076,0.159,0.151,0.237,0.226c1.919,1.828,3.434,3.271,3.562,4.445L29.014,16h0.896h1.077
	h0.972l0.027-0.972C32.044,12.973,30.604,10.321,27.704,7.139z M15.994,2.975l0.885,0.097c1.174,0.129,2.618,1.644,4.446,3.563
	c0.074,0.078,0.149,0.157,0.225,0.237c-0.233,0.255-0.361,0.583-0.361,0.931c0,0.06,0.004,0.119,0.011,0.177l-5.207,5.207
	l-5.208-5.208c0.05-0.39-0.066-0.798-0.349-1.107c0.076-0.08,0.151-0.158,0.225-0.236c1.828-1.919,3.272-3.435,4.446-3.563
	L15.994,2.975z"/>
<g>
	<path fill="#C1792B" d="M29.379,29.376l-0.004,0.004c-0.382,0.382-1.007,0.382-1.39,0L5.344,6.738c-0.382-0.382-0.382-1.007,0-1.39
		l0.004-0.004c0.382-0.382,1.007-0.382,1.39,0l22.642,22.642C29.762,28.368,29.762,28.994,29.379,29.376z"/>
	<path fill="#565656" d="M7.46,5.349C7.313,5.256,7.123,5.251,6.995,5.38L5.38,6.995C5.251,7.123,5.256,7.313,5.349,7.46
		C2.729,10.265,0.945,12.976,1.001,15h1.077c0.192-1.752,2.158-3.406,4.808-5.961l0.648,0.648c0.149,0.149,0.39,0.149,0.538,0
		l1.615-1.615c0.149-0.149,0.149-0.39,0-0.538L9.039,6.886C11.594,4.236,13.248,2.27,15,2.078V1.001
		C12.976,0.945,10.265,2.729,7.46,5.349z"/>
</g>
<g id="Ppt">
</g>
<g id="Small_Folder">
</g>
<g id="fave_icon_-_selected">
</g>
<g id="Shortcut_1_">
</g>
<g id="comment_icon_-_selected">
</g>
<g id="Comment_icon">
</g>
<rect x="15.86" y="16.627" transform="matrix(0.7071 -0.7071 0.7071 0.7071 -6.9776 16.8455)" fill="#75491A" width="1.97" height="0.437"/>
<rect x="14.172" y="14.935" transform="matrix(0.7071 -0.7071 0.7071 0.7071 -6.2772 15.1557)" fill="#75491A" width="1.969" height="0.44"/>
<g>
	<path fill="#EF993A" d="M2.635,29.353L2.635,29.353c-0.383-0.383-0.383-1.01,0-1.393L25.249,5.346c0.383-0.383,1.01-0.383,1.393,0
		l0,0c0.383,0.383,0.383,1.01,0,1.393L4.028,29.353C3.645,29.736,3.018,29.736,2.635,29.353z"/>
	<path fill="#565656" d="M26.639,7.46c0.094-0.147,0.098-0.337-0.03-0.465L24.993,5.38c-0.128-0.128-0.318-0.124-0.465-0.03
		c-2.805-2.621-5.516-4.405-7.54-4.348v1.077c1.752,0.192,3.406,2.158,5.961,4.808l-0.647,0.648c-0.149,0.149-0.149,0.39,0,0.538
		l1.615,1.615c0.149,0.149,0.39,0.149,0.538,0l0.648-0.648c2.65,2.555,4.616,4.209,4.808,5.961h1.077
		C31.043,12.976,29.26,10.265,26.639,7.46z"/>
</g>
</svg>
