<?xml version="1.0" encoding="utf-8"?>
<!-- Generator: Adobe Illustrator 19.1.0, SVG Export Plug-In . SVG Version: 6.00 Build 0)  -->
<!DOCTYPE svg PUBLIC "-//W3C//DTD SVG 1.1//EN" "http://www.w3.org/Graphics/SVG/1.1/DTD/svg11.dtd">
<svg version="1.1" xmlns="http://www.w3.org/2000/svg" xmlns:xlink="http://www.w3.org/1999/xlink" x="0px" y="0px"
	 viewBox="0 0 32 32" enable-background="new 0 0 32 32" xml:space="preserve">
<g id="Layer_1">
	<g id="Ppt">
	</g>
	<g id="Small_Folder">
	</g>
	<g id="fave_icon_-_selected">
	</g>
	<g id="Shortcut_1_">
	</g>
	<g id="comment_icon_-_selected">
		<g>
			<path fill="#0072AA" d="M11.095,28.5c-0.782,0-1.592-0.592-1.595-1.582V23.5H9.48c-3.849,0-6.98-3.132-6.98-6.98V10.48
				c0-3.849,3.131-6.98,6.98-6.98h13.04c3.849,0,6.98,3.132,6.98,6.98v6.039c0,3.849-3.131,6.98-6.98,6.98h-7.252l-2.948,4.403
				C11.975,28.306,11.554,28.5,11.095,28.5z"/>
			<g>
				<path fill="#FFFFFF" d="M22.52,4C26.099,4,29,6.901,29,10.48v6.04c0,3.579-2.901,6.48-6.48,6.48H15c0,0,0,0,0,0l-3.095,4.624
					C11.679,27.884,11.384,28,11.095,28c-0.555,0-1.092-0.425-1.095-1.084V23c0,0-0.058,0-0.135,0c-0.154,0-0.385,0-0.385,0h0
					C5.901,23,3,20.099,3,16.52v-6.04C3,6.901,5.901,4,9.48,4H22.52 M22.52,3H9.48C5.356,3,2,6.356,2,10.48v6.04
					c0,3.963,3.098,7.216,7,7.465v2.932C9.004,28.086,9.924,29,11.095,29c0.606,0,1.161-0.255,1.564-0.719l0.041-0.048l0.035-0.052
					L15.534,24l6.986,0c4.125,0,7.48-3.356,7.48-7.48v-6.04C30,6.356,26.644,3,22.52,3L22.52,3z"/>
			</g>
		</g>
		<g>
			<path fill="#004B71" d="M11,16L11,16c-0.825,0-1.5-0.675-1.5-1.5v0c0-0.825,0.675-1.5,1.5-1.5h0c0.825,0,1.5,0.675,1.5,1.5v0
				C12.5,15.325,11.825,16,11,16z"/>
			<path fill="#004B71" d="M16,16L16,16c-0.825,0-1.5-0.675-1.5-1.5v0c0-0.825,0.675-1.5,1.5-1.5h0c0.825,0,1.5,0.675,1.5,1.5v0
				C17.5,15.325,16.825,16,16,16z"/>
			<path fill="#004B71" d="M21,16L21,16c-0.825,0-1.5-0.675-1.5-1.5v0c0-0.825,0.675-1.5,1.5-1.5h0c0.825,0,1.5,0.675,1.5,1.5v0
				C22.5,15.325,21.825,16,21,16z"/>
		</g>
		<g>
			<path fill="#FFFFFF" d="M11,15L11,15c-0.825,0-1.5-0.675-1.5-1.5v0c0-0.825,0.675-1.5,1.5-1.5h0c0.825,0,1.5,0.675,1.5,1.5v0
				C12.5,14.325,11.825,15,11,15z"/>
			<path fill="#FFFFFF" d="M16,15L16,15c-0.825,0-1.5-0.675-1.5-1.5v0c0-0.825,0.675-1.5,1.5-1.5h0c0.825,0,1.5,0.675,1.5,1.5v0
				C17.5,14.325,16.825,15,16,15z"/>
			<path fill="#FFFFFF" d="M21,15L21,15c-0.825,0-1.5-0.675-1.5-1.5v0c0-0.825,0.675-1.5,1.5-1.5h0c0.825,0,1.5,0.675,1.5,1.5v0
				C22.5,14.325,21.825,15,21,15z"/>
		</g>
	</g>
</g>
<g id="shortcut_overlay" display="none">
	<g id="Shortcut" display="inline">
	</g>
</g>
</svg>
