<?xml version="1.0" encoding="utf-8"?>
<!-- Generator: Adobe Illustrator 19.1.0, SVG Export Plug-In . SVG Version: 6.00 Build 0)  -->
<!DOCTYPE svg PUBLIC "-//W3C//DTD SVG 1.1//EN" "http://www.w3.org/Graphics/SVG/1.1/DTD/svg11.dtd">
<svg version="1.1" id="Layer_1" xmlns="http://www.w3.org/2000/svg" xmlns:xlink="http://www.w3.org/1999/xlink" x="0px" y="0px"
	 viewBox="0 0 18 18" enable-background="new 0 0 18 18" xml:space="preserve">
<g id="New_Symbol_13">
	<g>
		<path fill="#FFFFFF" d="M9,17.55c-4.714,0-8.55-3.836-8.55-8.55S4.286,0.45,9,0.45S17.55,4.286,17.55,9S13.714,17.55,9,17.55z"/>
		<path fill="#757575" d="M9,0.9c4.466,0,8.1,3.634,8.1,8.1s-3.634,8.1-8.1,8.1S0.9,13.466,0.9,9S4.534,0.9,9,0.9 M9,0
			C4.029,0,0,4.029,0,9s4.029,9,9,9s9-4.029,9-9S13.971,0,9,0L9,0z"/>
	</g>
</g>
</svg>
