<svg data-name="Layer 1" xmlns="http://www.w3.org/2000/svg" viewBox="0 0 7 7"><title>Artboard 81</title><rect x="-135" y="-223" width="1366" height="768" fill="none"/><rect x="-135" y="-223" width="1366" height="768" fill="none"/><rect x="-135" y="-223" width="1366" height="768" fill="none"/><path d="M3.087,5.876V4.6A2.082,2.082,0,0,1,3.1,4.323a1.249,1.249,0,0,1,.06-.252.926.926,0,0,1-.182.175c-.07.052-.145.1-.224.154l-1.106.644-.413-.7L2.352,3.7A1.588,1.588,0,0,1,2.6,3.574a1.183,1.183,0,0,1,.255-.07A.8.8,0,0,1,2.6,3.434,2.441,2.441,0,0,1,2.352,3.3L1.239,2.65l.406-.7,1.113.658c.08.051.155.1.228.157a.965.965,0,0,1,.186.179A1,1,0,0,1,3.1,2.692a2.086,2.086,0,0,1-.018-.273V1.124h.826V2.4a2.216,2.216,0,0,1-.018.283,1,1,0,0,1-.066.256,1,1,0,0,1,.182-.179,2.5,2.5,0,0,1,.231-.157l1.106-.645.413.7L4.648,3.3a1.931,1.931,0,0,1-.249.13,1.048,1.048,0,0,1-.255.073,1.568,1.568,0,0,1,.5.2l1.113.651-.406.7L4.242,4.4c-.084-.052-.161-.1-.231-.154a1.109,1.109,0,0,1-.189-.175,1.372,1.372,0,0,1,.091.518V5.876Z" fill="#df3324"/></svg>