<svg version="1.1" xmlns="http://www.w3.org/2000/svg" xmlns:xlink="http://www.w3.org/1999/xlink" x="0px" y="0px" viewBox="0 0 24 24" style="enable-background:new 0 0 24 24;" xml:space="preserve"><g/><g/><g/><g/><g/><g/><g/><g/><g/><g/><g/><g/><g><g/><g><g/></g><g><path d="M20,10h-1V6.702C19,3.016,15.984,0,12.298,0h-0.596C8.016,0,5,3.016,5,6.702V10H4c-0.552,0-1,0.448-1,1v12
			c0,0.552,0.448,1,1,1h16c0.552,0,1-0.448,1-1V11C21,10.448,20.552,10,20,10z M7,6.702C7,4.109,9.109,2,11.702,2h0.596
			C14.891,2,17,4.109,17,6.702V10H7V6.702z" fill="#7B9AB0"/><path d="M6.341,22h10.825c0,0,0-1.666-0.888-2.11c0,0-1.961-0.548-2.557-0.99c-0.249-0.185-0.413-0.412-0.469-0.842
			c-0.056-0.429,0.691-0.854,0.794-1.679c0.083-0.661,0.12-1.85,0.12-2.379c0-0.256-0.155-2-2.167-2s-2.346,1.095-2.346,1.997
			c0,0.612-0.004,1.846,0.322,2.563c0.386,0.85,0.251,1.471,0.251,1.582s-0.361,0.721-0.722,0.888
			c-0.361,0.166-2.896,0.926-3.053,1.971C6.376,21.507,6.341,22,6.341,22z" fill="#FFFFFF"/></g></g><g/></svg>