<?xml version="1.0" encoding="utf-8"?>
<!-- Generator: Adobe Illustrator 19.1.0, SVG Export Plug-In . SVG Version: 6.00 Build 0)  -->
<svg version="1.1" id="Layer_1" xmlns="http://www.w3.org/2000/svg" xmlns:xlink="http://www.w3.org/1999/xlink" x="0px" y="0px"
	 viewBox="0 0 24 24" enable-background="new 0 0 24 24" xml:space="preserve">
<g>
	<path fill="#333333" d="M17.576,15.431c-0.882,0-1.667,0.387-2.216,0.992l-6.13-3.382C9.351,12.716,9.427,12.367,9.427,12
		c0-0.368-0.076-0.716-0.197-1.042l6.13-3.382c0.549,0.605,1.334,0.992,2.216,0.992c1.658,0,3.002-1.344,3.002-3.002
		c0-1.658-1.344-3.002-3.002-3.002c-1.658,0-3.002,1.344-3.002,3.002c0,0.157,0.023,0.308,0.046,0.459L8.183,9.576
		c-0.495-0.36-1.1-0.579-1.759-0.579c-1.658,0-3.002,1.344-3.002,3.003c0,1.658,1.344,3.002,3.002,3.002
		c0.659,0,1.264-0.219,1.759-0.579l6.437,3.552c-0.023,0.15-0.046,0.301-0.046,0.458c0,1.659,1.344,3.003,3.002,3.003
		c1.658,0,3.002-1.344,3.002-3.003C20.578,16.775,19.234,15.431,17.576,15.431"/>
</g>
</svg>
