<?xml version="1.0" encoding="utf-8"?>
<!-- Generator: Adobe Illustrator 18.1.0, SVG Export Plug-In . SVG Version: 6.00 Build 0)  -->
<!DOCTYPE svg PUBLIC "-//W3C//DTD SVG 1.1//EN" "http://www.w3.org/Graphics/SVG/1.1/DTD/svg11.dtd">
<svg version="1.1" id="Layer_1" xmlns="http://www.w3.org/2000/svg" xmlns:xlink="http://www.w3.org/1999/xlink" x="0px" y="0px"
	 viewBox="0 0 32 32" enable-background="new 0 0 32 32" xml:space="preserve">
<g id="Ppt">
</g>
<g id="Small_Folder">
</g>
<g>
	<g>
		<g>
			<path fill="#3F7A00" d="M16,30.5C8.005,30.5,1.5,23.995,1.5,16S8.005,1.5,16,1.5S30.5,8.005,30.5,16S23.995,30.5,16,30.5z"/>
			<path fill="#FFFFFF" d="M16,2c7.732,0,14,6.268,14,14s-6.268,14-14,14S2,23.732,2,16S8.268,2,16,2 M16,1C7.729,1,1,7.729,1,16
				s6.729,15,15,15s15-6.729,15-15S24.271,1,16,1L16,1z"/>
		</g>
	</g>
	<g>
		<circle fill="#6C982D" cx="16" cy="16" r="12"/>
	</g>
	<path fill="#3F7A00" d="M18.207,9.293c-0.391-0.391-1.023-0.391-1.414,0s-0.391,1.023,0,1.414l2.793,2.793H18.23
		c-4.687,0-8.5,3.813-8.5,8.5c0,0.553,0.448,1,1,1s1-0.447,1-1c0-3.584,2.916-6.5,6.5-6.5h1.356l-2.793,2.793
		c-0.391,0.391-0.391,1.023,0,1.414C16.988,19.902,17.244,20,17.5,20s0.512-0.098,0.707-0.293l5.207-5.207L18.207,9.293z"/>
	<path fill="#FFFFFF" d="M18.207,8.293c-0.391-0.391-1.023-0.391-1.414,0s-0.391,1.023,0,1.414l2.793,2.793H18.23
		c-4.687,0-8.5,3.813-8.5,8.5c0,0.553,0.448,1,1,1s1-0.447,1-1c0-3.584,2.916-6.5,6.5-6.5h1.356l-2.793,2.793
		c-0.391,0.391-0.391,1.023,0,1.414C16.988,18.902,17.244,19,17.5,19s0.512-0.098,0.707-0.293l5.207-5.207L18.207,8.293z"/>
</g>
<g id="fave_icon_-_selected">
</g>
</svg>
