<?xml version="1.0" encoding="utf-8"?>
<!-- Generator: Adobe Illustrator 18.1.0, SVG Export Plug-In . SVG Version: 6.00 Build 0)  -->
<!DOCTYPE svg PUBLIC "-//W3C//DTD SVG 1.1//EN" "http://www.w3.org/Graphics/SVG/1.1/DTD/svg11.dtd">
<svg version="1.1" id="Layer_1" xmlns="http://www.w3.org/2000/svg" xmlns:xlink="http://www.w3.org/1999/xlink" x="0px" y="0px"
	 viewBox="0 0 18 18" enable-background="new 0 0 18 18" xml:space="preserve">
<g>
	<path fill="#333333" d="M10.207,11.793c-0.391-0.391-1.023-0.391-1.414,0L6.5,14.086V6.5c0-0.552-0.448-1-1-1s-1,0.448-1,1v7.586
		l-2.293-2.293c-0.391-0.391-1.023-0.391-1.414,0s-0.391,1.023,0,1.414L5.5,17.914l4.707-4.707
		C10.598,12.816,10.598,12.184,10.207,11.793z"/>
	<path fill="#333333" d="M17.207,4.793L12.5,0.086L7.793,4.793c-0.391,0.391-0.391,1.023,0,1.414s1.023,0.391,1.414,0L11.5,3.914
		V11.5c0,0.552,0.447,1,1,1s1-0.448,1-1V3.914l2.293,2.293C15.988,6.402,16.244,6.5,16.5,6.5s0.512-0.098,0.707-0.293
		C17.598,5.816,17.598,5.184,17.207,4.793z"/>
</g>
</svg>
