<?xml version="1.0" encoding="UTF-8" standalone="no"?><!DOCTYPE svg PUBLIC "-//W3C//DTD SVG 1.1//EN" "http://www.w3.org/Graphics/SVG/1.1/DTD/svg11.dtd"><svg width="100%" height="100%" viewBox="0 0 32 32" version="1.1" xmlns="http://www.w3.org/2000/svg" xmlns:xlink="http://www.w3.org/1999/xlink" xml:space="preserve" xmlns:serif="http://www.serif.com/" style="fill-rule:evenodd;clip-rule:evenodd;stroke-linejoin:round;stroke-miterlimit:2;"><circle cx="16" cy="16" r="14" style="fill:none;"/><path d="M18.05,7.288l1.821,3.644l4.075,0.583c1.914,0.276 2.688,2.6 1.296,3.94l-0.002,0.001l-2.946,2.834l0.696,4.005c0.327,1.881 -1.675,3.328 -3.396,2.433l-3.642,-1.889l-3.643,1.891c-1.714,0.889 -3.726,-0.546 -3.394,-2.437l0,-0.002l0.695,-4.001l-2.942,-2.83l-0.004,-0.004c-1.397,-1.338 -0.621,-3.665 1.292,-3.941l4.075,-0.583l1.823,-3.648c0.858,-1.708 3.336,-1.717 4.196,0.004Z" style="fill:#333;"/></svg>