<?xml version="1.0" encoding="UTF-8" standalone="no"?><!DOCTYPE svg PUBLIC "-//W3C//DTD SVG 1.1//EN" "http://www.w3.org/Graphics/SVG/1.1/DTD/svg11.dtd"><svg width="100%" height="100%" viewBox="0 0 32 32" version="1.1" xmlns="http://www.w3.org/2000/svg" xmlns:xlink="http://www.w3.org/1999/xlink" xml:space="preserve" xmlns:serif="http://www.serif.com/" style="fill-rule:evenodd;clip-rule:evenodd;stroke-linejoin:round;stroke-miterlimit:2;"><circle cx="16" cy="16" r="14" style="fill:none;"/><path d="M24.729,7.271l-17.458,0c-0.624,0 -1.247,0.623 -1.247,1.247l0,14.964c0,0.624 0.623,1.247 1.247,1.247l17.458,0c0.624,0 1.247,-0.623 1.247,-1.247l0,-14.964c0,-0.624 -0.623,-1.247 -1.247,-1.247Zm-16.835,1.87l16.212,0l0,4.365l-16.212,0l0,-4.365Zm16.212,13.718l-16.212,0l0,-3.118l16.212,0l0,3.118Zm0,-4.365l-16.212,0l0,-3.741l16.212,0l0,3.741Z" style="fill:#333;fill-rule:nonzero;"/></svg>