<svg version="1.1" xmlns="http://www.w3.org/2000/svg" xmlns:xlink="http://www.w3.org/1999/xlink" x="0px" y="0px" viewBox="0 0 16 16" style="enable-background:new 0 0 16 16;" xml:space="preserve"><path d="M8,14.667c-3.667,0-6.667-3-6.667-6.667c0-3.667,3-6.667,6.667-6.667c3.667,0,6.667,3,6.667,6.667
	C14.667,11.667,11.667,14.667,8,14.667z" fill="#FFFFFF"/><path d="M8,2c3.333,0,6,2.667,6,6c0,3.333-2.667,6-6,6c-3.333,0-6-2.667-6-6C2,4.667,4.667,2,8,2z M8,0.667
	C3.933,0.667,0.667,3.933,0.667,8c0,4.067,3.267,7.333,7.333,7.333c4.067,0,7.333-3.267,7.333-7.333
	C15.333,3.933,12.067,0.667,8,0.667z" fill="#6B3C37"/><path d="M8,0.667c4.067,0,7.333,3.267,7.333,7.333c0,4.067-3.267,7.333-7.333,7.333c-4.067,0-7.333-3.267-7.333-7.333
	C0.667,3.933,3.933,0.667,8,0.667z M8,0C3.6,0,0,3.6,0,8s3.6,8,8,8s8-3.6,8-8S12.4,0,8,0z" fill="#FFFFFF"/><path d="M8,10c-0.4,0-0.667-0.267-0.667-0.667V4.667C7.333,4.333,7.6,4,8,4c0.333,0,0.667,0.267,0.667,0.667v4.667
	C8.667,9.733,8.4,10,8,10z" fill="#6B3C37"/><path d="M8,12c-0.4,0-0.667-0.267-0.667-0.667C7.333,11,7.6,10.667,8,10.667c0.333,0,0.667,0.267,0.667,0.667
	C8.667,11.733,8.4,12,8,12z" fill="#6B3C37"/></svg>