<?xml version="1.0" encoding="utf-8"?>
<!-- Generator: Adobe Illustrator 19.2.0, SVG Export Plug-In . SVG Version: 6.00 Build 0)  -->
<!DOCTYPE svg PUBLIC "-//W3C//DTD SVG 1.1//EN" "http://www.w3.org/Graphics/SVG/1.1/DTD/svg11.dtd">
<svg version="1.1" id="Layer_1" xmlns="http://www.w3.org/2000/svg" xmlns:xlink="http://www.w3.org/1999/xlink" x="0px" y="0px"
	 viewBox="0 0 18 18" enable-background="new 0 0 18 18" xml:space="preserve">
<g>
	<g>
		<g>
			<path fill="#0072AA" d="M9,17.5c-4.687,0-8.5-3.813-8.5-8.5S4.313,0.5,9,0.5s8.5,3.813,8.5,8.5S13.687,17.5,9,17.5z"/>
			<path fill="#FFFFFF" d="M9,1c4.418,0,8,3.582,8,8s-3.582,8-8,8s-8-3.582-8-8S4.582,1,9,1 M9,0C4.037,0,0,4.037,0,9s4.037,9,9,9
				s9-4.037,9-9S13.963,0,9,0L9,0z"/>
		</g>
	</g>
	<path fill="#FFFFFF" d="M9,14.604c-3.044,0-5.521-2.477-5.521-5.521c0-3.044,2.477-5.521,5.521-5.521s5.521,2.477,5.521,5.521
		C14.521,12.128,12.044,14.604,9,14.604z M9,6.562c-1.39,0-2.521,1.131-2.521,2.521c0,1.391,1.131,2.521,2.521,2.521
		s2.521-1.131,2.521-2.521C11.521,7.693,10.39,6.562,9,6.562z"/>
</g>
</svg>
