<?xml version="1.0" encoding="UTF-8" standalone="no"?><!DOCTYPE svg PUBLIC "-//W3C//DTD SVG 1.1//EN"
    "http://www.w3.org/Graphics/SVG/1.1/DTD/svg11.dtd">
<svg width="100%" height="100%" viewBox="0 0 24 24" version="1.1" xmlns="http://www.w3.org/2000/svg"
     xmlns:xlink="http://www.w3.org/1999/xlink" xml:space="preserve"
     xmlns:serif="http://www.serif.com/"
     style="fill-rule:evenodd;clip-rule:evenodd;stroke-linejoin:round;stroke-miterlimit:2;"><g><circle cx="12" cy="12" r="12" style="fill:#fff;fill-opacity:0;"/><path
    d="M12,3.939l4.03,4.03c0.293,0.293 0.293,0.768 0,1.061c-0.293,0.293 -0.768,0.293 -1.061,0l-2.969,-2.969l-2.97,2.97c-0.293,0.293 -0.768,0.293 -1.061,0c-0.293,-0.293 -0.293,-0.768 0,-1.061l4.031,-4.031Z"
    style="fill:#333;fill-rule:nonzero;"/><path
    d="M11,15c0,0.552 0.448,1 1,1c0.552,0 1,-0.448 1,-1c0,-0.552 -0.448,-1 -1,-1c-0.552,0 -1,0.448 -1,1Z"
    style="fill:#333;fill-rule:nonzero;"/><path
    d="M11,11c0,0.552 0.448,1 1,1c0.552,0 1,-0.448 1,-1c0,-0.552 -0.448,-1 -1,-1c-0.552,0 -1,0.448 -1,1Z"
    style="fill:#333;fill-rule:nonzero;"/><path
    d="M8.5,17.502l7,0c0.414,0 0.75,0.336 0.75,0.75c0,0.414 -0.336,0.75 -0.75,0.75l-7,0c-0.414,0 -0.75,-0.336 -0.75,-0.75c0,-0.414 0.336,-0.75 0.75,-0.75Z"
    style="fill:#333;fill-rule:nonzero;"/></g></svg>