<svg viewBox="0 0 48 48" fill="none" xmlns="http://www.w3.org/2000/svg">
<path d="M24 0.9C36.7 0.9 47.1 11.3 47.1 24C47.1 36.7 36.7 47.1 24 47.1C11.3 47.1 0.9 36.7 0.9 24C0.9 11.3 11.3 0.9 24 0.9ZM24 0C10.7 0 0 10.7 0 24C0 37.3 10.7 48 24 48C37.3 48 48 37.3 48 24C48 10.7 37.3 0 24 0Z" fill="white"/>
<path d="M35.2 24C35.2 24.7 34.7 25.2 34 25.2H25.2V34C25.2 34.7 24.7 35.2 24 35.2C23.3 35.2 22.8 34.7 22.8 34V25.2H14C13.3 25.2 12.8 24.7 12.8 24C12.8 23.3 13.3 22.8 14 22.8H22.8V14C22.8 13.3 23.3 12.8 24 12.8C24.7 12.8 25.2 13.3 25.2 14V22.8H34C34.6 22.8 35.2 23.3 35.2 24Z" fill="white"/>
</svg>
