<svg width="80" height="80" viewBox="0 0 80 80" fill="none" xmlns="http://www.w3.org/2000/svg">
<circle cx="40" cy="40" r="39.25" fill="white" fill-opacity="0.4" stroke="white" stroke-width="1.5"/>
<path d="M64 40C64 53.2 53.2 64 40 64C26.8 64 16 53.2 16 40C16 26.8 26.8 16 40 16C53.2 16 64 26.8 64 40Z" fill="#DF3324"/>
<path d="M48.6 50.6C48 50.6 47.6 50.4 47.2 50L40 43L32.8 50C32 50.8 30.8 50.8 30 50C29.2 49.2 29.2 48 30 47.2L37 40L30 32.8C29.2 32.2 29.2 30.8 30 30C30.8 29.2 32 29.2 32.8 30L40 37L47.2 30C48 29.2 49.2 29.2 50 30C50.8 30.8 50.8 32 50.2 32.8C50.2 32.8 50.2 32.8 50 33L43 40L50 47.2C50.8 48 50.8 49.2 50 50C49.6 50.4 49.2 50.6 48.6 50.6Z" fill="white"/>
</svg>
