<svg data-name="Layer 7" xmlns="http://www.w3.org/2000/svg" viewBox="0 0 36 36"><title>mime</title><circle cx="18" cy="18" r="17" fill="#1291ce"/><path d="M18,1A17,17,0,1,1,1,18,17,17,0,0,1,18,1m0-1A18,18,0,1,0,36,18,18.02,18.02,0,0,0,18,0h0Z" fill="#fff"/><path d="M12.945,34.236a17.1,17.1,0,0,0,10.111,0q0.8-.248,1.562-0.572a16.938,16.938,0,0,0,2.7-1.455,1.684,1.684,0,0,0,.034-0.338V30.892a1.673,1.673,0,0,0-.037-0.347l-0.007-.05a9.242,9.242,0,0,0-.421-2.454A2.428,2.428,0,0,0,25.427,26.5a10.684,10.684,0,0,0-2.374-.645,8.752,8.752,0,0,1-1.8-.468,2.08,2.08,0,0,1-.749-0.569,2.532,2.532,0,0,1-.3-0.454L20.064,24.1l0.232-.19a4.277,4.277,0,0,0,.909-1.042A6.3,6.3,0,0,0,22,20.814l0.047-.217,0.213-.06a0.657,0.657,0,0,0,.309-0.263,1.885,1.885,0,0,0,.291-0.74,1.609,1.609,0,0,0-.1-1.019l-0.076-.13,0.037-.146c0.015-.058.028-0.117,0.04-0.177a5.531,5.531,0,0,0,.077-1.355A9.118,9.118,0,0,0,22.6,15.1a3.61,3.61,0,0,0-1.466-1.949,5.591,5.591,0,0,0-6.253,0,3.61,3.61,0,0,0-1.465,1.944,9,9,0,0,0-.241,1.617,5.506,5.506,0,0,0,.074,1.356c0.011,0.06.025,0.117,0.039,0.173l0.037,0.147-0.076.13a1.594,1.594,0,0,0-.105,1.021,1.892,1.892,0,0,0,.293.743,0.64,0.64,0,0,0,.309.26l0.216,0.06,0.047,0.219a6.3,6.3,0,0,0,.792,2.049,4.3,4.3,0,0,0,.914,1.045L15.943,24.1l-0.14.265a2.55,2.55,0,0,1-.3.448,2.08,2.08,0,0,1-.749.57,8.7,8.7,0,0,1-1.8.466,10.751,10.751,0,0,0-2.381.646,2.459,2.459,0,0,0-1.46,1.545A9.2,9.2,0,0,0,8.7,30.459a2.079,2.079,0,0,0-.055.433v0.979a1.779,1.779,0,0,0,.042.342,16.94,16.94,0,0,0,2.7,1.45Q12.145,33.987,12.945,34.236Z" fill="#fff"/><path d="M18,30.127A12.127,12.127,0,1,1,30.128,18,12.141,12.141,0,0,1,18,30.127ZM18,6.873A11.127,11.127,0,1,0,29.128,18,11.139,11.139,0,0,0,18,6.873Z" fill="#fff"/><circle cx="18" cy="6.357" r="2.889" transform="translate(-1.055 5.208) rotate(-16.002)" fill="#fff"/><circle cx="6.426" cy="18" r="2.889" transform="translate(-4.713 2.469) rotate(-16.002)" fill="#fff"/><circle cx="29.645" cy="18" r="2.889" transform="translate(-3.813 8.87) rotate(-16.002)" fill="#fff"/><path d="M8.5,32.1c0.062,0.042.13,0.076,0.193,0.117h0C8.625,32.172,8.557,32.139,8.5,32.1Z" fill="none"/><path d="M18,1a16.994,16.994,0,0,0-5.055.764A17,17,0,0,1,18,1h0Z" fill="none"/><path d="M4.882,28.814a17.1,17.1,0,0,0,2.3,2.3A17.107,17.107,0,0,1,4.882,28.814Z" fill="none"/><path d="M7.186,4.882a17.1,17.1,0,0,0-2.3,2.3A17.107,17.107,0,0,1,7.186,4.882Z" fill="none"/><path d="M8.5,3.9a16.959,16.959,0,0,1,2.888-1.567A16.961,16.961,0,0,0,8.5,3.9Z" fill="none"/><path d="M8.688,32.214h0a16.94,16.94,0,0,0,2.7,1.45A16.94,16.94,0,0,1,8.688,32.214Z" fill="#fff"/><path d="M24.617,33.664a16.938,16.938,0,0,0,2.7-1.455h0A16.938,16.938,0,0,1,24.617,33.664Z" fill="#fff"/></svg>