<?xml version="1.0" encoding="utf-8"?>
<!-- Generator: Adobe Illustrator 17.1.0, SVG Export Plug-In . SVG Version: 6.00 Build 0)  -->
<!DOCTYPE svg PUBLIC "-//W3C//DTD SVG 1.1//EN" "http://www.w3.org/Graphics/SVG/1.1/DTD/svg11.dtd">
<svg version="1.1" id="Layer_1" xmlns="http://www.w3.org/2000/svg" xmlns:xlink="http://www.w3.org/1999/xlink" x="0px" y="0px"
	 viewBox="0 0 36 36" enable-background="new 0 0 36 36" xml:space="preserve">
<g>
	<circle fill="#9370B0" cx="18" cy="18" r="18"/>
</g>
<path fill="#FFFFFF" d="M30,17c-1.333,0-2.667,0-4,0c-0.728,0-1.19,0.472-1.446,1.101c-0.851,2.085-1.702,4.171-2.554,6.256
	c-2.185-5.352-4.369-10.704-6.554-16.056c-0.58-1.42-2.313-1.42-2.893,0C11.37,11.201,10.187,14.1,9.003,17C8.002,17,7.001,17,6,17
	c-1.935,0-1.935,3,0,3c1.333,0,2.667,0,4,0c0.728,0,1.19-0.472,1.446-1.101c0.851-2.085,1.702-4.171,2.554-6.256
	c2.185,5.352,4.369,10.704,6.554,16.056c0.58,1.42,2.313,1.42,2.893,0c1.183-2.9,2.367-5.799,3.551-8.699c1.001,0,2.002,0,3.003,0
	C31.935,20,31.935,17,30,17z"/>
</svg>
