<?xml version="1.0" encoding="utf-8"?>
<!-- Generator: Adobe Illustrator 18.1.0, SVG Export Plug-In . SVG Version: 6.00 Build 0)  -->
<!DOCTYPE svg PUBLIC "-//W3C//DTD SVG 1.1//EN" "http://www.w3.org/Graphics/SVG/1.1/DTD/svg11.dtd">
<svg version="1.1" id="Layer_1" xmlns="http://www.w3.org/2000/svg" xmlns:xlink="http://www.w3.org/1999/xlink" x="0px" y="0px"
	 viewBox="0 0 36 36" enable-background="new 0 0 36 36" xml:space="preserve">
<path fill="#00A389" d="M32.941,19.059c0.585,0,1.059,0.474,1.059,1.059V36h-4.941v-9.941C29.059,25.474,28.585,25,28,25h-5.941
	C21.474,25,21,25.474,21,26.059V36H1V1.059C1,0.474,1.474,0,2.059,0h17.824c0.585,0,1.059,0.474,1.059,1.059V18
	c0,0.585,0.474,1.059,1.059,1.059H32.941z M9.5,4h-4C5.224,4,5,4.224,5,4.5v5C5,9.776,5.224,10,5.5,10h4C9.776,10,10,9.776,10,9.5
	v-5C10,4.224,9.776,4,9.5,4z M16.5,4h-4C12.224,4,12,4.224,12,4.5v5c0,0.276,0.224,0.5,0.5,0.5h4c0.276,0,0.5-0.224,0.5-0.5v-5
	C17,4.224,16.776,4,16.5,4z M9.5,12h-4C5.224,12,5,12.224,5,12.5v5C5,17.776,5.224,18,5.5,18h4c0.276,0,0.5-0.224,0.5-0.5v-5
	C10,12.224,9.776,12,9.5,12z M16.5,12h-4c-0.276,0-0.5,0.224-0.5,0.5v5c0,0.276,0.224,0.5,0.5,0.5h4c0.276,0,0.5-0.224,0.5-0.5v-5
	C17,12.224,16.776,12,16.5,12z M9.5,20h-4C5.224,20,5,20.224,5,20.5v5C5,25.776,5.224,26,5.5,26h4c0.276,0,0.5-0.224,0.5-0.5v-5
	C10,20.224,9.776,20,9.5,20z M16.5,20h-4c-0.276,0-0.5,0.224-0.5,0.5v5c0,0.276,0.224,0.5,0.5,0.5h4c0.276,0,0.5-0.224,0.5-0.5v-5
	C17,20.224,16.776,20,16.5,20z"/>
</svg>
