<svg id="Layer_1" data-name="Layer 1" xmlns="http://www.w3.org/2000/svg" width="24" height="24" viewBox="0 0 24 24"><title>toolbar_email24</title><path d="M19.4,3H4.6A3.611,3.611,0,0,0,1,6.6v9.8A3.611,3.611,0,0,0,4.6,20H19.4A3.611,3.611,0,0,0,23,16.4V6.6A3.611,3.611,0,0,0,19.4,3ZM4.6,5H19.4a1.268,1.268,0,0,1,.34.04L12,11.05,4.26,5.04A1.268,1.268,0,0,1,4.6,5ZM21,16.4A1.6,1.6,0,0,1,19.4,18H4.6A1.6,1.6,0,0,1,3,16.4V6.6a1.562,1.562,0,0,1,.11-.57l8.43,6.56a.741.741,0,0,0,.92,0l8.43-6.56A1.562,1.562,0,0,1,21,6.6Z" style="fill:#333"/></svg>