<?xml version="1.0" encoding="utf-8"?>
<!-- Generator: Adobe Illustrator 19.1.0, SVG Export Plug-In . SVG Version: 6.00 Build 0)  -->
<!DOCTYPE svg PUBLIC "-//W3C//DTD SVG 1.1//EN" "http://www.w3.org/Graphics/SVG/1.1/DTD/svg11.dtd">
<svg version="1.1" id="Layer_1" xmlns="http://www.w3.org/2000/svg" xmlns:xlink="http://www.w3.org/1999/xlink" x="0px" y="0px"
	 viewBox="0 0 24 24" enable-background="new 0 0 24 24" xml:space="preserve">
<g id="metadata">
</g>
<g id="like_icon">
</g>
<g id="fave_icon">
</g>
<g id="fave_icon_-_selected">
</g>
<g id="comment_icon_-_selected">
</g>
<g id="Comment_icon">
</g>
<g id="fave_icon_-_selected_1_">
</g>
<g id="like_icon_-_selected">
</g>
<g id="copy_x2F_move_icon">
</g>
<g id="download_icon_2">
</g>
<g id="share_icon_2">
</g>
<g id="reserve_icon">
</g>
<g id="edit_icon">
	<path fill="#333333" d="M20.263,8.272c-0.587-0.587-1.538-0.587-2.126,0l-4.658,4.657V1.505c0-0.83-0.672-1.503-1.503-1.503
		s-1.503,0.673-1.503,1.503v11.377l-4.611-4.61c-0.587-0.587-1.538-0.587-2.126,0s-0.587,1.538,0,2.126L12,18.66l8.263-8.262
		C20.85,9.81,20.85,8.859,20.263,8.272z"/>
	<path fill="#333333" d="M22.5,24.002h-21c-0.828,0-1.5-0.672-1.5-1.5v0c0-0.828,0.672-1.5,1.5-1.5h21c0.828,0,1.5,0.672,1.5,1.5v0
		C24,23.33,23.328,24.002,22.5,24.002z"/>
	<g id="edit_icon_2">
	</g>
	<g id="trash_icon">
		<g id="trash">
		</g>
	</g>
</g>
<g id="metadata_2">
</g>
</svg>
