<?xml version="1.0" encoding="utf-8"?>
<!-- Generator: Adobe Illustrator 19.2.0, SVG Export Plug-In . SVG Version: 6.00 Build 0)  -->
<!DOCTYPE svg PUBLIC "-//W3C//DTD SVG 1.1//EN" "http://www.w3.org/Graphics/SVG/1.1/DTD/svg11.dtd">
<svg version="1.1" id="Layer_1" xmlns="http://www.w3.org/2000/svg" xmlns:xlink="http://www.w3.org/1999/xlink" x="0px" y="0px"
	 viewBox="0 0 24 24" enable-background="new 0 0 24 24" xml:space="preserve">
<g id="metadata">
</g>
<g id="like_icon">
</g>
<g id="fave_icon">
</g>
<g id="fave_icon_-_selected">
</g>
<g id="comment_icon_-_selected">
</g>
<g id="Comment_icon">
</g>
<g id="fave_icon_-_selected_1_">
</g>
<g id="like_icon_-_selected">
</g>
<g id="copy_x2F_move_icon">
</g>
<g id="download_icon_2">
</g>
<g id="share_icon_2">
</g>
<g id="reserve_icon">
</g>
<g id="edit_icon">
	<g id="edit_icon_2">
	</g>
	<g id="trash_icon">
		<g id="trash">
		</g>
	</g>
	<path fill="#627783" d="M18.499,16.004c-1.028,0-1.943,0.451-2.584,1.157l-7.148-3.943c0.141-0.38,0.229-0.786,0.229-1.214
		c0-0.429-0.088-0.835-0.229-1.214l7.148-3.943c0.64,0.706,1.556,1.157,2.584,1.157C20.433,8.002,22,6.434,22,4.501
		S20.433,1,18.499,1s-3.501,1.567-3.501,3.501c0,0.183,0.027,0.359,0.054,0.535L7.547,9.177c-0.577-0.42-1.282-0.675-2.051-0.675
		c-1.933,0-3.501,1.567-3.501,3.501s1.567,3.501,3.501,3.501c0.769,0,1.473-0.255,2.051-0.675l7.506,4.141
		c-0.027,0.176-0.054,0.352-0.054,0.535c0,1.933,1.567,3.501,3.501,3.501S22,21.438,22,19.504S20.433,16.004,18.499,16.004z"/>
	<g id="more_icon">
	</g>
</g>
<g id="metadata_2">
</g>
</svg>
