<?xml version="1.0" encoding="utf-8"?>
<!-- Generator: Adobe Illustrator 19.2.0, SVG Export Plug-In . SVG Version: 6.00 Build 0)  -->
<!DOCTYPE svg PUBLIC "-//W3C//DTD SVG 1.1//EN" "http://www.w3.org/Graphics/SVG/1.1/DTD/svg11.dtd">
<svg version="1.1" id="Layer_1" xmlns="http://www.w3.org/2000/svg" xmlns:xlink="http://www.w3.org/1999/xlink" x="0px" y="0px"
	 viewBox="0 0 24 24" enable-background="new 0 0 24 24" xml:space="preserve">
<g id="metadata">
</g>
<g id="like_icon">
</g>
<g id="fave_icon">
</g>
<g id="fave_icon_-_selected">
</g>
<g id="comment_icon_-_selected">
</g>
<g id="Comment_icon">
</g>
<g id="fave_icon_-_selected_1_">
</g>
<g id="like_icon_-_selected">
</g>
<g id="copy_x2F_move_icon">
</g>
<g id="download_icon_2">
</g>
<g id="share_icon_2">
</g>
<g id="reserve_icon">
</g>
<g id="edit_icon">
	<g id="edit_icon_2">
	</g>
	<g id="trash_icon">
		<g id="trash">
		</g>
	</g>
	<g>
		<g>
			<path fill="#627783" d="M19.112,10H18V6c0-3.3-2.7-6-6-6S6,2.7,6,6v4H4.888C4.398,10,4,10.418,4,10.933v12.134
				C4,23.582,4.398,24,4.888,24h14.223C19.602,24,20,23.582,20,23.067V10.933C20,10.418,19.602,10,19.112,10z M8,6
				c0-2.206,1.794-4,4-4s4,1.794,4,4v4H8V6z"/>
		</g>
	</g>
	<path fill="#FFFFFF" d="M13.414,17l3.293-3.293c0.391-0.391,0.391-1.023,0-1.414s-1.023-0.391-1.414,0L12,15.586l-3.293-3.293
		c-0.391-0.391-1.023-0.391-1.414,0s-0.391,1.023,0,1.414L10.585,17l-3.293,3.293c-0.391,0.391-0.391,1.023,0,1.414
		C7.488,21.902,7.744,22,8,22s0.512-0.098,0.707-0.293L12,18.414l3.293,3.293C15.488,21.902,15.744,22,16,22
		s0.512-0.098,0.707-0.293c0.391-0.391,0.391-1.023,0-1.414L13.414,17z"/>
	<g id="more_icon">
	</g>
</g>
<g id="metadata_2">
</g>
</svg>
