<?xml version="1.0" encoding="utf-8"?>
<!-- Generator: Adobe Illustrator 19.1.0, SVG Export Plug-In . SVG Version: 6.00 Build 0)  -->
<!DOCTYPE svg PUBLIC "-//W3C//DTD SVG 1.1//EN" "http://www.w3.org/Graphics/SVG/1.1/DTD/svg11.dtd">
<svg version="1.1" id="Layer_1" xmlns="http://www.w3.org/2000/svg" xmlns:xlink="http://www.w3.org/1999/xlink" x="0px" y="0px"
	 viewBox="0 0 24 24" enable-background="new 0 0 24 24" xml:space="preserve">
<g id="metadata">
</g>
<g id="like_icon">
</g>
<g id="fave_icon">
</g>
<g id="fave_icon_-_selected">
</g>
<g id="comment_icon_-_selected">
</g>
<g id="Comment_icon">
</g>
<g id="fave_icon_-_selected_1_">
</g>
<g id="like_icon_-_selected">
</g>
<g id="copy_x2F_move_icon">
</g>
<g id="download_icon_2">
</g>
<g id="share_icon_2">
</g>
<g id="reserve_icon">
</g>
<g id="edit_icon">
	<g id="edit_icon_2">
	</g>
	<g id="trash_icon">
		<g id="trash">
			<g>
				<path fill="#333333" d="M16.84,23H7.16C5.967,23,5,22.033,5,20.84V7h14v13.84C19,22.033,18.033,23,16.84,23z"/>
			</g>
			<path fill="#333333" d="M18.691,3H15V2c0-0.552-0.448-1-1-1h-4C9.448,1,9,1.448,9,2v1H5.309C4.586,3,4,3.586,4,4.309V6h16V4.309
				C20,3.586,19.414,3,18.691,3z M10,2h4v1h-4V2z"/>
		</g>
	</g>
</g>
<g id="metadata_2">
</g>
</svg>
