<?xml version="1.0" encoding="utf-8"?>
<!-- Generator: Adobe Illustrator 18.1.1, SVG Export Plug-In . SVG Version: 6.00 Build 0)  -->
<svg version="1.1" id="Layer_1" xmlns="http://www.w3.org/2000/svg" xmlns:xlink="http://www.w3.org/1999/xlink" x="0px" y="0px"
	 viewBox="0 0 16 16" enable-background="new 0 0 16 16" xml:space="preserve">
<g>
	<ellipse fill="#333333" cx="8.4099" cy="11.5817" rx="1.1231" ry="1.1364"/>
	<g>
		<path fill="#333333" d="M5.3484,6.1898H4.3993V2.2431C4.3993,1.0066,5.283,0,6.3694,0h4.0811
			c1.0863,0,1.9701,1.0066,1.9701,2.2431h-0.9491c0-0.7017-0.4676-1.2939-1.021-1.2939H6.3694c-0.5534,0-1.021,0.5923-1.021,1.2939
			V6.1898z"/>
	</g>
	<g>
		<path fill="#333333" d="M12.447,16H4.3728C3.0645,16,2,14.9359,2,13.6272V7.7979c0-1.3088,1.0645-2.3728,2.3728-2.3728h8.0742
			c1.3083,0,2.3728,1.0641,2.3728,2.3728v5.8292C14.8198,14.9359,13.7553,16,12.447,16z M4.3728,6.3742
			c-0.7851,0-1.4237,0.6386-1.4237,1.4237v5.8292c0,0.7851,0.6386,1.4237,1.4237,1.4237h8.0742
			c0.7851,0,1.4237-0.6386,1.4237-1.4237V7.7979c0-0.7851-0.6386-1.4237-1.4237-1.4237H4.3728z"/>
	</g>
</g>
</svg>
