<svg version="1.1" xmlns="http://www.w3.org/2000/svg" xmlns:xlink="http://www.w3.org/1999/xlink" x="0px" y="0px" viewBox="0 0 24 24" style="enable-background:new 0 0 24 24;" xml:space="preserve"><path d="M4.8,3.3h14.4c0.828,0,1.5,0.672,1.5,1.5v14.4c0,0.828-0.672,1.5-1.5,1.5h-4.457H12H9.257H4.8
	c-0.828,0-1.5-0.672-1.5-1.5V4.8C3.3,3.972,3.972,3.3,4.8,3.3z" fill="none" stroke="#627783" stroke-width="1.8"/><path d="M11.4,6h6C17.731,6,18,6.269,18,6.6v1.44c0,0.331-0.269,0.6-0.6,0.6h-6c-0.331,0-0.6-0.269-0.6-0.6V6.6
	C10.8,6.269,11.069,6,11.4,6z" fill="#627783"/><path d="M9,10.56h8.4c0.331,0,0.6,0.269,0.6,0.6v1.68c0,0.331-0.269,0.6-0.6,0.6H9c-0.331,0-0.6-0.269-0.6-0.6v-1.68
	C8.4,10.829,8.669,10.56,9,10.56z" fill="#627783"/><path d="M11.4,15.36h6c0.331,0,0.6,0.269,0.6,0.6v1.44c0,0.331-0.269,0.6-0.6,0.6h-6c-0.331,0-0.6-0.269-0.6-0.6v-1.44
	C10.8,15.629,11.069,15.36,11.4,15.36z" fill="#627783"/></svg>