<?xml version="1.0" encoding="utf-8"?>
<!-- Generator: Adobe Illustrator 18.1.1, SVG Export Plug-In . SVG Version: 6.00 Build 0)  -->
<svg version="1.1" id="Layer_1" xmlns="http://www.w3.org/2000/svg" xmlns:xlink="http://www.w3.org/1999/xlink" x="0px" y="0px"
	 viewBox="0 0 24 24" enable-background="new 0 0 24 24" xml:space="preserve">
<symbol  id="New_Symbol_4" viewBox="-6.2499 -6.25 12.5 12.5">
	<g>
		<path fill="none" stroke="#0072AA" stroke-width="0.5" stroke-miterlimit="10" d="M-0.0016,6
			c-0.7167,0-1.4455-0.1292-2.1536-0.4023c-3.0917-1.1905-4.6329-4.6613-3.4423-7.753C-4.6801-4.5381-2.4076-6,0.0018-6
			c0.7167,0,1.4455,0.1292,2.1536,0.4023c3.0917,1.1905,4.6329,4.6613,3.4423,7.753C4.6803,4.5381,2.4078,6-0.0016,6L-0.0016,6z"/>
	</g>
	<g>
		<g>
			<path fill="#0072AA" d="M-1.4583,5.2936L-1.4583,5.2936c1.4584,0,3.2063-1.7901,4.1556-4.2555
				c1.0846-2.8161,0.765-5.6709-0.6969-6.2343C1.8315-5.2617,1.6489-5.2944,1.4585-5.2944c-1.4584,0-3.2063,1.7901-4.1556,4.2555
				c-1.0846,2.8169-0.765,5.6718,0.6969,6.2343C-1.8313,5.2609-1.6487,5.2936-1.4583,5.2936 M-1.4583,5.7243
				c-0.2403,0-0.4738-0.0413-0.696-0.1266c-1.7108-0.659-2.1338-3.6991-0.9441-6.7908c1.0355-2.6894,2.9505-4.5312,4.5579-4.5312
				c0.2403,0,0.4738,0.0413,0.696,0.1266c1.7108,0.659,2.1338,3.6999,0.9441,6.7908C2.0633,3.8826,0.1483,5.7252-1.4583,5.7243
				L-1.4583,5.7243z"/>
		</g>
	</g>
	<line fill="#333333" stroke="#0072AA" stroke-width="0.5" x1="-2.0691" y1="5.3737" x2="2.0521" y2="-5.3289"/>
	<line fill="#333333" stroke="#0072AA" stroke-width="0.5" x1="-5.3598" y1="-2.0382" x2="5.3428" y2="2.083"/>
	<line fill="#333333" stroke="#0072AA" stroke-width="0.5" x1="-5.5519" y1="0.9734" x2="3.4657" y2="4.4451"/>
	<line fill="#333333" stroke="#0072AA" stroke-width="0.5" x1="-3.4724" y1="-4.4476" x2="5.5582" y2="-0.9708"/>
</symbol>
<use xlink:href="#New_Symbol_4"  width="12.5" height="12.5" id="XMLID_7_" x="-6.2499" y="-6.25" transform="matrix(1.92 0 0 -1.92 11.9998 12)" overflow="visible"/>
</svg>
