<?xml version="1.0" encoding="utf-8"?>
<!-- Generator: Adobe Illustrator 20.1.0, SVG Export Plug-In . SVG Version: 6.00 Build 0)  -->
<svg version="1.1" id="Layer_1" xmlns="http://www.w3.org/2000/svg" xmlns:xlink="http://www.w3.org/1999/xlink" x="0px" y="0px"
	 viewBox="0 0 24 24" style="enable-background:new 0 0 24 24;" xml:space="preserve">
<style type="text/css">
	.st0{fill:#333333;}
</style>
<g>
	<path class="st0" d="M16,9V5c0-2.209-1.791-4-4-4H4C1.791,1,0,2.791,0,5v4c0,2.209,1.791,4,4,4v2.162
		c0,0.892,0.545,1.106,1.212,0.475L8,13h4C14.209,13,16,11.209,16,9z"/>
	<path class="st0" d="M20,9h-3c0,2.757-2.243,5-5,5H9v2.467C9,18.529,10.929,20,13,20h3.25l2.614,2.461
		C19.489,23.05,20,22.85,20,22.018V20c2.071,0,4-1.471,4-3.533v-3.733C24,10.672,22.071,9,20,9z"/>
</g>
</svg>
