<?xml version="1.0" encoding="utf-8"?>
<!-- Generator: Adobe Illustrator 24.0.1, SVG Export Plug-In . SVG Version: 6.00 Build 0)  -->
<svg version="1.1" id="Layer_1" xmlns="http://www.w3.org/2000/svg" xmlns:xlink="http://www.w3.org/1999/xlink" x="0px" y="0px"
	 viewBox="0 0 32 32" style="enable-background:new 0 0 32 32;" xml:space="preserve">
<style type="text/css">
	.st0{fill:none;}
	.st1{fill-rule:evenodd;clip-rule:evenodd;fill:#333333;}
	.st2{opacity:0.9;fill:#333333;enable-background:new    ;}
	.st3{opacity:0.75;fill-rule:evenodd;clip-rule:evenodd;fill:#333333;enable-background:new    ;}
	.st4{fill:none;stroke:#2E3D98;}
</style>
<circle id="state" class="st0" cx="16" cy="16" r="14"/>
<g id="metaphor">
	<path class="st1" d="M7,7h10c0.552,0,1,0.448,1,1v4.071c-3.392,0.485-6,3.403-6,6.929c0,0.695,0.101,1.366,0.29,2H7V7z M9,9.6
		C9,9.269,9.269,9,9.6,9h5.8C15.731,9,16,9.269,16,9.6v1.8c0,0.331-0.269,0.6-0.6,0.6H9.6C9.269,12,9,11.731,9,11.4V9.6z"/>
	<path class="st2" d="M19,8h0.3C19.687,8,20,8.313,20,8.7v1.6c0,0.387-0.313,0.7-0.7,0.7H19V8z"/>
	<path class="st3" d="M19,25c3.314,0,6-2.686,6-6s-2.686-6-6-6s-6,2.686-6,6S15.686,25,19,25z M20.768,16.172
		c0.293-0.293,0.768-0.293,1.061,0s0.293,0.768,0,1.061L20.061,19l1.768,1.768c0.293,0.293,0.293,0.768,0,1.061
		s-0.768,0.293-1.061,0L19,20.061l-1.768,1.768c-0.293,0.293-0.768,0.293-1.061,0s-0.293-0.768,0-1.061L17.939,19l-1.768-1.768
		c-0.293-0.293-0.293-0.768,0-1.061s0.768-0.293,1.061,0L19,17.939L20.768,16.172z"/>
</g>
<circle id="focus" class="st4" cx="16" cy="16" r="15.5"/>
</svg>
