<?xml version="1.0" encoding="utf-8"?>
<!-- Generator: Adobe Illustrator 24.0.1, SVG Export Plug-In . SVG Version: 6.00 Build 0)  -->
<svg version="1.1" id="Layer_1" xmlns="http://www.w3.org/2000/svg" xmlns:xlink="http://www.w3.org/1999/xlink" x="0px" y="0px"
	 viewBox="0 0 32 32" style="enable-background:new 0 0 32 32;" xml:space="preserve">
<style type="text/css">
	.st0{fill:none;}
	.st1{opacity:0.3;fill-rule:evenodd;clip-rule:evenodd;fill:#333333;enable-background:new    ;}
	.st2{fill-rule:evenodd;clip-rule:evenodd;fill:#333333;}
	.st3{fill:#333333;}
	.st4{fill:none;stroke:#2E3D98;}
</style>
<circle id="state" class="st0" cx="16" cy="16" r="14"/>
<g id="metaphor">
	<path class="st1" d="M8.8,7h14.4C24.194,7,25,7.806,25,8.8v14.4c0,0.994-0.806,1.8-1.8,1.8H8.8C7.806,25,7,24.194,7,23.2V8.8
		C7,7.806,7.806,7,8.8,7z M22,16c0,3.314-2.686,6-6,6s-6-2.686-6-6s2.686-6,6-6S22,12.686,22,16z"/>
	<path class="st2" d="M8.986,15.993c0-3.877,3.143-7.02,7.02-7.02s7.02,3.143,7.02,7.02c0,3.877-3.143,7.02-7.02,7.02
		S8.986,19.871,8.986,15.993z M16.007,10.473c-3.049,0-5.52,2.472-5.52,5.52c0,3.049,2.471,5.52,5.52,5.52
		c3.049,0,5.52-2.472,5.52-5.52C21.527,12.945,19.055,10.473,16.007,10.473z"/>
	<path class="st3" d="M14.648,19.2l-2.442-2.442c-0.279-0.279-0.279-0.697,0-0.977c0.279-0.279,0.698-0.279,0.977,0l1.465,1.465
		l3.838-3.837c0.279-0.279,0.698-0.279,0.977,0c0.279,0.279,0.279,0.697,0,0.976L14.648,19.2z"/>
</g>
<circle id="focus" class="st4" cx="16" cy="16" r="15.5"/>
</svg>
