<?xml version="1.0" encoding="utf-8"?>
<!-- Generator: Adobe Illustrator 24.0.1, SVG Export Plug-In . SVG Version: 6.00 Build 0)  -->
<svg version="1.1" id="Layer_1" xmlns="http://www.w3.org/2000/svg" xmlns:xlink="http://www.w3.org/1999/xlink" x="0px" y="0px"
	 viewBox="0 0 32 32" style="enable-background:new 0 0 32 32;" xml:space="preserve">
<style type="text/css">
	.st0{fill:none;}
	.st1{fill-rule:evenodd;clip-rule:evenodd;fill:#333333;}
	.st2{fill:none;stroke:#2E3D98;}
</style>
<circle id="state" class="st0" cx="16" cy="16" r="14"/>
<path id="metaphor" class="st1" d="M8.6,9C8.269,9,8,9.269,8,9.6v0.8C8,10.731,8.269,11,8.6,11h0.8c0.331,0,0.6-0.269,0.6-0.6V9.6
	C10,9.269,9.731,9,9.4,9H8.6z M12.6,9C12.269,9,12,9.269,12,9.6v0.8c0,0.331,0.269,0.6,0.6,0.6h10.8c0.331,0,0.6-0.269,0.6-0.6V9.6
	C24,9.269,23.731,9,23.4,9H12.6z M12.6,15c-0.331,0-0.6,0.269-0.6,0.6v0.8c0,0.331,0.269,0.6,0.6,0.6h10.8
	c0.331,0,0.6-0.269,0.6-0.6v-0.8c0-0.331-0.269-0.6-0.6-0.6H12.6z M12,21.6c0-0.331,0.269-0.6,0.6-0.6h10.8
	c0.331,0,0.6,0.269,0.6,0.6v0.8c0,0.331-0.269,0.6-0.6,0.6H12.6c-0.331,0-0.6-0.269-0.6-0.6V21.6z M8,15.6C8,15.269,8.269,15,8.6,15
	h0.8c0.331,0,0.6,0.269,0.6,0.6v0.8c0,0.331-0.269,0.6-0.6,0.6H8.6C8.269,17,8,16.731,8,16.4V15.6z M8.6,21
	C8.269,21,8,21.269,8,21.6v0.8C8,22.731,8.269,23,8.6,23h0.8c0.331,0,0.6-0.269,0.6-0.6v-0.8c0-0.331-0.269-0.6-0.6-0.6H8.6z"/>
<circle id="focus" class="st2" cx="16" cy="16" r="15.5"/>
</svg>
