<?xml version="1.0" encoding="utf-8"?>
<!-- Generator: Adobe Illustrator 24.0.1, SVG Export Plug-In . SVG Version: 6.00 Build 0)  -->
<svg version="1.1" id="Layer_1" xmlns="http://www.w3.org/2000/svg" xmlns:xlink="http://www.w3.org/1999/xlink" x="0px" y="0px"
	 viewBox="0 0 32 32" style="enable-background:new 0 0 32 32;" xml:space="preserve">
<style type="text/css">
	.st0{fill:none;}
	.st1{opacity:0.9;fill-rule:evenodd;clip-rule:evenodd;fill:#333333;enable-background:new    ;}
	.st2{fill:#333333;}
	.st3{fill:none;stroke:#2E3D98;}
</style>
<circle id="state" class="st0" cx="16" cy="16" r="14"/>
<g id="metaphor">
	<path class="st1" d="M12.086,15.286l-2.929,2.929L8,24l5.784-1.157l2.93-2.93L12.086,15.286z M19.065,17.563l-1.502,1.502
		l-4.628-4.628l1.503-1.503L19.065,17.563z M19.913,16.714l0.813-0.813l-4.628-4.628l-0.813,0.813L19.913,16.714z M23.046,13.581
		c1.275-1.275,1.272-3.343-0.006-4.621c-1.278-1.278-3.347-1.281-4.621-0.006l-1.163,1.163l4.628,4.628L23.046,13.581z"/>
	<path class="st2" d="M9.06,8C8.85,8,8.645,8.063,8.471,8.18c-0.174,0.117-0.31,0.282-0.39,0.476C8.001,8.85,7.979,9.063,8.02,9.269
		c0.041,0.206,0.142,0.395,0.29,0.543l13.876,13.876c0.201,0.191,0.468,0.295,0.744,0.292c0.277-0.003,0.541-0.115,0.737-0.311
		c0.196-0.196,0.307-0.46,0.311-0.737c0.003-0.277-0.101-0.544-0.292-0.744L9.811,8.311c-0.099-0.099-0.216-0.177-0.344-0.23
		C9.338,8.027,9.2,8,9.06,8z"/>
</g>
<circle id="focus" class="st3" cx="16" cy="16" r="15.5"/>
</svg>
