<?xml version="1.0" encoding="utf-8"?>
<!-- Generator: Adobe Illustrator 24.0.1, SVG Export Plug-In . SVG Version: 6.00 Build 0)  -->
<svg version="1.1" id="Layer_1" xmlns="http://www.w3.org/2000/svg" xmlns:xlink="http://www.w3.org/1999/xlink" x="0px" y="0px"
	 viewBox="0 0 32 32" style="enable-background:new 0 0 32 32;" xml:space="preserve">
<style type="text/css">
	.st0{fill:none;}
	.st1{fill-rule:evenodd;clip-rule:evenodd;fill:#333333;}
	.st2{fill:none;stroke:#2E3D98;}
</style>
<circle id="state" class="st0" cx="16" cy="16" r="14"/>
<path id="metaphor" class="st1" d="M17.587,9.517l1.42,2.877l3.176,0.461c1.491,0.218,2.095,2.054,1.009,3.111l-0.001,0.001
	l-2.296,2.238l0.542,3.162c0.255,1.486-1.306,2.629-2.647,1.922l-2.838-1.492l-2.839,1.493c-1.336,0.702-2.904-0.431-2.646-1.924
	l0-0.002l0.542-3.159L8.716,15.97l-0.003-0.003c-1.089-1.057-0.484-2.894,1.006-3.112l3.176-0.461l1.421-2.88
	C14.986,8.165,16.917,8.158,17.587,9.517z"/>
<circle id="focus" class="st2" cx="16" cy="16" r="15.5"/>
</svg>
