<?xml version="1.0" encoding="utf-8"?>
<!-- Generator: Adobe Illustrator 24.0.1, SVG Export Plug-In . SVG Version: 6.00 Build 0)  -->
<svg version="1.1" id="Layer_1" xmlns="http://www.w3.org/2000/svg" xmlns:xlink="http://www.w3.org/1999/xlink" x="0px" y="0px"
	 viewBox="0 0 32 32" style="enable-background:new 0 0 32 32;" xml:space="preserve">
<style type="text/css">
	.st0{fill:none;}
	.st1{fill-rule:evenodd;clip-rule:evenodd;fill:#333333;}
	.st2{opacity:0.8;fill-rule:evenodd;clip-rule:evenodd;fill:#333333;enable-background:new    ;}
	.st3{fill:none;stroke:#2E3D98;}
</style>
<circle id="state" class="st0" cx="16" cy="16" r="14"/>
<g id="metaphor">
	<path class="st1" d="M22.4,8H9.6C8.716,8,8,8.716,8,9.6v12.8C8,23.284,8.716,24,9.6,24h12.8c0.884,0,1.6-0.716,1.6-1.6V9.6
		C24,8.716,23.284,8,22.4,8z M13,9.5h9.5v13H13V9.5z M11.5,9.5l-2,0v13h2V9.5z"/>
	<path class="st2" d="M22.5,9.5H13v13h9.5v-6.125h-6.547l0.856,0.917c0.247,0.265,0.247,0.687,0,0.952
		c-0.256,0.275-0.679,0.275-0.935,0L13.5,15.7l2.373-2.544c0.256-0.275,0.679-0.275,0.935,0c0.247,0.265,0.247,0.687,0,0.952
		l-0.843,0.904H22.5V9.5z"/>
</g>
<circle id="focus" class="st3" cx="16" cy="16" r="15.5"/>
</svg>
