<?xml version="1.0" encoding="utf-8"?>
<!-- Generator: Adobe Illustrator 24.0.1, SVG Export Plug-In . SVG Version: 6.00 Build 0)  -->
<svg version="1.1" id="Layer_1" xmlns="http://www.w3.org/2000/svg" xmlns:xlink="http://www.w3.org/1999/xlink" x="0px" y="0px"
	 viewBox="0 0 32 32" style="enable-background:new 0 0 32 32;" xml:space="preserve">
<style type="text/css">
	.st0{fill:none;}
	.st1{fill:#333333;}
	.st2{fill:none;stroke:#2E3D98;}
</style>
<circle id="state" class="st0" cx="16" cy="16" r="14"/>
<g id="metaphor">
	<path class="st1" d="M20.149,25h-8.297C10.829,25,10,24.214,10,23.245V12h12v11.245C22,24.214,21.171,25,20.149,25z"/>
	<path class="st1" d="M21.576,8.5H18.5V7.667c0-0.46-0.373-0.833-0.833-0.833h-3.333c-0.46,0-0.833,0.373-0.833,0.833V8.5h-3.076
		c-0.603,0-1.091,0.488-1.091,1.091V11h13.333V9.591C22.667,8.988,22.178,8.5,21.576,8.5z M14.333,7.667h3.333V8.5h-3.333V7.667z"/>
</g>
<circle id="focus" class="st2" cx="16" cy="16" r="15.5"/>
</svg>
