<?xml version="1.0" encoding="utf-8"?>
<!-- Generator: Adobe Illustrator 19.1.0, SVG Export Plug-In . SVG Version: 6.00 Build 0)  -->
<svg version="1.1" id="Layer_1" xmlns="http://www.w3.org/2000/svg" xmlns:xlink="http://www.w3.org/1999/xlink" x="0px" y="0px"
	 viewBox="0 0 12 12" style="enable-background:new 0 0 12 12;" xml:space="preserve">
<style type="text/css">
	.st0{fill:#F3C020;}
	.st1{fill:#C86328;}
	.st2{fill:#AB5526;}
</style>
<g>
	<g>
		<circle class="st0" cx="6" cy="6" r="5.454"/>
		<path class="st1" d="M6,12c-3.308,0-6-2.692-6-6s2.692-6,6-6s6,2.692,6,6S9.308,12,6,12z M6,1.091
			C3.293,1.091,1.091,3.293,1.091,6S3.293,10.909,6,10.909S10.909,8.707,10.909,6S8.707,1.091,6,1.091z"/>
	</g>
	<g>
		<path class="st2" d="M8.58,8.18c-0.1,0.18-0.29,0.29-0.49,0.29C8,8.47,7.815,8.44,7.735,8.4L5,6.93V3.2c0-0.3,0.19-0.56,0.5-0.56
			S6,2.9,6,3.2v3.07l2.215,1.15c0.13,0.07,0.303,0.19,0.343,0.33C8.597,7.9,8.65,8.05,8.58,8.18z"/>
	</g>
</g>
</svg>
