<svg xmlns="http://www.w3.org/2000/svg" viewBox="0 0 48 48"><title>chat_profile48_mo</title><path d="M24,5a6.007,6.007,0,0,1,6,6v8a6.007,6.007,0,0,1-6,6H15.2l-.578.547L10,29.922V25H8a6.007,6.007,0,0,1-6-6V11A6.007,6.007,0,0,1,8,5H24m0-2H8a8,8,0,0,0-8,8v8a8,8,0,0,0,8,8v4.324C8,32.415,8.408,33,9.03,33a2.2,2.2,0,0,0,1.394-.725L16,27h8a8,8,0,0,0,8-8V11a8,8,0,0,0-8-8Z" fill="#fff"/><path d="M40,15H34v2h6a6.007,6.007,0,0,1,6,6v8a6.007,6.007,0,0,1-6,6H38v4.922l-4.626-4.375L32.8,37H24a5.977,5.977,0,0,1-5.862-4.809V29h-2v3.376A7.987,7.987,0,0,0,24,39h8l5.576,5.274A2.2,2.2,0,0,0,38.971,45C39.592,45,40,44.416,40,43.324V39a8,8,0,0,0,8-8V23A8,8,0,0,0,40,15Z" fill="#fff"/></svg>