<?xml version="1.0" encoding="utf-8"?>
<!-- Generator: Adobe Illustrator 17.1.0, SVG Export Plug-In . SVG Version: 6.00 Build 0)  -->
<!DOCTYPE svg PUBLIC "-//W3C//DTD SVG 1.1//EN" "http://www.w3.org/Graphics/SVG/1.1/DTD/svg11.dtd">
<svg version="1.1" id="Layer_1" xmlns="http://www.w3.org/2000/svg" xmlns:xlink="http://www.w3.org/1999/xlink" x="0px" y="0px"
	 viewBox="0 0 32 32" enable-background="new 0 0 32 32" xml:space="preserve">
<g>
	<g>
		<g>
			<path fill="#0072AA" d="M32,28c0,2.2-1.8,4-4,4H4c-2.2,0-4-1.8-4-4V4c0-2.2,1.8-4,4-4h24c2.2,0,4,1.8,4,4V28z"/>
		</g>
	</g>
	<path fill="#FFFFFF" d="M27,9.131c-0.815,0.361-1.691,0.606-2.61,0.716c0.938-0.562,1.659-1.453,1.998-2.514
		c-0.878,0.521-1.85,0.899-2.886,1.103C22.674,7.552,21.493,7,20.186,7c-2.51,0-4.544,2.035-4.544,4.544
		c0,0.356,0.04,0.703,0.118,1.036c-3.777-0.189-7.125-1.999-9.366-4.748c-0.391,0.671-0.615,1.452-0.615,2.285
		c0,1.576,0.802,2.967,2.022,3.782c-0.745-0.024-1.446-0.228-2.058-0.568c0,0.019,0,0.038,0,0.057c0,2.202,1.566,4.038,3.645,4.456
		c-0.381,0.104-0.783,0.159-1.197,0.159c-0.293,0-0.577-0.028-0.855-0.081c0.578,1.805,2.256,3.119,4.245,3.156
		c-1.555,1.219-3.515,1.945-5.644,1.945c-0.367,0-0.729-0.022-1.084-0.063C6.862,24.248,9.251,25,11.817,25
		c8.358,0,12.929-6.924,12.929-12.929c0-0.197-0.004-0.393-0.013-0.588C25.62,10.842,26.391,10.042,27,9.131z"/>
</g>
</svg>
