<?xml version="1.0" encoding="utf-8"?>
<!-- Generator: Adobe Illustrator 19.1.0, SVG Export Plug-In . SVG Version: 6.00 Build 0)  -->
<svg version="1.1" id="Layer_1" xmlns="http://www.w3.org/2000/svg" xmlns:xlink="http://www.w3.org/1999/xlink" x="0px" y="0px"
	 viewBox="0 0 12 12" style="enable-background:new 0 0 12 12;" xml:space="preserve">
<style type="text/css">
	.st0{fill:#FFFFFF;}
	.st1{fill:#595959;}
	.st2{fill:#333333;}
</style>
<g>
	<g>
		<circle class="st0" cx="6" cy="6" r="5.454"/>
		<path class="st1" d="M6,12c-3.308,0-6-2.692-6-6s2.692-6,6-6s6,2.692,6,6S9.308,12,6,12z M6,1.091
			C3.293,1.091,1.091,3.293,1.091,6S3.293,10.909,6,10.909S10.909,8.707,10.909,6S8.707,1.091,6,1.091z"/>
	</g>
	<g>
		<g>
			<path class="st2" d="M4.101,3.088C4.212,2.99,4.334,2.896,4.467,2.807c0.133-0.089,0.277-0.166,0.431-0.232
				C5.053,2.51,5.22,2.458,5.401,2.42c0.18-0.038,0.376-0.057,0.586-0.057c0.286,0,0.546,0.039,0.781,0.118
				C7.003,2.561,7.205,2.673,7.372,2.82c0.168,0.146,0.297,0.322,0.389,0.53c0.092,0.207,0.138,0.438,0.138,0.695
				c0,0.25-0.036,0.466-0.109,0.648C7.719,4.874,7.628,5.033,7.517,5.167c-0.11,0.135-0.229,0.251-0.357,0.35
				c-0.128,0.099-0.25,0.192-0.365,0.279C6.68,5.883,6.581,5.968,6.498,6.052C6.414,6.135,6.364,6.23,6.347,6.335L6.234,7.054H5.401
				L5.317,6.251C5.314,6.235,5.313,6.221,5.313,6.21c0-0.012,0-0.026,0-0.042c0-0.144,0.036-0.27,0.108-0.377
				c0.072-0.107,0.162-0.207,0.271-0.3C5.8,5.396,5.917,5.305,6.042,5.217c0.125-0.089,0.241-0.185,0.35-0.288
				C6.5,4.825,6.59,4.707,6.662,4.576C6.735,4.445,6.771,4.29,6.771,4.113c0-0.118-0.022-0.224-0.067-0.318
				C6.66,3.701,6.599,3.621,6.52,3.553C6.441,3.486,6.346,3.435,6.237,3.398c-0.11-0.036-0.229-0.054-0.357-0.054
				c-0.187,0-0.346,0.021-0.476,0.062c-0.13,0.041-0.24,0.087-0.33,0.138C4.983,3.595,4.907,3.641,4.844,3.682
				C4.782,3.723,4.726,3.743,4.677,3.743c-0.118,0-0.204-0.049-0.256-0.148L4.101,3.088z M5.032,8.897
				c0-0.102,0.019-0.199,0.057-0.291C5.126,8.515,5.179,8.436,5.246,8.37c0.067-0.066,0.147-0.118,0.239-0.158
				c0.092-0.04,0.19-0.059,0.296-0.059c0.102,0,0.198,0.02,0.291,0.059C6.163,8.252,6.242,8.304,6.308,8.37
				c0.065,0.066,0.118,0.145,0.158,0.237c0.039,0.092,0.059,0.189,0.059,0.291c0,0.105-0.02,0.203-0.059,0.293
				c-0.039,0.09-0.092,0.168-0.158,0.234C6.242,9.49,6.163,9.542,6.071,9.58C5.979,9.617,5.882,9.636,5.781,9.636
				c-0.105,0-0.204-0.019-0.296-0.057C5.393,9.542,5.313,9.49,5.246,9.425C5.179,9.359,5.126,9.281,5.088,9.19
				C5.05,9.1,5.032,9.002,5.032,8.897z"/>
		</g>
	</g>
</g>
</svg>
