<?xml version="1.0" encoding="utf-8"?>
<!-- Generator: Adobe Illustrator 17.1.0, SVG Export Plug-In . SVG Version: 6.00 Build 0)  -->
<!DOCTYPE svg PUBLIC "-//W3C//DTD SVG 1.1//EN" "http://www.w3.org/Graphics/SVG/1.1/DTD/svg11.dtd">
<svg version="1.1" id="Layer_1" xmlns="http://www.w3.org/2000/svg" xmlns:xlink="http://www.w3.org/1999/xlink" x="0px" y="0px"
	 viewBox="0 0 24 24" enable-background="new 0 0 24 24" xml:space="preserve">
<g>
	<g>
		<path fill="#333333" d="M23.468,24c-0.136,0-0.272-0.052-0.376-0.156l-6.779-6.779c-0.208-0.208-0.208-0.544,0-0.752
			c0.208-0.208,0.544-0.208,0.752,0l6.779,6.779c0.208,0.208,0.208,0.544,0,0.752C23.74,23.948,23.604,24,23.468,24z"/>
	</g>
	<g>
		<path fill="#333333" d="M9.733,19.468C4.366,19.468,0,15.101,0,9.734S4.366,0,9.733,0s9.734,4.367,9.734,9.734
			S15.1,19.468,9.733,19.468z M9.733,1.063c-4.78,0-8.67,3.89-8.67,8.671s3.89,8.671,8.67,8.671c4.782,0,8.671-3.89,8.671-8.671
			S14.515,1.063,9.733,1.063z"/>
	</g>
</g>
<path fill="#333333" d="M14.887,12.551c-0.088-0.593-0.897-1.097-1.673-1.461c0.001-0.001,0.002-0.002,0.003-0.003
	c-0.012-0.004-0.026-0.009-0.038-0.014c-0.631-0.293-1.231-0.492-1.394-0.569c-0.286-0.135-0.569-0.548-0.681-0.779
	c-0.021-0.059-0.04-0.111-0.053-0.15c-0.001-0.035-0.016-0.095-0.035-0.168c-0.009-0.134-0.011-0.393,0.092-0.547
	c0.023-0.035,0.069-0.21,0.12-0.425c0.087-0.267,0.134-0.555,0.134-0.555s0.113-0.259,0.339-0.576
	c0.225-0.317,0.224-1.122,0.028-1.096c-0.033,0.004-0.049,0.021-0.071,0.034c-0.024-0.023-0.049-0.036-0.073-0.044
	c0.006-0.077,0.016-0.175,0.031-0.248c0.063-0.294,0.095-1.792,0.067-1.964c-0.028-0.173-0.222-0.53-0.783-0.789
	c-0.087-0.04-0.357-0.096-0.675-0.138c-0.17-0.029-0.356-0.051-0.58-0.057C9.599,3,9.549,3.001,9.5,3.002
	C9.451,3.001,9.401,3,9.355,3.001c-0.224,0.006-0.41,0.028-0.58,0.057C8.458,3.1,8.187,3.155,8.1,3.195
	C7.54,3.455,7.346,3.811,7.318,3.985c-0.028,0.173,0.004,1.67,0.067,1.964C7.4,6.022,7.41,6.121,7.416,6.198
	C7.392,6.206,7.367,6.219,7.343,6.242c-0.022-0.013-0.038-0.03-0.071-0.034C7.076,6.182,7.074,6.987,7.3,7.304
	C7.526,7.621,7.638,7.88,7.638,7.88s0.048,0.288,0.134,0.555C7.823,8.65,7.869,8.826,7.893,8.86
	c0.103,0.154,0.101,0.413,0.092,0.547C7.966,9.48,7.951,9.541,7.95,9.575c-0.014,0.039-0.032,0.091-0.053,0.15
	c-0.112,0.231-0.396,0.644-0.682,0.779c-0.163,0.077-0.764,0.276-1.394,0.569c-0.012,0.005-0.026,0.01-0.038,0.014
	c0.001,0.001,0.002,0.002,0.003,0.003C5.01,11.454,4.2,11.958,4.113,12.551C4.035,13.077,4,13.589,4,13.589
	C4,14.368,4.616,15,5.375,15h8.25C14.384,15,15,14.368,15,13.589C15,13.589,14.965,13.077,14.887,12.551z"/>
</svg>
