<?xml version="1.0" encoding="utf-8"?>
<!-- Generator: Adobe Illustrator 24.0.1, SVG Export Plug-In . SVG Version: 6.00 Build 0)  -->
<svg version="1.1" id="Layer_1" xmlns="http://www.w3.org/2000/svg" xmlns:xlink="http://www.w3.org/1999/xlink" x="0px" y="0px"
	 viewBox="0 0 32 32" style="enable-background:new 0 0 32 32;" xml:space="preserve">
<style type="text/css">
	.st0{fill:none;}
	.st1{fill-rule:evenodd;clip-rule:evenodd;fill:#333333;}
	.st2{fill:none;stroke:#2E3D98;}
</style>
<circle id="state" class="st0" cx="16" cy="16" r="14"/>
<path id="metaphor" class="st1" d="M10.4,9.5h11.2c0.497,0,0.9,0.403,0.9,0.9v11.2c0,0.497-0.403,0.9-0.9,0.9H10.4
	c-0.497,0-0.9-0.403-0.9-0.9V10.4C9.5,9.903,9.903,9.5,10.4,9.5z M8,10.4C8,9.075,9.075,8,10.4,8h11.2c1.326,0,2.4,1.075,2.4,2.4
	v11.2c0,1.326-1.074,2.4-2.4,2.4H10.4C9.075,24,8,22.926,8,21.6V10.4z M15.6,11c-0.331,0-0.6,0.269-0.6,0.6v1
	c0,0.331,0.269,0.6,0.6,0.6h4.8c0.331,0,0.6-0.269,0.6-0.6v-1c0-0.331-0.269-0.6-0.6-0.6H15.6z M13,15.4c0-0.331,0.269-0.6,0.6-0.6
	h6.8c0.331,0,0.6,0.269,0.6,0.6v1.2c0,0.331-0.269,0.6-0.6,0.6h-6.8c-0.331,0-0.6-0.269-0.6-0.6V15.4z M15.6,18.8
	c-0.331,0-0.6,0.269-0.6,0.6v1c0,0.331,0.269,0.6,0.6,0.6h4.8c0.331,0,0.6-0.269,0.6-0.6v-1c0-0.331-0.269-0.6-0.6-0.6H15.6z"/>
<circle id="focus" class="st2" cx="16" cy="16" r="15.5"/>
</svg>
