<?xml version="1.0" encoding="utf-8"?>
<!-- Generator: Adobe Illustrator 24.0.1, SVG Export Plug-In . SVG Version: 6.00 Build 0)  -->
<svg version="1.1" id="Layer_1" xmlns="http://www.w3.org/2000/svg" xmlns:xlink="http://www.w3.org/1999/xlink" x="0px" y="0px"
	 viewBox="0 0 32 32" style="enable-background:new 0 0 32 32;" xml:space="preserve">
<style type="text/css">
	.st0{fill:none;}
	.st1{fill:#FFFFFF;filter:url(#Adobe_OpacityMaskFilter);}
	.st2{mask:url(#path-4-inside-1_1_);fill:none;stroke:#333333;stroke-width:3;}
	.st3{fill:#333333;}
	.st4{fill:none;stroke:#2E3D98;}
</style>
<circle id="state" class="st0" cx="16" cy="16" r="14"/>
<g id="metaphor">
	<defs>
		<filter id="Adobe_OpacityMaskFilter" filterUnits="userSpaceOnUse" x="6.5" y="7.5" width="19" height="17">
			<feColorMatrix  type="matrix" values="1 0 0 0 0  0 1 0 0 0  0 0 1 0 0  0 0 0 1 0"/>
		</filter>
	</defs>
	<mask maskUnits="userSpaceOnUse" x="6.5" y="7.5" width="19" height="17" id="path-4-inside-1_1_">
		<path class="st1" d="M9,9h14c0.552,0,1,0.448,1,1v12c0,0.552-0.448,1-1,1H9c-0.552,0-1-0.448-1-1V10C8,9.448,8.448,9,9,9z"/>
	</mask>
	<path class="st2" d="M9,9h14c0.552,0,1,0.448,1,1v12c0,0.552-0.448,1-1,1H9c-0.552,0-1-0.448-1-1V10C8,9.448,8.448,9,9,9z"/>
	<rect x="9" y="14" class="st3" width="14" height="1"/>
	<rect x="9" y="18" class="st3" width="14" height="1"/>
</g>
<circle id="focus" class="st4" cx="16" cy="16" r="15.5"/>
</svg>
