<?xml version="1.0" encoding="utf-8"?>
<!-- Generator: Adobe Illustrator 24.0.1, SVG Export Plug-In . SVG Version: 6.00 Build 0)  -->
<svg version="1.1" id="Layer_1" xmlns="http://www.w3.org/2000/svg" xmlns:xlink="http://www.w3.org/1999/xlink" x="0px" y="0px"
	 viewBox="0 0 32 32" style="enable-background:new 0 0 32 32;" xml:space="preserve">
<style type="text/css">
	.st0{fill:none;}
	.st1{fill:#333333;}
	.st2{fill:none;stroke:#2E3D98;}
</style>
<circle id="state" class="st0" cx="16" cy="16" r="14"/>
<path id="metaphor" class="st1" d="M24.889,9.768c-0.312-1.295-1.362-2.346-2.657-2.657C21.921,7.035,21.615,7,21.318,7
	c-1.104,0-2.086,0.488-2.757,1.26l-2.119,2.119c-0.979,0.85-1.503,2.205-1.15,3.67c0.091,0.375,0.249,0.726,0.452,1.049
	l-0.645,0.645c-0.322-0.203-0.673-0.362-1.049-0.452c-0.311-0.075-0.617-0.11-0.914-0.11c-1.104,0-2.086,0.488-2.756,1.26
	L8.26,18.561c-0.979,0.85-1.503,2.205-1.15,3.67c0.312,1.296,1.362,2.347,2.657,2.658C10.078,24.965,10.384,25,10.682,25
	c1.104,0,2.086-0.489,2.756-1.26l2.119-2.119c0.979-0.85,1.503-2.205,1.15-3.67c-0.091-0.375-0.249-0.726-0.452-1.049l0.645-0.645
	c0.322,0.203,0.673,0.361,1.049,0.452c0.311,0.075,0.617,0.11,0.914,0.11c1.104,0,2.086-0.488,2.757-1.26l2.119-2.119
	C24.718,12.588,25.243,11.233,24.889,9.768z M15.117,18.333c0.187,0.778-0.049,1.545-0.633,2.052l-0.043,0.038L14.4,20.464
	l-2.119,2.119l-0.041,0.041l-0.038,0.043c-0.39,0.449-0.93,0.696-1.521,0.696c-0.174,0-0.352-0.022-0.53-0.065
	c-0.699-0.168-1.282-0.751-1.45-1.45c-0.187-0.778,0.049-1.546,0.632-2.052l0.043-0.038l0.041-0.041l2.119-2.119l0.041-0.041
	l0.038-0.043c0.389-0.45,0.929-0.697,1.52-0.697c0.174,0,0.352,0.022,0.53,0.065c0.074,0.018,0.139,0.057,0.21,0.083l-1.727,1.727
	c-0.32,0.32-0.32,0.837,0,1.157c0.159,0.16,0.369,0.24,0.578,0.24c0.209,0,0.419-0.08,0.578-0.24l1.727-1.727
	C15.06,18.194,15.099,18.26,15.117,18.333z M22.666,12.203l-0.043,0.038l-0.041,0.041l-2.119,2.119l-0.041,0.041l-0.038,0.043
	c-0.39,0.45-0.93,0.697-1.521,0.697c-0.173,0-0.352-0.022-0.53-0.065c-0.074-0.018-0.139-0.057-0.209-0.083l1.727-1.727
	c0.32-0.32,0.32-0.837,0-1.157c-0.32-0.32-0.837-0.32-1.157,0l-1.727,1.727c-0.026-0.07-0.066-0.136-0.083-0.209
	c-0.187-0.778,0.049-1.546,0.632-2.052l0.043-0.038l0.041-0.041l2.119-2.119l0.041-0.041l0.038-0.043
	c0.389-0.45,0.929-0.697,1.52-0.697c0.173,0,0.352,0.022,0.53,0.065c0.699,0.169,1.282,0.751,1.45,1.45
	C23.486,10.93,23.25,11.696,22.666,12.203z"/>
<circle id="focus" class="st2" cx="16" cy="16" r="15.5"/>
</svg>
