<?xml version="1.0" encoding="utf-8"?>
<!-- Generator: Adobe Illustrator 18.1.1, SVG Export Plug-In . SVG Version: 6.00 Build 0)  -->
<!DOCTYPE svg PUBLIC "-//W3C//DTD SVG 1.1//EN" "http://www.w3.org/Graphics/SVG/1.1/DTD/svg11.dtd">
<svg version="1.1" id="Layer_1" xmlns="http://www.w3.org/2000/svg" xmlns:xlink="http://www.w3.org/1999/xlink" x="0px" y="0px"
	 width="30px" height="30px" viewBox="0 0 30 30" enable-background="new 0 0 30 30" xml:space="preserve">
<g>
	<g>
		<path fill="#231F20" d="M15,30C6.729,30,0,23.27,0,15S6.729,0,15,0c8.271,0,15,6.729,15,15S23.271,30,15,30z M15,1.035
			C7.299,1.035,1.034,7.299,1.034,15S7.299,28.964,15,28.964S28.966,22.7,28.966,15S22.701,1.035,15,1.035z"/>
	</g>
	<path fill="#231F20" d="M15.731,15l4.548-4.547c0.202-0.202,0.202-0.53,0-0.732c-0.202-0.202-0.528-0.203-0.731,0L15,14.268
		L10.451,9.72c-0.202-0.203-0.529-0.201-0.731,0c-0.202,0.202-0.202,0.53,0,0.732L14.269,15l-4.548,4.547
		c-0.202,0.202-0.202,0.53,0,0.732c0.101,0.101,0.233,0.152,0.366,0.152c0.132,0,0.264-0.05,0.365-0.152L15,15.731l4.549,4.548
		c0.101,0.101,0.233,0.152,0.365,0.152c0.133,0,0.265-0.051,0.366-0.152c0.202-0.202,0.202-0.53,0-0.732L15.731,15z"/>
</g>
</svg>
