<?xml version="1.0" encoding="utf-8"?>
<!-- Generator: Adobe Illustrator 19.1.0, SVG Export Plug-In . SVG Version: 6.00 Build 0)  -->
<!DOCTYPE svg PUBLIC "-//W3C//DTD SVG 1.1//EN" "http://www.w3.org/Graphics/SVG/1.1/DTD/svg11.dtd">
<svg version="1.1" id="Layer_1" xmlns="http://www.w3.org/2000/svg" xmlns:xlink="http://www.w3.org/1999/xlink" x="0px" y="0px"
	 viewBox="-379 291 32 32" enable-background="new -379 291 32 32" xml:space="preserve">
<g>
	<path fill="#FFFFFF" d="M-363,291c-8.837,0-16,7.163-16,16s7.163,16,16,16s16-7.163,16-16S-354.163,291-363,291z M-361.519,314.884
		c-0.089,0.204-0.207,0.379-0.355,0.528c-0.148,0.148-0.326,0.265-0.533,0.35c-0.207,0.085-0.426,0.128-0.655,0.128
		c-0.237,0-0.46-0.043-0.667-0.128c-0.207-0.085-0.387-0.202-0.539-0.35c-0.152-0.148-0.27-0.324-0.355-0.528
		c-0.085-0.204-0.128-0.424-0.128-0.661c0-0.229,0.043-0.448,0.128-0.655c0.085-0.207,0.204-0.385,0.355-0.533
		c0.152-0.148,0.332-0.266,0.539-0.355c0.207-0.089,0.429-0.133,0.667-0.133c0.23,0,0.448,0.044,0.655,0.133
		c0.207,0.089,0.385,0.207,0.533,0.355s0.266,0.326,0.355,0.533c0.089,0.207,0.133,0.426,0.133,0.655
		C-361.385,314.46-361.43,314.68-361.519,314.884z M-358.529,304.739c-0.163,0.411-0.369,0.769-0.617,1.072
		c-0.248,0.304-0.517,0.567-0.806,0.789c-0.289,0.222-0.563,0.431-0.822,0.628c-0.259,0.197-0.483,0.389-0.672,0.578
		c-0.189,0.189-0.302,0.402-0.339,0.639l-0.256,1.622h-1.878l-0.189-1.811c-0.007-0.037-0.011-0.068-0.011-0.094s0-0.057,0-0.095
		c0-0.326,0.081-0.609,0.244-0.85s0.367-0.467,0.611-0.678c0.244-0.211,0.507-0.417,0.789-0.617c0.281-0.2,0.544-0.417,0.789-0.65
		c0.244-0.234,0.448-0.498,0.611-0.795c0.163-0.296,0.244-0.645,0.244-1.044c0-0.267-0.05-0.506-0.15-0.717
		c-0.1-0.211-0.239-0.393-0.417-0.545c-0.178-0.151-0.391-0.268-0.639-0.35c-0.248-0.082-0.517-0.122-0.806-0.122
		c-0.422,0-0.78,0.046-1.072,0.139c-0.293,0.093-0.541,0.197-0.744,0.311c-0.204,0.115-0.376,0.219-0.516,0.311
		c-0.141,0.092-0.267,0.139-0.378,0.139c-0.266,0-0.459-0.111-0.578-0.333l-0.722-1.145c0.253-0.221,0.529-0.432,0.829-0.632
		c0.3-0.2,0.624-0.374,0.972-0.522c0.348-0.148,0.726-0.265,1.134-0.35c0.407-0.085,0.848-0.128,1.322-0.128
		c0.645,0,1.231,0.089,1.761,0.266c0.53,0.178,0.983,0.432,1.361,0.761c0.378,0.329,0.67,0.728,0.878,1.194
		c0.207,0.467,0.311,0.989,0.311,1.566C-358.285,303.841-358.367,304.328-358.529,304.739z"/>
</g>
</svg>
