<?xml version="1.0" encoding="utf-8"?>
<!-- Generator: Adobe Illustrator 19.1.0, SVG Export Plug-In . SVG Version: 6.00 Build 0)  -->
<!DOCTYPE svg PUBLIC "-//W3C//DTD SVG 1.1//EN" "http://www.w3.org/Graphics/SVG/1.1/DTD/svg11.dtd">
<svg version="1.1" id="Layer_1" xmlns="http://www.w3.org/2000/svg" xmlns:xlink="http://www.w3.org/1999/xlink" x="0px" y="0px"
	 viewBox="-379 291 32 32" enable-background="new -379 291 32 32" xml:space="preserve">
<g>
	<path fill="#FFFFFF" d="M-363,291c-8.837,0-16,7.163-16,16s7.163,16,16,16s16-7.163,16-16S-354.163,291-363,291z M-361,315
		c0,1.1-0.9,2-2,2s-2-0.9-2-2v-10c0-1.1,0.9-2,2-2s2,0.9,2,2V315z M-363,300c-1.105,0-2-0.895-2-2s0.895-2,2-2s2,0.895,2,2
		S-361.895,300-363,300z"/>
</g>
</svg>
