<svg width="24" height="24" viewBox="0 0 24 24" fill="none" xmlns="http://www.w3.org/2000/svg">
<path d="M12 24C5.373 24 0 18.627 0 12C0 5.373 5.373 0 12 0C18.627 0 24 5.373 24 12C23.993 18.624 18.624 23.993 12 24Z" fill="#CD3632"/>
<path d="M15.639 18.9679H8.31299C7.32799 18.9199 6.55999 18.0959 6.58099 17.1099V6.64894C6.58399 5.75094 7.31499 5.02594 8.21299 5.02894C8.24599 5.02894 8.27999 5.02994 8.31299 5.03194H14.918L17.419 7.73594V17.1089C17.415 18.1039 16.632 18.9209 15.639 18.9679Z" fill="white"/>
<path d="M12.439 11.155C13.011 10.773 13.507 10.43 13.507 9.78201C13.507 9.17201 13.011 8.60001 12.019 8.60001C11.224 8.57801 10.474 8.96701 10.036 9.63001L9.38696 8.94201C10.048 8.10301 11.065 7.62301 12.133 7.64501C13.659 7.64501 14.61 8.52201 14.61 9.59101C14.61 10.66 13.885 11.155 13.199 11.612C12.665 11.994 12.169 12.299 12.169 12.871C12.181 13.117 12.308 13.343 12.512 13.481L11.749 13.824C11.437 13.573 11.255 13.195 11.253 12.794C11.218 11.994 11.867 11.574 12.439 11.155ZM12 14.613C12.481 14.613 12.871 15.003 12.871 15.484C12.871 15.965 12.481 16.355 12 16.355C11.519 16.355 11.129 15.965 11.129 15.484C11.127 15.005 11.513 14.615 11.992 14.613C11.995 14.613 11.997 14.613 12 14.613Z" fill="#CD3632"/>
</svg>
