<?xml version="1.0" encoding="utf-8"?>
<!-- Generator: Adobe Illustrator 23.0.0, SVG Export Plug-In . SVG Version: 6.00 Build 0)  -->
<svg version="1.1" id="Layer_1" xmlns="http://www.w3.org/2000/svg" xmlns:xlink="http://www.w3.org/1999/xlink" x="0px" y="0px"
	 viewBox="0 0 24 24" style="enable-background:new 0 0 24 24;" xml:space="preserve">
<style type="text/css">
	.st0{fill-rule:evenodd;clip-rule:evenodd;fill:#627783;}
</style>
<path class="st0" d="M7.511,21.3v-3.547c-2.479,0-4.489-1.985-4.489-4.433V9.773c0-2.448,2.01-4.433,4.489-4.433h8.977
	c2.479,0,4.489,1.985,4.489,4.433v3.547c0,2.448-2.01,4.433-4.489,4.433h-5.386L7.511,21.3z M11.842,19.553h4.647
	c3.452,0,6.289-2.77,6.289-6.233V9.773c0-3.464-2.837-6.233-6.289-6.233H7.511c-3.452,0-6.289,2.77-6.289,6.233v3.547
	c0,2.837,1.903,5.208,4.489,5.974V21.3c0,0.726,0.436,1.381,1.106,1.661c0.67,0.28,1.442,0.13,1.959-0.38L11.842,19.553z"/>
</svg>
