<?xml version="1.0" encoding="utf-8"?>
<!-- Generator: Adobe Illustrator 19.1.0, SVG Export Plug-In . SVG Version: 6.00 Build 0)  -->
<!DOCTYPE svg PUBLIC "-//W3C//DTD SVG 1.1//EN" "http://www.w3.org/Graphics/SVG/1.1/DTD/svg11.dtd">
<svg version="1.1" id="Layer_1" xmlns="http://www.w3.org/2000/svg" xmlns:xlink="http://www.w3.org/1999/xlink" x="0px" y="0px"
	 viewBox="0 0 14 14" enable-background="new 0 0 14 14" xml:space="preserve">
<g id="Inherit_icon">
	<path fill="#F7F7F7" d="M7,0C3.134,0,0,3.134,0,7c0,3.866,3.134,7,7,7s7-3.134,7-7C14,3.134,10.866,0,7,0z M7,13
		c-3.308,0-6-2.692-6-6c0-1.475,0.537-2.824,1.423-3.87l5.995,5.995H4.375c-0.276,0-0.5,0.224-0.5,0.5s0.224,0.5,0.5,0.5h5.75v-5.75
		c0-0.276-0.224-0.5-0.5-0.5s-0.5,0.224-0.5,0.5v4.043L3.13,2.423C4.176,1.537,5.525,1,7,1c3.308,0,6,2.692,6,6S10.308,13,7,13z"/>
</g>
<path fill-rule="evenodd" clip-rule="evenodd" fill="#0072AA" fill-opacity="0.95" d="M7,1C5.525,1,4.176,1.537,3.13,2.423
	l5.995,5.995V4.375c0-0.276,0.224-0.5,0.5-0.5s0.5,0.224,0.5,0.5v5.75h-5.75c-0.276,0-0.5-0.224-0.5-0.5s0.224-0.5,0.5-0.5h4.043
	L2.423,3.13C1.537,4.176,1,5.525,1,7c0,3.308,2.692,6,6,6s6-2.692,6-6S10.308,1,7,1z"/>
</svg>
