<?xml version="1.0" encoding="utf-8"?>
<!-- Generator: Adobe Illustrator 19.1.0, SVG Export Plug-In . SVG Version: 6.00 Build 0)  -->
<svg version="1.1" xmlns="http://www.w3.org/2000/svg" xmlns:xlink="http://www.w3.org/1999/xlink" x="0px" y="0px"
	 viewBox="0 0 14 14" enable-background="new 0 0 14 14" xml:space="preserve">
<g id="Layer_2" display="none">
</g>
<g id="Layer_1">
</g>
<g id="Layer_3">
</g>
<g id="Layer_4">
</g>
<g id="Layer_5">
	<g id="Inherit_icon">
		<g>
			<path fill="#7BB932" d="M5.115,13.5C2.57,13.5,0.5,11.43,0.5,8.885v-3.77C0.5,2.57,2.57,0.5,5.115,0.5H13.5v8.385
				c0,2.545-2.07,4.615-4.615,4.615H5.115z"/>
			<path fill="#3E6028" d="M13,1v7.885C13,11.154,11.154,13,8.885,13H5.115C2.846,13,1,11.154,1,8.885V5.115
				C1,2.846,2.846,1,5.115,1H13 M14,0H5.115C2.29,0,0,2.29,0,5.115v3.769C0,11.71,2.29,14,5.115,14h3.769
				C11.71,14,14,11.71,14,8.885V0L14,0z"/>
		</g>
	</g>
</g>
</svg>
