<?xml version="1.0" encoding="utf-8"?>
<!-- Generator: Adobe Illustrator 19.1.0, SVG Export Plug-In . SVG Version: 6.00 Build 0)  -->
<svg version="1.1" id="Layer_1" xmlns="http://www.w3.org/2000/svg" xmlns:xlink="http://www.w3.org/1999/xlink" x="0px" y="0px"
	 viewBox="4 -4 32 32" style="enable-background:new 4 -4 32 32;" xml:space="preserve">
<style type="text/css">
	.st0{fill:#F9C511;}
	.st1{fill:#FFFFFF;}
	.st2{fill:#333333;}
</style>
<g>
	<g>
		<g>
			<circle class="st0" cx="20" cy="12" r="15.515"/>
			<path class="st1" d="M20,28c-8.822,0-16-7.178-16-16C4,3.178,11.178-4,20-4c8.822,0,16,7.178,16,16C36,20.822,28.822,28,20,28z
				 M20-3.03C11.712-3.03,4.97,3.712,4.97,12S11.712,27.03,20,27.03S35.03,20.288,35.03,12S28.288-3.03,20-3.03z"/>
		</g>
	</g>
	<g>
		<circle class="st2" cx="25.721" cy="11.03" r="2.036"/>
	</g>
	<g>
		<path class="st2" d="M22.521,8.994c-0.291,0-0.679-0.194-0.776-0.485c-0.291-0.485-0.097-0.97,0.388-1.261l6.594-3.782
			c0.485-0.291,0.97-0.097,1.261,0.388c0.291,0.485,0.097,0.97-0.388,1.261l-6.594,3.782C22.812,8.897,22.618,8.994,22.521,8.994z"
			/>
	</g>
	<g>
		<circle class="st2" cx="14.764" cy="11.03" r="2.036"/>
	</g>
	<g>
		<path class="st2" d="M17.964,8.994c-0.194,0-0.291,0-0.485-0.097l-6.594-3.782c-0.485-0.291-0.582-0.873-0.388-1.261
			c0.291-0.485,0.873-0.582,1.261-0.388l6.594,3.782c0.485,0.291,0.582,0.776,0.388,1.261C18.545,8.8,18.255,8.994,17.964,8.994z"/>
	</g>
	<g>
		<path class="st2" d="M14.376,19.855c-0.194,0-0.291,0-0.485-0.097c-0.485-0.291-0.582-0.873-0.291-1.261
			c1.358-2.23,3.879-3.588,6.497-3.588c2.521,0,4.848,1.358,6.206,3.394c0.291,0.388,0.194,0.97-0.291,1.261
			c-0.388,0.291-0.97,0.194-1.261-0.291c-1.067-1.552-2.812-2.521-4.655-2.618c-2.036,0-3.879,0.97-4.945,2.715
			C15.055,19.661,14.667,19.855,14.376,19.855z"/>
	</g>
</g>
</svg>
