<?xml version="1.0" encoding="utf-8"?>
<!-- Generator: Adobe Illustrator 19.1.0, SVG Export Plug-In . SVG Version: 6.00 Build 0)  -->
<svg version="1.1" id="Layer_1" xmlns="http://www.w3.org/2000/svg" xmlns:xlink="http://www.w3.org/1999/xlink" x="0px" y="0px"
	 viewBox="4 -4 32 32" style="enable-background:new 4 -4 32 32;" xml:space="preserve">
<style type="text/css">
	.st0{fill:#F9C511;}
	.st1{fill:#FFFFFF;}
	.st2{fill:#333333;}
</style>
<g>
	<g>
		<g>
			<circle class="st0" cx="20" cy="12" r="15.515"/>
			<path class="st1" d="M20,28c-8.822,0-16-7.178-16-16C4,3.178,11.178-4,20-4c8.822,0,16,7.178,16,16C36,20.822,28.822,28,20,28z
				 M20-3.03C11.712-3.03,4.97,3.712,4.97,12S11.712,27.03,20,27.03S35.03,20.288,35.03,12S28.288-3.03,20-3.03z"/>
		</g>
	</g>
	<g>
		<g>
			<circle class="st2" cx="13.697" cy="10.448" r="2.036"/>
		</g>
		<g>
			<circle class="st2" cx="26.303" cy="10.448" r="2.036"/>
		</g>
	</g>
	<g>
		<path class="st2" d="M24.848,20.145h-9.794c-0.485,0-0.97-0.388-0.97-0.97c0-0.485,0.388-0.97,0.97-0.97h9.794
			c0.485,0,0.97,0.388,0.97,0.97C25.818,19.758,25.333,20.145,24.848,20.145z"/>
	</g>
	<g>
		<path class="st2" d="M30.085,7.927c-0.097,0-0.194,0-0.291,0l-5.527-1.745c-0.485-0.194-0.776-0.679-0.582-1.164
			c0.194-0.485,0.679-0.776,1.164-0.582l5.624,1.648c0.485,0.194,0.776,0.679,0.582,1.164C30.861,7.636,30.473,7.927,30.085,7.927z"
			/>
	</g>
	<g>
		<path class="st2" d="M10.206,7.927c-0.388,0-0.776-0.291-0.873-0.679C9.139,6.764,9.43,6.279,9.915,6.085l5.624-1.648
			c0.485-0.194,0.97,0.097,1.164,0.582s-0.097,0.97-0.582,1.164L10.497,7.83C10.4,7.83,10.303,7.927,10.206,7.927z"/>
	</g>
</g>
</svg>
