<?xml version="1.0" encoding="utf-8"?>
<!-- Generator: Adobe Illustrator 19.1.0, SVG Export Plug-In . SVG Version: 6.00 Build 0)  -->
<svg version="1.1" id="Layer_1" xmlns="http://www.w3.org/2000/svg" xmlns:xlink="http://www.w3.org/1999/xlink" x="0px" y="0px"
	 viewBox="4 -4 32 32" style="enable-background:new 4 -4 32 32;" xml:space="preserve">
<style type="text/css">
	.st0{fill:#0072AA;}
	.st1{fill:#FFFFFF;}
</style>
<g>
	<g>
		<path class="st0" d="M6.05,12.582c0.194,1.454,1.551,2.423,3.004,2.423h7.366c1.648,0,2.132,1.066,1.744,2.132l-0.775,2.035
			c-0.097,0.194-0.872,3.004-0.872,3.004c-0.581,2.132,0,4.652,1.357,5.137c1.841,0.678,1.454-0.291,2.132-2.617
			c0,0,0.194-1.066,0.872-2.326c1.066-2.035,2.52-3.877,3.586-5.621c1.066-1.841,2.714-3.198,4.846-3.198h3.683
			c0.775,0,1.357-0.678,1.357-1.454V0.08c0-0.775-0.678-1.454-1.454-1.454h-1.454c-2.52-0.388-3.683-1.163-5.524-1.551
			c-2.132-0.485-5.137-0.581-5.621-0.581h-8.335c-1.454,0-2.811,0.969-3.004,2.326c-0.097,0.485,0,0.872,0.097,1.357
			c0.097,0.388,0,0.969-0.388,1.163c-0.775,0.485-1.26,1.357-1.26,2.326c0,0.485,0.194,0.969,0.388,1.454
			c0.291,0.485,0.291,0.969,0,1.454C7.601,6.864,7.407,7.348,7.407,7.93S7.601,9.093,7.891,9.48
			C6.728,9.965,5.856,11.225,6.05,12.582z"/>
		<path class="st1" d="M18.766,28.009c-0.339,0-0.704-0.111-1.06-0.242c-1.725-0.616-2.259-3.508-1.657-5.718
			c0.36-1.304,0.809-2.898,0.906-3.093l0.756-1.991c0.142-0.391,0.123-0.764-0.055-1.018c-0.21-0.299-0.637-0.457-1.237-0.457H9.055
			c-1.77,0-3.268-1.222-3.485-2.841c-0.187-1.316,0.49-2.653,1.647-3.365C7.028,8.873,6.922,8.396,6.922,7.93
			c0-0.83,0.328-1.413,0.468-1.625c0.186-0.311,0.186-0.606-0.012-0.936C7.136,4.778,6.922,4.242,6.922,3.665
			c0-1.131,0.556-2.155,1.487-2.737c0.162-0.083,0.232-0.404,0.175-0.636L8.555,0.152C8.462-0.304,8.375-0.736,8.482-1.275
			c0.219-1.537,1.716-2.715,3.48-2.715h8.334c0.513,0,3.571,0.103,5.729,0.593c0.797,0.168,1.462,0.403,2.165,0.652
			c0.939,0.331,1.908,0.674,3.325,0.892l1.38-0.006c1.051,0,1.938,0.888,1.938,1.938v12.017c0,1.069-0.826,1.938-1.841,1.938h-3.684
			c-2.361,0-3.787,1.853-4.426,2.958c-0.417,0.682-0.886,1.37-1.368,2.077c-0.768,1.127-1.563,2.292-2.207,3.525
			c-0.633,1.175-0.823,2.179-0.825,2.188c-0.165,0.573-0.261,1.026-0.344,1.405c-0.176,0.819-0.302,1.41-0.807,1.687
			C19.158,27.97,18.967,28.009,18.766,28.009z M11.962-3.022c-1.263,0-2.372,0.839-2.525,1.91c-0.074,0.374-0.015,0.666,0.068,1.07
			L9.53,0.081C9.674,0.66,9.5,1.465,8.883,1.773C8.277,2.154,7.891,2.87,7.891,3.665c0,0.39,0.171,0.818,0.352,1.271
			C8.594,5.509,8.594,6.183,8.21,6.822C8.126,6.95,7.891,7.348,7.891,7.93c0,0.458,0.149,0.941,0.388,1.26l0.374,0.498L8.078,9.928
			c-0.9,0.375-1.72,1.383-1.548,2.585l0,0.005c0.152,1.142,1.237,2.003,2.524,2.003h7.365c1.175,0,1.753,0.473,2.031,0.871
			c0.362,0.517,0.423,1.213,0.169,1.912l-0.778,2.042c-0.09,0.219-0.554,1.858-0.858,2.96c-0.523,1.919-0.002,4.175,1.052,4.551
			c0.646,0.238,0.804,0.183,0.829,0.169c0.117-0.064,0.233-0.607,0.327-1.042c0.085-0.398,0.188-0.874,0.348-1.423l0,0
			c-0.003,0,0.205-1.109,0.911-2.42c0.669-1.278,1.479-2.466,2.263-3.616c0.472-0.693,0.932-1.368,1.335-2.027
			c1.28-2.209,3.149-3.431,5.259-3.431h3.684c0.481,0,0.872-0.434,0.872-0.969V0.08c0-0.507-0.462-0.969-0.969-0.969h-1.454
			c-1.58-0.238-2.64-0.612-3.574-0.943c-0.673-0.238-1.308-0.462-2.05-0.618c-2.077-0.472-5.027-0.571-5.522-0.571H11.962z"/>
	</g>
</g>
</svg>
