<?xml version="1.0" encoding="utf-8"?>
<!-- Generator: Adobe Illustrator 19.1.0, SVG Export Plug-In . SVG Version: 6.00 Build 0)  -->
<svg version="1.1" id="Layer_1" xmlns="http://www.w3.org/2000/svg" xmlns:xlink="http://www.w3.org/1999/xlink" x="0px" y="0px"
	 viewBox="4 -4 32 32" style="enable-background:new 4 -4 32 32;" xml:space="preserve">
<style type="text/css">
	.st0{fill:#F9C511;}
	.st1{fill:#FFFFFF;}
	.st2{fill:#333333;}
</style>
<g>
	<g>
		<g>
			<circle class="st0" cx="20" cy="12" r="15.515"/>
			<path class="st1" d="M20,28c-8.822,0-16-7.178-16-16C4,3.178,11.178-4,20-4c8.822,0,16,7.178,16,16C36,20.822,28.822,28,20,28z
				 M20-3.03C11.712-3.03,4.97,3.712,4.97,12S11.712,27.03,20,27.03S35.03,20.288,35.03,12S28.288-3.03,20-3.03z"/>
		</g>
	</g>
	<g>
		<g>
			<circle class="st2" cx="16.8" cy="10.448" r="2.036"/>
		</g>
		<g>
			<circle class="st2" cx="23.2" cy="10.448" r="2.036"/>
		</g>
	</g>
	<g>
		<path class="st2" d="M22.521,22.764c-0.485,0-0.873-0.388-0.97-0.873c-0.194-1.648-1.067-3.006-2.424-3.588
			c-1.455-0.679-3.103-0.388-4.461,0.679c-0.388,0.291-0.97,0.291-1.261-0.194c-0.291-0.388-0.291-0.97,0.194-1.261
			c1.939-1.552,4.364-1.842,6.4-0.97c1.939,0.873,3.2,2.812,3.491,5.042c0.097,0.485-0.291,0.97-0.873,1.067
			C22.618,22.764,22.618,22.764,22.521,22.764z"/>
	</g>
</g>
</svg>
