<svg id="Layer_1" data-name="Layer 1" xmlns="http://www.w3.org/2000/svg" viewBox="0 0 24 24"><defs><style>.cls-1{fill:#333;}</style></defs><title>action_table_report24</title><path class="cls-1" d="M3.64,16.336h7.308c.084,0,.325,0,.605-.012a1.536,1.536,0,0,0,1.028-.3,1.5,1.5,0,0,0,.224-1.092l0-.037-.09-7.633a1.163,1.163,0,1,0-2.325,0v5.084L3.08,5.042a1.178,1.178,0,0,0-.831-.308,1.179,1.179,0,0,0-.832.308,1.276,1.276,0,0,0,0,1.663l7.307,7.307H3.64a1.162,1.162,0,0,0,0,2.324Z"/><path class="cls-1" d="M20.95,0H7.859a3.05,3.05,0,0,0-3.05,3.05v.871l2,2V3.313A1.314,1.314,0,0,1,8.126,2h12.58a1.315,1.315,0,0,1,1.315,1.315v17.37A1.315,1.315,0,0,1,20.706,22H8.143a1.315,1.315,0,0,1-1.315-1.315v-2.31H4.809v2.574A3.051,3.051,0,0,0,7.859,24h13.09A3.051,3.051,0,0,0,24,20.949V3.05A3.051,3.051,0,0,0,20.95,0Z"/></svg>