<svg id="Layer_1" data-name="Layer 1" xmlns="http://www.w3.org/2000/svg" viewBox="0 0 24 24"><defs><style>.cls-1{fill:#0084ce;}.cls-2{fill:#fff;}</style></defs><title>status_ftpserver24</title><circle class="cls-1" cx="12" cy="12" r="12"/><path class="cls-2" d="M16.51,5.62H7.49a1.212,1.212,0,1,0,0,2.424h9.02a1.212,1.212,0,0,0,0-2.424Zm-8.9,1.818a.606.606,0,1,1,.6-.606A.606.606,0,0,1,7.608,7.438Zm1.767,0a.606.606,0,1,1,.606-.606A.606.606,0,0,1,9.375,7.438Z"/><path class="cls-2" d="M16.51,9.137H7.49a1.212,1.212,0,1,0,0,2.423h9.02a1.212,1.212,0,1,0,0-2.423Zm-8.9,1.817a.606.606,0,1,1,.6-.606A.606.606,0,0,1,7.608,10.954Zm1.767,0a.606.606,0,1,1,.606-.606A.606.606,0,0,1,9.375,10.954Z"/><path class="cls-2" d="M16.51,12.653H7.49a1.212,1.212,0,0,0,0,2.424h9.02a1.212,1.212,0,0,0,0-2.424Zm-8.9,1.818a.606.606,0,1,1,.6-.606A.606.606,0,0,1,7.608,14.471Zm1.767,0a.606.606,0,1,1,.606-.606A.606.606,0,0,1,9.375,14.471Z"/><path class="cls-2" d="M14.844,17.067H12.719v-.281a.719.719,0,0,0-1.438,0v.281H9.156a.657.657,0,0,0,0,1.313h5.688a.657.657,0,0,0,0-1.313Z"/><rect class="cls-2" x="6.795" y="17.223" width="0.969" height="0.969" rx="0.484" ry="0.484"/><rect class="cls-2" x="16.233" y="17.223" width="0.969" height="0.969" rx="0.484" ry="0.484"/></svg>