<svg id="Layer_2" data-name="Layer 2" xmlns="http://www.w3.org/2000/svg" viewBox="0 0 32 32"><defs><style>.cls-1{fill:#1291ce;}.cls-2{fill:#fff;}.cls-3{fill:#1280a9;}.cls-4{fill:#0072aa;}</style></defs><title>mime_web_reports</title><path class="cls-1" d="M3.631,28.5A3.132,3.132,0,0,1,.5,25.37V3.664A3.132,3.132,0,0,1,3.631.535H17.267l6.326,6.24V25.37A3.132,3.132,0,0,1,20.465,28.5H3.631Z"/><path class="cls-2" d="M20.465,29H3.631A3.633,3.633,0,0,1,0,25.37V3.664A3.633,3.633,0,0,1,3.631.035H17.473l6.621,6.531v18.8A3.633,3.633,0,0,1,20.465,29ZM3.631,1.035A2.632,2.632,0,0,0,1,3.664V25.37A2.632,2.632,0,0,0,3.631,28H20.465a2.632,2.632,0,0,0,2.629-2.628V6.984L17.063,1.035H3.631Z"/><polygon class="cls-3" points="17.034 1.109 17.034 7 23.025 7 17.034 1.109"/><path class="cls-2" d="M9.992,19.724L5.481,15.213a1.533,1.533,0,0,1,2.168-2.168l2.343,2.343,6.433-6.433a1.533,1.533,0,0,1,2.168,2.168Z"/><path class="cls-4" d="M25.429,19.292a4.71,4.71,0,0,0-3.254-1.948,1.955,1.955,0,0,0-.449.058l1.112,2.888Z"/><path class="cls-4" d="M25.916,19.1l2.111-.813A7,7,0,0,0,24,17a6.882,6.882,0,0,0-.759.046A6.557,6.557,0,0,1,25.916,19.1Z"/><path class="cls-4" d="M28.178,26.01a11.972,11.972,0,0,0-.7-3.115l-3.168,1.22,1.135,2.948Z"/><path class="cls-4" d="M22.371,20.47l-1.112-2.887c-1,.554-1.519,2.036-1.471,3.881Z"/><path class="cls-4" d="M19.9,18.337a7.023,7.023,0,0,0-2.727,4.133l2.121-.816A6.551,6.551,0,0,1,19.9,18.337Z"/><path class="cls-4" d="M27.764,22.25l2.653-1.021a6.969,6.969,0,0,0-1.928-2.58l-2.251.867A12.507,12.507,0,0,1,27.764,22.25Z"/><path class="cls-4" d="M24.979,27.243l-1.135-2.948-3.168,1.22A12.048,12.048,0,0,0,22.238,28.3Z"/><path class="cls-4" d="M19.818,21.989a11.887,11.887,0,0,0,.68,3.059l3.166-1.219-1.113-2.892Z"/><path class="cls-4" d="M27.3,22.429a12.057,12.057,0,0,0-1.54-2.728l-2.741,1.055,1.113,2.892Z"/><path class="cls-4" d="M28.093,29.668a6.946,6.946,0,0,0,2.3-2.828,7.106,7.106,0,0,0,.436-1.314l-2.128.819A6.546,6.546,0,0,1,28.093,29.668Z"/><path class="cls-4" d="M25.625,27.53l1.112,2.887c1-.554,1.519-2.036,1.471-3.881Z"/><path class="cls-4" d="M27.945,22.716a12.588,12.588,0,0,1,.722,3.106l2.263-.871a6.95,6.95,0,0,0-.333-3.256Z"/><path class="cls-4" d="M22.079,28.9l-2.111.813A7.006,7.006,0,0,0,24,31a7.1,7.1,0,0,0,.759-0.046A6.558,6.558,0,0,1,22.079,28.9Z"/><path class="cls-4" d="M22.567,28.708a4.708,4.708,0,0,0,3.254,1.949A1.955,1.955,0,0,0,26.27,30.6L25.158,27.71Z"/><path class="cls-4" d="M20.209,25.694l-2.654,1.022a6.968,6.968,0,0,0,1.951,2.634l2.251-.867A12.56,12.56,0,0,1,20.209,25.694Z"/><path class="cls-4" d="M19.329,22.176l-2.26.87a6.942,6.942,0,0,0,.311,3.2l2.651-1.021A12.478,12.478,0,0,1,19.329,22.176Z"/><path class="cls-2" d="M31.462,21.127A8.05,8.05,0,0,0,24,16a8,8,0,0,0-7.461,10.874A8.047,8.047,0,0,0,24,32,8,8,0,0,0,31.462,21.127Zm-1.045.1L27.764,22.25a12.507,12.507,0,0,0-1.526-2.734l2.251-.867A6.969,6.969,0,0,1,30.417,21.229Zm-6.753,2.6L20.5,25.048a11.887,11.887,0,0,1-.68-3.059l2.733-1.052Zm-0.647-3.073L25.758,19.7a12.057,12.057,0,0,1,1.54,2.728L24.13,23.648Zm0.827,3.539,1.135,2.948L22.238,28.3a12.048,12.048,0,0,1-1.562-2.783Zm0.466-.18,3.168-1.22a11.972,11.972,0,0,1,.7,3.115l-2.733,1.053ZM24,17a7,7,0,0,1,4.032,1.292l-2.111.813a6.557,6.557,0,0,0-2.68-2.059A6.882,6.882,0,0,1,24,17Zm-1.82.344a4.71,4.71,0,0,1,3.254,1.948l-2.591,1L21.726,17.4A1.955,1.955,0,0,1,22.175,17.344Zm-0.916.239,1.112,2.887-2.583.994C19.74,19.619,20.255,18.137,21.259,17.583Zm-1.359.754a6.551,6.551,0,0,0-.606,3.317l-2.121.816A7.023,7.023,0,0,1,19.9,18.337Zm-2.831,4.709,2.26-.87a12.478,12.478,0,0,0,.7,3.05L17.38,26.247A6.942,6.942,0,0,1,17.069,23.046Zm0.486,3.67,2.654-1.022a12.56,12.56,0,0,0,1.548,2.789l-2.251.867A6.968,6.968,0,0,1,17.555,26.716ZM24,31a7.006,7.006,0,0,1-4.032-1.292l2.111-.813a6.558,6.558,0,0,0,2.68,2.059A7.1,7.1,0,0,1,24,31Zm1.821-.343a4.708,4.708,0,0,1-3.254-1.949l2.591-1L26.27,30.6A1.955,1.955,0,0,1,25.821,30.657Zm0.916-.24L25.625,27.53l2.583-.994C28.256,28.381,27.741,29.863,26.737,30.417Zm3.657-3.577a6.946,6.946,0,0,1-2.3,2.828,6.546,6.546,0,0,0,.609-3.323l2.128-.819A7.106,7.106,0,0,1,30.394,26.84Zm0.536-1.889-2.263.871a12.588,12.588,0,0,0-.722-3.106L30.6,21.695A6.95,6.95,0,0,1,30.93,24.951Z"/></svg>