<svg id="Layer_1" data-name="Layer 1" xmlns="http://www.w3.org/2000/svg" viewBox="0 0 279 32"><title>header_content_server_li</title><rect x="127" y="3" width="1" height="23" style="fill:#fff"/><path d="M148.885,17a7.259,7.259,0,0,1-.577,2.058,5.181,5.181,0,0,1-1.166,1.638,5.317,5.317,0,0,1-1.785,1.092,7.491,7.491,0,0,1-5.113-.1,5.579,5.579,0,0,1-2.079-1.5,7.05,7.05,0,0,1-1.354-2.457,10.718,10.718,0,0,1-.483-3.371,10.2,10.2,0,0,1,.525-3.413,7.339,7.339,0,0,1,1.418-2.478,5.936,5.936,0,0,1,2.078-1.512,6.3,6.3,0,0,1,2.531-.515,6.934,6.934,0,0,1,2.352.357,4.788,4.788,0,0,1,1.67,1A5.055,5.055,0,0,1,148,9.309a9.965,9.965,0,0,1,.672,1.911l-1.218.273a9.023,9.023,0,0,0-.578-1.659A4.035,4.035,0,0,0,146,8.6a3.687,3.687,0,0,0-1.291-.777,5.4,5.4,0,0,0-1.827-.273,4.7,4.7,0,0,0-2.205.5,4.781,4.781,0,0,0-1.639,1.407,6.625,6.625,0,0,0-1.028,2.142,9.748,9.748,0,0,0-.357,2.709,9.987,9.987,0,0,0,.347,2.72A6.62,6.62,0,0,0,139,19.158a4.526,4.526,0,0,0,1.648,1.4,5.006,5.006,0,0,0,2.269.494,5.978,5.978,0,0,0,2.047-.3,3.612,3.612,0,0,0,1.365-.851,3.953,3.953,0,0,0,.84-1.292A7.653,7.653,0,0,0,147.625,17Z" style="fill:#fff"/><path d="M156.152,22.14a5.384,5.384,0,0,1-2.131-.4,4.232,4.232,0,0,1-1.575-1.145,5.227,5.227,0,0,1-.987-1.8,7.5,7.5,0,0,1-.347-2.352,7.341,7.341,0,0,1,.368-2.394,5.4,5.4,0,0,1,1.028-1.827,4.468,4.468,0,0,1,1.607-1.166,5.278,5.278,0,0,1,2.12-.409,5.41,5.41,0,0,1,2.121.4,4.323,4.323,0,0,1,1.6,1.145,5.142,5.142,0,0,1,1,1.8,7.4,7.4,0,0,1,.347,2.331,7.535,7.535,0,0,1-.357,2.394,5.375,5.375,0,0,1-1.019,1.837,4.378,4.378,0,0,1-1.616,1.176A5.41,5.41,0,0,1,156.152,22.14Zm.042-1.05a3.771,3.771,0,0,0,1.743-.368,3.316,3.316,0,0,0,1.176-1,4.153,4.153,0,0,0,.673-1.491,7.9,7.9,0,0,0,.21-1.869,7.575,7.575,0,0,0-.21-1.816,4.161,4.161,0,0,0-.673-1.48,3.321,3.321,0,0,0-1.176-1,4.291,4.291,0,0,0-3.476,0,3.206,3.206,0,0,0-1.176,1,4.267,4.267,0,0,0-.661,1.48,7.62,7.62,0,0,0-.21,1.837,7.751,7.751,0,0,0,.21,1.848,4.259,4.259,0,0,0,.661,1.491,3.2,3.2,0,0,0,1.176,1A3.789,3.789,0,0,0,156.194,21.09Z" style="fill:#fff"/><path d="M163.9,10.989h1.218v1.764A5.645,5.645,0,0,1,167,11.146a4.746,4.746,0,0,1,2.132-.493,3.4,3.4,0,0,1,2.729,1.029,4.355,4.355,0,0,1,.882,2.919v7.2h-1.218V14.937a3.881,3.881,0,0,0-.609-2.446,2.352,2.352,0,0,0-1.932-.746,4.114,4.114,0,0,0-1.334.242,3.551,3.551,0,0,0-1.27.767,4.125,4.125,0,0,0-.945,1.123,3.336,3.336,0,0,0-.315,1.586V21.8H163.9Z" style="fill:#fff"/><path d="M176.157,12h-1.681V10.989h1.681V8.007h1.217v2.982h3.066V12h-3.066v7.077a2.577,2.577,0,0,0,.336,1.354,1.262,1.262,0,0,0,1.176.557,4.334,4.334,0,0,0,.926-.084,5.8,5.8,0,0,0,.672-.189l.252.987a4.892,4.892,0,0,1-1.953.336,2.815,2.815,0,0,1-1.449-.315,2.038,2.038,0,0,1-.788-.83,3.259,3.259,0,0,1-.325-1.187q-.063-.672-.062-1.407Z" style="fill:#fff"/><path d="M191.214,18.969a3.683,3.683,0,0,1-1.344,2.289,4.837,4.837,0,0,1-3.108.882,4.519,4.519,0,0,1-3.622-1.5,6.12,6.12,0,0,1-1.292-4.126,7.894,7.894,0,0,1,.368-2.52,5.253,5.253,0,0,1,1.028-1.837,4.3,4.3,0,0,1,1.555-1.124,4.982,4.982,0,0,1,1.963-.378,5.069,5.069,0,0,1,2.143.409,3.893,3.893,0,0,1,1.438,1.113,4.49,4.49,0,0,1,.808,1.669,8.171,8.171,0,0,1,.253,2.079V16.7h-8.316a6.3,6.3,0,0,0,.23,1.732,4.147,4.147,0,0,0,.693,1.407,3.3,3.3,0,0,0,1.155.945,3.523,3.523,0,0,0,1.6.347,5.245,5.245,0,0,0,1.386-.158,2.7,2.7,0,0,0,.945-.451,2.31,2.31,0,0,0,.6-.683,3.609,3.609,0,0,0,.347-.872Zm-1.071-3.318a6.49,6.49,0,0,0-.188-1.617,3.61,3.61,0,0,0-.588-1.271,2.638,2.638,0,0,0-1.051-.83,3.756,3.756,0,0,0-1.554-.294,3.325,3.325,0,0,0-2.52.987,4.924,4.924,0,0,0-1.135,3.024Z" style="fill:#fff"/><path d="M194.031,10.989h1.219v1.764a5.643,5.643,0,0,1,1.879-1.607,4.749,4.749,0,0,1,2.132-.493,3.4,3.4,0,0,1,2.729,1.029,4.355,4.355,0,0,1,.882,2.919v7.2h-1.218V14.937a3.887,3.887,0,0,0-.608-2.446,2.355,2.355,0,0,0-1.933-.746,4.1,4.1,0,0,0-1.333.242,3.547,3.547,0,0,0-1.271.767,4.142,4.142,0,0,0-.945,1.123,3.337,3.337,0,0,0-.314,1.586V21.8h-1.219Z" style="fill:#fff"/><path d="M206.287,12h-1.68V10.989h1.68V8.007H207.5v2.982h3.066V12H207.5v7.077a2.577,2.577,0,0,0,.336,1.354,1.26,1.26,0,0,0,1.176.557,4.33,4.33,0,0,0,.925-.084,5.74,5.74,0,0,0,.672-.189l.252.987a4.882,4.882,0,0,1-1.953.336,2.817,2.817,0,0,1-1.449-.315,2.035,2.035,0,0,1-.787-.83,3.24,3.24,0,0,1-.326-1.187q-.063-.672-.062-1.407Z" style="fill:#fff"/><path d="M218.025,17.877a3.605,3.605,0,0,0,1.449,2.425,7.524,7.524,0,0,0,5.2.494,3.157,3.157,0,0,0,1.187-.672,2.387,2.387,0,0,0,.63-.987,3.76,3.76,0,0,0,.189-1.2,4.18,4.18,0,0,0-.116-1,2.112,2.112,0,0,0-.44-.861,2.78,2.78,0,0,0-.935-.682,6.079,6.079,0,0,0-1.6-.462l-1.868-.315a12.425,12.425,0,0,1-1.942-.483,4.758,4.758,0,0,1-1.439-.767,3,3,0,0,1-.892-1.187,4.436,4.436,0,0,1-.3-1.743,3.547,3.547,0,0,1,.431-1.785,3.72,3.72,0,0,1,1.154-1.25,5.239,5.239,0,0,1,1.7-.735,8.587,8.587,0,0,1,2.068-.242,7.766,7.766,0,0,1,2.353.3,4.643,4.643,0,0,1,1.554.809,3.741,3.741,0,0,1,.945,1.145,6.972,6.972,0,0,1,.524,1.291l-1.176.336a6.649,6.649,0,0,0-.493-1.166,2.749,2.749,0,0,0-.756-.872,3.4,3.4,0,0,0-1.187-.546,6.915,6.915,0,0,0-1.743-.189,7.2,7.2,0,0,0-1.933.22,3.534,3.534,0,0,0-1.26.609,2.209,2.209,0,0,0-.692.924,3.093,3.093,0,0,0-.211,1.145,3.624,3.624,0,0,0,.147,1.092,1.841,1.841,0,0,0,.5.8,2.909,2.909,0,0,0,.956.567,8.616,8.616,0,0,0,1.5.4l2.121.378a10.274,10.274,0,0,1,1.964.546,4.384,4.384,0,0,1,1.375.851A3.165,3.165,0,0,1,227.8,16.3a4.872,4.872,0,0,1,.263,1.68,4.015,4.015,0,0,1-.336,1.627,3.7,3.7,0,0,1-1,1.333,4.942,4.942,0,0,1-1.648.9,7.184,7.184,0,0,1-2.31.336,10.417,10.417,0,0,1-2.258-.231,5.482,5.482,0,0,1-1.827-.746,4.2,4.2,0,0,1-1.291-1.333,4.719,4.719,0,0,1-.63-1.995Z" style="fill:#fff"/><path d="M239.679,18.969a3.683,3.683,0,0,1-1.344,2.289,4.837,4.837,0,0,1-3.108.882,4.519,4.519,0,0,1-3.622-1.5,6.12,6.12,0,0,1-1.292-4.126,7.894,7.894,0,0,1,.368-2.52,5.253,5.253,0,0,1,1.028-1.837,4.3,4.3,0,0,1,1.555-1.124,4.982,4.982,0,0,1,1.963-.378,5.069,5.069,0,0,1,2.143.409,3.893,3.893,0,0,1,1.438,1.113,4.49,4.49,0,0,1,.808,1.669,8.171,8.171,0,0,1,.253,2.079V16.7h-8.316a6.3,6.3,0,0,0,.23,1.732,4.147,4.147,0,0,0,.693,1.407,3.3,3.3,0,0,0,1.155.945,3.523,3.523,0,0,0,1.6.347,5.245,5.245,0,0,0,1.386-.158,2.7,2.7,0,0,0,.945-.451,2.31,2.31,0,0,0,.6-.683,3.609,3.609,0,0,0,.347-.872Zm-1.071-3.318a6.49,6.49,0,0,0-.188-1.617,3.61,3.61,0,0,0-.588-1.271,2.638,2.638,0,0,0-1.051-.83,3.756,3.756,0,0,0-1.554-.294,3.325,3.325,0,0,0-2.52.987,4.924,4.924,0,0,0-1.135,3.024Z" style="fill:#fff"/><path d="M242.5,10.989h1.219v1.764a4.953,4.953,0,0,1,1.49-1.428,3.416,3.416,0,0,1,1.785-.5q.231,0,.431.01a3.534,3.534,0,0,1,.431.053l-.147,1.155a4.235,4.235,0,0,0-.692-.063,3.345,3.345,0,0,0-1.113.2,2.986,2.986,0,0,0-1.071.683,3.475,3.475,0,0,0-.8,1.018,3.006,3.006,0,0,0-.314,1.418V21.8H242.5Z" style="fill:#fff"/><path d="M249.107,10.989h1.407l3.675,9.492,3.759-9.492h1.323L254.9,21.8h-1.428Z" style="fill:#fff"/><path d="M269.624,18.969a3.683,3.683,0,0,1-1.344,2.289,4.837,4.837,0,0,1-3.108.882,4.519,4.519,0,0,1-3.622-1.5,6.12,6.12,0,0,1-1.292-4.126,7.894,7.894,0,0,1,.368-2.52,5.253,5.253,0,0,1,1.028-1.837,4.3,4.3,0,0,1,1.555-1.124,4.982,4.982,0,0,1,1.963-.378,5.069,5.069,0,0,1,2.143.409,3.893,3.893,0,0,1,1.438,1.113,4.49,4.49,0,0,1,.808,1.669,8.171,8.171,0,0,1,.253,2.079V16.7H261.5a6.3,6.3,0,0,0,.23,1.732,4.147,4.147,0,0,0,.693,1.407,3.3,3.3,0,0,0,1.155.945,3.523,3.523,0,0,0,1.6.347,5.245,5.245,0,0,0,1.386-.158,2.7,2.7,0,0,0,.945-.451,2.31,2.31,0,0,0,.6-.683,3.609,3.609,0,0,0,.347-.872Zm-1.071-3.318a6.49,6.49,0,0,0-.188-1.617,3.61,3.61,0,0,0-.588-1.271,2.638,2.638,0,0,0-1.051-.83,3.756,3.756,0,0,0-1.554-.294,3.325,3.325,0,0,0-2.52.987,4.924,4.924,0,0,0-1.135,3.024Z" style="fill:#fff"/><path d="M272.442,10.989h1.219v1.764a4.953,4.953,0,0,1,1.49-1.428,3.416,3.416,0,0,1,1.785-.5q.231,0,.431.01a3.534,3.534,0,0,1,.431.053l-.147,1.155a4.235,4.235,0,0,0-.692-.063,3.345,3.345,0,0,0-1.113.2,2.986,2.986,0,0,0-1.071.683,3.475,3.475,0,0,0-.8,1.018,3.006,3.006,0,0,0-.314,1.418V21.8h-1.219Z" style="fill:#fff"/><path d="M16.063,14.558c0,3.78-2.176,7.874-8.017,7.874C3.837,22.432,0,20.084,0,14.558c0-4.581,2.892-8.1,8.619-7.788C14.718,7.113,16.063,11.837,16.063,14.558ZM5.183,11.681a5.191,5.191,0,0,0-.744,2.849c0,2.319,1.145,4.419,3.608,4.419,2.377,0,3.55-1.932,3.55-4.223a4.866,4.866,0,0,0-1.231-3.66,3.25,3.25,0,0,0-2.577-.81A2.989,2.989,0,0,0,5.183,11.681Z" style="fill:#fff"/><path d="M55.147,8.459a4.3,4.3,0,0,1,1.489-1.174,7.3,7.3,0,0,1,2.72-.515,5.653,5.653,0,0,1,2.663.572c1.575.83,1.976,2.176,1.976,4.5V22.059H59.614V13.641a5.986,5.986,0,0,0-.2-2.233,2,2,0,0,0-1.976-1.145c-2.319,0-2.319,1.861-2.319,3.722v8.075h-4.41V7.141h4.438Z" style="fill:#fff"/><path d="M48.615,18.2c-.4.851-1.7,4.233-7.445,4.233-4.438,0-7.559-2.715-7.559-7.612,0-3.608,1.775-8.051,7.674-8.051a6.883,6.883,0,0,1,5.383,1.952c1.947,2.09,2.062,5.011,2.119,6.7H38.107a3.366,3.366,0,0,0,3.407,3.722,3.955,3.955,0,0,0,3.78-2.634Zm-4.381-5.526a3.555,3.555,0,0,0-.83-2.119,3.105,3.105,0,0,0-2.148-.83,3.032,3.032,0,0,0-2.233.974,3.905,3.905,0,0,0-.888,1.976Z" style="fill:#fff"/><path d="M109.926,10.238h2.921v-3.1h-2.892V4h-4.381V7.141h-.695l-2.006,3.1h2.7v7.1a5.783,5.783,0,0,0,.63,3.379c.945,1.374,2.606,1.46,4.123,1.46a14.089,14.089,0,0,0,2.319-.229V18.509l-1.575.057c-1.174,0-1.174-.773-1.145-1.689Z" style="fill:#fff"/><path d="M66.189,4H70.57V7.142h4.553l-2.005,3.1H70.541v6.638c-.029.916-.029,1.689,1.145,1.689l1.575-.057v3.436a14.089,14.089,0,0,1-2.319.229c-1.518,0-3.178-.086-4.123-1.46a5.783,5.783,0,0,1-.63-3.379Z" style="fill:#fff"/><path d="M116.905,10.239h-.541V7.6h-1V7.141h2.519V7.6h-.98Zm4.245,0h-.532l.019-1.912.028-.634-.149.522-.634,2.024H119.4l-.625-2.024-.159-.513.037.625.019,1.912h-.522v-3.1h.737l.774,2.444.756-2.444h.737Z" style="fill:#fff"/><path d="M88.926,18.212l-.839,1.3c-.785,1.152-2.263,2.924-6.5,2.924-4.438,0-7.42-2.715-7.42-7.612,0-3.608,1.775-8.051,7.674-8.051a6.883,6.883,0,0,1,5.383,1.952c1.947,2.09,2.062,5.011,2.119,6.7H78.667c-.029,1.861.891,3.722,3.268,3.722,2.405,0,3.1-1.575,3.64-2.634Zm-4.131-5.54a3.555,3.555,0,0,0-.83-2.119,3.105,3.105,0,0,0-2.148-.83,3.032,3.032,0,0,0-2.233.974,3.905,3.905,0,0,0-.888,1.976Z" style="fill:#fff"/><polygon points="103.935 22.061 98.458 14.208 103.026 7.141 98.012 7.141 95.856 10.477 93.529 7.141 88.515 7.141 93.444 14.208 88.368 22.061 93.382 22.061 96.046 17.939 98.922 22.061 103.935 22.061" style="fill:#fff"/><path d="M22.123,8.459a4.784,4.784,0,0,1,3.922-1.689c3.665,0,6.243,2.777,6.243,7.76,0,3.064-1.116,7.9-6.427,7.9a4.771,4.771,0,0,1-3.766-1.689V27h-4.41V7.141h4.438ZM25.1,10.212a2.819,2.819,0,0,0-2.262,1.119,5.26,5.26,0,0,0-.916,3.278,5.014,5.014,0,0,0,1.059,3.438,2.7,2.7,0,0,0,1.976.9c2.148,0,3.092-2.262,3.092-4.447,0-1.839-.544-3.784-2.348-4.21A2.332,2.332,0,0,0,25.1,10.212Z" style="fill:#fff"/></svg>