<svg version="1.1" xmlns="http://www.w3.org/2000/svg" xmlns:xlink="http://www.w3.org/1999/xlink" x="0px" y="0px" viewBox="0 0 32 32" style="enable-background:new 0 0 32 32;" xml:space="preserve"><circle cx="16" cy="16" r="14" fill="none" stroke="none"/><g><path d="M16.824,15.149c0.013-0.043,0.031-0.085,0.055-0.127l0.537-1.003l-0.448-0.228l-0.522,0.973l-0.911-0.928
		l0.358-0.638l-2.287-1.325l-1.072-1.09c0.661-0.934,0.69-2.175,0.135-3.144l0.133,0.09c0.448,0.228,0.806,0.684,0.94,1.185
		c0.134,0.501,0.045,1.048-0.179,1.504l5.688,3.281c0.313,0.182,0.403,0.547,0.224,0.911c-0.09,0.137-0.224,0.228-0.358,0.273
		c-0.134,0.046-0.314,0.046-0.448-0.046l-0.224-0.137l-0.537,0.957c-0.077,0.136-0.186,0.231-0.307,0.281L16.824,15.149z" opacity="0.9" fill-rule="evenodd" clip-rule="evenodd" fill="#333333" enable-background="new"/><path d="M11.684,7.184C11.236,6.728,10.609,6.5,9.982,6.5c-0.627,0-1.254,0.228-1.791,0.684L7.205,8.186
		c-0.94,0.957-0.94,2.506,0,3.463l0.134,0.137c0.94,0.957,2.463,0.957,3.404,0.046l2.911,2.962l-0.985,0.957
		c-0.269,0.319-0.313,0.775,0,1.094c0.314,0.273,0.761,0.319,1.075,0l0.985-1.003l0.448,0.456l-0.941,1.003
		c-0.313,0.319-0.313,0.82,0,1.094c0.134,0.137,0.358,0.228,0.538,0.228c0.224,0,0.403-0.091,0.537-0.228l0.985-0.957l0.179,0.228
		c0.269,0.273,0.761,0.273,1.03,0c0.314-0.319,0.314-0.775,0.045-1.094l-5.688-5.788c0.896-1.003,0.896-2.506-0.045-3.463
		L11.684,7.184z M9.803,10.738C9.624,10.92,9.4,11.012,9.131,11.012c-0.224,0-0.448-0.091-0.672-0.273l-0.134-0.137
		c-0.358-0.365-0.358-0.957,0-1.322l1.03-1.003c0.358-0.365,0.94-0.365,1.299,0l0.134,0.137c0.358,0.365,0.358,0.957,0,1.322
		L9.803,10.738z" fill-rule="evenodd" clip-rule="evenodd" fill="#333333"/><path d="M25.491,16.819c-0.169,0.16-0.38,0.245-0.599,0.245s-0.43-0.084-0.599-0.245l-1.088-1.097v0.498
		c0,3.72-3.028,6.749-6.748,6.749H15.96l1.096,1.088c0.329,0.329,0.329,0.869,0,1.198c-0.169,0.16-0.38,0.245-0.599,0.245
		s-0.43-0.084-0.599-0.245l-3.121-3.13l3.121-3.13c0.329-0.329,0.869-0.329,1.198,0c0.329,0.329,0.329,0.869,0,1.198l-1.096,1.088
		h0.498c2.792,0,5.061-2.269,5.061-5.062v-0.498l-1.088,1.097c-0.329,0.329-0.869,0.329-1.198,0c-0.329-0.329-0.329-0.869,0-1.198
		l3.129-3.121l3.129,3.121C25.82,15.95,25.82,16.491,25.491,16.819z" fill="#333333"/></g><circle cx="16" cy="16" r="15.5" fill="none" stroke="#cccccc"/></svg>