<svg version="1.1" xmlns="http://www.w3.org/2000/svg" xmlns:xlink="http://www.w3.org/1999/xlink" x="0px" y="0px" viewBox="0 0 32 32" style="enable-background:new 0 0 32 32;" xml:space="preserve"><circle cx="16" cy="16" r="14" fill="#a0a4bc" stroke="#a0a4bc"/><g><path d="M10,8L10,8c0.552,0,1,0.448,1,1v14.016c0,0.552-0.448,1-1,1l0,0c-0.552,0-1-0.448-1-1V9C9,8.448,9.448,8,10,8z
		" fill="#333333"/><path d="M12.811,8c-0.55-0.002-0.809,0.349-0.809,0.779v8.664c0,0.43,0.065,0.715,0.615,0.715h9.371
		c0.55,0,0.824-0.29,0.607-0.685l-2.022-3.661c-0.217-0.395-0.198-1.026,0.042-1.413l2.278-3.664
		c0.24-0.387,0.083-0.702-0.467-0.703L12.811,8z" fill="#333333"/></g><circle cx="16" cy="16" r="15.5" fill="none" stroke="none"/></svg>