<svg version="1.1" xmlns="http://www.w3.org/2000/svg" xmlns:xlink="http://www.w3.org/1999/xlink" x="0px" y="0px" viewBox="0 0 32 32" style="enable-background:new 0 0 32 32;" xml:space="preserve"><circle cx="16" cy="16" r="14" fill="none" stroke="none"/><g><path d="M12,13.75c0,0.966,0.784,1.75,1.75,1.75s1.75-0.784,1.75-1.75c-0.001-0.966-0.784-1.749-1.75-1.75
		C12.784,12,12,12.784,12,13.75z" opacity="0.9" fill="#333333" enable-background="new"/><path d="M25.892,11.615c-0.308-1.236-1.274-2.203-2.51-2.511C23.1,9.035,22.811,9.001,22.52,9
		c-1-0.001-1.949,0.434-2.603,1.19l-2.001,2.001c-0.989,0.857-1.409,2.198-1.086,3.466c0.088,0.351,0.231,0.686,0.427,0.99
		l-0.608,0.609c-0.305-0.195-0.64-0.339-0.992-0.427c-0.282-0.068-0.571-0.103-0.862-0.103c-1-0.001-1.949,0.434-2.603,1.19
		l-2.001,2.001c-1.444,1.255-1.598,3.446-0.342,4.89c0.465,0.534,1.081,0.913,1.766,1.086C11.898,25.965,12.187,26,12.478,26
		c1,0.001,1.949-0.434,2.603-1.19l2.001-2.001c0.989-0.857,1.41-2.198,1.086-3.466c-0.088-0.351-0.231-0.686-0.427-0.99l0.609-0.609
		c0.305,0.195,0.639,0.339,0.99,0.427c0.282,0.069,0.573,0.103,0.863,0.104c1,0.001,1.949-0.434,2.603-1.191l2.001-2.001
		C25.796,14.225,26.216,12.882,25.892,11.615z M16.069,21.642l-0.041,0.035l-0.039,0.039l-2.001,2.001l-0.039,0.039l-0.035,0.041
		c-0.359,0.42-0.884,0.661-1.436,0.658c-0.169,0-0.336-0.022-0.501-0.061c-0.673-0.172-1.197-0.697-1.368-1.369
		c-0.185-0.707,0.046-1.458,0.597-1.938l0.041-0.035l0.039-0.039l2.001-2.001l0.039-0.039l0.035-0.04
		c0.358-0.42,0.883-0.661,1.435-0.658c0.169,0,0.336,0.022,0.501,0.061c0.068,0.022,0.134,0.047,0.197,0.077l-1.63,1.634
		c-0.307,0.296-0.315,0.785-0.019,1.093c0.296,0.307,0.785,0.315,1.093,0.019c0.007-0.007,0.012-0.012,0.019-0.019l1.631-1.628
		c0.031,0.064,0.057,0.128,0.08,0.195C16.852,20.411,16.62,21.163,16.069,21.642z M23.794,13.915l-0.041,0.036l-0.039,0.039
		l-2.001,2.001l-0.039,0.039l-0.035,0.041c-0.359,0.42-0.884,0.661-1.436,0.658c-0.169,0-0.336-0.022-0.501-0.061
		c-0.068-0.022-0.134-0.047-0.197-0.077l1.631-1.631c0.296-0.307,0.288-0.796-0.019-1.093c-0.3-0.289-0.774-0.289-1.074,0
		l-1.631,1.625c-0.03-0.065-0.055-0.13-0.077-0.197c-0.185-0.707,0.046-1.458,0.597-1.938l0.041-0.035l0.039-0.039l2.001-2.001
		l0.039-0.039l0.035-0.041c0.359-0.418,0.883-0.657,1.433-0.654c0.169,0,0.336,0.022,0.501,0.061
		c0.673,0.172,1.197,0.697,1.368,1.369C24.576,12.682,24.345,13.433,23.794,13.915z" fill="#333333"/><path d="M18.25,8.25c0,0.061-0.002,0.122-0.007,0.182c0.325,0.248,0.627,0.523,0.903,0.823
		c-0.036,0.038-0.071,0.077-0.106,0.116l-0.951,0.951c-0.154-0.172-0.32-0.333-0.494-0.484C17.187,10.247,16.623,10.5,16,10.5
		c-1.156,0-2.109-0.872-2.236-1.995c-2.599,0.11-4.731,2.023-5.178,4.52c1.083,0.162,1.914,1.097,1.914,2.225
		c0,0.789-0.406,1.483-1.02,1.884c0.244,0.351,0.527,0.672,0.844,0.956l-0.953,0.953c-0.039,0.034-0.077,0.069-0.114,0.105
		c-0.525-0.484-0.976-1.048-1.334-1.672C6.835,17.318,6,16.382,6,15.25c0-0.792,0.41-1.489,1.029-1.89C7.352,9.794,10.35,7,14,7
		c0.043,0,0.085,0,0.128,0.001C14.532,6.398,15.219,6,16,6C17.243,6,18.25,7.007,18.25,8.25z" opacity="0.9" fill-rule="evenodd" clip-rule="evenodd" fill="#333333" enable-background="new"/></g><circle cx="16" cy="16" r="15.5" fill="none" stroke="#2e3d98"/></svg>