<svg version="1.1" xmlns="http://www.w3.org/2000/svg" xmlns:xlink="http://www.w3.org/1999/xlink" x="0px" y="0px" viewBox="0 0 32 32" style="enable-background:new 0 0 32 32;" xml:space="preserve"><circle cx="16" cy="16" r="14" fill="#dfeefa" stroke="#dfeefa"/><g><path d="M13.5,16c1.381,0,2.5-1.119,2.5-2.5S14.881,11,13.5,11S11,12.119,11,13.5S12.119,16,13.5,16z" opacity="0.6" fill="#333333" enable-background="new"/><path d="M21.778,8H10.222C9.665,8,9.084,8.192,8.638,8.638C8.192,9.084,8,9.665,8,10.222v11.556
		c0,0.558,0.192,1.139,0.638,1.584C9.084,23.808,9.665,24,10.222,24h11.556c0.558,0,1.139-0.192,1.584-0.638
		C23.808,22.917,24,22.335,24,21.778V10.222c0-0.558-0.192-1.139-0.638-1.584C22.917,8.192,22.335,8,21.778,8z M10.222,9.5h11.556
		c0.433,0,0.722,0.289,0.722,0.722v5.56c-0.014-0.013-0.029-0.025-0.045-0.038l-1.828-1.463c-0.585-0.439-1.462-0.366-1.901,0.219
		l-3.437,4.241c-0.439,0.585-1.243,0.731-1.828,0.292l-0.95-0.658c-0.512-0.439-1.243-0.366-1.682,0.073L9.5,19.716v-9.493
		C9.5,9.789,9.789,9.5,10.222,9.5z" fill-rule="evenodd" clip-rule="evenodd" fill="#333333"/></g><circle cx="16" cy="16" r="15.5" fill="none" stroke="none"/></svg>