<svg version="1.1" xmlns="http://www.w3.org/2000/svg" xmlns:xlink="http://www.w3.org/1999/xlink" x="0px" y="0px" viewBox="0 0 32 32" style="enable-background:new 0 0 32 32;" xml:space="preserve"><circle cx="16" cy="16" r="14" fill="#a0a4bc" stroke="#a0a4bc"/><path d="M9.611,15h4.778C14.726,15,15,14.726,15,14.389V9.611C15,9.274,14.726,9,14.389,9H9.611
	C9.274,9,9,9.274,9,9.611v4.778C9,14.726,9.274,15,9.611,15z M17.611,15h4.778C22.726,15,23,14.726,23,14.389V9.611
	C23,9.274,22.726,9,22.389,9h-4.778C17.274,9,17,9.274,17,9.611v4.778C17,14.726,17.274,15,17.611,15z M22.389,23h-4.778
	C17.274,23,17,22.726,17,22.389v-4.778C17,17.274,17.274,17,17.611,17h4.778C22.726,17,23,17.274,23,17.611v4.778
	C23,22.726,22.726,23,22.389,23z M9.611,23h4.778C14.726,23,15,22.726,15,22.389v-4.778C15,17.274,14.726,17,14.389,17H9.611
	C9.274,17,9,17.274,9,17.611v4.778C9,22.726,9.274,23,9.611,23z" fill-rule="evenodd" clip-rule="evenodd" fill="#414979"/><circle cx="16" cy="16" r="15.5" fill="none" stroke="none"/></svg>