<svg version="1.1" xmlns="http://www.w3.org/2000/svg" xmlns:xlink="http://www.w3.org/1999/xlink" x="0px" y="0px" viewBox="0 0 32 32" style="enable-background:new 0 0 32 32;" xml:space="preserve"><circle cx="16" cy="16" r="14" fill="#cccccc" stroke="#cccccc"/><path d="M20.231,13.701c0.405-0.405,1.061-0.405,1.465,0c0.405,0.405,0.405,1.06,0,1.465L16,20.862
	l-5.697-5.695c-0.405-0.405-0.405-1.061,0-1.465c0.405-0.405,1.061-0.405,1.466,0l3.179,3.178V9.036C14.948,8.464,15.411,8,15.984,8
	c0.573,0,1.036,0.464,1.036,1.036v7.875L20.231,13.701z M9.875,25h12.25C22.608,25,23,24.552,23,24s-0.392-1-0.875-1H9.875
	C9.392,23,9,23.448,9,24S9.392,25,9.875,25z" fill-rule="evenodd" clip-rule="evenodd" fill="#666666"/><circle cx="16" cy="16" r="15.5" fill="none" stroke="none"/></svg>