<svg version="1.1" xmlns="http://www.w3.org/2000/svg" xmlns:xlink="http://www.w3.org/1999/xlink" x="0px" y="0px" viewBox="0 0 32 32" style="enable-background:new 0 0 32 32;" xml:space="preserve"><circle cx="16" cy="16" r="14" fill="none" stroke="none"/><path d="M16,25c4.971,0,9-4.029,9-9s-4.029-9-9-9s-9,4.029-9,9S11.029,25,16,25z M16.825,12.498
	c0.791,0,1.432-0.641,1.432-1.432c0-0.791-0.641-1.432-1.432-1.432c-0.791,0-1.432,0.641-1.432,1.432
	C15.393,11.857,16.034,12.498,16.825,12.498z M17.618,13.531h-3.97l-0.307,1.635h1.398c0,0-0.273,1.946-0.785,3.991
	c-0.8,3.202,3.084,3.037,3.611,2.557l0.167-0.787c-1.621,0-1.268-1.196-1.268-1.196L17.618,13.531z" fill-rule="evenodd" clip-rule="evenodd" fill="#333333"/><circle cx="16" cy="16" r="15.5" fill="none" stroke="#2e3d98"/></svg>