<svg version="1.1" xmlns="http://www.w3.org/2000/svg" xmlns:xlink="http://www.w3.org/1999/xlink" x="0px" y="0px" viewBox="0 0 32 32" style="enable-background:new 0 0 32 32;" xml:space="preserve"><circle cx="16" cy="16" r="14" fill="none" stroke="none"/><path d="M10.556,7h10.111L23,9.455v13.909c0,0.9-0.7,1.636-1.556,1.636H10.556C9.7,25,9,24.264,9,23.364
	V8.636C9,7.736,9.7,7,10.556,7z M18.286,20.293c0.357,0,0.714-0.354,0.714-0.707V14h-5.571c-0.357,0-0.714,0.354-0.714,0.707
	c0,0.354,0.357,0.707,0.714,0.707h3.143l-4.357,4.384c-0.286,0.283-0.286,0.707,0,0.99c0.286,0.283,0.714,0.283,1,0l4.357-4.313
	v3.111C17.571,19.939,17.929,20.293,18.286,20.293z" fill-rule="evenodd" clip-rule="evenodd" fill="#ffffff"/><circle cx="16" cy="16" r="15.5" fill="none" stroke="none"/></svg>