<svg version="1.1" xmlns="http://www.w3.org/2000/svg" xmlns:xlink="http://www.w3.org/1999/xlink" x="0px" y="0px" viewBox="0 0 32 32" style="enable-background:new 0 0 32 32;" xml:space="preserve"><circle cx="16" cy="16" r="14" fill="#a0a4bc" stroke="#a0a4bc"/><g><path d="M11.75,12h6c0.414,0,0.75,0.336,0.75,0.75l0,0c0,0.414-0.336,0.75-0.75,0.75h-6c-0.414,0-0.75-0.336-0.75-0.75
		l0,0C11,12.336,11.336,12,11.75,12z" fill="#333333"/><path d="M11.75,15h8c0.414,0,0.75,0.336,0.75,0.75l0,0c0,0.414-0.336,0.75-0.75,0.75h-8c-0.414,0-0.75-0.336-0.75-0.75
		l0,0C11,15.336,11.336,15,11.75,15z" fill="#333333"/><path d="M11.75,18h5.5c0.414,0,0.75,0.336,0.75,0.75l0,0c0,0.414-0.336,0.75-0.75,0.75h-5.5
		c-0.414,0-0.75-0.336-0.75-0.75l0,0C11,18.336,11.336,18,11.75,18z" fill="#333333"/><path d="M22.219,20.206c-0.256-0.275-0.679-0.275-0.935,0c-0.247,0.265-0.247,0.687,0,0.952l0.856,0.917h-4.486
		c-0.376,0-0.653,0.322-0.653,0.682c0,0.36,0.276,0.682,0.653,0.682h4.474l-0.843,0.904c-0.247,0.265-0.247,0.687,0,0.952
		c0.256,0.275,0.679,0.275,0.935,0l2.373-2.544L22.219,20.206z" fill="#333333"/><path d="M10.4,9.5h11.2c0.497,0,0.9,0.403,0.9,0.9v8.236c0.301,0.112,0.581,0.295,0.816,0.547L24,19.917V10.4
		C24,9.075,22.926,8,21.6,8H10.4C9.075,8,8,9.075,8,10.4v11.2c0,1.326,1.075,2.4,2.4,2.4h5.486
		c-0.249-0.369-0.386-0.808-0.386-1.243c0-0.086,0.005-0.172,0.016-0.257H10.4c-0.497,0-0.9-0.403-0.9-0.9V10.4
		C9.5,9.903,9.903,9.5,10.4,9.5z" fill-rule="evenodd" clip-rule="evenodd" fill="#333333"/></g><circle cx="16" cy="16" r="15.5" fill="none" stroke="none"/></svg>