<?xml version="1.0" encoding="utf-8"?>
<!-- Generator: Adobe Illustrator 23.0.0, SVG Export Plug-In . SVG Version: 6.00 Build 0)  -->
<svg version="1.1" id="Layer_1" xmlns="http://www.w3.org/2000/svg" xmlns:xlink="http://www.w3.org/1999/xlink" x="0px" y="0px"
	 viewBox="0 0 24 24" style="enable-background:new 0 0 24 24;" xml:space="preserve">
<style type="text/css">
	.st0{fill-rule:evenodd;clip-rule:evenodd;fill:#666666;}
</style>
<path class="st0" d="M13.904,4.22l1.704,3.452l3.811,0.554c1.789,0.262,2.513,2.464,1.211,3.733l-0.001,0.001l-2.756,2.686
	l0.651,3.794c0.306,1.783-1.567,3.155-3.177,2.307l-3.406-1.791l-3.407,1.791C6.933,21.59,5.05,20.231,5.36,18.439l0-0.003
	l0.65-3.79l-2.751-2.682L3.256,11.96c-1.307-1.269-0.581-3.473,1.208-3.735l3.811-0.554L9.98,4.217
	C10.783,2.598,13.1,2.59,13.904,4.22z"/>
</svg>
