<?xml version="1.0" encoding="utf-8"?>
<!-- Generator: Adobe Illustrator 19.1.0, SVG Export Plug-In . SVG Version: 6.00 Build 0)  -->
<svg version="1.1" id="Layer_1" xmlns="http://www.w3.org/2000/svg" xmlns:xlink="http://www.w3.org/1999/xlink" x="0px" y="0px"
	 viewBox="4 -4 32 32" style="enable-background:new 4 -4 32 32;" xml:space="preserve">
<style type="text/css">
	.st0{fill:#0072AA;}
	.st1{fill:#FFFFFF;}
</style>
<g>
	<g>
		<path class="st0" d="M34.507,11.422c-0.193-1.449-1.546-2.416-2.995-2.416h-7.343c-1.643,0-2.126-1.063-1.739-2.126l0.773-2.029
			c0.097-0.193,0.87-2.995,0.87-2.995c0.58-2.126,0-4.638-1.353-5.121c-1.836-0.676-1.449,0.29-2.126,2.609
			c0,0-0.193,1.063-0.87,2.319c-1.063,2.029-2.512,3.865-3.575,5.604c-1.063,1.836-2.705,3.189-4.831,3.189H7.646
			c-0.773,0-1.353,0.676-1.353,1.449v11.981c0,0.773,0.676,1.449,1.449,1.449h1.449c2.802,0.386,3.962,1.159,5.701,1.643
			c2.126,0.483,5.121,0.58,5.604,0.58h8.31c1.449,0,2.802-0.966,2.995-2.319c0.097-0.483,0-0.87-0.097-1.353
			c-0.097-0.386,0-0.966,0.386-1.159c0.676-0.483,1.159-1.353,1.159-2.222c0-0.483-0.193-0.966-0.386-1.449
			c-0.29-0.483-0.29-0.966,0-1.449c0.29-0.386,0.386-0.87,0.386-1.449c0-0.58-0.193-1.159-0.483-1.546
			C33.831,14.03,34.701,12.774,34.507,11.422z"/>
		<path class="st1" d="M28.806,28.04h-8.309c-0.617,0-3.572-0.106-5.711-0.592c-0.627-0.174-1.15-0.37-1.704-0.578
			c-1.056-0.396-2.149-0.807-3.956-1.057l-1.383,0.005c-1.047,0-1.932-0.885-1.932-1.932V11.905c0-1.066,0.824-1.932,1.836-1.932
			h3.671c2.355,0,3.776-1.847,4.413-2.947c0.416-0.681,0.884-1.367,1.364-2.073c0.766-1.123,1.557-2.285,2.201-3.513
			c0.63-1.171,0.819-2.172,0.821-2.182c0.164-0.57,0.26-1.022,0.343-1.4c0.175-0.816,0.302-1.405,0.805-1.682
			c0.47-0.259,1.057-0.1,1.621,0.107c1.72,0.614,2.252,3.498,1.652,5.701c-0.359,1.301-0.807,2.89-0.905,3.085l-0.753,1.984
			c-0.142,0.39-0.123,0.761,0.055,1.014c0.209,0.299,0.635,0.456,1.233,0.456h7.344c1.764,0,3.257,1.218,3.473,2.834
			c0.206,1.444-0.608,2.705-1.564,3.409c0.2,0.418,0.313,0.91,0.313,1.391c0,0.747-0.154,1.3-0.484,1.739
			c-0.169,0.288-0.169,0.582,0.028,0.911c0.242,0.586,0.456,1.121,0.456,1.697c0,0.998-0.535,2.025-1.362,2.616
			c-0.187,0.099-0.257,0.419-0.199,0.649l0.028,0.136c0.093,0.458,0.181,0.889,0.074,1.429C32.058,26.866,30.564,28.04,28.806,28.04
			z M7.647,10.938c-0.48,0-0.87,0.434-0.87,0.966v11.981c0,0.506,0.46,0.966,0.966,0.966h1.449c1.98,0.269,3.176,0.718,4.23,1.114
			c0.533,0.2,1.037,0.39,1.6,0.546c2.04,0.462,4.981,0.561,5.475,0.561h8.309c1.259,0,2.365-0.836,2.517-1.904
			c0.074-0.374,0.014-0.666-0.069-1.072l-0.024-0.117c-0.144-0.577,0.029-1.38,0.644-1.687c0.508-0.37,0.893-1.105,0.893-1.79
			c0-0.39-0.171-0.817-0.352-1.27c-0.348-0.567-0.348-1.241,0.034-1.877c0.228-0.309,0.318-0.667,0.318-1.201
			c0-0.457-0.148-0.938-0.386-1.256l-0.336-0.446l0.491-0.267c0.839-0.459,1.664-1.497,1.492-2.697l-0.001-0.005
			c-0.151-1.138-1.233-1.996-2.516-1.996h-7.344c-1.171,0-1.748-0.472-2.025-0.868c-0.36-0.515-0.422-1.209-0.168-1.906l0.776-2.036
			c0.091-0.22,0.552-1.853,0.855-2.952c0.522-1.914,0.002-4.162-1.049-4.538c-0.648-0.238-0.802-0.182-0.826-0.169
			c-0.117,0.065-0.233,0.605-0.326,1.039c-0.086,0.397-0.188,0.871-0.347,1.419l0,0c0.002,0-0.204,1.106-0.908,2.413
			c-0.667,1.273-1.475,2.458-2.256,3.604c-0.471,0.692-0.93,1.364-1.332,2.023c-1.275,2.202-3.139,3.42-5.243,3.42H7.647z"/>
	</g>
</g>
</svg>
