<?xml version="1.0" encoding="utf-8"?>
<!-- Generator: Adobe Illustrator 19.1.0, SVG Export Plug-In . SVG Version: 6.00 Build 0)  -->
<svg version="1.1" id="Layer_1" xmlns="http://www.w3.org/2000/svg" xmlns:xlink="http://www.w3.org/1999/xlink" x="0px" y="0px"
	 viewBox="4 -4 32 32" style="enable-background:new 4 -4 32 32;" xml:space="preserve">
<style type="text/css">
	.st0{fill:#F9C511;}
	.st1{fill:#FFFFFF;}
	.st2{fill:#333333;}
</style>
<g>
	<g>
		<g>
			<circle class="st0" cx="20" cy="12" r="15.515"/>
			<path class="st1" d="M20,28c-8.822,0-16-7.178-16-16C4,3.178,11.178-4,20-4c8.822,0,16,7.178,16,16C36,20.822,28.822,28,20,28z
				 M20-3.03C11.712-3.03,4.97,3.712,4.97,12S11.712,27.03,20,27.03S35.03,20.288,35.03,12S28.288-3.03,20-3.03z"/>
		</g>
	</g>
	<g>
		<circle class="st2" cx="26.303" cy="10.448" r="2.036"/>
	</g>
	<g>
		<path class="st2" d="M16.024,11.224h-4.17c-0.485,0-0.97-0.388-0.97-0.97s0.388-0.97,0.97-0.97h4.17c0.485,0,0.97,0.388,0.97,0.97
			S16.509,11.224,16.024,11.224z"/>
	</g>
	<g>
		<path class="st2" d="M19.127,21.115c-0.776,0-1.455-0.097-2.23-0.291c-2.812-0.776-5.139-3.006-5.915-5.818
			c-0.097-0.485,0.194-0.97,0.679-1.164c0.485-0.097,0.97,0.194,1.164,0.679c0.582,2.23,2.424,3.976,4.558,4.558
			c2.133,0.582,4.364,0.097,6.012-1.358c0.388-0.291,0.97-0.291,1.358,0.097c0.291,0.388,0.291,0.97-0.097,1.358
			C23.103,20.339,21.067,21.115,19.127,21.115z"/>
	</g>
</g>
</svg>
