<svg xmlns="http://www.w3.org/2000/svg" viewBox="0 0 42 42"><title>header_favourite_mo</title><path d="M21.4,11.3,24,16.6c.1.1.2.3.4.3l5.8.8a.441.441,0,0,1,.4.6c0,.1-.1.2-.1.3l-4.2,4.1c-.1.1-.2.3-.1.4l1,5.8a.548.548,0,0,1-.4.6.367.367,0,0,1-.3-.1l-5.2-2.7a.446.446,0,0,0-.5,0l-5.2,2.7a.663.663,0,0,1-.7-.2.367.367,0,0,1-.1-.3l1-5.8c0-.2,0-.3-.1-.4l-4.2-4.1a.483.483,0,0,1,0-.7.367.367,0,0,1,.3-.1l5.8-.8c.2,0,.3-.1.4-.3l2.6-5.3a.574.574,0,0,1,.7-.2C21.3,11.1,21.4,11.2,21.4,11.3Z" fill="#333"/><path d="M21,1.952A19.048,19.048,0,1,1,1.952,21,19.1,19.1,0,0,1,21,1.952M21,1A20,20,0,1,0,41,21,20,20,0,0,0,21,1Z" fill="#666"/></svg>