<svg id="Layer_1" data-name="Layer 1" xmlns="http://www.w3.org/2000/svg" viewBox="0 0 24 24"><defs><style>.cls-1{fill:#8cc53e;}.cls-2{fill:#fff;}</style></defs><title>status_emailsent24</title><circle class="cls-1" cx="12" cy="12" r="12"/><path class="cls-2" d="M6.24,7.325l5.662,5.3,5.663-5.362c-.241-.18-.362-.361-.723-.361H7.023C6.662,6.963,6.541,7.144,6.24,7.325Z"/><path class="cls-2" d="M18.258,12.591a3.248,3.248,0,1,0,3.248,3.248A3.248,3.248,0,0,0,18.258,12.591Zm1.991,2.79-1.987,1.987a.465.465,0,0,1-.655,0l-1.339-1.339a.462.462,0,1,1,.654-.654l1.013,1.012,1.66-1.66a.462.462,0,0,1,.654.654Z"/><path class="cls-2" d="M14.2,15.839a4.059,4.059,0,0,1,4.059-4.06c.114,0,.22.025.331.034V9.072a1.733,1.733,0,0,0-.422-1.085l-6.024,5.482a.455.455,0,0,1-.241.06.22.22,0,0,1-.18-.06L5.7,7.987a1.573,1.573,0,0,0-.422,1.024v5.783A1.8,1.8,0,0,0,7.023,16.6h7.253A4.068,4.068,0,0,1,14.2,15.839Z"/></svg>