<?xml version="1.0" encoding="utf-8"?>
<!-- Generator: Adobe Illustrator 19.2.0, SVG Export Plug-In . SVG Version: 6.00 Build 0)  -->
<!DOCTYPE svg PUBLIC "-//W3C//DTD SVG 1.1//EN" "http://www.w3.org/Graphics/SVG/1.1/DTD/svg11.dtd">
<svg version="1.1" id="Layer_1" xmlns="http://www.w3.org/2000/svg" xmlns:xlink="http://www.w3.org/1999/xlink" x="0px" y="0px"
	 viewBox="0 0 36 36" enable-background="new 0 0 36 36" xml:space="preserve">
<path fill="#00A4D8" d="M18,0C8.059,0,0,8.059,0,18s8.059,18,18,18s18-8.059,18-18S27.941,0,18,0z"/>
<path fill="#FFFFFF" d="M14.027,23H9c-0.551,0-1-0.449-1-1V9c0-0.551,0.449-1,1-1h8.086L20,10.914v3.079
	c0.326-0.115,0.658-0.215,1-0.292v-3.2L17.5,7H9C7.895,7,7,7.895,7,9v13c0,1.105,0.895,2,2,2h5.14
	C14.083,23.672,14.047,23.339,14.027,23z"/>
<path fill="#FFFFFF" d="M30.462,19.597c-1.181-3.066-4.181-5.127-7.466-5.127c-0.981,0-1.947,0.18-2.871,0.536
	c-4.116,1.585-6.175,6.223-4.59,10.338C16.715,28.41,19.715,30.47,23,30.47c0.981,0,1.948-0.18,2.872-0.536
	c1.994-0.768,3.569-2.266,4.436-4.218C31.174,23.763,31.229,21.59,30.462,19.597z M25.737,28.887L24.625,26l2.583-0.994
	C27.256,26.851,26.741,28.333,25.737,28.887z M16.38,24.717c-0.361-1.061-0.457-2.153-0.311-3.201l2.26-0.87
	c0.092,0.969,0.323,2.004,0.702,3.05L16.38,24.717z M18.818,20.459l2.733-1.052l1.113,2.892l-3.166,1.219
	C19.12,22.47,18.895,21.426,18.818,20.459z M20.259,16.053l1.112,2.887l-2.583,0.994C18.74,18.089,19.255,16.607,20.259,16.053z
	 M21.838,18.76l-1.112-2.888c0.145-0.034,0.294-0.058,0.449-0.058c1.052,0,2.222,0.738,3.254,1.948L21.838,18.76z M24.758,18.171
	c0.589,0.772,1.119,1.7,1.54,2.728l-3.168,1.219l-1.113-2.892L24.758,18.171z M22.844,22.765l1.135,2.948l-2.741,1.055
	c-0.6-0.786-1.138-1.733-1.562-2.783L22.844,22.765z M24.158,26.18l1.112,2.889c-0.145,0.034-0.294,0.058-0.449,0.058
	c-1.052,0-2.222-0.738-3.254-1.949L24.158,26.18z M24.445,25.533l-1.135-2.948l3.168-1.22c0.389,1.066,0.621,2.13,0.7,3.115
	L24.445,25.533z M26.945,21.186l2.652-1.021c0.371,1.06,0.483,2.169,0.333,3.256l-2.263,0.871
	C27.573,23.307,27.335,22.252,26.945,21.186z M29.417,19.699l-2.653,1.021c-0.421-1.03-0.944-1.953-1.526-2.734l2.251-0.867
	C28.312,17.808,28.979,18.685,29.417,19.699z M27.027,16.762l-2.111,0.813c-0.838-1.012-1.77-1.732-2.68-2.059
	c0.252-0.028,0.505-0.046,0.759-0.046C24.465,15.47,25.867,15.943,27.027,16.762z M18.9,16.807
	c-0.454,0.852-0.663,2.008-0.606,3.317l-2.121,0.816C16.544,19.3,17.503,17.819,18.9,16.807z M16.555,25.186l2.654-1.022
	c0.425,1.052,0.956,1.994,1.548,2.789l-2.251,0.867C17.669,27.119,16.992,26.223,16.555,25.186z M18.968,28.178l2.111-0.813
	c0.837,1.012,1.77,1.731,2.68,2.059C23.508,29.451,23.255,29.47,23,29.47C21.531,29.47,20.128,28.996,18.968,28.178z M27.093,28.138
	c0.456-0.853,0.666-2.01,0.609-3.323l2.128-0.819c-0.101,0.446-0.246,0.886-0.436,1.314C28.883,26.46,28.087,27.423,27.093,28.138z"
	/>
<path fill="#FFFFFF" d="M13,17.109l-2.555-2.555c-0.307-0.306-0.307-0.803,0-1.109c0.307-0.307,0.803-0.307,1.109,0L13,14.891
	l3.445-3.445c0.307-0.307,0.803-0.307,1.109,0c0.307,0.306,0.307,0.803,0,1.109L13,17.109z"/>
</svg>
