<?xml version="1.0" encoding="utf-8"?>
<!-- Generator: Adobe Illustrator 19.2.0, SVG Export Plug-In . SVG Version: 6.00 Build 0)  -->
<!DOCTYPE svg PUBLIC "-//W3C//DTD SVG 1.1//EN" "http://www.w3.org/Graphics/SVG/1.1/DTD/svg11.dtd">
<svg version="1.1" xmlns="http://www.w3.org/2000/svg" xmlns:xlink="http://www.w3.org/1999/xlink" x="0px" y="0px"
	 viewBox="0 0 32 32" enable-background="new 0 0 32 32" xml:space="preserve">
<symbol  id="Shortcut_2_" viewBox="-7.5 -7.5 15 15">
	<g>
		<g>
			<circle opacity="0.9" fill="#3C5666" cx="0" cy="0" r="7"/>
			<path fill="#FFFFFF" d="M0,6.5c3.59,0,6.5-2.91,6.5-6.5S3.59-6.5,0-6.5S-6.5-3.59-6.5,0S-3.59,6.5,0,6.5 M0,7.5
				c-4.136,0-7.5-3.364-7.5-7.5S-4.136-7.5,0-7.5S7.5-4.136,7.5,0S4.136,7.5,0,7.5L0,7.5z"/>
		</g>
	</g>
	<path fill="#3C5666" d="M4.207,0.5L1.854,2.854c-0.195,0.195-0.512,0.195-0.707,0s-0.195-0.512,0-0.707L2.293,1H1.5
		C-1.359,1-3-0.641-3-3.5C-3-3.776-2.776-4-2.5-4S-2-3.776-2-3.5C-2-1.903-1.393,0,1.5,0h0.793L1.146-1.146
		c-0.195-0.195-0.195-0.512,0-0.707C1.244-1.951,1.372-2,1.5-2s0.256,0.049,0.354,0.146L4.207,0.5z"/>
	<path fill="#FFFFFF" d="M4.207,1.5L1.854,3.854c-0.195,0.195-0.512,0.195-0.707,0s-0.195-0.512,0-0.707L2.293,2H1.5
		C-1.359,2-3,0.359-3-2.5C-3-2.776-2.776-3-2.5-3S-2-2.776-2-2.5C-2-0.903-1.393,1,1.5,1h0.793L1.146-0.146
		c-0.195-0.195-0.195-0.512,0-0.707C1.244-0.951,1.372-1,1.5-1s0.256,0.049,0.354,0.146L4.207,1.5z"/>
</symbol>
<g id="Layer_1">
	<g id="Ppt">
	</g>
	<g id="Small_Folder">
	</g>
	<g id="fave_icon_-_selected">
	</g>
	<g id="Shortcut_1_">
	</g>
	<g id="comment_icon_-_selected">
	</g>
	<g id="Comment_icon">
		<g>
			<path fill="#0072AA" d="M21.157,31.5c-0.388,0-0.742-0.164-1.001-0.462L16.21,26.5H9c-2.481,0-4.5-2.019-4.5-4.5V5
				c0-2.481,2.019-4.5,4.5-4.5h12.207L27.5,6.793V22c0,2.481-2.019,4.5-4.5,4.5h-0.488l-0.013,3.668
				C22.496,30.915,21.906,31.5,21.157,31.5z"/>
			<path fill="#FFFFFF" d="M21,1l6,6v15c0,2.2-1.8,4-4,4h-0.986l-0.015,4.166C21.997,30.673,21.583,31,21.157,31
				c-0.223,0-0.449-0.089-0.623-0.289L16.438,26H9c-2.2,0-4-1.8-4-4V5c0-2.2,1.8-4,4-4H21 M21.414,0H21H9C6.243,0,4,2.243,4,5v17
				c0,2.757,2.243,5,5,5h6.982l3.797,4.367C20.129,31.769,20.631,32,21.157,32c1.012,0,1.838-0.821,1.842-1.83L23.01,27
				c2.752-0.005,4.99-2.246,4.99-5V7V6.586l-0.293-0.293l-6-6L21.414,0L21.414,0z"/>
		</g>
		<path fill="#004B71" d="M22.488,19.048H9.512C9.229,19.048,9,18.819,9,18.536l0,0c0-0.283,0.229-0.512,0.512-0.512h12.976
			c0.283,0,0.512,0.229,0.512,0.512l0,0C23,18.819,22.771,19.048,22.488,19.048z"/>
		<path fill="#004B71" d="M22.488,22.119H9.512C9.229,22.119,9,21.89,9,21.608v0c0-0.283,0.229-0.512,0.512-0.512h12.976
			c0.283,0,0.512,0.229,0.512,0.512v0C23,21.89,22.771,22.119,22.488,22.119z"/>
		<path fill="#FFFFFF" d="M22.488,18.024H9.512C9.229,18.024,9,17.795,9,17.512v0C9,17.229,9.229,17,9.512,17h12.976
			C22.771,17,23,17.229,23,17.512v0C23,17.795,22.771,18.024,22.488,18.024z"/>
		<path fill="#FFFFFF" d="M22.488,21.096H9.512C9.229,21.096,9,20.866,9,20.584l0,0c0-0.283,0.229-0.512,0.512-0.512h12.976
			c0.283,0,0.512,0.229,0.512,0.512l0,0C23,20.866,22.771,21.096,22.488,21.096z"/>
		<polygon fill-rule="evenodd" clip-rule="evenodd" fill="#004B71" points="21,1 21,7 27,7 		"/>
		<path fill="#004B71" d="M17.926,6h-7.852C9.483,6,9,6.483,9,7.074v6.852C9,14.517,9.483,15,10.074,15h7.852
			C18.517,15,19,14.517,19,13.926V7.074C19,6.483,18.517,6,17.926,6z"/>
		<path fill="#FFFFFF" d="M17.926,5h-7.852C9.483,5,9,5.483,9,6.074v6.852C9,13.517,9.483,14,10.074,14h7.852
			C18.517,14,19,13.517,19,12.926V6.074C19,5.483,18.517,5,17.926,5z"/>
	</g>
</g>
<g id="shortcut_overlay" display="none">
	<g id="Shortcut" display="inline">
	</g>
	
		<use xlink:href="#Shortcut_2_"  width="15" height="15" x="-7.5" y="-7.5" transform="matrix(1 0 0 -1 7.5 24.5)" display="inline" overflow="visible"/>
</g>
</svg>
