<?xml version="1.0" encoding="utf-8"?>
<!-- Generator: Adobe Illustrator 20.1.0, SVG Export Plug-In . SVG Version: 6.00 Build 0)  -->
<svg version="1.1" id="Layer_1" xmlns="http://www.w3.org/2000/svg" xmlns:xlink="http://www.w3.org/1999/xlink" x="0px" y="0px"
	 viewBox="0 0 24 24" style="enable-background:new 0 0 24 24;" xml:space="preserve">
<style type="text/css">
	.st0{fill:#333333;}
</style>
<title>Asset 8</title>
<g id="Layer_2">
	<g id="Layer_1-2">
		<path class="st0" d="M3.9,21.2c-1.8-1.8-2.5-4.9-0.8-6.7L15,2.6c1.7-1.7,3.7-2.2,5.1-0.9l1.1,1.1c1.3,1.3,0.8,3.3-0.9,5L9.1,19
			c-0.8,0.9-2.1,0.9-3,0.2c-0.9-0.8-0.9-2.1-0.2-3C6,16.1,6,16.1,6.1,16l6-6c0.2-0.2,0.5-0.2,0.7-0.1c0,0,0,0,0,0
			c0.2,0.2,0.2,0.6,0,0.8l-5.9,6c-0.4,0.4-0.4,1.1,0,1.5c0.4,0.4,1,0.4,1.5,0L19.5,7.1c1.3-1.3,1.6-2.8,0.7-3.7l-0.7-0.7
			c-0.9-0.9-2.5-0.5-3.7,0.7L3.9,15.3c-1.4,1.4-0.6,3.9,0.7,5.2s3.9,2.1,5.2,0.7l9.7-9.7c0.2-0.2,0.5-0.2,0.7-0.1c0,0,0,0,0,0
			c0.2,0.2,0.2,0.6,0,0.8L10.6,22C8.8,23.8,5.7,23,3.9,21.2z"/>
	</g>
</g>
</svg>
