<?xml version="1.0" encoding="utf-8"?>
<!-- Generator: Adobe Illustrator 20.1.0, SVG Export Plug-In . SVG Version: 6.00 Build 0)  -->
<svg version="1.1" id="Layer_1" xmlns="http://www.w3.org/2000/svg" xmlns:xlink="http://www.w3.org/1999/xlink" x="0px" y="0px"
	 viewBox="0 0 24 24" style="enable-background:new 0 0 24 24;" xml:space="preserve">
<style type="text/css">
	.st0{fill:#627782;}
</style>
<title>Asset 8</title>
<path class="st0" d="M19.135,11.203l-9.673,9.674c-0.676,0.674-1.642,0.606-2.157,0.509c-0.849-0.164-1.725-0.632-2.344-1.253
	c-1.237-1.239-1.818-3.429-0.745-4.502L16.121,3.725c1.07-1.07,2.365-1.391,3.014-0.744l0.743,0.744
	c0.646,0.648,0.327,1.943-0.743,3.014L7.981,17.892c-0.213,0.203-0.548,0.203-0.761,0C7,17.682,6.991,17.331,7.191,17.119
	l5.95-5.954c0.406-0.409,0.406-1.073-0.051-1.529c-0.423-0.365-1.062-0.316-1.402,0.078l-5.933,5.934
	c-0.077,0.068-0.149,0.141-0.216,0.217c-0.463,0.521-0.695,1.19-0.654,1.886c0.041,0.696,0.351,1.334,0.872,1.797
	s1.188,0.692,1.887,0.653c0.695-0.041,1.333-0.351,1.775-0.851L20.586,8.19c2.022-2.023,2.388-4.272,0.93-5.73l-1.057-1.059
	c-1.472-1.467-3.797-1.118-5.787,0.873L2.765,14.18c-0.94,0.94-1.331,2.284-1.101,3.783c0.204,1.333,0.881,2.656,1.856,3.631
	c1.16,1.16,2.836,1.901,4.425,1.901c1.098,0,2.154-0.354,2.968-1.168l9.674-9.674c0.407-0.409,0.407-1.074-0.05-1.528
	C20.114,10.76,19.475,10.808,19.135,11.203z"/>
</svg>
