<?xml version="1.0" encoding="UTF-8" standalone="no"?><!DOCTYPE svg PUBLIC "-//W3C//DTD SVG 1.1//EN" "http://www.w3.org/Graphics/SVG/1.1/DTD/svg11.dtd"><svg width="100%" height="100%" viewBox="0 0 24 24" version="1.1" xmlns="http://www.w3.org/2000/svg" xmlns:xlink="http://www.w3.org/1999/xlink" xml:space="preserve" xmlns:serif="http://www.serif.com/" style="fill-rule:evenodd;clip-rule:evenodd;stroke-linejoin:round;stroke-miterlimit:2;"><circle cx="12" cy="12" r="12" style="fill:none;"/><g><path d="M10.632,1.389c0.357,0.385 0.357,1.008 0,1.394l-4.844,5.217l-2.588,0l6.138,-6.611c0.357,-0.385 0.936,-0.385 1.294,0Zm2.736,0c0.358,-0.385 0.937,-0.385 1.294,0l6.138,6.611l-2.588,0l-4.844,-5.217c-0.357,-0.386 -0.357,-1.009 0,-1.394Z" style="fill:#333;fill-opacity:0.8;"/><path d="M23,9.55c0,-0.304 -0.246,-0.55 -0.55,-0.55l-20.9,0c-0.304,0 -0.55,0.246 -0.55,0.55l0,0.9c0,0.304 0.246,0.55 0.55,0.55l20.9,0c0.304,0 0.55,-0.246 0.55,-0.55l0,-0.9Z" style="fill:#333;"/><path d="M2,12l2.016,8.164c0.121,0.491 0.562,0.836 1.068,0.836l13.832,0c0.506,0 0.947,-0.345 1.068,-0.836l2.016,-8.164l-20,0Zm3.4,2.85c0,-0.304 0.246,-0.55 0.55,-0.55l12.1,0c0.304,0 0.55,0.246 0.55,0.55c0,0.304 -0.246,0.55 -0.55,0.55l-12.1,0c-0.304,0 -0.55,-0.246 -0.55,-0.55Zm1.1,3.3c0,-0.304 0.246,-0.55 0.55,-0.55l9.9,0c0.304,0 0.55,0.246 0.55,0.55c0,0.304 -0.246,0.55 -0.55,0.55l-9.9,0c-0.304,0 -0.55,-0.246 -0.55,-0.55Z" style="fill:#333;"/></g></svg>