<?xml version="1.0" encoding="utf-8"?>
<!-- Generator: Adobe Illustrator 21.0.0, SVG Export Plug-In . SVG Version: 6.00 Build 0)  -->
<!DOCTYPE svg PUBLIC "-//W3C//DTD SVG 1.1//EN" "http://www.w3.org/Graphics/SVG/1.1/DTD/svg11.dtd">
<svg version="1.1" id="Layer_1" xmlns="http://www.w3.org/2000/svg" xmlns:xlink="http://www.w3.org/1999/xlink" x="0px" y="0px"
	 viewBox="0 0 24 24" enable-background="new 0 0 24 24" xml:space="preserve">
<g id="New_Symbol_18">
	<g>
		<path fill="#F5F5F5" d="M2.667,23.333c-1.103,0-2-0.897-2-2V2.667c0-1.103,0.897-2,2-2h18.667c1.103,0,2,0.897,2,2v18.667
			c0,1.103-0.897,2-2,2H2.667z"/>
		<path fill="#A9A9A9" d="M21.333,1.333c0.735,0,1.333,0.598,1.333,1.333v18.667c0,0.735-0.598,1.333-1.333,1.333H2.667
			c-0.735,0-1.333-0.598-1.333-1.333V2.667c0-0.735,0.598-1.333,1.333-1.333H21.333 M21.333,0H2.667C1.2,0,0,1.2,0,2.667v18.667
			C0,22.8,1.2,24,2.667,24h18.667C22.8,24,24,22.8,24,21.333V2.667C24,1.2,22.8,0,21.333,0L21.333,0z"/>
	</g>
	<g>
		<g>
			<g>
				<path fill="#A9A9A9" d="M9.733,17.733l-4.667-4.667c-0.533-0.533-0.533-1.333,0-1.867s1.333-0.533,1.867,0l2.8,2.8l7.333-7.333
					c0.533-0.533,1.333-0.533,1.867,0s0.533,1.333,0,1.867L9.733,17.733z"/>
			</g>
		</g>
	</g>
</g>
</svg>
