<?xml version="1.0" encoding="utf-8"?>
<!-- Generator: Adobe Illustrator 18.1.0, SVG Export Plug-In . SVG Version: 6.00 Build 0)  -->
<!DOCTYPE svg PUBLIC "-//W3C//DTD SVG 1.1//EN" "http://www.w3.org/Graphics/SVG/1.1/DTD/svg11.dtd">
<svg version="1.1" id="Layer_1" xmlns="http://www.w3.org/2000/svg" xmlns:xlink="http://www.w3.org/1999/xlink" x="0px" y="0px"
	 viewBox="0 0 32 32" enable-background="new 0 0 32 32" xml:space="preserve">
<g id="Ppt">
</g>
<g id="Small_Folder">
</g>
<g id="fave_icon_-_selected">
</g>
<g>
	<g>
		<g>
			<g>
				<path fill="#00A389" d="M16,22.5c-1.378,0-2.5-1.121-2.5-2.5V3.6c0-1.158,0.942-2.1,2.1-2.1h10.607L30.5,5.793V20.4
					c0,1.158-0.942,2.1-2.1,2.1H16z"/>
				<path fill="#FFFFFF" d="M26,2l4,4v14.4c0,0.884-0.716,1.6-1.6,1.6H16c-1.105,0-2-0.895-2-2V3.6C14,2.716,14.716,2,15.6,2H26
					 M26.414,1H26H15.6C14.166,1,13,2.166,13,3.6V20c0,1.654,1.346,3,3,3h12.4c1.434,0,2.6-1.166,2.6-2.6V6V5.586l-0.293-0.293l-4-4
					L26.414,1L26.414,1z"/>
			</g>
		</g>
		<polygon fill-rule="evenodd" clip-rule="evenodd" fill="#00795A" points="26,2 26,6 30,6 		"/>
	</g>
	<g>
		<g>
			<path fill="#B36601" d="M1.5,30.5V14.177c0-0.925,0.748-1.677,1.667-1.677h6.143c0.387,0,0.776,0.139,1.095,0.391l2.849,2.405
				c0.186,0.146,0.301,0.204,0.414,0.204h8.167c0.919,0,1.667,0.748,1.667,1.667V30.5H1.5z"/>
			<g>
				<path fill="#FFFFFF" d="M9.309,13c0.285,0,0.561,0.106,0.785,0.283l2.837,2.395C13.154,15.855,13.382,16,13.667,16h8.167
					C22.478,16,23,16.522,23,17.167V30H2V14.176C2,13.532,2.522,13,3.167,13H9.309 M9.309,12H3.167C1.972,12,1,12.976,1,14.176V30v1
					h1h21h1v-1V17.167C24,15.972,23.028,15,21.833,15h-8.132c-0.022-0.012-0.067-0.041-0.15-0.106l-2.813-2.375
					C10.308,12.177,9.809,12,9.309,12L9.309,12z"/>
			</g>
		</g>
	</g>
	<g>
		<path fill="#E3992E" d="M3,29h19V19c0-0.552-0.448-1-1-1H4c-0.552,0-1,0.448-1,1V29z"/>
	</g>
	<g>
		<polygon fill="#DD8100" points="3,29 22,29 22,19 		"/>
	</g>
</g>
</svg>
