<?xml version="1.0" encoding="utf-8"?>
<!-- Generator: Adobe Illustrator 19.1.0, SVG Export Plug-In . SVG Version: 6.00 Build 0)  -->
<svg version="1.1" id="Layer_1" xmlns="http://www.w3.org/2000/svg" xmlns:xlink="http://www.w3.org/1999/xlink" x="0px" y="0px"
	 viewBox="0 0 24 24" enable-background="new 0 0 24 24" xml:space="preserve">
<g>
	<g>
		<path fill="#EEEEEE" d="M2.5,16.5c-1.103,0-2-0.897-2-2v-12c0-1.103,0.897-2,2-2h7.707L13.5,3.793V14.5c0,1.103-0.897,2-2,2H2.5z"
			/>
		<path fill="#333333" d="M10,1l3,3v10.5c0,0.829-0.671,1.5-1.5,1.5h-9C1.671,16,1,15.329,1,14.5v-12C1,1.671,1.671,1,2.5,1H10
			 M10.414,0H10H2.5C1.122,0,0,1.122,0,2.5v12C0,15.878,1.122,17,2.5,17h9c1.378,0,2.5-1.122,2.5-2.5V4V3.586l-0.293-0.293l-3-3
			L10.414,0z"/>
		<path fill="#FFFFFF" d="M12.5,23.5c-1.103,0-2-0.897-2-2v-12c0-1.103,0.897-2,2-2h7.707l3.293,3.293V21.5c0,1.103-0.897,2-2,2
			H12.5z"/>
		<path fill="#333333" d="M20,8l3,3v10.5c0,0.829-0.671,1.5-1.5,1.5h-9c-0.829,0-1.5-0.671-1.5-1.5v-12C11,8.671,11.671,8,12.5,8H20
			 M20.414,7H20h-7.5C11.122,7,10,8.122,10,9.5v12c0,1.378,1.122,2.5,2.5,2.5h9c1.378,0,2.5-1.122,2.5-2.5V11v-0.414l-0.293-0.293
			l-3-3L20.414,7z"/>
	</g>
</g>
</svg>
