<?xml version="1.0" encoding="utf-8"?>
<!-- Generator: Adobe Illustrator 19.1.0, SVG Export Plug-In . SVG Version: 6.00 Build 0)  -->
<svg version="1.1" id="Layer_1" xmlns="http://www.w3.org/2000/svg" xmlns:xlink="http://www.w3.org/1999/xlink" x="0px" y="0px"
	 viewBox="0 0 24 24" enable-background="new 0 0 24 24" xml:space="preserve">
<g>
	<path fill="#333333" d="M16,21.5H8c-1.105,0-2-0.895-2-2v-12h12v12C18,20.605,17.105,21.5,16,21.5"/>
	<path fill="#333333" d="M14,4.5h-4v-1h4V4.5z M14,2.5h-4c-0.552,0-1,0.448-1,1v1c0,0.552,0.448,1,1,1h4c0.552,0,1-0.448,1-1v-1
		C15,2.948,14.552,2.5,14,2.5"/>
	<path fill="#333333" d="M18,4.5H6c-0.552,0-1,0.448-1,1v1h14v-1C19,4.948,18.552,4.5,18,4.5"/>
</g>
</svg>
