<?xml version="1.0" encoding="utf-8"?>
<!-- Generator: Adobe Illustrator 19.2.0, SVG Export Plug-In . SVG Version: 6.00 Build 0)  -->
<!DOCTYPE svg PUBLIC "-//W3C//DTD SVG 1.1//EN" "http://www.w3.org/Graphics/SVG/1.1/DTD/svg11.dtd">
<svg version="1.1" id="Layer_1" xmlns="http://www.w3.org/2000/svg" xmlns:xlink="http://www.w3.org/1999/xlink" x="0px" y="0px"
	 viewBox="-293 385 24 24" enable-background="new -293 385 24 24" xml:space="preserve">
<g>
	<circle fill="#757575" cx="-281" cy="397" r="12"/>
	<path fill="#FFFFFF" d="M-279.609,397.024l3.153-3.153c0.39-0.39,0.39-1.024,0-1.414c-0.391-0.39-1.023-0.39-1.414,0l-3.153,3.153
		l-3.153-3.153c-0.39-0.39-1.024-0.39-1.414,0c-0.39,0.39-0.39,1.024,0,1.414l3.153,3.153l-3.153,3.153
		c-0.39,0.39-0.39,1.024,0,1.414c0.378,0.377,1.036,0.377,1.414,0l3.153-3.152l3.153,3.152c0.188,0.188,0.44,0.293,0.707,0.293
		s0.519-0.104,0.707-0.293c0.39-0.39,0.39-1.024,0-1.414L-279.609,397.024z"/>
</g>
</svg>
