<?xml version="1.0" encoding="utf-8"?>
<!-- Generator: Adobe Illustrator 19.2.0, SVG Export Plug-In . SVG Version: 6.00 Build 0)  -->
<!DOCTYPE svg PUBLIC "-//W3C//DTD SVG 1.1//EN" "http://www.w3.org/Graphics/SVG/1.1/DTD/svg11.dtd">
<svg version="1.1" id="Layer_1" xmlns="http://www.w3.org/2000/svg" xmlns:xlink="http://www.w3.org/1999/xlink" x="0px" y="0px"
	 viewBox="0 0 24 24" enable-background="new 0 0 24 24" xml:space="preserve">
<g id="New_Symbol_22">
	<circle fill="#627783" cx="12" cy="12" r="12"/>
	<path fill="#FFFFFF" d="M14.1,12l2.8-2.8c0.6-0.6,0.6-1.5,0-2.1s-1.5-0.6-2.1,0L12,9.9L9.2,7.1c-0.6-0.6-1.5-0.6-2.1,0
		s-0.6,1.5,0,2.1L9.9,12l-2.8,2.8c-0.6,0.6-0.6,1.5,0,2.1c0.3,0.3,0.7,0.4,1.1,0.4s0.8-0.1,1.1-0.4l2.8-2.8l2.8,2.8
		c0.3,0.3,0.7,0.4,1.1,0.4s0.8-0.1,1.1-0.4c0.6-0.6,0.6-1.5,0-2.1L14.1,12z"/>
</g>
</svg>
