<svg xmlns="http://www.w3.org/2000/svg" viewBox="0 0 24 18"><title>Asset 2</title><g data-name="Layer 2"><g><path d="M23.039,2H.961A1.136,1.136,0,0,1,0,1,1.136,1.136,0,0,1,.961,0H23.04A1.136,1.136,0,0,1,24,1,1.136,1.136,0,0,1,23.039,2Z" fill="#666"/><path d="M22.079,10H.922a1,1,0,0,1,0-2H22.079a1,1,0,0,1,0,2Z" fill="#666"/><path d="M13.92,18H.58C.26,18,0,17.354,0,17s.26-1,.58-1H13.92c.321,0,.58.646.58,1S14.24,18,13.92,18Z" fill="#666"/><path d="M20.64,6H.86A.952.952,0,0,1,0,5,.952.952,0,0,1,.86,4H20.64a.952.952,0,0,1,.86,1A.952.952,0,0,1,20.64,6Z" fill="#666"/><path d="M22.079,14H.922a1,1,0,0,1,0-2H22.079a1,1,0,0,1,0,2Z" fill="#666"/></g></g></svg>