<svg width="16" height="16" viewBox="0 0 16 16" fill="none" xmlns="http://www.w3.org/2000/svg">
<path fill-rule="evenodd" clip-rule="evenodd" d="M6 5C6.55228 5 7 4.55228 7 4C7 3.44772 6.55228 3 6 3C5.44772 3 5 3.44772 5 4C5 4.55228 5.44772 5 6 5ZM10 5C10.5523 5 11 4.55228 11 4C11 3.44772 10.5523 3 10 3C9.44772 3 9 3.44772 9 4C9 4.55228 9.44772 5 10 5ZM7 8C7 8.55228 6.55228 9 6 9C5.44772 9 5 8.55228 5 8C5 7.44772 5.44772 7 6 7C6.55228 7 7 7.44772 7 8ZM10 9C10.5523 9 11 8.55228 11 8C11 7.44772 10.5523 7 10 7C9.44772 7 9 7.44772 9 8C9 8.55228 9.44772 9 10 9ZM7 12C7 12.5523 6.55228 13 6 13C5.44772 13 5 12.5523 5 12C5 11.4477 5.44772 11 6 11C6.55228 11 7 11.4477 7 12ZM10 13C10.5523 13 11 12.5523 11 12C11 11.4477 10.5523 11 10 11C9.44772 11 9 11.4477 9 12C9 12.5523 9.44772 13 10 13Z" fill="#3F4950"/>
</svg>
