<svg width="89" height="65" viewBox="0 0 89 65" fill="none" xmlns="http://www.w3.org/2000/svg">
<path d="M67 65C75.8366 65 83 57.8366 83 49C83 40.1634 75.8366 33 67 33C58.1634 33 51 40.1634 51 49C51 57.8366 58.1634 65 67 65Z" fill="#EBF1F2"/>
<path d="M27 29C27 24.5817 23.4183 21 19 21C14.5817 21 11 24.5817 11 29C11 33.4183 14.5817 37 19 37C23.4183 37 27 33.4183 27 29Z" fill="#D7E2E5"/>
<path d="M14.8593 32.0779C14.8593 34.5032 12.8374 36.4765 10.3524 36.4765C7.86739 36.4765 5.84546 34.5032 5.84546 32.0779C5.84546 29.6524 7.86739 27.6792 10.3524 27.6792C12.8374 27.6792 14.8593 29.6524 14.8593 32.0779ZM6.80021 32.0779C6.80021 33.9784 8.39369 35.5244 10.3524 35.5244C12.311 35.5244 13.9045 33.9784 13.9045 32.0779C13.9045 30.1775 12.311 28.6313 10.3524 28.6313C8.39369 28.6313 6.80021 30.1775 6.80021 32.0779Z" fill="#9BAFBA"/>
<path d="M20.7047 32.0779C20.7047 31.6975 20.388 31.3892 19.9975 31.3892C19.607 31.3892 19.2903 31.6975 19.2903 32.0779C19.2903 32.4582 19.607 32.7665 19.9975 32.7665C20.388 32.7665 20.7047 32.4582 20.7047 32.0779Z" fill="#9BAFBA"/>
<path d="M17.6794 24.931C17.4032 24.662 16.9554 24.662 16.679 24.931C16.4029 25.2 16.4029 25.6358 16.679 25.9048C16.9552 26.1737 17.403 26.1737 17.6794 25.9048C17.9556 25.6358 17.9556 25.2 17.6794 24.931Z" fill="#9BAFBA"/>
<path d="M11.0595 22.6886C11.0595 22.3083 10.7427 22 10.3523 22C9.96176 22 9.64502 22.3083 9.64502 22.6886C9.64502 23.069 9.96176 23.3773 10.3523 23.3773C10.7427 23.3773 11.0595 23.0688 11.0595 22.6886Z" fill="#9BAFBA"/>
<path d="M4.02997 24.9401C3.75381 24.6711 3.30603 24.6711 3.02963 24.9401C2.75347 25.2091 2.75347 25.6449 3.02963 25.9139C3.3058 26.1828 3.75357 26.1828 4.02997 25.9139C4.30614 25.6449 4.30614 25.2088 4.02997 24.9401Z" fill="#9BAFBA"/>
<path d="M1.41447 32.0779C1.41447 31.6975 1.09773 31.3892 0.707232 31.3892C0.316499 31.3892 -6.87735e-07 31.6975 -6.71109e-07 32.0779C-6.54482e-07 32.4582 0.316738 32.7665 0.707232 32.7665C1.09773 32.7665 1.41447 32.4582 1.41447 32.0779Z" fill="#9BAFBA"/>
<path d="M4.03901 38.2274C3.76284 37.9584 3.31507 37.9584 3.03866 38.2274C2.7625 38.4964 2.7625 38.9322 3.03866 39.2012C3.31483 39.4701 3.7626 39.4701 4.03901 39.2012C4.31517 38.9322 4.31517 38.4964 4.03901 38.2274Z" fill="#9BAFBA"/>
<path d="M11.0595 41.4674C11.0595 41.087 10.7427 40.7788 10.3523 40.7788C9.96176 40.7788 9.64502 41.087 9.64502 41.4674C9.64502 41.8478 9.96176 42.156 10.3523 42.156C10.7427 42.156 11.0595 41.8478 11.0595 41.4674Z" fill="#9BAFBA"/>
<path d="M17.6884 38.2184C17.4123 37.9494 16.9645 37.9494 16.6881 38.2184C16.4119 38.4874 16.4119 38.9232 16.6881 39.1922C16.9642 39.4612 17.412 39.4612 17.6884 39.1922C17.9648 38.9232 17.9648 38.4874 17.6884 38.2184Z" fill="#9BAFBA"/>
<path d="M67.5 5C66.1215 5 65 3.87852 65 2.5C65 1.12148 66.1215 -1.27753e-08 67.5 -1.27753e-08C68.8785 -1.27753e-08 70 1.12148 70 2.5C70 3.87852 68.8785 5 67.5 5ZM67.5 0.55816C66.4293 0.55816 65.5582 1.42931 65.5582 2.5C65.5582 3.57069 66.4293 4.44184 67.5 4.44184C68.5707 4.44184 69.4418 3.57069 69.4418 2.5C69.4418 1.42931 68.5707 0.55816 67.5 0.55816Z" fill="#CACACA"/>
<path d="M84.1449 19.3942H82.4913V18.4395H84.1449V19.3942ZM79.6348 19.3942H76.7784V18.4395H79.6348V19.3942ZM73.9221 19.3942H71.0657V18.4395H73.9221V19.3942ZM68.2094 19.3942H65.353V18.4395H68.2094V19.3942ZM62.4967 19.3942H59.6403V18.4395H62.4967V19.3942ZM56.784 19.3942H53.9276V18.4395H56.784V19.3942ZM51.0713 19.3942H48.2149V18.4395H51.0713V19.3942ZM45.3586 19.3942H42.5022V18.4395H45.3586V19.3942ZM39.6459 19.3942H36.7896V18.4395H39.6459V19.3942Z" fill="#A8A8A8"/>
<rect x="25.5002" y="10.5" width="44" height="44" stroke="#666666"/>
<path d="M62.4019 35.8162C63.1695 35.8162 63.7917 35.1966 63.7917 34.4323C63.7917 33.6679 63.1695 33.0483 62.4019 33.0483C61.6344 33.0483 61.0122 33.6679 61.0122 34.4323C61.0122 35.1966 61.6344 35.8162 62.4019 35.8162Z" fill="#CFCFCF"/>
<path opacity="0.7" d="M81.4223 8.92921C82.4422 8.92921 83.2691 8.13378 83.2691 7.15257C83.2691 6.17135 82.4422 5.37592 81.4223 5.37592C80.4023 5.37592 79.5754 6.17135 79.5754 7.15257C79.5754 8.13378 80.4023 8.92921 81.4223 8.92921Z" fill="#949494"/>
<path opacity="0.5" d="M81.4223 1.90427C81.2288 1.90427 81.0718 1.75099 81.0718 1.56212V0.342157C81.0718 0.153286 81.2288 -3.13254e-08 81.4223 -3.13254e-08C81.6158 -3.13254e-08 81.7728 0.153286 81.7728 0.342157V1.56212C81.7728 1.75116 81.6159 1.90427 81.4223 1.90427Z" fill="#949494"/>
<path opacity="0.5" d="M84.1427 2.5439C84.087 2.5439 84.0302 2.53089 83.9776 2.50352C83.8069 2.41439 83.7426 2.20704 83.8341 2.04024L84.4253 0.962447C84.5166 0.795987 84.729 0.733544 84.8997 0.822333C85.0704 0.911465 85.1347 1.11881 85.0432 1.28561L84.4521 2.36341C84.389 2.47837 84.2679 2.5439 84.1427 2.5439Z" fill="#949494"/>
<path opacity="0.5" d="M86.2247 4.33255C86.1118 4.33255 86.0013 4.27952 85.9334 4.18132C85.8255 4.02444 85.8681 3.81196 86.0286 3.70658L87.0751 3.01953C87.2358 2.91414 87.4534 2.95554 87.5616 3.11242C87.6695 3.2693 87.6269 3.48178 87.4664 3.58717L86.4199 4.27422C86.3598 4.31373 86.292 4.33255 86.2247 4.33255Z" fill="#949494"/>
<path opacity="0.5" d="M87.2085 6.8551C87.033 6.8551 86.8814 6.72662 86.8608 6.55229C86.8385 6.36445 86.9762 6.19474 87.1685 6.17301L88.4244 6.03085C88.6165 6.00809 88.7907 6.14359 88.8129 6.33126C88.8352 6.5191 88.6974 6.68881 88.5052 6.71054L87.2493 6.85271C87.2356 6.85442 87.222 6.8551 87.2085 6.8551Z" fill="#949494"/>
<path opacity="0.5" d="M88.0338 9.95864C87.9925 9.95864 87.9504 9.95129 87.9096 9.93623L86.7277 9.49793C86.5466 9.4307 86.4557 9.2331 86.5244 9.05655C86.5931 8.88 86.7957 8.79121 86.9765 8.8581L88.1585 9.2964C88.3395 9.36363 88.4305 9.56123 88.3618 9.73778C88.3085 9.8743 88.1753 9.95864 88.0338 9.95864Z" fill="#949494"/>
<path opacity="0.5" d="M86.0763 12.6469C85.9785 12.6469 85.8812 12.6072 85.8118 12.5295L84.9869 11.6057C84.8597 11.4632 84.8749 11.2469 85.0209 11.1229C85.1669 10.9987 85.3883 11.0136 85.5155 11.1559L86.3404 12.0798C86.4677 12.2223 86.4524 12.4385 86.3064 12.5625C86.24 12.6192 86.158 12.6469 86.0763 12.6469Z" fill="#949494"/>
<path opacity="0.5" d="M83.0474 14.1392C82.8895 14.1392 82.7462 14.0345 82.7071 13.8781L82.4116 12.6938C82.3659 12.5102 82.4812 12.3251 82.6692 12.2803C82.8568 12.2361 83.0469 12.348 83.0928 12.5318L83.3883 13.7161C83.4341 13.8997 83.3187 14.0848 83.1307 14.1296C83.1028 14.1361 83.075 14.1392 83.0474 14.1392Z" fill="#949494"/>
<path opacity="0.5" d="M79.6373 14.0923C79.6073 14.0923 79.577 14.0885 79.5467 14.0806C79.3597 14.032 79.2484 13.8445 79.2983 13.662L79.6185 12.4894C79.6683 12.3065 79.8605 12.1983 80.0475 12.2468C80.2345 12.2954 80.3458 12.4829 80.2959 12.6655L79.9757 13.838C79.934 13.9912 79.7922 14.0923 79.6373 14.0923Z" fill="#949494"/>
<path opacity="0.5" d="M76.6449 12.5285C76.5583 12.5285 76.4717 12.4974 76.4039 12.4348C76.2633 12.3048 76.2574 12.0884 76.3904 11.9512L77.2521 11.0629C77.3852 10.9257 77.6068 10.9197 77.7478 11.0497C77.8883 11.1798 77.8943 11.3962 77.7612 11.5334L76.8995 12.4216C76.8306 12.4926 76.7378 12.5285 76.6449 12.5285Z" fill="#949494"/>
<path opacity="0.5" d="M74.7615 9.80443C74.6161 9.80443 74.4804 9.7153 74.4301 9.57382C74.367 9.39504 74.4641 9.20018 74.6471 9.1386L75.8413 8.73588C76.0246 8.67514 76.2239 8.76924 76.287 8.9475C76.3501 9.12628 76.253 9.32114 76.07 9.38273L74.8758 9.78544C74.8381 9.79828 74.7994 9.80443 74.7615 9.80443Z" fill="#949494"/>
<path opacity="0.5" d="M75.6605 6.72493C75.6447 6.72493 75.6288 6.7239 75.6126 6.72168L74.369 6.55591C74.1773 6.53042 74.0431 6.35797 74.0692 6.17064C74.0953 5.98331 74.2718 5.85089 74.4638 5.87792L75.7074 6.0437C75.8992 6.06919 76.0334 6.24164 76.0073 6.42897C75.9835 6.60073 75.8331 6.72493 75.6605 6.72493Z" fill="#949494"/>
<path opacity="0.5" d="M76.7063 4.22605C76.6359 4.22605 76.5649 4.20552 76.5032 4.16258L75.4813 3.45192C75.3238 3.34226 75.287 3.12858 75.3993 2.97478C75.5116 2.82081 75.7307 2.78506 75.8883 2.89455L76.9102 3.60521C77.0677 3.71487 77.1045 3.92855 76.9922 4.08234C76.9237 4.1761 76.8157 4.22605 76.7063 4.22605Z" fill="#949494"/>
<path opacity="0.5" d="M78.837 2.48479C78.7092 2.48479 78.5859 2.41636 78.5242 2.29746L77.9579 1.20769C77.8703 1.03918 77.9394 0.833198 78.112 0.74783C78.2846 0.661948 78.4954 0.729695 78.5831 0.898036L79.1493 1.98781C79.2369 2.15632 79.1679 2.3623 78.9953 2.44766C78.9444 2.47298 78.8903 2.48479 78.837 2.48479Z" fill="#949494"/>
<path d="M59.0435 40.1351C59.6198 40.1351 60.087 39.6696 60.087 39.0954C60.087 38.5212 59.6198 38.0557 59.0435 38.0557C58.4672 38.0557 58 38.5212 58 39.0954C58 39.6696 58.4672 40.1351 59.0435 40.1351Z" fill="#9BAFBA"/>
</svg>
