<?xml version="1.0" encoding="utf-8"?>
<!-- Generator: Adobe Illustrator 19.1.0, SVG Export Plug-In . SVG Version: 6.00 Build 0)  -->
<!DOCTYPE svg PUBLIC "-//W3C//DTD SVG 1.1//EN" "http://www.w3.org/Graphics/SVG/1.1/DTD/svg11.dtd">
<svg version="1.1" id="Layer_1" xmlns="http://www.w3.org/2000/svg" xmlns:xlink="http://www.w3.org/1999/xlink" x="0px" y="0px"
	 viewBox="0 0 36 36" enable-background="new 0 0 36 36" xml:space="preserve">
<g>
	<g>
		<path fill="#00A4D8" d="M18,5c2.27,0,4.405,0.588,6.264,1.615c-0.073-0.388-0.139-0.778-0.139-1.178
			c0-0.004,0.001-0.007,0.001-0.011C22.274,4.522,20.2,4,18,4c-2.317,0-4.497,0.572-6.422,1.568l0.592,0.828
			C13.926,5.511,15.903,5,18,5z"/>
		<path fill="#00A4D8" d="M29.385,11.736C30.412,13.595,31,15.73,31,18c0,1.544-0.284,3.019-0.781,4.394
			c0.314,0.13,0.609,0.295,0.893,0.474C31.677,21.349,32,19.714,32,18c0-2.2-0.522-4.274-1.426-6.126
			c-0.004,0-0.007,0.001-0.011,0.001C30.162,11.875,29.772,11.808,29.385,11.736z"/>
		<path fill="#00A4D8" d="M18,31c-2.808,0-5.404-0.904-7.532-2.424c0.21,0.47,0.343,0.964,0.425,1.471C12.978,31.28,15.402,32,18,32
			c1.714,0,3.349-0.323,4.867-0.887c-0.179-0.285-0.344-0.579-0.474-0.894C21.019,30.715,19.544,31,18,31z"/>
		<path fill="#00A4D8" d="M7.656,10.158C8.042,9.65,8.457,9.167,8.912,8.721L8.324,7.898C7.79,8.41,7.3,8.965,6.853,9.555
			C7.14,9.731,7.409,9.932,7.656,10.158z"/>
		<path fill="#00A4D8" d="M5.052,19.027c-0.291,0.051-0.584,0.098-0.886,0.098c-0.038,0-0.072-0.01-0.11-0.011
			c0.172,2.178,0.842,4.21,1.897,5.993c0.507,0.082,1.001,0.215,1.471,0.425C6.092,23.667,5.242,21.441,5.052,19.027z"/>
		<path fill="#00A4D8" d="M27,18c0,1.59-0.45,3.063-1.176,4.361c0.426-0.162,0.865-0.273,1.318-0.334C27.686,20.793,28,19.435,28,18
			c0-2.038-0.617-3.928-1.663-5.509L25.6,13.228C26.474,14.615,27,16.243,27,18z"/>
		<path fill="#00A4D8" d="M18,9c1.757,0,3.385,0.526,4.772,1.4l0.737-0.737C21.928,8.617,20.038,8,18,8
			c-1.448,0-2.816,0.322-4.058,0.876l0.588,0.823C15.599,9.251,16.77,9,18,9z"/>
		<path fill="#00A4D8" d="M18,27c-1.757,0-3.385-0.526-4.772-1.4l-0.737,0.737C14.072,27.383,15.962,28,18,28
			c1.435,0,2.793-0.314,4.027-0.859c0.061-0.453,0.172-0.891,0.334-1.318C21.063,26.55,19.59,27,18,27z"/>
		<path fill="#00A4D8" d="M10.165,13.66c0.321-0.577,0.695-1.114,1.13-1.604l-0.601-0.842c-0.561,0.604-1.03,1.283-1.429,2.011
			c0.01,0.073,0.035,0.14,0.042,0.214L10.165,13.66z"/>
		<path fill="#00A4D8" d="M9,18c0-0.169,0.041-0.327,0.05-0.494l-0.931-0.24c-0.015,0.018-0.035,0.031-0.05,0.048
			C8.053,17.545,8,17.765,8,18c0,2.038,0.617,3.928,1.663,5.509l0.737-0.737C9.526,21.385,9,19.757,9,18z"/>
	</g>
	<path fill="#0072AA" d="M30.562,10.875c3.003,0,5.438-2.434,5.438-5.438S33.566,0,30.562,0s-5.438,2.434-5.438,5.438
		c0,1.14,0.354,2.196,0.953,3.07l-4.618,4.618c-0.979-0.696-2.168-1.115-3.46-1.115c-0.938,0-1.815,0.235-2.605,0.619l-5.67-7.937
		C10.055,4.211,10.25,3.628,10.25,3c0-1.657-1.343-3-3-3s-3,1.343-3,3s1.343,3,3,3C7.547,6,7.829,5.943,8.1,5.863l5.654,7.915
		c-0.448,0.451-0.806,0.985-1.093,1.559l-4.356-1.121c0.005-0.086,0.026-0.168,0.026-0.255c0-2.301-1.865-4.166-4.166-4.166
		S0,11.66,0,13.96s1.865,4.166,4.166,4.166c1.503,0,2.809-0.804,3.542-1.998l4.378,1.127c-0.031,0.247-0.075,0.49-0.075,0.745
		c0,1.292,0.419,2.482,1.115,3.46l-5.371,5.371C6.964,26.308,6.019,26,5,26c-2.761,0-5,2.239-5,5c0,2.761,2.239,5,5,5s5-2.239,5-5
		c0-1.019-0.308-1.964-0.832-2.754l5.371-5.371c0.979,0.696,2.168,1.115,3.46,1.115s2.482-0.419,3.46-1.115l2.309,2.309
		c-0.523,0.79-0.832,1.736-0.832,2.754c0,2.761,2.239,5,5,5s5-2.239,5-5c0-2.761-2.239-5-5-5c-1.019,0-1.964,0.308-2.754,0.832
		l-2.309-2.309c0.696-0.979,1.115-2.168,1.115-3.46s-0.419-2.482-1.115-3.46l4.618-4.618C28.367,10.521,29.422,10.875,30.562,10.875
		z M4.166,16.126C2.971,16.126,2,15.154,2,13.96s0.971-2.166,2.166-2.166s2.166,0.971,2.166,2.166S5.36,16.126,4.166,16.126z
		 M18,21.99c-2.2,0-3.99-1.79-3.99-3.99s1.79-3.99,3.99-3.99s3.99,1.79,3.99,3.99S20.2,21.99,18,21.99z M30.562,2
		C32.458,2,34,3.542,34,5.438c0,1.895-1.542,3.438-3.438,3.438c-1.895,0-3.438-1.542-3.438-3.438C27.125,3.542,28.667,2,30.562,2z"
		/>
</g>
</svg>
