<?xml version="1.0" encoding="utf-8"?>
<!-- Generator: Adobe Illustrator 19.1.0, SVG Export Plug-In . SVG Version: 6.00 Build 0)  -->
<!DOCTYPE svg PUBLIC "-//W3C//DTD SVG 1.1//EN" "http://www.w3.org/Graphics/SVG/1.1/DTD/svg11.dtd">
<svg version="1.1" id="Layer_1" xmlns="http://www.w3.org/2000/svg" xmlns:xlink="http://www.w3.org/1999/xlink" x="0px" y="0px"
	 viewBox="0 0 18 18" enable-background="new 0 0 18 18" xml:space="preserve">
<g>
	<g>
		<path fill="#333333" d="M9,2.5c1.135,0,2.202,0.294,3.132,0.808c-0.036-0.194-0.07-0.389-0.07-0.589
			c0-0.002,0.001-0.004,0.001-0.006C11.137,2.261,10.1,2,9,2C7.842,2,6.752,2.286,5.789,2.784l0.296,0.414
			C6.963,2.755,7.951,2.5,9,2.5z"/>
		<path fill="#333333" d="M14.692,5.868C15.206,6.798,15.5,7.865,15.5,9c0,0.772-0.142,1.509-0.39,2.197
			c0.157,0.065,0.304,0.147,0.447,0.237C15.838,10.675,16,9.857,16,9c0-1.1-0.261-2.137-0.713-3.063
			c-0.002,0-0.004,0.001-0.006,0.001C15.081,5.938,14.886,5.904,14.692,5.868z"/>
		<path fill="#333333" d="M9,15.5c-1.404,0-2.702-0.452-3.766-1.212c0.105,0.235,0.171,0.482,0.213,0.736C6.489,15.64,7.701,16,9,16
			c0.857,0,1.675-0.162,2.434-0.444c-0.09-0.142-0.172-0.29-0.237-0.447C10.509,15.358,9.772,15.5,9,15.5z"/>
		<path fill="#333333" d="M3.828,5.079c0.193-0.254,0.4-0.496,0.628-0.719L4.162,3.949C3.895,4.205,3.65,4.482,3.426,4.778
			C3.57,4.865,3.705,4.966,3.828,5.079z"/>
		<path fill="#333333" d="M2.526,9.514C2.38,9.539,2.234,9.562,2.083,9.562c-0.019,0-0.036-0.005-0.055-0.006
			c0.086,1.089,0.421,2.105,0.948,2.997c0.254,0.041,0.501,0.108,0.736,0.213C3.046,11.833,2.621,10.72,2.526,9.514z"/>
		<path fill="#333333" d="M13.5,9c0,0.795-0.225,1.532-0.588,2.181c0.213-0.081,0.432-0.137,0.659-0.167
			C13.843,10.396,14,9.718,14,9c0-1.019-0.308-1.964-0.832-2.754L12.8,6.614C13.237,7.307,13.5,8.122,13.5,9z"/>
		<path fill="#333333" d="M9,4.5c0.878,0,1.693,0.263,2.386,0.7l0.368-0.368C10.964,4.308,10.019,4,9,4
			C8.276,4,7.592,4.161,6.971,4.438l0.294,0.412C7.799,4.625,8.385,4.5,9,4.5z"/>
		<path fill="#333333" d="M9,13.5c-0.878,0-1.693-0.263-2.386-0.7l-0.368,0.368C7.036,13.692,7.981,14,9,14
			c0.718,0,1.396-0.157,2.013-0.429c0.031-0.226,0.086-0.446,0.167-0.659C10.532,13.275,9.795,13.5,9,13.5z"/>
		<path fill="#333333" d="M5.082,6.83c0.16-0.288,0.347-0.557,0.565-0.802L5.347,5.607C5.066,5.909,4.832,6.249,4.632,6.613
			C4.638,6.649,4.65,6.683,4.653,6.72L5.082,6.83z"/>
		<path fill="#333333" d="M4.5,9c0-0.085,0.02-0.164,0.025-0.247L4.06,8.633C4.052,8.642,4.042,8.648,4.035,8.657
			C4.027,8.773,4,8.883,4,9c0,1.019,0.308,1.964,0.832,2.754L5.2,11.386C4.763,10.693,4.5,9.878,4.5,9z"/>
	</g>
	<path fill="#333333" d="M15.281,5.438C16.783,5.438,18,4.22,18,2.719S16.783,0,15.281,0s-2.719,1.217-2.719,2.719
		c0,0.57,0.177,1.098,0.477,1.535L10.73,6.563C10.241,6.215,9.646,6.005,9,6.005c-0.469,0-0.907,0.117-1.303,0.31L4.862,2.346
		C5.028,2.105,5.125,1.814,5.125,1.5c0-0.828-0.672-1.5-1.5-1.5s-1.5,0.672-1.5,1.5S2.797,3,3.625,3c0.149,0,0.29-0.028,0.425-0.069
		l2.827,3.957c-0.224,0.226-0.403,0.492-0.547,0.78L4.153,7.108C4.155,7.065,4.166,7.024,4.166,6.98c0-1.15-0.932-2.083-2.083-2.083
		S0,5.83,0,6.98s0.932,2.083,2.083,2.083c0.752,0,1.405-0.402,1.771-0.999l2.189,0.564C6.027,8.751,6.005,8.872,6.005,9
		c0,0.646,0.209,1.241,0.557,1.73l-2.686,2.686C3.482,13.154,3.009,13,2.5,13C1.119,13,0,14.119,0,15.5C0,16.881,1.119,18,2.5,18
		S5,16.881,5,15.5c0-0.509-0.154-0.982-0.416-1.377l2.686-2.686c0.489,0.348,1.084,0.557,1.73,0.557s1.241-0.209,1.73-0.557
		l1.154,1.154c-0.262,0.395-0.416,0.868-0.416,1.377c0,1.381,1.119,2.5,2.5,2.5s2.5-1.119,2.5-2.5c0-1.381-1.119-2.5-2.5-2.5
		c-0.509,0-0.982,0.154-1.377,0.416l-1.154-1.154c0.348-0.489,0.557-1.084,0.557-1.73s-0.209-1.241-0.557-1.73l2.309-2.309
		C14.183,5.261,14.711,5.438,15.281,5.438z M2.083,8.063C1.486,8.063,1,7.577,1,6.98s0.486-1.083,1.083-1.083
		S3.166,6.383,3.166,6.98S2.68,8.063,2.083,8.063z M9,10.995C7.9,10.995,7.005,10.1,7.005,9S7.9,7.005,9,7.005S10.995,7.9,10.995,9
		S10.1,10.995,9,10.995z M15.281,1C16.229,1,17,1.771,17,2.719c0,0.948-0.771,1.719-1.719,1.719c-0.948,0-1.719-0.771-1.719-1.719
		C13.562,1.771,14.334,1,15.281,1z"/>
</g>
</svg>
