<svg width="220" height="220" viewBox="0 0 220 220" fill="none" xmlns="http://www.w3.org/2000/svg">
<path d="M59.4698 100.079C69.963 106.567 83.8052 103.442 90.3873 93.1C96.9694 82.7582 93.7989 69.1156 83.3057 62.6284C72.8125 56.1412 58.9703 59.266 52.3882 69.6078C45.8061 79.9496 48.9766 93.5922 59.4698 100.079Z" fill="#D7E2E5"/>
<path d="M55.2138 106.767C56.187 107.369 57.4705 107.079 58.0806 106.12C58.6907 105.162 58.3969 103.897 57.4237 103.295C56.4505 102.693 55.167 102.983 54.5569 103.942C53.9468 104.901 54.2406 106.166 55.2138 106.767Z" fill="#D7E2E5"/>
<path d="M78.2263 110.646C79.3459 110.393 80.0455 109.294 79.7892 108.19C79.5325 107.086 78.4174 106.397 77.2978 106.65C76.1781 106.902 75.4785 108.001 75.7348 109.105C75.9915 110.209 77.1066 110.898 78.2263 110.646Z" fill="#D7E2E5"/>
<path d="M94.3063 97.9414C95.2795 98.5431 96.563 98.2531 97.1731 97.2945C97.7833 96.3359 97.4895 95.0708 96.5163 94.4691C95.5431 93.8675 94.2595 94.1574 93.6494 95.116C93.0393 96.0746 93.3337 97.3401 94.3063 97.9414Z" fill="#D7E2E5"/>
<path d="M99.5288 77.1243C100.648 76.8718 101.348 75.7726 101.092 74.6686C100.835 73.5652 99.7199 72.8758 98.6002 73.1283C97.4806 73.3808 96.781 74.48 97.0373 75.584C97.294 76.6874 98.4097 77.3772 99.5288 77.1243Z" fill="#D7E2E5"/>
<path d="M85.3524 59.4133C86.3256 60.015 87.6092 59.725 88.2193 58.7664C88.8298 57.8072 88.5356 56.5427 87.5624 55.941C86.5892 55.3394 85.3057 55.6293 84.6956 56.588C84.0854 57.5466 84.3792 58.8117 85.3524 59.4133Z" fill="#D7E2E5"/>
<path d="M65.5185 56.1289C66.6382 55.8765 67.3378 54.7772 67.0815 53.6733C66.8247 52.5699 65.7096 51.8805 64.59 52.133C63.4703 52.3854 62.7707 53.4847 63.0271 54.5886C63.2838 55.692 64.3989 56.3814 65.5185 56.1289Z" fill="#D7E2E5"/>
<path d="M46.2604 68.2378C47.2336 68.8395 48.5171 68.5495 49.1273 67.5909C49.7374 66.6323 49.4436 65.3672 48.4704 64.7655C47.4972 64.1638 46.2136 64.4538 45.6035 65.4124C44.9934 66.371 45.2872 67.6361 46.2604 68.2378Z" fill="#D7E2E5"/>
<path d="M44.2155 89.6502C45.3352 89.3977 46.0348 88.2985 45.7785 87.1945C45.5218 86.0911 44.4067 85.4017 43.287 85.6542C42.1674 85.9067 41.4677 87.0059 41.7241 88.1099C41.9804 89.2139 43.0955 89.9033 44.2155 89.6502Z" fill="#D7E2E5"/>
<path d="M69.1315 82.741C69.0334 82.741 68.9349 82.7263 68.8383 82.6951C68.4747 82.5796 68.2159 82.2607 68.1795 81.8849C66.8664 68.3437 77.1825 62.6118 81.4773 60.8287C77.8852 58.8271 73.8511 59.2686 73.8052 59.2743C73.4292 59.3154 73.0671 59.1418 72.8729 58.8228C72.6786 58.5044 72.6916 58.1031 72.9049 57.7969C77.7283 50.8853 90.8113 51.1318 97.188 51.712C95.2219 49.68 93.6165 47.0642 93.3639 46.644C93.2161 46.3988 93.1884 46.1007 93.2884 45.8329C93.3879 45.5651 93.605 45.3559 93.8782 45.2641C115.234 38.0804 123.101 57.1434 123.178 57.3365C123.316 57.6843 123.234 58.0808 122.969 58.3473C122.703 58.6137 122.305 58.7003 121.951 58.5692C98.9135 49.9862 70.1399 82.0931 69.8519 82.4182C69.6668 82.6269 69.4027 82.741 69.1315 82.741ZM75.8349 57.3606C78.002 57.4822 81.3477 58.0794 84.1538 60.3513C84.4308 60.5756 84.5581 60.9338 84.4834 61.2802C84.4088 61.6266 84.1457 61.9024 83.8008 61.9966C83.2114 62.1585 70.0098 65.945 69.9773 79.4986C72.6839 76.692 78.675 70.8323 86.1879 65.6218C98.9576 56.7658 110.738 53.5031 120.439 56.1C118.001 51.7953 110.695 42.2252 95.6544 46.688C96.9159 48.5737 99.1862 51.5468 100.927 52.1913C101.388 52.3622 101.643 52.8519 101.515 53.3228C101.388 53.7931 100.918 54.0936 100.434 54.0113C100.246 53.9801 82.7957 51.1934 75.8349 57.3606Z" fill="#999999"/>
<path d="M122.58 58.6063C122.261 58.6063 121.96 58.4483 121.781 58.1795C119.357 54.5259 117.964 50.4028 117.75 46.2566C117.144 34.4771 126.024 26.6617 127.811 25.2146C128.044 25.0258 128.354 24.9558 128.647 25.0277C128.94 25.0992 129.181 25.3036 129.299 25.5785C130.115 27.4917 130.622 29.4981 130.805 31.5414C130.835 31.8755 130.856 32.2119 130.869 32.5488C133.04 30.5595 136.438 28.158 141.085 26.9253C147.917 25.1124 153.691 26.7644 156.524 27.9095C156.927 28.0728 157.168 28.484 157.111 28.9104C157.053 29.3372 156.712 29.6718 156.28 29.7248C151.526 30.3068 142.353 32.4002 134.335 39.8849C127.747 46.0337 124.809 53.0779 123.505 57.9046C123.407 58.2651 123.105 58.5353 122.733 58.5945C122.682 58.6021 122.631 58.6063 122.58 58.6063ZM128.012 27.5556C125.27 30.0768 119.178 36.7741 119.661 46.1601C119.822 49.2989 120.723 52.4272 122.286 55.318C123.896 50.4364 127.012 44.1182 133.022 38.5079C139.57 32.3969 146.847 29.7106 152.104 28.5318C149.318 27.9304 145.652 27.6744 141.581 28.7537C135.901 30.2604 132.246 33.6647 130.573 35.5603C130.3 35.8688 129.857 35.9701 129.477 35.8083C129.095 35.6474 128.862 35.2627 128.899 34.8543C128.992 33.8076 128.993 32.7495 128.899 31.7089C128.772 30.2983 128.475 28.9061 128.012 27.5556Z" fill="#999999"/>
<path d="M179.284 165.232V158.288C179.284 148.833 171.463 141.097 161.906 141.097H75.6359C66.078 141.097 58.2576 148.833 58.2576 158.288V165.232H179.284Z" fill="#D7E2E5"/>
<path d="M174.247 88.9192C173.94 88.9192 173.647 88.7725 173.466 88.5179C173.207 88.1564 147.381 52.4081 122.997 58.6961C122.631 58.7893 122.243 58.663 122.008 58.37C121.772 58.0776 121.733 57.6749 121.907 57.3432C122.007 57.1549 132.072 38.6043 153.014 48.1772C153.276 48.2969 153.469 48.5269 153.54 48.8037C153.611 49.0806 153.552 49.374 153.379 49.6025C153.074 50.0057 151.132 52.5293 148.894 54.3899C155.421 54.4718 168.825 55.5914 172.993 63.1541C173.172 63.4807 173.142 63.881 172.916 64.1777C172.689 64.4749 172.308 64.6126 171.941 64.5298C171.895 64.5198 167.788 63.6439 163.907 65.3172C168.058 67.5635 177.998 74.4883 175.185 88.1611C175.109 88.5312 174.818 88.8212 174.444 88.8988C174.378 88.913 174.312 88.9192 174.247 88.9192ZM128.869 56.0717C138.012 56.0717 148.167 60.7034 158.626 69.7147C165.738 75.8422 171.216 82.4741 173.65 85.6001C175.102 71.6941 161.616 66.2948 161.473 66.2394C161.14 66.1107 160.907 65.8083 160.87 65.4563C160.833 65.1042 160.998 64.7611 161.297 64.5671C164.42 62.539 167.914 62.3005 170.13 62.4126C163.735 55.3373 145.594 56.332 145.398 56.3419C144.908 56.3679 144.472 56.0263 144.395 55.545C144.318 55.0633 144.624 54.6029 145.101 54.4808C146.96 54.0057 149.611 51.1953 151.097 49.4085C143.431 46.22 136.537 46.6516 130.593 50.6985C127.837 52.5747 125.907 54.8409 124.784 56.3916C126.121 56.1782 127.484 56.0717 128.869 56.0717Z" fill="#999999"/>
<path d="M173.863 175.952H118.85C118.322 175.952 117.894 175.528 117.894 175.005C117.894 174.483 118.322 174.059 118.85 174.059H173.863C174.391 174.059 174.82 174.483 174.82 175.005C174.82 175.528 174.391 175.952 173.863 175.952Z" fill="#666666"/>
<path d="M203.043 175.952H185.822C185.294 175.952 184.865 175.528 184.865 175.005C184.865 174.483 185.294 174.059 185.822 174.059H203.043C203.572 174.059 204 174.483 204 175.005C204 175.528 203.572 175.952 203.043 175.952Z" fill="#666666"/>
<path d="M83.4504 181.157H67.1857C66.6576 181.157 66.229 180.733 66.229 180.211C66.229 179.688 66.6576 179.264 67.1857 179.264H83.4504C83.9785 179.264 84.4072 179.688 84.4072 180.211C84.4072 180.733 83.9785 181.157 83.4504 181.157Z" fill="#666666"/>
<path d="M194.433 182.577H166.209C165.681 182.577 165.252 182.153 165.252 181.63C165.252 181.108 165.681 180.684 166.209 180.684H194.433C194.961 180.684 195.39 181.108 195.39 181.63C195.39 182.153 194.961 182.577 194.433 182.577Z" fill="#666666"/>
<path d="M61.2654 181.718C62.1573 181.718 62.8804 181.003 62.8804 180.12C62.8804 179.238 62.1573 178.523 61.2654 178.523C60.3734 178.523 59.6504 179.238 59.6504 180.12C59.6504 181.003 60.3734 181.718 61.2654 181.718Z" fill="#666666"/>
<path d="M102.59 136.403H67.2255C66.9428 136.403 66.6741 136.28 66.4901 136.066C66.3062 135.853 66.2253 135.569 66.2689 135.291L69.4205 115.119C69.6868 113.418 71.3095 112.244 73.0378 112.501L89.797 114.983C89.8188 114.987 89.8406 114.991 89.8624 114.995C90.8258 115.206 91.5176 115.638 91.9194 116.281C92.3532 116.984 92.2931 117.689 92.2496 118.203C92.2147 118.612 92.2089 118.806 92.2989 118.945C92.3643 119.046 92.5255 119.188 92.9215 119.298L102.65 120.736C103.494 120.862 104.235 121.306 104.739 121.988C105.235 122.66 105.437 123.48 105.309 124.297L103.547 135.586C103.474 136.057 103.068 136.403 102.59 136.403ZM68.3559 134.474H101.761L103.395 124.001C103.443 123.695 103.366 123.386 103.178 123.131C102.982 122.866 102.693 122.693 102.364 122.644L92.5812 121.198C92.5468 121.192 92.5129 121.186 92.4795 121.177C91.6483 120.961 91.0397 120.562 90.6699 119.989C90.2134 119.283 90.2748 118.565 90.3194 118.04C90.3513 117.666 90.3649 117.446 90.2719 117.296C90.1291 117.067 89.7249 116.943 89.4765 116.886L72.7507 114.407C72.0715 114.305 71.4359 114.758 71.3328 115.415L68.3559 134.474Z" fill="#666666"/>
<path d="M117.231 133.396C117.036 133.396 116.839 133.338 116.67 133.216C116.242 132.909 116.147 132.317 116.457 131.894C117.552 130.401 118.601 128.829 119.578 127.223C119.85 126.775 120.438 126.629 120.891 126.899C121.344 127.168 121.49 127.75 121.218 128.198C120.213 129.851 119.133 131.468 118.007 133.005C117.819 133.261 117.527 133.396 117.231 133.396ZM123.144 123.67C123.003 123.67 122.859 123.64 122.723 123.573C122.249 123.343 122.053 122.776 122.286 122.307C123.119 120.632 123.885 118.908 124.564 117.182C124.756 116.696 125.31 116.454 125.803 116.644C126.295 116.834 126.539 117.383 126.348 117.87C125.648 119.645 124.86 121.418 124.003 123.141C123.837 123.476 123.497 123.67 123.144 123.67ZM127.305 113.098C127.216 113.098 127.126 113.085 127.036 113.059C126.529 112.913 126.237 112.387 126.386 111.886C126.914 110.097 127.365 108.269 127.726 106.453C127.828 105.941 128.329 105.604 128.849 105.708C129.368 105.809 129.706 106.307 129.603 106.82C129.231 108.691 128.766 110.574 128.223 112.417C128.101 112.829 127.719 113.098 127.305 113.098ZM129.517 101.969C129.484 101.969 129.451 101.967 129.417 101.964C128.891 101.91 128.51 101.444 128.564 100.924C128.758 99.0813 128.868 97.2046 128.892 95.3445C128.899 94.8258 129.326 94.4099 129.849 94.4099C129.853 94.4099 129.857 94.4099 129.861 94.4099C130.389 94.417 130.812 94.8457 130.806 95.3681C130.781 97.2851 130.668 99.2205 130.468 101.12C130.417 101.607 130.001 101.969 129.517 101.969ZM129.662 90.6304C129.167 90.6304 128.748 90.2537 128.709 89.7573C128.563 87.908 128.33 86.0408 128.016 84.2081C127.927 83.6927 128.278 83.2039 128.799 83.1164C129.316 83.0293 129.814 83.3757 129.902 83.891C130.226 85.7796 130.466 87.7041 130.617 89.6102C130.657 90.1316 130.264 90.5864 129.737 90.6271C129.711 90.6299 129.686 90.6304 129.662 90.6304ZM127.746 79.4481C127.321 79.4481 126.934 79.1665 126.821 78.7421C126.345 76.951 125.781 75.1533 125.143 73.3986C124.965 72.907 125.223 72.3647 125.721 72.1882C126.217 72.0098 126.766 72.2667 126.945 72.7589C127.6 74.5646 128.181 76.4163 128.671 78.2603C128.806 78.7657 128.501 79.2834 127.99 79.4164C127.908 79.4377 127.826 79.4481 127.746 79.4481ZM123.871 68.7698C123.509 68.7698 123.163 68.5658 123.002 68.2194C122.215 66.531 121.344 64.8568 120.411 63.2437C120.149 62.7899 120.309 62.2116 120.767 61.9523C121.226 61.6935 121.811 61.8506 122.073 62.3044C123.032 63.9648 123.929 65.6883 124.74 67.4268C124.961 67.9014 124.751 68.4636 124.271 68.6822C124.142 68.7423 124.005 68.7698 123.871 68.7698Z" fill="#999999"/>
<path d="M142.591 134.005C142.564 134.005 142.536 134.004 142.509 134.002C141.983 133.958 141.592 133.5 141.636 132.98C141.794 131.115 141.913 129.222 141.989 127.354C142.01 126.831 142.461 126.421 142.984 126.446C143.512 126.467 143.922 126.908 143.901 127.43C143.824 129.326 143.703 131.246 143.542 133.137C143.501 133.632 143.083 134.005 142.591 134.005ZM143.05 122.661C142.523 122.661 142.095 122.239 142.093 121.718C142.086 119.845 142.037 117.949 141.946 116.083C141.921 115.562 142.328 115.118 142.856 115.093C143.386 115.074 143.832 115.47 143.857 115.993C143.95 117.886 144 119.81 144.007 121.71C144.008 122.233 143.582 122.659 143.053 122.661C143.053 122.661 143.052 122.661 143.05 122.661ZM142.497 111.321C142.009 111.321 141.592 110.953 141.546 110.462C141.37 108.596 141.15 106.712 140.89 104.864C140.818 104.346 141.183 103.869 141.706 103.796C142.232 103.727 142.713 104.086 142.786 104.604C143.049 106.48 143.273 108.392 143.451 110.287C143.5 110.807 143.113 111.268 142.587 111.317C142.557 111.319 142.527 111.321 142.497 111.321ZM140.919 100.075C140.467 100.075 140.065 99.7565 139.98 99.3008C139.636 97.4643 139.243 95.6089 138.814 93.7856C138.694 93.2765 139.014 92.7678 139.528 92.649C140.042 92.5297 140.557 92.8468 140.677 93.356C141.113 95.2076 141.511 97.0919 141.861 98.9563C141.957 99.4702 141.614 99.9643 141.094 100.059C141.035 100.07 140.977 100.075 140.919 100.075ZM138.314 89.019C137.897 89.019 137.513 88.7465 137.394 88.3291C137.287 87.9534 137.178 87.5767 137.066 87.1991C136.646 85.7776 136.194 84.3452 135.723 82.9421C135.557 82.4462 135.829 81.9106 136.33 81.7459C136.832 81.5822 137.373 81.85 137.539 82.3464C138.018 83.7712 138.476 85.2253 138.903 86.6691C139.016 87.0524 139.127 87.4343 139.235 87.8157C139.379 88.3187 139.083 88.8416 138.574 88.9835C138.488 89.0072 138.4 89.019 138.314 89.019ZM134.7 78.2437C134.316 78.2437 133.953 78.0123 133.807 77.6356C133.131 75.8928 132.404 74.1382 131.646 72.4214C131.435 71.9425 131.656 71.3851 132.14 71.1754C132.626 70.9672 133.189 71.1854 133.4 71.6643C134.169 73.4071 134.907 75.1877 135.593 76.958C135.782 77.4459 135.535 77.9934 135.042 78.1803C134.93 78.2233 134.814 78.2437 134.7 78.2437ZM130.109 67.8389C129.755 67.8389 129.416 67.6449 129.25 67.3098C128.417 65.6337 127.533 63.951 126.622 62.3095C126.368 61.8514 126.537 61.276 127 61.0247C127.464 60.773 128.046 60.941 128.3 61.399C129.224 63.0652 130.122 64.7734 130.967 66.4756C131.2 66.9445 131.005 67.5114 130.53 67.7423C130.394 67.8076 130.251 67.8389 130.109 67.8389Z" fill="#999999"/>
<path d="M101.629 187.783H75.7966C75.2685 187.783 74.8398 187.359 74.8398 186.836C74.8398 186.314 75.2685 185.89 75.7966 185.89H101.629C102.157 185.89 102.585 186.314 102.585 186.836C102.585 187.359 102.157 187.783 101.629 187.783Z" fill="#666666"/>
<g opacity="0.9">
<path d="M84.4073 194.407H56.1833C55.6552 194.407 55.2266 193.983 55.2266 193.46C55.2266 192.938 55.6552 192.514 56.1833 192.514H84.4073C84.9354 192.514 85.364 192.938 85.364 193.46C85.364 193.983 84.9354 194.407 84.4073 194.407Z" fill="#666666"/>
</g>
<path d="M108.146 188.343C109.038 188.343 109.761 187.628 109.761 186.745C109.761 185.863 109.038 185.148 108.146 185.148C107.254 185.148 106.531 185.863 106.531 186.745C106.531 187.628 107.254 188.343 108.146 188.343Z" fill="#666666"/>
<path d="M51.3996 174.533H16.9567C16.4286 174.533 16 174.109 16 173.586C16 173.064 16.4286 172.64 16.9567 172.64H51.3996C51.9277 172.64 52.3563 173.064 52.3563 173.586C52.3563 174.109 51.9277 174.533 51.3996 174.533Z" fill="#666666"/>
<path d="M165.816 160.341H44.8765C44.3487 160.341 43.9204 159.921 43.9204 159.404V152.528C43.9204 142.621 52.1403 134.562 62.2437 134.562H148.454C158.554 134.562 166.772 142.621 166.772 152.528V159.404C166.772 159.921 166.344 160.341 165.816 160.341ZM45.8326 158.466H164.86V152.528C164.86 143.655 157.5 136.437 148.454 136.437H62.2437C53.1949 136.437 45.8326 143.655 45.8326 152.528V158.466Z" fill="#666666"/>
</svg>
