<svg width="220" height="220" viewBox="0 0 220 220" fill="none" xmlns="http://www.w3.org/2000/svg">
<g opacity="0.5">
<path d="M23.6676 172.537C36.6176 172.537 47.1155 161.99 47.1155 148.981C47.1155 135.971 36.6176 125.425 23.6676 125.425C10.7177 125.425 0.219727 135.971 0.219727 148.981C0.219727 161.99 10.7177 172.537 23.6676 172.537Z" fill="#D7E2E5"/>
</g>
<path d="M166.74 92.7801C171.829 92.7801 175.955 88.6488 175.955 83.5526C175.955 78.4565 171.829 74.3252 166.74 74.3252C161.652 74.3252 157.526 78.4565 157.526 83.5526C157.526 88.6488 161.652 92.7801 166.74 92.7801Z" fill="#D7E2E5"/>
<path fill-rule="evenodd" clip-rule="evenodd" d="M70.286 136.62L64.7899 137.711C64.2842 137.811 63.7921 137.48 63.6914 136.971C63.5907 136.462 63.9194 135.968 64.425 135.867L69.9212 134.776C70.4268 134.676 70.9189 135.008 71.0196 135.516C71.1203 136.025 70.7921 136.519 70.286 136.62ZM59.2937 138.802L53.7976 139.893C53.292 139.993 52.7998 139.662 52.6991 139.153C52.5984 138.644 52.9271 138.15 53.4327 138.049L58.9289 136.958C59.4345 136.858 59.9266 137.189 60.0273 137.698C60.128 138.207 59.7999 138.701 59.2937 138.802ZM48.3015 140.984L42.8053 142.075C42.2997 142.175 41.8076 141.843 41.7069 141.335C41.6062 140.826 41.9348 140.332 42.4405 140.231L47.9366 139.14C48.4422 139.04 48.9344 139.371 49.0351 139.88C49.1358 140.389 48.8076 140.883 48.3015 140.984Z" fill="#666666"/>
<path d="M150.226 73.5229H126.328C125.854 73.5229 125.469 73.1362 125.469 72.6597V47.1749C125.469 46.6985 125.854 46.3118 126.328 46.3118C126.803 46.3118 127.188 46.6985 127.188 47.1749V71.7969H150.226C150.7 71.7969 151.085 72.1836 151.085 72.6601C151.085 73.1366 150.701 73.5229 150.226 73.5229Z" fill="#666666"/>
<path d="M36.1994 163.984C32.3071 163.984 28.8329 161.199 28.0914 157.223L17.1661 98.4282C16.3301 93.9423 19.2862 89.6088 23.7554 88.7676L69.4144 80.2049C69.6004 80.1708 69.7838 80.1428 69.9647 80.1217C69.9879 69.9742 70.0145 59.8302 70.0412 49.6866L70.0489 46.861L70.9081 46H126.62L127.243 46.2693L151.585 72.0657L151.821 72.6591L151.838 94.4887L150.794 95.332L146.669 94.4214C145.598 94.184 144.496 94.3817 143.564 94.9799C142.632 95.5789 141.988 96.5021 141.751 97.5798L130.608 148.446C130.48 149.022 130.477 149.61 130.6 150.197L129.759 151.238H89.0044C87.8045 153.341 85.7343 154.834 83.3693 155.276L37.7116 163.843C37.2034 163.938 36.6982 163.984 36.1994 163.984ZM71.7652 47.7263L71.7596 49.6914C71.7325 60.1042 71.705 70.518 71.6814 80.9352L70.8222 81.7962C70.4738 81.7962 70.1155 81.8312 69.7267 81.9024L24.0712 90.4642C20.5338 91.1301 18.1933 94.5599 18.8549 98.1106L29.7802 156.906C30.4427 160.456 33.8589 162.806 37.3967 162.146L83.0544 153.579C85.0654 153.203 87.007 151.379 87.9156 149.511H88.488H128.794C128.78 149.028 128.825 148.547 128.93 148.072L140.073 97.2077C140.409 95.6795 141.321 94.3718 142.639 93.525C143.958 92.6778 145.522 92.399 147.04 92.7352L150.118 93.4149L150.102 73.0035L126.25 47.7263H71.7652Z" fill="#666666"/>
<path d="M70.7616 105.659C70.7607 105.659 70.7598 105.659 70.759 105.659C70.2847 105.657 69.9011 105.27 69.9023 104.793L69.9629 80.9304C69.9642 80.4544 70.3483 80.0698 70.8221 80.0698C70.823 80.0698 70.8239 80.0698 70.8247 80.0698C71.299 80.0711 71.6826 80.4583 71.6813 80.9356L71.6208 104.798C71.6195 105.274 71.235 105.659 70.7616 105.659Z" fill="#666666"/>
<path d="M88.4875 151.238C88.4875 151.238 71.4261 151.238 70.908 151.238C70.39 151.238 70.0488 151.126 70.0488 150.375C70.0489 149.624 70.0488 120.859 70.0488 120.859C70.0488 120.382 70.4338 119.995 70.908 119.995C71.3823 119.995 71.7673 120.382 71.7673 120.859V149.512H88.4875C88.9618 149.512 89.3467 149.898 89.3467 150.375C89.3467 150.851 88.9622 151.238 88.4875 151.238Z" fill="#666666"/>
<path d="M219.65 130.805L210.564 171.949C209.982 174.571 207.358 176.24 204.73 175.664L138.487 161.138C136.555 160.714 135.141 159.197 134.749 157.385C134.61 156.725 134.601 156.023 134.758 155.326L145.7 105.789C146.282 103.166 148.906 101.493 151.534 102.073L155.584 102.96L188.299 110.135C190.222 110.706 191.007 111.585 191.365 112.274C192.42 114.291 190.737 116.351 191.834 118.356C192.445 119.465 193.61 120.003 194.466 120.285C201.616 121.853 208.771 123.42 215.921 124.992C218.554 125.569 220.233 128.182 219.65 130.805Z" fill="#D7E2E5"/>
<path d="M202.098 170.125C201.683 170.125 201.264 170.081 200.843 169.988L133.382 155.073C131.154 154.579 129.403 152.807 128.92 150.557C128.745 149.723 128.749 148.889 128.93 148.073L140.073 97.2085C140.409 95.6803 141.32 94.3726 142.639 93.5258C143.958 92.6786 145.521 92.3998 147.039 92.736L184.54 101.029C186.333 101.567 187.558 102.451 188.18 103.656C188.841 104.931 188.656 106.182 188.493 107.285C188.348 108.26 188.224 109.103 188.648 109.885C189.018 110.562 189.744 111.088 190.804 111.446L193.269 111.991C199.715 113.416 206.164 114.841 212.61 116.27C214.131 116.606 215.433 117.52 216.276 118.847C217.119 120.171 217.397 121.742 217.061 123.269L207.808 165.516C207.204 168.254 204.779 170.125 202.098 170.125ZM145.779 94.3234C145.002 94.3234 144.239 94.5469 143.565 94.9798C142.632 95.5788 141.988 96.502 141.751 97.5797L130.607 148.446C130.48 149.022 130.477 149.61 130.6 150.197C130.941 151.785 132.178 153.038 133.751 153.387L201.211 168.302C203.431 168.793 205.638 167.376 206.129 165.144L215.382 122.896C215.619 121.82 215.422 120.711 214.827 119.776C214.231 118.839 213.313 118.194 212.24 117.957C205.794 116.528 199.345 115.103 192.899 113.677L190.305 113.1C188.797 112.6 187.732 111.797 187.14 110.715C186.439 109.421 186.627 108.152 186.792 107.031C186.935 106.066 187.058 105.232 186.654 104.452C186.258 103.683 185.391 103.091 184.077 102.693L146.668 94.4222C146.374 94.3557 146.075 94.3234 145.779 94.3234Z" fill="#666666"/>
<path d="M13.4542 115.973C14.8242 115.973 15.9348 114.856 15.9348 113.478C15.9348 112.101 14.8242 110.984 13.4542 110.984C12.0842 110.984 10.9736 112.101 10.9736 113.478C10.9736 114.856 12.0842 115.973 13.4542 115.973Z" fill="#CFCFCF"/>
<path d="M158.991 67.9627C160.56 67.9627 161.832 66.683 161.832 65.1044C161.832 63.5258 160.56 62.2461 158.991 62.2461C157.422 62.2461 156.15 63.5258 156.15 65.1044C156.15 66.683 157.422 67.9627 158.991 67.9627Z" fill="#9BAFBA"/>
<path opacity="0.58" d="M170.559 58.7738C171.588 58.7738 172.422 57.9347 172.422 56.8997C172.422 55.8647 171.588 55.0256 170.559 55.0256C169.53 55.0256 168.697 55.8647 168.697 56.8997C168.697 57.9347 169.53 58.7738 170.559 58.7738Z" fill="#949494"/>
<path fill-rule="evenodd" clip-rule="evenodd" d="M77.2847 120.298L82.7808 119.208C83.2869 119.107 83.6151 118.613 83.5144 118.104C83.4137 117.595 82.9216 117.264 82.416 117.364L76.9198 118.455C76.4142 118.555 76.0855 119.05 76.1862 119.559C76.2869 120.067 76.779 120.399 77.2847 120.298ZM66.2924 122.48L71.7885 121.389C72.2946 121.289 72.6228 120.795 72.5221 120.286C72.4214 119.777 71.9293 119.446 71.4237 119.546L65.9275 120.637C65.4219 120.737 65.0932 121.232 65.1939 121.741C65.2946 122.249 65.7868 122.581 66.2924 122.48ZM55.3001 124.662L60.7963 123.571C61.3024 123.471 61.6306 122.977 61.5299 122.468C61.4292 121.959 60.937 121.628 60.4314 121.728L54.9353 122.819C54.4296 122.919 54.101 123.414 54.2017 123.922C54.3024 124.431 54.7945 124.763 55.3001 124.662ZM44.3078 126.844L49.804 125.753C50.3101 125.653 50.6383 125.158 50.5376 124.65C50.4369 124.141 49.9448 123.809 49.4391 123.91L43.943 125.001C43.4373 125.101 43.1087 125.596 43.2094 126.104C43.3101 126.613 43.8022 126.945 44.3078 126.844ZM33.3156 129.026L38.8117 127.935C39.3178 127.835 39.646 127.34 39.5453 126.832C39.4446 126.323 38.9525 125.991 38.4468 126.092L32.9507 127.183C32.445 127.283 32.1164 127.777 32.2171 128.286C32.3178 128.795 32.8099 129.126 33.3156 129.026Z" fill="#666666"/>
<path fill-rule="evenodd" clip-rule="evenodd" d="M65.8976 106.74L60.4015 107.831C59.8958 107.931 59.4037 107.6 59.303 107.091C59.2023 106.582 59.531 106.088 60.0366 105.988L65.5327 104.897C66.0384 104.796 66.5305 105.128 66.6312 105.636C66.7319 106.145 66.4037 106.639 65.8976 106.74ZM54.9053 108.922L49.4092 110.013C48.9035 110.113 48.4114 109.782 48.3107 109.273C48.21 108.764 48.5387 108.27 49.0443 108.169L54.5405 107.078C55.0461 106.978 55.5382 107.31 55.6389 107.818C55.7396 108.327 55.4114 108.821 54.9053 108.922ZM43.913 111.104L38.4169 112.195C37.9112 112.295 37.4191 111.964 37.3184 111.455C37.2177 110.946 37.5464 110.452 38.052 110.351L43.5482 109.26C44.0538 109.16 44.5459 109.491 44.6466 110C44.7473 110.509 44.4191 111.003 43.913 111.104Z" fill="#666666"/>
<path opacity="0.7" d="M47.4044 67.5097C49.225 67.5097 50.7008 66.076 50.7008 64.3073C50.7008 62.5387 49.225 61.105 47.4044 61.105C45.5838 61.105 44.1079 62.5387 44.1079 64.3073C44.1079 66.076 45.5838 67.5097 47.4044 67.5097Z" fill="#666666"/>
<path opacity="0.5" d="M47.4042 54.8479C47.0588 54.8479 46.7786 54.5716 46.7786 54.2312V52.0323C46.7786 51.6918 47.0588 51.4155 47.4042 51.4155C47.7495 51.4155 48.0298 51.6918 48.0298 52.0323V54.2312C48.0298 54.5719 47.7499 54.8479 47.4042 54.8479Z" fill="#666666"/>
<path opacity="0.5" d="M52.2607 56.0006C52.1612 56.0006 52.0599 55.9771 51.966 55.9278C51.6613 55.7671 51.5465 55.3934 51.7098 55.0927L52.7649 53.15C52.9279 52.85 53.3071 52.7375 53.6117 52.8975C53.9164 53.0582 54.0312 53.4319 53.8679 53.7325L52.8128 55.6752C52.7002 55.8825 52.484 56.0006 52.2607 56.0006Z" fill="#666666"/>
<path opacity="0.5" d="M55.976 59.2244C55.7745 59.2244 55.5772 59.1288 55.4561 58.9518C55.2634 58.6691 55.3394 58.2861 55.626 58.0961L57.4938 56.8577C57.7806 56.6678 58.1692 56.7424 58.3622 57.0252C58.5549 57.308 58.4788 57.6909 58.1923 57.8809L56.3245 59.1193C56.2172 59.1905 56.0961 59.2244 55.976 59.2244Z" fill="#666666"/>
<path opacity="0.5" d="M57.7325 63.7714C57.4194 63.7714 57.1488 63.5399 57.1119 63.2256C57.0722 62.8871 57.318 62.5812 57.6612 62.542L59.9028 62.2857C60.2457 62.2447 60.5566 62.489 60.5963 62.8272C60.6361 63.1658 60.3902 63.4717 60.047 63.5109L57.8054 63.7671C57.781 63.7702 57.7566 63.7714 57.7325 63.7714Z" fill="#666666"/>
<path opacity="0.5" d="M59.2054 69.3652C59.1316 69.3652 59.0565 69.3519 58.9836 69.3248L56.874 68.5348C56.5508 68.4136 56.3885 68.0574 56.5111 67.7392C56.6337 67.4209 56.9954 67.2609 57.3182 67.3815L59.4278 68.1715C59.751 68.2927 59.9133 68.6488 59.7907 68.9671C59.6956 69.2132 59.4579 69.3652 59.2054 69.3652Z" fill="#666666"/>
<path opacity="0.5" d="M55.7118 74.2108C55.5372 74.2108 55.3636 74.1392 55.2397 73.9992L53.7673 72.3341C53.5402 72.0772 53.5674 71.6874 53.828 71.4639C54.0886 71.24 54.4837 71.2668 54.7108 71.5234L56.1832 73.1885C56.4103 73.4454 56.3831 73.8352 56.1225 74.0588C56.0039 74.1608 55.8575 74.2108 55.7118 74.2108Z" fill="#666666"/>
<path opacity="0.5" d="M50.3049 76.901C50.023 76.901 49.7671 76.7123 49.6974 76.4304L49.17 74.2956C49.0883 73.9647 49.2942 73.6311 49.6298 73.5503C49.9645 73.4707 50.3039 73.6724 50.3859 74.0036L50.9133 76.1384C50.9949 76.4693 50.7891 76.8029 50.4535 76.8837C50.4037 76.8954 50.354 76.901 50.3049 76.901Z" fill="#666666"/>
<path opacity="0.5" d="M44.2181 76.816C44.1646 76.816 44.1105 76.8092 44.0564 76.795C43.7226 76.7075 43.524 76.3695 43.6131 76.0405L44.1846 73.9269C44.2735 73.5973 44.6166 73.4021 44.9504 73.4897C45.2842 73.5773 45.4828 73.9152 45.3937 74.2442L44.8221 76.3578C44.7477 76.6338 44.4946 76.816 44.2181 76.816Z" fill="#666666"/>
<path opacity="0.5" d="M38.8767 73.9976C38.7222 73.9976 38.5677 73.9414 38.4466 73.8286C38.1957 73.5942 38.1851 73.2041 38.4225 72.9568L39.9606 71.3558C40.1981 71.1085 40.5938 71.0977 40.8453 71.3321C41.0962 71.5664 41.1068 71.9565 40.8694 72.2038L39.3313 73.8048C39.2083 73.9328 39.0425 73.9976 38.8767 73.9976Z" fill="#666666"/>
<path opacity="0.5" d="M35.5153 69.0875C35.2557 69.0875 35.0135 68.9268 34.9238 68.6718C34.8112 68.3495 34.9844 67.9983 35.311 67.8873L37.4426 67.1614C37.7698 67.0519 38.1254 67.2215 38.2381 67.5429C38.3507 67.8651 38.1774 68.2163 37.8508 68.3273L35.7193 69.0532C35.652 69.0764 35.5829 69.0875 35.5153 69.0875Z" fill="#666666"/>
<path opacity="0.5" d="M37.1199 63.5367C37.0917 63.5367 37.0632 63.5348 37.0345 63.5308L34.8147 63.232C34.4725 63.1861 34.2329 62.8752 34.2795 62.5376C34.3261 62.1999 34.6411 61.9613 34.9839 62.01L37.2037 62.3088C37.5459 62.3547 37.7855 62.6656 37.7389 63.0032C37.6964 63.3128 37.428 63.5367 37.1199 63.5367Z" fill="#666666"/>
<path opacity="0.5" d="M38.9867 59.0326C38.861 59.0326 38.7343 58.9956 38.6242 58.9182L36.8001 57.6373C36.5189 57.4396 36.4532 57.0545 36.6537 56.7773C36.8542 56.4997 37.2453 56.4353 37.5265 56.6326L39.3505 57.9136C39.6317 58.1112 39.6974 58.4964 39.4969 58.7736C39.3746 58.9426 39.1819 59.0326 38.9867 59.0326Z" fill="#666666"/>
<path opacity="0.5" d="M42.7898 55.894C42.5617 55.894 42.3415 55.7707 42.2314 55.5564L41.2207 53.5921C41.0643 53.2883 41.1875 52.9171 41.4956 52.7632C41.8038 52.6084 42.1801 52.7305 42.3365 53.0339L43.3472 54.9982C43.5036 55.302 43.3804 55.6732 43.0722 55.8271C42.9815 55.8727 42.8849 55.894 42.7898 55.894Z" fill="#666666"/>
<path d="M7.45923 123.758C8.48789 123.758 9.32178 122.919 9.32178 121.884C9.32178 120.849 8.48789 120.01 7.45923 120.01C6.43058 120.01 5.59668 120.849 5.59668 121.884C5.59668 122.919 6.43058 123.758 7.45923 123.758Z" fill="#9BAFBA"/>
<path d="M173.322 139.872C169.878 139.872 167.076 136.987 167.076 133.44C167.076 129.894 169.878 127.009 173.322 127.009C176.766 127.009 179.568 129.894 179.568 133.44C179.568 136.987 176.766 139.872 173.322 139.872ZM173.322 128.584C170.74 128.584 168.638 130.762 168.638 133.44C168.638 136.118 170.74 138.297 173.322 138.297C175.905 138.297 178.006 136.118 178.006 133.44C178.006 130.762 175.905 128.584 173.322 128.584Z" fill="#9BAFBA"/>
<path d="M173.323 147.941C173.852 147.941 174.282 147.497 174.282 146.95C174.282 146.404 173.852 145.96 173.323 145.96C172.793 145.96 172.363 146.404 172.363 146.95C172.363 147.497 172.793 147.941 173.323 147.941Z" fill="#9BAFBA"/>
<path d="M183.28 143.703C183.654 143.316 183.654 142.689 183.28 142.302C182.905 141.915 182.297 141.915 181.923 142.302C181.548 142.689 181.548 143.316 181.923 143.703C182.297 144.09 182.905 144.09 183.28 143.703Z" fill="#9BAFBA"/>
<path d="M186.404 134.431C186.933 134.431 187.363 133.988 187.363 133.441C187.363 132.894 186.933 132.45 186.404 132.45C185.874 132.45 185.444 132.894 185.444 133.441C185.444 133.988 185.874 134.431 186.404 134.431Z" fill="#9BAFBA"/>
<path d="M183.267 124.585C183.642 124.198 183.642 123.571 183.267 123.184C182.893 122.797 182.285 122.797 181.911 123.184C181.536 123.571 181.536 124.198 181.911 124.585C182.285 124.972 182.892 124.972 183.267 124.585Z" fill="#9BAFBA"/>
<path d="M173.323 120.922C173.852 120.922 174.282 120.478 174.282 119.931C174.282 119.384 173.852 118.941 173.323 118.941C172.793 118.941 172.363 119.385 172.363 119.931C172.363 120.479 172.793 120.922 173.323 120.922Z" fill="#9BAFBA"/>
<path d="M164.755 124.598C165.129 124.211 165.129 123.584 164.755 123.197C164.38 122.81 163.773 122.81 163.398 123.197C163.024 123.584 163.024 124.211 163.398 124.598C163.773 124.984 164.38 124.984 164.755 124.598Z" fill="#9BAFBA"/>
<path d="M160.24 134.431C160.77 134.431 161.2 133.988 161.2 133.441C161.2 132.894 160.77 132.45 160.24 132.45C159.711 132.45 159.281 132.894 159.281 133.441C159.281 133.988 159.711 134.431 160.24 134.431Z" fill="#9BAFBA"/>
<path d="M164.767 143.717C165.141 143.33 165.141 142.702 164.767 142.315C164.392 141.928 163.785 141.928 163.41 142.315C163.036 142.702 163.036 143.33 163.41 143.717C163.785 144.104 164.392 144.104 164.767 143.717Z" fill="#9BAFBA"/>
</svg>
