<svg width="220" height="220" viewBox="0 0 220 220" fill="none" xmlns="http://www.w3.org/2000/svg">
<rect width="220" height="220" fill="white"/>
<path opacity="0.5" d="M149.753 203H69.8875C66.7488 203 64.1807 200.825 64.1807 198.166V113.326C64.1807 110.667 66.7488 108.492 69.8875 108.492H149.753C152.892 108.492 155.46 110.667 155.46 113.326V198.165C155.46 200.824 152.892 203 149.753 203Z" fill="#E7EFF2"/>
<path opacity="0.5" fill-rule="evenodd" clip-rule="evenodd" d="M191.625 100.012C191.625 100.618 192.132 101.11 192.757 101.11C193.383 101.11 193.889 100.619 193.889 100.012V96.0978C193.889 95.4918 193.382 95 192.757 95C192.132 95 191.625 95.4918 191.625 96.0978V100.012ZM198.722 117.949C198.722 121.097 196.052 123.65 192.758 123.65C189.464 123.65 186.794 121.097 186.794 117.949C186.794 114.801 189.464 112.249 192.758 112.249C196.052 112.249 198.722 114.801 198.722 117.949ZM201.545 103.162C201.365 103.162 201.181 103.121 201.011 103.033C200.46 102.747 200.252 102.082 200.548 101.546L202.457 98.0883C202.752 97.5542 203.438 97.3538 203.989 97.6387C204.54 97.9247 204.748 98.59 204.453 99.1252L202.543 102.583C202.34 102.952 201.949 103.162 201.545 103.162ZM207.326 108.415C207.545 108.73 207.902 108.901 208.267 108.901C208.484 108.901 208.703 108.84 208.897 108.713L212.277 106.509C212.795 106.171 212.933 105.489 212.584 104.986C212.235 104.482 211.532 104.35 211.013 104.688L207.634 106.892C207.115 107.23 206.978 107.912 207.326 108.415ZM211.445 116.995C210.878 116.995 210.389 116.583 210.322 116.024C210.25 115.421 210.695 114.876 211.316 114.807L215.372 114.351C215.992 114.278 216.555 114.712 216.627 115.314C216.699 115.917 216.254 116.462 215.633 116.531L211.577 116.988C211.533 116.993 211.489 116.995 211.445 116.995ZM213.709 126.881C213.84 126.929 213.976 126.953 214.11 126.953C214.567 126.953 214.997 126.682 215.169 126.244C215.391 125.677 215.097 125.043 214.512 124.828L210.695 123.421C210.111 123.207 209.457 123.492 209.235 124.058C209.013 124.625 209.307 125.259 209.891 125.474L213.709 126.881ZM207.788 135.578C207.472 135.578 207.158 135.45 206.934 135.201L204.27 132.237C203.859 131.78 203.908 131.086 204.38 130.688C204.851 130.29 205.566 130.337 205.977 130.794L208.641 133.758C209.052 134.215 209.003 134.909 208.531 135.307C208.317 135.489 208.052 135.578 207.788 135.578ZM196.907 139.529C197.033 140.031 197.496 140.367 198.006 140.367C198.095 140.367 198.185 140.357 198.275 140.336C198.882 140.192 199.254 139.598 199.107 139.009L198.152 135.209C198.004 134.619 197.39 134.26 196.784 134.402C196.177 134.546 195.805 135.14 195.952 135.729L196.907 139.529ZM186.993 140.215C186.896 140.215 186.798 140.203 186.7 140.178C186.096 140.022 185.737 139.42 185.898 138.834L186.932 135.072C187.093 134.485 187.714 134.138 188.318 134.294C188.921 134.45 189.281 135.051 189.12 135.637L188.086 139.399C187.951 139.891 187.493 140.215 186.993 140.215ZM176.55 134.897C176.769 135.098 177.049 135.198 177.329 135.198C177.629 135.198 177.929 135.083 178.151 134.855L180.934 132.005C181.364 131.565 181.344 130.87 180.89 130.453C180.435 130.036 179.719 130.055 179.29 130.496L176.507 133.345C176.077 133.786 176.097 134.48 176.55 134.897ZM171.246 126.458C170.776 126.458 170.338 126.172 170.176 125.718C169.972 125.145 170.286 124.519 170.877 124.322L174.733 123.03C175.325 122.835 175.969 123.137 176.173 123.709C176.376 124.282 176.063 124.907 175.472 125.105L171.615 126.397C171.493 126.438 171.368 126.458 171.246 126.458ZM173.995 116.566C174.047 116.573 174.099 116.576 174.15 116.576C174.707 116.576 175.193 116.178 175.27 115.627C175.354 115.026 174.921 114.472 174.301 114.391L170.285 113.859C169.665 113.772 169.095 114.197 169.01 114.798C168.926 115.399 169.36 115.952 169.979 116.034L173.995 116.566ZM177.528 108.559C177.3 108.559 177.071 108.493 176.872 108.355L173.571 106.075C173.063 105.723 172.944 105.038 173.306 104.544C173.669 104.05 174.377 103.935 174.886 104.287L178.186 106.567C178.695 106.919 178.814 107.604 178.451 108.098C178.229 108.399 177.881 108.559 177.528 108.559ZM183.398 102.372C183.597 102.753 183.996 102.973 184.409 102.973C184.581 102.973 184.756 102.935 184.92 102.853C185.477 102.58 185.7 101.919 185.417 101.378L183.588 97.8814C183.305 97.3413 182.625 97.1239 182.067 97.3995C181.51 97.6734 181.287 98.3343 181.57 98.8749L183.398 102.372Z" fill="#999999"/>
<path opacity="0.2" d="M54.3659 108.512C61.8824 108.512 67.9757 102.419 67.9757 94.9025C67.9757 87.386 61.8824 81.2927 54.3659 81.2927C46.8494 81.2927 40.7561 87.386 40.7561 94.9025C40.7561 102.419 46.8494 108.512 54.3659 108.512Z" fill="#CBD3D9"/>
<path d="M23.744 119.854C20.6173 119.854 18.0732 117.31 18.0732 114.183C18.0732 111.056 20.6173 108.512 23.744 108.512C26.8707 108.512 29.4147 111.056 29.4147 114.183C29.4147 117.31 26.8712 119.854 23.744 119.854ZM23.744 110.383C21.6484 110.383 19.9438 112.088 19.9438 114.183C19.9438 116.278 21.6489 117.983 23.744 117.983C25.8391 117.983 27.5441 116.278 27.5441 114.183C27.5446 112.087 25.8395 110.383 23.744 110.383Z" fill="#D7E2E5"/>
<path d="M120.147 64.6342C121.399 64.6342 122.415 63.6187 122.415 62.366C122.415 61.1132 121.399 60.0977 120.147 60.0977C118.894 60.0977 117.878 61.1132 117.878 62.366C117.878 63.6187 118.894 64.6342 120.147 64.6342Z" fill="#CBD3D9"/>
<path d="M49.8905 86.9026C51.7696 86.9026 53.2929 85.3792 53.2929 83.5001C53.2929 81.621 51.7696 80.0977 49.8905 80.0977C48.0114 80.0977 46.488 81.621 46.488 83.5001C46.488 85.3792 48.0114 86.9026 49.8905 86.9026Z" fill="#B8BDBD"/>
<path d="M164.402 94.8049C166.282 94.8049 167.805 93.2816 167.805 91.4024C167.805 89.5233 166.282 88 164.402 88C162.523 88 161 89.5233 161 91.4024C161 93.2816 162.523 94.8049 164.402 94.8049Z" fill="#809099"/>
<path d="M38.5489 60.7561C40.428 60.7561 41.9514 59.2327 41.9514 57.3536C41.9514 55.4745 40.428 53.9512 38.5489 53.9512C36.6698 53.9512 35.1465 55.4745 35.1465 57.3536C35.1465 59.2327 36.6698 60.7561 38.5489 60.7561Z" fill="#98A8B2"/>
<path opacity="0.58" d="M113.342 21.5366C114.595 21.5366 115.61 20.521 115.61 19.2683C115.61 18.0156 114.595 17 113.342 17C112.089 17 111.073 18.0156 111.073 19.2683C111.073 20.521 112.089 21.5366 113.342 21.5366Z" fill="#CBD3D9"/>
<path d="M174.268 148.537C175.521 148.537 176.537 147.521 176.537 146.268C176.537 145.016 175.521 144 174.268 144C173.016 144 172 145.016 172 146.268C172 147.521 173.016 148.537 174.268 148.537Z" fill="#C1C1C1"/>
<path opacity="0.58" d="M197.268 57.5366C198.521 57.5366 199.537 56.521 199.537 55.2683C199.537 54.0156 198.521 53 197.268 53C196.016 53 195 54.0156 195 55.2683C195 56.521 196.016 57.5366 197.268 57.5366Z" fill="#F0F2F2"/>
<path opacity="0.58" d="M29.2683 181.537C30.521 181.537 31.5366 180.521 31.5366 179.268C31.5366 178.016 30.521 177 29.2683 177C28.0156 177 27 178.016 27 179.268C27 180.521 28.0156 181.537 29.2683 181.537Z" fill="#F0F2F2"/>
<path d="M143.253 132.449H57.7017C57.1125 132.449 56.6343 131.968 56.6343 131.374V102.35C56.6343 101.756 57.1125 101.275 57.7017 101.275H143.253C143.842 101.275 144.321 101.756 144.321 102.35V131.374C144.321 131.968 143.842 132.449 143.253 132.449ZM58.7691 130.299H142.186V103.425H58.7691V130.299Z" fill="#666666"/>
<path d="M99.512 118.244C108.079 118.244 115.024 111.25 115.024 102.622C115.024 93.9943 108.079 87 99.512 87C90.945 87 84 93.9943 84 102.622C84 111.25 90.945 118.244 99.512 118.244Z" fill="#D7E2E5"/>
<path fill-rule="evenodd" clip-rule="evenodd" d="M98.4939 110.722C98.4939 111.288 98.95 111.747 99.5121 111.747C100.074 111.747 100.53 111.288 100.53 110.722V103.647H107.558C108.12 103.647 108.576 103.188 108.576 102.622C108.576 102.056 108.12 101.597 107.558 101.597H100.53V94.5221C100.53 93.9563 100.074 93.4971 99.5121 93.4971C98.95 93.4971 98.4939 93.9563 98.4939 94.5221V101.597H91.4664C90.9044 101.597 90.4482 102.056 90.4482 102.622C90.4482 103.188 90.9044 103.647 91.4664 103.647H98.4939V110.722Z" fill="#666666"/>
<path fill-rule="evenodd" clip-rule="evenodd" d="M129.618 148.443H123.213C122.624 148.443 122.146 147.961 122.146 147.368C122.146 146.775 122.624 146.293 123.213 146.293H129.618C130.207 146.293 130.685 146.775 130.685 147.368C130.685 147.961 130.207 148.443 129.618 148.443ZM116.809 148.443H110.404C109.815 148.443 109.337 147.961 109.337 147.368C109.337 146.775 109.815 146.293 110.404 146.293H116.809C117.398 146.293 117.876 146.775 117.876 147.368C117.876 147.961 117.399 148.443 116.809 148.443ZM104 148.443H97.5956C97.0064 148.443 96.5282 147.961 96.5282 147.368C96.5282 146.775 97.0064 146.293 97.5956 146.293H104C104.589 146.293 105.067 146.775 105.067 147.368C105.067 147.961 104.59 148.443 104 148.443ZM91.1912 148.443H84.7868C84.1976 148.443 83.7194 147.961 83.7194 147.368C83.7194 146.775 84.1976 146.293 84.7868 146.293H91.1912C91.7804 146.293 92.2586 146.775 92.2586 147.368C92.2586 147.961 91.7809 148.443 91.1912 148.443ZM78.3824 148.443H71.978C71.3888 148.443 70.9106 147.961 70.9106 147.368C70.9106 146.775 71.3888 146.293 71.978 146.293H78.3824C78.9716 146.293 79.4498 146.775 79.4498 147.368C79.4498 147.961 78.9721 148.443 78.3824 148.443ZM141.269 184.587H134.865C134.276 184.587 133.797 184.106 133.797 183.512C133.797 182.919 134.276 182.438 134.865 182.438H141.269C141.858 182.438 142.337 182.919 142.337 183.512C142.337 184.106 141.859 184.587 141.269 184.587ZM128.46 184.587H122.056C121.467 184.587 120.989 184.106 120.989 183.512C120.989 182.919 121.467 182.438 122.056 182.438H128.46C129.05 182.438 129.528 182.919 129.528 183.512C129.528 184.106 129.05 184.587 128.46 184.587ZM115.652 184.587H109.247C108.658 184.587 108.18 184.106 108.18 183.512C108.18 182.919 108.658 182.438 109.247 182.438H115.652C116.241 182.438 116.719 182.919 116.719 183.512C116.719 184.106 116.241 184.587 115.652 184.587ZM102.843 184.587H96.4384C95.8492 184.587 95.371 184.106 95.371 183.512C95.371 182.919 95.8492 182.438 96.4384 182.438H102.843C103.432 182.438 103.91 182.919 103.91 183.512C103.91 184.106 103.433 184.587 102.843 184.587ZM90.034 184.587H83.6296C83.0404 184.587 82.5622 184.106 82.5622 183.512C82.5622 182.919 83.0404 182.438 83.6296 182.438H90.034C90.6232 182.438 91.1014 182.919 91.1014 183.512C91.1014 184.106 90.6237 184.587 90.034 184.587ZM77.2252 184.587H70.8208C70.2316 184.587 69.7534 184.106 69.7534 183.512C69.7534 182.919 70.2316 182.438 70.8208 182.438H77.2252C77.8144 182.438 78.2926 182.919 78.2926 183.512C78.2926 184.106 77.8149 184.587 77.2252 184.587ZM64.4164 184.587H58.012C57.4228 184.587 56.9446 184.106 56.9446 183.512C56.9446 182.919 57.4228 182.438 58.012 182.438H64.4164C65.0056 182.438 65.4838 182.919 65.4838 183.512C65.4838 184.106 65.0061 184.587 64.4164 184.587ZM46.4584 164.439C45.8148 164.439 45.293 164.89 45.293 165.445C45.293 166 45.8148 166.45 46.4584 166.45H49.793C50.4366 166.45 50.9584 166 50.9584 165.445C50.9584 164.89 50.4366 164.439 49.793 164.439H46.4584ZM56.462 164.439C55.8184 164.439 55.2966 164.89 55.2966 165.445C55.2966 166 55.8184 166.45 56.462 166.45H63.1311C63.7748 166.45 64.2966 166 64.2966 165.445C64.2966 164.89 63.7748 164.439 63.1311 164.439H56.462ZM69.8001 164.439C69.1565 164.439 68.6347 164.89 68.6347 165.445C68.6347 166 69.1565 166.45 69.8001 166.45H76.4692C77.1129 166.45 77.6347 166 77.6347 165.445C77.6347 164.89 77.1129 164.439 76.4692 164.439H69.8001ZM83.1383 164.439C82.4946 164.439 81.9728 164.89 81.9728 165.445C81.9728 166 82.4946 166.45 83.1383 166.45H89.8073C90.451 166.45 90.9728 166 90.9728 165.445C90.9728 164.89 90.451 164.439 89.8073 164.439H83.1383ZM96.4764 164.439C95.8327 164.439 95.3109 164.89 95.3109 165.445C95.3109 166 95.8327 166.45 96.4764 166.45H103.145C103.789 166.45 104.311 166 104.311 165.445C104.311 164.89 103.789 164.439 103.145 164.439H96.4764ZM109.815 164.439C109.171 164.439 108.649 164.89 108.649 165.445C108.649 166 109.171 166.45 109.815 166.45H116.484C117.127 166.45 117.649 166 117.649 165.445C117.649 164.89 117.127 164.439 116.484 164.439H109.815ZM123.153 164.439C122.509 164.439 121.987 164.89 121.987 165.445C121.987 166 122.509 166.45 123.153 166.45H129.822C130.465 166.45 130.987 166 130.987 165.445C130.987 164.89 130.465 164.439 129.822 164.439H123.153ZM136.491 164.439C135.847 164.439 135.325 164.89 135.325 165.445C135.325 166 135.847 166.45 136.491 166.45H143.16C143.803 166.45 144.325 166 144.325 165.445C144.325 164.89 143.803 164.439 143.16 164.439H136.491ZM149.829 164.439C149.185 164.439 148.663 164.89 148.663 165.445C148.663 166 149.185 166.45 149.829 166.45H156.498C157.142 166.45 157.663 166 157.663 165.445C157.663 164.89 157.142 164.439 156.498 164.439H149.829ZM163.167 164.439C162.523 164.439 162.002 164.89 162.002 165.445C162.002 166 162.523 166.45 163.167 166.45H166.502C167.145 166.45 167.667 166 167.667 165.445C167.667 164.89 167.145 164.439 166.502 164.439H163.167Z" fill="#757575"/>
<path opacity="0.7" fill-rule="evenodd" clip-rule="evenodd" d="M64.9618 32.8566C65.1997 33.0247 65.5023 33.0644 65.7705 32.9653L75.4356 29.3655C76.1138 29.1138 76.7946 29.7576 76.5868 30.4557L73.6343 40.4085C73.5519 40.6861 73.6101 40.9875 73.7919 41.2168L80.2858 49.4072C80.7409 49.9812 80.3509 50.8259 79.6265 50.8344L78.4847 50.849L69.286 50.9673C68.997 50.9706 68.7309 51.117 68.5748 51.3584L62.9239 60.0193C62.5273 60.6273 61.605 60.5042 61.3656 59.8116L57.9274 49.9408C57.8321 49.666 57.6079 49.4539 57.3293 49.3748L47.3432 46.5371C46.6394 46.3403 46.4603 45.4206 47.0362 44.9827L55.2529 38.7491C55.4817 38.5748 55.6103 38.298 55.5942 38.0079L55.1313 28.7437L55.0738 27.5932C55.0388 26.8629 55.8494 26.4172 56.4457 26.8388L64.9618 32.8566ZM58.7481 23.5033L65.8881 28.5487L73.9941 25.5296C77.801 24.1165 81.6432 27.7272 80.4732 31.6684L80.4722 31.6717L77.9976 40.0133L83.4423 46.8803C86.0013 50.108 83.8205 54.8706 79.7236 54.9198L71.0577 55.0312L66.3205 62.2918C64.0918 65.7077 58.8971 65.0316 57.54 61.1204L57.5379 61.1145L54.6585 52.8478L46.3021 50.4732L46.2909 50.47C42.3264 49.3523 41.3371 44.1683 44.569 41.7108L51.4602 36.4828L51.0235 27.742C50.8269 23.6444 55.3769 21.1209 58.7481 23.5033Z" fill="#9BAFBA"/>
<path fill-rule="evenodd" clip-rule="evenodd" d="M150.027 62.3374C150.035 62.5045 150.124 62.6555 150.263 62.742L155.309 65.8452C155.663 66.0633 155.612 66.599 155.223 66.7517L149.673 68.9331C149.518 68.9939 149.403 69.1268 149.363 69.2902L147.95 75.1252C147.851 75.5341 147.331 75.6562 147.071 75.3312L146.661 74.8195L143.356 70.6967C143.252 70.5671 143.092 70.4983 142.928 70.513L137.009 71.0161C136.594 71.0514 136.323 70.5904 136.552 70.2372L139.806 65.1916C139.896 65.0512 139.913 64.8748 139.851 64.7207L137.605 59.1966C137.446 58.8084 137.799 58.4022 138.201 58.5082L143.927 60.0247C144.087 60.0667 144.258 60.0271 144.383 59.9172L148.414 56.433L148.915 56.0003C149.233 55.7264 149.721 55.9358 149.741 56.3548L150.027 62.3374ZM152.065 56.2181L152.304 61.234L156.537 63.8367C158.522 65.0607 158.245 68.0765 156.048 68.9399L156.046 68.9406L151.395 70.7688L150.21 75.6611C149.653 77.9605 146.726 78.6567 145.256 76.8193L142.142 72.9353L137.181 73.3571C134.847 73.5555 133.316 70.9648 134.607 68.9678L134.609 68.9648L137.334 64.7391L135.455 60.1166L135.453 60.1104C134.558 57.9205 136.555 55.6402 138.81 56.2347L143.613 57.5066L147.415 54.2192C149.201 52.6818 151.952 53.8498 152.065 56.2181Z" fill="#D7E2E5"/>
</svg>
