<?xml version="1.0" encoding="utf-8"?>
<!-- Generator: Adobe Illustrator 18.1.1, SVG Export Plug-In . SVG Version: 6.00 Build 0)  -->
<svg version="1.1" id="Layer_1" xmlns="http://www.w3.org/2000/svg" xmlns:xlink="http://www.w3.org/1999/xlink" x="0px" y="0px"
	 viewBox="0 0 24 24" enable-background="new 0 0 24 24" xml:space="preserve">
<g>
	<g>
		<path fill="#0072AA" d="M24,21.7226H0V3.7602C0,2.7894,0.7894,2,1.7597,2h6.7389c0.4205,0,0.8325,0.1434,1.1597,0.4036
			l3.1322,2.7661c0.21,0.165,0.3483,0.2325,0.4899,0.2325h8.9599C23.2106,5.4023,24,6.1916,24,7.1624V21.7226z M0.96,20.7626h22.08
			V7.1624c0-0.4411-0.3591-0.8002-0.7997-0.8002h-8.9599c-0.4645,0-0.8194-0.2306-1.1053-0.4561L9.0419,3.1391
			C8.9027,3.0294,8.703,2.96,8.4986,2.96H1.7597C1.3186,2.96,0.96,3.3191,0.96,3.7602V20.7626z"/>
	</g>
</g>
</svg>
