<?xml version="1.0" encoding="utf-8"?>
<!-- Generator: Adobe Illustrator 19.1.0, SVG Export Plug-In . SVG Version: 6.00 Build 0)  -->
<!DOCTYPE svg PUBLIC "-//W3C//DTD SVG 1.1//EN" "http://www.w3.org/Graphics/SVG/1.1/DTD/svg11.dtd">
<svg version="1.1" id="Layer_1" xmlns="http://www.w3.org/2000/svg" xmlns:xlink="http://www.w3.org/1999/xlink" x="0px" y="0px"
	 viewBox="-293 385 24 24" enable-background="new -293 385 24 24" xml:space="preserve">
<g id="New_Symbol_22">
	<circle fill="#DCDCDC" cx="-281.023" cy="397" r="12"/>
	<path fill="#666666" d="M-278.926,397.024l2.8-2.8c0.586-0.586,0.586-1.535,0-2.121s-1.535-0.586-2.121,0l-2.8,2.8l-2.8-2.8
		c-0.586-0.586-1.535-0.586-2.121,0s-0.586,1.535,0,2.121l2.8,2.8l-2.8,2.8c-0.586,0.586-0.586,1.535,0,2.121
		c0.293,0.293,0.677,0.439,1.061,0.439s0.768-0.146,1.061-0.439l2.8-2.8l2.8,2.8c0.293,0.293,0.677,0.439,1.061,0.439
		s0.768-0.146,1.061-0.439c0.586-0.586,0.586-1.535,0-2.121L-278.926,397.024z"/>
</g>
</svg>
