<?xml version="1.0" encoding="utf-8"?>
<!-- Generator: Adobe Illustrator 18.1.1, SVG Export Plug-In . SVG Version: 6.00 Build 0)  -->
<svg version="1.1" id="Layer_1" xmlns="http://www.w3.org/2000/svg" xmlns:xlink="http://www.w3.org/1999/xlink" x="0px" y="0px"
	 viewBox="0 0 16 16" enable-background="new 0 0 16 16" xml:space="preserve">
<g>
	<g>
		<path fill="#666666" d="M14.7109,15.2215h-2v-1h2V15.2215z M11.7109,15.2215h-2v-1h2V15.2215z M8.7109,15.2215h-2v-1h2V15.2215z
			 M5.7109,15.2215h-2v-1h2V15.2215z M2.7109,15.2215H1.1558c-0.2764,0-0.5-0.2236-0.5-0.5v-0.4443h0.5v-0.0557h1.5552V15.2215z
			 M15.2109,13.7254h-1v-2h1V13.7254z M1.6558,13.2772h-1v-2h1V13.2772z M15.2109,10.7254h-1v-2h1V10.7254z M1.6558,10.2772h-1
			V8.2767h1V10.2772z M15.2109,7.7254h-1v-2h1V7.7254z M1.6558,7.2767h-1v-2h1V7.2767z M15.2109,4.7254h-1v-2h1V4.7254z
			 M1.6558,4.2767h-1v-2h1V4.2767z M14.7109,1.7786h-1.5537v-1h1.5537c0.2764,0,0.5,0.2236,0.5,0.5v0.4468h-0.5V1.7786z
			 M12.1572,1.7786h-2v-1h2V1.7786z M9.1572,1.7786H7.1577v-1h1.9995V1.7786z M6.1577,1.7786h-2v-1h2V1.7786z M3.1577,1.7786h-2v-1
			h2V1.7786z"/>
	</g>
	<g>
		<rect fill="#333333" width="2.5783" height="2.557"/>
	</g>
	<g>
		<rect x="13.4217" fill="#333333" width="2.5783" height="2.557"/>
	</g>
	<g>
		<rect x="13.4217" y="13.443" fill="#333333" width="2.5783" height="2.557"/>
	</g>
	<g>
		<rect y="13.443" fill="#333333" width="2.5783" height="2.557"/>
	</g>
</g>
</svg>
