<svg xmlns="http://www.w3.org/2000/svg" viewBox="0 0 42 42"><title>Asset 3</title><g data-name="Layer 2"><g data-name="Layer 1"><path d="M21,2A19,19,0,1,1,2,21,19.022,19.022,0,0,1,21,2m0-2A21,21,0,1,0,42,21,21,21,0,0,0,21,0Z" fill="#999"/><path d="M22.15,18.85c1.5-1,2.8-1.9,2.8-3.6,0-1.6-1.3-3.1-3.9-3.1a6.032,6.032,0,0,0-5.2,2.7l-1.7-1.8a8.925,8.925,0,0,1,7.2-3.4c4,0,6.5,2.3,6.5,5.1s-1.9,4.1-3.7,5.3c-1.4,1-2.7,1.8-2.7,3.3a2.059,2.059,0,0,0,.9,1.6l-2,.9a3.5,3.5,0,0,1-1.3-2.7C18.95,21.05,20.65,19.95,22.15,18.85Zm-1.2,9.9a1.8,1.8,0,1,1-1.8,1.8A1.793,1.793,0,0,1,20.95,28.75Z" fill="#fff"/></g></g></svg>