<svg version="1.1" xmlns="http://www.w3.org/2000/svg" xmlns:xlink="http://www.w3.org/1999/xlink" x="0px" y="0px" viewBox="0 0 42 42" style="enable-background:new 0 0 42 42;" xml:space="preserve"><g><g><path d="M32.8,19.1l-11.5-8.9c-0.2-0.1-0.4-0.1-0.6,0L9.2,19.1c-0.2,0.2-0.3,0.5-0.1,0.7C9.2,19.9,9.3,20,9.5,20h2
			c0.3,0,0.5,0.2,0.5,0.5v10c0,0.3,0.2,0.5,0.5,0.5h5c0.3,0,0.5-0.2,0.5-0.5v-7.3c0-1.2,1-2.2,2.2-2.2h1.6c1.2,0,2.2,1,2.2,2.2v7.3
			c0,0.3,0.2,0.5,0.5,0.5h5c0.3,0,0.5-0.2,0.5-0.5v-10c0-0.3,0.2-0.5,0.5-0.5h2.1c0.3,0,0.5-0.2,0.5-0.5C33,19.4,33,19.2,32.8,19.1z
			" fill="#FFFFFF"/></g></g></svg>