<?xml version="1.0" encoding="utf-8"?>
<!-- Generator: Adobe Illustrator 18.1.1, SVG Export Plug-In . SVG Version: 6.00 Build 0)  -->
<svg version="1.1" id="Layer_1" xmlns="http://www.w3.org/2000/svg" xmlns:xlink="http://www.w3.org/1999/xlink" x="0px" y="0px"
	 viewBox="0 0 24 24" enable-background="new 0 0 24 24" xml:space="preserve">
<g>
	<g>
		<path fill="#333333" d="M0,0v24h24V0H0z M22.59,22.59H1.41V1.41h21.18V22.59z"/>
	</g>
	<g>
		<polygon fill="#333333" points="22.59,15.72 22.59,18.2249 18,11.5649 2.88,22.59 1.41,22.59 1.41,21.9 18.345,9.57 		"/>
	</g>
	<g>
		<path fill="#333333" d="M6.182,9.5508c-1.5958,0-2.8945-1.2987-2.8945-2.8945S4.5862,3.7624,6.182,3.7624
			s2.8938,1.298,2.8938,2.8938S7.7778,9.5508,6.182,9.5508z M6.182,5.1742c-0.8176,0-1.4828,0.6645-1.4828,1.4821
			S5.3644,8.139,6.182,8.139s1.4821-0.6652,1.4821-1.4828S6.9995,5.1742,6.182,5.1742z"/>
	</g>
</g>
</svg>
