<svg xmlns="http://www.w3.org/2000/svg" viewBox="0 0 42 42"><title>header_user42_on</title><path d="M21,1A20,20,0,1,0,41,21,20,20,0,0,0,21,1Z" fill="#0072aa"/><path d="M31.1,30.8V29.3a8.52,8.52,0,0,0-.5-2.6,2.6,2.6,0,0,0-1.5-1.6,23.284,23.284,0,0,0-2.5-.7,8.306,8.306,0,0,1-2-.5,5.541,5.541,0,0,1-.9-.7c-.1-.2-.3-.3-.3-.5l-.4-.4.4-.3a5.229,5.229,0,0,0,1-1.1,4.8,4.8,0,0,0,.8-2.2l.1-.3.3-.1c.1,0,.1-.1.2-.2.1-.2.2-.5.3-.7a1.452,1.452,0,0,0-.1-1l-.1-.2.1-.4a6.14,6.14,0,0,0,.1-1.4,14.4,14.4,0,0,0-.3-1.7,3.569,3.569,0,0,0-1.5-2,5.146,5.146,0,0,0-3.3-1,5.825,5.825,0,0,0-3.3,1,3.443,3.443,0,0,0-1.5,2c0,.1-.2.9-.3,1.7a6.14,6.14,0,0,0,.1,1.4l.1.4-.1.1a1.452,1.452,0,0,0-.1,1,2.386,2.386,0,0,0,.3.7l.2.2.3.1.1.3a11.266,11.266,0,0,0,.8,2.2,5.229,5.229,0,0,0,1,1.1l.4.3-.2.4a2.357,2.357,0,0,1-1.2,1.2,8.306,8.306,0,0,1-2,.5A11.1,11.1,0,0,0,13,25a2.6,2.6,0,0,0-1.5,1.6,14.649,14.649,0,0,0-.5,2.6c0,.2-.1.3-.1.5v1.1a1.752,1.752,0,0,0,1.7,1.7H29.4a1.685,1.685,0,0,0,1.7-1.67Z" fill="#fff"/></svg>