<svg version="1.1" xmlns="http://www.w3.org/2000/svg" xmlns:xlink="http://www.w3.org/1999/xlink" x="0px" y="0px" viewBox="0 0 24 24" style="enable-background:new 0 0 24 24;" xml:space="preserve"><g><g><g><g><path d="M5.328,23.539c-1.476,0-2.677-1.201-2.677-2.677V3.139c0-1.476,1.201-2.677,2.677-2.677h11.268l4.701,4.701
					v15.699c0,1.476-1.201,2.677-2.677,2.677H5.328z" fill="#C23D63"/><path d="M16.405,0.923l4.431,4.431v15.508c0,1.224-0.992,2.215-2.215,2.215H5.328c-1.224,0-2.215-0.992-2.215-2.215
					V3.138c0-1.224,0.992-2.215,2.215-2.215H16.405 M16.787,0h-0.382H5.328C3.597,0,2.189,1.408,2.189,3.138v17.723
					C2.189,22.592,3.597,24,5.328,24H18.62c1.731,0,3.138-1.408,3.138-3.138V5.354V4.971l-0.27-0.27L17.057,0.27L16.787,0L16.787,0z
					" fill="#FFFFFF"/></g></g></g><g><rect x="6.456" y="7.286" width="11.036" height="1.429" fill="#FFFFFF"/><rect x="6.456" y="11.286" width="11.036" height="1.429" fill="#FFFFFF"/><rect x="6.456" y="15.286" width="11.036" height="1.429" fill="#FFFFFF"/></g></g></svg>