<?xml version="1.0" encoding="utf-8"?>
<!-- Generator: Adobe Illustrator 18.1.0, SVG Export Plug-In . SVG Version: 6.00 Build 0)  -->
<!DOCTYPE svg PUBLIC "-//W3C//DTD SVG 1.1//EN" "http://www.w3.org/Graphics/SVG/1.1/DTD/svg11.dtd">
<svg version="1.1" id="Layer_1" xmlns="http://www.w3.org/2000/svg" xmlns:xlink="http://www.w3.org/1999/xlink" x="0px" y="0px"
	 viewBox="0 0 18 18" enable-background="new 0 0 18 18" xml:space="preserve">
<symbol  id="Language" viewBox="-8 -9 18 17.976">
	<g>
		<path fill="#FFFFFF" d="M9.976-0.012C9.976-4.975,5.952-9,0.988-9C-3.976-9-8-4.975-8-0.012c0,4.964,4.024,8.988,8.988,8.988
			C5.952,8.976,9.976,4.952,9.976-0.012z"/>
	</g>
	<g>
		<g>
			<path fill="#565656" d="M1.012,7.976C5.417,7.976,9,4.393,9-0.012C9-4.417,5.417-8,1.012-8s-7.988,3.583-7.988,7.988
				C-6.976,4.393-3.392,7.976,1.012,7.976 M1.012,8.976c-4.964,0-8.988-4.024-8.988-8.988S-3.952-9,1.012-9S10-4.976,10-0.012
				S5.976,8.976,1.012,8.976L1.012,8.976z"/>
		</g>
	</g>
	<line fill="none" stroke="#565656" stroke-miterlimit="10" x1="0.99" y1="0.024" x2="9.581" y2="0.024"/>
	<line fill="none" stroke="#565656" stroke-miterlimit="10" x1="0.896" y1="4.339" x2="8.228" y2="4.339"/>
	<line fill="none" stroke="#565656" stroke-miterlimit="10" x1="0.943" y1="-4.362" x2="8.238" y2="-4.362"/>
	<path fill="#565656" d="M-0.115-2.323l-2.374,5.935C-2.58,3.838-2.798,3.985-3.04,3.985s-0.461-0.148-0.551-0.373l-2.374-5.935
		c-0.122-0.305,0.026-0.65,0.331-0.772c0.305-0.12,0.65,0.027,0.772,0.331L-4.3-1.356h2.52l0.563-1.408
		c0.093-0.232,0.316-0.373,0.551-0.373c0.073,0,0.148,0.014,0.22,0.043C-0.142-2.972,0.006-2.627-0.115-2.323z M-3.826-0.169
		l0.785,1.963l0.785-1.963H-3.826z"/>
	<line fill="none" stroke="#565656" stroke-miterlimit="10" x1="0.99" y1="8.733" x2="0.99" y2="-8.494"/>
	<path fill="#565656" d="M1.009,8.906V8.163c2.273-0.002,4.192-3.745,4.192-8.175c0-4.43-1.92-8.173-4.192-8.175V-8.93
		c2.726,0.001,4.936,3.994,4.936,8.918C5.944,4.913,3.734,8.905,1.009,8.906z"/>
</symbol>
<use xlink:href="#Language"  width="18" height="17.976" id="XMLID_66_" x="-8" y="-9" transform="matrix(1 0 0 -1 7.9999 8.9764)" overflow="visible"/>
</svg>
