<svg width="222" height="342" viewBox="0 0 222 342" fill="none" xmlns="http://www.w3.org/2000/svg">
<path d="M3 150H69V223H3V150Z" fill="#DCE4E8"/>
<path fill-rule="evenodd" clip-rule="evenodd" d="M0 150C0 148.343 1.34315 147 3 147H69C70.6569 147 72 148.343 72 150V223C72 224.657 70.6569 226 69 226H3C1.34315 226 0 224.657 0 223V150ZM3 150V223H69V150H3Z" fill="#627783"/>
<path d="M77 150H145V223H77V150Z" fill="#DCE4E8"/>
<path fill-rule="evenodd" clip-rule="evenodd" d="M74 150C74 148.343 75.3431 147 77 147H145C146.657 147 148 148.343 148 150V223C148 224.657 146.657 226 145 226H77C75.3431 226 74 224.657 74 223V150ZM77 150V223H145V150H77Z" fill="#627783"/>
<path d="M153 150H219V223H153V150Z" fill="#DCE4E8"/>
<path fill-rule="evenodd" clip-rule="evenodd" d="M150 150C150 148.343 151.343 147 153 147H219C220.657 147 222 148.343 222 150V223C222 224.657 220.657 226 219 226H153C151.343 226 150 224.657 150 223V150ZM153 150V223H219V150H153Z" fill="#627783"/>
<path d="M3 119H219V142H3V119Z" fill="#DCE4E8"/>
<path fill-rule="evenodd" clip-rule="evenodd" d="M0 119C0 117.343 1.34315 116 3 116H219C220.657 116 222 117.343 222 119V142C222 143.657 220.657 145 219 145H3C1.34315 145 0 143.657 0 142V119ZM3 119V142H219V119H3Z" fill="#627783"/>
<path d="M3 266H69V339H3V266Z" fill="#F9F9F9"/>
<path fill-rule="evenodd" clip-rule="evenodd" d="M0 266C0 264.343 1.34315 263 3 263H69C70.6569 263 72 264.343 72 266V339C72 340.657 70.6569 342 69 342H3C1.34315 342 0 340.657 0 339V266ZM3 266V339H69V266H3Z" fill="#757575"/>
<path d="M77 266H145V339H77V266Z" fill="#F9F9F9"/>
<path fill-rule="evenodd" clip-rule="evenodd" d="M74 266C74 264.343 75.3431 263 77 263H145C146.657 263 148 264.343 148 266V339C148 340.657 146.657 342 145 342H77C75.3431 342 74 340.657 74 339V266ZM77 266V339H145V266H77Z" fill="#757575"/>
<path d="M153 266H219V339H153V266Z" fill="#F9F9F9"/>
<path fill-rule="evenodd" clip-rule="evenodd" d="M150 266C150 264.343 151.343 263 153 263H219C220.657 263 222 264.343 222 266V339C222 340.657 220.657 342 219 342H153C151.343 342 150 340.657 150 339V266ZM153 266V339H219V266H153Z" fill="#757575"/>
<path d="M3 235H219V258H3V235Z" fill="#F9F9F9"/>
<path fill-rule="evenodd" clip-rule="evenodd" d="M0 235C0 233.343 1.34315 232 3 232H219C220.657 232 222 233.343 222 235V258C222 259.657 220.657 261 219 261H3C1.34315 261 0 259.657 0 258V235ZM3 235V258H219V235H3Z" fill="#757575"/>
<path fill-rule="evenodd" clip-rule="evenodd" d="M0 34C0 32.3431 1.34315 31 3 31H69C70.6569 31 72 32.3431 72 34V107C72 108.657 70.6569 110 69 110H3C1.34315 110 0 108.657 0 107V34ZM3 34V107H69V34H3Z" fill="#333333"/>
<path fill-rule="evenodd" clip-rule="evenodd" d="M74 34C74 32.3431 75.3431 31 77 31H145C146.657 31 148 32.3431 148 34V107C148 108.657 146.657 110 145 110H77C75.3431 110 74 108.657 74 107V34ZM77 34V107H145V34H77Z" fill="#333333"/>
<path fill-rule="evenodd" clip-rule="evenodd" d="M150 34C150 32.3431 151.343 31 153 31H219C220.657 31 222 32.3431 222 34V107C222 108.657 220.657 110 219 110H153C151.343 110 150 108.657 150 107V34ZM153 34V107H219V34H153Z" fill="#333333"/>
<path fill-rule="evenodd" clip-rule="evenodd" d="M0 3C0 1.34315 1.34315 0 3 0H219C220.657 0 222 1.34315 222 3V26C222 27.6569 220.657 29 219 29H3C1.34315 29 0 27.6569 0 26V3ZM3 3V26H219V3H3Z" fill="#333333"/>
</svg>
