<svg width="222" height="342" viewBox="0 0 222 342" fill="none" xmlns="http://www.w3.org/2000/svg">
<path fill-rule="evenodd" clip-rule="evenodd" d="M0 3C0 1.34315 1.34315 0 3 0H107C108.657 0 110 1.34315 110 3V51C110 52.6569 108.657 54 107 54H3C1.34315 54 0 52.6569 0 51V3ZM3 3V51H107V3H3Z" fill="#333333"/>
<path fill-rule="evenodd" clip-rule="evenodd" d="M0 59C0 57.3431 1.34315 56 3 56H51C52.6569 56 54 57.3431 54 59V107C54 108.657 52.6569 110 51 110H3C1.34315 110 0 108.657 0 107V59ZM3 59V107H51V59H3Z" fill="#333333"/>
<path fill-rule="evenodd" clip-rule="evenodd" d="M56 59C56 57.3431 57.3431 56 59 56H107C108.657 56 110 57.3431 110 59V107C110 108.657 108.657 110 107 110H59C57.3431 110 56 108.657 56 107V59ZM59 59V107H107V59H59Z" fill="#333333"/>
<path fill-rule="evenodd" clip-rule="evenodd" d="M112 59C112 57.3431 113.343 56 115 56H163C164.657 56 166 57.3431 166 59V107C166 108.657 164.657 110 163 110H115C113.343 110 112 108.657 112 107V59ZM115 59V107H163V59H115Z" fill="#333333"/>
<path fill-rule="evenodd" clip-rule="evenodd" d="M168 59C168 57.3431 169.343 56 171 56H219C220.657 56 222 57.3431 222 59V107C222 108.657 220.657 110 219 110H171C169.343 110 168 108.657 168 107V59ZM171 59V107H219V59H171Z" fill="#333333"/>
<path fill-rule="evenodd" clip-rule="evenodd" d="M112 3C112 1.34315 113.343 0 115 0H163C164.657 0 166 1.34315 166 3V51C166 52.6569 164.657 54 163 54H115C113.343 54 112 52.6569 112 51V3ZM115 3V51H163V3H115Z" fill="#333333"/>
<path fill-rule="evenodd" clip-rule="evenodd" d="M168 3C168 1.34315 169.343 0 171 0H219C220.657 0 222 1.34315 222 3V51C222 52.6569 220.657 54 219 54H171C169.343 54 168 52.6569 168 51V3ZM171 3V51H219V3H171Z" fill="#333333"/>
<path d="M3 119H107V167H3V119Z" fill="#DCE4E8"/>
<path fill-rule="evenodd" clip-rule="evenodd" d="M0 119C0 117.343 1.34315 116 3 116H107C108.657 116 110 117.343 110 119V167C110 168.657 108.657 170 107 170H3C1.34315 170 0 168.657 0 167V119ZM3 119V167H107V119H3Z" fill="#627783"/>
<path d="M3 175H51V223H3V175Z" fill="#DCE4E8"/>
<path fill-rule="evenodd" clip-rule="evenodd" d="M0 175C0 173.343 1.34315 172 3 172H51C52.6569 172 54 173.343 54 175V223C54 224.657 52.6569 226 51 226H3C1.34315 226 0 224.657 0 223V175ZM3 175V223H51V175H3Z" fill="#627783"/>
<path d="M59 175H107V223H59V175Z" fill="#DCE4E8"/>
<path fill-rule="evenodd" clip-rule="evenodd" d="M56 175C56 173.343 57.3431 172 59 172H107C108.657 172 110 173.343 110 175V223C110 224.657 108.657 226 107 226H59C57.3431 226 56 224.657 56 223V175ZM59 175V223H107V175H59Z" fill="#627783"/>
<path d="M115 175H163V223H115V175Z" fill="#DCE4E8"/>
<path fill-rule="evenodd" clip-rule="evenodd" d="M112 175C112 173.343 113.343 172 115 172H163C164.657 172 166 173.343 166 175V223C166 224.657 164.657 226 163 226H115C113.343 226 112 224.657 112 223V175ZM115 175V223H163V175H115Z" fill="#627783"/>
<path d="M171 175H219V223H171V175Z" fill="#DCE4E8"/>
<path fill-rule="evenodd" clip-rule="evenodd" d="M168 175C168 173.343 169.343 172 171 172H219C220.657 172 222 173.343 222 175V223C222 224.657 220.657 226 219 226H171C169.343 226 168 224.657 168 223V175ZM171 175V223H219V175H171Z" fill="#627783"/>
<path d="M115 119H163V167H115V119Z" fill="#DCE4E8"/>
<path fill-rule="evenodd" clip-rule="evenodd" d="M112 119C112 117.343 113.343 116 115 116H163C164.657 116 166 117.343 166 119V167C166 168.657 164.657 170 163 170H115C113.343 170 112 168.657 112 167V119ZM115 119V167H163V119H115Z" fill="#627783"/>
<path d="M171 119H219V167H171V119Z" fill="#DCE4E8"/>
<path fill-rule="evenodd" clip-rule="evenodd" d="M168 119C168 117.343 169.343 116 171 116H219C220.657 116 222 117.343 222 119V167C222 168.657 220.657 170 219 170H171C169.343 170 168 168.657 168 167V119ZM171 119V167H219V119H171Z" fill="#627783"/>
<path d="M3 235H107V283H3V235Z" fill="#F9F9F9"/>
<path fill-rule="evenodd" clip-rule="evenodd" d="M0 235C0 233.343 1.34315 232 3 232H107C108.657 232 110 233.343 110 235V283C110 284.657 108.657 286 107 286H3C1.34315 286 0 284.657 0 283V235ZM3 235V283H107V235H3Z" fill="#757575"/>
<path d="M3 291H51V339H3V291Z" fill="#F9F9F9"/>
<path fill-rule="evenodd" clip-rule="evenodd" d="M0 291C0 289.343 1.34315 288 3 288H51C52.6569 288 54 289.343 54 291V339C54 340.657 52.6569 342 51 342H3C1.34315 342 0 340.657 0 339V291ZM3 291V339H51V291H3Z" fill="#757575"/>
<path d="M59 291H107V339H59V291Z" fill="#F9F9F9"/>
<path fill-rule="evenodd" clip-rule="evenodd" d="M56 291C56 289.343 57.3431 288 59 288H107C108.657 288 110 289.343 110 291V339C110 340.657 108.657 342 107 342H59C57.3431 342 56 340.657 56 339V291ZM59 291V339H107V291H59Z" fill="#757575"/>
<path d="M115 291H163V339H115V291Z" fill="#F9F9F9"/>
<path fill-rule="evenodd" clip-rule="evenodd" d="M112 291C112 289.343 113.343 288 115 288H163C164.657 288 166 289.343 166 291V339C166 340.657 164.657 342 163 342H115C113.343 342 112 340.657 112 339V291ZM115 291V339H163V291H115Z" fill="#757575"/>
<path d="M171 291H219V339H171V291Z" fill="#F9F9F9"/>
<path fill-rule="evenodd" clip-rule="evenodd" d="M168 291C168 289.343 169.343 288 171 288H219C220.657 288 222 289.343 222 291V339C222 340.657 220.657 342 219 342H171C169.343 342 168 340.657 168 339V291ZM171 291V339H219V291H171Z" fill="#757575"/>
<path d="M115 235H163V283H115V235Z" fill="#F9F9F9"/>
<path fill-rule="evenodd" clip-rule="evenodd" d="M112 235C112 233.343 113.343 232 115 232H163C164.657 232 166 233.343 166 235V283C166 284.657 164.657 286 163 286H115C113.343 286 112 284.657 112 283V235ZM115 235V283H163V235H115Z" fill="#757575"/>
<path d="M171 235H219V283H171V235Z" fill="#F9F9F9"/>
<path fill-rule="evenodd" clip-rule="evenodd" d="M168 235C168 233.343 169.343 232 171 232H219C220.657 232 222 233.343 222 235V283C222 284.657 220.657 286 219 286H171C169.343 286 168 284.657 168 283V235ZM171 235V283H219V235H171Z" fill="#757575"/>
</svg>
