<svg version="1.1" xmlns="http://www.w3.org/2000/svg" xmlns:xlink="http://www.w3.org/1999/xlink" x="0px" y="0px" viewBox="0 0 42 42" style="enable-background:new 0 0 42 42;" xml:space="preserve"><title>Asset 3</title><g><g><path d="M21,2c10.5,0,19,8.5,19,19s-8.5,19-19,19S2,31.5,2,21S10.5,2,21,2 M21,0C9.4,0,0,9.4,0,21s9.4,21,21,21
			s21-9.4,21-21S32.6,0,21,0z" fill="#7B9AB0"/></g></g><path d="M31.1,30.8v-1.1c0-0.1,0-0.2,0-0.3l0-0.1c-0.1-1-0.1-1.5-0.5-2.6c-0.2-0.7-0.7-1.2-1.5-1.6
	c-0.8-0.3-1.7-0.5-2.5-0.7c-0.8-0.1-1.5-0.3-2-0.5c-0.3-0.2-0.6-0.4-0.9-0.7c-0.1-0.2-0.3-0.3-0.3-0.5L23,22.3l0.4-0.3
	c0.4-0.3,0.7-0.7,1-1.1c0.4-0.6,0.7-1.3,0.8-2.2l0.1-0.3l0.3-0.1c0.1,0,0.1-0.1,0.2-0.2c0.1-0.2,0.2-0.5,0.3-0.7
	c0.1-0.5,0-0.8-0.1-1l-0.1-0.2l0.1-0.4c0.1-0.4,0.1-0.9,0.1-1.4c-0.1-0.9-0.3-1.7-0.3-1.7c-0.2-0.7-0.7-1.5-1.5-2
	c-0.6-0.5-1.7-1-3.3-1c-1.6,0-2.7,0.6-3.3,1c-0.8,0.6-1.4,1.3-1.5,2c0,0.1-0.2,0.9-0.3,1.7c0,0.5,0,1,0.1,1.4l0.1,0.4L16,16.3
	c-0.1,0.2-0.2,0.5-0.1,1c0.1,0.3,0.2,0.6,0.3,0.7c0.1,0.1,0.2,0.2,0.2,0.2l0.3,0.1l0.1,0.3c0.2,0.8,0.5,1.6,0.8,2.2
	c0.3,0.4,0.6,0.8,1,1.1l0.4,0.3l-0.2,0.4c-0.1,0.2-0.2,0.4-0.3,0.5c-0.2,0.3-0.5,0.5-0.9,0.7c-0.5,0.2-1.2,0.4-2,0.5
	c-0.9,0.2-1.8,0.3-2.6,0.7c-0.8,0.4-1.3,0.9-1.5,1.6c-0.3,1.1-0.4,1.7-0.5,2.6c0,0.2-0.1,0.3-0.1,0.5v1.1c0,0.9,0.8,1.7,1.7,1.7
	h16.8C30.3,32.5,31.1,31.8,31.1,30.8z" fill="#FFFFFF"/></svg>