<svg id="Layer_1" data-name="Layer 1" xmlns="http://www.w3.org/2000/svg" viewBox="0 0 16 16"><title>Artboard 1list_view_show16_md</title><path d="M2,15.5A1.5,1.5,0,0,1,.5,14V2A1.5,1.5,0,0,1,2,.5H14A1.5,1.5,0,0,1,15.5,2V14A1.5,1.5,0,0,1,14,15.5Z" style="fill:#fff"/><rect x="1" y="0.5" width="5" height="15" style="fill:#666"/><rect x="1" y="1" width="4" height="14" style="fill:#a9a9a9"/><path d="M14,1a1,1,0,0,1,1,1V14a1,1,0,0,1-1,1H2a1,1,0,0,1-1-1V2A1,1,0,0,1,2,1H14M2,0A2,2,0,0,0,0,2V14a2,2,0,0,0,2,2H14a2,2,0,0,0,2-2V2a2,2,0,0,0-2-2Z" style="fill:#666"/></svg>