<?xml version="1.0" encoding="utf-8"?>
<!-- Generator: Adobe Illustrator 18.1.0, SVG Export Plug-In . SVG Version: 6.00 Build 0)  -->
<!DOCTYPE svg PUBLIC "-//W3C//DTD SVG 1.1//EN" "http://www.w3.org/Graphics/SVG/1.1/DTD/svg11.dtd">
<svg version="1.1" id="Layer_1" xmlns="http://www.w3.org/2000/svg" xmlns:xlink="http://www.w3.org/1999/xlink" x="0px" y="0px"
	 viewBox="0 0 18 18" enable-background="new 0 0 18 18" xml:space="preserve">
<path fill="#333333" d="M17.354,16.646l-4.392-4.392c0.979-1.141,1.575-2.619,1.575-4.237c0-3.594-2.924-6.518-6.519-6.518
	C4.424,1.5,1.5,4.424,1.5,8.018s2.924,6.518,6.518,6.518c1.618,0,3.096-0.596,4.237-1.574l4.392,4.392
	C16.744,17.451,16.872,17.5,17,17.5s0.256-0.049,0.354-0.146C17.549,17.158,17.549,16.842,17.354,16.646z M8.018,13.536
	c-3.042,0-5.518-2.476-5.518-5.518S4.976,2.5,8.018,2.5c3.043,0,5.519,2.476,5.519,5.518S11.061,13.536,8.018,13.536z"/>
</svg>
