<?xml version="1.0" encoding="utf-8"?>
<!-- Generator: Adobe Illustrator 18.1.0, SVG Export Plug-In . SVG Version: 6.00 Build 0)  -->
<!DOCTYPE svg PUBLIC "-//W3C//DTD SVG 1.1//EN" "http://www.w3.org/Graphics/SVG/1.1/DTD/svg11.dtd">
<svg version="1.1" id="Layer_1" xmlns="http://www.w3.org/2000/svg" xmlns:xlink="http://www.w3.org/1999/xlink" x="0px" y="0px"
	 viewBox="0 0 18 18" enable-background="new 0 0 18 18" xml:space="preserve">
<g>
	<path fill="#333333" d="M16.87,8.09L9.203,2.192c-0.12-0.092-0.286-0.092-0.405,0L1.13,8.09C0.879,8.283,1.016,8.686,1.333,8.686
		h1.35c0.184,0,0.332,0.149,0.332,0.332v6.65C3.015,15.851,3.164,16,3.348,16h3.304c0.184,0,0.332-0.149,0.332-0.332v-4.855
		c0-0.813,0.659-1.472,1.472-1.472h1.066c0.813,0,1.472,0.659,1.472,1.472v4.855c0,0.184,0.149,0.332,0.332,0.332h3.304
		c0.184,0,0.332-0.149,0.332-0.332v-6.65c0-0.184,0.149-0.332,0.332-0.332h1.37C16.984,8.686,17.121,8.283,16.87,8.09z"/>
</g>
</svg>
