<?xml version="1.0" encoding="utf-8"?>
<!-- Generator: Adobe Illustrator 19.1.0, SVG Export Plug-In . SVG Version: 6.00 Build 0)  -->
<svg version="1.1" id="Layer_1" xmlns="http://www.w3.org/2000/svg" xmlns:xlink="http://www.w3.org/1999/xlink" x="0px" y="0px"
	 viewBox="0 0 24 24" enable-background="new 0 0 24 24" xml:space="preserve">
<g>
	<g>
		<path fill="#FFFFFF" d="M24,12c0,6.627-5.373,12-12,12S0,18.627,0,12S5.373,0,12,0S24,5.373,24,12"/>
		<path fill="#333333" d="M13,7c0,0.552-0.448,1-1,1s-1-0.448-1-1s0.448-1,1-1S13,6.448,13,7"/>
		<path fill="#333333" d="M13,10v7c0,0.552-0.448,1-1,1s-1-0.448-1-1v-7c0-0.552,0.448-1,1-1S13,9.448,13,10"/>
		<path fill="#333333" d="M12,2c5.514,0,10,4.486,10,10s-4.486,10-10,10S2,17.514,2,12S6.486,2,12,2 M12,1C5.925,1,1,5.925,1,12
			s4.925,11,11,11s11-4.925,11-11S18.075,1,12,1"/>
	</g>
</g>
</svg>
