<svg data-name="Layer 2" xmlns="http://www.w3.org/2000/svg" viewBox="0 0 32 32"><title>mime</title><path d="M6.959,0.514H24.966a3.5,3.5,0,0,1,3.5,3.5V28.017a3.5,3.5,0,0,1-3.5,3.5H6.96a3.5,3.5,0,0,1-3.5-3.5V4.01a3.5,3.5,0,0,1,3.5-3.5Z" fill="#c7cbd0"/><path d="M24.966,1.014a3,3,0,0,1,3,3V28.017a3,3,0,0,1-3,3H6.959a3,3,0,0,1-3-3V4.011a3,3,0,0,1,3-3H24.966m0-1H6.959a4.009,4.009,0,0,0-4,4V28.017a4.009,4.009,0,0,0,4,4H24.966a4.009,4.009,0,0,0,4-4V4.011a4.009,4.009,0,0,0-4-4h0Z" fill="#fff"/><path d="M22.083,9.026H9.946a2,2,0,0,1,0-4H22.083A2,2,0,0,1,22.083,9.026Z" fill="#627784"/><path d="M14.024,29.028H10.01a2,2,0,0,1,0-4h4.014A2,2,0,0,1,14.024,29.028Z" fill="#a8b1b9"/><path d="M14.024,28.027H10.01a2,2,0,0,1,0-4h4.014A2,2,0,0,1,14.024,28.027Z" fill="#d24625"/><path d="M11.017,14.051H9.009a1,1,0,0,1,0-2h2.008A1,1,0,0,1,11.017,14.051Z" fill="#a8b1b9"/><path d="M11.017,13.092H9.009a1,1,0,0,1,0-2h2.008A1,1,0,0,1,11.017,13.092Z" fill="#fff"/><path d="M17.038,14.051H15.03a1,1,0,0,1,0-2h2.008A1,1,0,0,1,17.038,14.051Z" fill="#a8b1b9"/><path d="M17.038,13.092H15.03a1,1,0,0,1,0-2h2.008A1,1,0,0,1,17.038,13.092Z" fill="#fff"/><path d="M23.017,14.051H21.009a1,1,0,0,1,0-2h2.008A1,1,0,0,1,23.017,14.051Z" fill="#a8b1b9"/><path d="M23.017,13.092H21.009a1,1,0,0,1,0-2h2.008A1,1,0,0,1,23.017,13.092Z" fill="#fff"/><path d="M11.017,18.051H9.009a1,1,0,0,1,0-2h2.008A1,1,0,0,1,11.017,18.051Z" fill="#a8b1b9"/><path d="M11.017,17.092H9.009a1,1,0,0,1,0-2h2.008A1,1,0,0,1,11.017,17.092Z" fill="#fff"/><path d="M17.038,18.051H15.03a1,1,0,0,1,0-2h2.008A1,1,0,0,1,17.038,18.051Z" fill="#a8b1b9"/><path d="M17.038,17.092H15.03a1,1,0,0,1,0-2h2.008A1,1,0,0,1,17.038,17.092Z" fill="#fff"/><path d="M23.017,18.051H21.009a1,1,0,0,1,0-2h2.008A1,1,0,0,1,23.017,18.051Z" fill="#a8b1b9"/><path d="M23.017,17.092H21.009a1,1,0,0,1,0-2h2.008A1,1,0,0,1,23.017,17.092Z" fill="#fff"/><path d="M11.017,22.051H9.009a1,1,0,0,1,0-2h2.008A1,1,0,0,1,11.017,22.051Z" fill="#a8b1b9"/><path d="M11.017,21.092H9.009a1,1,0,0,1,0-2h2.008A1,1,0,0,1,11.017,21.092Z" fill="#fff"/><path d="M17.038,22.051H15.03a1,1,0,0,1,0-2h2.008A1,1,0,0,1,17.038,22.051Z" fill="#a8b1b9"/><path d="M17.038,21.092H15.03a1,1,0,0,1,0-2h2.008A1,1,0,0,1,17.038,21.092Z" fill="#fff"/><path d="M23.017,22.051H21.009a1,1,0,0,1,0-2h2.008A1,1,0,0,1,23.017,22.051Z" fill="#a8b1b9"/><path d="M23.017,21.092H21.009a1,1,0,0,1,0-2h2.008A1,1,0,0,1,23.017,21.092Z" fill="#fff"/></svg>