<svg data-name="Layer 2" xmlns="http://www.w3.org/2000/svg" viewBox="0 0 32 32"><title>mime</title><path d="M7,31.5A3.5,3.5,0,0,1,3.5,28V4A3.5,3.5,0,0,1,7,.5H22.207L28.5,6.793V28A3.5,3.5,0,0,1,25,31.5H7Z" fill="#c57c15"/><path d="M25,32H7a4,4,0,0,1-4-4V4A4,4,0,0,1,7,0H22.414L29,6.586V28A4,4,0,0,1,25,32ZM7,1A3,3,0,0,0,4,4V28a3,3,0,0,0,3,3H25a3,3,0,0,0,3-3V7L22,1H7Z" fill="#fff"/><path d="M22,1l6,6V28a3,3,0,0,1-3,3H7a3,3,0,0,1-3-3V4A3,3,0,0,1,7,1H22m0.414-1H7A4,4,0,0,0,3,4V28a4,4,0,0,0,4,4H25a4,4,0,0,0,4-4V6.586l-0.293-.293-6-6L22.414,0h0Z" fill="#fff"/><polygon points="22 1 22 7 28 7 22 1" fill="#b26602"/><path d="M24.623,18.988a2.524,2.524,0,0,0-3.569-3.569l-0.9.9,3.569,3.569Z" fill="#b26602"/><polygon points="13.91 22.562 13.018 27.024 17.48 26.132 22.834 20.777 19.265 17.208 13.91 22.562" fill="#b26602"/><path d="M19.623,13.988a2.524,2.524,0,0,0-3.569-3.569l-0.9.9,3.569,3.569Z" fill="#b26602"/><polygon points="8.91 17.562 8.018 22.024 12.48 21.132 17.834 15.777 14.265 12.208 8.91 17.562" fill="#b26602"/><path d="M24.623,17.988a2.524,2.524,0,0,0-3.569-3.569l-0.9.9,3.569,3.569Z" fill="#fff"/><polygon points="13.91 21.562 13.018 26.024 17.48 25.132 22.834 19.777 19.265 16.208 13.91 21.562" fill="#fff"/><path d="M19.623,12.988a2.524,2.524,0,0,0-3.569-3.569l-0.9.9,3.569,3.569Z" fill="#fff"/><polygon points="8.91 16.562 8.018 21.024 12.48 20.132 17.834 14.777 14.265 11.208 8.91 16.562" fill="#fff"/><path d="M11.5,26.019H4.007v1H11.5A0.5,0.5,0,1,0,11.5,26.019Z" fill="#b26602"/><path d="M4.007,22.009H6.819a0.5,0.5,0,1,0,0-1H4.007v1Z" fill="#b26602"/><path d="M11.5,26.019a0.5,0.5,0,1,0,0-1H3.415v1H11.5Z" fill="#fff"/><path d="M6.819,21.009a0.5,0.5,0,1,0,0-1H3.627v1H6.819Z" fill="#fff"/></svg>