<?xml version="1.0" encoding="utf-8"?>
<!-- Generator: Adobe Illustrator 19.2.0, SVG Export Plug-In . SVG Version: 6.00 Build 0)  -->
<!DOCTYPE svg PUBLIC "-//W3C//DTD SVG 1.1//EN" "http://www.w3.org/Graphics/SVG/1.1/DTD/svg11.dtd">
<svg version="1.1" id="Layer_1" xmlns="http://www.w3.org/2000/svg" xmlns:xlink="http://www.w3.org/1999/xlink" x="0px" y="0px"
	 viewBox="0 0 32 32" enable-background="new 0 0 32 32" xml:space="preserve">
<g id="Ppt">
</g>
<g id="Small_Folder">
</g>
<g id="fave_icon_-_selected">
</g>
<g id="Shortcut_1_">
</g>
<g id="comment_icon_-_selected">
</g>
<g id="Comment_icon">
</g>
<g>
	<g>
		<g>
			<path fill="#C57C15" d="M7,31.5c-1.93,0-3.5-1.57-3.5-3.5V4c0-1.93,1.57-3.5,3.5-3.5h15.207L28.5,6.793V28
				c0,1.93-1.57,3.5-3.5,3.5H7z"/>
			<path fill="#FFFFFF" d="M22,1l6,6v21c0,1.657-1.343,3-3,3H7c-1.657,0-3-1.343-3-3V4c0-1.657,1.343-3,3-3H22 M22.414,0H22H7
				C4.794,0,3,1.794,3,4v24c0,2.206,1.794,4,4,4h18c2.206,0,4-1.794,4-4V7V6.586l-0.293-0.293l-6-6L22.414,0L22.414,0z"/>
		</g>
	</g>
	<polygon fill-rule="evenodd" clip-rule="evenodd" fill="#B26602" points="22,1 22,7 28,7 	"/>
</g>
<path fill="#B26602" d="M22,10H10c-1.105,0-2,0.895-2,2v9c0,1.105,0.895,2,2,2h12c1.105,0,2-0.895,2-2v-9C24,10.895,23.105,10,22,10
	z M12,16H9v-2h3V16z M12,17v2H9v-2H12z M10,22c-0.551,0-1-0.449-1-1v-1h3v2H10z M23,21c0,0.551-0.449,1-1,1h-9v-2h10V21z M23,19H13
	v-2h10V19z M23,16H13v-2h10V16z M9,13v-1c0-0.551,0.449-1,1-1h12c0.551,0,1,0.449,1,1v1H9z"/>
<path fill="#FFFFFF" d="M22,9H10c-1.105,0-2,0.895-2,2v9c0,1.105,0.895,2,2,2h12c1.105,0,2-0.895,2-2v-9C24,9.895,23.105,9,22,9z
	 M12,15H9v-2h3V15z M12,16v2H9v-2H12z M10,21c-0.551,0-1-0.449-1-1v-1h3v2H10z M23,20c0,0.551-0.449,1-1,1h-9v-2h10V20z M23,18H13
	v-2h10V18z M23,15H13v-2h10V15z M9,12v-1c0-0.551,0.449-1,1-1h12c0.551,0,1,0.449,1,1v1H9z"/>
</svg>
