<?xml version="1.0" encoding="utf-8"?>
<!-- Generator: Adobe Illustrator 18.1.0, SVG Export Plug-In . SVG Version: 6.00 Build 0)  -->
<!DOCTYPE svg PUBLIC "-//W3C//DTD SVG 1.1//EN" "http://www.w3.org/Graphics/SVG/1.1/DTD/svg11.dtd">
<svg version="1.1" id="Layer_1" xmlns="http://www.w3.org/2000/svg" xmlns:xlink="http://www.w3.org/1999/xlink" x="0px" y="0px"
	 viewBox="0 0 32 32" enable-background="new 0 0 32 32" xml:space="preserve">
<g id="Ppt">
</g>
<g id="Small_Folder">
</g>
<g id="fave_icon_-_selected">
</g>
<g>
	<path fill="#007F64" d="M16,20L16,20c-1.65,0-3-1.35-3-3v-7c0-1.65,1.35-3,3-3h0c1.65,0,3,1.35,3,3v7C19,18.65,17.65,20,16,20z"/>
	<g>
		<g>
			<path fill="#00A389" d="M7,31.5c-1.93,0-3.5-1.57-3.5-3.5V4c0-1.93,1.57-3.5,3.5-3.5h15.207L28.5,6.793V28
				c0,1.93-1.57,3.5-3.5,3.5H7z"/>
			<g>
				<path fill="#FFFFFF" d="M22,1l6,6v21c0,1.657-1.343,3-3,3H7c-1.657,0-3-1.343-3-3V4c0-1.657,1.343-3,3-3H22 M22.414,0H22H7
					C4.794,0,3,1.794,3,4v24c0,2.206,1.794,4,4,4h18c2.206,0,4-1.794,4-4V7V6.586l-0.293-0.293l-6-6L22.414,0L22.414,0z"/>
			</g>
		</g>
	</g>
	<g>
		<path fill="#00795A" d="M21,17v-3.75c0-0.276-0.224-0.5-0.5-0.5s-0.5,0.224-0.5,0.5V17c0,2.206-1.794,4-4,4s-4-1.794-4-4v-3.75
			c0-0.276-0.224-0.5-0.5-0.5s-0.5,0.224-0.5,0.5V17c0,2.421,1.731,4.444,4.02,4.901C15.016,21.935,15,21.965,15,22v3h-2
			c-0.552,0-1,0.447-1,1s0.448,1,1,1h6c0.552,0,1-0.447,1-1s-0.448-1-1-1h-2v-3c0-0.035-0.016-0.065-0.02-0.099
			C19.269,21.444,21,19.421,21,17z"/>
		<path fill="#00795A" d="M16,20L16,20c-1.65,0-3-1.35-3-3v-7c0-1.65,1.35-3,3-3h0c1.65,0,3,1.35,3,3v7C19,18.65,17.65,20,16,20z"/>
	</g>
	<path fill="#FFFFFF" d="M21,16v-3.75c0-0.276-0.224-0.5-0.5-0.5s-0.5,0.224-0.5,0.5V16c0,2.206-1.794,4-4,4s-4-1.794-4-4v-3.75
		c0-0.276-0.224-0.5-0.5-0.5s-0.5,0.224-0.5,0.5V16c0,2.421,1.731,4.444,4.02,4.901C15.016,20.935,15,20.965,15,21v3h-2
		c-0.552,0-1,0.447-1,1s0.448,1,1,1h6c0.552,0,1-0.447,1-1s-0.448-1-1-1h-2v-3c0-0.035-0.016-0.065-0.02-0.099
		C19.269,20.444,21,18.421,21,16z"/>
	<path fill="#FFFFFF" d="M16,19L16,19c-1.65,0-3-1.35-3-3V9c0-1.65,1.35-3,3-3h0c1.65,0,3,1.35,3,3v7C19,17.65,17.65,19,16,19z"/>
	<polygon fill-rule="evenodd" clip-rule="evenodd" fill="#00795A" points="22,1 22,7 28,7 	"/>
</g>
</svg>
