<svg data-name="Layer 2" xmlns="http://www.w3.org/2000/svg" viewBox="0 0 32 32"><title>mime</title><path d="M5.352,0.509A4.849,4.849,0,0,0,.508,5.353V26.648a4.849,4.849,0,0,0,4.844,4.844h21.3a4.849,4.849,0,0,0,4.844-4.844V5.352A4.849,4.849,0,0,0,26.648.508H5.352Z" fill="#4d575b"/><path d="M26.648,32H5.352A5.358,5.358,0,0,1,0,26.648V5.353A5.358,5.358,0,0,1,5.352,0h21.3A5.358,5.358,0,0,1,32,5.352v21.3A5.358,5.358,0,0,1,26.648,32ZM5.352,1.017h0A4.341,4.341,0,0,0,1.017,5.353V26.648a4.341,4.341,0,0,0,4.336,4.336h21.3a4.341,4.341,0,0,0,4.336-4.336V5.352a4.341,4.341,0,0,0-4.336-4.336H5.352Z" fill="#fff"/><path d="M18.521,24.03H10.355a1.341,1.341,0,0,1-1.34-1.34V9.37a1.341,1.341,0,0,1,1.34-1.34H18.5v1H10.355a0.344,0.344,0,0,0-.34.34V22.69a0.344,0.344,0,0,0,.34.34h8.166v1Z" fill="#fff"/><rect x="18.512" y="5.507" width="6" height="6" rx="0.774" ry="0.774" fill="#627784"/><path d="M23.739,12.007H19.286a1.275,1.275,0,0,1-1.274-1.274V6.281a1.275,1.275,0,0,1,1.274-1.274h4.452a1.275,1.275,0,0,1,1.273,1.274v4.451A1.275,1.275,0,0,1,23.739,12.007Zm-4.452-6a0.279,0.279,0,0,0-.274.274v4.451a0.279,0.279,0,0,0,.274.274h4.452a0.278,0.278,0,0,0,.273-0.274V6.281a0.278,0.278,0,0,0-.273-0.274H19.286Z" fill="#fff"/><rect x="18.525" y="20.535" width="6" height="6" rx="0.774" ry="0.774" fill="#627784"/><path d="M23.752,27.035H19.3a1.275,1.275,0,0,1-1.274-1.273V21.309A1.275,1.275,0,0,1,19.3,20.035h4.452a1.275,1.275,0,0,1,1.273,1.274v4.452A1.275,1.275,0,0,1,23.752,27.035Zm-4.452-6a0.279,0.279,0,0,0-.274.274v4.452a0.278,0.278,0,0,0,.274.273h4.452a0.274,0.274,0,0,0,.273-0.273V21.309a0.278,0.278,0,0,0-.273-0.274H19.3Z" fill="#fff"/><rect x="5.681" y="12.17" width="7.66" height="7.66" rx="0.988" ry="0.988" transform="translate(14.099 -2.039) rotate(45)" fill="#9370b1"/><path d="M9.511,21.5a1.479,1.479,0,0,1-1.048-.433L4.443,17.047a1.486,1.486,0,0,1,0-2.1l4.019-4.018a1.486,1.486,0,0,1,2.1,0l4.019,4.018a1.486,1.486,0,0,1,0,2.1l-4.019,4.019A1.479,1.479,0,0,1,9.511,21.5Zm0-10.011a0.489,0.489,0,0,0-.349.143L5.142,15.65a0.5,0.5,0,0,0,0,.7l4.019,4.019a0.509,0.509,0,0,0,.7,0l4.019-4.019a0.5,0.5,0,0,0,0-.7L9.86,11.632A0.489,0.489,0,0,0,9.511,11.489Z" fill="#fff"/></svg>