<svg data-name="Layer 2" xmlns="http://www.w3.org/2000/svg" viewBox="0 0 32 32"><title>mime</title><rect x="0.5" y="4.5" width="31" height="23" rx="3.5" ry="3.5" fill="#0072aa"/><path d="M28,5a3,3,0,0,1,3,3V24a3,3,0,0,1-3,3H4a3,3,0,0,1-3-3V8A3,3,0,0,1,4,5H28m0-1H4A4.012,4.012,0,0,0,0,8V24a4.012,4.012,0,0,0,4,4H28a4.012,4.012,0,0,0,4-4V8a4.012,4.012,0,0,0-4-4h0Z" fill="#fff"/><path d="M9.026,14.958a1,1,0,0,1-1-1V10.669A1.694,1.694,0,0,1,9.719,8.978h3.269a1,1,0,1,1,0,2H10.026v2.98A1,1,0,0,1,9.026,14.958Z" fill="#004b71"/><path d="M23.015,14.958a1,1,0,0,1-1-1v-2.98H19.009a1,1,0,1,1,0-2h3.315a1.693,1.693,0,0,1,1.691,1.691v3.289A1,1,0,0,1,23.015,14.958Z" fill="#004b71"/><path d="M13.009,24.959H9.719a1.694,1.694,0,0,1-1.692-1.691v-3.31a1,1,0,0,1,2,0v3h2.983A1,1,0,0,1,13.009,24.959Z" fill="#004b71"/><path d="M22.324,24.98H19.017a1,1,0,0,1,0-2h3v-3a1,1,0,0,1,2,0v3.31A1.693,1.693,0,0,1,22.324,24.98Z" fill="#004b71"/><rect x="12.026" y="13.021" width="7.962" height="8.004" rx="0.691" ry="0.691" fill="#004b71"/><rect x="12.026" y="12.021" width="7.962" height="8.004" rx="0.691" ry="0.691" fill="#fff"/><path d="M9.026,14a1,1,0,0,1-1-1V9.711A1.694,1.694,0,0,1,9.719,8.02h3.269a1,1,0,0,1,0,2H10.026V13A1,1,0,0,1,9.026,14Z" fill="#9dbad7"/><path d="M23.015,14a1,1,0,0,1-1-1V10.02H19.009a1,1,0,0,1,0-2h3.315a1.693,1.693,0,0,1,1.691,1.691V13A1,1,0,0,1,23.015,14Z" fill="#9dbad7"/><path d="M13.009,24H9.719A1.694,1.694,0,0,1,8.026,22.31V19a1,1,0,0,1,2,0v3h2.983A1,1,0,1,1,13.009,24Z" fill="#9dbad7"/><path d="M22.324,24.022H19.017a1,1,0,0,1,0-2h3v-3a1,1,0,0,1,2,0v3.31A1.693,1.693,0,0,1,22.324,24.022Z" fill="#9dbad7"/></svg>