<svg version="1.1" xmlns="http://www.w3.org/2000/svg" xmlns:xlink="http://www.w3.org/1999/xlink" x="0px" y="0px" viewBox="0 0 32 32" style="enable-background:new 0 0 32 32;" xml:space="preserve"><symbol viewBox="-7.5 -7.5 15 15"><g><g><circle cx="0" cy="0" r="7" opacity="0.9" fill="#3C5666" enable-background="new"/><path d="M0,6.5c3.6,0,6.5-2.9,6.5-6.5S3.6-6.5,0-6.5S-6.5-3.6-6.5,0S-3.6,6.5,0,6.5 M0,7.5c-4.1,0-7.5-3.4-7.5-7.5
				S-4.1-7.5,0-7.5S7.5-4.1,7.5,0S4.1,7.5,0,7.5L0,7.5z" fill="#FFFFFF"/></g></g><path d="M4.2,0.5L1.9,2.9C1.7,3,1.3,3,1.1,2.9S1,2.3,1.1,2.1L2.3,1H1.5C-1.4,1-3-0.6-3-3.5C-3-3.8-2.8-4-2.5-4
		S-2-3.8-2-3.5C-2-1.9-1.4,0,1.5,0h0.8L1.1-1.1C1-1.3,1-1.7,1.1-1.9C1.2-2,1.4-2,1.5-2s0.3,0,0.4,0.1L4.2,0.5z" fill="#3C5666"/><path d="M4.2,1.5L1.9,3.9C1.7,4,1.3,4,1.1,3.9S1,3.3,1.1,3.1L2.3,2H1.5C-1.4,2-3,0.4-3-2.5C-3-2.8-2.8-3-2.5-3
		S-2-2.8-2-2.5C-2-0.9-1.4,1,1.5,1h0.8L1.1-0.1C1-0.3,1-0.7,1.1-0.9C1.2-1,1.4-1,1.5-1s0.3,0,0.4,0.1L4.2,1.5z" fill="#FFFFFF"/></symbol><g><g/><g/><g><g><g><path d="M7,31.5c-1.9,0-3.5-1.6-3.5-3.5V4c0-1.9,1.6-3.5,3.5-3.5h15.2l6.3,6.3V28c0,1.9-1.6,3.5-3.5,3.5H7z" fill="#00A389"/><path d="M22,1l6,6v21c0,1.7-1.3,3-3,3H7c-1.7,0-3-1.3-3-3V4c0-1.7,1.3-3,3-3H22 M22.4,0H22H7C4.8,0,3,1.8,3,4v24
					c0,2.2,1.8,4,4,4h18c2.2,0,4-1.8,4-4V7V6.6l-0.3-0.3l-6-6L22.4,0L22.4,0z" fill="#FFFFFF"/></g></g><polygon points="22,1 22,7 28,7 		" fill="#00795A"/><path d="M22.5,14.5C21.5,11.7,18.8,10,16,10c-0.8,0-1.7,0.1-2.5,0.5c-3.6,1.4-5.4,5.4-4,9c1.1,2.8,3.7,4.5,6.5,4.5
			c0.8,0,1.7-0.1,2.5-0.5C22.1,22.1,23.9,18.1,22.5,14.5z M19.5,21.8c-0.3,0.2-0.7,0.4-1.1,0.6l-0.8-2.2l2.3-0.9
			C19.9,20.3,19.8,21.2,19.5,21.8z M14.8,21.3l2.3-0.9l0.8,2.2c-0.4,0.1-0.8,0.2-1.2,0.3C16.1,22.6,15.4,22.1,14.8,21.3z M15.8,22.9
			c-1,0-2-0.4-2.8-0.9l1.3-0.5C14.8,22.1,15.3,22.6,15.8,22.9z M10.4,18.8c-0.3-1-0.4-2-0.2-3l1.5-0.6c0.1,0.9,0.3,1.8,0.6,2.8
			L10.4,18.8z M12.6,12.1c0.3-0.2,0.7-0.5,1.1-0.6l0.8,2.2l-2.3,0.9C12.1,13.6,12.3,12.8,12.6,12.1z M15,13.5l-0.8-2.2
			c0.4-0.1,0.8-0.2,1.2-0.3c0.7,0.3,1.3,0.8,2,1.5L15,13.5z M17.6,13c0.5,0.7,1,1.6,1.4,2.5l-2.9,1.1l-1-2.7L17.6,13z M16.3,11
			c1,0,2,0.4,2.8,0.9l-1.3,0.5C17.3,11.8,16.8,11.4,16.3,11z M12.2,15.1l2.5-1l1,2.7l-2.9,1.1C12.5,16.9,12.3,16,12.2,15.1z
			 M15.9,17.3l1,2.7l-2.5,1c-0.5-0.7-1-1.6-1.4-2.6L15.9,17.3z M17.4,19.8l-1-2.7l2.9-1.1c0.4,1,0.6,2,0.6,2.9L17.4,19.8z
			 M19.7,15.8l2-0.8c0.3,1,0.4,2,0.2,3l-1.5,0.6C20.3,17.7,20.1,16.8,19.7,15.8z M21.5,14.6l-2,0.8c-0.4-0.9-0.9-1.8-1.4-2.5
			l1.5-0.6C20.4,12.8,21.1,13.6,21.5,14.6z M11.8,12.7c-0.1,0.6-0.2,1.3-0.2,2l-1.3,0.5c0.1-0.2,0.2-0.5,0.3-0.7
			C10.9,13.9,11.3,13.2,11.8,12.7z M10.6,19.3l2-0.8c0.4,1,0.9,1.8,1.4,2.6l-1.5,0.6C11.6,21.1,11,20.3,10.6,19.3z M20.2,21.2
			c0.1-0.6,0.2-1.3,0.2-2l1.3-0.5C21.5,19.6,20.9,20.5,20.2,21.2z" fill="#00795A"/><path d="M22.5,13.5C21.5,10.7,18.8,9,16,9c-0.8,0-1.7,0.1-2.5,0.5c-3.6,1.4-5.4,5.4-4,9c1.1,2.8,3.7,4.5,6.5,4.5
			c0.8,0,1.7-0.1,2.5-0.5C22.1,21.1,23.9,17,22.5,13.5z M19.5,20.8c-0.3,0.2-0.7,0.4-1.1,0.6l-0.8-2.2l2.3-0.9
			C19.9,19.3,19.8,20.2,19.5,20.8z M14.8,20.3l2.3-0.9l0.8,2.2c-0.4,0.1-0.8,0.2-1.2,0.3C16.1,21.6,15.4,21.1,14.8,20.3z M15.8,21.9
			c-1,0-2-0.4-2.8-0.9l1.3-0.5C14.8,21.1,15.3,21.6,15.8,21.9z M10.4,17.8c-0.3-1-0.4-2-0.2-3l1.5-0.6c0.1,0.9,0.3,1.8,0.6,2.8
			L10.4,17.8z M12.6,11.1c0.3-0.2,0.7-0.5,1.1-0.6l0.8,2.2l-2.3,0.9C12.1,12.6,12.3,11.8,12.6,11.1z M15,12.5l-0.8-2.2
			c0.4-0.1,0.8-0.2,1.2-0.3c0.7,0.3,1.3,0.8,2,1.5L15,12.5z M17.6,12c0.5,0.7,1,1.6,1.4,2.5l-2.9,1.1l-1-2.7L17.6,12z M16.3,10
			c1,0,2,0.4,2.8,0.9l-1.3,0.5C17.3,10.8,16.8,10.4,16.3,10z M12.2,14.1l2.5-1l1,2.7l-2.9,1.1C12.5,15.9,12.3,15,12.2,14.1z
			 M15.9,16.3l1,2.7l-2.5,1c-0.5-0.7-1-1.6-1.4-2.6L15.9,16.3z M17.4,18.8l-1-2.7l2.9-1.1c0.4,1,0.6,2,0.6,2.9L17.4,18.8z
			 M19.7,14.8l2-0.8c0.3,1,0.4,2,0.2,3l-1.5,0.6C20.3,16.7,20.1,15.8,19.7,14.8z M21.5,13.6l-2,0.8c-0.4-0.9-0.9-1.8-1.4-2.5
			l1.5-0.6C20.4,11.8,21.1,12.6,21.5,13.6z M11.8,11.7c-0.1,0.6-0.2,1.3-0.2,2l-1.3,0.5c0.1-0.2,0.2-0.5,0.3-0.7
			C10.9,12.9,11.3,12.2,11.8,11.7z M10.6,18.3l2-0.8c0.4,1,0.9,1.8,1.4,2.6l-1.5,0.6C11.6,20.1,11,19.3,10.6,18.3z M20.2,20.2
			c0.1-0.6,0.2-1.3,0.2-2l1.3-0.5C21.5,18.6,20.9,19.5,20.2,20.2z" fill="#FFFFFF"/></g><g/><g/><g/><g/></g><g display="none"><use xlink:href="#Shortcut_2_" width="15" height="15" x="-7.5" y="-7.5" transform="matrix(1 0 0 -1 7.5 24.5)" style="display:inline;overflow:visible;"/><g display="inline"/></g></svg>