<svg version="1.1" xmlns="http://www.w3.org/2000/svg" xmlns:xlink="http://www.w3.org/1999/xlink" x="0px" y="0px" viewBox="0 0 32 32" style="enable-background:new 0 0 32 32;" xml:space="preserve"><path d="M29.977,4.5H2.023C1.169,4.5,0.5,5.206,0.5,6.05v18.9c0,0.844,0.669,1.55,1.523,1.55h27.955
	c0.853,0,1.523-0.706,1.523-1.55V6.05C31.5,5.206,30.831,4.5,29.977,4.5z" fill="#00A389" stroke="#FFFFFF"/><path d="M2.875,6.4h26.25c0.283,0,0.511,0.235,0.511,0.525v7.35c0,0.29-0.229,0.525-0.511,0.525H2.875
	c-0.282,0-0.511-0.235-0.511-0.525v-7.35C2.364,6.635,2.593,6.4,2.875,6.4z" fill="#FFFFFF"/><path d="M2.875,16.2h7.159c0.283,0,0.511,0.235,0.511,0.525v7.35c0,0.29-0.229,0.525-0.511,0.525H2.875
	c-0.282,0-0.511-0.235-0.511-0.525v-7.35C2.364,16.435,2.593,16.2,2.875,16.2z" fill="#FFFFFF"/><path d="M21.966,16.2h7.159c0.282,0,0.511,0.235,0.511,0.525v7.35c0,0.29-0.229,0.525-0.511,0.525h-7.159
	c-0.282,0-0.511-0.235-0.511-0.525v-7.35C21.455,16.435,21.684,16.2,21.966,16.2z" fill="#FFFFFF"/><path d="M12.42,16.2h7.159c0.283,0,0.511,0.235,0.511,0.525v7.35c0,0.29-0.229,0.525-0.511,0.525H12.42
	c-0.282,0-0.511-0.235-0.511-0.525v-7.35C11.909,16.435,12.138,16.2,12.42,16.2z" fill="#FFFFFF"/></svg>