<svg version="1.1" xmlns="http://www.w3.org/2000/svg" xmlns:xlink="http://www.w3.org/1999/xlink" x="0px" y="0px" viewBox="0 0 32 32" style="enable-background:new 0 0 32 32;" xml:space="preserve"><path d="M9,29.333h19.333c0.183,0,0.333-0.15,0.333-0.333V9.333H23c-0.551,0-1-0.449-1-1V2.667H9
	c-0.183,0-0.333,0.15-0.333,0.333v26C8.667,29.183,8.817,29.333,9,29.333z" fill="#FFFFFF"/><path d="M28.195,8.667l-5.529-5.529v5.195c0,0.183,0.15,0.333,0.333,0.333H28.195z" fill="#FFFFFF"/><path d="M29.04,8.569l-6.276-6.277C22.576,2.106,22.322,2.001,22.057,2H9C8.449,2,8,2.449,8,3v26c0,0.551,0.449,1,1,1
	h19.333c0.551,0,1-0.449,1-1V9.276C29.333,9.009,29.229,8.758,29.04,8.569z M22.667,3.138l5.529,5.529H23
	c-0.088,0-0.173-0.035-0.236-0.098c-0.062-0.062-0.098-0.147-0.098-0.236V3.138z M28.333,29.333H9c-0.088,0-0.173-0.035-0.236-0.098
	C8.702,29.173,8.667,29.088,8.667,29V3c0-0.183,0.15-0.333,0.333-0.333h13v5.667c0,0.551,0.449,1,1,1h5.667V29
	C28.667,29.183,28.517,29.333,28.333,29.333z" opacity="0.64" fill="#605E5C" enable-background="new"/><path d="M4,24.667h12c0.354,0,0.693-0.141,0.943-0.391c0.25-0.25,0.39-0.589,0.39-0.943v-12
	c0-0.354-0.14-0.693-0.39-0.943C16.693,10.141,16.354,10,16,10H4c-0.354,0-0.693,0.141-0.943,0.391
	c-0.25,0.25-0.391,0.589-0.391,0.943v12c0,0.354,0.14,0.693,0.391,0.943C3.307,24.526,3.646,24.667,4,24.667z" fill="#038387"/><path d="M10.445,13.333c0.933,0,1.649,0.213,2.144,0.641c0.497,0.428,0.744,1.047,0.744,1.858
	c0,0.52-0.123,0.984-0.367,1.389c-0.245,0.405-0.595,0.72-1.047,0.945c-0.453,0.225-0.976,0.337-1.573,0.337H8.86v2.829H7.333v-8
	H10.445z M8.859,17.283h1.313c0.513,0,0.899-0.118,1.161-0.355c0.261-0.237,0.393-0.581,0.393-1.035
	c0-0.881-0.501-1.322-1.504-1.322H8.859V17.283L8.859,17.283z" fill="#F9F7F7"/><path d="M26.333,20h-7.667v0.667h7.667c0.088,0,0.173-0.035,0.236-0.098c0.063-0.062,0.098-0.147,0.098-0.236
	s-0.035-0.173-0.098-0.236C26.507,20.035,26.422,20,26.333,20z" fill="#038387"/><path d="M26.333,18h-7.667v0.667h7.667c0.088,0,0.173-0.035,0.236-0.098c0.063-0.062,0.098-0.147,0.098-0.236
	s-0.035-0.173-0.098-0.236C26.507,18.035,26.422,18,26.333,18z" fill="#1A9BA1"/><path d="M18.667,16.667H26c0.177,0,0.346-0.07,0.471-0.195s0.195-0.295,0.195-0.471v-1.333
	c0-0.177-0.07-0.346-0.195-0.471C26.346,14.07,26.177,14,26,14h-7.333V16.667z" fill="#37C6D0"/></svg>