<?xml version="1.0" encoding="utf-8"?>
<!-- Generator: Adobe Illustrator 18.1.0, SVG Export Plug-In . SVG Version: 6.00 Build 0)  -->
<!DOCTYPE svg PUBLIC "-//W3C//DTD SVG 1.1//EN" "http://www.w3.org/Graphics/SVG/1.1/DTD/svg11.dtd">
<svg version="1.1" id="Layer_1" xmlns="http://www.w3.org/2000/svg" xmlns:xlink="http://www.w3.org/1999/xlink" x="0px" y="0px"
	 viewBox="0 0 32 32" enable-background="new 0 0 32 32" xml:space="preserve">
<g id="Ppt">
</g>
<g id="Small_Folder">
</g>
<g>
	<g>
		<g>
			<path fill="#0072AA" d="M7,31.5c-1.93,0-3.5-1.57-3.5-3.5V4c0-1.93,1.57-3.5,3.5-3.5h15.207L28.5,6.793V28
				c0,1.93-1.57,3.5-3.5,3.5H7z"/>
			<path fill="#FFFFFF" d="M22,1l6,6v21c0,1.657-1.343,3-3,3H7c-1.657,0-3-1.343-3-3V4c0-1.657,1.343-3,3-3H22 M22.414,0H22H7
				C4.794,0,3,1.794,3,4v24c0,2.206,1.794,4,4,4h18c2.206,0,4-1.794,4-4V7V6.586l-0.293-0.293l-6-6L22.414,0L22.414,0z"/>
		</g>
	</g>
	<polygon fill-rule="evenodd" clip-rule="evenodd" fill="#004B71" points="22,1 22,7 28,7 	"/>
	<path fill="#004B71" d="M19,13.025V9H9v10h4.025c0.253,2.803,2.606,5,5.475,5c3.038,0,5.5-2.462,5.5-5.5
		C24,15.631,21.803,13.278,19,13.025z M10,10h8v3.025c-2.638,0.238-4.737,2.337-4.975,4.975H10V10z M18,14.051V18h-3.949
		C14.284,15.923,15.923,14.284,18,14.051z M18.5,23c-2.31,0-4.197-1.756-4.449-4H19v-4.949c2.244,0.252,4,2.139,4,4.449
		C23,20.981,20.981,23,18.5,23z"/>
	<path fill="#FFFFFF" d="M19,12.025V8H9v10h4.025c0.253,2.803,2.606,5,5.475,5c3.038,0,5.5-2.462,5.5-5.5
		C24,14.631,21.803,12.278,19,12.025z M10,9h8v3.025c-2.638,0.238-4.737,2.337-4.975,4.975H10V9z M18,13.051V17h-3.949
		C14.284,14.923,15.923,13.284,18,13.051z M18.5,22c-2.31,0-4.197-1.756-4.449-4H19v-4.949c2.244,0.252,4,2.139,4,4.449
		C23,19.981,20.981,22,18.5,22z"/>
</g>
<g id="fave_icon_-_selected">
</g>
</svg>
