<?xml version="1.0" encoding="utf-8"?>
<!-- Generator: Adobe Illustrator 19.1.0, SVG Export Plug-In . SVG Version: 6.00 Build 0)  -->
<svg version="1.1" xmlns="http://www.w3.org/2000/svg" xmlns:xlink="http://www.w3.org/1999/xlink" x="0px" y="0px"
	 viewBox="0 0 32 32" enable-background="new 0 0 32 32" xml:space="preserve">
<g id="Layer_2">
</g>
<g id="Layer_1">
	<g>
		<g>
			<g>
				<g>
					<path fill="#0071C5" d="M7,31.5c-1.93,0-3.5-1.57-3.5-3.5V4c0-1.93,1.57-3.5,3.5-3.5h15.207L28.5,6.793V28
						c0,1.93-1.57,3.5-3.5,3.5H7z"/>
					<path fill="#FFFFFF" d="M22,1l6,6v21c0,1.657-1.343,3-3,3H7c-1.657,0-3-1.343-3-3V4c0-1.657,1.343-3,3-3H22 M22.414,0H22H7
						C4.794,0,3,1.794,3,4v24c0,2.206,1.794,4,4,4h18c2.206,0,4-1.794,4-4V7V6.586l-0.293-0.293l-6-6L22.414,0L22.414,0z"/>
				</g>
			</g>
			<polygon fill="#005B93" points="22,1 22,7 28,7 			"/>
		</g>
	</g>
</g>
<g id="Layer_3">
	<g>
		<path fill="#005B93" d="M23.079,13.568H8.91c-0.55,0-1-0.45-1-1v-2.485c0-0.55,0.45-1,1-1h14.169c0.55,0,1,0.45,1,1v2.485
			C24.079,13.118,23.629,13.568,23.079,13.568z"/>
	</g>
	<g>
		<path fill="#005B93" d="M23.079,21.347H8.91c-0.55,0-1-0.45-1-1v-2.485c0-0.55,0.45-1,1-1h14.169c0.55,0,1,0.45,1,1v2.485
			C24.079,20.897,23.629,21.347,23.079,21.347z"/>
	</g>
	<g>
		<path fill="#005B93" d="M13.856,27.853H8.861c-0.553,0-1-0.447-1-1s0.447-1,1-1h4.996c0.553,0,1,0.447,1,1
			S14.409,27.853,13.856,27.853z"/>
		<path fill="#FFFFFF" d="M13.856,26.853H8.861c-0.553,0-1-0.447-1-1s0.447-1,1-1h4.996c0.553,0,1,0.447,1,1
			S14.409,26.853,13.856,26.853z"/>
	</g>
	<g>
		<path fill="#FFFFFF" d="M23.079,12.568H8.91c-0.55,0-1-0.45-1-1V9.083c0-0.55,0.45-1,1-1h14.169c0.55,0,1,0.45,1,1v2.485
			C24.079,12.118,23.629,12.568,23.079,12.568z"/>
	</g>
	<g>
		<path fill="#FFFFFF" d="M23.079,20.347H8.91c-0.55,0-1-0.45-1-1v-2.485c0-0.55,0.45-1,1-1h14.169c0.55,0,1,0.45,1,1v2.485
			C24.079,19.897,23.629,20.347,23.079,20.347z"/>
	</g>
</g>
<g id="Layer_4">
</g>
<g id="Layer_5">
	<g>
		<rect x="9.776" y="9.312" fill="#0071C5" width="2" height="2"/>
		<rect x="13.255" y="9.312" fill="#0071C5" width="2" height="2"/>
		<rect x="16.734" y="9.312" fill="#0071C5" width="2" height="2"/>
		<rect x="20.214" y="9.312" fill="#0071C5" width="2" height="2"/>
	</g>
	<g>
		<rect x="9.776" y="17.091" fill="#0071C5" width="2" height="2"/>
		<rect x="13.255" y="17.091" fill="#0071C5" width="2" height="2"/>
		<rect x="16.734" y="17.091" fill="#0071C5" width="2" height="2"/>
		<rect x="20.214" y="17.091" fill="#0071C5" width="2" height="2"/>
	</g>
</g>
<g id="Layer_7">
</g>
</svg>
