<?xml version="1.0" encoding="utf-8"?>
<!-- Generator: Adobe Illustrator 18.1.0, SVG Export Plug-In . SVG Version: 6.00 Build 0)  -->
<!DOCTYPE svg PUBLIC "-//W3C//DTD SVG 1.1//EN" "http://www.w3.org/Graphics/SVG/1.1/DTD/svg11.dtd">
<svg version="1.1" id="Layer_1" xmlns="http://www.w3.org/2000/svg" xmlns:xlink="http://www.w3.org/1999/xlink" x="0px" y="0px"
	 viewBox="0 0 32 32" enable-background="new 0 0 32 32" xml:space="preserve">
<g id="Ppt">
</g>
<g id="Small_Folder">
</g>
<g>
	<g>
		<g>
			<path fill="#0072AA" d="M7,31.5c-1.93,0-3.5-1.57-3.5-3.5V4c0-1.93,1.57-3.5,3.5-3.5h15.207L28.5,6.793V28
				c0,1.93-1.57,3.5-3.5,3.5H7z"/>
			<path fill="#FFFFFF" d="M22,1l6,6v21c0,1.657-1.343,3-3,3H7c-1.657,0-3-1.343-3-3V4c0-1.657,1.343-3,3-3H22 M22.414,0H22H7
				C4.794,0,3,1.794,3,4v24c0,2.206,1.794,4,4,4h18c2.206,0,4-1.794,4-4V7V6.586l-0.293-0.293l-6-6L22.414,0L22.414,0z"/>
		</g>
	</g>
	<polygon fill-rule="evenodd" clip-rule="evenodd" fill="#004B71" points="22,1 22,7 28,7 	"/>
	<g>
		<path fill="#004B71" d="M23,17H9c-0.276,0-0.5-0.224-0.5-0.5S8.724,16,9,16h14c0.276,0,0.5,0.224,0.5,0.5S23.276,17,23,17z"/>
		<path fill="#004B71" d="M23,21H9c-0.276,0-0.5-0.224-0.5-0.5S8.724,20,9,20h14c0.276,0,0.5,0.224,0.5,0.5S23.276,21,23,21z"/>
		<path fill="#004B71" d="M19,25H9c-0.276,0-0.5-0.224-0.5-0.5S8.724,24,9,24h10c0.276,0,0.5,0.224,0.5,0.5S19.276,25,19,25z"/>
		<g>
			<path fill="#004B71" d="M8.754,12.977C8.771,12.985,8.766,12.983,8.754,12.977L8.754,12.977z"/>
			<path fill="#004B71" d="M8.685,12.944c0.029,0.014,0.055,0.026,0.069,0.033C8.742,12.971,8.72,12.961,8.685,12.944z"/>
			<path fill="#004B71" d="M14.939,12.182L12.193,6.49c-0.2-0.413-0.827-0.413-1.027,0l-2.747,5.692
				c-0.136,0.283-0.017,0.625,0.266,0.762c0.282,0.136,0.625,0.017,0.762-0.266L10.256,11h2.846l0.81,1.678
				C14.231,13.339,15.259,12.844,14.939,12.182z M10.739,10l0.94-1.949L12.62,10H10.739z"/>
			<path fill="#004B71" d="M8.685,12.944C8.544,12.875,8.614,12.91,8.685,12.944L8.685,12.944z"/>
		</g>
	</g>
	<g>
		<path fill="#FFFFFF" d="M23,16H9c-0.276,0-0.5-0.224-0.5-0.5S8.724,15,9,15h14c0.276,0,0.5,0.224,0.5,0.5S23.276,16,23,16z"/>
		<path fill="#FFFFFF" d="M23,20H9c-0.276,0-0.5-0.224-0.5-0.5S8.724,19,9,19h14c0.276,0,0.5,0.224,0.5,0.5S23.276,20,23,20z"/>
		<path fill="#FFFFFF" d="M19,24H9c-0.276,0-0.5-0.224-0.5-0.5S8.724,23,9,23h10c0.276,0,0.5,0.224,0.5,0.5S19.276,24,19,24z"/>
		<g>
			<path fill="#FFFFFF" d="M8.754,11.977C8.771,11.985,8.766,11.983,8.754,11.977L8.754,11.977z"/>
			<path fill="#FFFFFF" d="M8.685,11.944c0.029,0.014,0.055,0.026,0.069,0.033C8.742,11.971,8.72,11.961,8.685,11.944z"/>
			<path fill="#FFFFFF" d="M14.939,11.182L12.193,5.49c-0.2-0.413-0.827-0.413-1.027,0l-2.747,5.692
				c-0.136,0.283-0.017,0.625,0.266,0.762c0.282,0.136,0.625,0.017,0.762-0.266L10.256,10h2.846l0.81,1.678
				C14.231,12.339,15.259,11.844,14.939,11.182z M10.739,9l0.94-1.949L12.62,9H10.739z"/>
			<path fill="#FFFFFF" d="M8.685,11.944C8.544,11.875,8.614,11.91,8.685,11.944L8.685,11.944z"/>
		</g>
	</g>
</g>
<g id="fave_icon_-_selected">
</g>
</svg>
