<svg version="1.1" xmlns="http://www.w3.org/2000/svg" xmlns:xlink="http://www.w3.org/1999/xlink" x="0px" y="0px" viewBox="0 0 32 32" style="enable-background:new 0 0 32 32;" xml:space="preserve"><path d="M1.25,2h29.5c0.414,0,0.75,0.336,0.75,0.75v25.5c0,0.414-0.336,0.75-0.75,0.75H1.25
	c-0.414,0-0.75-0.336-0.75-0.75V2.75C0.5,2.336,0.836,2,1.25,2z" fill="#2E3D98" stroke="#FFFFFF"/><path d="M16.3,26.75c0-2.071,1.679-3.75,3.75-3.75h9.483c0.147,0,0.267,0.119,0.267,0.267v3.467
	c0,0.147-0.119,0.267-0.267,0.267H16.55C16.412,27,16.3,26.888,16.3,26.75L16.3,26.75z" fill="#C0C0C0"/><path d="M15.7,26.75c0-2.071-1.679-3.75-3.75-3.75H2.467C2.319,23,2.2,23.119,2.2,23.267v3.467
	C2.2,26.881,2.319,27,2.467,27H15.45C15.588,27,15.7,26.888,15.7,26.75L15.7,26.75z" fill="#C0C0C0"/><path d="M16.3,5c0-0.736,0.597-1.333,1.333-1.333h11.9c0.147,0,0.267,0.119,0.267,0.267V25c0,0-8.775,0-10.8,0
	s-2.7,1.333-2.7,1.333V5z" fill="#FFFFFF"/><path d="M15.7,5c0-0.736-0.597-1.333-1.333-1.333h-11.9C2.319,3.667,2.2,3.786,2.2,3.933V25c0,0,8.775,0,10.8,0
	s2.7,1.333,2.7,1.333V5z" fill="#FFFFFF"/><path d="M6.76,10.308c-0.411-0.411-1.041-0.411-1.452,0c-0.411,0.411-0.411,1.041,0,1.452l1.907,1.907l-1.907,1.906
	c-0.411,0.411-0.411,1.041,0,1.452c0.207,0.207,0.506,0.308,0.726,0.308c0.146,0,0.28-0.025,0.406-0.081
	c0.125-0.056,0.228-0.136,0.32-0.227l1.907-1.907l1.907,1.907c0.207,0.207,0.506,0.308,0.726,0.308c0.146,0,0.28-0.025,0.406-0.081
	c0.125-0.056,0.228-0.136,0.32-0.227c0.411-0.411,0.411-1.041,0-1.452l-1.907-1.906l1.907-1.907c0.411-0.411,0.411-1.041,0-1.452
	c-0.411-0.411-1.041-0.411-1.452,0l-1.907,1.906L6.76,10.308z" fill-rule="evenodd" clip-rule="evenodd" fill="#A7261B"/><path d="M18.975,14.182l2.788,2.972l5.261-5.608c0.411-0.438,0.411-1.103,0-1.542c-0.423-0.45-1.082-0.45-1.504,0
	l-3.757,4.004l-1.284-1.369c-0.423-0.45-1.082-0.45-1.504,0C18.564,13.078,18.564,13.743,18.975,14.182z" fill-rule="evenodd" clip-rule="evenodd" fill="#067D14"/></svg>