<svg data-name="Layer 2" xmlns="http://www.w3.org/2000/svg" viewBox="0 0 32 32"><title>mime</title><path d="M20.622,9.117c1.189,5.3-5.413,20.739-5.413,20.739S2.635,18.719,1.446,13.424A9.827,9.827,0,0,1,20.622,9.117Z" fill="#fff"/><path d="M11.043,1.441a9.83,9.83,0,0,1,9.579,7.675c1.189,5.3-5.413,20.739-5.413,20.739S2.635,18.719,1.446,13.424a9.836,9.836,0,0,1,9.6-11.982m0-1h0A10.835,10.835,0,0,0,.47,13.643C1,16.019,3.554,19.61,8.05,24.316c3.283,3.436,6.463,6.26,6.5,6.288l1.038,0.919,0.545-1.275c0.017-.039,1.684-3.951,3.182-8.462C21.361,15.61,22.131,11.273,21.6,8.9A10.9,10.9,0,0,0,11.043.441h0Z" fill="#fff"/><path d="M20.622,9.117c1.189,5.3-5.413,20.739-5.413,20.739S2.635,18.719,1.446,13.424A9.827,9.827,0,0,1,20.622,9.117Z" fill="#00795a"/><path d="M11.043,1.441a9.83,9.83,0,0,1,9.579,7.675c1.189,5.3-5.413,20.739-5.413,20.739S2.635,18.719,1.446,13.424a9.836,9.836,0,0,1,9.6-11.982m0-1h0A10.835,10.835,0,0,0,.47,13.643C1,16.019,3.554,19.61,8.05,24.316c3.283,3.436,6.463,6.26,6.5,6.288l1.038,0.919,0.545-1.275c0.017-.039,1.684-3.951,3.182-8.462C21.361,15.61,22.131,11.273,21.6,8.9A10.9,10.9,0,0,0,11.043.441h0Z" fill="#fff"/><path d="M11.475,8.928c-1.407,5.242,4.551,20.945,4.551,20.945s13.023-10.607,14.43-15.849A9.827,9.827,0,1,0,11.475,8.928Z" fill="#fff"/><path d="M11.475,8.928c-1.407,5.242,4.551,20.945,4.551,20.945s13.023-10.607,14.43-15.849A9.827,9.827,0,1,0,11.475,8.928Z" fill="#00a389"/><path d="M23.514,1.986A9.816,9.816,0,0,0,11.475,8.928c-0.5,1.846-.076,4.99.673,8.289a6.874,6.874,0,0,1,.757-1.63,2.043,2.043,0,0,1,1.5-.938,7.974,7.974,0,0,1,1.858-.012,6.207,6.207,0,0,0,1.294.012,1.25,1.25,0,0,0,.523-0.215,1.563,1.563,0,0,0,.25-0.223,3.388,3.388,0,0,1-.485-0.985,4.853,4.853,0,0,1-.185-1.684,0.718,0.718,0,0,1-.285-0.38A1.644,1.644,0,0,1,17.3,10.47,1.405,1.405,0,0,1,17.64,9.6q0-.07.006-0.143a4.289,4.289,0,0,1,.215-1.034,6.816,6.816,0,0,1,.494-1.141A2.9,2.9,0,0,1,19.892,6.07a4.341,4.341,0,0,1,4.7,1.254,2.9,2.9,0,0,1,.729,1.819,6.818,6.818,0,0,1-.143,1.233,4.3,4.3,0,0,1-.33,1q-0.033.067-.068,0.13a1.41,1.41,0,0,1-.135.921,1.648,1.648,0,0,1-.415.559,0.721,0.721,0,0,1-.435.189,4.854,4.854,0,0,1-1,1.369,3.39,3.39,0,0,1-.908.611,1.561,1.561,0,0,0,.107.321,1.249,1.249,0,0,0,.347.447,6.206,6.206,0,0,0,1.129.634,7.973,7.973,0,0,1,1.6.935,2.043,2.043,0,0,1,.836,1.562,6.841,6.841,0,0,1-.15,1.759c2.282-2.464,4.2-4.956,4.691-6.791A9.827,9.827,0,0,0,23.514,1.986Z" fill="none"/><path d="M30.345,6.068a10.825,10.825,0,0,0-19.835,2.6c-0.631,2.352-.042,6.716,1.752,12.973,1.31,4.568,2.815,8.546,2.83,8.586l0.492,1.3,1.075-.875c0.033-.027,3.328-2.716,6.75-6.014,4.687-4.517,7.383-8,8.015-10.351A10.756,10.756,0,0,0,30.345,6.068Zm0.112,7.957c-0.493,1.835-2.409,4.326-4.691,6.791a6.841,6.841,0,0,0,.15-1.759,2.043,2.043,0,0,0-.836-1.562,7.973,7.973,0,0,0-1.6-.935,6.206,6.206,0,0,1-1.129-.634A1.249,1.249,0,0,1,22,15.479a1.561,1.561,0,0,1-.107-0.321,3.39,3.39,0,0,0,.908-0.611,4.854,4.854,0,0,0,1-1.369,0.721,0.721,0,0,0,.435-0.189,1.648,1.648,0,0,0,.415-0.559,1.41,1.41,0,0,0,.135-0.921q0.035-.063.068-0.13a4.3,4.3,0,0,0,.33-1,6.818,6.818,0,0,0,.143-1.233A2.9,2.9,0,0,0,24.6,7.324a4.341,4.341,0,0,0-4.7-1.254,2.9,2.9,0,0,0-1.538,1.214,6.816,6.816,0,0,0-.494,1.141,4.289,4.289,0,0,0-.215,1.034q0,0.073-.006.143a1.405,1.405,0,0,0-.344.868,1.644,1.644,0,0,0,.082.694,0.718,0.718,0,0,0,.285.38,4.853,4.853,0,0,0,.185,1.684,3.388,3.388,0,0,0,.485.985,1.563,1.563,0,0,1-.25.223,1.25,1.25,0,0,1-.523.215,6.207,6.207,0,0,1-1.294-.012,7.974,7.974,0,0,0-1.858.012,2.043,2.043,0,0,0-1.5.938,6.874,6.874,0,0,0-.757,1.63c-0.75-3.3-1.169-6.443-.673-8.289A9.827,9.827,0,0,1,30.457,14.024Z" fill="#fff"/></svg>