<?xml version="1.0" encoding="utf-8"?>
<!-- Generator: Adobe Illustrator 18.1.0, SVG Export Plug-In . SVG Version: 6.00 Build 0)  -->
<!DOCTYPE svg PUBLIC "-//W3C//DTD SVG 1.1//EN" "http://www.w3.org/Graphics/SVG/1.1/DTD/svg11.dtd">
<svg version="1.1" id="Layer_1" xmlns="http://www.w3.org/2000/svg" xmlns:xlink="http://www.w3.org/1999/xlink" x="0px" y="0px"
	 viewBox="0 0 32 32" enable-background="new 0 0 32 32" xml:space="preserve">
<g id="Ppt">
</g>
<g id="Small_Folder">
</g>
<g>
	<g>
		<g>
			<path fill="#00A389" d="M7,31.5c-1.93,0-3.5-1.57-3.5-3.5V4c0-1.93,1.57-3.5,3.5-3.5h15.207L28.5,6.793V28
				c0,1.93-1.57,3.5-3.5,3.5H7z"/>
			<path fill="#FFFFFF" d="M22,1l6,6v21c0,1.657-1.343,3-3,3H7c-1.657,0-3-1.343-3-3V4c0-1.657,1.343-3,3-3H22 M22.414,0H22H7
				C4.794,0,3,1.794,3,4v24c0,2.206,1.794,4,4,4h18c2.206,0,4-1.794,4-4V7V6.586l-0.293-0.293l-6-6L22.414,0L22.414,0z"/>
		</g>
	</g>
	<polygon fill-rule="evenodd" clip-rule="evenodd" fill="#00795A" points="22,1 22,7 28,7 	"/>
	<g>
		<path fill="#00795A" d="M24.5,19c-0.276,0-0.5-0.224-0.5-0.5v-2c0-0.276,0.224-0.5,0.5-0.5s0.5,0.224,0.5,0.5v2
			C25,18.776,24.776,19,24.5,19z"/>
		<path fill="#00795A" d="M22.5,23c-0.276,0-0.5-0.224-0.5-0.5v-10c0-0.276,0.224-0.5,0.5-0.5s0.5,0.224,0.5,0.5v10
			C23,22.776,22.776,23,22.5,23z"/>
		<path fill="#00795A" d="M20.5,27c-0.276,0-0.5-0.224-0.5-0.5v-17C20,9.224,20.224,9,20.5,9S21,9.224,21,9.5v17
			C21,26.776,20.776,27,20.5,27z"/>
		<path fill="#00795A" d="M18.5,23c-0.276,0-0.5-0.224-0.5-0.5v-10c0-0.276,0.224-0.5,0.5-0.5s0.5,0.224,0.5,0.5v10
			C19,22.776,18.776,23,18.5,23z"/>
		<path fill="#00795A" d="M16.5,21c-0.276,0-0.5-0.224-0.5-0.5v-6c0-0.276,0.224-0.5,0.5-0.5s0.5,0.224,0.5,0.5v6
			C17,20.776,16.776,21,16.5,21z"/>
		<path fill="#00795A" d="M14.5,19c-0.276,0-0.5-0.224-0.5-0.5v-2c0-0.276,0.224-0.5,0.5-0.5s0.5,0.224,0.5,0.5v2
			C15,18.776,14.776,19,14.5,19z"/>
		<path fill="#00795A" d="M12.5,23c-0.276,0-0.5-0.224-0.5-0.5v-10c0-0.276,0.224-0.5,0.5-0.5s0.5,0.224,0.5,0.5v10
			C13,22.776,12.776,23,12.5,23z"/>
		<path fill="#00795A" d="M10.5,21c-0.276,0-0.5-0.224-0.5-0.5v-6c0-0.276,0.224-0.5,0.5-0.5s0.5,0.224,0.5,0.5v6
			C11,20.776,10.776,21,10.5,21z"/>
		<path fill="#00795A" d="M8.5,18c-0.13,0-0.26-0.05-0.351-0.14C8.05,17.76,8,17.63,8,17.5c0-0.13,0.05-0.26,0.149-0.35
			c0.17-0.19,0.521-0.19,0.7,0C8.95,17.24,9,17.37,9,17.5c0,0.13-0.05,0.26-0.141,0.35C8.76,17.95,8.63,18,8.5,18z"/>
		<path fill="#00795A" d="M6.5,18c-0.13,0-0.26-0.05-0.351-0.14C6.05,17.76,6,17.63,6,17.5c0-0.13,0.05-0.26,0.149-0.35
			c0.19-0.2,0.521-0.19,0.7,0C6.939,17.24,7,17.37,7,17.5c0,0.13-0.05,0.26-0.15,0.35C6.76,17.95,6.63,18,6.5,18z"/>
	</g>
	<path fill="#FFFFFF" d="M24.5,18c-0.276,0-0.5-0.224-0.5-0.5v-2c0-0.276,0.224-0.5,0.5-0.5s0.5,0.224,0.5,0.5v2
		C25,17.776,24.776,18,24.5,18z"/>
	<path fill="#FFFFFF" d="M22.5,22c-0.276,0-0.5-0.224-0.5-0.5v-10c0-0.276,0.224-0.5,0.5-0.5s0.5,0.224,0.5,0.5v10
		C23,21.776,22.776,22,22.5,22z"/>
	<path fill="#FFFFFF" d="M20.5,26c-0.276,0-0.5-0.224-0.5-0.5v-17C20,8.224,20.224,8,20.5,8S21,8.224,21,8.5v17
		C21,25.776,20.776,26,20.5,26z"/>
	<path fill="#FFFFFF" d="M18.5,22c-0.276,0-0.5-0.224-0.5-0.5v-10c0-0.276,0.224-0.5,0.5-0.5s0.5,0.224,0.5,0.5v10
		C19,21.776,18.776,22,18.5,22z"/>
	<path fill="#FFFFFF" d="M16.5,20c-0.276,0-0.5-0.224-0.5-0.5v-6c0-0.276,0.224-0.5,0.5-0.5s0.5,0.224,0.5,0.5v6
		C17,19.776,16.776,20,16.5,20z"/>
	<path fill="#FFFFFF" d="M14.5,18c-0.276,0-0.5-0.224-0.5-0.5v-2c0-0.276,0.224-0.5,0.5-0.5s0.5,0.224,0.5,0.5v2
		C15,17.776,14.776,18,14.5,18z"/>
	<path fill="#FFFFFF" d="M12.5,22c-0.276,0-0.5-0.224-0.5-0.5v-10c0-0.276,0.224-0.5,0.5-0.5s0.5,0.224,0.5,0.5v10
		C13,21.776,12.776,22,12.5,22z"/>
	<path fill="#FFFFFF" d="M10.5,20c-0.276,0-0.5-0.224-0.5-0.5v-6c0-0.276,0.224-0.5,0.5-0.5s0.5,0.224,0.5,0.5v6
		C11,19.776,10.776,20,10.5,20z"/>
	<path fill="#FFFFFF" d="M8.5,17c-0.13,0-0.26-0.05-0.351-0.14C8.05,16.76,8,16.63,8,16.5c0-0.13,0.05-0.26,0.149-0.35
		c0.17-0.19,0.521-0.19,0.7,0C8.95,16.24,9,16.37,9,16.5c0,0.13-0.05,0.26-0.141,0.35C8.76,16.95,8.63,17,8.5,17z"/>
	<path fill="#FFFFFF" d="M6.5,17c-0.13,0-0.26-0.05-0.351-0.14C6.05,16.76,6,16.63,6,16.5c0-0.13,0.05-0.26,0.149-0.35
		c0.19-0.2,0.521-0.19,0.7,0C6.939,16.24,7,16.37,7,16.5c0,0.13-0.05,0.26-0.15,0.35C6.76,16.95,6.63,17,6.5,17z"/>
</g>
<g id="fave_icon_-_selected">
</g>
</svg>
