<svg data-name="Layer 2" xmlns="http://www.w3.org/2000/svg" viewBox="0 0 32 32"><title>mime</title><path d="M31.45,15.009a9.671,9.671,0,0,0-3.475-6.485q-0.359-.3-0.746-0.558a9.655,9.655,0,0,0-1.646-.893C25.427,7.008,25.263,6.956,25.1,6.9a9.649,9.649,0,0,0-.584-1.328,9.73,9.73,0,0,0-2.356-2.858q-0.359-.3-0.746-0.558a9.675,9.675,0,0,0-10.833,0q-0.387.261-.746,0.558A9.73,9.73,0,0,0,7.482,5.57,9.649,9.649,0,0,0,6.9,6.9c-0.161.058-.324,0.11-0.481,0.176a9.656,9.656,0,0,0-1.646.893q-0.387.261-.746,0.558A9.671,9.671,0,0,0,.5,16a9.631,9.631,0,0,0,1.94,5.8v0.015a9.641,9.641,0,0,0,1.654,5.416q0.261,0.387.558,0.746a9.731,9.731,0,0,0,2.858,2.356,9.623,9.623,0,0,0,3.627,1.119,9.826,9.826,0,0,0,.991.05A9.647,9.647,0,0,0,16,30.689a9.683,9.683,0,0,0,13.561-8.877V21.8A9.631,9.631,0,0,0,31.5,16,9.809,9.809,0,0,0,31.45,15.009ZM7.658,7.658A8.71,8.71,0,0,1,23.912,6.547,9.643,9.643,0,0,0,16.4,7.967c-0.137.092-.264,0.2-0.4,0.3-0.116.088-.238,0.169-0.35,0.261-0.145.12-.279,0.251-0.416,0.379a9.715,9.715,0,0,0-1.94,2.479c-0.138.254-.262,0.516-0.377,0.783a9.6,9.6,0,0,0-.355.951v0a9.644,9.644,0,0,0-.386,1.89,9.809,9.809,0,0,0-.05.991v0.015h0a9.7,9.7,0,0,0,.138,1.555c0.029,0.178.058,0.355,0.1,0.53-0.1-.046-0.2-0.093-0.295-0.142A8.729,8.729,0,0,1,7.81,13.149h0A8.609,8.609,0,0,1,7.658,7.658ZM2.577,20.243A8.694,8.694,0,0,1,6.547,8.088,9.636,9.636,0,0,0,6.363,9.2a9.809,9.809,0,0,0-.05.991A9.67,9.67,0,0,0,18.1,19.64,8.851,8.851,0,0,1,15.234,23.1a8.662,8.662,0,0,1-3.617,1.494,8.75,8.75,0,0,1-.994.105c-0.145.007-.288,0.022-0.435,0.022A8.733,8.733,0,0,1,2.577,20.243ZM13.11,16.321A8.766,8.766,0,0,1,16,14.013a8.766,8.766,0,0,1,2.89,2.308,8.683,8.683,0,0,1-.361,2.209,8.673,8.673,0,0,1-5.058,0A8.683,8.683,0,0,1,13.11,16.321Zm1.746,13.767A8.694,8.694,0,0,1,3.5,23a9.647,9.647,0,0,0,6.69,2.691c0.267,0,.529-0.019.791-0.04A9.692,9.692,0,0,0,19.29,19.29a9.588,9.588,0,0,0,.351-1.19c0.039-.174.067-0.352,0.1-0.53,0.071,0.126.134,0.257,0.2,0.388a8.635,8.635,0,0,1,.074,7.556A8.762,8.762,0,0,1,16,29.612,8.64,8.64,0,0,1,14.856,30.088ZM28.5,23a8.694,8.694,0,0,1-11.358,7.092,9.714,9.714,0,0,0,3.877-4.44,9.587,9.587,0,0,0,.355-0.951,9.684,9.684,0,0,0,.437-2.884,9.809,9.809,0,0,0-.05-0.991,9.644,9.644,0,0,0-.386-1.89c-0.06-.192-0.135-0.376-0.206-0.563a9.619,9.619,0,0,0-.394-0.9c-0.046-.091-0.085-0.187-0.133-0.277a10.374,10.374,0,0,0-1.829-2.378c-0.172-.164-0.344-0.328-0.528-0.48q-0.359-.3-0.746-0.558c-0.129-.087-0.266-0.161-0.4-0.242l0,0h0l0,0a8.819,8.819,0,0,1,2.294-.422c0.145-.007.288-0.022,0.435-0.022a8.723,8.723,0,0,1,8.7,8.4c0,0.107.016,0.213,0.016,0.321A8.711,8.711,0,0,1,28.5,23Zm0.92-2.753a9.576,9.576,0,0,0-3.387-5.906q-0.359-.3-0.746-0.558c-0.079-.053-0.164-0.1-0.244-0.148a9.65,9.65,0,0,0-.856-0.482c-0.18-.09-0.359-0.184-0.546-0.263a9.656,9.656,0,0,0-3.771-.761c-0.267,0-.529.019-0.791,0.04a9.721,9.721,0,0,0-1.013.134,9.624,9.624,0,0,0-1.968.587c-0.035.015-.068,0.034-0.1,0.049a9.656,9.656,0,0,0-1.144.6c-0.133.081-.27,0.155-0.4,0.242q-0.387.261-.746,0.558c-0.182.15-.353,0.312-0.523,0.475l0,0A8.421,8.421,0,0,1,13.93,12.3a8.845,8.845,0,0,1,2.836-3.4h0a8.6,8.6,0,0,1,8.687-.815h0A8.694,8.694,0,0,1,29.422,20.243Z" fill="#fff"/><path d="M20.009,25.513a8.695,8.695,0,0,0-.074-7.556c-0.065-.13-0.127-0.261-0.2-0.388-0.029.178-.058,0.355-0.1,0.53a9.786,9.786,0,0,1-2.874,5,9.573,9.573,0,0,1-5.788,2.551c-0.261.021-.524,0.04-0.791,0.04A9.647,9.647,0,0,1,3.5,23,8.709,8.709,0,0,0,20.009,25.513Z" fill="#0072aa"/><path d="M24.652,14.528a8.849,8.849,0,0,0-4.778-1.434c-0.147,0-.29.015-0.435,0.022a8.819,8.819,0,0,0-2.294.422l0,0h0l0,0c0.133,0.081.27,0.155,0.4,0.242q0.387,0.261.746,0.558c0.183,0.151.356,0.315,0.528,0.48a10.374,10.374,0,0,1,1.829,2.378c0.049,0.09.087,0.186,0.133,0.277a9.619,9.619,0,0,1,.394.9c0.071,0.187.146,0.371,0.206,0.563a9.644,9.644,0,0,1,.386,1.89,9.809,9.809,0,0,1,.05.991,9.684,9.684,0,0,1-.437,2.884,9.587,9.587,0,0,1-.355.951,9.714,9.714,0,0,1-3.877,4.44,8.767,8.767,0,0,0,11.448-8.275c0-.108-0.012-0.213-0.016-0.321A8.712,8.712,0,0,0,24.652,14.528Z" fill="#00a389"/><path d="M10.188,24.719c0.147,0,.29-0.015.435-0.022a8.75,8.75,0,0,0,.994-0.105A8.662,8.662,0,0,0,15.234,23.1,8.851,8.851,0,0,0,18.1,19.64a9.511,9.511,0,0,1-4.2,0,9.785,9.785,0,0,1-3.073-1.272A9.61,9.61,0,0,1,6.547,8.088,8.715,8.715,0,0,0,10.188,24.719Z" fill="#9370b1"/><path d="M25.453,8.088h0a8.642,8.642,0,0,0-8.687.815h0a8.845,8.845,0,0,0-2.836,3.4,8.421,8.421,0,0,0-.745,2.511l0,0c0.17-.163.341-0.325,0.523-0.475q0.359-.3.746-0.558c0.129-.087.266-0.161,0.4-0.242a9.656,9.656,0,0,1,1.144-.6c0.035-.015.067-0.035,0.1-0.049A9.624,9.624,0,0,1,18.07,12.3a9.721,9.721,0,0,1,1.013-.134c0.261-.021.524-0.04,0.791-0.04a9.656,9.656,0,0,1,3.771.761c0.187,0.079.365,0.173,0.546,0.263a9.65,9.65,0,0,1,.856.482c0.08,0.051.165,0.1,0.244,0.148q0.387,0.261.746,0.558a9.434,9.434,0,0,1,3.387,5.906A8.694,8.694,0,0,0,25.453,8.088Z" fill="#c57c15"/><path d="M7.81,13.149a8.656,8.656,0,0,0,.381.894,8.631,8.631,0,0,0,3.873,3.915c0.1,0.049.2,0.1,0.295,0.142-0.039-.174-0.067-0.352-0.1-0.53a9.7,9.7,0,0,1-.138-1.555h0V16a9.809,9.809,0,0,1,.05-0.991,9.644,9.644,0,0,1,.386-1.89v0a9.6,9.6,0,0,1,.355-0.951c0.115-.267.239-0.529,0.377-0.783A9.715,9.715,0,0,1,15.234,8.9c0.138-.128.272-0.259,0.416-0.379,0.112-.093.233-0.174,0.35-0.261,0.132-.1.259-0.2,0.4-0.3a9.643,9.643,0,0,1,7.516-1.42,8.708,8.708,0,0,0-16.1,6.6h0Z" fill="#d24625"/></svg>