<svg version="1.1" xmlns="http://www.w3.org/2000/svg" xmlns:xlink="http://www.w3.org/1999/xlink" x="0px" y="0px" viewBox="0 0 32 32" style="enable-background:new 0 0 32 32;" xml:space="preserve"><symbol viewBox="-7.5 -7.5 15 15"><g><g><circle cx="0" cy="0" r="7" opacity="0.9" fill="#3C5666" enable-background="new"/><path d="M0,6.5c3.6,0,6.5-2.9,6.5-6.5S3.6-6.5,0-6.5S-6.5-3.6-6.5,0S-3.6,6.5,0,6.5 M0,7.5c-4.1,0-7.5-3.4-7.5-7.5
				S-4.1-7.5,0-7.5S7.5-4.1,7.5,0S4.1,7.5,0,7.5L0,7.5z" fill="#FFFFFF"/></g></g><path d="M4.2,0.5L1.9,2.9C1.7,3,1.3,3,1.1,2.9S1,2.3,1.1,2.1L2.3,1H1.5C-1.4,1-3-0.6-3-3.5C-3-3.8-2.8-4-2.5-4
		S-2-3.8-2-3.5C-2-1.9-1.4,0,1.5,0h0.8L1.1-1.1C1-1.3,1-1.7,1.1-1.9C1.2-2,1.4-2,1.5-2s0.3,0,0.4,0.1L4.2,0.5z" fill="#3C5666"/><path d="M4.2,1.5L1.9,3.9C1.7,4,1.3,4,1.1,3.9S1,3.3,1.1,3.1L2.3,2H1.5C-1.4,2-3,0.4-3-2.5C-3-2.8-2.8-3-2.5-3
		S-2-2.8-2-2.5C-2-0.9-1.4,1,1.5,1h0.8L1.1-0.1C1-0.3,1-0.7,1.1-0.9C1.2-1,1.4-1,1.5-1s0.3,0,0.4,0.1L4.2,1.5z" fill="#FFFFFF"/></symbol><g><g/><g/><g><g><g><path d="M7,31.5c-1.9,0-3.5-1.6-3.5-3.5V4c0-1.9,1.6-3.5,3.5-3.5h15.2l6.3,6.3V28c0,1.9-1.6,3.5-3.5,3.5H7z" fill="#9370B1"/><path d="M22,1l6,6v21c0,1.7-1.3,3-3,3H7c-1.7,0-3-1.3-3-3V4c0-1.7,1.3-3,3-3H22 M22.4,0H22H7C4.8,0,3,1.8,3,4v24
					c0,2.2,1.8,4,4,4h18c2.2,0,4-1.8,4-4V7V6.6l-0.3-0.3l-6-6L22.4,0L22.4,0z" fill="#FFFFFF"/></g></g><polygon points="22,1 22,7 28,7 		" fill="#735796"/><path d="M23,10h-6c0-0.6-0.4-1-1-1s-1,0.4-1,1H9c-0.6,0-1,0.4-1,1s0.4,1,1,1v9h6.4l-2.8,4.7c-0.1,0.2-0.1,0.5,0.2,0.7
			c0.2,0.1,0.5,0.1,0.7-0.2L16,22l2.6,4.3c0.1,0.2,0.3,0.2,0.4,0.2c0.1,0,0.2,0,0.3-0.1c0.2-0.1,0.3-0.4,0.2-0.7L16.6,21H23v-9
			c0.6,0,1-0.4,1-1S23.6,10,23,10z M22,20H10v-8h12V20z" fill="#735796"/><path d="M23,9h-6c0-0.6-0.4-1-1-1s-1,0.4-1,1H9c-0.6,0-1,0.4-1,1s0.4,1,1,1v9h6.4l-2.8,4.7c-0.1,0.2-0.1,0.5,0.2,0.7
			c0.2,0.1,0.5,0.1,0.7-0.2L16,21l2.6,4.3c0.1,0.2,0.3,0.2,0.4,0.2c0.1,0,0.2,0,0.3-0.1c0.2-0.1,0.3-0.4,0.2-0.7L16.6,20H23v-9
			c0.6,0,1-0.4,1-1S23.6,9,23,9z M22,19H10v-8h12V19z" fill="#FFFFFF"/></g><g/><g/><g/><g/></g><g display="none"><g display="inline"/><use xlink:href="#Shortcut_2_" width="15" height="15" x="-7.5" y="-7.5" transform="matrix(1 0 0 -1 7.5 24.5)" style="display:inline;overflow:visible;"/></g></svg>