<svg data-name="Layer 1" xmlns="http://www.w3.org/2000/svg" viewBox="0 0 32 32"><title>toolbarArtboard 1 copy 2</title><path d="M16,29A13,13,0,1,1,29,16,13.06,13.06,0,0,1,16,29ZM16,6A10,10,0,1,0,26,16,10.06,10.06,0,0,0,16,6Z" fill="#8cc53e"/><path d="M16,3.45A12.55,12.55,0,1,1,3.45,16,12.56,12.56,0,0,1,16,3.45m0,23.1A10.55,10.55,0,1,0,5.45,16,10.56,10.56,0,0,0,16,26.55m0-24.1A13.55,13.55,0,1,0,29.55,16,13.56,13.56,0,0,0,16,2.45Zm0,23.1A9.55,9.55,0,1,1,25.55,16,9.56,9.56,0,0,1,16,25.55Z" fill="#fff"/><g data-name="Layer 3"><path d="M14.14,14.05a6.67,6.67,0,0,0-.3-1.75,1.94,1.94,0,0,0-1.15-1.23,7.55,7.55,0,0,0-1.7-.46A5.9,5.9,0,0,1,9.8,10.3,1.19,1.19,0,0,1,9.37,10a1.5,1.5,0,0,1-.18-.27,3.22,3.22,0,0,0,.68-.78,4.59,4.59,0,0,0,.58-1.5.69.69,0,0,0,.35-.28,1.57,1.57,0,0,0,.24-.61,1.34,1.34,0,0,0-.1-.88l0-.14a4.05,4.05,0,0,0,.06-1,6.51,6.51,0,0,0-.17-1.17A2.76,2.76,0,0,0,9.76,1.87a3.94,3.94,0,0,0-2.31-.71,3.94,3.94,0,0,0-2.31.71A2.75,2.75,0,0,0,4,3.36a6.5,6.5,0,0,0-.17,1.17,4.06,4.06,0,0,0,.05,1l0,.13a1.34,1.34,0,0,0-.1.88,1.57,1.57,0,0,0,.25.62.68.68,0,0,0,.35.28A4.59,4.59,0,0,0,5,8.93a3.22,3.22,0,0,0,.69.78,1.44,1.44,0,0,1-.17.27,1.19,1.19,0,0,1-.43.33,5.9,5.9,0,0,1-1.19.31,7.58,7.58,0,0,0-1.7.46A1.94,1.94,0,0,0,1.07,12.3,6.6,6.6,0,0,0,.77,14a1.39,1.39,0,0,0,0,.32V15s0,0,0,0a1.42,1.42,0,0,0,1.41,1.39H12.75A1.42,1.42,0,0,0,14.17,15v-.68A1.4,1.4,0,0,0,14.14,14.05Z" fill="#0072aa"/><path d="M12.75,16.8H2.15A1.79,1.79,0,0,1,.37,15.06v-.71a1.73,1.73,0,0,1,0-.4,6.58,6.58,0,0,1,.3-1.75,2.31,2.31,0,0,1,1.34-1.45,7.78,7.78,0,0,1,1.78-.49A5.78,5.78,0,0,0,5,10a.83.83,0,0,0,.28-.2,3.69,3.69,0,0,1-.52-.65,4.83,4.83,0,0,1-.59-1.44,1.16,1.16,0,0,1-.34-.32,1.93,1.93,0,0,1-.31-.76,1.8,1.8,0,0,1,.08-1v0A4.42,4.42,0,0,1,3.5,4.5a6.79,6.79,0,0,1,.18-1.24A3.12,3.12,0,0,1,4.93,1.57,4.3,4.3,0,0,1,7.45.8,4.29,4.29,0,0,1,10,1.58a3.11,3.11,0,0,1,1.25,1.7h0a6.82,6.82,0,0,1,.18,1.23,4.42,4.42,0,0,1-.06,1.09v0a1.8,1.8,0,0,1,.08,1,1.93,1.93,0,0,1-.3.76,1.16,1.16,0,0,1-.33.32,4.89,4.89,0,0,1-.59,1.44,3.62,3.62,0,0,1-.52.65.81.81,0,0,0,.28.2,5.81,5.81,0,0,0,1.11.28,7.75,7.75,0,0,1,1.78.49,2.3,2.3,0,0,1,1.34,1.45A6.94,6.94,0,0,1,14.5,14a1.78,1.78,0,0,1,0,.34V15A1.78,1.78,0,0,1,12.75,16.8ZM7.45,1.52a3.58,3.58,0,0,0-2.1.64,2.4,2.4,0,0,0-1,1.28,6.32,6.32,0,0,0-.16,1.1,3.73,3.73,0,0,0,0,.91l.06.26-.07.13a1,1,0,0,0-.06.63,1.21,1.21,0,0,0,.18.47.35.35,0,0,0,.16.14l.21.06,0,.21a4.23,4.23,0,0,0,.53,1.38,2.87,2.87,0,0,0,.61.7l.23.19L6,9.88a1.85,1.85,0,0,1-.22.33,1.55,1.55,0,0,1-.56.42A6.16,6.16,0,0,1,4,11a7.3,7.3,0,0,0-1.62.44,1.58,1.58,0,0,0-1,1,6.33,6.33,0,0,0-.28,1.65,1.45,1.45,0,0,0,0,.29V15a1.07,1.07,0,0,0,1.06,1.06H12.75A1.06,1.06,0,0,0,13.81,15v-.68a1.1,1.1,0,0,0,0-.22v0a6.37,6.37,0,0,0-.29-1.67,1.58,1.58,0,0,0-1-1A7.21,7.21,0,0,0,10.92,11a6.13,6.13,0,0,1-1.27-.33,1.55,1.55,0,0,1-.56-.42,1.85,1.85,0,0,1-.22-.33l-.13-.26L9,9.43a2.87,2.87,0,0,0,.61-.7,4.26,4.26,0,0,0,.53-1.38l0-.21.21-.06a.35.35,0,0,0,.16-.14,1.23,1.23,0,0,0,.18-.47,1,1,0,0,0-.06-.63l-.07-.13.06-.26a3.73,3.73,0,0,0,.05-.91,6.13,6.13,0,0,0-.16-1.09,2.39,2.39,0,0,0-1-1.29A3.58,3.58,0,0,0,7.45,1.52Z" fill="#fff"/><path d="M31.27,14.05A6.67,6.67,0,0,0,31,12.3a1.94,1.94,0,0,0-1.15-1.23,7.55,7.55,0,0,0-1.7-.46,5.9,5.9,0,0,1-1.19-.31A1.19,1.19,0,0,1,26.5,10a1.5,1.5,0,0,1-.18-.27A3.22,3.22,0,0,0,27,8.93a4.59,4.59,0,0,0,.58-1.5.69.69,0,0,0,.35-.28,1.57,1.57,0,0,0,.24-.61,1.34,1.34,0,0,0-.1-.88l0-.14a4.05,4.05,0,0,0,.06-1A6.51,6.51,0,0,0,28,3.36a2.76,2.76,0,0,0-1.11-1.49,4.12,4.12,0,0,0-4.62,0,2.75,2.75,0,0,0-1.11,1.49A6.5,6.5,0,0,0,21,4.53a4.06,4.06,0,0,0,.05,1l0,.13a1.34,1.34,0,0,0-.1.88,1.57,1.57,0,0,0,.25.62.68.68,0,0,0,.35.28,4.59,4.59,0,0,0,.58,1.5,3.22,3.22,0,0,0,.69.78,1.44,1.44,0,0,1-.17.27,1.19,1.19,0,0,1-.43.33,5.9,5.9,0,0,1-1.19.31,7.58,7.58,0,0,0-1.7.46,1.94,1.94,0,0,0-1.15,1.23,6.6,6.6,0,0,0-.3,1.73,1.39,1.39,0,0,0,0,.32V15s0,0,0,0a1.42,1.42,0,0,0,1.41,1.39H29.88A1.42,1.42,0,0,0,31.3,15v-.68A1.4,1.4,0,0,0,31.27,14.05Z" fill="#0072aa"/><path d="M29.88,16.8H19.27a1.79,1.79,0,0,1-1.78-1.74v-.71a1.73,1.73,0,0,1,0-.4,6.58,6.58,0,0,1,.3-1.75,2.31,2.31,0,0,1,1.34-1.45A7.78,7.78,0,0,1,21,10.25,5.78,5.78,0,0,0,22.08,10a.83.83,0,0,0,.28-.2,3.69,3.69,0,0,1-.52-.65,4.83,4.83,0,0,1-.59-1.44,1.16,1.16,0,0,1-.34-.32,1.93,1.93,0,0,1-.31-.76,1.8,1.8,0,0,1,.08-1v0a4.42,4.42,0,0,1-.06-1.09,6.79,6.79,0,0,1,.18-1.24,3.12,3.12,0,0,1,1.25-1.69,4.48,4.48,0,0,1,5,0,3.11,3.11,0,0,1,1.25,1.7h0a6.82,6.82,0,0,1,.18,1.23,4.42,4.42,0,0,1-.06,1.09v0a1.8,1.8,0,0,1,.08,1,1.93,1.93,0,0,1-.3.76,1.16,1.16,0,0,1-.33.32,4.89,4.89,0,0,1-.59,1.44,3.62,3.62,0,0,1-.52.65.81.81,0,0,0,.28.2,5.81,5.81,0,0,0,1.11.28,7.75,7.75,0,0,1,1.78.49,2.3,2.3,0,0,1,1.34,1.45,6.94,6.94,0,0,1,.31,1.8,1.78,1.78,0,0,1,0,.34V15A1.78,1.78,0,0,1,29.88,16.8ZM24.58,1.52a3.58,3.58,0,0,0-2.1.64,2.4,2.4,0,0,0-1,1.28,6.32,6.32,0,0,0-.16,1.1,3.73,3.73,0,0,0,0,.91l.06.26-.07.13a1,1,0,0,0-.06.63,1.21,1.21,0,0,0,.18.47.35.35,0,0,0,.16.14l.21.06,0,.21a4.23,4.23,0,0,0,.53,1.38,2.87,2.87,0,0,0,.61.7l.23.19-.14.26a1.85,1.85,0,0,1-.22.33,1.55,1.55,0,0,1-.56.42,6.16,6.16,0,0,1-1.27.33,7.3,7.3,0,0,0-1.62.44,1.58,1.58,0,0,0-1,1,6.33,6.33,0,0,0-.28,1.65,1.45,1.45,0,0,0,0,.29V15a1.07,1.07,0,0,0,1.06,1.06H29.88A1.06,1.06,0,0,0,30.93,15v-.68a1.1,1.1,0,0,0,0-.22v0a6.37,6.37,0,0,0-.29-1.67,1.58,1.58,0,0,0-1-1A7.21,7.21,0,0,0,28,11a6.13,6.13,0,0,1-1.27-.33,1.55,1.55,0,0,1-.56-.42A1.85,1.85,0,0,1,26,9.88l-.13-.26.23-.19a2.87,2.87,0,0,0,.61-.7,4.26,4.26,0,0,0,.53-1.38l0-.21.21-.06a.35.35,0,0,0,.16-.14,1.23,1.23,0,0,0,.18-.47,1,1,0,0,0-.06-.63l-.07-.13.06-.26a3.73,3.73,0,0,0,.05-.91,6.13,6.13,0,0,0-.16-1.09,2.39,2.39,0,0,0-1-1.29A3.58,3.58,0,0,0,24.58,1.52Z" fill="#fff"/><path d="M26.2,27.76a10.17,10.17,0,0,0-.46-2.67A3,3,0,0,0,24,23.22a11.5,11.5,0,0,0-2.59-.71A9,9,0,0,1,19.59,22a1.81,1.81,0,0,1-.65-.5,2.29,2.29,0,0,1-.27-.41,4.91,4.91,0,0,0,1-1.19,7,7,0,0,0,.88-2.28,1,1,0,0,0,.54-.43,2.39,2.39,0,0,0,.37-.94A2,2,0,0,0,21.35,15l0-.21a6.18,6.18,0,0,0,.09-1.52,9.93,9.93,0,0,0-.26-1.78,4.2,4.2,0,0,0-1.7-2.27A6,6,0,0,0,16,8.11a6,6,0,0,0-3.52,1.08,4.19,4.19,0,0,0-1.7,2.27,9.9,9.9,0,0,0-.26,1.78,6.19,6.19,0,0,0,.08,1.52l0,.2a2,2,0,0,0-.16,1.34,2.39,2.39,0,0,0,.37.94,1,1,0,0,0,.54.42,7,7,0,0,0,.89,2.28,4.91,4.91,0,0,0,1,1.2,2.2,2.2,0,0,1-.27.4,1.82,1.82,0,0,1-.65.5,9,9,0,0,1-1.81.46A11.56,11.56,0,0,0,8,23.22a3,3,0,0,0-1.75,1.87,10.06,10.06,0,0,0-.46,2.63,2.12,2.12,0,0,0-.06.48v1s0,0,0,0a2.16,2.16,0,0,0,2.15,2.12H24.09a2.17,2.17,0,0,0,2.16-2.16v-1A2.13,2.13,0,0,0,26.2,27.76Z" fill="#004a70"/><path d="M24.09,31.94H7.92a2.72,2.72,0,0,1-2.71-2.66V28.2a2.64,2.64,0,0,1,.07-.61,10,10,0,0,1,.46-2.66,3.52,3.52,0,0,1,2-2.21A11.86,11.86,0,0,1,10.51,22a8.81,8.81,0,0,0,1.69-.43,1.27,1.27,0,0,0,.42-.31,5.63,5.63,0,0,1-.79-1,7.37,7.37,0,0,1-.89-2.19,1.77,1.77,0,0,1-.51-.49A2.94,2.94,0,0,1,10,16.4a2.74,2.74,0,0,1,.12-1.51v0A6.74,6.74,0,0,1,10,13.2a10.34,10.34,0,0,1,.28-1.88,4.75,4.75,0,0,1,1.91-2.58A6.55,6.55,0,0,1,16,7.56a6.54,6.54,0,0,1,3.84,1.18,4.74,4.74,0,0,1,1.91,2.58h0A10.4,10.4,0,0,1,22,13.2a6.74,6.74,0,0,1-.1,1.66v0A2.74,2.74,0,0,1,22,16.4a3,3,0,0,1-.46,1.16,1.77,1.77,0,0,1-.51.49,7.46,7.46,0,0,1-.89,2.19,5.52,5.52,0,0,1-.79,1,1.24,1.24,0,0,0,.42.31A8.86,8.86,0,0,0,21.5,22a11.81,11.81,0,0,1,2.72.75,3.51,3.51,0,0,1,2,2.21,10.58,10.58,0,0,1,.48,2.75,2.71,2.71,0,0,1,.05.52v1A2.71,2.71,0,0,1,24.09,31.94ZM16,8.66a5.46,5.46,0,0,0-3.2,1,3.66,3.66,0,0,0-1.48,2,9.63,9.63,0,0,0-.25,1.67,5.69,5.69,0,0,0,.07,1.39l.09.39-.11.19a1.49,1.49,0,0,0-.09,1,1.85,1.85,0,0,0,.28.72.54.54,0,0,0,.24.21l.32.09.07.33a6.45,6.45,0,0,0,.81,2.11,4.37,4.37,0,0,0,.93,1.06L14,21l-.21.4a2.83,2.83,0,0,1-.33.5,2.37,2.37,0,0,1-.85.65,9.39,9.39,0,0,1-1.93.5,11.13,11.13,0,0,0-2.47.67A2.4,2.4,0,0,0,6.8,25.24a9.66,9.66,0,0,0-.43,2.51,2.21,2.21,0,0,0-.06.44v1a1.63,1.63,0,0,0,1.61,1.61H24.08a1.61,1.61,0,0,0,1.61-1.61v-1a1.67,1.67,0,0,0,0-.33v-.07a9.71,9.71,0,0,0-.44-2.55,2.41,2.41,0,0,0-1.45-1.53A11,11,0,0,0,21.29,23a9.34,9.34,0,0,1-1.94-.5,2.36,2.36,0,0,1-.85-.65,2.82,2.82,0,0,1-.33-.51L18,21l.34-.28a4.38,4.38,0,0,0,.93-1.06A6.5,6.5,0,0,0,20,17.55l.07-.32.32-.09a.54.54,0,0,0,.24-.21A1.87,1.87,0,0,0,21,16.2a1.49,1.49,0,0,0-.09-1l-.11-.2.1-.4a5.68,5.68,0,0,0,.08-1.39,9.35,9.35,0,0,0-.24-1.66,3.64,3.64,0,0,0-1.48-2A5.45,5.45,0,0,0,16,8.66Z" fill="#fff"/></g></svg>