<svg version="1.1" xmlns="http://www.w3.org/2000/svg" xmlns:xlink="http://www.w3.org/1999/xlink" x="0px" y="0px" viewBox="0 0 32 32" style="enable-background:new 0 0 32 32;" xml:space="preserve"><g><g><path d="M4.7,32c-2,0-4.7-2.5-4.7-5.2V5.2C0,2.5,2.5,1,5.2,1h21.6C29.5,1,31,2.5,31,5.2v21.6c0,2.7-1.5,5.2-4.2,5.2
			H4.7L4.7,32z" fill="#FFFFFF"/><path d="M26.8,32H4.7C2.5,32,0,29.9,0,26.8V5.2C0,2.2,2.2,0,5.2,0h21.6c3,0,5.2,2.2,5.2,5.2v21.6
			C32,29.8,29.8,32,26.8,32z M5.2,1C2.8,1,1,2.8,1,5.2v21.6C1,29.3,3,31,4.7,31h22.1c2.4,0,4.2-1.8,4.2-4.2V5.2
			C31,2.8,29.2,1,26.8,1H5.2z" fill="#666666"/></g></g><g/><g/><g><g><g><path d="M6.7,17.9L5,16.2c-0.2-0.2-0.2-0.5,0-0.7s0.5-0.2,0.7,0l1,1L9,14.2c0.2-0.2,0.5-0.2,0.7,0s0.2,0.5,0,0.7
				L6.7,17.9z" fill="#227247"/><path d="M6.7,9.9L5,8.2C4.8,8,4.8,7.7,5,7.5s0.5-0.2,0.7,0l1,1L9,6.2C9.2,6,9.5,6,9.7,6.2s0.2,0.5,0,0.7L6.7,9.9z" fill="#227247"/><path d="M6.7,25.9L5,24.2c-0.2-0.2-0.2-0.5,0-0.7s0.5-0.2,0.7,0l1,1L9,22.2c0.2-0.2,0.5-0.2,0.7,0s0.2,0.5,0,0.7
				L6.7,25.9z" fill="#227247"/><path d="M26.5,8h-12C14.3,8,14,7.8,14,7.5S14.3,7,14.5,7h11.9C26.7,7,27,7.2,27,7.5S26.7,8,26.5,8z" fill="#666666"/><path d="M26.5,16h-12c-0.3,0-0.5-0.2-0.5-0.5s0.2-0.5,0.5-0.5h11.9c0.3,0,0.5,0.2,0.5,0.5S26.7,16,26.5,16z" fill="#666666"/><path d="M26.5,24h-12c-0.3,0-0.5-0.2-0.5-0.5s0.2-0.5,0.5-0.5h11.9c0.3,0,0.5,0.2,0.5,0.5S26.7,24,26.5,24z" fill="#666666"/></g></g></g><g/><g/><g/></svg>