<svg version="1.1" xmlns="http://www.w3.org/2000/svg" xmlns:xlink="http://www.w3.org/1999/xlink" x="0px" y="0px" viewBox="0 0 32 32" style="enable-background:new 0 0 32 32;" xml:space="preserve"><path d="M22.057,2.333H9C8.632,2.333,8.333,2.632,8.333,3v26c0,0.368,0.298,0.667,0.667,0.667h19.333
	C28.701,29.667,29,29.368,29,29V9.276c0-0.177-0.07-0.346-0.195-0.471l-6.276-6.276C22.404,2.404,22.234,2.333,22.057,2.333z" fill="#FFFFFF" stroke="#979593" stroke-miterlimit="10"/><path d="M22.333,2.333v6C22.333,8.702,22.632,9,23,9h6" fill="none" stroke="#979593" stroke-miterlimit="10"/><path d="M26.333,14h-2.667c-0.184,0-0.333-0.149-0.333-0.333c0-0.184,0.149-0.333,0.333-0.333h2.667
	c0.184,0,0.333,0.149,0.333,0.333C26.667,13.851,26.517,14,26.333,14z" fill="#C8C6C4"/><path d="M26.333,16h-2.667c-0.184,0-0.333-0.149-0.333-0.333c0-0.184,0.149-0.333,0.333-0.333h2.667
	c0.184,0,0.333,0.149,0.333,0.333C26.667,15.851,26.517,16,26.333,16z" fill="#C8C6C4"/><path d="M26.333,18h-2.667c-0.184,0-0.333-0.149-0.333-0.333c0-0.184,0.149-0.333,0.333-0.333h2.667
	c0.184,0,0.333,0.149,0.333,0.333C26.667,17.851,26.517,18,26.333,18z" fill="#C8C6C4"/><path d="M26.333,20h-2.667c-0.184,0-0.333-0.149-0.333-0.333c0-0.184,0.149-0.333,0.333-0.333h2.667
	c0.184,0,0.333,0.149,0.333,0.333C26.667,19.851,26.517,20,26.333,20z" fill="#C8C6C4"/><path d="M26.333,22h-2.667c-0.184,0-0.333-0.149-0.333-0.333c0-0.184,0.149-0.333,0.333-0.333h2.667
	c0.184,0,0.333,0.149,0.333,0.333C26.667,21.851,26.517,22,26.333,22z" fill="#C8C6C4"/><path d="M22.333,14h-2.667c-0.184,0-0.333-0.149-0.333-0.333c0-0.184,0.149-0.333,0.333-0.333h2.667
	c0.184,0,0.333,0.149,0.333,0.333C22.667,13.851,22.517,14,22.333,14z" fill="#C8C6C4"/><path d="M22.333,16h-2.667c-0.184,0-0.333-0.149-0.333-0.333c0-0.184,0.149-0.333,0.333-0.333h2.667
	c0.184,0,0.333,0.149,0.333,0.333C22.667,15.851,22.517,16,22.333,16z" fill="#C8C6C4"/><path d="M22.333,18h-2.667c-0.184,0-0.333-0.149-0.333-0.333c0-0.184,0.149-0.333,0.333-0.333h2.667
	c0.184,0,0.333,0.149,0.333,0.333C22.667,17.851,22.517,18,22.333,18z" fill="#C8C6C4"/><path d="M22.333,20h-2.667c-0.184,0-0.333-0.149-0.333-0.333c0-0.184,0.149-0.333,0.333-0.333h2.667
	c0.184,0,0.333,0.149,0.333,0.333C22.667,19.851,22.517,20,22.333,20z" fill="#C8C6C4"/><path d="M22.333,22h-2.667c-0.184,0-0.333-0.149-0.333-0.333c0-0.184,0.149-0.333,0.333-0.333h2.667
	c0.184,0,0.333,0.149,0.333,0.333C22.667,21.851,22.517,22,22.333,22z" fill="#C8C6C4"/><path d="M18.333,14h-2.667c-0.184,0-0.333-0.149-0.333-0.333c0-0.184,0.149-0.333,0.333-0.333h2.667
	c0.184,0,0.333,0.149,0.333,0.333C18.667,13.851,18.517,14,18.333,14z" fill="#C8C6C4"/><path d="M18.333,16h-2.667c-0.184,0-0.333-0.149-0.333-0.333c0-0.184,0.149-0.333,0.333-0.333h2.667
	c0.184,0,0.333,0.149,0.333,0.333C18.667,15.851,18.517,16,18.333,16z" fill="#C8C6C4"/><path d="M18.333,18h-2.667c-0.184,0-0.333-0.149-0.333-0.333c0-0.184,0.149-0.333,0.333-0.333h2.667
	c0.184,0,0.333,0.149,0.333,0.333C18.667,17.851,18.517,18,18.333,18z" fill="#C8C6C4"/><path d="M18.333,20h-2.667c-0.184,0-0.333-0.149-0.333-0.333c0-0.184,0.149-0.333,0.333-0.333h2.667
	c0.184,0,0.333,0.149,0.333,0.333C18.667,19.851,18.517,20,18.333,20z" fill="#C8C6C4"/><path d="M18.333,22h-2.667c-0.184,0-0.333-0.149-0.333-0.333c0-0.184,0.149-0.333,0.333-0.333h2.667
	c0.184,0,0.333,0.149,0.333,0.333C18.667,21.851,18.517,22,18.333,22z" fill="#C8C6C4"/><path d="M4,24.667h12c0.736,0,1.333-0.597,1.333-1.333v-12C17.333,10.597,16.736,10,16,10H4
	c-0.736,0-1.333,0.597-1.333,1.333v12C2.667,24.07,3.264,24.667,4,24.667z" fill="#107C41"/><path d="M6.345,21.333l2.568-4.011l-2.352-3.989h1.893l1.284,2.55c0.118,0.242,0.199,0.422,0.243,0.541h0.017
	c0.085-0.194,0.173-0.381,0.266-0.563l1.372-2.528h1.737l-2.413,3.966l2.474,4.034h-1.848l-1.483-2.8
	c-0.063-0.104-0.122-0.229-0.177-0.374H9.903c-0.025,0.089-0.083,0.21-0.171,0.362l-1.527,2.812H6.345z" fill="#F9F7F7"/></svg>