<?xml version="1.0" encoding="utf-8"?>
<!-- Generator: Adobe Illustrator 18.1.0, SVG Export Plug-In . SVG Version: 6.00 Build 0)  -->
<!DOCTYPE svg PUBLIC "-//W3C//DTD SVG 1.1//EN" "http://www.w3.org/Graphics/SVG/1.1/DTD/svg11.dtd">
<svg version="1.1" id="Layer_1" xmlns="http://www.w3.org/2000/svg" xmlns:xlink="http://www.w3.org/1999/xlink" x="0px" y="0px"
	 viewBox="0 0 32 32" enable-background="new 0 0 32 32" xml:space="preserve">
<g>
	<g>
		<g>
			<path fill="#DF3324" d="M7,31.5c-1.93,0-3.5-1.57-3.5-3.5V4c0-1.93,1.57-3.5,3.5-3.5h15.207L28.5,6.793V28
				c0,1.93-1.57,3.5-3.5,3.5H7z"/>
			<path fill="#FFFFFF" d="M22,1l6,6v21c0,1.657-1.343,3-3,3H7c-1.657,0-3-1.343-3-3V4c0-1.657,1.343-3,3-3H22 M22.414,0H22H7
				C4.794,0,3,1.794,3,4v24c0,2.206,1.794,4,4,4h18c2.206,0,4-1.794,4-4V7V6.586l-0.293-0.293l-6-6L22.414,0L22.414,0z"/>
		</g>
	</g>
	<polygon fill-rule="evenodd" clip-rule="evenodd" fill="#BA150D" points="22,1 22,7 28,7 	"/>
	<path fill="#BA150D" d="M25.122,18.573c-0.44-0.693-1.927-0.839-3.096-0.839c-0.611,0-1.316,0.044-2.079,0.131
		c-0.536-0.304-1.054-0.646-1.517-1.015c-1.188-0.975-2.069-2.631-2.625-4.293c0.21-1.214,0.238-2.285,0.257-3.374l0.01-0.537
		c0.001-0.052-0.023-0.096-0.05-0.137c0.047-0.037,0.08-0.09,0.092-0.153c0.104-0.546,0.059-0.927-0.138-1.165
		c-0.2-0.241-0.48-0.257-0.607-0.241l-0.356-0.003c-0.327,0-0.588,0.248-0.698,0.661c-0.31,1.158-0.159,3.106,0.432,5.057
		c-0.373,1.294-0.94,2.855-1.858,4.704c-2.08,4.188-3.667,6.501-4.751,6.84c0.193-0.591,1.142-1.95,2.665-3.088
		c0.105-0.078,0.132-0.224,0.062-0.334c-0.07-0.111-0.214-0.149-0.328-0.087c-2.182,1.16-3.144,2.508-3.305,3.311
		c-0.041,0.202-0.015,0.36,0.046,0.488c0.004,0.018,0.012,0.031,0.02,0.048c0.01,0.015,0.01,0.038,0.022,0.052
		c0.021,0.026,0.048,0.047,0.077,0.062c0.001,0,0.001,0.002,0.002,0.002l0.439,0.226C7.981,24.963,8.138,25,8.302,25
		c1.041,0,2.437-1.535,4.23-4.619c1.947-0.693,4.611-1.255,7.039-1.503c1.548,0.819,3.235,1.3,4.316,1.3
		c0.901,0,1.148-0.339,1.196-0.624c0.003-0.017-0.005-0.034-0.005-0.051c0.023-0.021,0.052-0.036,0.065-0.066
		C25.33,19.043,25.234,18.75,25.122,18.573z M24.614,19.186c0.047,0.051,0.054,0.089,0.053,0.12
		c-0.075,0.026-0.185,0.051-0.382,0.051c-0.592,0-1.496-0.228-2.477-0.612c0.083-0.001,0.174-0.008,0.255-0.008
		C24.04,18.739,24.515,19.081,24.614,19.186z M15.245,7.761c0.017-0.05,0.045-0.105,0.073-0.153c0.127,0.123,0.26,0.342,0.301,0.728
		c0.004,0.04,0.03,0.07,0.051,0.102c-0.048,0.036-0.082,0.09-0.094,0.153c-0.042,0.206-0.08,0.458-0.125,0.757
		c-0.046,0.308-0.105,0.684-0.182,1.106C15.071,9.308,15.057,8.316,15.245,7.761z M13.845,17.996
		c0.732-1.41,1.205-2.595,1.529-3.654c0.57,1.272,1.333,2.444,2.293,3.271c0.202,0.174,0.42,0.337,0.642,0.496
		c-1.706,0.304-3.569,0.801-5.337,1.513C13.254,19.116,13.545,18.575,13.845,17.996z"/>
	<path fill="#FFFFFF" d="M25.122,17.627c-0.44-0.693-1.927-0.839-3.096-0.839c-0.611,0-1.316,0.044-2.079,0.131
		c-0.536-0.304-1.054-0.646-1.517-1.015c-1.188-0.975-2.069-2.631-2.625-4.293c0.21-1.214,0.238-2.285,0.257-3.374l0.01-0.537
		c0.001-0.052-0.023-0.096-0.05-0.137c0.047-0.037,0.08-0.09,0.092-0.153c0.104-0.546,0.059-0.927-0.138-1.165
		c-0.2-0.241-0.48-0.257-0.607-0.241l-0.356-0.003c-0.327,0-0.588,0.248-0.698,0.661c-0.31,1.158-0.159,3.106,0.432,5.057
		c-0.373,1.294-0.94,2.855-1.858,4.704c-2.08,4.188-3.667,6.501-4.751,6.84c0.193-0.591,1.142-1.95,2.665-3.088
		c0.105-0.078,0.132-0.224,0.062-0.334c-0.07-0.111-0.214-0.149-0.328-0.087c-2.182,1.16-3.144,2.508-3.305,3.311
		c-0.041,0.202-0.015,0.36,0.046,0.488c0.004,0.018,0.012,0.031,0.02,0.048c0.01,0.015,0.01,0.038,0.022,0.052
		C7.34,23.68,7.367,23.7,7.397,23.716c0.001,0,0.001,0.002,0.002,0.002l0.439,0.226c0.144,0.073,0.3,0.11,0.464,0.11
		c1.041,0,2.437-1.535,4.23-4.619c1.947-0.693,4.611-1.255,7.039-1.503c1.548,0.819,3.235,1.3,4.316,1.3
		c0.901,0,1.148-0.339,1.196-0.624c0.003-0.017-0.005-0.034-0.005-0.051c0.023-0.021,0.052-0.036,0.065-0.066
		C25.33,18.098,25.234,17.804,25.122,17.627z M24.614,18.24c0.047,0.051,0.054,0.089,0.053,0.12
		c-0.075,0.026-0.185,0.051-0.382,0.051c-0.592,0-1.496-0.228-2.477-0.612c0.083-0.001,0.174-0.008,0.255-0.008
		C24.04,17.793,24.515,18.135,24.614,18.24z M15.245,6.815c0.017-0.05,0.045-0.105,0.073-0.153c0.127,0.123,0.26,0.342,0.301,0.728
		c0.004,0.04,0.03,0.07,0.051,0.102c-0.048,0.036-0.082,0.09-0.094,0.153c-0.042,0.206-0.08,0.458-0.125,0.757
		c-0.046,0.308-0.105,0.684-0.182,1.106C15.071,8.362,15.057,7.37,15.245,6.815z M13.845,17.05c0.732-1.41,1.205-2.595,1.529-3.654
		c0.57,1.272,1.333,2.444,2.293,3.271c0.202,0.174,0.42,0.337,0.642,0.496c-1.706,0.304-3.569,0.801-5.337,1.513
		C13.254,18.17,13.545,17.629,13.845,17.05z"/>
</g>
<g id="Ppt">
</g>
<g id="Small_Folder">
</g>
<g id="fave_icon_-_selected">
</g>
</svg>
