<svg data-name="Layer 2" xmlns="http://www.w3.org/2000/svg" viewBox="0 0 32 32"><title>mime</title><path d="M21.06,31.5a1.309,1.309,0,0,1-1-.462L16.113,26.5H8.9A4.505,4.505,0,0,1,4.4,22V5A4.505,4.505,0,0,1,8.9.5H21.11L27.4,6.793V22a4.505,4.505,0,0,1-4.5,4.5H22.415L22.4,30.168A1.327,1.327,0,0,1,21.06,31.5Z" fill="#0072aa"/><path d="M20.9,1l6,6V22a4.012,4.012,0,0,1-4,4H21.917L21.9,30.166A0.834,0.834,0,0,1,21.06,31a0.815,0.815,0,0,1-.623-0.289L16.341,26H8.9a4.012,4.012,0,0,1-4-4V5a4.012,4.012,0,0,1,4-4h12m0.414-1H8.9a5.006,5.006,0,0,0-5,5V22a5.006,5.006,0,0,0,5,5h6.982l3.8,4.367a1.834,1.834,0,0,0,3.22-1.2L22.913,27a5.005,5.005,0,0,0,4.99-5V6.586L27.61,6.293l-6-6L21.317,0h0Z" fill="#fff"/><polygon points="20.903 1 20.903 7 26.903 7 20.903 1" fill="#004b71"/><path d="M21.338,13.22a2.524,2.524,0,0,0-3.569-3.569l-0.9.9,3.569,3.569Z" fill="#004b71"/><polygon points="10.625 16.794 9.733 21.256 14.194 20.363 19.549 15.009 15.979 11.44 10.625 16.794" fill="#004b71"/><path d="M21.338,12.22a2.524,2.524,0,0,0-3.569-3.569l-0.9.9,3.569,3.569Z" fill="#fff"/><polygon points="10.625 15.794 9.733 20.256 14.194 19.363 19.549 14.009 15.979 10.44 10.625 15.794" fill="#fff"/></svg>