<svg data-name="Layer 1" xmlns="http://www.w3.org/2000/svg" viewBox="0 0 32 32"><title>mime_cs_project_nonselectable32</title><path d="M29,23a.9.9,0,0,1-.445.775l-3.5,2.032-8.613,5a.884.884,0,0,1-.889,0L3.445,23.774A.9.9,0,0,1,3,23V8.93a.9.9,0,0,1,.445-.775L15.555,1.12a.884.884,0,0,1,.889,0L28.555,8.155A.9.9,0,0,1,29,8.93Z" fill="#e6e6e6"/><polygon points="29 22.999 16 31 16 16 29 8.333 29 22.999" fill="#b4b4b4"/><polygon points="3.69 8.765 16 16 28.31 8.765 16 1.542 3.69 8.765" fill="#f5f5f5"/><path d="M29.058,7.29,16.948.256a1.916,1.916,0,0,0-1.895,0L2.941,7.29A1.9,1.9,0,0,0,2,8.93V23a1.9,1.9,0,0,0,.942,1.64l12.11,7.034a1.885,1.885,0,0,0,1.895,0l12.112-7.035A1.9,1.9,0,0,0,30,23V8.93A1.9,1.9,0,0,0,29.058,7.29ZM16,2.019,27.578,8.743,16.193,15.356a.387.387,0,0,1-.386,0L4.422,8.743ZM4,22.94V9.654L15.3,16.22a1.326,1.326,0,0,0,.134.056V29.584Zm12.438,6.715V16.328a1.361,1.361,0,0,0,.257-.107L28,9.654V22.94Z" fill="#888"/><path d="M30,18.02V23a1.91,1.91,0,0,1-.94,1.64L18.67,30.68a10,10,0,0,1-.71-.75.546.546,0,0,1-.07-.09,7.307,7.307,0,0,1-.52-.72,8.464,8.464,0,0,1-.93-7.31A8.5,8.5,0,0,1,24.5,16a8.364,8.364,0,0,1,3.5.76,7.34,7.34,0,0,1,1,.53A8.009,8.009,0,0,1,30,18.02Z" fill="#fff"/><g opacity="0.8"><circle cx="24.5" cy="24.5" r="6.5" fill="#fff"/></g><path d="M24.5,17A7.5,7.5,0,1,0,32,24.5,7.5,7.5,0,0,0,24.5,17Zm0,13a5.5,5.5,0,0,1-4.53-8.62l7.65,7.65A5.492,5.492,0,0,1,24.5,30Zm4.53-2.38-7.65-7.65a5.5,5.5,0,0,1,7.65,7.65Z" fill="#cd3632"/></svg>