<?xml version="1.0" encoding="utf-8"?>
<!-- Generator: Adobe Illustrator 18.1.0, SVG Export Plug-In . SVG Version: 6.00 Build 0)  -->
<!DOCTYPE svg PUBLIC "-//W3C//DTD SVG 1.1//EN" "http://www.w3.org/Graphics/SVG/1.1/DTD/svg11.dtd">
<svg version="1.1" id="Layer_1" xmlns="http://www.w3.org/2000/svg" xmlns:xlink="http://www.w3.org/1999/xlink" x="0px" y="0px"
	 viewBox="0 0 32 32" enable-background="new 0 0 32 32" xml:space="preserve">
<g>
	<g>
		<path fill="#A00808" d="M1.5,27.5V6.513c0-1.103,0.897-2,2-2h7.897c0.477,0,0.945,0.163,1.319,0.46l3.668,3.238
			C16.646,8.417,16.818,8.5,17,8.5h10.5c1.103,0,2,0.897,2,2v17H1.5z"/>
		<g>
			<path fill="#FFFFFF" d="M11.397,5.013c0.366,0,0.722,0.124,1.009,0.351l3.648,3.222C16.341,8.813,16.634,9,17,9h10.5
				c0.828,0,1.5,0.672,1.5,1.5V27H2V6.513c0-0.828,0.672-1.5,1.5-1.5H11.397 M11.397,4.013H3.5c-1.378,0-2.5,1.122-2.5,2.5V27v1h1
				h27h1v-1V10.5C30,9.121,28.878,8,27.5,8H17c-0.027,0-0.102-0.024-0.305-0.183l-3.626-3.203l-0.02-0.018L13.027,4.58
				C12.565,4.214,11.986,4.013,11.397,4.013L11.397,4.013z"/>
		</g>
	</g>
</g>
<g>
	<path fill="#DF3324" d="M3,26h25V12c0-0.552-0.448-1-1-1H4c-0.552,0-1,0.448-1,1V26z"/>
</g>
<g>
	<polygon fill="#BC2424" points="3,26 28,26 28,13 	"/>
</g>
<g id="Ppt">
</g>
<g id="Small_Folder">
</g>
<path fill="#A00808" d="M15.5,12.893c-3.595,0-6.509,2.914-6.509,6.509s2.914,6.509,6.509,6.509s6.509-2.914,6.509-6.509
	S19.095,12.893,15.5,12.893z M10.438,19.402c0-1.135,0.389-2.173,1.022-3.018l7.059,7.059c-0.846,0.634-1.883,1.022-3.018,1.022
	C12.709,24.465,10.438,22.194,10.438,19.402z M19.541,22.42l-7.059-7.059c0.846-0.634,1.883-1.022,3.018-1.022
	c2.792,0,5.063,2.271,5.063,5.063C20.563,20.537,20.175,21.575,19.541,22.42z"/>
<g id="fave_icon_-_selected">
</g>
<path fill="#FFFFFF" d="M15.5,12c-3.595,0-6.509,2.914-6.509,6.509s2.914,6.509,6.509,6.509s6.509-2.914,6.509-6.509
	S19.095,12,15.5,12z M10.438,18.509c0-1.135,0.389-2.173,1.022-3.018l7.059,7.059c-0.846,0.634-1.883,1.022-3.018,1.022
	C12.709,23.572,10.438,21.301,10.438,18.509z M19.541,21.527l-7.059-7.059c0.846-0.634,1.883-1.022,3.018-1.022
	c2.792,0,5.063,2.271,5.063,5.063C20.563,19.644,20.175,20.682,19.541,21.527z"/>
</svg>
