<?xml version="1.0" encoding="utf-8"?>
<!-- Generator: Adobe Illustrator 19.1.0, SVG Export Plug-In . SVG Version: 6.00 Build 0)  -->
<!DOCTYPE svg PUBLIC "-//W3C//DTD SVG 1.1//EN" "http://www.w3.org/Graphics/SVG/1.1/DTD/svg11.dtd">
<svg version="1.1" id="Layer_1" xmlns="http://www.w3.org/2000/svg" xmlns:xlink="http://www.w3.org/1999/xlink" x="0px" y="0px"
	 viewBox="4 -4 32 32" enable-background="new 4 -4 32 32" xml:space="preserve">
<g>
	<circle fill="#DF3324" cx="20" cy="12" r="16"/>
</g>
<path fill="#FFFFFF" d="M27.11,16.707l-4.848-4.848l4.567-4.567c0.583-0.583,0.583-1.538,0-2.121s-1.538-0.583-2.121,0l-4.567,4.567
	L15.293,4.89c-0.583-0.583-1.538-0.583-2.121,0s-0.583,1.538,0,2.121l4.848,4.848l-5.13,5.13c-0.583,0.583-0.583,1.538,0,2.121
	s1.538,0.583,2.121,0l5.13-5.13l4.848,4.848c0.583,0.583,1.538,0.583,2.121,0S27.693,17.29,27.11,16.707z"/>
</svg>
