<?xml version="1.0" encoding="UTF-8" standalone="no"?><!DOCTYPE svg PUBLIC "-//W3C//DTD SVG 1.1//EN" "http://www.w3.org/Graphics/SVG/1.1/DTD/svg11.dtd"><svg width="100%" height="100%" viewBox="0 0 18 18" version="1.1" xmlns="http://www.w3.org/2000/svg" xmlns:xlink="http://www.w3.org/1999/xlink" xml:space="preserve" xmlns:serif="http://www.serif.com/" style="fill-rule:evenodd;clip-rule:evenodd;stroke-linejoin:round;stroke-miterlimit:2;"><g id="Layer_3"><path d="M8.292,14.333c-0.688,-0.005 -1.256,-0.562 -1.273,-1.25l0,-0.516c0.001,-0.096 0.012,-0.192 0.035,-0.285c0.016,-0.43 0.091,-0.856 0.221,-1.267c0.146,-0.477 0.502,-0.862 0.966,-1.045c0.414,-0.169 0.847,-0.287 1.289,-0.354c0.275,-0.04 0.545,-0.107 0.806,-0.2c0.081,-0.036 0.153,-0.09 0.211,-0.157c-0.144,-0.144 -0.272,-0.304 -0.381,-0.476c-0.197,-0.322 -0.341,-0.675 -0.425,-1.043c-0.099,-0.061 -0.183,-0.143 -0.248,-0.24c-0.112,-0.164 -0.187,-0.35 -0.22,-0.546c-0.049,-0.238 -0.029,-0.485 0.058,-0.712l0,-0.02c-0.047,-0.259 -0.062,-0.522 -0.044,-0.784c0.017,-0.299 0.061,-0.595 0.131,-0.886c0.148,-0.501 0.466,-0.935 0.9,-1.227c1.093,-0.744 2.539,-0.744 3.632,0c0.432,0.29 0.75,0.722 0.9,1.221c0.07,0.293 0.114,0.592 0.13,0.893c0.018,0.263 0.003,0.527 -0.045,0.786l0,0.02c0.085,0.226 0.104,0.472 0.056,0.709c-0.033,0.195 -0.107,0.38 -0.218,0.544c-0.065,0.093 -0.147,0.172 -0.243,0.233c-0.085,0.37 -0.231,0.724 -0.43,1.047c-0.108,0.173 -0.235,0.332 -0.379,0.476c0.058,0.068 0.13,0.122 0.211,0.158c0.262,0.093 0.532,0.16 0.807,0.2c0.442,0.068 0.875,0.187 1.289,0.355c0.465,0.185 0.823,0.571 0.972,1.049c0.134,0.428 0.211,0.873 0.228,1.321c0.016,0.075 0.024,0.152 0.023,0.229l0,0.49c-0.001,0.7 -0.576,1.275 -1.276,1.276l-7.683,0.001Z" style="fill:#333;fill-rule:nonzero;"/><path d="M12.135,3.021c0.597,-0.008 1.181,0.171 1.671,0.513c0.385,0.256 0.669,0.637 0.805,1.079c0.066,0.277 0.108,0.56 0.123,0.844c0.016,0.242 0.003,0.485 -0.041,0.724c-0.007,0.033 -0.014,0.066 -0.023,0.1c0.095,0.197 0.121,0.421 0.073,0.635c-0.027,0.159 -0.087,0.31 -0.176,0.444c-0.06,0.093 -0.15,0.163 -0.255,0.2c-0.075,0.384 -0.217,0.751 -0.42,1.085c-0.133,0.214 -0.3,0.405 -0.495,0.566c0.036,0.069 0.079,0.134 0.128,0.194c0.084,0.101 0.189,0.181 0.309,0.235c0.279,0.103 0.567,0.177 0.861,0.221c0.422,0.064 0.835,0.177 1.231,0.337c0.398,0.154 0.704,0.482 0.831,0.889c0.129,0.411 0.202,0.837 0.218,1.267c0.015,0.07 0.023,0.141 0.023,0.212l0,0.491c-0.002,0.562 -0.464,1.024 -1.026,1.026l-7.68,0c-0.552,-0.002 -1.009,-0.448 -1.024,-1l0,-0.021l0,-0.49c0,-0.077 0.01,-0.155 0.028,-0.23c0.016,-0.424 0.089,-0.845 0.217,-1.25c0.127,-0.407 0.433,-0.735 0.831,-0.889c0.396,-0.159 0.809,-0.272 1.231,-0.336c0.294,-0.044 0.582,-0.118 0.861,-0.221c0.119,-0.054 0.225,-0.134 0.309,-0.235c0.049,-0.059 0.092,-0.124 0.127,-0.192c-0.196,-0.161 -0.365,-0.353 -0.5,-0.568c-0.203,-0.334 -0.346,-0.701 -0.421,-1.085c-0.106,-0.036 -0.196,-0.106 -0.256,-0.2c-0.09,-0.134 -0.151,-0.286 -0.177,-0.446c-0.048,-0.215 -0.022,-0.439 0.075,-0.637c-0.008,-0.031 -0.015,-0.063 -0.021,-0.1c-0.043,-0.239 -0.056,-0.483 -0.04,-0.725c0.016,-0.285 0.058,-0.568 0.126,-0.845c0.135,-0.442 0.42,-0.823 0.805,-1.078c0.49,-0.342 1.074,-0.521 1.671,-0.513m0,-0.5c-0.701,-0.009 -1.387,0.203 -1.961,0.605c-0.482,0.325 -0.835,0.807 -1,1.364c-0.075,0.308 -0.122,0.622 -0.14,0.939c-0.017,0.267 -0.004,0.536 0.039,0.8c-0.078,0.249 -0.093,0.514 -0.044,0.77c0.039,0.232 0.128,0.452 0.261,0.646c0.064,0.092 0.141,0.173 0.229,0.242c0.092,0.361 0.238,0.705 0.433,1.022c0.065,0.104 0.137,0.205 0.215,0.3c-0.224,0.069 -0.453,0.122 -0.684,0.16c-0.463,0.07 -0.915,0.196 -1.348,0.374c-0.528,0.215 -0.932,0.656 -1.1,1.2c-0.135,0.428 -0.213,0.872 -0.233,1.32c-0.021,0.099 -0.032,0.199 -0.032,0.3l0,0.552c0.038,0.81 0.711,1.457 1.522,1.463l7.682,0c0.836,0 1.524,-0.686 1.527,-1.522l0,-0.491c0,-0.094 -0.009,-0.187 -0.026,-0.279c-0.02,-0.456 -0.099,-0.907 -0.235,-1.342c-0.168,-0.544 -0.572,-0.985 -1.1,-1.2c-0.431,-0.178 -0.882,-0.303 -1.343,-0.373c-0.235,-0.038 -0.468,-0.092 -0.696,-0.162c0.078,-0.095 0.149,-0.196 0.214,-0.3c0.195,-0.317 0.341,-0.663 0.433,-1.024c0.087,-0.068 0.164,-0.149 0.227,-0.24c0.133,-0.194 0.223,-0.414 0.263,-0.646c0.051,-0.258 0.036,-0.524 -0.043,-0.775c0.044,-0.264 0.058,-0.533 0.041,-0.8c-0.017,-0.315 -0.063,-0.628 -0.137,-0.935c-0.164,-0.558 -0.518,-1.042 -1,-1.368c-0.574,-0.402 -1.26,-0.614 -1.961,-0.605l-0.003,0.005Z" style="fill:#fff;fill-rule:nonzero;"/><path d="M2.026,14.457c-0.756,-0.004 -1.381,-0.616 -1.4,-1.372l0,-0.519c0,-0.105 0.013,-0.21 0.038,-0.313c0.015,-0.433 0.09,-0.861 0.222,-1.273c0.158,-0.511 0.538,-0.923 1.034,-1.123c0.421,-0.172 0.861,-0.293 1.31,-0.363c0.268,-0.041 0.53,-0.108 0.785,-0.2c0.03,-0.012 0.058,-0.027 0.085,-0.044c-0.115,-0.125 -0.219,-0.261 -0.309,-0.405c-0.196,-0.319 -0.341,-0.666 -0.429,-1.03c-0.092,-0.065 -0.172,-0.145 -0.236,-0.237c-0.123,-0.18 -0.205,-0.385 -0.241,-0.6c-0.049,-0.248 -0.032,-0.506 0.051,-0.745c-0.046,-0.264 -0.06,-0.533 -0.043,-0.8c0.017,-0.31 0.063,-0.618 0.137,-0.919c0.158,-0.526 0.494,-0.98 0.95,-1.285c0.553,-0.387 1.214,-0.591 1.889,-0.583c0.675,-0.008 1.336,0.196 1.889,0.583c0.458,0.307 0.794,0.765 0.951,1.293c0.072,0.3 0.117,0.607 0.134,0.915c0.017,0.268 0.002,0.536 -0.045,0.8c0.081,0.238 0.098,0.494 0.049,0.741c-0.037,0.213 -0.119,0.416 -0.24,0.595c-0.064,0.092 -0.144,0.173 -0.235,0.238c-0.088,0.364 -0.233,0.712 -0.429,1.031c-0.09,0.142 -0.193,0.276 -0.307,0.4c0.026,0.019 0.054,0.036 0.084,0.049c0.253,0.092 0.513,0.159 0.779,0.2c0.452,0.068 0.895,0.191 1.318,0.364c0.496,0.2 0.876,0.613 1.034,1.123c0.136,0.437 0.214,0.89 0.232,1.348c0.017,0.078 0.025,0.158 0.023,0.238l0,0.49c0,0.768 -0.632,1.4 -1.4,1.4l-7.68,0.003Z" style="fill:#333;fill-rule:nonzero;"/><path d="M5.869,3.021c0.597,-0.008 1.181,0.171 1.671,0.513c0.385,0.256 0.669,0.637 0.805,1.079c0.066,0.277 0.108,0.56 0.123,0.844c0.016,0.242 0.003,0.485 -0.041,0.724c-0.007,0.033 -0.014,0.066 -0.023,0.1c0.095,0.197 0.121,0.421 0.073,0.635c-0.027,0.159 -0.087,0.31 -0.176,0.444c-0.06,0.093 -0.15,0.163 -0.255,0.2c-0.075,0.384 -0.217,0.751 -0.42,1.085c-0.133,0.214 -0.3,0.405 -0.495,0.566c0.036,0.069 0.079,0.134 0.128,0.194c0.084,0.101 0.189,0.181 0.309,0.235c0.279,0.103 0.567,0.177 0.861,0.221c0.422,0.064 0.835,0.177 1.231,0.337c0.398,0.154 0.704,0.482 0.831,0.889c0.129,0.411 0.202,0.837 0.218,1.267c0.015,0.07 0.023,0.141 0.023,0.212l0,0.49c-0.002,0.562 -0.464,1.024 -1.026,1.026l-7.68,0c-0.552,-0.002 -1.009,-0.448 -1.024,-1l0,-0.021l0,-0.49c0,-0.077 0.01,-0.155 0.028,-0.23c0.016,-0.424 0.089,-0.845 0.217,-1.25c0.127,-0.407 0.433,-0.735 0.831,-0.889c0.396,-0.16 0.809,-0.273 1.231,-0.337c0.294,-0.044 0.582,-0.118 0.861,-0.221c0.119,-0.054 0.225,-0.134 0.309,-0.235c0.047,-0.061 0.088,-0.126 0.121,-0.196c-0.196,-0.161 -0.365,-0.353 -0.5,-0.568c-0.203,-0.334 -0.346,-0.701 -0.421,-1.085c-0.106,-0.036 -0.196,-0.106 -0.256,-0.2c-0.09,-0.134 -0.15,-0.286 -0.177,-0.446c-0.048,-0.215 -0.022,-0.439 0.075,-0.637c-0.008,-0.031 -0.015,-0.063 -0.021,-0.1c-0.043,-0.239 -0.056,-0.482 -0.04,-0.724c0.016,-0.285 0.058,-0.568 0.126,-0.845c0.138,-0.442 0.426,-0.821 0.814,-1.074c0.49,-0.342 1.075,-0.521 1.672,-0.513m0,-0.75c-0.753,-0.009 -1.489,0.219 -2.106,0.651c-0.531,0.359 -0.92,0.892 -1.1,1.507c-0.079,0.323 -0.129,0.654 -0.147,0.986c-0.016,0.263 -0.006,0.527 0.032,0.788c-0.077,0.275 -0.088,0.563 -0.034,0.843c0.045,0.267 0.147,0.522 0.3,0.746c0.062,0.087 0.133,0.168 0.213,0.239c0.098,0.357 0.247,0.698 0.442,1.013l0.011,0.017c-0.1,0.022 -0.211,0.043 -0.315,0.062c-0.482,0.075 -0.954,0.206 -1.405,0.392c-0.596,0.244 -1.051,0.744 -1.238,1.36c-0.138,0.44 -0.22,0.896 -0.242,1.357c-0.022,0.11 -0.034,0.222 -0.034,0.335l0,0.58c0.053,0.936 0.834,1.679 1.771,1.686l7.688,0c0.974,-0.001 1.775,-0.802 1.776,-1.776l0,-0.49c0,-0.104 -0.01,-0.208 -0.028,-0.31c-0.022,-0.469 -0.103,-0.934 -0.243,-1.382c-0.187,-0.615 -0.643,-1.115 -1.238,-1.358c-0.449,-0.186 -0.919,-0.317 -1.4,-0.391c-0.107,-0.021 -0.219,-0.042 -0.324,-0.064l0.011,-0.017c0.194,-0.316 0.341,-0.658 0.438,-1.016c0.079,-0.071 0.15,-0.15 0.211,-0.237c0.153,-0.224 0.255,-0.478 0.3,-0.745c0.053,-0.278 0.042,-0.564 -0.033,-0.837c0.039,-0.263 0.05,-0.529 0.034,-0.794c-0.018,-0.331 -0.067,-0.66 -0.144,-0.982c-0.176,-0.618 -0.566,-1.154 -1.1,-1.511c-0.616,-0.432 -1.353,-0.66 -2.106,-0.652l0.01,0Z" style="fill:#fff;fill-rule:nonzero;"/></g></svg>