<?xml version="1.0" encoding="UTF-8" standalone="no"?><!DOCTYPE svg PUBLIC "-//W3C//DTD SVG 1.1//EN" "http://www.w3.org/Graphics/SVG/1.1/DTD/svg11.dtd"><svg width="100%" height="100%" viewBox="0 0 18 18" version="1.1" xmlns="http://www.w3.org/2000/svg" xmlns:xlink="http://www.w3.org/1999/xlink" xml:space="preserve" xmlns:serif="http://www.serif.com/" style="fill-rule:evenodd;clip-rule:evenodd;stroke-linejoin:round;stroke-miterlimit:2;"><g id="Layer_3"><path d="M4.6,15.375c-0.837,-0.006 -1.527,-0.684 -1.548,-1.52l0,-0.593c0.001,-0.117 0.015,-0.234 0.042,-0.348c0.018,-0.495 0.103,-0.985 0.254,-1.456c0.177,-0.568 0.6,-1.028 1.152,-1.252c0.482,-0.196 0.985,-0.335 1.5,-0.413c0.307,-0.046 0.608,-0.123 0.9,-0.228c0.056,-0.025 0.107,-0.059 0.153,-0.1c-0.146,-0.153 -0.276,-0.321 -0.388,-0.5c-0.225,-0.367 -0.39,-0.767 -0.49,-1.185c-0.107,-0.073 -0.201,-0.165 -0.275,-0.271c-0.135,-0.199 -0.226,-0.426 -0.266,-0.663c-0.055,-0.28 -0.032,-0.571 0.066,-0.839c-0.054,-0.302 -0.072,-0.61 -0.052,-0.917c0.019,-0.35 0.07,-0.697 0.152,-1.038c0.176,-0.594 0.555,-1.107 1.069,-1.452c1.284,-0.876 2.983,-0.876 4.267,0c0.514,0.344 0.893,0.857 1.07,1.45c0.082,0.341 0.133,0.689 0.152,1.04c0.02,0.308 0.002,0.617 -0.054,0.92c0.095,0.269 0.116,0.558 0.06,0.837c-0.041,0.236 -0.131,0.461 -0.265,0.659c-0.073,0.107 -0.166,0.199 -0.273,0.271c-0.099,0.419 -0.265,0.821 -0.49,1.188c-0.112,0.179 -0.241,0.347 -0.386,0.5c0.047,0.041 0.1,0.075 0.157,0.1c0.292,0.105 0.593,0.181 0.9,0.227c0.515,0.077 1.018,0.216 1.5,0.413c0.553,0.223 0.977,0.684 1.155,1.253c0.155,0.497 0.244,1.013 0.264,1.533c0.019,0.089 0.029,0.179 0.027,0.27l0,0.563c-0.001,0.851 -0.701,1.551 -1.552,1.551c0,0 -0.001,0 -0.001,0l-8.8,0Z" style="fill:#333;fill-rule:nonzero;"/><path d="M9,2.318c0.684,-0.009 1.355,0.196 1.916,0.588c0.442,0.293 0.768,0.73 0.923,1.237c0.076,0.318 0.124,0.642 0.142,0.968c0.019,0.278 0.003,0.556 -0.047,0.83c-0.008,0.038 -0.016,0.076 -0.026,0.113c0.11,0.226 0.139,0.483 0.084,0.728c-0.03,0.182 -0.098,0.355 -0.2,0.509c-0.069,0.108 -0.171,0.19 -0.292,0.232c-0.086,0.44 -0.249,0.861 -0.482,1.244c-0.153,0.246 -0.344,0.465 -0.567,0.649c0.041,0.079 0.09,0.153 0.146,0.222c0.096,0.116 0.218,0.208 0.355,0.27c0.32,0.118 0.651,0.203 0.988,0.253c0.484,0.073 0.957,0.203 1.411,0.386c0.456,0.177 0.807,0.552 0.953,1.019c0.148,0.471 0.232,0.96 0.25,1.453c0.017,0.08 0.026,0.161 0.026,0.243l0,0.562c-0.002,0.646 -0.534,1.177 -1.18,1.176l-8.8,0c-0.635,-0.002 -1.16,-0.517 -1.174,-1.152l0,-0.024l0,-0.562c-0.001,-0.088 0.008,-0.176 0.027,-0.262c0.018,-0.487 0.101,-0.969 0.247,-1.434c0.146,-0.467 0.497,-0.842 0.953,-1.019c0.454,-0.183 0.927,-0.313 1.411,-0.386c0.337,-0.05 0.668,-0.135 0.988,-0.253c0.137,-0.062 0.259,-0.154 0.355,-0.27c0.056,-0.068 0.105,-0.142 0.145,-0.22c-0.224,-0.185 -0.416,-0.405 -0.569,-0.651c-0.233,-0.383 -0.396,-0.804 -0.483,-1.244c-0.121,-0.041 -0.225,-0.123 -0.294,-0.231c-0.104,-0.154 -0.175,-0.328 -0.206,-0.511c-0.055,-0.246 -0.025,-0.504 0.086,-0.73c-0.009,-0.036 -0.017,-0.073 -0.025,-0.11c-0.049,-0.274 -0.065,-0.552 -0.046,-0.83c0.019,-0.326 0.067,-0.65 0.144,-0.968c0.155,-0.506 0.481,-0.944 0.923,-1.236c0.562,-0.392 1.233,-0.598 1.918,-0.589m0,-0.75c-0.84,-0.01 -1.663,0.244 -2.351,0.726c-0.586,0.397 -1.016,0.986 -1.214,1.665c-0.089,0.364 -0.144,0.736 -0.165,1.11c-0.019,0.303 -0.006,0.606 0.039,0.906c-0.09,0.305 -0.105,0.627 -0.044,0.939c0.049,0.291 0.162,0.568 0.329,0.811c0.072,0.102 0.157,0.194 0.252,0.275c0.109,0.411 0.278,0.803 0.5,1.165c0.032,0.051 0.065,0.101 0.1,0.15c-0.156,0.038 -0.34,0.073 -0.521,0.107c-0.544,0.084 -1.077,0.232 -1.586,0.441c-0.654,0.266 -1.154,0.814 -1.36,1.489c-0.156,0.499 -0.248,1.016 -0.273,1.539c-0.025,0.121 -0.038,0.245 -0.038,0.369l0,0.653c0.053,1.022 0.908,1.835 1.932,1.837l8.8,0c1.056,-0.001 1.925,-0.87 1.926,-1.926l0,-0.562c0,-0.115 -0.01,-0.229 -0.031,-0.342c-0.023,-0.532 -0.116,-1.059 -0.275,-1.567c-0.206,-0.674 -0.706,-1.221 -1.359,-1.488c-0.507,-0.21 -1.038,-0.357 -1.58,-0.44c-0.185,-0.036 -0.372,-0.071 -0.53,-0.11c0.034,-0.049 0.067,-0.099 0.1,-0.15c0.224,-0.362 0.394,-0.754 0.505,-1.165c0.094,-0.081 0.178,-0.173 0.249,-0.274c0.167,-0.243 0.278,-0.519 0.328,-0.81c0.06,-0.31 0.046,-0.63 -0.042,-0.933c0.047,-0.302 0.061,-0.607 0.042,-0.912c-0.021,-0.372 -0.075,-0.742 -0.162,-1.105c-0.198,-0.681 -0.629,-1.272 -1.217,-1.67c-0.689,-0.483 -1.513,-0.738 -2.354,-0.728Z" style="fill:#fff;fill-rule:nonzero;"/></g></svg>