<svg data-name="Layer 1" xmlns="http://www.w3.org/2000/svg" viewBox="0 0 32 32"><title>mime_perspective_asset_volume_nonselectable32</title><path d="M2.406,28.34V10.851l5.45-8.782H24.1l5.449,8.782V28.34ZM26.868,10.493,22.914,4.122H9.04L5.086,10.493Z" fill="#848484"/><path d="M23.819,2.57l5.228,8.423V27.84H2.906V10.993L8.134,2.57H23.819M4.187,10.993h23.58l-4.575-7.37H8.762l-4.575,7.37M24.375,1.57H7.578l-.293.472L2.056,10.466l-.15.242V28.84H30.047V10.708l-.15-.242L24.669,2.042l-.294-.472Z" fill="#fff"/><polygon points="10.226 4.675 9.598 5.728 22.355 5.728 21.728 4.675 10.226 4.675 10.226 4.675" fill="#9c9c9c"/><polygon points="8.866 6.781 8.239 7.834 23.715 7.834 23.087 6.781 8.866 6.781 8.866 6.781" fill="#9c9c9c"/><polygon points="7.612 8.887 6.984 9.94 24.969 9.94 24.342 8.887 7.612 8.887 7.612 8.887" fill="#9c9c9c"/><polygon points="20.702 16.843 20.702 13.767 17.647 13.767 17.647 14.677 11.964 14.677 11.964 19.013 9.698 19.013 9.698 20.325 11.964 20.325 11.964 24.605 16.972 24.605 16.972 25.515 20.027 25.515 20.027 22.439 16.972 22.439 16.972 23.349 13.211 23.349 13.211 20.325 13.211 20.269 14.51 20.269 14.51 21.179 17.564 21.179 17.564 18.103 14.51 18.103 14.51 19.013 13.211 19.013 13.211 15.933 17.647 15.933 17.647 16.843 20.702 16.843" fill="#fff"/><path d="M29.218,16.981a9.037,9.037,0,0,0-4.9-1.512A8.827,8.827,0,0,0,15.5,24.3a9.057,9.057,0,0,0,.85,3.748l12.906.065Z" fill="#fff"/><path d="M24.129,16.574a7.5,7.5,0,1,0,7.5,7.5A7.5,7.5,0,0,0,24.129,16.574Zm0,13a5.5,5.5,0,0,1-4.53-8.62l7.65,7.65A5.493,5.493,0,0,1,24.129,29.574Zm4.53-2.38-7.65-7.65a5.5,5.5,0,0,1,7.65,7.65Z" fill="#cd3632"/></svg>