<?xml version="1.0" encoding="utf-8"?>
<!-- Generator: Adobe Illustrator 18.1.1, SVG Export Plug-In . SVG Version: 6.00 Build 0)  -->
<svg version="1.1" id="Layer_1" xmlns="http://www.w3.org/2000/svg" xmlns:xlink="http://www.w3.org/1999/xlink" x="0px" y="0px"
	 viewBox="0 0 24 24" enable-background="new 0 0 24 24" xml:space="preserve">
<symbol  id="Xls_icon_2" viewBox="-0.2386 -15.2361 16.04 15.6114">
	<g>
		<g>
			<path fill="none" stroke="#0072AA" stroke-width="0.75" stroke-miterlimit="10" d="M4.8613-11.5527c-0.55,0-1.45,0-2,0h-1.725
				c-0.55,0-1,0.45-1,1v5.5518c0,0.55,0.45,1,1,1h13.29c0.55,0,1-0.45,1-1v-5.5518c0-0.55-0.45-1-1-1h-0.9088c-0.55,0-1.45,0-2,0
				H4.8613z"/>
		</g>
		<g>
			<path fill="none" stroke="#0072AA" stroke-width="0.75" stroke-miterlimit="10" d="M2.9946-4.0009v3.0011c0,0.55,0.45,1,1,1
				h7.5735c0.55,0,1-0.45,1-1v-3.0011"/>
		</g>
		<g>
			
				<path fill="#FFFFFF" stroke="#0072AA" stroke-width="0.75" stroke-linecap="round" stroke-linejoin="round" stroke-miterlimit="10" d="
				M11.6753-8.9301c0,0,0.1255-5.9311,1.004-5.9311c0.8785,0-10.9231,0-9.7622,0s1,5.9311,1,5.9311H11.6753z"/>
		</g>
		<path fill="#0072AA" d="M12.7189-6.4656c0-0.2674-0.2167-0.4841-0.4841-0.4841s-0.4841,0.2167-0.4841,0.4841
			c0,0.2674,0.2167,0.4841,0.4841,0.4841S12.7189-6.1982,12.7189-6.4656z"/>
	</g>
</symbol>
<use xlink:href="#Xls_icon_2"  width="16.04" height="15.6114" id="XMLID_22_" x="-0.2386" y="-15.2361" transform="matrix(1.4836 0 0 -1.4836 0.4653 0.9952)" overflow="visible"/>
</svg>
