<svg width="46" height="46" viewBox="0 0 46 46" fill="none" xmlns="http://www.w3.org/2000/svg">
<g filter="url(#filter0_d)">
<path d="M44 23C44 34.598 34.598 44 23 44C11.402 44 2 34.598 2 23C2 11.402 11.402 2 23 2C34.598 2 44 11.402 44 23ZM5.99 23C5.99 32.3944 13.6056 40.01 23 40.01C32.3944 40.01 40.01 32.3944 40.01 23C40.01 13.6056 32.3944 5.99 23 5.99C13.6056 5.99 5.99 13.6056 5.99 23Z" fill="#004267"/>
</g>
<g filter="url(#filter1_d)">
<path d="M44 23C44 34.598 34.598 44 23 44C11.402 44 2 34.598 2 23C2 11.402 11.402 2 23 2C34.598 2 44 11.402 44 23ZM5.99 23C5.99 32.3944 13.6056 40.01 23 40.01C32.3944 40.01 40.01 32.3944 40.01 23C40.01 13.6056 32.3944 5.99 23 5.99C13.6056 5.99 5.99 13.6056 5.99 23Z" fill="#99E3E3"/>
</g>
<path d="M20.2192 28.5703L15.2932 23.6453C15.1056 23.4578 15.0001 23.2034 15 22.9381C15 22.8068 15.0258 22.6767 15.076 22.5554C15.1262 22.434 15.1999 22.3237 15.2927 22.2308C15.3855 22.1379 15.4958 22.0642 15.6171 22.0139C15.7384 21.9635 15.8685 21.9376 15.9998 21.9376C16.2651 21.9375 16.5196 22.0428 16.7072 22.2303L20.2192 25.7423L28.6552 17.3053C28.7474 17.2098 28.8578 17.1336 28.9798 17.0812C29.1018 17.0288 29.233 17.0012 29.3658 17C29.4986 16.9989 29.6303 17.0242 29.7532 17.0745C29.8761 17.1247 29.9877 17.199 30.0816 17.2929C30.1755 17.3868 30.2497 17.4984 30.3 17.6213C30.3503 17.7442 30.3756 17.8759 30.3745 18.0087C30.3733 18.1415 30.3457 18.2727 30.2933 18.3947C30.2409 18.5167 30.1647 18.627 30.0692 18.7193L20.2192 28.5703Z" fill="white"/>
<defs>
<filter id="filter0_d" x="0" y="0" width="46" height="46" filterUnits="userSpaceOnUse" color-interpolation-filters="sRGB">
<feFlood flood-opacity="0" result="BackgroundImageFix"/>
<feColorMatrix in="SourceAlpha" type="matrix" values="0 0 0 0 0 0 0 0 0 0 0 0 0 0 0 0 0 0 127 0"/>
<feOffset/>
<feGaussianBlur stdDeviation="1"/>
<feColorMatrix type="matrix" values="0 0 0 0 0 0 0 0 0 0 0 0 0 0 0 0 0 0 0.3 0"/>
<feBlend mode="normal" in2="BackgroundImageFix" result="effect1_dropShadow"/>
<feBlend mode="normal" in="SourceGraphic" in2="effect1_dropShadow" result="shape"/>
</filter>
<filter id="filter1_d" x="0" y="0" width="46" height="46" filterUnits="userSpaceOnUse" color-interpolation-filters="sRGB">
<feFlood flood-opacity="0" result="BackgroundImageFix"/>
<feColorMatrix in="SourceAlpha" type="matrix" values="0 0 0 0 0 0 0 0 0 0 0 0 0 0 0 0 0 0 127 0"/>
<feOffset/>
<feGaussianBlur stdDeviation="1"/>
<feColorMatrix type="matrix" values="0 0 0 0 0 0 0 0 0 0 0 0 0 0 0 0 0 0 0.7 0"/>
<feBlend mode="normal" in2="BackgroundImageFix" result="effect1_dropShadow"/>
<feBlend mode="normal" in="SourceGraphic" in2="effect1_dropShadow" result="shape"/>
</filter>
</defs>
</svg>
