<svg width="46" height="46" viewBox="0 0 46 46" fill="none" xmlns="http://www.w3.org/2000/svg">
<g filter="url(#filter0_d)">
<path d="M44 23C44 34.598 34.598 44 23 44C11.402 44 2 34.598 2 23C2 11.402 11.402 2 23 2C34.598 2 44 11.402 44 23ZM5.99 23C5.99 32.3944 13.6056 40.01 23 40.01C32.3944 40.01 40.01 32.3944 40.01 23C40.01 13.6056 32.3944 5.99 23 5.99C13.6056 5.99 5.99 13.6056 5.99 23Z" fill="#004267"/>
</g>
<g filter="url(#filter1_d)">
<path d="M44 23C44 34.598 34.598 44 23 44C11.402 44 2 34.598 2 23C2 11.402 11.402 2 23 2C34.598 2 44 11.402 44 23ZM5.99 23C5.99 32.3944 13.6056 40.01 23 40.01C32.3944 40.01 40.01 32.3944 40.01 23C40.01 13.6056 32.3944 5.99 23 5.99C13.6056 5.99 5.99 13.6056 5.99 23Z" fill="#F2ADA7"/>
</g>
<path d="M23 30.1C23.7179 30.1 24.3 29.518 24.3 28.8C24.3 28.082 23.7179 27.5 23 27.5C22.282 27.5 21.7 28.082 21.7 28.8C21.7 29.518 22.282 30.1 23 30.1Z" fill="white"/>
<path d="M21.8 24.1V16.3C21.8 15.6 22.3 15 23 15C23.7 15 24.3 15.6 24.3 16.3V24.1C24.3 24.8 23.7 25.4 23 25.4C22.3 25.3 21.8 24.8 21.8 24.1Z" fill="white"/>
<defs>
<filter id="filter0_d" x="0" y="0" width="46" height="46" filterUnits="userSpaceOnUse" color-interpolation-filters="sRGB">
<feFlood flood-opacity="0" result="BackgroundImageFix"/>
<feColorMatrix in="SourceAlpha" type="matrix" values="0 0 0 0 0 0 0 0 0 0 0 0 0 0 0 0 0 0 127 0"/>
<feOffset/>
<feGaussianBlur stdDeviation="1"/>
<feColorMatrix type="matrix" values="0 0 0 0 0 0 0 0 0 0 0 0 0 0 0 0 0 0 0.3 0"/>
<feBlend mode="normal" in2="BackgroundImageFix" result="effect1_dropShadow"/>
<feBlend mode="normal" in="SourceGraphic" in2="effect1_dropShadow" result="shape"/>
</filter>
<filter id="filter1_d" x="0" y="0" width="46" height="46" filterUnits="userSpaceOnUse" color-interpolation-filters="sRGB">
<feFlood flood-opacity="0" result="BackgroundImageFix"/>
<feColorMatrix in="SourceAlpha" type="matrix" values="0 0 0 0 0 0 0 0 0 0 0 0 0 0 0 0 0 0 127 0"/>
<feOffset/>
<feGaussianBlur stdDeviation="1"/>
<feColorMatrix type="matrix" values="0 0 0 0 0 0 0 0 0 0 0 0 0 0 0 0 0 0 0.7 0"/>
<feBlend mode="normal" in2="BackgroundImageFix" result="effect1_dropShadow"/>
<feBlend mode="normal" in="SourceGraphic" in2="effect1_dropShadow" result="shape"/>
</filter>
</defs>
</svg>
