<svg version="1.1" xmlns="http://www.w3.org/2000/svg" xmlns:xlink="http://www.w3.org/1999/xlink" x="0px" y="0px" viewBox="0 0 18 18" style="enable-background:new 0 0 18 18;" xml:space="preserve"><g><path d="M9,16.5c-4.136,0-7.5-3.364-7.5-7.5S4.864,1.5,9,1.5s7.5,3.364,7.5,7.5S13.136,16.5,9,16.5z" opacity="0.75" fill="#333333" enable-background="new"/><path d="M9,1C4.582,1,1,4.582,1,9s3.582,8,8,8s8-3.582,8-8S13.418,1,9,1z M9,16c-1.75,0-3.349-0.65-4.577-1.716
		L11.5,7.207V12c0,0.276,0.224,0.5,0.5,0.5s0.5-0.224,0.5-0.5V5.5H6C5.724,5.5,5.5,5.724,5.5,6S5.724,6.5,6,6.5h4.793l-7.077,7.077
		C2.65,12.349,2,10.75,2,9c0-3.86,3.14-7,7-7s7,3.14,7,7S12.86,16,9,16z" fill="#FFFFFF"/></g></svg>