<?xml version="1.0" encoding="utf-8"?>
<!-- Generator: Adobe Illustrator 19.1.0, SVG Export Plug-In . SVG Version: 6.00 Build 0)  -->
<!DOCTYPE svg PUBLIC "-//W3C//DTD SVG 1.1//EN" "http://www.w3.org/Graphics/SVG/1.1/DTD/svg11.dtd">
<svg version="1.1" id="Layer_1" xmlns="http://www.w3.org/2000/svg" xmlns:xlink="http://www.w3.org/1999/xlink" x="0px" y="0px"
	 viewBox="0 0 18 18" enable-background="new 0 0 18 18" xml:space="preserve">
<g id="New_Symbol_12">
	<g>
		<path fill="#CCCCCC" d="M9,17.5c-4.687,0-8.5-3.813-8.5-8.5S4.313,0.5,9,0.5s8.5,3.813,8.5,8.5S13.687,17.5,9,17.5z"/>
		<g>
			<path fill="#A9A9A9" d="M9,1c4.411,0,8,3.589,8,8s-3.589,8-8,8s-8-3.589-8-8S4.589,1,9,1 M9,0C4.029,0,0,4.029,0,9s4.029,9,9,9
				s9-4.029,9-9S13.971,0,9,0L9,0z"/>
		</g>
	</g>
</g>
</svg>
