<svg xmlns="http://www.w3.org/2000/svg" viewBox="0 0 24 24"><title>reserved_owned_md</title><path d="M20,10H19V6.7A6.7,6.7,0,0,0,12.3,0h-.6A6.7,6.7,0,0,0,5,6.7V10H4a.945.945,0,0,0-1,1V23a.945.945,0,0,0,1,1H20a.945.945,0,0,0,1-1V11A.945.945,0,0,0,20,10ZM7,6.7A4.7,4.7,0,0,1,11.7,2h.6A4.7,4.7,0,0,1,17,6.7V10H7Z" fill="#232e72"/><path d="M16.4,20.8v-.2h0a3.6,3.6,0,0,0-.2-1.1,1.208,1.208,0,0,0-.7-.7c-.4-.1-.7-.2-1.1-.3a1.884,1.884,0,0,1-.8-.2c-.1-.1-.3-.2-.4-.3s-.1-.1-.1-.2l-.1-.2.1-.1a1,1,0,0,0,.4-.5,3,3,0,0,0,.4-1v-.1H14a.1.1,0,0,0,.1-.1.367.367,0,0,0,.1-.3v-.8c0-.2.1-.4,0-.6,0-.3-.1-.5-.1-.8a1.6,1.6,0,0,0-.7-.9,2.561,2.561,0,0,0-2.9,0,1.6,1.6,0,0,0-.7.9,1.949,1.949,0,0,0-.1.8V15a.446.446,0,0,0,0,.5c0,.1.1.2.1.3a.1.1,0,0,0,.1.1H10V16a4.179,4.179,0,0,0,.4,1,2.181,2.181,0,0,0,.4.5l.1.1.1.1c0,.1-.1.1-.1.2a1.38,1.38,0,0,1-.4.3,3.091,3.091,0,0,1-.8.2c-.4.1-.8.2-1.1.3a1.208,1.208,0,0,0-.7.7,4.253,4.253,0,0,0-.2,1.1v.7a.709.709,0,0,0,.7.8h7.2a.86.86,0,0,0,.8-.8h0Z" fill="#fff"/></svg>