<svg version="1.1" xmlns="http://www.w3.org/2000/svg" xmlns:xlink="http://www.w3.org/1999/xlink" x="0px" y="0px" viewBox="0 0 18 18" style="enable-background:new 0 0 18 18;" xml:space="preserve"><path d="M17.212,16.364l-4.507-4.507c1-1.191,1.604-2.724,1.604-4.397c0-3.777-3.072-6.85-6.85-6.85
	c-3.776,0-6.849,3.073-6.849,6.85s3.072,6.85,6.849,6.85c1.673,0,3.207-0.605,4.397-1.605l4.507,4.507
	c0.117,0.117,0.271,0.176,0.424,0.176s0.307-0.059,0.424-0.176C17.447,16.979,17.447,16.599,17.212,16.364z M7.46,13.11
	c-3.115,0-5.649-2.534-5.649-5.649S4.345,1.812,7.46,1.812s5.65,2.534,5.65,5.649S10.576,13.11,7.46,13.11z" fill="#333333"/></svg>