<?xml version="1.0" encoding="utf-8"?>
<!-- Generator: Adobe Illustrator 18.1.0, SVG Export Plug-In . SVG Version: 6.00 Build 0)  -->
<!DOCTYPE svg PUBLIC "-//W3C//DTD SVG 1.1//EN" "http://www.w3.org/Graphics/SVG/1.1/DTD/svg11.dtd">
<svg version="1.1" id="Layer_1" xmlns="http://www.w3.org/2000/svg" xmlns:xlink="http://www.w3.org/1999/xlink" x="0px" y="0px"
	 viewBox="0 0 24 24" enable-background="new 0 0 24 24" xml:space="preserve">
<path fill="#333333" d="M22.438,13.5v-3h-3.103c-0.201-0.949-0.58-1.831-1.103-2.61l2.209-2.209L18.32,3.559l-2.225,2.225
	c-0.778-0.508-1.653-0.879-2.595-1.071V1.562h-3v3.151C9.558,4.904,8.683,5.275,7.905,5.784L5.68,3.559L3.559,5.68L5.768,7.89
	C5.246,8.669,4.867,9.551,4.665,10.5H1.562v3h3.079c0.188,0.965,0.561,1.863,1.08,2.658L3.559,18.32l2.121,2.121l2.147-2.147
	c0.796,0.534,1.7,0.92,2.673,1.118v3.026h3v-3.026c0.973-0.198,1.877-0.584,2.673-1.118l2.147,2.147l2.121-2.121l-2.162-2.162
	c0.519-0.795,0.893-1.692,1.08-2.658H22.438z M12,16.562c-2.481,0-4.5-2.019-4.5-4.5s2.019-4.5,4.5-4.5s4.5,2.019,4.5,4.5
	S14.481,16.562,12,16.562z"/>
<g id="metadata">
</g>
</svg>
