<svg id="Layer_1" data-name="Layer 1" xmlns="http://www.w3.org/2000/svg" viewBox="0 0 24 24"><title>collaborate24</title><path d="M20,10H19V6.7A6.7,6.7,0,0,0,12.3,0h-.6A6.7,6.7,0,0,0,5,6.7V10H4a.945.945,0,0,0-1,1V23a.945.945,0,0,0,1,1H20a.945.945,0,0,0,1-1V11A.945.945,0,0,0,20,10ZM7,6.7A4.7,4.7,0,0,1,11.7,2h.6A4.7,4.7,0,0,1,17,6.7V10H7Z" style="fill:#c95427"/><path d="M15,18a1.987,1.987,0,0,0-1.5.691l-2.545-1.272a1.951,1.951,0,0,0,0-.836L13.5,15.309a1.973,1.973,0,1,0-.454-.891L10.5,15.691a2,2,0,1,0,0,2.619l2.545,1.272A2,2,0,1,0,15,18Z" style="fill:#fff"/></svg>