<?xml version="1.0" encoding="UTF-8" standalone="no"?><!DOCTYPE svg PUBLIC "-//W3C//DTD SVG 1.1//EN" "http://www.w3.org/Graphics/SVG/1.1/DTD/svg11.dtd"><svg width="100%" height="100%" viewBox="0 0 32 32" version="1.1" xmlns="http://www.w3.org/2000/svg" xmlns:xlink="http://www.w3.org/1999/xlink" xml:space="preserve" xmlns:serif="http://www.serif.com/" style="fill-rule:evenodd;clip-rule:evenodd;stroke-linejoin:round;stroke-miterlimit:2;"><circle cx="16" cy="16" r="14" style="fill:none;"/><path d="M6.873,14.571l6.826,0c0.481,0 0.872,-0.391 0.872,-0.872l0,-6.826c0,-0.482 -0.391,-0.873 -0.872,-0.873l-6.826,0c-0.482,0 -0.873,0.391 -0.873,0.873l0,6.826c0,0.481 0.391,0.872 0.873,0.872Zm11.428,0l6.826,0c0.482,0 0.873,-0.391 0.873,-0.872l0,-6.826c0,-0.482 -0.391,-0.873 -0.873,-0.873l-6.826,0c-0.482,0 -0.872,0.391 -0.872,0.873l0,6.826c0,0.481 0.39,0.872 0.872,0.872Zm6.826,11.429l-6.826,0c-0.482,0 -0.872,-0.391 -0.872,-0.873l0,-6.826c0,-0.481 0.39,-0.872 0.872,-0.872l6.826,0c0.482,0 0.873,0.391 0.873,0.872l0,6.826c0,0.482 -0.391,0.873 -0.873,0.873Zm-18.254,0l6.826,0c0.481,0 0.872,-0.391 0.872,-0.873l0,-6.826c0,-0.481 -0.391,-0.872 -0.872,-0.872l-6.826,0c-0.483,0 -0.873,0.391 -0.873,0.872l0,6.826c0,0.482 0.39,0.873 0.873,0.873Z" style="fill:#333;"/></svg>