<?xml version="1.0" encoding="UTF-8" standalone="no"?><!DOCTYPE svg PUBLIC "-//W3C//DTD SVG 1.1//EN" "http://www.w3.org/Graphics/SVG/1.1/DTD/svg11.dtd"><svg width="100%" height="100%" viewBox="0 0 32 32" version="1.1" xmlns="http://www.w3.org/2000/svg" xmlns:xlink="http://www.w3.org/1999/xlink" xml:space="preserve" xmlns:serif="http://www.serif.com/" style="fill-rule:evenodd;clip-rule:evenodd;stroke-linejoin:round;stroke-miterlimit:2;"><circle cx="16" cy="16" r="14" style="fill:none;"/><path d="M23.6,11.736l-16.793,0c-0.434,0 -0.787,-0.441 -0.787,-0.984c0,-0.543 0.353,-0.984 0.787,-0.984l16.793,0c0.434,0 0.788,0.441 0.788,0.984c0,0.543 -0.354,0.984 -0.788,0.984Zm1.483,5.248l-18.164,0c-0.496,0 -0.899,-0.441 -0.899,-0.985c0,-0.542 0.403,-0.983 0.899,-0.983l18.164,0c0.496,0 0.897,0.441 0.897,0.983c0,0.544 -0.401,0.985 -0.897,0.985Zm-18.239,5.248l14.148,0c0.455,0 0.824,-0.441 0.824,-0.984c0,-0.543 -0.369,-0.984 -0.824,-0.984l-14.148,0c-0.455,0 -0.824,0.441 -0.824,0.984c0,0.543 0.369,0.984 0.824,0.984Z" style="fill:#333;"/></svg>