<?xml version="1.0" encoding="UTF-8" standalone="no"?><!DOCTYPE svg PUBLIC "-//W3C//DTD SVG 1.1//EN" "http://www.w3.org/Graphics/SVG/1.1/DTD/svg11.dtd"><svg width="100%" height="100%" viewBox="0 0 32 32" version="1.1" xmlns="http://www.w3.org/2000/svg" xmlns:xlink="http://www.w3.org/1999/xlink" xml:space="preserve" xmlns:serif="http://www.serif.com/" style="fill-rule:evenodd;clip-rule:evenodd;stroke-linejoin:round;stroke-miterlimit:2;"><circle cx="16" cy="16" r="15" style="fill:#f3fbff;"/><path d="M24,9.6c0,-0.331 -0.269,-0.6 -0.6,-0.6l-10.8,0c-0.331,0 -0.6,0.269 -0.6,0.6l0,0.8c0,0.331 0.269,0.6 0.6,0.6l10.8,0c0.331,0 0.6,-0.269 0.6,-0.6l0,-0.8Z" style="fill:#627783;"/><path d="M24,15.6c0,-0.331 -0.269,-0.6 -0.6,-0.6l-10.8,0c-0.331,0 -0.6,0.269 -0.6,0.6l0,0.8c0,0.331 0.269,0.6 0.6,0.6l10.8,0c0.331,0 0.6,-0.269 0.6,-0.6l0,-0.8Z" style="fill:#627783;"/><path d="M24,21.6c0,-0.331 -0.269,-0.6 -0.6,-0.6l-10.8,0c-0.331,0 -0.6,0.269 -0.6,0.6l0,0.8c0,0.331 0.269,0.6 0.6,0.6l10.8,0c0.331,0 0.6,-0.269 0.6,-0.6l0,-0.8Z" style="fill:#627783;"/><path d="M10,9.6c0,-0.331 -0.269,-0.6 -0.6,-0.6l-0.8,0c-0.331,0 -0.6,0.269 -0.6,0.6l0,0.8c0,0.331 0.269,0.6 0.6,0.6l0.8,0c0.331,0 0.6,-0.269 0.6,-0.6l0,-0.8Z" style="fill:#627783;"/><path d="M10,15.6c0,-0.331 -0.269,-0.6 -0.6,-0.6l-0.8,0c-0.331,0 -0.6,0.269 -0.6,0.6l0,0.8c0,0.331 0.269,0.6 0.6,0.6l0.8,0c0.331,0 0.6,-0.269 0.6,-0.6l0,-0.8Z" style="fill:#627783;"/><path d="M10,21.6c0,-0.331 -0.269,-0.6 -0.6,-0.6l-0.8,0c-0.331,0 -0.6,0.269 -0.6,0.6l0,0.8c0,0.331 0.269,0.6 0.6,0.6l0.8,0c0.331,0 0.6,-0.269 0.6,-0.6l0,-0.8Z" style="fill:#627783;"/></svg>