<?xml version="1.0" encoding="UTF-8" standalone="no"?><!DOCTYPE svg PUBLIC "-//W3C//DTD SVG 1.1//EN" "http://www.w3.org/Graphics/SVG/1.1/DTD/svg11.dtd"><svg width="100%" height="100%" viewBox="0 0 32 32" version="1.1" xmlns="http://www.w3.org/2000/svg" xmlns:xlink="http://www.w3.org/1999/xlink" xml:space="preserve" xmlns:serif="http://www.serif.com/" style="fill-rule:evenodd;clip-rule:evenodd;stroke-linejoin:round;stroke-miterlimit:2;"><circle cx="16" cy="16" r="16" style="fill:none;"/><g><path d="M22.867,14.714l-4.948,0c-0.349,0 -0.633,-0.284 -0.633,-0.633l0,-4.948c0,-0.349 0.284,-0.633 0.633,-0.633l4.948,0c0.349,0 0.633,0.284 0.633,0.633l0,4.948c0,0.349 -0.284,0.633 -0.633,0.633Z" style="fill:#333;fill-rule:nonzero;stroke:#333;stroke-width:1.04px;"/><path d="M14.033,14.661l-4.905,0c-0.346,0 -0.628,-0.282 -0.628,-0.628l0,-4.905c0,-0.346 0.282,-0.628 0.628,-0.628l4.905,0c0.346,0 0.628,0.282 0.628,0.628l0,4.905c0,0.346 -0.282,0.628 -0.628,0.628Z" style="fill:#333;fill-rule:nonzero;stroke:#333;stroke-width:1.03px;"/><path d="M22.867,23.5l-4.948,0c-0.349,0 -0.633,-0.284 -0.633,-0.633l0,-4.948c0,-0.349 0.284,-0.633 0.633,-0.633l4.948,0c0.349,0 0.633,0.284 0.633,0.633l0,4.948c0,0.349 -0.284,0.633 -0.633,0.633Z" style="fill:#333;fill-rule:nonzero;stroke:#333;stroke-width:1.04px;"/><path d="M14.081,23.5l-4.948,0c-0.349,0 -0.633,-0.284 -0.633,-0.633l0,-4.948c0,-0.349 0.284,-0.633 0.633,-0.633l4.948,0c0.349,0 0.633,0.284 0.633,0.633l0,4.948c0,0.349 -0.284,0.633 -0.633,0.633Z" style="fill:#333;fill-rule:nonzero;stroke:#333;stroke-width:1.04px;"/></g></svg>