<?xml version="1.0" encoding="utf-8"?>
<!-- Generator: Adobe Illustrator 18.1.1, SVG Export Plug-In . SVG Version: 6.00 Build 0)  -->
<svg version="1.1" id="Layer_1" xmlns="http://www.w3.org/2000/svg" xmlns:xlink="http://www.w3.org/1999/xlink" x="0px" y="0px"
	 viewBox="0 0 24 24" enable-background="new 0 0 24 24" xml:space="preserve">
<g>
	<g>
		<path fill="#333333" d="M18.3718,24H5.2564C3.4607,24,2,22.5386,2,20.7436V3.2557C2,1.4607,3.4607,0,5.2564,0h11.3727
			l4.9991,4.9984v15.7452C21.6282,22.5386,20.1668,24,18.3718,24z M5.2564,1.4118c-1.0175,0-1.8447,0.8272-1.8447,1.844v17.4878
			c0,1.0175,0.8272,1.8447,1.8447,1.8447h13.1153c1.0175,0,1.8447-0.8272,1.8447-1.8447V5.583l-4.1719-4.1712H5.2564z"/>
	</g>
	<g>
		<rect x="13.0542" y="7.2634" fill="#333333" width="4.8104" height="0.7287"/>
		<rect x="13.0542" y="10.1781" fill="#333333" width="4.8104" height="0.7287"/>
		<rect x="13.0542" y="13.0016" fill="#333333" width="4.8104" height="0.7287"/>
		<rect x="5.9249" y="15.9162" fill="#333333" width="11.9397" height="0.7287"/>
		<rect x="5.9249" y="18.8308" fill="#333333" width="11.9397" height="0.7287"/>
	</g>
	<g>
		<path fill="#333333" d="M11.5637,6.3109v1.0926H9.413v6.0531h-1.329V7.4035h-2.159V6.3109H11.5637z"/>
	</g>
</g>
</svg>
