<?xml version="1.0" encoding="utf-8"?>
<!-- Generator: Adobe Illustrator 18.1.1, SVG Export Plug-In . SVG Version: 6.00 Build 0)  -->
<svg version="1.1" id="Layer_1" xmlns="http://www.w3.org/2000/svg" xmlns:xlink="http://www.w3.org/1999/xlink" x="0px" y="0px"
	 viewBox="0 0 24 24" enable-background="new 0 0 24 24" xml:space="preserve">
<g>
	<path fill="#333333" d="M23,9.8348h-7.8182c-0.5523,0-1-0.4477-1-1V1.0166c0-0.5523,0.4477-1,1-1H23c0.5523,0,1,0.4477,1,1v7.8182
		C24,9.3871,23.5523,9.8348,23,9.8348z"/>
	<path fill="#333333" d="M8.8182,9.8348H1c-0.5523,0-1-0.4477-1-1V1.0166c0-0.5523,0.4477-1,1-1h7.8182c0.5523,0,1,0.4477,1,1
		v7.8182C9.8182,9.3871,9.3705,9.8348,8.8182,9.8348z"/>
	<path fill="#333333" d="M23,24.0166h-7.8182c-0.5523,0-1-0.4477-1-1v-7.8182c0-0.5523,0.4477-1,1-1H23c0.5523,0,1,0.4477,1,1
		v7.8182C24,23.5689,23.5523,24.0166,23,24.0166z"/>
	<path fill="#333333" d="M8.8182,24.0166H1c-0.5523,0-1-0.4477-1-1v-7.8182c0-0.5523,0.4477-1,1-1h7.8182c0.5523,0,1,0.4477,1,1
		v7.8182C9.8182,23.5689,9.3705,24.0166,8.8182,24.0166z"/>
</g>
</svg>
