<?xml version="1.0" encoding="utf-8"?>
<!-- Generator: Adobe Illustrator 18.1.0, SVG Export Plug-In . SVG Version: 6.00 Build 0)  -->
<!DOCTYPE svg PUBLIC "-//W3C//DTD SVG 1.1//EN" "http://www.w3.org/Graphics/SVG/1.1/DTD/svg11.dtd">
<svg version="1.1" id="Layer_1" xmlns="http://www.w3.org/2000/svg" xmlns:xlink="http://www.w3.org/1999/xlink" x="0px" y="0px"
	 viewBox="0 0 36 36" enable-background="new 0 0 36 36" xml:space="preserve">
<g>
	<g>
		<circle fill="#EEB111" cx="18" cy="18" r="18"/>
	</g>
	<path fill="#FFFFFF" d="M17.618,6.681l-3.083,6.248c-0.062,0.126-0.182,0.213-0.321,0.233l-6.895,1.002
		c-0.35,0.051-0.489,0.48-0.236,0.727l4.989,4.863c0.1,0.098,0.146,0.239,0.123,0.377l-1.178,6.867
		c-0.06,0.348,0.306,0.614,0.618,0.449l6.167-3.242c0.124-0.065,0.273-0.065,0.397,0l6.167,3.242
		c0.313,0.164,0.678-0.101,0.618-0.449l-1.178-6.867c-0.024-0.138,0.022-0.279,0.123-0.377l4.989-4.863
		c0.253-0.247,0.113-0.676-0.236-0.727l-6.895-1.002c-0.139-0.02-0.259-0.107-0.321-0.233l-3.083-6.248
		C18.226,6.364,17.774,6.364,17.618,6.681z"/>
</g>
</svg>
