<svg data-name="Layer 1" xmlns="http://www.w3.org/2000/svg" viewBox="0 0 32 32"><title>title_personal_workspace_nonselectable32</title><circle cx="16" cy="16" r="15.111" fill="#8e8e8e"/><path d="M16,.889A15.111,15.111,0,1,1,.889,16,15.111,15.111,0,0,1,16,.889M16,0A16,16,0,1,0,32,16,16,16,0,0,0,16,0Z" fill="#fff"/><path d="M11.507,30.432a15.2,15.2,0,0,0,8.988,0,14.575,14.575,0,0,0,1.388-.508,15.056,15.056,0,0,0,2.4-1.293,1.5,1.5,0,0,0,.03-.3v-.87a1.487,1.487,0,0,0-.033-.308l-.006-.044a8.215,8.215,0,0,0-.374-2.181,2.158,2.158,0,0,0-1.3-1.37,9.5,9.5,0,0,0-2.11-.573,7.78,7.78,0,0,1-1.6-.416,1.849,1.849,0,0,1-.666-.506,2.251,2.251,0,0,1-.267-.4l-.124-.235.206-.169a3.8,3.8,0,0,0,.808-.926,5.6,5.6,0,0,0,.707-1.826l.042-.193.189-.053a.584.584,0,0,0,.275-.234,1.676,1.676,0,0,0,.259-.658,1.43,1.43,0,0,0-.089-.906l-.068-.116.033-.13c.013-.052.025-.1.036-.157a4.916,4.916,0,0,0,.068-1.2,8.1,8.1,0,0,0-.212-1.428,3.209,3.209,0,0,0-1.3-1.732,4.97,4.97,0,0,0-5.558,0,3.209,3.209,0,0,0-1.3,1.728,8,8,0,0,0-.214,1.437,4.894,4.894,0,0,0,.066,1.205c.01.053.022.1.035.154l.033.131-.068.116a1.417,1.417,0,0,0-.093.908,1.682,1.682,0,0,0,.26.66.569.569,0,0,0,.275.231l.192.053.042.195a5.6,5.6,0,0,0,.7,1.821,3.822,3.822,0,0,0,.812.929l.2.164-.124.236a2.267,2.267,0,0,1-.267.4,1.849,1.849,0,0,1-.666.507,7.733,7.733,0,0,1-1.6.414,9.556,9.556,0,0,0-2.116.574,2.186,2.186,0,0,0-1.3,1.373,8.178,8.178,0,0,0-.367,2.15,1.848,1.848,0,0,0-.049.385v.87a1.581,1.581,0,0,0,.037.3,15.058,15.058,0,0,0,2.4,1.289A14.437,14.437,0,0,0,11.507,30.432Z" fill="#fff"/><path d="M16,26.78A10.78,10.78,0,1,1,26.78,16,10.78,10.78,0,0,1,16,26.78Zm0-20.67A9.891,9.891,0,1,0,25.892,16,9.891,9.891,0,0,0,16,6.109Z" fill="#fff"/><circle cx="26.351" cy="16" r="2.568" transform="translate(-3.39 7.884) rotate(-16.002)" fill="#fff"/><circle cx="16" cy="5.65" r="2.568" transform="translate(-0.938 4.63) rotate(-16.002)" fill="#fff"/><circle cx="5.712" cy="16" r="2.568" transform="translate(-4.189 2.195) rotate(-16.002)" fill="#fff"/><path d="M7.556,28.533c.055.037.116.068.172.1h0C7.667,28.6,7.606,28.568,7.556,28.533Z" fill="none"/><path d="M16,.889a15.106,15.106,0,0,0-4.493.679A15.111,15.111,0,0,1,16,.889Z" fill="none"/><path d="M4.34,25.612a15.2,15.2,0,0,0,2.044,2.044A15.206,15.206,0,0,1,4.34,25.612Z" fill="none"/><path d="M6.388,4.34A15.2,15.2,0,0,0,4.343,6.384,15.206,15.206,0,0,1,6.388,4.34Z" fill="none"/><path d="M7.556,3.467a15.075,15.075,0,0,1,2.567-1.393A15.076,15.076,0,0,0,7.556,3.467Z" fill="none"/><path d="M7.723,28.635h0a15.058,15.058,0,0,0,2.4,1.289A15.058,15.058,0,0,1,7.723,28.635Z" fill="#fff"/><path d="M16,.889a15.106,15.106,0,0,0-4.493.679A15.111,15.111,0,0,1,16,.889Z" fill="none"/><path d="M30.85,18.77A15.084,15.084,0,0,1,18.77,30.85,8.462,8.462,0,0,1,16,24.56,8.557,8.557,0,0,1,24.56,16,8.462,8.462,0,0,1,30.85,18.77Z" fill="#fff"/><g opacity="0.8"><circle cx="24.5" cy="24.5" r="6.5" fill="#fff"/></g><path d="M24.5,17A7.5,7.5,0,1,0,32,24.5,7.5,7.5,0,0,0,24.5,17Zm0,13a5.5,5.5,0,0,1-4.53-8.62l7.65,7.65A5.492,5.492,0,0,1,24.5,30Zm4.53-2.38-7.65-7.65a5.5,5.5,0,0,1,7.65,7.65Z" fill="#cd3632"/></svg>