<svg data-name="Layer 1" xmlns="http://www.w3.org/2000/svg" viewBox="0 0 32 32"><title>title_enterprise_nonselectable32</title><path d="M31.11,16a14.861,14.861,0,0,1-.26,2.77A15.084,15.084,0,0,1,18.77,30.85a14.868,14.868,0,0,1-2.77.26A15.11,15.11,0,1,1,31.11,16Z" fill="#8e8e8e"/><path d="M16,.889A15.111,15.111,0,1,1,.889,16,15.111,15.111,0,0,1,16,.889M16,0A16,16,0,1,0,32,16,16,16,0,0,0,16,0Z" fill="#fff"/><path d="M16,26.78A10.78,10.78,0,1,1,26.78,16,10.78,10.78,0,0,1,16,26.78Zm0-20.67A9.891,9.891,0,1,0,25.892,16,9.891,9.891,0,0,0,16,6.109Z" fill="#fff"/><path d="M16,21.127A5.127,5.127,0,1,1,21.126,16h0A5.132,5.132,0,0,1,16,21.127Zm0-8.476A3.349,3.349,0,1,0,19.348,16v0A3.352,3.352,0,0,0,16,12.651Z" fill="#fff"/><circle cx="18.882" cy="6.063" r="2.568" fill="#fff"/><circle cx="5.959" cy="18.46" r="2.568" fill="#fff"/><circle cx="23.118" cy="23.43" r="2.568" fill="#fff"/><path d="M30.85,18.77A15.084,15.084,0,0,1,18.77,30.85,8.462,8.462,0,0,1,16,24.56,8.557,8.557,0,0,1,24.56,16,8.462,8.462,0,0,1,30.85,18.77Z" fill="#fff"/><g opacity="0.8"><circle cx="24.5" cy="24.5" r="6.5" fill="#fff"/></g><path d="M24.5,17A7.5,7.5,0,1,0,32,24.5,7.5,7.5,0,0,0,24.5,17Zm0,13a5.5,5.5,0,0,1-4.53-8.62l7.65,7.65A5.492,5.492,0,0,1,24.5,30Zm4.53-2.38-7.65-7.65a5.5,5.5,0,0,1,7.65,7.65Z" fill="#cd3632"/></svg>