<?xml version="1.0" encoding="utf-8"?>
<!-- Generator: Adobe Illustrator 18.1.0, SVG Export Plug-In . SVG Version: 6.00 Build 0)  -->
<!DOCTYPE svg PUBLIC "-//W3C//DTD SVG 1.1//EN" "http://www.w3.org/Graphics/SVG/1.1/DTD/svg11.dtd">
<svg version="1.1" id="Layer_1" xmlns="http://www.w3.org/2000/svg" xmlns:xlink="http://www.w3.org/1999/xlink" x="0px" y="0px"
	 viewBox="0 0 36 36" enable-background="new 0 0 36 36" xml:space="preserve">
<path fill="#9370B1" d="M34,8h-2V7.5C32,6.675,31.325,6,30.5,6S29,6.675,29,7.5V8h-4V6.178C25,4.426,23.575,3,21.822,3h-7.645
	C12.425,3,11,4.426,11,6.178V8H7V7.5C7,6.675,6.325,6,5.5,6S4,6.675,4,7.5V8H2c-1.1,0-2,0.9-2,2v21c0,1.1,0.9,2,2,2h32
	c1.1,0,2-0.9,2-2V10C36,8.9,35.1,8,34,8z M13,6.178C13,5.528,13.528,5,14.178,5h7.645C22.472,5,23,5.528,23,6.178V8H13V6.178z"/>
</svg>
