<svg id="Layer_1" data-name="Layer 1" xmlns="http://www.w3.org/2000/svg" viewBox="0 0 24 24"><title>toolbar_copylink24_md</title><path d="M22.865,4.383a4.457,4.457,0,0,0-3.249-3.249A4.766,4.766,0,0,0,18.5,1a4.445,4.445,0,0,0-3.369,1.54l-2.59,2.59a4.471,4.471,0,0,0-1.406,4.486,4.312,4.312,0,0,0,.552,1.282l-.788.788a4.313,4.313,0,0,0-1.282-.552A4.766,4.766,0,0,0,8.5,11a4.445,4.445,0,0,0-3.369,1.54l-2.59,2.59a4.486,4.486,0,0,0,1.843,7.735A4.763,4.763,0,0,0,5.5,23a4.445,4.445,0,0,0,3.369-1.54l2.59-2.59a4.471,4.471,0,0,0,1.406-4.486,4.312,4.312,0,0,0-.552-1.282l.788-.788a4.313,4.313,0,0,0,1.282.552A4.763,4.763,0,0,0,15.5,13a4.445,4.445,0,0,0,3.369-1.54l2.59-2.59A4.471,4.471,0,0,0,22.865,4.383ZM10.921,14.852a2.487,2.487,0,0,1-.773,2.508l-.053.046-.05.05-2.59,2.59-.05.05-.046.053A2.431,2.431,0,0,1,5.5,21a2.778,2.778,0,0,1-.648-.079,2.455,2.455,0,0,1-1.772-1.772,2.487,2.487,0,0,1,.773-2.508l.053-.046.05-.05,2.59-2.59.05-.05.046-.053A2.431,2.431,0,0,1,8.5,13a2.775,2.775,0,0,1,.648.079,2.23,2.23,0,0,1,.256.1L7.293,15.293a1,1,0,1,0,1.414,1.414L10.818,14.6A2.23,2.23,0,0,1,10.921,14.852Zm9.227-7.492-.053.046-.05.05-2.59,2.59-.05.05-.046.053A2.431,2.431,0,0,1,15.5,11a2.778,2.778,0,0,1-.648-.079,2.23,2.23,0,0,1-.256-.1l2.111-2.111a1,1,0,0,0-1.414-1.414L13.182,9.4a2.235,2.235,0,0,1-.1-.256,2.487,2.487,0,0,1,.773-2.508l.053-.046.05-.05,2.59-2.59.05-.05.046-.053A2.431,2.431,0,0,1,18.5,3a2.775,2.775,0,0,1,.648.079,2.455,2.455,0,0,1,1.772,1.772A2.487,2.487,0,0,1,20.148,7.359Z" style="fill:#666"/></svg>