<svg data-name="Layer 1" xmlns="http://www.w3.org/2000/svg" viewBox="0 0 24 24"><title>Artboard 1</title><path d="M4.13,6A3.2,3.2,0,0,0,1,9.273v5.455A3.2,3.2,0,0,0,4.13,18H12V6Z" fill="#e2e2e2"/><path d="M18.87,6H14V18h4.87A3.2,3.2,0,0,0,22,14.727V9.273A3.2,3.2,0,0,0,18.87,6Z" fill="#e2e2e2"/><path d="M4,17a2,2,0,0,1-2-2V9A2,2,0,0,1,4,7h8V6H4A3,3,0,0,0,1,9v6a3,3,0,0,0,3,3h8V17Z" fill="#333"/><path d="M20,6H15V7h5a2,2,0,0,1,2,2v6a2,2,0,0,1-2,2H15v1h5a3,3,0,0,0,3-3V9A3,3,0,0,0,20,6Z" fill="#333"/><path d="M18.375,21.25c-.71,0-2.375-.439-2.375-1.292V4.125c0-1.037,1.673-1.375,2.25-1.375a1,1,0,0,0,0-2A5.071,5.071,0,0,0,15,1.927,5.071,5.071,0,0,0,11.75.75a1,1,0,0,0,0,2c.577,0,2.25.338,2.25,1.375V19.958c0,.853-1.665,1.292-2.375,1.292a1,1,0,0,0,0,2A5.419,5.419,0,0,0,15,22.054a5.419,5.419,0,0,0,3.375,1.2,1,1,0,0,0,0-2Z" fill="#333"/></svg>