<?xml version="1.0" encoding="utf-8"?>
<!-- Generator: Adobe Illustrator 19.1.0, SVG Export Plug-In . SVG Version: 6.00 Build 0)  -->
<!DOCTYPE svg PUBLIC "-//W3C//DTD SVG 1.1//EN" "http://www.w3.org/Graphics/SVG/1.1/DTD/svg11.dtd">
<svg version="1.1" id="Layer_1" xmlns="http://www.w3.org/2000/svg" xmlns:xlink="http://www.w3.org/1999/xlink" x="0px" y="0px"
	 viewBox="0 0 24 24" enable-background="new 0 0 24 24" xml:space="preserve">
<g id="metadata">
</g>
<g id="like_icon">
</g>
<g id="fave_icon">
</g>
<g id="fave_icon_-_selected">
</g>
<g id="comment_icon_-_selected">
</g>
<g id="Comment_icon">
</g>
<g id="fave_icon_-_selected_1_">
</g>
<g id="like_icon_-_selected">
</g>
<g id="copy_x2F_move_icon">
</g>
<g id="download_icon_2">
</g>
<g id="share_icon_2">
</g>
<g id="reserve_icon">
</g>
<g id="edit_icon">
	<g id="edit_icon_2">
	</g>
	<g id="trash_icon">
		<g id="trash">
		</g>
	</g>
	<g>
		<path fill="#757575" d="M9,8c0-1.657,1.343-3,3-3h2V3l-3-3H2C0.895,0,0,0.895,0,2v14c0,1.105,0.895,2,2,2h7V8z"/>
	</g>
	<g>
		<g>
			<path fill="#333333" d="M10,8v14c0,1.105,0.895,2,2,2h10c1.105,0,2-0.895,2-2V9l-3-3h-9C10.895,6,10,6.895,10,8z"/>
		</g>
	</g>
	<path fill="#FFFFFF" d="M20,14h-2v-2c0-0.552-0.448-1-1-1s-1,0.448-1,1v2h-2c-0.552,0-1,0.448-1,1s0.448,1,1,1h2v2
		c0,0.552,0.448,1,1,1s1-0.448,1-1v-2h2c0.552,0,1-0.448,1-1S20.552,14,20,14z"/>
</g>
<g id="metadata_2">
</g>
</svg>
