<svg id="Layer_1" data-name="Layer 1" xmlns="http://www.w3.org/2000/svg" viewBox="0 0 24 24"><title>action_icons</title><path d="M16.745,13.66a.7.7,0,0,0,0,1.018L19,16.934H13.47a.728.728,0,1,0,0,1.455H19l-2.255,2.256a.72.72,0,0,0,1.018,1.019l4-4-4-4A.7.7,0,0,0,16.745,13.66Z" fill="#627783"/><path d="M11.105,18.114H4.686a1.345,1.345,0,0,1-1.343-1.343V4.686A1.344,1.344,0,0,1,4.686,3.343H18.114a1.345,1.345,0,0,1,1.343,1.343v8.425L20.8,14.454V4.686A2.693,2.693,0,0,0,18.114,2H4.686A2.694,2.694,0,0,0,2,4.686V16.771a2.694,2.694,0,0,0,2.686,2.686h7.4A1.988,1.988,0,0,1,11.105,18.114Z" fill="#627783"/><rect x="6.028" y="6.028" width="10.742" height="1.343" rx="0.5" fill="#627783"/><rect x="6.028" y="10.057" width="9.4" height="1.343" rx="0.5" fill="#627783"/><rect x="6.028" y="14.085" width="6.714" height="1.343" rx="0.5" fill="#627783"/></svg>