<svg width="24" height="24" viewBox="0 0 24 24" fill="none" xmlns="http://www.w3.org/2000/svg">
  <rect width="24" height="24" fill="black" fill-opacity="0"/>
  <path d="M22.8 13.9V10.9H19.7C19.5 10 19.1 9.1 18.6 8.3L20.8 6.1L18.7 4L16.5 6.2C15.7 5.7 14.8 5.3 13.9 5.1V2H10.9V5.2C10 5.3 9.1 5.7 8.3 6.2L6.1 4L4 6.1L6.2 8.3C5.7 9.1 5.3 10 5.1 10.9H2V13.9H5.1C5.3 14.9 5.7 15.8 6.2 16.6L4 18.8L6.1 20.9L8.2 18.8C9 19.3 9.9 19.7 10.9 19.9V22.9H13.9V19.9C14.9 19.7 15.8 19.3 16.6 18.8L18.7 20.9L20.8 18.8L18.6 16.6C19.1 15.8 19.5 14.9 19.7 13.9C19.8 13.9 22.8 13.9 22.8 13.9ZM12.4 17C9.9 17 7.9 15 7.9 12.5C7.9 10 9.9 8 12.4 8C14.9 8 16.9 10 16.9 12.5C16.9 15 14.9 17 12.4 17Z" fill="#333333"/>
</svg>
