<svg data-name="Layer 1" xmlns="http://www.w3.org/2000/svg" viewBox="0 0 24 24"><title>toolbar_collection_remove</title><path d="M21,7H19V2h2a1,1,0,0,1,1,1V6A1,1,0,0,1,21,7Z" fill="#333"/><path d="M11,18a7,7,0,0,1,7-7V2a.9.9,0,0,0-.94-1H1V23H13.11A7,7,0,0,1,11,18Z" fill="#333"/><path d="M22,12.23A1,1,0,0,0,22,12V9a1,1,0,0,0-1-1H19v3.08A7,7,0,0,1,22,12.23Z" fill="#333"/><circle cx="18" cy="18" r="6" fill="#6d6f71"/><path d="M20.81,19.89,18.88,18l1.85-1.85a.59.59,0,1,0-.84-.84L18,17.12l-1.93-1.93a.59.59,0,1,0-.84.84L17.2,18l-2,2a.59.59,0,1,0,.84.84l2-2L20,20.73a.59.59,0,1,0,.84-.84Z" fill="#fff"/><path d="M14.23,9H5.77A.71.71,0,0,1,5,8.29V4.71A.71.71,0,0,1,5.77,4h8.46a.71.71,0,0,1,.77.71V8.29A.71.71,0,0,1,14.23,9Z" fill="#fff"/></svg>