<svg version="1.1" xmlns="http://www.w3.org/2000/svg" xmlns:xlink="http://www.w3.org/1999/xlink" x="0px" y="0px" viewBox="0 0 32 32" style="enable-background:new 0 0 32 32;" xml:space="preserve"><symbol viewBox="-7.5 -7.5 15 15"><g><g><circle cx="0" cy="0" r="7" opacity="0.9" fill="#3C5666" enable-background="new"/><path d="M0,6.5c3.6,0,6.5-2.9,6.5-6.5S3.6-6.5,0-6.5S-6.5-3.6-6.5,0S-3.6,6.5,0,6.5 M0,7.5c-4.1,0-7.5-3.4-7.5-7.5
				S-4.1-7.5,0-7.5S7.5-4.1,7.5,0S4.1,7.5,0,7.5L0,7.5z" fill="#FFFFFF"/></g></g><path d="M4.2,0.5L1.9,2.9C1.7,3,1.3,3,1.1,2.9S1,2.3,1.1,2.1L2.3,1H1.5C-1.4,1-3-0.6-3-3.5C-3-3.8-2.8-4-2.5-4
		S-2-3.8-2-3.5C-2-1.9-1.4,0,1.5,0h0.8L1.1-1.1C1-1.3,1-1.7,1.1-1.9C1.2-2,1.4-2,1.5-2s0.3,0,0.4,0.1L4.2,0.5z" fill="#3C5666"/><path d="M4.2,1.5L1.9,3.9C1.7,4,1.3,4,1.1,3.9S1,3.3,1.1,3.1L2.3,2H1.5C-1.4,2-3,0.4-3-2.5C-3-2.8-2.8-3-2.5-3
		S-2-2.8-2-2.5C-2-0.9-1.4,1,1.5,1h0.8L1.1-0.1C1-0.3,1-0.7,1.1-0.9C1.2-1,1.4-1,1.5-1s0.3,0,0.4,0.1L4.2,1.5z" fill="#FFFFFF"/></symbol><g><g><g><circle cx="16" cy="16" r="14" fill="#FFFFFF"/></g></g><ellipse cx="16" cy="16" rx="12.2" ry="12.2" fill="#FFFFFF"/><g/><g/><g><g><path d="M16,29.5c-5.5,0-10.6-3.5-12.6-8.7C0.7,13.9,4.2,6.1,11.2,3.4c1.6-0.6,3.2-0.9,4.8-0.9
				c5.5,0,10.6,3.5,12.6,8.7c1.3,3.4,1.2,7-0.3,10.3c-1.5,3.3-4.1,5.8-7.5,7.1C19.3,29.2,17.7,29.5,16,29.5z M10.6,25.4
				c1.5,0.9,3.1,1.4,4.7,1.5c-0.9-0.6-1.7-1.4-2.5-2.3L10.6,25.4z M14.5,23.9c1.5,1.6,3.1,2.5,4.4,2.5c0,0,0,0,0,0l-1.4-3.6
				L14.5,23.9z M20.7,25.7c1-0.9,1.6-2.6,1.7-4.8L19.3,22L20.7,25.7z M6.2,20.7c0.6,1.3,1.5,2.5,2.6,3.4l2.8-1.1
				c-0.8-1.1-1.4-2.3-2-3.7L6.2,20.7z M24.2,20.2c0,1.2-0.1,2.4-0.3,3.4c0.9-0.9,1.6-2,2.1-3.1c0.2-0.4,0.3-0.7,0.4-1.1L24.2,20.2z
				 M11.3,18.7c0.6,1.3,1.3,2.6,2.1,3.6l3.6-1.4l-1.5-3.9L11.3,18.7z M18.6,20.3l3.6-1.4c-0.1-1.3-0.4-2.7-0.9-4.1l-4.2,1.6
				L18.6,20.3z M5.2,14.8c-0.2,1.4,0,2.8,0.4,4.2l3.4-1.3c-0.4-1.3-0.8-2.7-0.9-4L5.2,14.8z M23,14.2c0.5,1.4,0.8,2.7,1,4.1l2.8-1.1
				c0.2-1.4,0-2.9-0.4-4.3L23,14.2z M9.7,13.1c0.1,1.3,0.4,2.7,0.9,4l4.2-1.6l-1.4-3.8L9.7,13.1z M16.5,14.8l4.2-1.6
				c-0.6-1.3-1.3-2.5-2-3.6L15.1,11L16.5,14.8z M8.2,8.5c-1.2,1.2-2,2.6-2.5,4.2l2.2-0.8C7.8,10.6,7.9,9.5,8.2,8.5z M20.4,8.9
				c0.7,1.1,1.4,2.3,2,3.6l3.4-1.3c-0.6-1.3-1.5-2.4-2.6-3.3L20.4,8.9z M11.3,6.3c-1,0.9-1.6,2.6-1.7,4.8l3.1-1.2L11.3,6.3z
				 M14.4,9.3l3.1-1.2C16,6.6,14.4,5.7,13,5.7c0,0,0,0,0,0L14.4,9.3z M16.7,5.2c0.9,0.6,1.7,1.4,2.5,2.3l2.2-0.8
				C20,5.8,18.4,5.3,16.7,5.2z" fill="#00A389"/></g><g><path d="M16,3c5.3,0,10.2,3.3,12.1,8.3c1.2,3.2,1.2,6.8-0.3,9.9c-1.4,3.2-4,5.6-7.2,6.9C19.2,28.7,17.6,29,16,29
				c-5.3,0-10.2-3.3-12.1-8.3C1.3,14,4.6,6.4,11.3,3.9C12.8,3.3,14.4,3,16,3 M19.1,8l3.4-1.3c-1.9-1.3-4.2-2.1-6.5-2.1
				c-0.4,0-0.8,0-1.2,0.1C16.2,5.2,17.8,6.4,19.1,8 M14.1,10l4.2-1.6c-1.7-2-3.6-3.2-5.3-3.2c-0.3,0-0.5,0-0.7,0.1L14.1,10
				 M9.2,11.9l4.2-1.6l-1.8-4.7C9.9,6.5,9.1,8.9,9.2,11.9 M4.9,13.5l3.4-1.3c-0.1-2.1,0.2-4,1-5.4C7.1,8.4,5.5,10.9,4.9,13.5
				 M22.1,13.2l4.3-1.7c-0.7-1.6-1.8-3.1-3.1-4.2l-3.7,1.4C20.6,10,21.4,11.5,22.1,13.2 M16.2,15.4l5.1-2c-0.7-1.7-1.5-3.2-2.5-4.4
				l-4.5,1.7L16.2,15.4 M10.3,17.7l5.1-2L13.6,11l-4.4,1.7C9.3,14.3,9.7,16,10.3,17.7 M23.6,19l3.7-1.4c0.2-1.8,0.1-3.6-0.5-5.3
				l-4.3,1.7C23,15.6,23.4,17.4,23.6,19 M5.3,19.7L9.6,18c-0.6-1.7-1-3.4-1.1-5l-3.7,1.4C4.5,16.2,4.7,17.9,5.3,19.7 M18.4,21
				l4.4-1.7c-0.1-1.6-0.5-3.3-1.1-5.1l-5.1,2L18.4,21 M13.1,23l4.5-1.7l-1.8-4.8l-5.1,2C11.3,20.2,12.2,21.7,13.1,23 M22.7,25.2
				c1.6-1.2,2.9-2.7,3.7-4.6c0.3-0.7,0.5-1.4,0.7-2.1l-3.5,1.3C23.7,22,23.4,23.8,22.7,25.2 M8.7,24.7l3.7-1.4
				c-1-1.3-1.8-2.8-2.5-4.5l-4.3,1.7C6.2,22.1,7.3,23.6,8.7,24.7 M20.5,26.4c1.6-0.9,2.5-3.3,2.4-6.3l-4.2,1.6L20.5,26.4 M19,26.8
				c0.3,0,0.5,0,0.7-0.1L17.9,22l-4.2,1.6C15.4,25.6,17.3,26.8,19,26.8 M16,27.4c0.4,0,0.8,0,1.2-0.1c-1.5-0.5-3-1.7-4.4-3.3
				l-3.4,1.3C11.3,26.6,13.6,27.4,16,27.4 M16,2c-1.7,0-3.4,0.3-5,0.9C3.8,5.7,0.2,13.8,2.9,21c2.1,5.4,7.3,9,13.1,9
				c1.7,0,3.4-0.3,5-0.9c3.5-1.3,6.2-4,7.8-7.4c1.5-3.4,1.6-7.2,0.3-10.7C27,5.6,21.7,2,16,2L16,2z M19.4,6.9
				c-0.3-0.3-0.6-0.6-0.9-0.9c0.6,0.2,1.2,0.4,1.7,0.6L19.4,6.9L19.4,6.9z M14.7,8.7l-0.9-2.4c0.9,0.2,1.9,0.8,2.8,1.7L14.7,8.7
				L14.7,8.7z M10.2,10.4c0.1-1.3,0.4-2.4,0.9-3.1l0.9,2.4L10.2,10.4L10.2,10.4z M21.2,9.2l1.9-0.7c0.8,0.7,1.4,1.6,2,2.5l-2.4,0.9
				C22.2,10.9,21.7,10,21.2,9.2L21.2,9.2z M15.7,11.3l2.8-1.1c0.6,0.8,1.1,1.7,1.5,2.7l-3.2,1.2L15.7,11.3L15.7,11.3z M6.5,11.8
				c0.2-0.6,0.5-1.1,0.9-1.6c0,0.4-0.1,0.8-0.1,1.3L6.5,11.8L6.5,11.8z M10.3,13.4l2.8-1.1l1.1,2.8l-3.2,1.2
				C10.6,15.4,10.4,14.4,10.3,13.4L10.3,13.4z M23.7,14.5l2.4-0.9c0.3,1.1,0.4,2.2,0.3,3.3l-1.9,0.7C24.2,16.6,24,15.5,23.7,14.5
				L23.7,14.5z M5.7,15.2l1.9-0.7c0.2,1,0.4,2,0.7,3l-2.4,0.9C5.7,17.3,5.6,16.2,5.7,15.2L5.7,15.2z M17.8,16.8l3.2-1.2
				c0.3,1,0.5,2.1,0.7,3.1l-2.8,1.1L17.8,16.8L17.8,16.8z M11.9,19l3.2-1.2l1.1,2.9l-2.8,1.1C12.9,20.9,12.4,20,11.9,19L11.9,19z
				 M6.9,21L9.3,20c0.4,1,0.9,1.9,1.5,2.8l-1.9,0.7C8.1,22.8,7.4,21.9,6.9,21L6.9,21z M24.7,20.5l0.8-0.3c0,0,0,0,0,0
				c-0.2,0.6-0.5,1.1-0.9,1.6C24.6,21.4,24.7,20.9,24.7,20.5L24.7,20.5z M19.9,22.3l1.9-0.7c-0.1,1.3-0.4,2.4-0.9,3.1L19.9,22.3
				L19.9,22.3z M15.4,24.1l1.9-0.7l0.9,2.4C17.4,25.5,16.4,24.9,15.4,24.1L15.4,24.1z M11.8,25.5l0.8-0.3c0.3,0.3,0.6,0.6,0.9,0.9
				C12.9,25.9,12.3,25.7,11.8,25.5L11.8,25.5z" fill="#FFFFFF"/></g></g><g/><g/><g/><g/></g><g display="none"><g display="inline"/><use xlink:href="#Shortcut_2_" width="15" height="15" x="-7.5" y="-7.5" transform="matrix(1 0 0 -1 7.5 24.5)" style="display:inline;overflow:visible;"/></g></svg>