<?xml version="1.0" encoding="utf-8"?>
<!-- Generator: Adobe Illustrator 21.1.0, SVG Export Plug-In . SVG Version: 6.00 Build 0)  -->
<svg version="1.1" id="Layer_1" xmlns="http://www.w3.org/2000/svg" xmlns:xlink="http://www.w3.org/1999/xlink" x="0px" y="0px"
	 viewBox="0 0 24 24" style="enable-background:new 0 0 24 24;" xml:space="preserve">
<style type="text/css">
	.st0{fill:#FFFFFF;}
	.st1{fill:#067D14;}
</style>
<g>
	<path class="st0" d="M12,22C6.5,22,2,17.5,2,12S6.5,2,12,2s10,4.5,10,10S17.5,22,12,22z"/>
	<path class="st1" d="M12,3c5,0,9,4,9,9s-4,9-9,9s-9-4-9-9S7,3,12,3 M12,1C5.9,1,1,5.9,1,12s4.9,11,11,11s11-4.9,11-11S18.1,1,12,1
		L12,1z"/>
</g>
<g>
	<path class="st1" d="M10.4,16.3l-3.4-3.4c-0.4-0.4-0.4-1,0-1.4s1-0.4,1.4,0l2,2l5.1-5.1c0.4-0.4,1-0.4,1.4,0s0.4,1,0,1.4L10.4,16.3
		z"/>
</g>
<g>
	<g>
		<path class="st0" d="M12,1c6.1,0,11,4.9,11,11s-4.9,11-11,11S1,18.1,1,12S5.9,1,12,1 M12,0C5.4,0,0,5.4,0,12s5.4,12,12,12
			s12-5.4,12-12S18.6,0,12,0L12,0z"/>
	</g>
</g>
</svg>
