<svg version="1.1" xmlns="http://www.w3.org/2000/svg" xmlns:xlink="http://www.w3.org/1999/xlink" x="0px" y="0px" viewBox="0 0 32 32" style="enable-background:new 0 0 32 32;" xml:space="preserve"><circle cx="16" cy="16" r="14" fill="#dfeefa" stroke="#dfeefa"/><g><path d="M7,8.556v10.889C7,20.304,7.703,21,8.571,21H13v-5.974c-0.385-0.024-0.808-0.032-1.28-0.026h-0.006
		c-0.392,0-0.711-0.316-0.714-0.709c-0.003-0.395,0.314-0.717,0.709-0.72c0.465-0.005,0.894,0.005,1.291,0.031v-1.046
		C13,11.134,14.16,10,15.571,10H18V9.333L15.643,7H8.571C7.703,7,7,7.696,7,8.556z" opacity="0.6" fill-rule="evenodd" clip-rule="evenodd" fill="#333333" enable-background="new"/><path d="M14,13.709v-1.154C14,11.696,14.703,11,15.571,11h7.072L25,13.333v10.111C25,24.304,24.297,25,23.429,25
		h-7.857C14.703,25,14,24.304,14,23.444v-8.301c1.803,0.331,2.739,1.283,4.678,3.428h-1.964C16.32,18.571,16,18.89,16,19.285
		S16.32,20,16.714,20H21v-4.286C21,15.319,20.68,15,20.286,15s-0.714,0.319-0.714,0.714v1.716
		C17.566,15.222,16.375,14.081,14,13.709z" fill-rule="evenodd" clip-rule="evenodd" fill="#333333"/></g><circle cx="16" cy="16" r="15.5" fill="none" stroke="none"/></svg>