<svg version="1.1" xmlns="http://www.w3.org/2000/svg" xmlns:xlink="http://www.w3.org/1999/xlink" x="0px" y="0px" viewBox="0 0 32 32" style="enable-background:new 0 0 32 32;" xml:space="preserve"><circle cx="16" cy="16" r="14" fill="none" stroke="none"/><path d="M12.259,23.75v-2.955c-2.066,0-3.741-1.654-3.741-3.694v-2.956c0-2.04,1.675-3.694,3.741-3.694
	h7.481c2.066,0,3.741,1.654,3.741,3.694V17.1c0,2.04-1.675,3.694-3.741,3.694h-4.489L12.259,23.75z M15.868,22.295h3.873
	c2.877,0,5.241-2.308,5.241-5.194v-2.956c0-2.886-2.364-5.194-5.241-5.194h-7.481c-2.877,0-5.241,2.308-5.241,5.194V17.1
	c0,2.364,1.586,4.34,3.741,4.978v1.672c0,0.605,0.363,1.151,0.922,1.384c0.558,0.233,1.202,0.108,1.632-0.317L15.868,22.295z" fill-rule="evenodd" clip-rule="evenodd" fill="#333333"/><circle cx="16" cy="16" r="15.5" fill="none" stroke="none"/></svg>