<svg version="1.1" xmlns="http://www.w3.org/2000/svg" xmlns:xlink="http://www.w3.org/1999/xlink" x="0px" y="0px" viewBox="0 0 32 32" style="enable-background:new 0 0 32 32;" xml:space="preserve"><circle cx="16" cy="16" r="14" fill="#f3fbff" stroke="#f3fbff"/><g><path d="M9,11c-1.105,0-2,0.895-2,2v8h9V11H9z M19,11v10h6v-8c0-1.105-0.895-2-2-2H19z" opacity="0.6" fill-rule="evenodd" clip-rule="evenodd" fill="#333333" enable-background="new"/><path d="M19,22.364c0,0.682,1.332,1.033,1.9,1.033V23.4c0.212,0,0.416,0.084,0.566,0.234S21.7,23.988,21.7,24.2
		c0,0.212-0.084,0.416-0.234,0.566C21.316,24.916,21.112,25,20.9,25c-0.983-0.005-1.935-0.343-2.7-0.96
		c-0.766,0.616-1.718,0.953-2.7,0.957c-0.212,0-0.416-0.084-0.566-0.234c-0.15-0.15-0.234-0.353-0.234-0.566
		c0-0.212,0.084-0.415,0.234-0.566c0.15-0.15,0.353-0.234,0.566-0.234c0.568,0,1.9-0.351,1.9-1.033V9.7c0-0.829-1.338-1.1-1.8-1.1
		c-0.212,0-0.416-0.084-0.566-0.234C14.884,8.215,14.8,8.012,14.8,7.8c0-0.212,0.084-0.416,0.234-0.566
		C15.184,7.084,15.388,7,15.6,7c0.95,0,1.87,0.333,2.6,0.941C18.93,7.333,19.85,7,20.8,7c0.212,0,0.416,0.084,0.566,0.234
		C21.516,7.384,21.6,7.588,21.6,7.8c0,0.212-0.084,0.416-0.234,0.566C21.216,8.515,21.012,8.6,20.8,8.6c-0.462,0-1.8,0.27-1.8,1.1
		V20h6v1h-6V22.364z M7,20h9v1H7V20z" fill-rule="evenodd" clip-rule="evenodd" fill="#333333"/></g><circle cx="16" cy="16" r="15.5" fill="none" stroke="none"/></svg>