<svg version="1.1" xmlns="http://www.w3.org/2000/svg" xmlns:xlink="http://www.w3.org/1999/xlink" x="0px" y="0px" viewBox="0 0 32 32" style="enable-background:new 0 0 32 32;" xml:space="preserve"><circle cx="16" cy="16" r="14" fill="#cccccc" stroke="#cccccc"/><g><path d="M19,26c3.314,0,6-2.686,6-6s-2.686-6-6-6s-6,2.686-6,6S15.686,26,19,26z M22.25,19.25
		c0.414,0,0.75,0.336,0.75,0.75s-0.336,0.75-0.75,0.75h-2.5v2.5c0,0.414-0.336,0.75-0.75,0.75s-0.75-0.336-0.75-0.75v-2.5h-2.5
		C15.336,20.75,15,20.414,15,20s0.336-0.75,0.75-0.75h2.5v-2.5c0-0.414,0.336-0.75,0.75-0.75s0.75,0.336,0.75,0.75v2.5H22.25z" opacity="0.75" fill-rule="evenodd" clip-rule="evenodd" fill="#333333" enable-background="new"/><path d="M12.504,7c-1.011,0-1.725,0.359-2.145,0.661C9.846,8.029,9.483,8.511,9.365,8.983
		C9.351,9.039,9.23,9.525,9.199,10.115c-0.019,0.356-0.002,0.671,0.05,0.939c0.008,0.042,0.016,0.079,0.025,0.115l0.039,0.15
		l-0.078,0.133c-0.065,0.112-0.115,0.343-0.061,0.653c0.033,0.185,0.102,0.361,0.188,0.483c0.064,0.092,0.125,0.135,0.16,0.145
		l0.215,0.06l0.047,0.22c0.117,0.55,0.3,1.03,0.545,1.424c0.174,0.28,0.385,0.521,0.622,0.718l0.232,0.192l-0.139,0.268
		c-0.066,0.127-0.14,0.241-0.225,0.34c-0.157,0.189-0.348,0.335-0.567,0.435c-0.348,0.156-0.808,0.246-1.295,0.34h0l-0.001,0
		c-0.544,0.104-1.158,0.223-1.654,0.451c-0.529,0.246-0.838,0.574-0.972,1.032c-0.218,0.744-0.248,1.077-0.292,1.7
		C6.01,20.059,6,20.139,6,20.214v0.698C6.016,21.522,6.498,22,7.078,22h5.212C12.101,21.366,12,20.695,12,20
		c0-2.194,1.01-4.153,2.59-5.436c0.029-0.042,0.057-0.085,0.085-0.128c0.244-0.391,0.428-0.871,0.544-1.424l0.046-0.219l0.213-0.061
		c0.035-0.01,0.096-0.054,0.16-0.144c0.086-0.124,0.154-0.299,0.187-0.483c0.055-0.308,0.005-0.539-0.06-0.651l-0.076-0.132
		l0.065-0.267c0.052-0.269,0.07-0.585,0.052-0.939c-0.033-0.615-0.161-1.118-0.163-1.123c-0.119-0.48-0.481-0.962-0.994-1.328
		C14.227,7.36,13.513,7,12.504,7z" fill-rule="evenodd" clip-rule="evenodd" fill="#333333"/></g><circle cx="16" cy="16" r="15.5" fill="none" stroke="none"/></svg>