<svg version="1.1" xmlns="http://www.w3.org/2000/svg" xmlns:xlink="http://www.w3.org/1999/xlink" x="0px" y="0px" viewBox="0 0 32 32" style="enable-background:new 0 0 32 32;" xml:space="preserve"><circle cx="16" cy="16" r="14" fill="none" stroke="none"/><path d="M20.03,12.03L16,8l-4.03,4.03c-0.293,0.293-0.293,0.768,0,1.061c0.293,0.293,0.768,0.293,1.061,0
	l2.97-2.97l2.97,2.97c0.293,0.293,0.768,0.293,1.061,0C20.323,12.798,20.323,12.323,20.03,12.03z M16,20.061c-0.552,0-1-0.448-1-1
	c0-0.552,0.448-1,1-1c0.552,0,1,0.448,1,1C17,19.613,16.552,20.061,16,20.061z M15,15.061c0,0.552,0.448,1,1,1c0.552,0,1-0.448,1-1
	c0-0.552-0.448-1-1-1C15.448,14.061,15,14.508,15,15.061z M12.5,22c-0.414,0-0.75,0.336-0.75,0.75s0.336,0.75,0.75,0.75h7
	c0.414,0,0.75-0.336,0.75-0.75S19.914,22,19.5,22H12.5z" fill-rule="evenodd" clip-rule="evenodd" fill="#333333"/><circle cx="16" cy="16" r="15.5" fill="none" stroke="none"/></svg>