<svg version="1.1" xmlns="http://www.w3.org/2000/svg" xmlns:xlink="http://www.w3.org/1999/xlink" x="0px" y="0px" viewBox="0 0 32 32" style="enable-background:new 0 0 32 32;" xml:space="preserve"><circle cx="16" cy="16" r="14" fill="#dfeefa" stroke="#dfeefa"/><g><path d="M7,19.444V8.556C7,7.696,7.703,7,8.571,7h7.071L18,9.333V10h-2.429C14.16,10,13,11.134,13,12.556V21H8.571
		C7.703,21,7,20.304,7,19.444z" opacity="0.6" fill="#333333" enable-background="new"/><path d="M14,23.444V12.556C14,11.696,14.703,11,15.571,11h7.072L25,13.333v10.111C25,24.304,24.297,25,23.429,25
		h-7.857C14.703,25,14,24.304,14,23.444z M18.75,15c0-0.414,0.336-0.75,0.75-0.75s0.75,0.336,0.75,0.75v2h2
		c0.414,0,0.75,0.336,0.75,0.75s-0.336,0.75-0.75,0.75h-2v2c0,0.414-0.336,0.75-0.75,0.75s-0.75-0.336-0.75-0.75v-2h-2
		c-0.414,0-0.75-0.336-0.75-0.75S16.336,17,16.75,17h2V15z" fill-rule="evenodd" clip-rule="evenodd" fill="#333333"/></g><circle cx="16" cy="16" r="15.5" fill="none" stroke="none"/></svg>