<svg version="1.1" xmlns="http://www.w3.org/2000/svg" xmlns:xlink="http://www.w3.org/1999/xlink" x="0px" y="0px" viewBox="0 0 32 32" style="enable-background:new 0 0 32 32;" xml:space="preserve"><circle cx="16" cy="16" r="14" fill="none" stroke="none"/><g><path d="M25.5,14h-19C6.224,14,6,14.224,6,14.5v1C6,15.776,6.224,16,6.5,16h19c0.276,0,0.5-0.224,0.5-0.5v-1
		C26,14.224,25.776,14,25.5,14z" fill-rule="evenodd" clip-rule="evenodd" fill="#333333"/><path d="M8.811,24.242C8.922,24.688,9.322,25,9.781,25h12.438c0.459,0,0.859-0.312,0.97-0.758L25,17H7L8.811,24.242z
		 M20.5,23h-9c-0.276,0-0.5-0.224-0.5-0.5s0.224-0.5,0.5-0.5h9c0.276,0,0.5,0.224,0.5,0.5S20.776,23,20.5,23z M10.5,19h11
		c0.276,0,0.5,0.224,0.5,0.5S21.776,20,21.5,20h-11c-0.276,0-0.5-0.224-0.5-0.5S10.224,19,10.5,19z" fill-rule="evenodd" clip-rule="evenodd" fill="#333333"/><path d="M14.756,7.251c0.325,0.335,0.325,0.877,0,1.212L10.353,13H8l5.58-5.749
		C13.905,6.916,14.431,6.916,14.756,7.251z M17.244,7.251c0.325-0.335,0.851-0.335,1.176,0L24,13h-2.353l-4.403-4.537
		C16.919,8.128,16.919,7.586,17.244,7.251z" opacity="0.8" fill-rule="evenodd" clip-rule="evenodd" fill="#333333" enable-background="new"/></g><circle cx="16" cy="16" r="15.5" fill="none" stroke="#2e3d98"/></svg>