<svg version="1.1" xmlns="http://www.w3.org/2000/svg" xmlns:xlink="http://www.w3.org/1999/xlink" x="0px" y="0px" viewBox="0 0 32 32" style="enable-background:new 0 0 32 32;" xml:space="preserve"><circle cx="16" cy="16" r="14" fill="none" stroke="none"/><g><path d="M17.5,9c-0.552,0-1,0.448-1,1s0.448,1,1,1h2.086l-4.543,4.543c-0.391,0.391-0.391,1.024,0,1.414
		s1.024,0.391,1.414,0L21,12.414V14.5c0,0.552,0.448,1,1,1s1-0.448,1-1V9H17.5z" fill-rule="evenodd" clip-rule="evenodd" fill="#333333"/><path d="M10.5,10.556H13c0.414,0,0.75-0.348,0.75-0.778C13.75,9.348,13.414,9,13,9h-2.917C9.321,9,9,9.741,9,10.222
		v11.111C9,22.06,9.47,23,10.417,23h11.5C22.679,23,23,22.259,23,21.778v-2.926c0-0.43-0.336-0.778-0.75-0.778
		s-0.75,0.348-0.75,0.778v2.593H10.518c-0.009-0.026-0.018-0.063-0.018-0.111V10.556z" opacity="0.8" fill-rule="evenodd" clip-rule="evenodd" fill="#333333" enable-background="new"/></g><circle cx="16" cy="16" r="15.5" fill="none" stroke="none"/></svg>