<svg version="1.1" xmlns="http://www.w3.org/2000/svg" xmlns:xlink="http://www.w3.org/1999/xlink" x="0px" y="0px" viewBox="0 0 32 32" style="enable-background:new 0 0 32 32;" xml:space="preserve"><circle cx="16" cy="16" r="14" fill="#f3fbff" stroke="#f3fbff"/><path d="M9.25,18c1.243,0,2.25-1.007,2.25-2.25s-1.007-2.25-2.25-2.25C8.007,13.5,7,14.507,7,15.75
	S8.007,18,9.25,18z M16,18c1.243,0,2.25-1.007,2.25-2.25S17.243,13.5,16,13.5s-2.25,1.007-2.25,2.25S14.757,18,16,18z M25,15.75
	c0,1.243-1.007,2.25-2.25,2.25s-2.25-1.007-2.25-2.25s1.007-2.25,2.25-2.25S25,14.507,25,15.75z" fill-rule="evenodd" clip-rule="evenodd" fill="#627783"/><circle cx="16" cy="16" r="15.5" fill="none" stroke="none"/></svg>