<svg version="1.1" xmlns="http://www.w3.org/2000/svg" xmlns:xlink="http://www.w3.org/1999/xlink" x="0px" y="0px" viewBox="0 0 32 32" style="enable-background:new 0 0 32 32;" xml:space="preserve"><circle cx="16" cy="16" r="14" fill="#a0a4bc" stroke="#a0a4bc"/><g><path d="M10.5,8h11C21.776,8,22,8.224,22,8.5V11H10V8.5C10,8.224,10.224,8,10.5,8z M9,11H7.75
		C6.784,11,6,11.783,6,12.75v6.5C6,20.216,6.784,21,7.75,21H9v2.5c0,0.828,0.672,1.5,1.5,1.5h11c0.828,0,1.5-0.672,1.5-1.5V21h1.25
		c0.966,0,1.75-0.784,1.75-1.75v-6.5c0-0.967-0.784-1.75-1.75-1.75H23V8.5C23,7.672,22.328,7,21.5,7h-11C9.672,7,9,7.672,9,8.5V11z
		 M22,22v1.5c0,0.276-0.224,0.5-0.5,0.5h-11c-0.276,0-0.5-0.224-0.5-0.5V22v-1v-4h12v4V22z M19.5,13c-0.276,0-0.5,0.224-0.5,0.5
		s0.224,0.5,0.5,0.5h2c0.276,0,0.5-0.224,0.5-0.5S21.776,13,21.5,13H19.5z" fill-rule="evenodd" clip-rule="evenodd" fill="#333333"/><path d="M13.5,19h6c0.276,0,0.5,0.224,0.5,0.5l0,0c0,0.276-0.224,0.5-0.5,0.5h-6c-0.276,0-0.5-0.224-0.5-0.5l0,0
		C13,19.224,13.224,19,13.5,19z" opacity="0.6" fill="#333333" enable-background="new"/><path d="M12.5,21h7c0.276,0,0.5,0.224,0.5,0.5l0,0c0,0.276-0.224,0.5-0.5,0.5h-7c-0.276,0-0.5-0.224-0.5-0.5l0,0
		C12,21.224,12.224,21,12.5,21z" opacity="0.6" fill="#333333" enable-background="new"/></g><circle cx="16" cy="16" r="15.5" fill="none" stroke="none"/></svg>