<svg version="1.1" xmlns="http://www.w3.org/2000/svg" xmlns:xlink="http://www.w3.org/1999/xlink" x="0px" y="0px" viewBox="0 0 32 32" style="enable-background:new 0 0 32 32;" xml:space="preserve"><circle cx="16" cy="16" r="14" fill="#cccccc" stroke="#cccccc"/><g><path d="M21.707,10.293c-0.391-0.391-1.024-0.391-1.414,0L15,15.586V13.5c0-0.552-0.448-1-1-1s-1,0.448-1,1V19h5.5
		c0.552,0,1-0.448,1-1s-0.448-1-1-1h-2.086l5.293-5.293C22.098,11.317,22.098,10.683,21.707,10.293z" fill-rule="evenodd" clip-rule="evenodd" fill="#333333"/><path d="M10.5,10.556H16c0.414,0,0.75-0.348,0.75-0.778C16.75,9.348,16.414,9,16,9h-5.917C9.321,9,9,9.741,9,10.222
		v11.111C9,22.06,9.47,23,10.417,23h11.5C22.679,23,23,22.259,23,21.778v-5.926c0-0.43-0.336-0.778-0.75-0.778
		s-0.75,0.348-0.75,0.778v5.593H10.518c-0.009-0.026-0.018-0.063-0.018-0.111V10.556z" opacity="0.8" fill-rule="evenodd" clip-rule="evenodd" fill="#333333" enable-background="new"/></g><circle cx="16" cy="16" r="15.5" fill="none" stroke="none"/></svg>