<svg version="1.1" xmlns="http://www.w3.org/2000/svg" xmlns:xlink="http://www.w3.org/1999/xlink" x="0px" y="0px" viewBox="0 0 32 32" style="enable-background:new 0 0 32 32;" xml:space="preserve"><circle cx="16" cy="16" r="14" fill="none" stroke="none"/><g><defs><filter filterUnits="userSpaceOnUse" x="6.5" y="7.5" width="19" height="17"><feColorMatrix type="matrix" values="1 0 0 0 0  0 1 0 0 0  0 0 1 0 0  0 0 0 1 0"/></filter></defs><mask maskUnits="userSpaceOnUse" x="6.5" y="7.5" width="19" height="17"><path d="M9,9h14c0.552,0,1,0.448,1,1v12c0,0.552-0.448,1-1,1H9c-0.552,0-1-0.448-1-1V10C8,9.448,8.448,9,9,9z" fill="#FFFFFF" filter="url(#Adobe_OpacityMaskFilter)"/></mask><path d="M9,9h14c0.552,0,1,0.448,1,1v12c0,0.552-0.448,1-1,1H9c-0.552,0-1-0.448-1-1V10C8,9.448,8.448,9,9,9z" mask="url(#path-4-inside-1_1_)" fill="none" stroke="#333333" stroke-width="3"/><rect x="9" y="14" width="14" height="1" fill="#333333"/><rect x="9" y="18" width="14" height="1" fill="#333333"/></g><circle cx="16" cy="16" r="15.5" fill="none" stroke="#cccccc"/></svg>