<svg id="Layer_1" data-name="Layer 1" xmlns="http://www.w3.org/2000/svg" viewBox="0 0 24 24"><defs><style>.cls-1{fill:#7a7b7e;}</style></defs><title>toolbarArtboard 3</title><path class="cls-1" d="M12,19.65c-7.82,0-12-6.4-12-7.65S4.18,4.35,12,4.35,24,10.76,24,12,19.82,19.65,12,19.65ZM12,7.12A4.88,4.88,0,1,0,16.87,12,4.89,4.89,0,0,0,12,7.12ZM12,15A3,3,0,0,1,12,9a.6.6,0,0,1,.49.23c.25.33.12.81,0,1.43a2.92,2.92,0,0,0-.17,1.09h.08a4.47,4.47,0,0,0,.89-.17,4.5,4.5,0,0,1,1-.18A.62.62,0,0,1,15,12,3,3,0,0,1,12,15Z"/></svg>