<?xml version="1.0" encoding="utf-8"?>
<!-- Generator: Adobe Illustrator 19.1.0, SVG Export Plug-In . SVG Version: 6.00 Build 0)  -->
<svg version="1.1" id="Layer_1" xmlns="http://www.w3.org/2000/svg" xmlns:xlink="http://www.w3.org/1999/xlink" x="0px" y="0px"
	 viewBox="4 -4 32 32" style="enable-background:new 4 -4 32 32;" xml:space="preserve">
<style type="text/css">
	.st0{fill:#0072AA;}
	.st1{fill:#FFFFFF;}
	.st2{fill:#FFFFFF;stroke:#0072AA;stroke-width:0.5;stroke-linecap:round;stroke-linejoin:round;stroke-miterlimit:10;}
</style>
<g>
	<path class="st0" d="M35.515,18.665v0.679c0,0.776-0.679,1.455-1.455,1.455H5.939c-0.776,0-1.455-0.679-1.455-1.455v-0.679H35.515z
		"/>
	<path class="st1" d="M34.061,21.283H5.939C4.888,21.283,4,20.395,4,19.344v-1.163h32v1.163C36,20.395,35.112,21.283,34.061,21.283z
		 M4.97,19.15v0.193c0,0.508,0.462,0.97,0.97,0.97h28.121c0.508,0,0.97-0.462,0.97-0.97V19.15H4.97z"/>
</g>
<g>
	<path class="st0" d="M28.533,1.502h-0.873H10.012v12.121c0,1.842,1.455,3.2,3.2,3.2h12.121c1.745,0,3.2-1.455,3.2-3.2v-0.582
		c3.103-0.485,5.43-2.909,5.43-5.818C33.964,4.411,31.636,1.986,28.533,1.502z"/>
	<path class="st1" d="M25.333,17.308H13.212c-2.066,0-3.685-1.618-3.685-3.685V1.017l19.08,0.006c3.33,0.52,5.841,3.186,5.841,6.2
		c0,2.992-2.259,5.551-5.431,6.221v0.179C29.018,15.62,27.33,17.308,25.333,17.308z M10.497,1.987v11.636
		c0,1.523,1.193,2.715,2.715,2.715h12.121c1.472,0,2.715-1.243,2.715-2.715v-0.997l0.41-0.064c2.909-0.455,5.021-2.7,5.021-5.339
		c0-2.53-2.14-4.776-4.984-5.236H10.497z"/>
</g>
<path class="st2" d="M28.8,11c2.2-0.3,3.9-1.9,3.9-3.8S31,3.8,28.8,3.4V11z"/>
</svg>
