<?xml version="1.0" encoding="utf-8"?>
<!-- Generator: Adobe Illustrator 19.1.0, SVG Export Plug-In . SVG Version: 6.00 Build 0)  -->
<svg version="1.1" id="Layer_1" xmlns="http://www.w3.org/2000/svg" xmlns:xlink="http://www.w3.org/1999/xlink" x="0px" y="0px"
	 viewBox="4 -4 32 32" style="enable-background:new 4 -4 32 32;" xml:space="preserve">
<style type="text/css">
	.st0{fill:#F9C511;}
	.st1{fill:#FFFFFF;}
	.st2{fill:#333333;}
</style>
<g>
	<g>
		<g>
			<circle class="st0" cx="20" cy="12" r="15.515"/>
			<path class="st1" d="M20,28c-8.822,0-16-7.178-16-16C4,3.178,11.178-4,20-4c8.822,0,16,7.178,16,16C36,20.822,28.822,28,20,28z
				 M20-3.03C11.712-3.03,4.97,3.712,4.97,12S11.712,27.03,20,27.03S35.03,20.288,35.03,12S28.288-3.03,20-3.03z"/>
		</g>
	</g>
	<g>
		<circle class="st2" cx="13.697" cy="10.448" r="2.036"/>
	</g>
	<g>
		<path class="st2" d="M13.697,13.745c-1.842,0-3.394-1.552-3.394-3.394s1.552-3.394,3.394-3.394s3.394,1.552,3.394,3.394
			S15.539,13.745,13.697,13.745z M13.697,7.636c-1.552,0-2.715,1.261-2.715,2.715s1.261,2.715,2.715,2.715s2.715-1.261,2.715-2.715
			S15.152,7.636,13.697,7.636z"/>
	</g>
	<g>
		<path class="st2" d="M26.206,13.745c-1.842,0-3.394-1.552-3.394-3.394s1.552-3.394,3.394-3.394S29.6,8.509,29.6,10.352
			S28.048,13.745,26.206,13.745z M26.206,7.636c-1.552,0-2.715,1.261-2.715,2.715s1.261,2.715,2.715,2.715
			c1.552,0,2.715-1.261,2.715-2.715S27.758,7.636,26.206,7.636z"/>
	</g>
	<g>
		<circle class="st2" cx="26.206" cy="10.448" r="2.036"/>
	</g>
	<g>
		<path class="st2" d="M23.782,21.6c-0.097,0-0.194,0-0.291,0l-10.182-3.297c-0.485-0.194-0.776-0.679-0.582-1.164
			s0.679-0.776,1.164-0.582l10.085,3.2c0.485,0.194,0.776,0.679,0.582,1.164C24.461,21.309,24.17,21.6,23.782,21.6z"/>
	</g>
</g>
</svg>
