<?xml version="1.0" encoding="utf-8"?>
<!-- Generator: Adobe Illustrator 19.1.0, SVG Export Plug-In . SVG Version: 6.00 Build 0)  -->
<svg version="1.1" id="Layer_1" xmlns="http://www.w3.org/2000/svg" xmlns:xlink="http://www.w3.org/1999/xlink" x="0px" y="0px"
	 viewBox="4 -4 32 32" style="enable-background:new 4 -4 32 32;" xml:space="preserve">
<style type="text/css">
	.st0{fill:#007D87;}
	.st1{fill:#FFFFFF;}
</style>
<g>
	<g>
		<path class="st0" d="M16.603,24.315c0-0.485,0.097-0.873,0.291-1.261s0.388-0.776,0.679-1.067
			c0.291-0.291,0.679-0.485,1.067-0.679c0.388-0.194,0.776-0.291,1.261-0.291c0.485,0,0.873,0.097,1.261,0.291
			s0.776,0.388,1.067,0.679c0.291,0.291,0.485,0.582,0.679,1.067c0.194,0.388,0.291,0.776,0.291,1.261
			c0,0.485-0.097,0.873-0.291,1.261s-0.388,0.679-0.679,0.97c-0.291,0.291-0.582,0.485-1.067,0.679
			c-0.388,0.194-0.776,0.291-1.261,0.291c-0.485,0-0.873-0.097-1.261-0.291c-0.388-0.194-0.776-0.388-1.067-0.679
			c-0.291-0.291-0.485-0.582-0.679-0.97S16.603,24.8,16.603,24.315z M22.421-3.515V8.606c0,1.261-0.097,2.521-0.194,3.782
			c-0.097,1.261-0.291,2.521-0.485,3.976h-3.588c-0.194-1.358-0.388-2.715-0.485-3.976s-0.194-2.521-0.194-3.782V-3.515H22.421z"/>
		<path class="st1" d="M19.9,28c-0.542,0-1.011-0.109-1.477-0.342c-0.418-0.209-0.847-0.424-1.193-0.77
			c-0.311-0.312-0.541-0.639-0.77-1.096c-0.233-0.468-0.342-0.938-0.342-1.477c0-0.542,0.108-1.01,0.342-1.477
			c0.208-0.417,0.423-0.847,0.77-1.193c0.346-0.346,0.775-0.561,1.191-0.769c0.939-0.468,2.019-0.468,2.956-0.001
			c0.42,0.21,0.848,0.424,1.193,0.77c0.348,0.348,0.576,0.705,0.786,1.23c0.217,0.428,0.326,0.898,0.326,1.44
			c0,0.542-0.109,1.01-0.342,1.477c-0.228,0.456-0.458,0.784-0.77,1.096c-0.348,0.348-0.705,0.577-1.229,0.786
			C20.911,27.891,20.441,28,19.9,28z M19.9,21.503c-0.394,0-0.707,0.072-1.044,0.24c-0.364,0.182-0.705,0.353-0.94,0.588
			s-0.407,0.578-0.588,0.941c-0.168,0.336-0.24,0.648-0.24,1.044c0,0.395,0.071,0.707,0.24,1.044
			c0.184,0.367,0.349,0.604,0.588,0.844c0.235,0.235,0.577,0.406,0.939,0.587c0.674,0.337,1.417,0.336,2.089,0.001
			c0.44-0.178,0.686-0.333,0.94-0.588c0.24-0.24,0.404-0.476,0.588-0.844c0.168-0.336,0.24-0.648,0.24-1.044
			c0-0.397-0.072-0.708-0.24-1.044c-0.178-0.441-0.333-0.687-0.588-0.941c-0.234-0.234-0.576-0.405-0.937-0.586
			C20.607,21.575,20.294,21.503,19.9,21.503z M22.166,16.848h-4.432l-0.06-0.417c-0.191-1.34-0.39-2.725-0.488-4.007
			c-0.096-1.249-0.196-2.54-0.196-3.819V-4h5.915V8.606c0,1.291-0.099,2.577-0.196,3.819c-0.077,1.005-0.216,2.019-0.364,3.092
			L22.166,16.848z M18.575,15.879h2.744l0.067-0.493c0.145-1.059,0.283-2.059,0.357-3.034c0.096-1.225,0.193-2.491,0.193-3.745
			V-3.03h-3.976V8.606c0,1.242,0.098,2.514,0.193,3.745C18.239,13.471,18.406,14.686,18.575,15.879z"/>
	</g>
</g>
</svg>
