<?xml version="1.0" encoding="utf-8"?>
<!-- Generator: Adobe Illustrator 19.1.0, SVG Export Plug-In . SVG Version: 6.00 Build 0)  -->
<svg version="1.1" id="Layer_1" xmlns="http://www.w3.org/2000/svg" xmlns:xlink="http://www.w3.org/1999/xlink" x="0px" y="0px"
	 viewBox="20 -20 64 64" style="enable-background:new 20 -20 64 64;" xml:space="preserve">
<style type="text/css">
	.st0{fill:#007D87;}
	.st1{fill:#FFFFFF;}
</style>
<g>
	<g>
		<path class="st0" d="M35.541-13.232c0.968-0.854,2.029-1.665,3.18-2.433c1.154-0.769,2.398-1.438,3.737-2.007
			c1.336-0.569,2.788-1.017,4.355-1.345c1.565-0.327,3.258-0.491,5.079-0.491c2.476,0,4.732,0.342,6.768,1.025
			c2.033,0.682,3.778,1.658,5.23,2.924c1.452,1.267,2.576,2.795,3.372,4.589c0.797,1.793,1.195,3.8,1.195,6.019
			c0,2.163-0.313,4.035-0.938,5.614c-0.628,1.579-1.418,2.953-2.37,4.12c-0.954,1.168-1.987,2.178-3.097,3.032
			s-2.163,1.658-3.16,2.412c-0.996,0.754-1.858,1.494-2.583,2.22c-0.725,0.725-1.161,1.544-1.302,2.454l-0.982,6.233h-7.215
			l-0.725-6.958c-0.031-0.143-0.044-0.263-0.044-0.363c0-0.099,0-0.22,0-0.362c0-1.252,0.313-2.34,0.94-3.266
			c0.625-0.926,1.408-1.794,2.348-2.604c0.938-0.81,1.948-1.601,3.03-2.37c1.082-0.768,2.091-1.601,3.032-2.497
			c0.938-0.898,1.721-1.914,2.348-3.053c0.625-1.138,0.938-2.476,0.938-4.013c0-1.025-0.192-1.944-0.577-2.754
			C57.717-7.92,57.185-8.617,56.501-9.2s-1.501-1.031-2.456-1.345c-0.954-0.313-1.985-0.469-3.095-0.469
			c-1.622,0-2.995,0.178-4.121,0.534c-1.123,0.355-2.078,0.754-2.86,1.195s-1.445,0.84-1.985,1.195
			c-0.54,0.356-1.024,0.534-1.45,0.534c-1.026,0-1.767-0.427-2.221-1.281L35.541-13.232z M43.611,37.103
			c0-0.881,0.162-1.721,0.491-2.518c0.327-0.797,0.781-1.48,1.365-2.05c0.584-0.569,1.274-1.025,2.071-1.367
			s1.651-0.512,2.562-0.512c0.882,0,1.723,0.17,2.52,0.512s1.48,0.798,2.05,1.367c0.567,0.57,1.024,1.253,1.365,2.05
			c0.343,0.797,0.514,1.636,0.514,2.518c0,0.912-0.171,1.759-0.514,2.541c-0.341,0.783-0.797,1.459-1.365,2.028
			c-0.57,0.57-1.253,1.018-2.05,1.345c-0.798,0.326-1.638,0.49-2.521,0.49c-0.911,0-1.765-0.164-2.562-0.491
			c-0.797-0.327-1.487-0.775-2.071-1.345c-0.584-0.569-1.038-1.245-1.365-2.028C43.772,38.861,43.611,38.015,43.611,37.103z"/>
		<path class="st1" d="M50.098,44c-0.97,0-1.895-0.178-2.749-0.528c-0.852-0.35-1.601-0.837-2.227-1.449
			c-0.627-0.612-1.124-1.348-1.475-2.19c-0.35-0.833-0.528-1.752-0.528-2.73c0-0.946,0.178-1.856,0.529-2.705
			c0.351-0.858,0.848-1.603,1.476-2.215c0.624-0.609,1.371-1.102,2.22-1.466c1.681-0.722,3.735-0.743,5.47-0.001
			c0.85,0.365,1.591,0.861,2.204,1.472c0.612,0.614,1.107,1.357,1.469,2.205c0.367,0.852,0.554,1.764,0.554,2.711
			c0,0.977-0.188,1.898-0.556,2.739c-0.362,0.833-0.856,1.565-1.467,2.178c-0.613,0.613-1.358,1.103-2.212,1.453
			C51.95,43.823,51.039,44,50.098,44z M50.099,31.149c-0.841,0-1.638,0.159-2.367,0.472c-0.738,0.316-1.384,0.742-1.921,1.267
			c-0.531,0.517-0.952,1.151-1.253,1.884c-0.301,0.731-0.454,1.514-0.454,2.331c0,0.846,0.152,1.637,0.452,2.349
			c0.3,0.72,0.722,1.348,1.255,1.866c0.535,0.523,1.179,0.941,1.913,1.242c1.444,0.593,3.21,0.613,4.709,0.001
			c0.732-0.3,1.367-0.716,1.888-1.237c0.523-0.524,0.948-1.156,1.261-1.876c0.315-0.717,0.474-1.506,0.474-2.345
			c0-0.812-0.16-1.592-0.474-2.322c-0.313-0.735-0.737-1.372-1.262-1.898c-0.522-0.521-1.161-0.946-1.895-1.262
			C51.695,31.308,50.912,31.149,50.099,31.149z M54.448,21.627h-8.08l-0.77-7.4c-0.028-0.116-0.047-0.274-0.047-0.414V13.45
			c0-1.346,0.345-2.538,1.025-3.542c0.648-0.958,1.467-1.867,2.435-2.701c0.954-0.824,1.986-1.631,3.065-2.399
			c1.051-0.746,2.053-1.571,2.978-2.452c0.899-0.861,1.659-1.848,2.256-2.935c0.583-1.06,0.878-2.33,0.878-3.775
			c0-0.948-0.178-1.803-0.53-2.543c-0.354-0.747-0.85-1.395-1.475-1.929c-0.632-0.539-1.403-0.96-2.29-1.252
			c-0.898-0.295-1.888-0.444-2.941-0.444c-1.562,0-2.899,0.172-3.973,0.511c-1.084,0.343-2.015,0.732-2.766,1.155
			c-0.775,0.437-1.433,0.833-1.956,1.178c-0.618,0.408-1.197,0.615-1.722,0.615c-1.201,0-2.12-0.533-2.656-1.542l-2.978-4.718
			l0.314-0.277c0.975-0.861,2.062-1.693,3.233-2.474c1.177-0.784,2.461-1.474,3.817-2.05c1.357-0.578,2.853-1.04,4.446-1.374
			C48.305-19.831,50.048-20,51.892-20c2.518,0,4.848,0.353,6.925,1.05c2.085,0.7,3.901,1.715,5.397,3.02
			c1.501,1.31,2.678,2.911,3.499,4.761c0.821,1.85,1.237,3.942,1.237,6.219c0,2.216-0.327,4.166-0.973,5.795
			c-0.644,1.621-1.467,3.05-2.445,4.25c-0.973,1.19-2.042,2.237-3.179,3.111c-1.111,0.854-2.165,1.66-3.162,2.414
			c-0.979,0.741-1.83,1.473-2.531,2.176c-0.649,0.648-1.04,1.382-1.164,2.182L54.448,21.627z M47.256,20.642h6.35l0.916-5.817
			c0.157-1.009,0.641-1.926,1.44-2.725c0.733-0.735,1.619-1.497,2.634-2.265c0.995-0.753,2.048-1.557,3.157-2.41
			c1.076-0.828,2.091-1.822,3.016-2.953c0.914-1.121,1.686-2.463,2.292-3.99c0.6-1.513,0.904-3.34,0.904-5.432
			c0-2.138-0.388-4.097-1.153-5.819c-0.763-1.717-1.854-3.204-3.246-4.418c-1.398-1.219-3.102-2.171-5.063-2.829
			c-1.976-0.663-4.2-1-6.611-1c-1.776,0-3.451,0.162-4.978,0.481c-1.53,0.321-2.964,0.763-4.263,1.316
			c-1.3,0.552-2.53,1.213-3.656,1.963c-1.008,0.673-1.952,1.384-2.812,2.118l2.547,4.038c0.388,0.727,0.956,1.051,1.805,1.051
			c0.328,0,0.725-0.152,1.179-0.452c0.542-0.358,1.22-0.766,2.014-1.214c0.811-0.457,1.804-0.873,2.953-1.236
			c1.17-0.37,2.606-0.557,4.269-0.557c1.158,0,2.25,0.166,3.249,0.493c1.01,0.332,1.892,0.816,2.621,1.438
			c0.732,0.624,1.312,1.383,1.727,2.256c0.413,0.873,0.624,1.87,0.624,2.965c0,1.613-0.337,3.043-0.999,4.25
			c-0.646,1.174-1.467,2.241-2.439,3.172c-0.96,0.914-1.998,1.77-3.088,2.543c-1.054,0.749-2.062,1.537-2.993,2.341
			c-0.902,0.777-1.663,1.621-2.263,2.507c-0.567,0.839-0.855,1.844-0.855,2.99v0.363c0,0.07,0.011,0.158,0.033,0.26L47.256,20.642z"
			/>
	</g>
</g>
</svg>
