<?xml version="1.0" encoding="utf-8"?>
<!-- Generator: Adobe Illustrator 19.1.0, SVG Export Plug-In . SVG Version: 6.00 Build 0)  -->
<svg version="1.1" id="Layer_1" xmlns="http://www.w3.org/2000/svg" xmlns:xlink="http://www.w3.org/1999/xlink" x="0px" y="0px"
	 viewBox="4 -4 32 32" style="enable-background:new 4 -4 32 32;" xml:space="preserve">
<style type="text/css">
	.st0{fill:#F9C511;}
	.st1{fill:#FFFFFF;}
	.st2{fill:#333333;}
</style>
<g>
	<g>
		<g>
			<circle class="st0" cx="20" cy="12" r="15.515"/>
			<path class="st1" d="M20,28c-8.822,0-16-7.178-16-16C4,3.178,11.178-4,20-4c8.822,0,16,7.178,16,16C36,20.822,28.822,28,20,28z
				 M20-3.03C11.712-3.03,4.97,3.712,4.97,12S11.712,27.03,20,27.03S35.03,20.288,35.03,12S28.288-3.03,20-3.03z"/>
		</g>
	</g>
	<g>
		<circle class="st2" cx="13.697" cy="10.448" r="2.036"/>
	</g>
	<g>
		<circle class="st2" cx="26.303" cy="10.448" r="2.036"/>
	</g>
	<g>
		<path class="st2" d="M14.376,21.115c-0.194,0-0.291,0-0.485-0.097c-0.388-0.291-0.582-0.873-0.291-1.261
			c1.358-2.23,3.879-3.588,6.497-3.588c2.521,0,4.848,1.358,6.206,3.394c0.291,0.388,0.194,0.97-0.291,1.261
			c-0.388,0.291-0.97,0.194-1.261-0.291c-1.067-1.552-2.812-2.521-4.655-2.618c-2.036,0-3.879,0.97-4.945,2.715
			C15.055,21.018,14.667,21.115,14.376,21.115z"/>
	</g>
</g>
</svg>
