<?xml version="1.0" encoding="utf-8"?>
<!-- Generator: Adobe Illustrator 19.1.0, SVG Export Plug-In . SVG Version: 6.00 Build 0)  -->
<svg version="1.1" id="Layer_1" xmlns="http://www.w3.org/2000/svg" xmlns:xlink="http://www.w3.org/1999/xlink" x="0px" y="0px"
	 viewBox="4 -4 32 32" style="enable-background:new 4 -4 32 32;" xml:space="preserve">
<style type="text/css">
	.st0{fill:#E76F2E;}
	.st1{fill:#FFFFFF;}
</style>
<g>
	<g>
		<path class="st0" d="M19.03-2.049c0.538-1.72,1.398-1.72,2.043,0l2.043,6.344c0.538,1.72,2.473,3.118,4.194,3.118h6.667
			c1.72,0,2.043,0.86,0.645,1.935l-5.376,3.979c-1.398,1.075-2.151,3.226-1.613,4.946l2.043,6.344
			c0.538,1.72-0.215,2.258-1.613,1.183l-5.376-3.979c-1.398-1.075-3.763-1.075-5.269,0l-5.376,3.979
			c-1.398,1.075-2.151,0.538-1.613-1.183l2.043-6.452c0.538-1.72-0.215-3.979-1.613-5.054L5.481,9.134
			C4.083,8.058,4.298,7.198,6.126,7.198h6.667c1.72,0,3.656-1.398,4.194-3.118L19.03-2.049z"/>
		<path class="st1" d="M10.838,26.896c-0.269,0-0.476-0.085-0.63-0.192c-0.373-0.259-0.727-0.861-0.293-2.246l2.043-6.454
			c0.459-1.47-0.194-3.516-1.428-4.465L5.161,9.566C4.014,8.684,3.946,7.997,4.089,7.576c0.207-0.607,0.892-0.916,2.037-0.916h6.666
			c1.505,0,3.225-1.281,3.681-2.741l2.044-6.134c0.34-1.086,0.833-1.645,1.465-1.663c0.684-0.044,1.179,0.534,1.592,1.639
			l2.052,6.368c0.458,1.465,2.178,2.746,3.682,2.746h6.667c1.392,0,1.858,0.507,2.001,0.932c0.145,0.425,0.084,1.112-1.029,1.967
			l-5.384,3.985c-1.254,0.964-1.881,2.878-1.42,4.353l2.041,6.34c0.435,1.389,0.081,1.991-0.292,2.25
			c-0.37,0.257-1.044,0.382-2.16-0.477l-5.369-3.972c-1.21-0.932-3.329-0.929-4.636,0.005l-5.369,3.973
			C11.713,26.731,11.214,26.896,10.838,26.896z M6.126,7.736c-0.714,0-0.987,0.148-1.025,0.2c0.008,0.04,0.133,0.33,0.708,0.772
			l5.369,3.972c1.618,1.244,2.407,3.723,1.806,5.647l-2.043,6.454c-0.215,0.689-0.148,0.997-0.107,1.05
			c0.049,0.008,0.338-0.041,0.879-0.457l5.384-3.985c1.692-1.207,4.342-1.202,5.916,0.006l5.369,3.972
			c0.55,0.424,0.848,0.467,0.909,0.447c0.018-0.038,0.086-0.345-0.13-1.036l-2.041-6.34c-0.597-1.911,0.175-4.29,1.797-5.537
			L34.3,8.917c0.649-0.499,0.658-0.767,0.657-0.77c-0.023-0.032-0.274-0.196-0.982-0.196h-6.667c-1.993,0-4.104-1.568-4.706-3.496
			l-2.041-6.339c-0.289-0.768-0.531-0.904-0.563-0.918c0.001,0.015-0.22,0.16-0.456,0.913l-0.003,0.01L17.497,4.25
			c-0.599,1.917-2.711,3.486-4.704,3.486H6.126z"/>
	</g>
</g>
</svg>
