<?xml version="1.0" encoding="utf-8"?>
<!-- Generator: Adobe Illustrator 20.1.0, SVG Export Plug-In . SVG Version: 6.00 Build 0)  -->
<svg version="1.1" id="Layer_1" xmlns="http://www.w3.org/2000/svg" xmlns:xlink="http://www.w3.org/1999/xlink" x="0px" y="0px"
	 viewBox="0 0 24 24" style="enable-background:new 0 0 24 24;" xml:space="preserve">
<style type="text/css">
	.st0{fill:#627782;}
</style>
<title>Asset 8</title>
<g>
	<path class="st0" d="M21.707,20.293l-4.766-4.766L20.2,12.2c0.2-0.2,0.2-0.6,0-0.8c-0.2-0.1-0.5-0.1-0.7,0.1l-3.293,3.293
		l-1.45-1.45L20.3,7.8c1.7-1.7,2.2-3.7,0.9-5l-1.1-1.1c-1.4-1.3-3.4-0.8-5.1,0.9L9.507,8.093l-5.8-5.8
		c-0.391-0.391-1.023-0.391-1.414,0s-0.391,1.023,0,1.414l18,18C20.488,21.902,20.744,22,21,22s0.512-0.098,0.707-0.293
		C22.098,21.316,22.098,20.684,21.707,20.293z M15.8,3.4c1.2-1.2,2.8-1.6,3.7-0.7l0.7,0.7c0.9,0.9,0.6,2.4-0.7,3.7l-5.493,5.493
		l-1.547-1.547L12.8,10.7c0.2-0.2,0.2-0.6,0-0.8c-0.2-0.1-0.5-0.1-0.7,0.1l-0.343,0.343l-1.45-1.45L15.8,3.4z"/>
	<path class="st0" d="M10.314,13.228l-0.721-0.721L6.1,16C6,16.1,6,16.1,5.9,16.2c-0.7,0.9-0.7,2.2,0.2,3c0.9,0.7,2.2,0.7,3-0.2
		l3.493-3.493l-0.75-0.75L8.4,18.2c-0.5,0.4-1.1,0.4-1.5,0c-0.4-0.4-0.4-1.1,0-1.5L10.314,13.228z"/>
	<path class="st0" d="M9.8,21.2c-1.3,1.4-3.9,0.6-5.2-0.7c-1.3-1.3-2.1-3.8-0.7-5.2l4.243-4.243l-0.8-0.8L3.1,14.5
		c-1.7,1.8-1,4.9,0.8,6.7c1.8,1.8,4.9,2.6,6.7,0.8l4.199-4.287l-0.756-0.756L9.8,21.2z"/>
</g>
</svg>
