<svg id="Layer_1" data-name="Layer 1" xmlns="http://www.w3.org/2000/svg" viewBox="0 0 24 24"><defs><style>.cls-1{fill:#a9a9a9;}.cls-2{fill:#ccc;}.cls-3{fill:#f5f5f5;}.cls-4{fill:#7a7b7e;}</style></defs><title>toolbarArtboard 6</title><rect class="cls-1" x="0.38" y="0.38" width="15" height="15" rx="2.49" ry="2.49"/><path class="cls-2" d="M9,11.11V15h3.89A2.12,2.12,0,0,0,15,12.89V9H11.11A2.12,2.12,0,0,0,9,11.11Z"/><path class="cls-3" d="M12.89,15.75H9v5.39a2.12,2.12,0,0,0,2.11,2.11h10a2.12,2.12,0,0,0,2.11-2.11v-10A2.12,2.12,0,0,0,21.14,9H15.75v3.89A2.86,2.86,0,0,1,12.89,15.75Z"/><path class="cls-4" d="M21,8H16V3a3.1,3.1,0,0,0-3-3H3A3.1,3.1,0,0,0,0,3V13a3.1,3.1,0,0,0,3,3H8v5a3.1,3.1,0,0,0,3,3H21a3.1,3.1,0,0,0,3-3V11A3.1,3.1,0,0,0,21,8ZM3,15a1.93,1.93,0,0,1-2-2V3A1.93,1.93,0,0,1,3,1H13a1.93,1.93,0,0,1,2,2V8H11a3.1,3.1,0,0,0-3,3v4ZM15,9v3.89A2.12,2.12,0,0,1,12.89,15H9V11.11A2.12,2.12,0,0,1,11.11,9Zm8,12a1.93,1.93,0,0,1-2,2H11a1.93,1.93,0,0,1-2-2V16h4a3.1,3.1,0,0,0,3-3V9h5a1.93,1.93,0,0,1,2,2Z"/></svg>