<?xml version="1.0" encoding="utf-8"?>
<!-- Generator: Adobe Illustrator 19.1.0, SVG Export Plug-In . SVG Version: 6.00 Build 0)  -->
<svg version="1.1" xmlns="http://www.w3.org/2000/svg" xmlns:xlink="http://www.w3.org/1999/xlink" x="0px" y="0px"
	 viewBox="0 0 32 32" enable-background="new 0 0 32 32" xml:space="preserve">
<g id="Layer_2">
</g>
<g id="Layer_1">
</g>
<g id="Layer_3">
</g>
<g id="Layer_4">
</g>
<g id="Layer_5">
	<g>
		<g>
			<circle fill="#FFFFFF" cx="16" cy="16" r="15"/>
			<path fill="#D24625" d="M16,31.5C7.453,31.5,0.5,24.547,0.5,16S7.453,0.5,16,0.5S31.5,7.453,31.5,16S24.547,31.5,16,31.5z
				 M16,1.5C8.005,1.5,1.5,8.005,1.5,16S8.005,30.5,16,30.5S30.5,23.995,30.5,16S23.995,1.5,16,1.5z"/>
		</g>
		<path fill="#D24625" d="M16.041,22.105c4.244,0,7.471-1.611,8.272-2.989c-0.02-0.071-0.032-0.128-0.055-0.206
			c-0.204-0.692-0.681-1.201-1.457-1.558c-0.662-0.304-1.457-0.456-2.157-0.59c-0.58-0.111-1.127-0.216-1.51-0.387
			c-0.209-0.094-0.392-0.233-0.542-0.412c-0.083-0.099-0.158-0.213-0.224-0.34c0.334-0.274,0.624-0.606,0.867-0.993
			c0.335-0.532,0.581-1.169,0.737-1.903c0.16-0.046,0.316-0.168,0.447-0.355c0.146-0.207,0.256-0.484,0.309-0.779
			c0.077-0.43,0.029-0.841-0.129-1.113c0.014-0.056,0.027-0.113,0.039-0.172c0.073-0.369,0.098-0.796,0.073-1.27
			c-0.042-0.802-0.21-1.453-0.217-1.479c-0.173-0.686-0.687-1.375-1.412-1.89c-0.577-0.41-1.555-0.899-2.931-0.899
			c-1.376,0-2.353,0.489-2.93,0.899c-0.725,0.515-1.239,1.203-1.412,1.89c-0.009,0.035-0.176,0.683-0.22,1.48
			c-0.026,0.474-0.002,0.901,0.071,1.27c0.011,0.057,0.024,0.113,0.038,0.168c-0.16,0.272-0.209,0.684-0.131,1.117
			c0.053,0.297,0.164,0.574,0.311,0.782c0.132,0.186,0.289,0.309,0.449,0.353c0.156,0.733,0.403,1.37,0.737,1.902
			c0.244,0.388,0.535,0.721,0.87,0.995c-0.065,0.125-0.14,0.238-0.222,0.337c-0.15,0.18-0.333,0.318-0.542,0.412
			c-0.383,0.172-0.93,0.276-1.51,0.387c-0.701,0.134-1.495,0.286-2.158,0.59c-0.776,0.356-1.253,0.866-1.457,1.558
			c-0.05,0.168-0.084,0.305-0.12,0.445C8.94,20.673,12.04,22.105,16.041,22.105z"/>
		<path fill="#00A389" d="M25.586,13.421c-0.475-0.337-1.13-0.224-1.467,0.249c-0.294,0.415-0.228,0.956,0.104,1.313
			c0.048,0.052,0.085,0.112,0.145,0.154c0.978,0.694,2.144,1.838,2.144,3.352c0,0.015-0.004,0.029-0.004,0.044
			c-0.017,1.129-0.692,2.192-1.827,3.081c-1.905,1.49-5.1,2.49-8.638,2.49c-3.414,0-6.499-0.934-8.424-2.337
			c-0.998-0.727-1.678-1.58-1.928-2.499c-0.07-0.256-0.118-0.515-0.118-0.78c0-1.512,1.166-2.657,2.145-3.352
			c0.136-0.097,0.233-0.224,0.307-0.362c0.184-0.341,0.181-0.768-0.059-1.106c-0.336-0.473-0.993-0.586-1.467-0.249
			c-1.954,1.388-3.03,3.188-3.03,5.068c0,0.493,0.081,0.972,0.218,1.438c0.532,1.8,2.045,3.363,4.205,4.48
			c2.181,1.128,5.013,1.803,8.152,1.803c3.264,0,6.19-0.733,8.403-1.943c2.502-1.368,4.077-3.348,4.157-5.6
			c0.002-0.06,0.014-0.118,0.014-0.178C28.615,16.607,27.539,14.807,25.586,13.421z"/>
	</g>
</g>
</svg>
