<?xml version="1.0" encoding="utf-8"?>
<!-- Generator: Adobe Illustrator 18.1.0, SVG Export Plug-In . SVG Version: 6.00 Build 0)  -->
<!DOCTYPE svg PUBLIC "-//W3C//DTD SVG 1.1//EN" "http://www.w3.org/Graphics/SVG/1.1/DTD/svg11.dtd">
<svg version="1.1" id="Layer_1" xmlns="http://www.w3.org/2000/svg" xmlns:xlink="http://www.w3.org/1999/xlink" x="0px" y="0px"
	 viewBox="0 0 43 43" enable-background="new 0 0 43 43" xml:space="preserve">
<g>
	<path fill="none" d="M16.026,28.935c0-0.4,0.701-1.9,0-2.701c-0.701-0.799-1.1-3.202-1.1-3.202s-0.4-0.898-1.201-1.999
		c-0.799-1.1-0.793-3.892-0.099-3.804c0.387,0.051,0.538,0.351,0.538,0.351s-0.038-0.789-0.138-1.25
		c-0.222-1.02-0.345-2.608-0.393-3.214c-0.151-1.892,1.354-5.335,3.342-6.235c0.584-0.263,3.063-0.83,5.067-0.781
		c4.614,0.114,5.697,2.858,6.169,4.841c0.381,1.6,0.52,6.189,0.52,6.189c0.301,0.099,1.076,0.149,0.601,2.501
		c-0.261,1.29-0.9,1.801-0.9,1.801c-0.1,0.501-0.968,4.661-1.201,5.001c-0.508,0.739-0.3,2.2-0.3,2.2s0.501,1.502,1.001,2.501
		c0.5,1.001,9.903,4.102,9.903,4.102c0.047,0.023,0.086,0.056,0.132,0.081C41.104,31.583,43,26.769,43,21.507
		c0-11.874-9.626-21.5-21.5-21.5S0,9.633,0,21.507c0,5.469,2.059,10.446,5.422,14.24c2.965-1.908,7.153-3.218,8.003-3.61
		C14.725,31.536,16.026,29.335,16.026,28.935z"/>
	<path fill="none" d="M21.157,42.841c-0.634,0-1.386,0-2.216,0c0.841,0.1,1.691,0.166,2.559,0.166s1.718-0.066,2.559-0.166
		C22.945,42.841,21.951,42.841,21.157,42.841z"/>
	<path fill="#008EB9" d="M24.059,42.841C29.626,42.18,34.54,39.4,37.966,35.32c-0.045-0.025-0.085-0.058-0.132-0.081
		c0,0-9.404-3.101-9.903-4.102c-0.501-0.999-1.001-2.501-1.001-2.501s-0.208-1.461,0.3-2.2c0.234-0.34,1.101-4.5,1.201-5.001
		c0,0,0.64-0.511,0.9-1.801c0.475-2.352-0.3-2.403-0.601-2.501c0,0-0.139-4.589-0.52-6.189c-0.472-1.983-1.555-4.728-6.169-4.841
		c-2.004-0.048-4.483,0.518-5.067,0.781c-1.988,0.9-3.493,4.343-3.342,6.235c0.048,0.606,0.171,2.194,0.393,3.214
		c0.1,0.461,0.138,1.25,0.138,1.25s-0.15-0.301-0.538-0.351c-0.694-0.088-0.701,2.703,0.099,3.804
		c0.802,1.1,1.201,1.999,1.201,1.999s0.4,2.402,1.1,3.202c0.701,0.802,0,2.301,0,2.701s-1.301,2.6-2.601,3.202
		c-0.85,0.392-5.038,1.702-8.003,3.61c3.405,3.842,8.153,6.456,13.519,7.094c0.829,0,1.582,0,2.216,0
		C21.951,42.841,22.945,42.841,24.059,42.841z"/>
</g>
<g>
	<g>
		<path fill="#0072AA" d="M21.5,1.007c11.304,0,20.5,9.196,20.5,20.5s-9.196,20.5-20.5,20.5S1,32.811,1,21.507
			S10.196,1.007,21.5,1.007 M21.5,0.007C9.626,0.007,0,9.633,0,21.507s9.626,21.5,21.5,21.5S43,33.381,43,21.507
			S33.374,0.007,21.5,0.007L21.5,0.007z"/>
	</g>
</g>
</svg>
