<?xml version="1.0" encoding="utf-8"?>
<!-- Generator: Adobe Illustrator 19.1.0, SVG Export Plug-In . SVG Version: 6.00 Build 0)  -->
<svg version="1.1" xmlns="http://www.w3.org/2000/svg" xmlns:xlink="http://www.w3.org/1999/xlink" x="0px" y="0px"
	 viewBox="0 0 32 32" enable-background="new 0 0 32 32" xml:space="preserve">
<g id="Layer_2">
</g>
<g id="Layer_1">
</g>
<g id="Layer_3">
</g>
<g id="Layer_4">
</g>
<g id="Layer_5">
	<circle fill="#004A70" cx="16.368" cy="15.718" r="15"/>
	<path fill="none" d="M16.369,1.218c-7.995,0-14.5,6.505-14.5,14.5c0,3.034,0.94,5.85,2.539,8.181
		c0.388-0.441,0.892-0.812,1.536-1.11c1.039-0.481,2.285-0.721,3.384-0.932c0.909-0.175,1.768-0.341,2.369-0.612
		c0.328-0.148,0.614-0.368,0.85-0.652c0.129-0.155,0.245-0.334,0.348-0.532c-0.527-0.434-0.982-0.959-1.365-1.573
		c-0.525-0.841-0.911-1.847-1.156-3.006c-0.251-0.07-0.497-0.264-0.705-0.558c-0.231-0.328-0.404-0.766-0.488-1.235
		c-0.122-0.683-0.045-1.334,0.206-1.764c-0.022-0.086-0.041-0.174-0.059-0.265c-0.114-0.583-0.152-1.258-0.111-2.007
		c0.069-1.26,0.331-2.284,0.346-2.34c0.271-1.085,1.078-2.173,2.215-2.986c0.906-0.648,2.439-1.42,4.597-1.42
		s3.691,0.772,4.597,1.42c1.137,0.814,1.945,1.902,2.215,2.987c0.011,0.042,0.273,1.07,0.34,2.338
		c0.039,0.749,0.001,1.424-0.114,2.007c-0.018,0.093-0.039,0.184-0.061,0.273c0.248,0.43,0.323,1.079,0.202,1.759
		c-0.083,0.467-0.256,0.904-0.485,1.231c-0.206,0.294-0.451,0.488-0.702,0.56c-0.245,1.159-0.631,2.165-1.156,3.007
		c-0.382,0.612-0.836,1.135-1.36,1.569c0.103,0.2,0.221,0.381,0.351,0.537c0.236,0.284,0.522,0.503,0.85,0.652
		c0.6,0.271,1.459,0.437,2.369,0.612c1.099,0.212,2.345,0.452,3.384,0.932c0.641,0.297,1.144,0.665,1.531,1.103
		c1.596-2.329,2.534-5.143,2.534-8.174C30.869,7.723,24.364,1.218,16.369,1.218z"/>
	<path fill="#FFFFFF" d="M26.804,22.789c-1.039-0.481-2.285-0.721-3.384-0.932c-0.909-0.175-1.768-0.341-2.369-0.612
		c-0.328-0.148-0.614-0.368-0.85-0.652c-0.13-0.156-0.247-0.337-0.351-0.537c0.525-0.434,0.979-0.957,1.36-1.569
		c0.525-0.841,0.911-1.848,1.156-3.007c0.25-0.072,0.495-0.266,0.702-0.56c0.229-0.327,0.402-0.764,0.485-1.231
		c0.121-0.68,0.045-1.328-0.202-1.759c0.022-0.089,0.043-0.179,0.061-0.273c0.115-0.583,0.154-1.258,0.114-2.007
		c-0.066-1.267-0.329-2.296-0.34-2.338c-0.271-1.085-1.078-2.174-2.215-2.987c-0.906-0.648-2.439-1.42-4.597-1.42
		s-3.691,0.772-4.597,1.42C10.64,5.14,9.833,6.228,9.562,7.313c-0.015,0.056-0.277,1.08-0.346,2.34
		c-0.041,0.749-0.003,1.424,0.111,2.007c0.018,0.091,0.038,0.179,0.059,0.265c-0.25,0.43-0.327,1.081-0.206,1.764
		c0.084,0.469,0.257,0.907,0.488,1.235c0.207,0.294,0.454,0.488,0.705,0.558c0.245,1.158,0.632,2.165,1.156,3.006
		c0.383,0.614,0.839,1.139,1.365,1.573c-0.103,0.198-0.219,0.377-0.348,0.532c-0.236,0.284-0.522,0.503-0.85,0.652
		c-0.6,0.271-1.459,0.437-2.369,0.612c-1.099,0.212-2.345,0.452-3.384,0.932c-0.645,0.298-1.149,0.669-1.536,1.11
		c2.615,3.812,6.999,6.319,11.961,6.319c4.965,0,9.351-2.511,11.966-6.326C27.948,23.455,27.445,23.086,26.804,22.789z"/>
	<path fill="#E6E7E8" d="M16.279,16.53c-0.307,0-0.568,0.104-0.779,0.311c-0.212,0.206-0.318,0.462-0.318,0.765
		c0,0.342,0.11,0.608,0.329,0.799c0.218,0.19,0.475,0.286,0.768,0.286c0.285,0,0.535-0.096,0.751-0.289
		c0.217-0.193,0.326-0.457,0.326-0.795c0-0.303-0.104-0.558-0.311-0.765C16.839,16.634,16.583,16.53,16.279,16.53z"/>
	<path fill="#E6E7E8" d="M19.541,8.779c-0.291-0.443-0.704-0.793-1.239-1.051c-0.535-0.257-1.15-0.386-1.849-0.386
		c-0.751,0-1.409,0.154-1.972,0.462c-0.564,0.308-0.992,0.697-1.286,1.166c-0.294,0.47-0.44,0.933-0.44,1.391
		c0,0.222,0.093,0.427,0.278,0.617c0.185,0.191,0.412,0.286,0.682,0.286c0.457,0,0.768-0.272,0.932-0.816
		c0.173-0.52,0.385-0.914,0.635-1.181c0.251-0.267,0.641-0.401,1.17-0.401c0.453,0,0.822,0.133,1.109,0.397s0.43,0.59,0.43,0.975
		c0,0.197-0.047,0.381-0.141,0.549s-0.21,0.321-0.346,0.458c-0.137,0.137-0.36,0.341-0.668,0.61
		c-0.352,0.308-0.631,0.575-0.838,0.799c-0.207,0.224-0.374,0.484-0.498,0.78c-0.125,0.296-0.188,0.646-0.188,1.05
		c0,0.323,0.086,0.566,0.256,0.729S15.95,15.46,16.2,15.46c0.481,0,0.768-0.25,0.859-0.751c0.053-0.236,0.093-0.4,0.119-0.495
		c0.026-0.094,0.064-0.187,0.112-0.281c0.048-0.095,0.122-0.197,0.221-0.311c0.098-0.113,0.229-0.245,0.393-0.394
		c0.593-0.529,1.003-0.906,1.231-1.13c0.229-0.224,0.427-0.489,0.593-0.798c0.166-0.308,0.249-0.668,0.249-1.077
		C19.978,9.704,19.832,9.222,19.541,8.779z"/>
	<path fill="#004A70" d="M16.279,15.558c-0.307,0-0.568,0.104-0.779,0.311c-0.212,0.206-0.318,0.462-0.318,0.765
		c0,0.342,0.11,0.608,0.329,0.798c0.218,0.19,0.475,0.286,0.768,0.286c0.285,0,0.535-0.096,0.751-0.289
		c0.217-0.193,0.326-0.457,0.326-0.795c0-0.303-0.104-0.558-0.311-0.765C16.839,15.662,16.583,15.558,16.279,15.558z"/>
	<path fill="#004A70" d="M19.541,7.807c-0.291-0.443-0.704-0.793-1.239-1.051c-0.535-0.257-1.15-0.386-1.849-0.386
		c-0.751,0-1.409,0.154-1.972,0.462c-0.564,0.308-0.992,0.697-1.286,1.166c-0.294,0.47-0.44,0.933-0.44,1.391
		c0,0.222,0.093,0.427,0.278,0.617c0.185,0.191,0.412,0.286,0.682,0.286c0.457,0,0.768-0.272,0.932-0.816
		c0.173-0.52,0.385-0.914,0.635-1.181c0.251-0.267,0.641-0.401,1.17-0.401c0.453,0,0.822,0.133,1.109,0.397s0.43,0.59,0.43,0.975
		c0,0.197-0.047,0.381-0.141,0.549c-0.094,0.168-0.21,0.321-0.346,0.458c-0.137,0.137-0.36,0.341-0.668,0.61
		c-0.352,0.308-0.631,0.575-0.838,0.799c-0.207,0.224-0.374,0.484-0.498,0.78c-0.125,0.296-0.188,0.646-0.188,1.05
		c0,0.323,0.086,0.566,0.256,0.729s0.382,0.246,0.632,0.246c0.481,0,0.768-0.25,0.859-0.751c0.053-0.236,0.093-0.4,0.119-0.495
		c0.026-0.094,0.064-0.187,0.112-0.281c0.048-0.095,0.122-0.197,0.221-0.311c0.098-0.113,0.229-0.245,0.393-0.394
		c0.593-0.529,1.003-0.906,1.231-1.13c0.229-0.224,0.427-0.489,0.593-0.798c0.166-0.308,0.249-0.668,0.249-1.077
		C19.978,8.732,19.832,8.25,19.541,7.807z"/>
	<path fill="#004A70" d="M16.369,31.218c-8.547,0-15.5-6.953-15.5-15.5s6.953-15.5,15.5-15.5s15.5,6.953,15.5,15.5
		S24.916,31.218,16.369,31.218z M16.369,1.218c-7.995,0-14.5,6.505-14.5,14.5s6.505,14.5,14.5,14.5s14.5-6.505,14.5-14.5
		S24.364,1.218,16.369,1.218z"/>
</g>
</svg>
