<?xml version="1.0" encoding="utf-8"?>
<!-- Generator: Adobe Illustrator 19.1.0, SVG Export Plug-In . SVG Version: 6.00 Build 0)  -->
<svg version="1.1" xmlns="http://www.w3.org/2000/svg" xmlns:xlink="http://www.w3.org/1999/xlink" x="0px" y="0px"
	 viewBox="0 0 32 32" enable-background="new 0 0 32 32" xml:space="preserve">
<g id="Layer_2">
</g>
<g id="Layer_1">
</g>
<g id="Layer_3">
</g>
<g id="Layer_4">
</g>
<g id="Layer_5">
	<circle fill="#FFFFFF" cx="16" cy="16" r="15.417"/>
	<g>
		<path fill="#9370B1" d="M10.897,10.793c0.056-0.28,0.074-0.605,0.055-0.965c-0.032-0.609-0.159-1.104-0.165-1.124
			c-0.131-0.522-0.522-1.045-1.073-1.437C9.276,6.955,8.533,6.584,7.487,6.584c-1.046,0-1.788,0.371-2.227,0.683
			C4.709,7.658,4.318,8.181,4.187,8.703C4.18,8.73,4.052,9.222,4.019,9.828c-0.02,0.36-0.002,0.685,0.054,0.965
			c0.009,0.044,0.018,0.086,0.029,0.128c-0.121,0.207-0.159,0.52-0.1,0.849c0.041,0.225,0.125,0.436,0.236,0.594
			c0.1,0.142,0.22,0.235,0.341,0.268c0.119,0.557,0.306,1.041,0.56,1.446c0.186,0.295,0.406,0.548,0.662,0.756
			c-0.05,0.095-0.106,0.181-0.169,0.256c-0.114,0.137-0.253,0.242-0.412,0.313c-0.291,0.13-0.707,0.21-1.148,0.294
			c-0.533,0.102-1.136,0.217-1.64,0.448c-0.468,0.215-0.787,0.507-0.979,0.879c0.059,0.835,0.189,1.648,0.384,2.438
			C1.996,20.1,2.19,20.72,2.428,21.321c0.64,1.616,1.564,3.084,2.708,4.356c0.291-0.593,0.776-1.059,1.47-1.377
			c0.613-0.282,1.31-0.415,1.868-0.521c0.145-0.027,0.289-0.056,0.421-0.084c-0.004-0.007-0.009-0.014-0.014-0.021
			c-0.248-0.395-0.445-0.848-0.588-1.35c-0.103-0.092-0.197-0.198-0.283-0.318c-0.14-0.198-0.238-0.435-0.315-0.684
			c-0.032-0.103-0.07-0.202-0.089-0.31c-0.072-0.4-0.055-0.786,0.045-1.125c-0.02-0.129-0.009-0.283-0.017-0.422
			c-0.012-0.206-0.037-0.402-0.026-0.627c0.037-0.677,0.172-1.22,0.198-1.322c0.19-0.754,0.71-1.466,1.462-2.001
			c0.099-0.07,0.225-0.143,0.348-0.215c-0.097-0.062-0.198-0.118-0.274-0.209c-0.063-0.075-0.12-0.162-0.17-0.258
			c0.254-0.208,0.474-0.46,0.659-0.755c0.254-0.405,0.441-0.889,0.56-1.446c0.121-0.035,0.24-0.128,0.34-0.269
			c0.111-0.157,0.195-0.367,0.235-0.592c0.059-0.327,0.022-0.639-0.098-0.846C10.878,10.881,10.888,10.838,10.897,10.793z"/>
		<path fill="#9370B1" d="M29.468,16.146c-0.504-0.231-1.107-0.347-1.64-0.448c-0.441-0.084-0.857-0.164-1.148-0.294
			c-0.159-0.071-0.298-0.177-0.412-0.313c-0.063-0.075-0.12-0.162-0.17-0.258c0.254-0.208,0.474-0.46,0.659-0.755
			c0.254-0.405,0.441-0.889,0.56-1.446c0.121-0.035,0.24-0.128,0.34-0.269c0.111-0.157,0.195-0.367,0.235-0.592
			c0.059-0.327,0.022-0.639-0.098-0.846c0.011-0.043,0.021-0.086,0.03-0.131c0.056-0.28,0.074-0.605,0.055-0.965
			c-0.032-0.609-0.159-1.104-0.165-1.124c-0.131-0.522-0.522-1.045-1.073-1.437c-0.439-0.312-1.182-0.683-2.227-0.683
			s-1.788,0.371-2.227,0.683c-0.551,0.391-0.942,0.915-1.073,1.436c-0.007,0.027-0.134,0.519-0.167,1.125
			c-0.02,0.36-0.002,0.685,0.054,0.965c0.009,0.044,0.018,0.086,0.029,0.128c-0.121,0.207-0.159,0.52-0.1,0.849
			c0.041,0.225,0.125,0.436,0.236,0.594c0.1,0.142,0.22,0.235,0.341,0.268c0.119,0.557,0.306,1.041,0.56,1.446
			c0.186,0.295,0.406,0.548,0.662,0.756c-0.05,0.095-0.106,0.181-0.169,0.256c0,0.001-0.001,0.001-0.002,0.001
			c0.296,0.136,0.561,0.281,0.76,0.422c0.755,0.536,1.274,1.249,1.465,2.009c0.038,0.154,0.159,0.684,0.193,1.315
			c0.012,0.225-0.014,0.42-0.027,0.626c-0.009,0.141,0.002,0.298-0.018,0.43c0.099,0.337,0.115,0.721,0.044,1.115
			c-0.02,0.109-0.058,0.209-0.09,0.312c-0.077,0.249-0.175,0.486-0.313,0.681c-0.085,0.12-0.179,0.227-0.281,0.317
			c-0.144,0.505-0.341,0.959-0.59,1.354c-0.004,0.007-0.008,0.013-0.012,0.02c0.132,0.029,0.27,0.057,0.406,0.083
			c0.576,0.109,1.272,0.242,1.888,0.525c0.479,0.22,0.853,0.514,1.141,0.867c0.94-1.148,1.698-2.446,2.253-3.847
			c0.238-0.6,0.432-1.221,0.589-1.857c0.206-0.836,0.338-1.699,0.391-2.585C30.161,16.577,29.872,16.332,29.468,16.146z"/>
		<path fill="#9370B1" d="M19.51,10.793c0.056-0.28,0.074-0.605,0.055-0.965c-0.032-0.609-0.159-1.104-0.165-1.124
			c-0.131-0.522-0.522-1.045-1.073-1.437c-0.439-0.312-1.182-0.683-2.227-0.683c-1.046,0-1.788,0.371-2.227,0.683
			c-0.551,0.391-0.942,0.915-1.073,1.436c-0.007,0.027-0.134,0.519-0.167,1.125c-0.02,0.36-0.002,0.685,0.054,0.965
			c0.009,0.044,0.018,0.086,0.029,0.128c-0.121,0.207-0.159,0.52-0.1,0.849c0.041,0.225,0.125,0.436,0.236,0.594
			c0.1,0.142,0.22,0.235,0.341,0.268c0.119,0.557,0.306,1.041,0.56,1.446c0.186,0.295,0.406,0.548,0.662,0.756
			c-0.05,0.095-0.106,0.181-0.169,0.256c-0.013,0.016-0.034,0.021-0.047,0.036c0.262,0.126,0.5,0.258,0.681,0.387
			c0.707,0.502,1.197,1.162,1.414,1.868c0.216-0.704,0.706-1.365,1.413-1.868c0.126-0.089,0.278-0.183,0.444-0.274
			c-0.065-0.051-0.142-0.084-0.197-0.15c-0.063-0.075-0.12-0.162-0.17-0.258c0.254-0.208,0.474-0.46,0.659-0.755
			c0.254-0.405,0.441-0.889,0.56-1.446c0.121-0.035,0.24-0.128,0.34-0.269c0.111-0.157,0.195-0.367,0.235-0.592
			c0.059-0.327,0.022-0.639-0.098-0.846C19.491,10.881,19.501,10.838,19.51,10.793z"/>
		<path fill="#9370B1" d="M17.309,23.652l0.013,0.044c0.004-0.001,0.008-0.001,0.011-0.002c-0.004-0.007-0.009-0.014-0.014-0.021
			C17.316,23.666,17.313,23.658,17.309,23.652z"/>
	</g>
	<path fill="#735796" d="M25.567,25.208c-0.504-0.231-1.107-0.347-1.64-0.448c-0.441-0.084-0.857-0.164-1.148-0.294
		c-0.159-0.071-0.298-0.177-0.412-0.313c-0.063-0.075-0.12-0.162-0.17-0.258c0.254-0.208,0.474-0.46,0.659-0.755
		c0.254-0.405,0.441-0.889,0.56-1.446c0.121-0.035,0.24-0.128,0.34-0.269c0.021-0.03,0.036-0.07,0.055-0.103
		c0.081-0.143,0.147-0.307,0.18-0.489c0.059-0.327,0.022-0.639-0.098-0.846c0.011-0.043,0.021-0.086,0.03-0.131
		c0.024-0.121,0.038-0.254,0.048-0.391c0.013-0.18,0.018-0.369,0.007-0.574c-0.032-0.609-0.159-1.104-0.165-1.124
		c-0.131-0.522-0.522-1.045-1.073-1.437c-0.36-0.256-0.937-0.54-1.707-0.638c-0.168-0.021-0.333-0.045-0.521-0.045
		c-0.303,0-0.573,0.037-0.825,0.089c-0.618,0.127-1.09,0.373-1.402,0.594c-0.551,0.391-0.942,0.915-1.073,1.436
		c-0.007,0.027-0.134,0.519-0.167,1.125c-0.011,0.204-0.007,0.393,0.006,0.573c0.01,0.137,0.024,0.271,0.048,0.392
		c0.009,0.044,0.018,0.086,0.029,0.127c-0.121,0.207-0.159,0.52-0.1,0.849c0.033,0.182,0.099,0.346,0.18,0.489
		c0.019,0.034,0.035,0.075,0.056,0.105c0.101,0.142,0.22,0.235,0.341,0.268c0.119,0.557,0.306,1.041,0.56,1.446
		c0.186,0.295,0.406,0.548,0.662,0.756c-0.05,0.095-0.106,0.181-0.169,0.256c-0.114,0.137-0.253,0.242-0.412,0.313
		c-0.075,0.033-0.176,0.057-0.266,0.084c-0.259,0.08-0.554,0.147-0.882,0.21c-0.258,0.049-0.534,0.103-0.806,0.171
		c-0.272-0.068-0.548-0.121-0.806-0.171c-0.327-0.063-0.623-0.13-0.882-0.21c-0.09-0.028-0.191-0.051-0.266-0.084
		c-0.159-0.071-0.298-0.177-0.412-0.313c-0.063-0.075-0.12-0.162-0.17-0.258c0.254-0.208,0.474-0.46,0.659-0.755
		c0.254-0.405,0.441-0.889,0.56-1.446c0.121-0.035,0.24-0.128,0.34-0.269c0.021-0.03,0.036-0.07,0.055-0.103
		c0.081-0.143,0.147-0.307,0.18-0.489c0.059-0.327,0.022-0.639-0.098-0.846c0.011-0.043,0.021-0.086,0.03-0.131
		c0.024-0.121,0.038-0.254,0.048-0.391c0.013-0.18,0.018-0.369,0.007-0.574c-0.032-0.609-0.159-1.104-0.165-1.124
		c-0.131-0.522-0.522-1.045-1.073-1.437c-0.347-0.246-0.892-0.523-1.619-0.63c-0.192-0.029-0.39-0.053-0.608-0.053
		c-0.336,0-0.629,0.047-0.903,0.109c-0.578,0.132-1.027,0.362-1.325,0.574c-0.551,0.391-0.942,0.915-1.073,1.436
		c-0.007,0.027-0.134,0.519-0.167,1.125c-0.011,0.204-0.007,0.393,0.006,0.573c0.01,0.137,0.024,0.271,0.048,0.392
		c0.009,0.044,0.018,0.086,0.029,0.127c-0.121,0.207-0.159,0.52-0.1,0.849c0.033,0.182,0.099,0.346,0.18,0.489
		c0.019,0.034,0.035,0.075,0.056,0.105c0.1,0.142,0.22,0.235,0.341,0.268c0.119,0.557,0.306,1.041,0.56,1.446
		c0.185,0.295,0.406,0.548,0.662,0.756c-0.05,0.095-0.106,0.181-0.169,0.256c-0.114,0.137-0.253,0.242-0.412,0.313
		c-0.291,0.13-0.707,0.21-1.148,0.294c-0.533,0.102-1.136,0.217-1.64,0.448c-0.59,0.271-0.952,0.658-1.107,1.184
		c-0.008,0.027-0.012,0.046-0.02,0.073c0.272,0.26,0.548,0.517,0.84,0.756c0.901,0.738,1.899,1.357,2.961,1.863
		c0.211,0.101,0.419,0.208,0.635,0.299c0.974,0.407,2.005,0.699,3.073,0.886c0.247,0.043,0.495,0.084,0.747,0.114h0.101
		c0.001,0.005,0.003,0.011,0.005,0.016c0.542,0.062,1.09,0.101,1.647,0.101c0.594,0,1.177-0.047,1.753-0.117
		c0.555-0.067,1.098-0.17,1.633-0.299c0.752-0.181,1.486-0.408,2.187-0.702c0.217-0.091,0.424-0.198,0.635-0.299
		c1.321-0.629,2.53-1.45,3.594-2.431c0.255-0.235,0.502-0.476,0.74-0.729C26.248,25.63,25.963,25.391,25.567,25.208z"/>
	<path fill="#735796" d="M15.903,31.5c-8.547,0-15.5-6.953-15.5-15.5s6.953-15.5,15.5-15.5s15.5,6.953,15.5,15.5
		S24.45,31.5,15.903,31.5z M15.903,1.5c-7.995,0-14.5,6.505-14.5,14.5s6.505,14.5,14.5,14.5s14.5-6.505,14.5-14.5
		S23.898,1.5,15.903,1.5z"/>
</g>
</svg>
