<?xml version="1.0" encoding="utf-8"?>
<!-- Generator: Adobe Illustrator 19.1.0, SVG Export Plug-In . SVG Version: 6.00 Build 0)  -->
<svg version="1.1" xmlns="http://www.w3.org/2000/svg" xmlns:xlink="http://www.w3.org/1999/xlink" x="0px" y="0px"
	 viewBox="0 0 32 32" enable-background="new 0 0 32 32" xml:space="preserve">
<g id="Layer_2">
</g>
<g id="Layer_1">
</g>
<g id="Layer_3">
</g>
<g id="Layer_4">
</g>
<g id="Layer_5">
	<g>
		<circle fill="#735796" cx="16" cy="16" r="15"/>
		<path fill="#FFFFFF" d="M16,31.5C7.453,31.5,0.5,24.547,0.5,16S7.453,0.5,16,0.5S31.5,7.453,31.5,16S24.547,31.5,16,31.5z M16,1.5
			C8.005,1.5,1.5,8.005,1.5,16S8.005,30.5,16,30.5S30.5,23.995,30.5,16S23.995,1.5,16,1.5z"/>
	</g>
	<g>
		<path fill="#BEA9D0" d="M27.146,18.374c-0.046-0.661-0.077-1.002-0.304-1.771c-0.163-0.551-0.543-0.957-1.161-1.241
			c-0.528-0.242-1.161-0.364-1.72-0.47c-0.462-0.088-0.899-0.172-1.204-0.309c-0.167-0.075-0.312-0.185-0.432-0.329
			c-0.066-0.079-0.126-0.17-0.178-0.271c0.267-0.219,0.497-0.483,0.691-0.791c0.267-0.424,0.463-0.932,0.587-1.517
			c0.127-0.036,0.252-0.134,0.356-0.283c0.117-0.165,0.204-0.385,0.246-0.621c0.062-0.343,0.023-0.67-0.103-0.887
			c0.011-0.045,0.022-0.09,0.031-0.137c0.058-0.294,0.078-0.634,0.058-1.012c-0.034-0.639-0.167-1.158-0.173-1.179
			c-0.138-0.547-0.548-1.096-1.126-1.507c-0.46-0.327-1.239-0.716-2.336-0.716s-1.876,0.39-2.336,0.716
			c-0.578,0.41-0.988,0.959-1.126,1.506c-0.007,0.028-0.141,0.545-0.176,1.18c-0.021,0.378-0.002,0.718,0.056,1.012
			c0.009,0.046,0.019,0.09,0.03,0.134c-0.127,0.217-0.166,0.545-0.104,0.89c0.043,0.236,0.131,0.458,0.248,0.623
			c0.105,0.148,0.23,0.246,0.358,0.282c0.125,0.584,0.321,1.092,0.588,1.516c0.195,0.31,0.426,0.574,0.694,0.793
			c-0.052,0.1-0.111,0.19-0.177,0.268c-0.12,0.143-0.265,0.254-0.432,0.329c-0.305,0.137-0.741,0.22-1.204,0.309
			c-0.559,0.107-1.192,0.228-1.72,0.47c-0.619,0.284-0.999,0.69-1.161,1.241c-0.224,0.759-0.258,1.102-0.303,1.747
			c-0.024,0.104-0.039,0.21-0.039,0.321v0.685c0,0.01,0.003,0.02,0.003,0.03c0.016,0.775,0.652,1.404,1.43,1.404h10.733
			c0.788,0,1.433-0.645,1.433-1.433v-0.529V18.67C27.178,18.569,27.167,18.47,27.146,18.374z"/>
		<path fill="#BEA9D0" d="M18.39,18.374c-0.046-0.661-0.077-1.002-0.304-1.771c-0.163-0.551-0.543-0.957-1.161-1.241
			c-0.528-0.242-1.161-0.364-1.72-0.47c-0.462-0.088-0.899-0.172-1.204-0.309c-0.167-0.075-0.312-0.185-0.432-0.329
			c-0.066-0.079-0.126-0.17-0.178-0.271c0.267-0.219,0.497-0.483,0.691-0.791c0.267-0.424,0.463-0.932,0.587-1.517
			c0.127-0.036,0.252-0.134,0.356-0.283c0.117-0.165,0.204-0.385,0.246-0.621c0.062-0.343,0.023-0.67-0.103-0.887
			c0.011-0.045,0.022-0.09,0.031-0.137c0.058-0.294,0.078-0.634,0.058-1.012c-0.034-0.639-0.167-1.158-0.173-1.179
			c-0.138-0.547-0.548-1.096-1.126-1.507c-0.46-0.327-1.239-0.716-2.336-0.716S9.749,5.723,9.289,6.05
			C8.711,6.46,8.301,7.009,8.164,7.556C8.156,7.584,8.023,8.1,7.988,8.736C7.967,9.114,7.986,9.454,8.044,9.748
			c0.009,0.046,0.019,0.09,0.03,0.134c-0.127,0.217-0.166,0.545-0.104,0.89c0.043,0.236,0.131,0.458,0.248,0.623
			c0.105,0.148,0.23,0.246,0.358,0.282c0.125,0.584,0.321,1.092,0.588,1.516c0.195,0.31,0.426,0.574,0.694,0.793
			c-0.052,0.1-0.111,0.19-0.177,0.268c-0.12,0.143-0.265,0.254-0.432,0.329c-0.305,0.137-0.741,0.22-1.204,0.309
			c-0.559,0.107-1.192,0.228-1.72,0.47c-0.619,0.284-0.999,0.69-1.161,1.241c-0.224,0.759-0.258,1.102-0.303,1.747
			c-0.024,0.104-0.039,0.21-0.039,0.321v0.685c0,0.01,0.003,0.02,0.003,0.03c0.016,0.775,0.652,1.404,1.43,1.404h10.733
			c0.788,0,1.433-0.645,1.433-1.433v-0.529V18.67C18.422,18.569,18.411,18.47,18.39,18.374z"/>
		<g>
			<path fill="#FFFFFF" d="M23.904,23.853c-0.053-0.77-0.09-1.168-0.355-2.064c-0.19-0.643-0.633-1.116-1.354-1.447
				c-0.615-0.283-1.353-0.424-2.004-0.548c-0.539-0.103-1.047-0.2-1.403-0.36c-0.194-0.087-0.364-0.216-0.503-0.383
				c-0.077-0.092-0.146-0.198-0.208-0.316c0.311-0.255,0.58-0.563,0.806-0.922c0.311-0.495,0.54-1.086,0.685-1.768
				c0.148-0.042,0.293-0.156,0.415-0.329c0.136-0.192,0.238-0.449,0.287-0.724c0.072-0.399,0.027-0.781-0.12-1.034
				c0.013-0.052,0.025-0.105,0.036-0.16c0.068-0.343,0.091-0.739,0.068-1.18c-0.039-0.745-0.195-1.35-0.201-1.374
				c-0.16-0.638-0.639-1.278-1.312-1.756c-0.536-0.381-1.444-0.835-2.722-0.835s-2.186,0.454-2.722,0.835
				c-0.673,0.478-1.151,1.118-1.312,1.756c-0.009,0.033-0.164,0.635-0.205,1.375c-0.024,0.44-0.002,0.837,0.066,1.18
				c0.011,0.053,0.022,0.105,0.035,0.156c-0.148,0.253-0.194,0.636-0.122,1.037c0.05,0.276,0.152,0.533,0.289,0.726
				c0.123,0.173,0.269,0.287,0.417,0.328c0.145,0.681,0.374,1.272,0.685,1.767c0.227,0.361,0.497,0.669,0.809,0.925
				c-0.061,0.116-0.13,0.221-0.206,0.313c-0.14,0.167-0.309,0.296-0.504,0.383c-0.355,0.159-0.864,0.257-1.403,0.36
				c-0.651,0.124-1.389,0.266-2.004,0.548c-0.721,0.331-1.164,0.804-1.354,1.447c-0.261,0.885-0.3,1.285-0.353,2.036
				c-0.028,0.121-0.046,0.245-0.046,0.374v0.798c0,0.012,0.003,0.023,0.004,0.034c0.019,0.903,0.76,1.636,1.667,1.636h12.51
				c0.919,0,1.671-0.752,1.671-1.671v-0.617v-0.181C23.941,24.08,23.928,23.965,23.904,23.853z"/>
			<path fill="#735796" d="M22.27,27.167H9.761c-1.17,0-2.142-0.954-2.167-2.126l-0.003-0.843c0-0.158,0.02-0.318,0.059-0.488
				c0.041-0.679,0.081-1.118,0.36-2.062c0.229-0.778,0.776-1.37,1.624-1.76c0.675-0.31,1.477-0.462,2.12-0.585
				c0.521-0.101,0.994-0.191,1.292-0.324c0.093-0.042,0.177-0.1,0.252-0.171c-0.211-0.217-0.402-0.46-0.57-0.728
				c-0.303-0.481-0.536-1.048-0.695-1.688c-0.144-0.094-0.276-0.223-0.391-0.384c-0.179-0.251-0.312-0.581-0.374-0.928
				c-0.077-0.431-0.045-0.851,0.088-1.186c0-0.002,0-0.003,0-0.005c-0.075-0.373-0.101-0.812-0.074-1.298
				c0.045-0.813,0.22-1.474,0.222-1.48c0.186-0.74,0.735-1.484,1.504-2.031c0.596-0.424,1.602-0.928,3.013-0.928
				c1.409,0,2.415,0.504,3.012,0.927c0.77,0.548,1.319,1.292,1.508,2.042l0,0c0,0,0.172,0.649,0.215,1.471
				c0.026,0.482,0,0.921-0.076,1.304l-0.001,0.005c0.132,0.334,0.163,0.752,0.086,1.18c-0.062,0.343-0.192,0.671-0.371,0.923
				c-0.114,0.162-0.246,0.292-0.39,0.386c-0.159,0.64-0.392,1.207-0.695,1.688c-0.167,0.267-0.357,0.51-0.567,0.728
				c0.074,0.071,0.16,0.13,0.256,0.173c0.296,0.133,0.77,0.224,1.27,0.32c0.664,0.127,1.466,0.279,2.14,0.589
				c0.849,0.39,1.396,0.981,1.625,1.76c0.275,0.934,0.319,1.383,0.371,2.138c0.027,0.135,0.041,0.274,0.041,0.413v0.798
				C24.441,26.193,23.468,27.167,22.27,27.167z M16.019,9.153c-1.147,0-1.956,0.404-2.433,0.742
				c-0.578,0.411-0.985,0.947-1.116,1.471c-0.004,0.014-0.152,0.586-0.191,1.28c-0.021,0.401-0.002,0.757,0.058,1.056l0.078,0.329
				l-0.103,0.176c-0.065,0.112-0.121,0.362-0.061,0.696c0.036,0.202,0.111,0.395,0.204,0.525c0.07,0.098,0.128,0.132,0.143,0.136
				l0.291,0.082l0.065,0.296c0.133,0.624,0.341,1.164,0.619,1.605c0.197,0.314,0.434,0.585,0.702,0.803l0.317,0.26l-0.192,0.362
				c-0.08,0.15-0.169,0.285-0.265,0.399c-0.188,0.224-0.416,0.398-0.681,0.519c-0.405,0.181-0.934,0.283-1.493,0.391
				c-0.644,0.122-1.348,0.257-1.912,0.515c-0.59,0.271-0.934,0.632-1.082,1.135c-0.251,0.848-0.283,1.203-0.333,1.928
				c-0.034,0.174-0.045,0.259-0.045,0.34v0.798c0.017,0.656,0.54,1.171,1.17,1.171h12.51c0.646,0,1.171-0.525,1.171-1.171v-0.798
				c0-0.08-0.009-0.16-0.025-0.237l-0.011-0.073c-0.051-0.742-0.084-1.106-0.335-1.957c-0.148-0.503-0.492-0.863-1.083-1.135
				c-0.563-0.258-1.268-0.393-1.89-0.511c-0.581-0.111-1.109-0.214-1.513-0.395c-0.267-0.12-0.495-0.295-0.684-0.52
				c-0.102-0.122-0.191-0.259-0.268-0.406l-0.186-0.359l0.312-0.257c0.268-0.22,0.503-0.489,0.7-0.803
				c0.277-0.441,0.485-0.981,0.618-1.605l0.063-0.295l0.29-0.082c0.016-0.004,0.073-0.038,0.143-0.136
				c0.094-0.133,0.168-0.323,0.203-0.523c0.061-0.333,0.006-0.582-0.06-0.694l-0.101-0.174l0.079-0.334
				c0.06-0.303,0.08-0.657,0.059-1.057c-0.037-0.697-0.184-1.265-0.185-1.271c-0.134-0.532-0.541-1.068-1.119-1.479
				C17.974,9.557,17.165,9.153,16.019,9.153z"/>
		</g>
	</g>
</g>
<g id="Layer_7">
</g>
</svg>
