<svg width="96" height="96" viewBox="0 0 96 96" fill="none" xmlns="http://www.w3.org/2000/svg">
<path opacity="0.4" fill-rule="evenodd" clip-rule="evenodd" d="M78.1091 41.4546C78.1091 27.4768 66.6802 16.1455 52.5818 16.1455C38.4835 16.1455 27.0546 27.4768 27.0546 41.4546C27.0546 55.4324 38.4835 66.7637 52.5818 66.7637C66.6802 66.7637 78.1091 55.4324 78.1091 41.4546ZM42.6785 44.6848C42.6785 45.5047 42.0138 46.1695 41.1938 46.1695C40.3738 46.1695 39.7091 45.5047 39.7091 44.6848C39.7091 43.8648 40.3738 43.2 41.1938 43.2C42.0138 43.2 42.6785 43.8648 42.6785 44.6848ZM48.1756 46.1695C48.9956 46.1695 49.6603 45.5047 49.6603 44.6848C49.6603 43.8648 48.9956 43.2 48.1756 43.2C47.3557 43.2 46.6909 43.8648 46.6909 44.6848C46.6909 45.5047 47.3557 46.1695 48.1756 46.1695ZM56.6421 44.6848C56.6421 45.5047 55.9774 46.1695 55.1574 46.1695C54.3375 46.1695 53.6727 45.5047 53.6727 44.6848C53.6727 43.8648 54.3375 43.2 55.1574 43.2C55.9774 43.2 56.6421 43.8648 56.6421 44.6848Z" fill="#E1E8F6"/>
<path d="M42.9054 69.1399C31.871 66.6822 23.4856 56.8465 23.4856 44.9128C23.4856 31.1858 34.5388 20.1093 48.2297 20.1093C61.9206 20.1093 72.9738 31.1858 72.9738 44.9128C72.9738 56.5247 64.9017 66.36 54.0289 68.9707C53.5923 69.0756 53.2116 69.3637 53.0001 69.775L48.3067 78.8985C48.298 78.9154 48.2911 78.9194 48.2882 78.9211C48.2826 78.9243 48.2725 78.9278 48.2589 78.9276C48.2453 78.9274 48.2358 78.9236 48.2311 78.9207C48.229 78.9194 48.2272 78.9179 48.2252 78.9157C48.2234 78.9137 48.2195 78.9089 48.2149 78.8992C47.2602 76.8782 45.4865 73.1313 43.9784 69.9878C43.7674 69.548 43.3661 69.2425 42.9054 69.1399Z" stroke="#09BCEF" stroke-width="1.5" stroke-linecap="round" stroke-linejoin="round"/>
<path opacity="0.3" fill-rule="evenodd" clip-rule="evenodd" d="M7.29998 83.6955C7.29998 83.8433 7.4147 83.9633 7.55606 83.9633C7.69754 83.9633 7.81213 83.8434 7.81213 83.6955V82.7406C7.81213 82.5928 7.69741 82.4728 7.55606 82.4728C7.4147 82.4728 7.29998 82.5928 7.29998 82.7406V83.6955ZM8.90543 88.0711C8.90543 88.8391 8.30136 89.4617 7.55619 89.4617C6.81102 89.4617 6.20695 88.8391 6.20695 88.0711C6.20695 87.303 6.81102 86.6805 7.55619 86.6805C8.30136 86.6805 8.90543 87.303 8.90543 88.0711ZM9.54383 84.464C9.50311 84.464 9.46163 84.4538 9.42322 84.4324C9.29851 84.3626 9.25152 84.2003 9.31836 84.0698L9.75022 83.2262C9.81693 83.0959 9.97211 83.047 10.0968 83.1165C10.2215 83.1863 10.2685 83.3486 10.2017 83.4791L9.76981 84.3227C9.72372 84.4127 9.63525 84.464 9.54383 84.464ZM10.8517 85.7454C10.9013 85.8223 10.9821 85.8638 11.0645 85.8638C11.1137 85.8638 11.1632 85.8491 11.2072 85.8182L11.9717 85.2804C12.0889 85.1979 12.1201 85.0316 12.0412 84.9088C11.9622 84.786 11.8032 84.7536 11.6858 84.8361L10.9213 85.3739C10.804 85.4563 10.7729 85.6227 10.8517 85.7454ZM11.7834 87.8384C11.6553 87.8384 11.5445 87.7378 11.5294 87.6014C11.5132 87.4544 11.6138 87.3215 11.7542 87.3045L12.6718 87.1932C12.8121 87.1754 12.9394 87.2815 12.9556 87.4284C12.9719 87.5754 12.8712 87.7082 12.7308 87.7252L11.8133 87.8365C11.8033 87.8379 11.7933 87.8384 11.7834 87.8384ZM12.2955 90.2499C12.3253 90.2617 12.3561 90.2674 12.3863 90.2674C12.4896 90.2674 12.5869 90.2014 12.6258 90.0946C12.676 89.9564 12.6096 89.8017 12.4773 89.7491L11.6138 89.406C11.4817 89.3537 11.3337 89.4232 11.2835 89.5614C11.2333 89.6995 11.2998 89.8542 11.432 89.9068L12.2955 90.2499ZM10.9563 92.3715C10.8848 92.3715 10.8138 92.3404 10.7631 92.2796L10.1604 91.5566C10.0674 91.445 10.0786 91.2758 10.1852 91.1787C10.2919 91.0815 10.4536 91.0931 10.5465 91.2045L11.1492 91.9276C11.2422 92.0391 11.231 92.2084 11.1244 92.3055C11.0758 92.3498 11.0159 92.3715 10.9563 92.3715ZM8.49462 93.3353C8.52317 93.4577 8.6279 93.5397 8.74326 93.5397C8.76337 93.5397 8.78372 93.5373 8.80408 93.5322C8.94146 93.4971 9.02571 93.3522 8.99229 93.2085L8.77643 92.2815C8.74288 92.1377 8.60396 92.0501 8.46696 92.0847C8.32958 92.1197 8.24533 92.2646 8.27875 92.4083L8.49462 93.3353ZM6.25197 93.5027C6.23007 93.5027 6.20792 93.4997 6.18577 93.4936C6.04916 93.4556 5.96786 93.3088 6.00435 93.1659L6.23827 92.2482C6.27463 92.105 6.41509 92.0202 6.5517 92.0583C6.68831 92.0963 6.76962 92.2431 6.73313 92.3859L6.49921 93.3037C6.46873 93.4236 6.36515 93.5027 6.25197 93.5027ZM3.88981 92.2055C3.93936 92.2545 4.00261 92.2789 4.06586 92.2789C4.13372 92.2789 4.20157 92.2508 4.25189 92.1952L4.88145 91.5C4.97863 91.3926 4.97427 91.2232 4.87159 91.1214C4.76865 91.0197 4.60668 91.0244 4.5095 91.1317L3.87994 91.827C3.78276 91.9344 3.78712 92.1038 3.88981 92.2055ZM2.68984 90.1469C2.58357 90.1469 2.48447 90.0771 2.44772 89.9663C2.40163 89.8264 2.47256 89.6739 2.60623 89.6257L3.47867 89.3105C3.61259 89.2629 3.75817 89.3366 3.80426 89.4761C3.85036 89.6161 3.77942 89.7686 3.64576 89.8168L2.77332 90.132C2.74579 90.142 2.71749 90.1469 2.68984 90.1469ZM3.31175 87.7336C3.32353 87.7354 3.33518 87.7362 3.3467 87.7362C3.47282 87.7362 3.58268 87.639 3.60009 87.5045C3.61917 87.3579 3.52109 87.2229 3.38102 87.203L2.47247 87.0732C2.33215 87.052 2.20321 87.1557 2.18413 87.3023C2.16506 87.4489 2.26313 87.5839 2.4032 87.6039L3.31175 87.7336ZM4.11084 85.7804C4.05937 85.7804 4.00751 85.7643 3.96244 85.7307L3.21587 85.1745C3.10076 85.0887 3.07387 84.9214 3.15594 84.801C3.23801 84.6805 3.39806 84.6525 3.51316 84.7382L4.25974 85.2945C4.37485 85.3803 4.40173 85.5475 4.31966 85.6679C4.2696 85.7413 4.19073 85.7804 4.11084 85.7804ZM5.43887 84.271C5.48394 84.3641 5.57408 84.4176 5.66742 84.4176C5.70634 84.4176 5.7459 84.4084 5.78303 84.3886C5.90915 84.3218 5.95959 84.1605 5.89557 84.0286L5.48189 83.1757C5.41787 83.0439 5.26384 82.9909 5.13773 83.0581C5.01161 83.1249 4.96117 83.2861 5.02518 83.418L5.43887 84.271Z" fill="#E1E8F6"/>
<path d="M73.6018 70.8399C72.2374 70.8399 71.1273 69.7296 71.1273 68.3653C71.1273 67.0009 72.2374 65.8909 73.6018 65.8909C74.9661 65.8909 76.0763 67.0007 76.0763 68.3653C76.0763 69.7298 74.9663 70.8399 73.6018 70.8399ZM73.6018 66.7071C72.6873 66.7071 71.9435 67.4511 71.9435 68.3653C71.9435 69.2797 72.6875 70.0237 73.6018 70.0237C74.516 70.0237 75.26 69.2797 75.26 68.3653C75.2602 67.4509 74.5162 66.7071 73.6018 66.7071Z" fill="#E1E8F6"/>
<path d="M88.6989 76.5978C89.2456 76.5978 89.6887 76.1546 89.6887 75.608C89.6887 75.0613 89.2456 74.6182 88.6989 74.6182C88.1523 74.6182 87.7091 75.0613 87.7091 75.608C87.7091 76.1546 88.1523 76.5978 88.6989 76.5978Z" fill="#CBD3D9"/>
<path opacity="0.1" d="M22.5206 17.5504C25.8005 17.5504 28.4594 14.8915 28.4594 11.6115C28.4594 8.33163 25.8005 5.67273 22.5206 5.67273C19.2407 5.67273 16.5818 8.33163 16.5818 11.6115C16.5818 14.8915 19.2407 17.5504 22.5206 17.5504Z" fill="#CBD3D9"/>
<path d="M25.5487 18.5721C26.3686 18.5721 27.0334 17.9073 27.0334 17.0874C27.0334 16.2674 26.3686 15.6027 25.5487 15.6027C24.7287 15.6027 24.064 16.2674 24.064 17.0874C24.064 17.9073 24.7287 18.5721 25.5487 18.5721Z" fill="#CCCCCC"/>
<path opacity="0.93" d="M88.8942 12.1366C89.3856 12.1366 89.7859 11.7507 89.7859 11.2545C89.7859 10.7584 89.3856 10.3724 88.8942 10.3724C88.4029 10.3724 88.0025 10.7584 88.0025 11.2545C88.0025 11.7507 88.4211 12.1366 88.8942 12.1366Z" fill="white"/>
<path opacity="0.5" fill-rule="evenodd" clip-rule="evenodd" d="M90.8898 8.17605C91.0658 8.27411 91.1298 8.49768 91.0327 8.67541L90.7415 9.20834C90.6444 9.38608 90.423 9.45066 90.247 9.35261C90.071 9.25455 90.007 9.03097 90.1041 8.85324L90.3953 8.32031C90.4924 8.14258 90.7138 8.07799 90.8898 8.17605Z" fill="white"/>
<path opacity="0.5" fill-rule="evenodd" clip-rule="evenodd" d="M92.5311 10.8243C92.5553 11.0258 92.4132 11.209 92.2136 11.2334L91.6131 11.3069C91.4135 11.3314 91.2321 11.1878 91.2079 10.9863C91.1838 10.7848 91.3259 10.6016 91.5255 10.5772L92.126 10.5037C92.3256 10.4793 92.507 10.6228 92.5311 10.8243Z" fill="white"/>
<path opacity="0.5" fill-rule="evenodd" clip-rule="evenodd" d="M90.6009 12.8714C90.7518 12.7373 90.9818 12.7521 91.1146 12.9045L91.5149 13.3639C91.6477 13.5163 91.633 13.7486 91.4821 13.8827C91.3312 14.0168 91.1013 14.002 90.9685 13.8496L90.5681 13.3901C90.4353 13.2378 90.45 13.0055 90.6009 12.8714Z" fill="white"/>
<path opacity="0.5" fill-rule="evenodd" clip-rule="evenodd" d="M88.6178 13.4612C88.818 13.4796 88.9655 13.6584 88.9473 13.8606L88.8927 14.467C88.8745 14.6692 88.6975 14.8181 88.4973 14.7998C88.2971 14.7814 88.1496 14.6026 88.1678 14.4004L88.2224 13.794C88.2406 13.5919 88.4176 13.4429 88.6178 13.4612Z" fill="white"/>
<path opacity="0.5" fill-rule="evenodd" clip-rule="evenodd" d="M86.894 12.4972C86.9984 12.6707 86.9436 12.8967 86.7718 13.0021L86.2623 13.3145C86.0904 13.4198 85.8666 13.3646 85.7623 13.1911C85.6579 13.0176 85.7127 12.7915 85.8845 12.6861L86.394 12.3737C86.5659 12.2684 86.7897 12.3237 86.894 12.4972Z" fill="white"/>
<path opacity="0.5" fill-rule="evenodd" clip-rule="evenodd" d="M85.545 10.094C85.6067 9.90085 85.8118 9.79476 86.0031 9.85708L86.5673 10.0409C86.7586 10.1032 86.8636 10.3103 86.8019 10.5035C86.7402 10.6967 86.5351 10.8028 86.3438 10.7404L85.7796 10.5567C85.5883 10.4943 85.4832 10.2872 85.545 10.094Z" fill="white"/>
<path opacity="0.5" fill-rule="evenodd" clip-rule="evenodd" d="M87.7073 7.87938C87.8947 7.8061 88.1055 7.90015 88.1781 8.08945L88.3965 8.65914C88.4691 8.84844 88.3759 9.0613 88.1885 9.13458C88.001 9.20786 87.7902 9.1138 87.7176 8.9245L87.4993 8.35481C87.4267 8.16551 87.5198 7.95265 87.7073 7.87938Z" fill="white"/>
<g opacity="0.1">
<path d="M73.0909 84.6545C77.5494 84.6545 81.1637 81.0402 81.1637 76.5818C81.1637 72.1233 77.5494 68.509 73.0909 68.509C68.6325 68.509 65.0182 72.1233 65.0182 76.5818C65.0182 81.0402 68.6325 84.6545 73.0909 84.6545Z" fill="#E7EDF8"/>
</g>
<path opacity="0.58" d="M76.917 11.5796C77.4637 11.5796 77.9068 11.1364 77.9068 10.5898C77.9068 10.0431 77.4637 9.59998 76.917 9.59998C76.3704 9.59998 75.9272 10.0431 75.9272 10.5898C75.9272 11.1364 76.3704 11.5796 76.917 11.5796Z" fill="#F0F2F2"/>
</svg>
