<svg width="220" height="220" viewBox="0 0 220 220" fill="none" xmlns="http://www.w3.org/2000/svg">
<path opacity="0.6" d="M106.906 101.708L79.3553 74.1566C77.6442 72.4454 77.6442 69.6661 79.3553 67.9549L106.906 40.404C108.617 38.6928 111.397 38.6928 113.108 40.404L140.659 67.9549C142.37 69.6661 142.37 72.4454 140.659 74.1566L113.108 101.708C111.392 103.419 108.617 103.419 106.906 101.708Z" fill="#E1E8F6"/>
<path opacity="0.5" d="M145.848 140.649L118.297 113.098C116.586 111.387 116.586 108.608 118.297 106.897L145.848 79.3456C147.559 77.6345 150.339 77.6345 152.05 79.3456L179.601 106.897C181.312 108.608 181.312 111.387 179.601 113.098L152.05 140.649C150.334 142.36 147.559 142.36 145.848 140.649Z" fill="#E1E8F6"/>
<path opacity="0.4" d="M106.906 179.591L79.3553 152.04C77.6442 150.329 77.6442 147.55 79.3553 145.838L106.906 118.288C108.617 116.576 111.397 116.576 113.108 118.288L140.659 145.838C142.37 147.55 142.37 150.329 140.659 152.04L113.108 179.591C111.392 181.307 108.617 181.307 106.906 179.591Z" fill="#E1E8F6"/>
<path opacity="0.5" d="M67.9593 140.649L40.4084 113.098C38.6973 111.387 38.6973 108.608 40.4084 106.897L67.9593 79.3456C69.6705 77.6345 72.4499 77.6345 74.1611 79.3456L101.712 106.897C103.423 108.608 103.423 111.387 101.712 113.098L74.1611 140.649C72.4499 142.36 69.6756 142.36 67.9593 140.649Z" fill="#E1E8F6"/>
<path d="M107.302 98.1678L76.9855 67.851C75.493 66.3585 75.493 63.9333 76.9855 62.4408L107.302 32.124C108.795 30.6315 111.22 30.6315 112.712 32.124L143.029 62.4408C144.522 63.9333 144.522 66.3585 143.029 67.851L112.714 98.1668C111.215 99.6612 108.794 99.6597 107.302 98.1678Z" stroke="#09BCEF" stroke-width="2"/>
<path d="M152.154 143.019L121.837 112.702C120.344 111.21 120.344 108.785 121.837 107.292L152.154 76.9753C153.646 75.4828 156.071 75.4828 157.564 76.9753L187.881 107.292C189.373 108.785 189.373 111.21 187.881 112.702L157.565 143.018C156.066 144.512 153.646 144.511 152.154 143.019Z" stroke="#09BCEF" stroke-width="2"/>
<path d="M107.303 187.871L107.302 187.87L76.9855 157.554C75.493 156.061 75.493 153.636 76.9855 152.143L107.302 121.827C108.795 120.334 111.22 120.334 112.712 121.827L143.029 152.143C144.522 153.636 144.522 156.061 143.029 157.554L112.712 187.87C111.214 189.369 108.795 189.368 107.303 187.871Z" stroke="#09BCEF" stroke-width="2"/>
<path d="M62.4443 143.018L32.1285 112.702C30.6361 111.21 30.6361 108.785 32.1285 107.292L62.4454 76.9753C63.9378 75.4828 66.3631 75.4828 67.8555 76.9753L98.1723 107.292C99.6648 108.785 99.6648 111.21 98.1723 112.702L67.8555 143.019C66.3636 144.511 63.9431 144.512 62.4443 143.018Z" stroke="#09BCEF" stroke-width="2"/>
<path d="M35.7333 126.5C35.7333 129.027 33.6459 131.083 31.0805 131.083C28.5151 131.083 26.4277 129.027 26.4277 126.5C26.4277 123.973 28.5151 121.917 31.0805 121.917C33.6459 121.917 35.7333 123.973 35.7333 126.5ZM27.4133 126.5C27.4133 128.48 29.0584 130.091 31.0805 130.091C33.1026 130.091 34.7476 128.48 34.7476 126.5C34.7476 124.52 33.1026 122.909 31.0805 122.909C29.0584 122.909 27.4133 124.52 27.4133 126.5Z" fill="#E1E8F6"/>
<path d="M41.7679 126.5C41.7679 126.104 41.4409 125.782 41.0378 125.782C40.6347 125.782 40.3077 126.104 40.3077 126.5C40.3077 126.896 40.6347 127.217 41.0378 127.217C41.4409 127.217 41.7679 126.896 41.7679 126.5Z" fill="#E1E8F6"/>
<path d="M38.6447 119.054C38.3596 118.773 37.8973 118.773 37.6119 119.054C37.3268 119.334 37.3268 119.788 37.6119 120.068C37.897 120.348 38.3593 120.348 38.6447 120.068C38.9298 119.788 38.9298 119.334 38.6447 119.054Z" fill="#E1E8F6"/>
<path d="M31.8106 116.717C31.8106 116.321 31.4836 116 31.0805 116C30.6773 116 30.3503 116.321 30.3503 116.717C30.3503 117.114 30.6773 117.435 31.0805 117.435C31.4836 117.435 31.8106 117.113 31.8106 116.717Z" fill="#E1E8F6"/>
<path d="M24.5536 119.063C24.2685 118.783 23.8062 118.783 23.5208 119.063C23.2357 119.343 23.2357 119.797 23.5208 120.078C23.8059 120.358 24.2682 120.358 24.5536 120.078C24.8387 119.797 24.8387 119.343 24.5536 119.063Z" fill="#E1E8F6"/>
<path d="M21.8533 126.5C21.8533 126.104 21.5263 125.782 21.1231 125.782C20.7198 125.782 20.393 126.104 20.393 126.5C20.393 126.896 20.72 127.217 21.1231 127.217C21.5263 127.217 21.8533 126.896 21.8533 126.5Z" fill="#E1E8F6"/>
<path d="M24.5628 132.907C24.2777 132.627 23.8154 132.627 23.53 132.907C23.2449 133.187 23.2449 133.641 23.53 133.921C23.8152 134.202 24.2774 134.202 24.5628 133.921C24.8479 133.641 24.8479 133.187 24.5628 132.907Z" fill="#E1E8F6"/>
<path d="M31.8106 136.283C31.8106 135.886 31.4836 135.565 31.0805 135.565C30.6773 135.565 30.3503 135.886 30.3503 136.283C30.3503 136.679 30.6773 137 31.0805 137C31.4836 137 31.8106 136.679 31.8106 136.283Z" fill="#E1E8F6"/>
<path d="M38.6542 132.898C38.3691 132.617 37.9068 132.617 37.6215 132.898C37.3363 133.178 37.3363 133.632 37.6215 133.912C37.9066 134.192 38.3688 134.192 38.6542 133.912C38.9395 133.632 38.9395 133.178 38.6542 132.898Z" fill="#E1E8F6"/>
<path opacity="0.2" d="M154 187C174.435 187 191 170.435 191 150C191 129.565 174.435 113 154 113C133.565 113 117 129.565 117 150C117 170.435 133.565 187 154 187Z" fill="#D7E2E5" fill-opacity="0.6"/>
<path d="M180.987 118C183.738 118 185.975 120.258 185.975 123.033C185.975 125.809 183.738 128.067 180.987 128.067C178.237 128.067 176 125.809 176 123.033C176 120.258 178.237 118 180.987 118ZM180.987 126.943C183.123 126.943 184.861 125.189 184.861 123.033C184.861 120.878 183.123 119.124 180.987 119.124C178.851 119.124 177.114 120.878 177.114 123.033C177.114 125.189 178.851 126.943 180.987 126.943Z" fill="#E1E8F6"/>
<path d="M53.5 49.9286C57.6356 49.9286 61 53.324 61 57.4976C61 61.6712 57.6356 65.0667 53.5 65.0666C49.3645 65.0666 46 61.6712 46 57.4976C46 53.324 49.3645 49.9286 53.5 49.9286ZM53.5 63.3768C56.7121 63.3768 59.3255 60.7393 59.3255 57.4976C59.3255 54.256 56.7121 51.6185 53.5 51.6185C50.2879 51.6185 47.6745 54.256 47.6745 57.4976C47.6745 60.7393 50.2879 63.3768 53.5 63.3768Z" fill="#98A8B2"/>
<path d="M198.259 113.608C197.011 114.496 196.723 116.232 197.616 117.485C198.508 118.739 200.243 119.036 201.49 118.148C202.738 117.26 203.026 115.524 202.133 114.27C201.241 113.016 199.506 112.72 198.259 113.608Z" fill="#CBD3D9"/>
<path d="M55.2588 50.6077C54.0113 51.4956 53.7234 53.2317 54.6157 54.4854C55.508 55.7391 57.2427 56.0356 58.4901 55.1477C59.7376 54.2598 60.0255 52.5237 59.1332 51.27C58.2409 50.0163 56.5062 49.7198 55.2588 50.6077Z" fill="#CFCFCF"/>
<path d="M191.696 127.207C190.759 127.874 190.543 129.178 191.214 130.12C191.884 131.062 193.187 131.285 194.124 130.618C195.06 129.951 195.276 128.647 194.606 127.705C193.935 126.764 192.633 126.54 191.696 127.207Z" fill="#A9AEB9"/>
<path d="M66.696 61.2072C65.7593 61.8739 65.5435 63.1778 66.2138 64.1197C66.8842 65.0616 68.187 65.2847 69.1237 64.618C70.0604 63.9513 70.2762 62.6473 69.6059 61.7055C68.9355 60.7636 67.6327 60.5405 66.696 61.2072Z" fill="#E7EDF8"/>
<path opacity="0.93" d="M43.7923 73.705C42.7403 73.705 41.8832 74.5312 41.8832 75.5935C41.8832 76.6557 42.7403 77.4819 43.7923 77.4819C44.8442 77.4819 45.7013 76.6557 45.7013 75.5935C45.7013 74.5312 44.8052 73.705 43.7923 73.705Z" fill="white"/>
<path opacity="0.5" fill-rule="evenodd" clip-rule="evenodd" d="M39.5198 82.1837C39.143 81.9738 39.0061 81.4951 39.2139 81.1146L39.8373 79.9737C40.0452 79.5932 40.5192 79.4549 40.896 79.6649C41.2728 79.8748 41.4097 80.3534 41.2018 80.7339L40.5785 81.8748C40.3706 82.2553 39.8966 82.3936 39.5198 82.1837Z" fill="white"/>
<path opacity="0.5" fill-rule="evenodd" clip-rule="evenodd" d="M36.0057 76.5145C35.954 76.0831 36.2583 75.691 36.6855 75.6387L37.9712 75.4813C38.3984 75.4291 38.7867 75.7364 38.8385 76.1678C38.8903 76.5992 38.586 76.9913 38.1587 77.0436L36.8731 77.201C36.4458 77.2533 36.0575 76.9459 36.0057 76.5145Z" fill="white"/>
<path opacity="0.5" fill-rule="evenodd" clip-rule="evenodd" d="M40.1382 72.132C39.8151 72.419 39.3228 72.3873 39.0385 72.0611L38.1813 71.0775C37.897 70.7513 37.9285 70.2541 38.2515 69.967C38.5746 69.6799 39.067 69.7116 39.3513 70.0379L40.2084 71.0214C40.4927 71.3477 40.4613 71.8449 40.1382 72.132Z" fill="white"/>
<path opacity="0.5" fill-rule="evenodd" clip-rule="evenodd" d="M44.3838 70.8688C43.9553 70.8294 43.6394 70.4467 43.6784 70.0139L43.7953 68.7156C43.8342 68.2828 44.2132 67.9639 44.6418 68.0032C45.0704 68.0426 45.3862 68.4253 45.3473 68.8581L45.2304 70.1564C45.1914 70.5892 44.8124 70.9081 44.3838 70.8688Z" fill="white"/>
<path opacity="0.5" fill-rule="evenodd" clip-rule="evenodd" d="M48.074 72.9332C47.8507 72.5617 47.9679 72.0777 48.3357 71.8522L49.4266 71.1834C49.7945 70.9579 50.2737 71.0762 50.4971 71.4476C50.7204 71.8191 50.6032 72.303 50.2354 72.5286L49.1445 73.1974C48.7766 73.4229 48.2974 73.3046 48.074 72.9332Z" fill="white"/>
<path opacity="0.5" fill-rule="evenodd" clip-rule="evenodd" d="M50.9622 78.0778C50.83 78.4914 50.3909 78.7185 49.9814 78.5851L48.7736 78.1917C48.364 78.0582 48.1391 77.6148 48.2712 77.2012C48.4033 76.7877 48.8425 76.5605 49.252 76.6939L50.4598 77.0874C50.8694 77.2208 51.0943 77.6642 50.9622 78.0778Z" fill="white"/>
<path opacity="0.5" fill-rule="evenodd" clip-rule="evenodd" d="M46.333 82.819C45.9317 82.9759 45.4804 82.7746 45.3251 82.3693L44.8575 81.1497C44.7022 80.7444 44.9016 80.2887 45.3029 80.1318C45.7042 79.975 46.1555 80.1763 46.3109 80.5816L46.7784 81.8012C46.9337 82.2065 46.7343 82.6622 46.333 82.819Z" fill="white"/>
</svg>
