<svg id="Layer_1" data-name="Layer 1" xmlns="http://www.w3.org/2000/svg" xmlns:xlink="http://www.w3.org/1999/xlink" viewBox="0 0 24 24"><defs><clipPath id="clip-path"><rect width="24" height="24" transform="translate(24 24) rotate(-180)" style="fill:none"/></clipPath></defs><title>Artboard 1refresh_24</title><g style="clip-path:url(#clip-path)"><path d="M3,12a8.963,8.963,0,0,0,9,9,8.823,8.823,0,0,0,6-2.3h0a.779.779,0,0,0,.3-.7.945.945,0,0,0-1-1,1.445,1.445,0,0,0-.7.2h0A6.5,6.5,0,0,1,12,19,7,7,0,0,1,12,5a7.066,7.066,0,0,1,7,6.9l-1.7-1.7a.785.785,0,0,0-1.1,0,1.421,1.421,0,0,0-.2.6.864.864,0,0,0,.3.6L20,15.1l3.8-3.7a.785.785,0,0,0,0-1.1.91.91,0,0,0-1.2,0L21,11.8A9,9,0,0,0,3,12Z" style="fill:#333"/></g></svg>