<svg width="16" height="16" viewBox="0 0 16 16" fill="none" xmlns="http://www.w3.org/2000/svg">
<path d="M14.4697 15.5303C14.7626 15.8232 15.2374 15.8232 15.5303 15.5303C15.8232 15.2374 15.8232 14.7626 15.5303 14.4697L14.4697 15.5303ZM15.5303 14.4697L11.3303 10.2697L10.2697 11.3303L14.4697 15.5303L15.5303 14.4697ZM6.6 1.75C9.28579 1.75 11.45 3.91421 11.45 6.6H12.95C12.95 3.08579 10.1142 0.25 6.6 0.25V1.75ZM11.45 6.6C11.45 9.28579 9.28579 11.45 6.6 11.45V12.95C10.1142 12.95 12.95 10.1142 12.95 6.6H11.45ZM6.6 11.45C3.91421 11.45 1.75 9.28579 1.75 6.6H0.25C0.25 10.1142 3.08579 12.95 6.6 12.95V11.45ZM1.75 6.6C1.75 3.91421 3.91421 1.75 6.6 1.75V0.25C3.08579 0.25 0.25 3.08579 0.25 6.6H1.75Z" fill="white"/>
</svg>
