<svg id="Layer_1" data-name="Layer 1" xmlns="http://www.w3.org/2000/svg" viewBox="0 0 24 24"><title>Artboard 1add_rule</title><path d="M12,23.5A11.5,11.5,0,1,1,23.5,12,11.513,11.513,0,0,1,12,23.5Z" style="fill:#fff"/><path d="M12,1A11,11,0,1,1,1,12,11.012,11.012,0,0,1,12,1m0-1A12,12,0,1,0,24,12,12,12,0,0,0,12,0Z" style="fill:#767676"/><path d="M17.571,10.714H13.286V6.429a1.286,1.286,0,0,0-2.571,0v4.286H6.429a1.286,1.286,0,0,0,0,2.571h4.286v4.286a1.286,1.286,0,0,0,2.571,0V13.286h4.286a1.286,1.286,0,1,0,0-2.571Z" style="fill:#767676"/></svg>