<?xml version="1.0" encoding="utf-8"?>
<!-- Generator: Adobe Illustrator 21.0.0, SVG Export Plug-In . SVG Version: 6.00 Build 0)  -->
<svg version="1.1" id="Layer_1" xmlns="http://www.w3.org/2000/svg" xmlns:xlink="http://www.w3.org/1999/xlink" x="0px" y="0px"
	 viewBox="0 0 32 32" style="enable-background:new 0 0 32 32;" xml:space="preserve">
<style type="text/css">
	.st0{opacity:0.9;fill:#3C5666;enable-background:new    ;}
	.st1{fill:#FFFFFF;}
	.st2{fill:#3C5766;stroke:#3C5666;stroke-width:0.25;stroke-linejoin:round;stroke-miterlimit:10;}
	.st3{fill:#FFFFFF;stroke:#3C5666;stroke-width:0.25;stroke-linecap:round;stroke-linejoin:round;stroke-miterlimit:10;}
</style>
<g>
	<g id="shortcut">
		<g>
			<g>
				<path class="st0" d="M7.5,31.5c-3.9,0-7-3.1-7-7s3.1-7,7-7s7,3.1,7,7S11.4,31.5,7.5,31.5z"/>
				<path class="st1" d="M7.5,18c3.6,0,6.5,2.9,6.5,6.5S11.1,31,7.5,31S1,28.1,1,24.5S3.9,18,7.5,18 M7.5,17C3.4,17,0,20.4,0,24.5
					S3.4,32,7.5,32s7.5-3.4,7.5-7.5S11.6,17,7.5,17L7.5,17z"/>
			</g>
		</g>
		<g id="znjxlC_1_">
			<path class="st2" d="M2.5,27.46v-0.35c0.069-0.28,0.276-0.489,0.484-0.699c0.691-0.699,1.382-1.398,2.073-2.097l0.069-0.07
				c0.345-0.35,0.829-0.35,1.174,0c0.138,0.14,0.276,0.28,0.415,0.419c0,0.07,0.069,0.07,0.069,0.14l0.345-0.28
				c-0.138-0.14-0.276-0.28-0.415-0.419c-0.069-0.07-0.138-0.14-0.207-0.28c-0.138-0.35-0.069-0.769,0.207-1.049
				c0.76-0.769,1.589-1.608,2.349-2.377c0.138-0.21,0.415-0.35,0.622-0.419h0.345c0.138,0.07,0.345,0.14,0.484,0.28
				c0.484,0.489,1.105,1.119,1.727,1.748c0.345,0.35,0.345,0.839,0,1.188c-0.829,0.909-1.727,1.748-2.556,2.587
				c-0.138,0.14-0.345,0.28-0.622,0.28c-0.207,0-0.415-0.07-0.622-0.28c-0.138-0.14-0.276-0.28-0.415-0.489l-0.345,0.35
				c0.138,0.14,0.276,0.28,0.415,0.419c0.345,0.28,0.345,0.839,0.069,1.188c0,0-0.069,0.07-0.069,0.07
				c-0.423,0.428-0.846,0.856-1.269,1.284c-0.397,0.401-0.776,0.885-1.209,1.241c-0.274,0.226-0.801,0.169-1.045-0.078
				c-0.553-0.559-1.105-1.119-1.658-1.608C2.707,27.949,2.569,27.739,2.5,27.46z M7.889,23.615l0.553-0.559l0.898,0.909
				l-0.553,0.559l0.276,0.28l2.211-2.237l-1.451-1.468l-2.211,2.237L7.889,23.615z M5.471,26.131l0.553-0.629l-0.276-0.35
				L3.605,27.32l1.451,1.468l2.142-2.167l-0.276-0.28c0,0-0.603,0.541-0.62,0.542C6.284,26.884,5.747,26.411,5.471,26.131
				L5.471,26.131z"/>
		</g>
		<g id="znjxlC">
			<path class="st3" d="M2.5,26.98v-0.35c0.069-0.28,0.276-0.489,0.484-0.699c0.691-0.699,1.382-1.398,2.073-2.097l0.069-0.07
				c0.345-0.35,0.829-0.35,1.174,0c0.138,0.14,0.276,0.28,0.415,0.419c0,0.07,0.069,0.07,0.069,0.14l0.345-0.28
				c-0.138-0.14-0.276-0.28-0.415-0.419c-0.069-0.07-0.138-0.14-0.207-0.28c-0.138-0.35-0.069-0.769,0.207-1.049
				c0.76-0.769,1.589-1.608,2.349-2.377c0.138-0.21,0.415-0.35,0.622-0.419h0.345c0.138,0.07,0.345,0.14,0.484,0.28
				c0.484,0.489,1.105,1.119,1.727,1.748c0.345,0.35,0.345,0.839,0,1.188c-0.829,0.909-1.727,1.748-2.556,2.587
				c-0.138,0.14-0.345,0.28-0.622,0.28c-0.207,0-0.415-0.07-0.622-0.28c-0.138-0.14-0.276-0.28-0.415-0.489l-0.345,0.35
				c0.138,0.14,0.276,0.28,0.415,0.419c0.345,0.28,0.345,0.839,0.069,1.188c0,0-0.069,0.07-0.069,0.07
				c-0.465,0.471-0.931,0.942-1.396,1.413c-0.233,0.236-0.464,0.473-0.699,0.707c-0.182,0.182-0.323,0.432-0.583,0.51
				c-0.271,0.081-0.642,0.023-0.845-0.183c-0.553-0.559-1.105-1.119-1.658-1.608C2.707,27.47,2.569,27.26,2.5,26.98z M7.889,23.135
				l0.553-0.559l0.898,0.909l-0.553,0.559l0.276,0.28l2.211-2.237l-1.451-1.468l-2.211,2.237L7.889,23.135z M5.471,25.652
				l0.553-0.629l-0.276-0.35l-2.142,2.167l1.451,1.468l2.142-2.167l-0.276-0.28c0,0-0.604,0.542-0.622,0.542
				C6.282,26.404,5.747,25.932,5.471,25.652L5.471,25.652z"/>
		</g>
	</g>
</g>
</svg>
