<svg width="32" height="128" viewBox="0 0 32 128" fill="none" xmlns="http://www.w3.org/2000/svg">
<path opacity="0.75" d="M16 23.5C11.864 23.5 8.5 20.136 8.5 16C8.5 11.864 11.864 8.5 16 8.5C20.136 8.5 23.5 11.864 23.5 16C23.5 20.136 20.136 23.5 16 23.5Z" fill="#333333"/>
<path fill-rule="evenodd" clip-rule="evenodd" d="M7 16C7 20.9644 11.0356 25 16 25C20.9644 25 25 20.9644 25 16C25 11.0356 20.9644 7 16 7C11.0356 7 7 11.0356 7 16ZM10.1551 20.6951C9.12006 19.4091 8.5 17.7757 8.5 16C8.5 11.864 11.864 8.5 16 8.5C20.136 8.5 23.5 11.864 23.5 16C23.5 20.136 20.136 23.5 16 23.5C14.2338 23.5 12.6084 22.8866 11.3256 21.8615L18.3477 14.8394L18.3477 18.597C18.3477 19.0539 18.717 19.4231 19.1739 19.4231C19.6308 19.4231 20 19.0539 20 18.597L20 12H13.403C12.9467 11.9994 12.5768 12.3692 12.5768 12.8261C12.5768 13.283 12.9461 13.6522 13.403 13.6522L17.1973 13.6528L10.1551 20.6951Z" fill="white"/>
<circle cx="16" cy="112" r="14" fill="white"/>
<path fill-rule="evenodd" clip-rule="evenodd" d="M7 112C7 116.964 11.0356 121 16 121C20.9644 121 25 116.964 25 112C25 107.036 20.9644 103 16 103C11.0356 103 7 107.036 7 112ZM10.1551 116.695C9.12006 115.409 8.5 113.776 8.5 112C8.5 107.864 11.864 104.5 16 104.5C20.136 104.5 23.5 107.864 23.5 112C23.5 116.136 20.136 119.5 16 119.5C14.2338 119.5 12.6084 118.887 11.3256 117.862L18.3477 110.839L18.3477 114.597C18.3477 115.054 18.717 115.423 19.1739 115.423C19.6308 115.423 20 115.054 20 114.597L20 108H13.403C12.9467 107.999 12.5768 108.369 12.5768 108.826C12.5768 109.283 12.9461 109.652 13.403 109.652L17.1973 109.653L10.1551 116.695Z" fill="#627783"/>
<g opacity="0.6">
<circle cx="16" cy="48" r="14" fill="#627783"/>
</g>
<path fill-rule="evenodd" clip-rule="evenodd" d="M7 48C7 52.9644 11.0356 57 16 57C20.9644 57 25 52.9644 25 48C25 43.0356 20.9644 39 16 39C11.0356 39 7 43.0356 7 48ZM10.1551 52.6951C9.12006 51.4091 8.5 49.7757 8.5 48C8.5 43.864 11.864 40.5 16 40.5C20.136 40.5 23.5 43.864 23.5 48C23.5 52.136 20.136 55.5 16 55.5C14.2338 55.5 12.6084 54.8866 11.3256 53.8615L18.3477 46.8394L18.3477 50.597C18.3477 51.0539 18.717 51.4231 19.1739 51.4231C19.6308 51.4231 20 51.0539 20 50.597L20 44H13.403C12.9467 43.9994 12.5768 44.3692 12.5768 44.8261C12.5768 45.283 12.9461 45.6522 13.403 45.6522L17.1973 45.6528L10.1551 52.6951Z" fill="#7B9AB0"/>
<g opacity="0.6">
<circle cx="16" cy="80" r="14" fill="#F9F9F9"/>
</g>
<path fill-rule="evenodd" clip-rule="evenodd" d="M7 80C7 84.9644 11.0356 89 16 89C20.9644 89 25 84.9644 25 80C25 75.0356 20.9644 71 16 71C11.0356 71 7 75.0356 7 80ZM10.1551 84.6951C9.12006 83.4091 8.5 81.7757 8.5 80C8.5 75.864 11.864 72.5 16 72.5C20.136 72.5 23.5 75.864 23.5 80C23.5 84.136 20.136 87.5 16 87.5C14.2338 87.5 12.6084 86.8866 11.3256 85.8615L18.3477 78.8394L18.3477 82.597C18.3477 83.0539 18.717 83.4231 19.1739 83.4231C19.6308 83.4231 20 83.0539 20 82.597L20 76H13.403C12.9467 75.9994 12.5768 76.3692 12.5768 76.8261C12.5768 77.283 12.9461 77.6522 13.403 77.6522L17.1973 77.6528L10.1551 84.6951Z" fill="#757575"/>
</svg>
