<?xml version="1.0" encoding="utf-8"?>
<!-- Generator: Adobe Illustrator 18.1.0, SVG Export Plug-In . SVG Version: 6.00 Build 0)  -->
<!DOCTYPE svg PUBLIC "-//W3C//DTD SVG 1.1//EN" "http://www.w3.org/Graphics/SVG/1.1/DTD/svg11.dtd">
<svg version="1.1" id="Layer_1" xmlns="http://www.w3.org/2000/svg" xmlns:xlink="http://www.w3.org/1999/xlink" x="0px" y="0px"
	 viewBox="0 0 154 154" enable-background="new 0 0 154 154" xml:space="preserve">
<g>
	<g>
		<g>
			<path fill="#E8ECEE" d="M32,153c-8.822,0-16-7.178-16-16V17c0-8.822,7.178-16,16-16h75.414L138,31.586V137
				c0,8.822-7.178,16-16,16H32z"/>
			<path fill="#6088A0" d="M107,2l30,30v105c0,8.284-6.716,15-15,15H32c-8.284,0-15-6.716-15-15V17c0-8.284,6.716-15,15-15H107
				 M107.828,0H32c-9.374,0-17,7.626-17,17v120c0,9.374,7.626,17,17,17h90c9.374,0,17-7.626,17-17V31.172L107.828,0L107.828,0z"/>
		</g>
	</g>
</g>
<polygon fill-rule="evenodd" clip-rule="evenodd" fill="#B2C7CD" points="107,2 107,32 137,32 "/>
<g>
	<circle fill="#F4F8F8" cx="77" cy="77" r="41.5"/>
</g>
<path fill="#6088A0" d="M79.018,119.952h-0.01c-0.828,0-1.5-0.672-1.5-1.5s0.672-1.5,1.5-1.5s1.505,0.672,1.505,1.5
	S79.846,119.952,79.018,119.952z"/>
<path fill="#6088A0" d="M71.14,119.59c-0.161,0-0.331-0.027-0.484-0.078c-0.786-0.262-1.211-1.111-0.949-1.897
	c0.229-0.688,0.906-1.104,1.603-1.015c0.748,0.085,1.33,0.72,1.33,1.49C72.64,118.918,71.969,119.59,71.14,119.59z"/>
<path fill="#6088A0" d="M63.467,117.757c-0.161,0-0.331-0.027-0.484-0.078c-0.786-0.262-1.211-1.111-0.949-1.897
	c0.229-0.688,0.906-1.104,1.603-1.015c0.748,0.085,1.33,0.72,1.33,1.49C64.967,117.085,64.296,117.757,63.467,117.757z"/>
<path fill="#6088A0" d="M86.812,118.833c-0.828,0-1.5-0.672-1.5-1.5c0-0.735,0.528-1.347,1.227-1.475
	c0.731-0.143,1.466,0.276,1.706,0.998c0.262,0.786-0.163,1.636-0.948,1.897C87.143,118.805,86.973,118.833,86.812,118.833z"/>
<path fill="#6088A0" d="M94.263,116.251c-0.484,0-0.96-0.234-1.249-0.668c-0.46-0.689-0.273-1.62,0.416-2.08
	c0.111-0.074,0.24-0.137,0.366-0.179c0.786-0.263,1.637,0.163,1.897,0.948c0.245,0.736-0.111,1.528-0.804,1.841
	C94.689,116.206,94.476,116.251,94.263,116.251z"/>
<path fill="#6088A0" d="M56.296,114.476c-0.243,0-0.488-0.059-0.712-0.181c-0.635-0.337-0.953-1.094-0.718-1.799
	c0.262-0.785,1.113-1.21,1.897-0.948c0.126,0.042,0.256,0.105,0.367,0.18c0.689,0.46,0.875,1.391,0.416,2.08
	C57.256,114.241,56.781,114.476,56.296,114.476z"/>
<path fill="#6088A0" d="M101.087,112.299c-0.384,0-0.768-0.146-1.061-0.439c-0.586-0.586-0.586-1.535,0-2.121
	c0.069-0.07,0.154-0.139,0.236-0.193c0.69-0.463,1.621-0.272,2.08,0.416c0.441,0.662,0.287,1.547-0.336,2.023
	C101.736,112.194,101.412,112.299,101.087,112.299z"/>
<path fill="#6088A0" d="M49.869,109.905c-0.329,0-0.66-0.107-0.936-0.329c-0.079-0.062-0.158-0.14-0.223-0.218
	c-0.53-0.636-0.444-1.582,0.192-2.112c0.592-0.493,1.451-0.453,1.996,0.066c0.565,0.53,0.636,1.414,0.144,2.03
	C50.745,109.713,50.309,109.905,49.869,109.905z"/>
<path fill="#6088A0" d="M107.043,107.131c-0.384,0-0.768-0.146-1.061-0.439c-0.586-0.586-0.586-1.535,0-2.121
	c0.587-0.587,1.54-0.589,2.125-0.004c0.585,0.586,0.589,1.532,0.003,2.118l-0.007,0.007
	C107.811,106.984,107.427,107.131,107.043,107.131z"/>
<path fill="#6088A0" d="M44.42,104.207c-0.434,0-0.86-0.188-1.152-0.538c-0.456-0.536-0.483-1.337-0.027-1.907
	c0.518-0.646,1.463-0.751,2.108-0.233c0.121,0.096,0.232,0.218,0.317,0.347c0.459,0.689,0.273,1.62-0.416,2.08
	C44.995,104.126,44.706,104.207,44.42,104.207z"/>
<path fill="#6088A0" d="M111.921,100.934c-0.157,0-0.317-0.024-0.475-0.077c-0.786-0.262-1.21-1.111-0.948-1.897
	c0.042-0.126,0.105-0.255,0.18-0.366c0.46-0.69,1.392-0.876,2.08-0.416c0.65,0.434,0.853,1.287,0.488,1.961
	C112.983,100.632,112.469,100.934,111.921,100.934z"/>
<path fill="#6088A0" d="M40.135,97.58c-0.548,0-1.076-0.302-1.338-0.826l-0.004-0.009c-0.37-0.741-0.07-1.642,0.671-2.013
	c0.74-0.37,1.642-0.07,2.013,0.671c0.37,0.741,0.072,1.646-0.669,2.017C40.591,97.528,40.361,97.58,40.135,97.58z"/>
<path fill="#6088A0" d="M115.537,93.926c-0.286,0-0.575-0.081-0.831-0.252c-0.624-0.416-0.836-1.218-0.53-1.877
	c0.312-0.692,1.104-1.051,1.841-0.803c0.786,0.262,1.21,1.111,0.948,1.897c-0.042,0.126-0.104,0.255-0.179,0.366
	C116.497,93.691,116.021,93.926,115.537,93.926z"/>
<path fill="#6088A0" d="M37.192,90.27c-0.628,0-1.213-0.397-1.422-1.025c-0.012-0.037-0.026-0.083-0.035-0.12
	c-0.201-0.804,0.288-1.618,1.091-1.819c0.785-0.197,1.577,0.264,1.803,1.031c0.234,0.774-0.189,1.599-0.962,1.856
	C37.509,90.245,37.349,90.27,37.192,90.27z"/>
<path fill="#6088A0" d="M117.756,86.359c-0.828,0-1.5-0.672-1.5-1.5c0-0.161,0.028-0.331,0.079-0.484
	c0.261-0.785,1.112-1.212,1.897-0.948c0.722,0.24,1.14,0.978,0.999,1.705C119.103,85.83,118.491,86.359,117.756,86.359z"/>
<path fill="#6088A0" d="M35.691,82.528c-0.72,0-1.355-0.52-1.478-1.253c-0.014-0.082-0.021-0.174-0.021-0.257
	c0-0.828,0.671-1.5,1.5-1.5c0.782,0,1.425,0.599,1.494,1.363c0.078,0.779-0.462,1.495-1.246,1.626
	C35.856,82.521,35.773,82.528,35.691,82.528z"/>
<path fill="#6088A0" d="M118.5,78.51c-0.828,0-1.5-0.671-1.5-1.5c0-0.026,0.001-0.051,0.002-0.077
	c-0.002-0.031-0.003-0.062-0.003-0.094c0-0.829,0.672-1.505,1.5-1.505s1.5,0.667,1.5,1.495v0.01c0,0.024-0.001,0.048-0.002,0.071
	C119.999,76.94,120,76.97,120,77v0.01C120,77.838,119.328,78.51,118.5,78.51z"/>
<path fill="#6088A0" d="M35.679,74.643c-0.071,0-0.142-0.005-0.214-0.015c-0.797-0.114-1.358-0.835-1.281-1.628
	c0.067-0.766,0.71-1.367,1.494-1.367c0.829,0,1.5,0.671,1.5,1.5c0,0.071-0.006,0.152-0.016,0.222
	C37.055,74.104,36.413,74.643,35.679,74.643z"/>
<path fill="#6088A0" d="M117.728,70.491c-0.738,0-1.352-0.533-1.477-1.235c-0.141-0.752,0.312-1.502,1.062-1.717
	c0.792-0.227,1.626,0.233,1.854,1.03c0.038,0.134,0.06,0.283,0.06,0.422C119.228,69.82,118.556,70.491,117.728,70.491z"/>
<path fill="#6088A0" d="M115.482,62.934c-0.521,0-1.026-0.272-1.304-0.756c-0.049-0.086-0.093-0.186-0.124-0.279
	c-0.262-0.786,0.163-1.635,0.948-1.897c0.747-0.252,1.554,0.123,1.855,0.837c0.301,0.692,0.038,1.515-0.633,1.897
	C115.991,62.87,115.735,62.934,115.482,62.934z"/>
<path fill="#6088A0" d="M40.058,59.564c-0.225,0-0.452-0.051-0.667-0.158c-0.741-0.371-1.043-1.267-0.673-2.008l0.004-0.009
	c0.371-0.741,1.273-1.039,2.013-0.671c0.741,0.371,1.041,1.271,0.671,2.013C41.142,59.258,40.61,59.564,40.058,59.564z"/>
<path fill="#6088A0" d="M37.145,66.883c-0.225,0-0.452-0.051-0.667-0.158c-0.741-0.371-1.043-1.267-0.673-2.008l0.004-0.009
	c0.371-0.741,1.273-1.039,2.013-0.671c0.741,0.371,1.041,1.271,0.671,2.013C38.229,66.577,37.697,66.883,37.145,66.883z"/>
<path fill="#6088A0" d="M111.838,55.94c-0.53,0-1.036-0.284-1.306-0.761c-0.391-0.679-0.192-1.555,0.469-1.996
	c0.688-0.46,1.62-0.274,2.08,0.416c0.058,0.086,0.111,0.187,0.149,0.283c0.308,0.769-0.066,1.642-0.836,1.95
	C112.212,55.906,112.023,55.94,111.838,55.94z"/>
<path fill="#6088A0" d="M44.312,52.928c-0.329,0-0.659-0.107-0.936-0.329c-0.634-0.508-0.748-1.426-0.263-2.071
	c0.473-0.639,1.369-0.801,2.038-0.356c0.689,0.459,0.875,1.391,0.416,2.08c-0.024,0.036-0.056,0.079-0.083,0.113
	C45.188,52.735,44.751,52.928,44.312,52.928z"/>
<path fill="#6088A0" d="M106.938,49.761c-0.339,0-0.679-0.114-0.959-0.348c-0.078-0.064-0.155-0.144-0.218-0.223
	c-0.518-0.647-0.413-1.591,0.233-2.108c0.617-0.492,1.501-0.421,2.03,0.144c0.52,0.544,0.56,1.404,0.066,1.996
	C107.794,49.577,107.367,49.761,106.938,49.761z"/>
<path fill="#6088A0" d="M49.742,47.207c-0.44,0-0.876-0.193-1.172-0.563c-0.505-0.631-0.417-1.545,0.188-2.07
	c0.59-0.518,1.489-0.497,2.051,0.066c0.586,0.585,0.586,1.536,0,2.121c-0.039,0.039-0.087,0.083-0.131,0.117
	C50.402,47.1,50.071,47.207,49.742,47.207z"/>
<path fill="#6088A0" d="M100.963,44.613c-0.324,0-0.648-0.104-0.918-0.313c-0.625-0.476-0.779-1.362-0.338-2.024
	c0.459-0.688,1.389-0.875,2.08-0.416c0.082,0.055,0.167,0.124,0.236,0.193c0.586,0.585,0.586,1.536,0,2.121
	C101.73,44.467,101.347,44.613,100.963,44.613z"/>
<path fill="#6088A0" d="M56.15,42.611c-0.55,0-1.08-0.304-1.342-0.83c-0.354-0.707-0.097-1.56,0.571-1.958
	c0.634-0.387,1.473-0.251,1.95,0.345c0.518,0.647,0.413,1.591-0.234,2.108c-0.083,0.066-0.18,0.128-0.274,0.175
	C56.605,42.56,56.376,42.611,56.15,42.611z"/>
<path fill="#6088A0" d="M94.124,40.687c-0.157,0-0.317-0.025-0.475-0.078c-0.067-0.022-0.142-0.053-0.205-0.085
	c-0.741-0.371-1.041-1.271-0.671-2.013c0.359-0.719,1.219-1.023,1.945-0.703c0.708,0.305,1.076,1.107,0.828,1.852
	C95.338,40.29,94.752,40.687,94.124,40.687z"/>
<path fill="#6088A0" d="M63.311,39.311c-0.628,0-1.213-0.397-1.423-1.026c-0.257-0.771,0.147-1.603,0.905-1.882
	c0.744-0.281,1.588,0.073,1.906,0.813c0.326,0.761-0.026,1.643-0.788,1.97c-0.038,0.016-0.086,0.034-0.126,0.047
	C63.628,39.286,63.468,39.311,63.311,39.311z"/>
<path fill="#6088A0" d="M86.666,38.131c-0.062,0-0.125-0.004-0.188-0.012c-0.098-0.012-0.204-0.037-0.298-0.068
	c-0.785-0.262-1.21-1.111-0.948-1.897c0.249-0.749,1.029-1.166,1.782-0.982c0.734,0.175,1.234,0.879,1.139,1.645
	C88.058,37.576,87.411,38.131,86.666,38.131z"/>
<path fill="#6088A0" d="M78.856,37.041c-0.029,0-0.059,0-0.088-0.002c-0.793-0.04-1.424-0.695-1.424-1.498
	c0-0.891,0.805-1.602,1.696-1.488c0.821,0.103,1.404,0.853,1.302,1.674C80.248,36.485,79.602,37.041,78.856,37.041z"/>
<path fill="#6088A0" d="M70.993,37.43c-0.029,0-0.059,0-0.088-0.002c-0.793-0.04-1.424-0.695-1.424-1.498
	c0-0.891,0.805-1.602,1.696-1.488c0.821,0.103,1.404,0.853,1.302,1.674C72.384,36.875,71.738,37.43,70.993,37.43z"/>
<g>
	<path fill="#6088A0" d="M75.714,88.77L75.714,88.77c-1.433,0-2.594-1.161-2.594-2.594v-1.853c0-1.383,0.16-2.631,0.481-3.743
		c0.321-1.111,0.766-2.112,1.335-3.002c0.567-0.89,1.21-1.691,1.927-2.408c0.716-0.716,1.445-1.42,2.187-2.112l2.075-1.854
		c1.234-0.987,2.261-2.124,3.076-3.409c0.815-1.284,1.223-2.891,1.223-4.818c0-1.382-0.248-2.618-0.741-3.705
		c-0.494-1.087-1.161-2.002-2.001-2.743c-0.841-0.741-1.816-1.309-2.928-1.704c-1.112-0.396-2.311-0.593-3.595-0.593
		c-2.668,0-4.831,0.814-6.485,2.445c-1.181,1.163-2.041,2.551-2.58,4.166c-0.391,1.171-1.597,1.867-2.813,1.652v0
		c-1.536-0.271-2.478-1.866-1.947-3.332c0.915-2.528,2.349-4.604,4.301-6.228c2.643-2.197,5.893-3.298,9.747-3.298
		c1.976,0,3.841,0.285,5.596,0.853c1.753,0.568,3.272,1.408,4.558,2.52c1.285,1.112,2.31,2.483,3.076,4.114
		c0.766,1.63,1.149,3.483,1.149,5.559c0,1.582-0.174,2.965-0.52,4.15s-0.828,2.249-1.445,3.188
		c-0.618,0.938-1.347,1.791-2.187,2.557c-0.841,0.767-1.729,1.545-2.668,2.335c-1.038,0.841-1.915,1.606-2.631,2.298
		c-0.717,0.692-1.298,1.421-1.742,2.187c-0.444,0.767-0.767,1.619-0.964,2.557c-0.197,0.939-0.296,2.075-0.296,3.409v0.816
		C78.309,87.608,77.147,88.77,75.714,88.77z M80.235,99.442c0,1.037-0.37,1.964-1.111,2.779s-1.705,1.223-2.891,1.223
		c-1.187,0-2.149-0.407-2.891-1.223s-1.112-1.742-1.112-2.779c0-1.038,0.371-1.964,1.112-2.779s1.704-1.224,2.891-1.224
		c1.186,0,2.149,0.408,2.891,1.224S80.235,98.404,80.235,99.442z"/>
</g>
</svg>
