<?xml version="1.0" encoding="utf-8"?>
<!-- Generator: Adobe Illustrator 19.1.0, SVG Export Plug-In . SVG Version: 6.00 Build 0)  -->
<!DOCTYPE svg PUBLIC "-//W3C//DTD SVG 1.1//EN" "http://www.w3.org/Graphics/SVG/1.1/DTD/svg11.dtd">
<svg version="1.1" id="Layer_1" xmlns="http://www.w3.org/2000/svg" xmlns:xlink="http://www.w3.org/1999/xlink" x="0px" y="0px"
	 viewBox="-293 385 24 24" style="enable-background:new -293 385 24 24;" xml:space="preserve">
<style type="text/css">
	.st0{fill:#DCDCDC;}
	.st1{fill:#627783;}
</style>
<g id="New_Symbol_22">
	<circle class="st0" cx="-281" cy="397" r="12"/>
	<path class="st1" d="M-278.9,397l2.8-2.8c0.6-0.6,0.6-1.5,0-2.1s-1.5-0.6-2.1,0l-2.8,2.8l-2.8-2.8c-0.6-0.6-1.5-0.6-2.1,0
		s-0.6,1.5,0,2.1l2.8,2.8l-2.8,2.8c-0.6,0.6-0.6,1.5,0,2.1c0.3,0.3,0.7,0.4,1.1,0.4s0.8-0.1,1.1-0.4l2.8-2.8l2.8,2.8
		c0.3,0.3,0.7,0.4,1.1,0.4s0.8-0.1,1.1-0.4c0.6-0.6,0.6-1.5,0-2.1L-278.9,397z"/>
</g>
</svg>
