<?xml version="1.0" encoding="utf-8"?>
<!-- Generator: Adobe Illustrator 19.1.0, SVG Export Plug-In . SVG Version: 6.00 Build 0)  -->
<!DOCTYPE svg PUBLIC "-//W3C//DTD SVG 1.1//EN" "http://www.w3.org/Graphics/SVG/1.1/DTD/svg11.dtd">
<svg version="1.1" id="Layer_1" xmlns="http://www.w3.org/2000/svg" xmlns:xlink="http://www.w3.org/1999/xlink" x="0px" y="0px"
	 viewBox="0 0 42 42" style="enable-background:new 0 0 42 42;" xml:space="preserve">
<style type="text/css">
	.st0{fill:#DCDCDC;}
	.st1{fill:#0072AA;}
	.st2{fill:#666666;}
	.st3{fill:#FFFFFF;}
</style>
<g>
	<g>
		<g>
			<g>
				<path class="st0" d="M21,1c11,0,20,9,20,20s-9,20-20,20S1,32,1,21S10,1,21,1 M21,0C9.4,0,0,9.4,0,21s9.4,21,21,21s21-9.4,21-21
					S32.6,0,21,0L21,0z"/>
			</g>
		</g>
	</g>
	<g>
		<path class="st1" d="M22.2,18.8c1.5-1,2.8-1.9,2.8-3.6c0-1.6-1.3-3.1-3.9-3.1c-2.5,0-4,1.1-5.2,2.7L14.2,13c1.6-2,4-3.4,7.2-3.4
			c4,0,6.5,2.3,6.5,5.1c0,2.8-1.9,4.1-3.7,5.3c-1.4,1-2.7,1.8-2.7,3.3c0,0.5,0.3,1.2,0.9,1.6l-2,0.9c-0.9-0.8-1.3-1.7-1.3-2.7
			C19,21,20.7,19.9,22.2,18.8z M21,28.7c1,0,1.8,0.8,1.8,1.8S22,32.3,21,32.3s-1.8-0.8-1.8-1.8S20,28.7,21,28.7z"/>
	</g>
</g>
</svg>
