<?xml version="1.0" encoding="utf-8"?>
<!-- Generator: Adobe Illustrator 18.1.0, SVG Export Plug-In . SVG Version: 6.00 Build 0)  -->
<!DOCTYPE svg PUBLIC "-//W3C//DTD SVG 1.1//EN" "http://www.w3.org/Graphics/SVG/1.1/DTD/svg11.dtd">
<svg version="1.1" id="Layer_1" xmlns="http://www.w3.org/2000/svg" xmlns:xlink="http://www.w3.org/1999/xlink" x="0px" y="0px"
	 viewBox="0 0 32 32" enable-background="new 0 0 32 32" xml:space="preserve">
<g id="Ppt">
</g>
<g id="Small_Folder">
</g>
<g>
	<g>
		<g>
			<path fill="#B36601" d="M1.5,27.5V6.513c0-1.11,0.897-2.013,2-2.013h7.897c0.467,0,0.936,0.167,1.319,0.472l3.668,3.239
				C16.646,8.417,16.819,8.5,17,8.5h10.5c1.103,0,2,0.897,2,2v17H1.5z"/>
			<g>
				<path fill="#FFFFFF" d="M11.397,5c0.366,0,0.722,0.136,1.009,0.364l3.648,3.222C16.341,8.813,16.634,9,17,9h10.5
					c0.828,0,1.5,0.672,1.5,1.5V27H2V6.513C2,5.684,2.672,5,3.5,5H11.397 M11.397,4H3.5C2.121,4,1,5.127,1,6.513V27v1h1h27h1v-1
					V10.5C30,9.122,28.878,8,27.5,8H17c-0.027,0-0.102-0.024-0.305-0.183l-3.626-3.203l-0.02-0.018L13.027,4.58
					C12.555,4.206,11.976,4,11.397,4L11.397,4z"/>
			</g>
		</g>
	</g>
	<g>
		<path fill="#E3992E" d="M3,26h25V12c0-0.552-0.448-1-1-1H4c-0.552,0-1,0.448-1,1V26z"/>
	</g>
	<g>
		<polygon fill="#DD8100" points="3,26 28,26 28,13 		"/>
	</g>
</g>
<g id="fave_icon_-_selected">
</g>
</svg>
