<?xml version="1.0" encoding="utf-8"?>
<!-- Generator: Adobe Illustrator 19.1.0, SVG Export Plug-In . SVG Version: 6.00 Build 0)  -->
<svg version="1.1" xmlns="http://www.w3.org/2000/svg" xmlns:xlink="http://www.w3.org/1999/xlink" x="0px" y="0px"
	 viewBox="0 0 32 32" enable-background="new 0 0 32 32" xml:space="preserve">
<g id="Layer_2">
</g>
<g id="Layer_1">
</g>
<g id="Layer_3">
</g>
<g id="Layer_4">
</g>
<g id="Layer_5">
	<g>
		<g>
			<path fill="#4A5962" d="M14.672,11.609h5.782V4.525c0-1.72-1.407-3.127-3.127-3.127H4.589c-1.72,0-3.127,1.407-3.127,3.127
				v12.739c0,1.72,1.407,3.127,3.127,3.127h6.957v-5.655C11.546,13.016,12.953,11.609,14.672,11.609z"/>
			<path fill="#FFFFFF" d="M17.328,1.399c1.72,0,3.127,1.407,3.127,3.127v7.084h-5.782c-1.72,0-3.127,1.407-3.127,3.127v5.655H4.589
				c-1.72,0-3.127-1.407-3.127-3.127V4.525c0-1.72,1.407-3.127,3.127-3.127H17.328 M17.328,0.399H4.589
				c-2.275,0-4.127,1.851-4.127,4.127v12.739c0,2.275,1.851,4.127,4.127,4.127h6.957h1v-1v-5.655c0-1.173,0.954-2.127,2.127-2.127
				h5.782h1v-1V4.525C21.454,2.25,19.603,0.399,17.328,0.399L17.328,0.399z"/>
		</g>
		<g>
			<path fill="#7B9AB0" d="M27.411,11.609h-6.957v5.655c0,1.72-1.407,3.127-3.127,3.127h-5.782v7.084
				c0,1.72,1.407,3.127,3.127,3.127h12.739c1.72,0,3.127-1.407,3.127-3.127V14.736C30.538,13.016,29.131,11.609,27.411,11.609z"/>
			<path fill="#FFFFFF" d="M27.411,11.609c1.72,0,3.127,1.407,3.127,3.127v12.739c0,1.72-1.407,3.127-3.127,3.127H14.672
				c-1.72,0-3.127-1.407-3.127-3.127v-7.084h5.782c1.72,0,3.127-1.407,3.127-3.127v-5.655H27.411 M27.411,10.609h-6.957h-1v1v5.655
				c0,1.173-0.954,2.127-2.127,2.127h-5.782h-1v1v7.084c0,2.275,1.851,4.127,4.127,4.127h12.739c2.275,0,4.127-1.851,4.127-4.127
				V14.736C31.538,12.46,29.687,10.609,27.411,10.609L27.411,10.609z"/>
		</g>
		<g>
			<path fill="#627783" d="M20.454,17.264v-5.655h-5.782c-1.72,0-3.127,1.407-3.127,3.127v5.655h5.782
				C19.047,20.391,20.454,18.984,20.454,17.264z"/>
			<path fill="#FFFFFF" d="M20.454,11.609v5.655c0,1.72-1.407,3.127-3.127,3.127h-5.782v-5.655c0-1.72,1.407-3.127,3.127-3.127
				H20.454 M21.454,10.609h-1h-5.782c-2.275,0-4.127,1.851-4.127,4.127v5.655v1h1h5.782c2.276,0,4.127-1.851,4.127-4.127v-5.655
				V10.609L21.454,10.609z"/>
		</g>
	</g>
</g>
<g id="Layer_7">
</g>
</svg>
