<?xml version="1.0" encoding="utf-8"?>
<!-- Generator: Adobe Illustrator 21.0.2, SVG Export Plug-In . SVG Version: 6.00 Build 0)  -->
<svg version="1.1" id="Layer_1" xmlns="http://www.w3.org/2000/svg" xmlns:xlink="http://www.w3.org/1999/xlink" x="0px" y="0px"
	 viewBox="0 0 16 16" style="enable-background:new 0 0 16 16;" xml:space="preserve">
<style type="text/css">
	.st0{fill:#627783;}
	.st1{opacity:0.3;fill:#627783;}
	.st2{fill:#FFFFFF;}
</style>
<g>
	<path class="st0" d="M16,10.2c0,0.6-0.1,1.4-0.5,1.8l-3.6,3.5C11.5,15.9,11,16,10.4,16H1.5C1,16,0,15.1,0,14.5v-13C0,0.9,1,0,1.5,0
		h12.9C15.1,0,16,0.9,16,1.5V10.2z"/>
	<path class="st1" d="M11,9H2v6h9V9z M6,10h4v4H6V10z"/>
	<path class="st2" d="M11,8H2v6h9V8z M6,9h4v4H6V9z"/>
</g>
</svg>
