<?xml version="1.0" encoding="utf-8"?>
<!-- Generator: Adobe Illustrator 20.1.0, SVG Export Plug-In . SVG Version: 6.00 Build 0)  -->
<svg version="1.1" id="Layer_1" xmlns="http://www.w3.org/2000/svg" xmlns:xlink="http://www.w3.org/1999/xlink" x="0px" y="0px"
	 viewBox="0 0 32 32" style="enable-background:new 0 0 32 32;" xml:space="preserve">
<style type="text/css">
	.st0{fill:#333333;}
	.st1{fill:#FFFFFF;}
</style>
<title>Artboard 2 copy 2</title>
<circle class="st0" cx="24" cy="25" r="7"/>
<path class="st1" d="M27,24h-2v-2c0-0.6-0.4-1-1-1s-1,0.4-1,1v2h-2c-0.6,0-1,0.4-1,1s0.4,1,1,1h2v2c0,0.6,0.4,1,1,1s1-0.4,1-1v-2h2
	c0.6,0,1-0.4,1-1S27.6,24,27,24z"/>
<g>
	<path class="st0" d="M15.5,25c0-2.417,1.019-4.597,2.645-6.146c-0.38-0.177-0.712-0.429-0.988-0.755
		c-0.15-0.179-0.286-0.388-0.408-0.619l-0.188-0.361l0.317-0.259c0.476-0.39,0.892-0.867,1.237-1.42
		c0.486-0.773,0.849-1.711,1.078-2.791l0.063-0.295l0.29-0.082c0.134-0.039,0.288-0.168,0.422-0.358
		c0.186-0.265,0.325-0.621,0.397-1.009c0.097-0.538,0.043-1.069-0.141-1.389L20.12,9.339l0.052-0.198
		c0.021-0.079,0.038-0.159,0.055-0.241c0.106-0.529,0.141-1.152,0.104-1.845c-0.064-1.196-0.318-2.183-0.322-2.194
		c-0.24-0.958-0.967-1.924-1.997-2.656C17.177,1.608,15.758,0.9,13.754,0.9c-2.005,0-3.423,0.708-4.258,1.302
		C8.468,2.935,7.738,3.899,7.5,4.852C7.495,4.868,7.238,5.857,7.171,7.055C7.134,7.751,7.168,8.373,7.273,8.902
		c0.016,0.081,0.034,0.159,0.054,0.234l0.052,0.2L7.273,9.514c-0.186,0.315-0.24,0.849-0.143,1.391
		c0.07,0.39,0.211,0.749,0.399,1.012c0.134,0.188,0.286,0.316,0.422,0.354l0.293,0.08l0.063,0.299
		c0.229,1.075,0.592,2.015,1.078,2.79c0.347,0.553,0.765,1.03,1.245,1.423l0.315,0.261l-0.19,0.361
		c-0.118,0.225-0.254,0.431-0.404,0.61c-0.281,0.338-0.624,0.597-1.021,0.776c-0.646,0.29-1.522,0.458-2.448,0.635
		c-1.064,0.204-2.266,0.433-3.242,0.88c-1.066,0.49-1.715,1.178-1.989,2.105c-0.501,1.697-0.687,3.451-0.646,5.218
		C1.038,28.993,2.064,30,3.296,30h13.845C16.114,28.595,15.5,26.87,15.5,25z"/>
</g>
</svg>
