<svg xmlns="http://www.w3.org/2000/svg" viewBox="0 0 24 24"><title>chat24_mo</title><path d="M0,9.8v6.4A3.811,3.811,0,0,0,3.8,20H4v3.63a.407.407,0,0,0,.42.41.393.393,0,0,0,.34-.18L7.33,20H13.2a3.78,3.78,0,0,0,2.6-1.04.6.6,0,0,0,.08-.08.44.44,0,0,0,.15-.35.5.5,0,0,0-.5-.5.44.44,0,0,0-.35.15.234.234,0,0,0-.07.07A2.816,2.816,0,0,1,13.2,19H6.79l-.29.45L5,21.7V19H3.8A2.808,2.808,0,0,1,1,16.2V9.8A2.808,2.808,0,0,1,3.8,7H4v5a4.012,4.012,0,0,0,4,4h7.71l3.44,4.81a.47.47,0,0,0,.85-.27V16a4.012,4.012,0,0,0,4-4V5a4.012,4.012,0,0,0-4-4H8A4.012,4.012,0,0,0,4,5V6H3.8A3.811,3.811,0,0,0,0,9.8Z" fill="#627783"/></svg>