<?xml version="1.0" encoding="utf-8"?>
<!-- Generator: Adobe Illustrator 22.0.1, SVG Export Plug-In . SVG Version: 6.00 Build 0)  -->
<svg version="1.1" id="Layer_1" xmlns="http://www.w3.org/2000/svg" xmlns:xlink="http://www.w3.org/1999/xlink" x="0px" y="0px"
	 viewBox="0 0 20 20" style="enable-background:new 0 0 20 20;" xml:space="preserve">
<style type="text/css">
	.st0{fill:#CDE4E5;}
</style>
<title>close_profile20</title>
<path class="st0" d="M11.4,10l8.3-8.3c0.4-0.4,0.4-1,0-1.4s-1-0.4-1.4,0L10,8.6L1.7,0.3c-0.4-0.4-1-0.4-1.4,0s-0.4,1,0,1.4L8.6,10
	l-8.3,8.3c-0.4,0.4-0.4,1,0,1.4s1,0.4,1.4,0l0,0l8.3-8.3l8.3,8.3c0.4,0.4,1,0.4,1.4,0s0.4-1,0-1.4L11.4,10z"/>
</svg>
