<?xml version="1.0" encoding="utf-8"?>
<!-- Generator: Adobe Illustrator 17.1.0, SVG Export Plug-In . SVG Version: 6.00 Build 0)  -->
<!DOCTYPE svg PUBLIC "-//W3C//DTD SVG 1.1//EN" "http://www.w3.org/Graphics/SVG/1.1/DTD/svg11.dtd">
<svg version="1.1" xmlns="http://www.w3.org/2000/svg" xmlns:xlink="http://www.w3.org/1999/xlink" x="0px" y="0px"
	 viewBox="0 0 32 32" enable-background="new 0 0 32 32" xml:space="preserve">
<g id="mo" display="none">
	<g display="inline">
		<rect fill="#DFE7EA" width="32" height="32"/>
	</g>
</g>
<g id="md" display="none">
	<g display="inline">
		<rect fill="#BAC9CE" width="32" height="32"/>
	</g>
</g>
<g id="Layer_2">
	<polygon fill="#333333" points="31.912,29.967 27.669,25.724 32,21.393 29.923,19.316 25.592,23.647 21.305,19.36 19.272,21.393 
		23.559,25.68 19.316,29.923 21.393,32 25.636,27.757 29.879,32 	"/>
	<path fill="#333333" d="M-37.151,34.734c-0.117-0.791-1.196-1.463-2.231-1.948c0.001-0.001,0.003-0.003,0.004-0.004
		c-0.016-0.005-0.035-0.012-0.051-0.019c-0.841-0.391-1.641-0.656-1.859-0.759c-0.381-0.18-0.759-0.731-0.908-1.039
		c-0.028-0.079-0.053-0.148-0.071-0.2c-0.001-0.047-0.021-0.127-0.047-0.224c-0.012-0.179-0.015-0.524,0.123-0.729
		c0.031-0.047,0.092-0.28,0.16-0.567c0.116-0.356,0.179-0.74,0.179-0.74s0.151-0.345,0.452-0.768c0.3-0.423,0.299-1.496,0.037-1.461
		c-0.044,0.005-0.065,0.028-0.095,0.045c-0.032-0.031-0.065-0.048-0.097-0.059c0.008-0.103,0.021-0.233,0.041-0.331
		c0.084-0.392,0.127-2.389,0.089-2.619c-0.037-0.231-0.296-0.707-1.044-1.052c-0.116-0.053-0.476-0.128-0.9-0.184
		c-0.227-0.039-0.475-0.068-0.773-0.076c-0.061-0.003-0.128-0.001-0.193,0c-0.065-0.001-0.132-0.003-0.193-0.001
		c-0.299,0.008-0.547,0.037-0.773,0.076c-0.423,0.056-0.784,0.129-0.9,0.183c-0.747,0.347-1.005,0.821-1.043,1.053
		c-0.037,0.231,0.005,2.227,0.089,2.619c0.02,0.097,0.033,0.229,0.041,0.332c-0.032,0.011-0.065,0.028-0.097,0.059
		c-0.029-0.017-0.051-0.04-0.095-0.045c-0.261-0.035-0.264,1.039,0.037,1.461s0.451,0.768,0.451,0.768s0.064,0.384,0.179,0.74
		c0.068,0.287,0.129,0.521,0.161,0.567c0.137,0.205,0.135,0.551,0.123,0.729c-0.025,0.097-0.045,0.179-0.047,0.224
		c-0.019,0.052-0.043,0.121-0.071,0.2c-0.149,0.308-0.528,0.859-0.909,1.039c-0.217,0.103-1.019,0.368-1.859,0.759
		c-0.016,0.007-0.035,0.013-0.051,0.019c0.001,0.001,0.003,0.003,0.004,0.004c-1.035,0.485-2.115,1.157-2.231,1.948
		c-0.104,0.701-0.151,1.384-0.151,1.384c0,1.039,0.821,1.881,1.833,1.881h11c1.012,0,1.833-0.843,1.833-1.881
		C-37,36.118-37.047,35.435-37.151,34.734z"/>
	<polygon fill="#333333" points="32,45.125 26,45.125 26,39 23.063,39 23.063,45.125 17,45.125 17,48 23.063,48 23.063,54 26,54 
		26,48 32,48 	"/>
	<path fill="#333333" d="M17,62.336v-3.145c1.792-1.038,3-2.971,3-5.191v-5h-4v-2v-2.875v-0.77C15.374,43.131,14.704,43,14,43
		c-3.314,0-6,2.686-6,6v5c0,2.22,1.208,4.153,3,5.191v3.145C4.742,63.209,0.05,66.75,0.004,71h27.991
		C27.95,66.75,23.258,63.209,17,62.336z"/>
	<path fill="#333333" d="M17.858,21.394l1.564-1.564c-0.775-0.208-1.583-0.377-2.422-0.494v-3.145
		c0.218-0.127,0.427-0.267,0.627-0.419c0.009-0.007,0.018-0.013,0.027-0.02c0.398-0.306,0.756-0.66,1.066-1.055
		c0.015-0.019,0.029-0.04,0.044-0.059c0.132-0.172,0.253-0.351,0.366-0.537c0.021-0.035,0.044-0.07,0.064-0.106
		c0.239-0.414,0.431-0.859,0.566-1.328c0.017-0.06,0.031-0.12,0.047-0.181c0.045-0.177,0.082-0.357,0.111-0.541
		c0.011-0.069,0.023-0.137,0.031-0.206C19.98,11.496,20,11.25,20,11V6c0-2.959-2.144-5.412-4.963-5.904
		c-0.008-0.001-0.016-0.002-0.023-0.004C14.684,0.036,14.346,0,14,0c-3.314,0-6,2.686-6,6v5c0,0.25,0.02,0.496,0.05,0.738
		c0.009,0.069,0.021,0.137,0.031,0.206c0.029,0.183,0.066,0.363,0.111,0.541c0.016,0.06,0.029,0.121,0.047,0.181
		c0.135,0.469,0.327,0.914,0.566,1.328c0.021,0.036,0.043,0.07,0.064,0.106c0.113,0.186,0.235,0.365,0.366,0.537
		c0.015,0.02,0.029,0.04,0.044,0.059c0.31,0.395,0.668,0.749,1.066,1.055c0.009,0.007,0.018,0.013,0.027,0.02
		c0.2,0.152,0.409,0.293,0.627,0.419v3.145C4.742,20.209,0.05,23.75,0.004,28h19.821l2.319-2.319L17.858,21.394z"/>
</g>
</svg>
