<svg xmlns="http://www.w3.org/2000/svg" viewBox="0 0 116 116"><title>user_profile116</title><path d="M58,2A56,56,0,1,1,2,58,56.063,56.063,0,0,1,58,2m0-2a58,58,0,1,0,58,58A58,58,0,0,0,58,0Z" fill="#fff"/><path d="M18.3,89.344a10.862,10.862,0,0,1,6.269-6.687,46.221,46.221,0,0,1,10.865-2.925,34.714,34.714,0,0,0,8.358-2.09,9.824,9.824,0,0,0,5.015-5.015l.836-1.671L47.97,69.7a21.929,21.929,0,0,1-4.179-4.6,47.031,47.031,0,0,1-3.343-9.194l-.418-1.253-1.254-.418-.835-.836a9.979,9.979,0,0,1-1.254-2.925A6.073,6.073,0,0,1,37.1,46.3l.418-.418L37.1,44.21a25.673,25.673,0,0,1-.418-5.85c.418-3.344,1.254-6.687,1.254-7.1A14.387,14.387,0,0,1,44.209,22.9,24.357,24.357,0,0,1,58,18.718,21.525,21.525,0,0,1,71.791,22.9a14.934,14.934,0,0,1,6.268,8.358,60.638,60.638,0,0,1,1.254,7.105,25.73,25.73,0,0,1-.418,5.85l-.418,1.672.418.836a6.078,6.078,0,0,1,.418,4.179c-.418.835-.836,2.089-1.254,2.925-.418.418-.418.836-.836.836l-1.253.418-.418,1.253a20.089,20.089,0,0,1-3.344,9.194,21.875,21.875,0,0,1-4.179,4.6l-1.671,1.254,1.671,1.671c0,.836.836,1.254,1.254,2.09a22.989,22.989,0,0,0,3.761,2.925A34.726,34.726,0,0,0,81.4,80.15,97.5,97.5,0,0,1,91.85,83.075a10.864,10.864,0,0,1,6.268,6.686c.381,1.057.694,2.133.973,3.217a54,54,0,1,0-81.8.442C17.586,92.052,17.912,90.69,18.3,89.344Z" fill="#fff"/></svg>