<?xml version="1.0" encoding="utf-8"?>
<!-- Generator: Adobe Illustrator 23.0.0, SVG Export Plug-In . SVG Version: 6.00 Build 0)  -->
<svg version="1.1" id="Layer_1" xmlns="http://www.w3.org/2000/svg"
xmlns:xlink="http://www.w3.org/1999/xlink" x="0px" y="0px" viewBox="0 0 32 32" style="enable-background:new 0 0 32 32;"
xml:space="preserve">

  <style>
    g {
      display: none;
    }
    g#empty_comment_default:target,
    g#empty_comment_hover:target,
    g#empty_comment_active:target,
    g#non_empty_comment_default:target,
    g#non_empty_comment_hover:target,
    g#non_empty_comment_active:target,
    g#dark_empty_comment_default:target,
    g#dark_empty_comment_hover:target,
    g#dark_empty_comment_active:target,
    g#dark_non_empty_comment_default:target,
    g#dark_non_empty_comment_hover:target,
    g#dark_non_empty_comment_active:target {
      display: inline;
    }
  </style>

<g id="empty_comment_default">
  <circle fill="none" cx="16" cy="16" r="14"></circle>
  <path class="csui-comment-svg empty-comment-default" fill="#333333" d="M12.259 23.75v-2.955c-2.066 0-3.741-1.654-3.741-3.694v-2.956c0-2.04 1.675-3.694 3.741-3.694h7.481c2.066 0 3.741 1.654 3.741 3.694V17.1c0 2.04-1.675 3.694-3.741 3.694h-4.489l-2.992 2.956zm3.609-1.455h3.873c2.877 0 5.241-2.308 5.241-5.194v-2.956c0-2.886-2.364-5.194-5.241-5.194H12.26c-2.877 0-5.241 2.308-5.241 5.194V17.1c0 2.364 1.586 4.34 3.741 4.978v1.672a1.499 1.499 0 002.554 1.067l2.554-2.522z"/>
</g>

<g id="empty_comment_hover">
  <circle fill="#f3fbff" cx="16" cy="16" r="14"></circle>
  <path class="csui-comment-svg empty-comment-default" fill="#627783" d="M12.259 23.75v-2.955c-2.066 0-3.741-1.654-3.741-3.694v-2.956c0-2.04 1.675-3.694 3.741-3.694h7.481c2.066 0 3.741 1.654 3.741 3.694V17.1c0 2.04-1.675 3.694-3.741 3.694h-4.489l-2.992 2.956zm3.609-1.455h3.873c2.877 0 5.241-2.308 5.241-5.194v-2.956c0-2.886-2.364-5.194-5.241-5.194H12.26c-2.877 0-5.241 2.308-5.241 5.194V17.1c0 2.364 1.586 4.34 3.741 4.978v1.672a1.499 1.499 0 002.554 1.067l2.554-2.522z"/>
</g>

<g id="empty_comment_active">
  <circle fill="#cccccc" cx="16" cy="16" r="14"></circle>
  <path class="csui-comment-svg empty-comment-active" fill="#666666" d="M12.259 23.75v-2.955c-2.066 0-3.741-1.654-3.741-3.694v-2.956c0-2.04 1.675-3.694 3.741-3.694h7.481c2.066 0 3.741 1.654 3.741 3.694V17.1c0 2.04-1.675 3.694-3.741 3.694h-4.489l-2.992 2.956zm3.609-1.455h3.873c2.877 0 5.241-2.308 5.241-5.194v-2.956c0-2.886-2.364-5.194-5.241-5.194H12.26c-2.877 0-5.241 2.308-5.241 5.194V17.1c0 2.364 1.586 4.34 3.741 4.978v1.672a1.499 1.499 0 002.554 1.067l2.554-2.522z"/>
</g>

<g id="non_empty_comment_default">
  <circle fill="none" cx="16" cy="16" r="14"></circle>
  <path class="csui-comment-svg empty-comment-default" fill="#333333" d="M19.741 22.295h-3.873l-2.554 2.523a1.5 1.5 0 01-2.554-1.067v-1.672c-2.155-.639-3.741-2.615-3.741-4.979v-2.956c0-2.886 2.364-5.194 5.241-5.194h7.481c2.877 0 5.241 2.308 5.241 5.194V17.1c-.001 2.886-2.365 5.195-5.241 5.195z"/>
</g>

<g id="non_empty_comment_hover">
  <circle fill="#f3fbff" cx="16" cy="16" r="14"></circle>
  <path class="csui-comment-svg empty-comment-default" fill="#627783" d="M19.741 22.295h-3.873l-2.554 2.523a1.5 1.5 0 01-2.554-1.067v-1.672c-2.155-.639-3.741-2.615-3.741-4.979v-2.956c0-2.886 2.364-5.194 5.241-5.194h7.481c2.877 0 5.241 2.308 5.241 5.194V17.1c-.001 2.886-2.365 5.195-5.241 5.195z"/>
</g>

<g id="non_empty_comment_active">
  <circle fill="#cccccc" cx="16" cy="16" r="14"></circle>
  <path class="csui-comment-svg empty-comment-active" fill="#666666" d="M19.741 22.295h-3.873l-2.554 2.523a1.5 1.5 0 01-2.554-1.067v-1.672c-2.155-.639-3.741-2.615-3.741-4.979v-2.956c0-2.886 2.364-5.194 5.241-5.194h7.481c2.877 0 5.241 2.308 5.241 5.194V17.1c-.001 2.886-2.365 5.195-5.241 5.195z"/>
</g>

<g id="dark_empty_comment_default">
  <circle fill="none" cx="16" cy="16" r="14"></circle>
  <path class="csui-comment-svg empty-comment-default" fill="#ffffff" d="M12.259 23.75v-2.955c-2.066 0-3.741-1.654-3.741-3.694v-2.956c0-2.04 1.675-3.694 3.741-3.694h7.481c2.066 0 3.741 1.654 3.741 3.694V17.1c0 2.04-1.675 3.694-3.741 3.694h-4.489l-2.992 2.956zm3.609-1.455h3.873c2.877 0 5.241-2.308 5.241-5.194v-2.956c0-2.886-2.364-5.194-5.241-5.194H12.26c-2.877 0-5.241 2.308-5.241 5.194V17.1c0 2.364 1.586 4.34 3.741 4.978v1.672a1.499 1.499 0 002.554 1.067l2.554-2.522z"/>
</g>

<g id="dark_empty_comment_hover">
  <circle fill="#f3fbff" cx="16" cy="16" r="14"></circle>
  <path class="csui-comment-svg empty-comment-default" fill="#333333" d="M12.259 23.75v-2.955c-2.066 0-3.741-1.654-3.741-3.694v-2.956c0-2.04 1.675-3.694 3.741-3.694h7.481c2.066 0 3.741 1.654 3.741 3.694V17.1c0 2.04-1.675 3.694-3.741 3.694h-4.489l-2.992 2.956zm3.609-1.455h3.873c2.877 0 5.241-2.308 5.241-5.194v-2.956c0-2.886-2.364-5.194-5.241-5.194H12.26c-2.877 0-5.241 2.308-5.241 5.194V17.1c0 2.364 1.586 4.34 3.741 4.978v1.672a1.499 1.499 0 002.554 1.067l2.554-2.522z"/>
</g>

<g id="dark_empty_comment_active">
  <circle fill="#cccccc" cx="16" cy="16" r="14"></circle>
  <path class="csui-comment-svg empty-comment-default" fill="#666666" d="M12.259 23.75v-2.955c-2.066 0-3.741-1.654-3.741-3.694v-2.956c0-2.04 1.675-3.694 3.741-3.694h7.481c2.066 0 3.741 1.654 3.741 3.694V17.1c0 2.04-1.675 3.694-3.741 3.694h-4.489l-2.992 2.956zm3.609-1.455h3.873c2.877 0 5.241-2.308 5.241-5.194v-2.956c0-2.886-2.364-5.194-5.241-5.194H12.26c-2.877 0-5.241 2.308-5.241 5.194V17.1c0 2.364 1.586 4.34 3.741 4.978v1.672a1.499 1.499 0 002.554 1.067l2.554-2.522z"/>
</g>

<g id="dark_non_empty_comment_default">
  <circle fill="none" cx="16" cy="16" r="14"></circle>
  <path class="csui-comment-svg empty-comment-default" fill="#ffffff" d="M19.741 22.295h-3.873l-2.554 2.523a1.5 1.5 0 01-2.554-1.067v-1.672c-2.155-.639-3.741-2.615-3.741-4.979v-2.956c0-2.886 2.364-5.194 5.241-5.194h7.481c2.877 0 5.241 2.308 5.241 5.194V17.1c-.001 2.886-2.365 5.195-5.241 5.195z"/>
</g>

<g id="dark_non_empty_comment_hover">
  <circle fill="#f3fbff" cx="16" cy="16" r="14"></circle>
  <path class="csui-comment-svg empty-comment-default" fill="#627783" d="M19.741 22.295h-3.873l-2.554 2.523a1.5 1.5 0 01-2.554-1.067v-1.672c-2.155-.639-3.741-2.615-3.741-4.979v-2.956c0-2.886 2.364-5.194 5.241-5.194h7.481c2.877 0 5.241 2.308 5.241 5.194V17.1c-.001 2.886-2.365 5.195-5.241 5.195z"/>
</g>

<g id="dark_non_empty_comment_active">
  <circle fill="#cccccc" cx="16" cy="16" r="14"></circle>
  <path class="csui-comment-svg empty-comment-active" fill="#666666" d="M19.741 22.295h-3.873l-2.554 2.523a1.5 1.5 0 01-2.554-1.067v-1.672c-2.155-.639-3.741-2.615-3.741-4.979v-2.956c0-2.886 2.364-5.194 5.241-5.194h7.481c2.877 0 5.241 2.308 5.241 5.194V17.1c-.001 2.886-2.365 5.195-5.241 5.195z"/>
</g>

</svg>
