<svg width="220" height="220" viewBox="0 0 220 220" fill="none" xmlns="http://www.w3.org/2000/svg">
<path d="M58.5 164C56.5702 164 55 162.43 55 160.5C55 158.57 56.5702 157 58.5 157C60.4298 157 62 158.57 62 160.5C62 162.43 60.4301 164 58.5 164ZM58.5 158.154C57.2066 158.154 56.1545 159.207 56.1545 160.5C56.1545 161.793 57.2069 162.846 58.5 162.846C59.7931 162.846 60.8455 161.793 60.8455 160.5C60.8457 159.207 59.7934 158.154 58.5 158.154Z" fill="#D7E2E5"/>
<path d="M158.247 91.4594C158.383 92.5361 159.348 93.2948 160.403 93.1541C161.457 93.0133 162.201 92.0263 162.065 90.9496C161.928 89.8729 160.963 89.1141 159.909 89.2549C158.855 89.3957 158.11 90.3827 158.247 91.4594Z" fill="#CFCFCF"/>
<g opacity="0.8">
<path d="M193.185 195.847C193.288 196.655 194.013 197.225 194.805 197.119C195.597 197.013 196.156 196.272 196.054 195.464C195.951 194.655 195.226 194.086 194.434 194.192C193.642 194.297 193.083 195.038 193.185 195.847Z" fill="#9BAFBA"/>
</g>
<g opacity="0.5">
<path d="M67.0945 160.339C77.0878 160.339 85.189 151.98 85.189 141.669C85.189 131.359 77.0878 123 67.0945 123C57.1012 123 49 131.359 49 141.669C49 151.98 57.1012 160.339 67.0945 160.339Z" fill="#D7E2E5"/>
</g>
<path fill-rule="evenodd" clip-rule="evenodd" d="M38.8125 173.269C38.8125 171.449 40.236 169.967 42.0117 169.967C43.7874 169.967 45.2109 171.449 45.2109 173.269C45.2109 175.088 43.7874 176.57 42.0117 176.57C40.236 176.57 38.8125 175.088 38.8125 173.269ZM42.0117 170.917C40.7764 170.917 39.7534 171.953 39.7534 173.269C39.7534 174.585 40.7764 175.62 42.0117 175.62C43.247 175.62 44.2699 174.585 44.2699 173.269C44.2699 171.953 43.247 170.917 42.0117 170.917Z" fill="#B5B5B5"/>
<path d="M42.0117 180.538C42.2705 180.538 42.4822 180.324 42.4822 180.039C42.4822 179.754 42.2705 179.54 42.0117 179.54C41.753 179.54 41.5413 179.754 41.5413 180.039C41.5413 180.3 41.753 180.538 42.0117 180.538Z" fill="#B5B5B5"/>
<path d="M46.9987 178.4C47.1869 178.21 47.1869 177.901 46.9987 177.687C46.8105 177.497 46.5047 177.497 46.3165 177.687C46.1283 177.877 46.1283 178.186 46.3165 178.4C46.5047 178.613 46.8105 178.613 46.9987 178.4Z" fill="#B5B5B5"/>
<path d="M48.5512 173.768C48.81 173.768 49.0217 173.554 49.0217 173.269C49.0217 172.984 48.81 172.77 48.5512 172.77C48.2925 172.77 48.0807 172.984 48.0807 173.269C48.0807 173.53 48.2925 173.768 48.5512 173.768Z" fill="#B5B5B5"/>
<path d="M46.9987 168.827C47.1869 168.637 47.1869 168.328 46.9987 168.114C46.8105 167.924 46.5047 167.924 46.3165 168.114C46.1283 168.304 46.1283 168.613 46.3165 168.827C46.5047 169.017 46.8105 169.017 46.9987 168.827Z" fill="#B5B5B5"/>
<path d="M42.0117 166.998C42.2705 166.998 42.4822 166.784 42.4822 166.499C42.4822 166.214 42.2705 166 42.0117 166C41.753 166 41.5413 166.214 41.5413 166.499C41.5413 166.76 41.753 166.998 42.0117 166.998Z" fill="#B5B5B5"/>
<path d="M37.7305 168.827C37.9187 168.637 37.9187 168.328 37.7305 168.114C37.5423 167.924 37.2365 167.924 37.0483 168.114C36.8601 168.304 36.8601 168.613 37.0483 168.827C37.2365 169.041 37.5423 169.041 37.7305 168.827Z" fill="#B5B5B5"/>
<path d="M35.4723 173.768C35.731 173.768 35.9427 173.554 35.9427 173.269C35.9427 172.984 35.731 172.77 35.4723 172.77C35.2135 172.77 35.0018 172.984 35.0018 173.269C34.9783 173.53 35.19 173.768 35.4723 173.768Z" fill="#B5B5B5"/>
<path d="M37.7305 178.424C37.9187 178.233 37.9187 177.925 37.7305 177.711C37.5423 177.521 37.2365 177.521 37.0483 177.711C36.8601 177.901 36.8601 178.21 37.0483 178.424C37.2365 178.614 37.5423 178.614 37.7305 178.424Z" fill="#B5B5B5"/>
<path opacity="0.93" d="M147.911 91.1583C148.546 91.1583 149.064 90.6595 149.064 90.0181C149.064 89.3768 148.546 88.8779 147.911 88.8779C147.276 88.8779 146.758 89.3768 146.758 90.0181C146.758 90.6595 147.299 91.1583 147.911 91.1583Z" fill="#9BAFBA"/>
<path opacity="0.5" fill-rule="evenodd" clip-rule="evenodd" d="M150.491 86.0392C150.718 86.1659 150.801 86.4549 150.675 86.6847L150.299 87.3735C150.173 87.6033 149.887 87.6867 149.66 87.56C149.432 87.4332 149.35 87.1443 149.475 86.9145L149.851 86.2257C149.977 85.9959 150.263 85.9124 150.491 86.0392Z" fill="#9BAFBA"/>
<path opacity="0.5" fill-rule="evenodd" clip-rule="evenodd" d="M152.612 89.4624C152.644 89.7229 152.46 89.9596 152.202 89.9912L151.426 90.0862C151.168 90.1178 150.933 89.9322 150.902 89.6717C150.871 89.4113 151.054 89.1745 151.312 89.143L152.089 89.0479C152.347 89.0164 152.581 89.2019 152.612 89.4624Z" fill="#9BAFBA"/>
<path opacity="0.5" fill-rule="evenodd" clip-rule="evenodd" d="M150.117 92.1082C150.312 91.9348 150.61 91.954 150.781 92.151L151.299 92.7448C151.47 92.9418 151.451 93.242 151.256 93.4153C151.061 93.5887 150.764 93.5695 150.592 93.3725L150.075 92.7787C149.903 92.5817 149.922 92.2815 150.117 92.1082Z" fill="#9BAFBA"/>
<path opacity="0.5" fill-rule="evenodd" clip-rule="evenodd" d="M147.554 92.8711C147.813 92.8949 148.003 93.126 147.98 93.3873L147.909 94.1712C147.886 94.4325 147.657 94.625 147.398 94.6013C147.139 94.5775 146.949 94.3464 146.972 94.0851L147.043 93.3012C147.066 93.0399 147.295 92.8474 147.554 92.8711Z" fill="#9BAFBA"/>
<path opacity="0.5" fill-rule="evenodd" clip-rule="evenodd" d="M145.326 91.6246C145.461 91.8489 145.39 92.1411 145.168 92.2772L144.509 92.6811C144.287 92.8172 143.998 92.7458 143.863 92.5215C143.728 92.2972 143.799 92.005 144.021 91.8689L144.679 91.4651C144.902 91.3289 145.191 91.4003 145.326 91.6246Z" fill="#9BAFBA"/>
<path opacity="0.5" fill-rule="evenodd" clip-rule="evenodd" d="M143.582 88.5183C143.662 88.2686 143.927 88.1315 144.174 88.212L144.903 88.4496C145.151 88.5301 145.286 88.7979 145.207 89.0476C145.127 89.2973 144.862 89.4344 144.614 89.3539L143.885 89.1163C143.638 89.0358 143.502 88.768 143.582 88.5183Z" fill="#9BAFBA"/>
<path opacity="0.5" fill-rule="evenodd" clip-rule="evenodd" d="M146.377 85.6557C146.619 85.561 146.892 85.6826 146.985 85.9272L147.268 86.6636C147.361 86.9083 147.241 87.1835 146.999 87.2782C146.756 87.3729 146.484 87.2513 146.39 87.0066L146.108 86.2703C146.014 86.0256 146.134 85.7504 146.377 85.6557Z" fill="#9BAFBA"/>
<path d="M12.6707 55.3415C9.54403 55.3415 7 52.7971 7 49.6705C7 46.5439 9.54403 44 12.6707 44C15.7975 44 18.3415 46.5435 18.3415 49.6705C18.3415 52.7976 15.7979 55.3415 12.6707 55.3415ZM12.6707 45.8705C10.5752 45.8705 8.87061 47.5755 8.87061 49.6705C8.87061 51.766 10.5757 53.471 12.6707 53.471C14.7658 53.471 16.4709 51.766 16.4709 49.6705C16.4713 47.575 14.7663 45.8705 12.6707 45.8705Z" fill="#D7E2E5"/>
<path d="M120.147 49.6342C121.399 49.6342 122.415 48.6187 122.415 47.366C122.415 46.1132 121.399 45.0977 120.147 45.0977C118.894 45.0977 117.878 46.1132 117.878 47.366C117.878 48.6187 118.894 49.6342 120.147 49.6342Z" fill="#CBD3D9"/>
<path d="M27.4024 43.8049C29.2816 43.8049 30.8049 42.2816 30.8049 40.4024C30.8049 38.5233 29.2816 37 27.4024 37C25.5233 37 24 38.5233 24 40.4024C24 42.2816 25.5233 43.8049 27.4024 43.8049Z" fill="#98A8B2"/>
<path opacity="0.58" d="M197.268 66.5366C198.521 66.5366 199.537 65.521 199.537 64.2683C199.537 63.0156 198.521 62 197.268 62C196.016 62 195 63.0156 195 64.2683C195 65.521 196.016 66.5366 197.268 66.5366Z" fill="#F0F2F2"/>
<path d="M109.396 104.547L112.195 113.128C112.195 113.128 113.856 116.687 108.663 116.687" stroke="#666666" stroke-width="2.00269" stroke-miterlimit="10" stroke-linecap="round" stroke-linejoin="round"/>
<path d="M100.419 110.69C103.145 110.69 105.354 108.486 105.354 105.766C105.354 103.046 103.145 100.842 100.419 100.842C97.6934 100.842 95.4839 103.046 95.4839 105.766C95.4839 108.486 97.6934 110.69 100.419 110.69Z" stroke="#7E929F" stroke-width="2.00269" stroke-miterlimit="10" stroke-linecap="round" stroke-linejoin="round"/>
<path d="M117.493 110.69C120.218 110.69 122.428 108.486 122.428 105.766C122.428 103.046 120.218 100.842 117.493 100.842C114.767 100.842 112.558 103.046 112.558 105.766C112.558 108.486 114.767 110.69 117.493 110.69Z" stroke="#7E929F" stroke-width="2.00269" stroke-miterlimit="10" stroke-linecap="round" stroke-linejoin="round"/>
<path d="M105.131 104.31H112.774" stroke="#7E929F" stroke-width="2.00269" stroke-miterlimit="10" stroke-linecap="round" stroke-linejoin="round"/>
<path d="M95.4838 105.766H89.8228" stroke="#7E929F" stroke-width="2.00269" stroke-miterlimit="10" stroke-linecap="round" stroke-linejoin="round"/>
<path d="M89.8228 102.462V111.978C89.8228 121.625 97.6617 129.446 107.329 129.446C116.997 129.446 124.836 121.625 124.836 111.978V98.2109" stroke="#666666" stroke-width="2.00269" stroke-miterlimit="10" stroke-linecap="round" stroke-linejoin="round"/>
<path d="M103.211 121.096C103.211 121.096 106.764 123.345 110.826 121.709" stroke="#666666" stroke-width="2.00269" stroke-miterlimit="10" stroke-linecap="round" stroke-linejoin="round"/>
<path d="M87.9999 101.86C87.9999 101.86 101.319 103.95 108 92" stroke="#7B9AB0" stroke-width="2.00269" stroke-miterlimit="10" stroke-linecap="round" stroke-linejoin="round"/>
<path d="M106 89C106 89 109.003 97.3703 126 98" stroke="#7B9AB0" stroke-width="2.00269" stroke-miterlimit="10" stroke-linecap="round" stroke-linejoin="round"/>
<path d="M99.2062 127.891V136.948" stroke="#666666" stroke-width="2.00269" stroke-miterlimit="10" stroke-linecap="round" stroke-linejoin="round"/>
<path d="M132 139V107.715C132 92.4065 120.137 80 105.5 80C90.8624 80 78.9999 92.4065 78.9999 107.715V137.776" stroke="#7B9AB0" stroke-width="2.00269" stroke-miterlimit="10" stroke-linecap="round" stroke-linejoin="round"/>
<path d="M114.784 127.789V136.948" stroke="#666666" stroke-width="2.00269" stroke-miterlimit="10" stroke-linecap="round" stroke-linejoin="round"/>
<path d="M140.344 152.73C140.344 144.149 132.023 137.191 121.756 137.191H94.2211C85.0909 137.191 77.4964 142.694 75.9328 149.951C75.7374 150.85 75.6396 151.783 75.6396 152.73" stroke="#666666" stroke-width="2.00269" stroke-miterlimit="10" stroke-linecap="round" stroke-linejoin="round"/>
<path d="M99.6383 108.265C100.543 108.265 101.277 107.534 101.277 106.632C101.277 105.731 100.543 105 99.6383 105C98.7335 105 98 105.731 98 106.632C98 107.534 98.7335 108.265 99.6383 108.265Z" fill="#666666"/>
<path d="M116.17 108.265C117.075 108.265 117.809 107.534 117.809 106.632C117.809 105.731 117.075 105 116.17 105C115.265 105 114.532 105.731 114.532 106.632C114.532 107.534 115.265 108.265 116.17 108.265Z" fill="#666666"/>
<path d="M52.8621 98H68.3793C70.4483 98 72 96.4632 72 94.6899V70.5738C72 59.3433 62.1724 50.2406 49.8879 50.0042C37.2155 49.7678 27 59.5797 27 71.1649V94.6899C27 96.5814 28.681 98 30.6207 98H40.0603" stroke="#98A8B2" stroke-width="2" stroke-miterlimit="10" stroke-linecap="round" stroke-linejoin="round"/>
<path d="M50.5 75C51.3284 75 52 74.3284 52 73.5C52 72.6716 51.3284 72 50.5 72C49.6716 72 49 72.6716 49 73.5C49 74.3284 49.6716 75 50.5 75Z" fill="#666666"/>
<path d="M63.5 75C64.3284 75 65 74.3284 65 73.5C65 72.6716 64.3284 72 63.5 72C62.6716 72 62 72.6716 62 73.5C62 74.3284 62.6716 75 63.5 75Z" fill="#666666"/>
<path d="M57 73L60.8036 78.8413C61.3671 79.8571 60.6627 81 59.3949 81H57" stroke="#666666" stroke-width="1.5" stroke-miterlimit="10" stroke-linecap="round" stroke-linejoin="round"/>
<path d="M58 85C58 87.25 56.25 89 54 89C51.75 89 50 87.25 50 85" stroke="#666666" stroke-width="1.5" stroke-miterlimit="10" stroke-linecap="round" stroke-linejoin="round"/>
<path d="M20 135V125.638C20 125.638 20.3611 108.085 33 102" stroke="#666666" stroke-width="2" stroke-miterlimit="10" stroke-linecap="round" stroke-linejoin="round"/>
<path d="M73.9963 135V128.479C73.9963 128.479 74.5817 107.753 61 101" stroke="#666666" stroke-width="2" stroke-miterlimit="10" stroke-linecap="round" stroke-linejoin="round"/>
<path d="M61.314 58C61.314 58 67 63.365 67 69.0799C67 74.7948 67 82.1426 67 82.1426C67 82.1426 65.9556 95.905 53.0751 95.905V98.2376L61.43 101.387C61.43 101.387 58.8771 112 47.157 112C35.4369 112 33 102.086 33 102.086L41.7031 98.4708L41.8191 92.2894C41.8191 92.2894 38.1058 88.6739 36.9454 83.4255C36.9454 83.4255 33.4642 81.7927 33.4642 77.8272C33.4642 73.9784 36.4812 73.0454 38.1058 72.6955C39.7304 72.3456 46.9249 70.4795 51.1024 67.0972C55.3959 63.9482 61.314 58 61.314 58Z" stroke="#666666" stroke-width="2" stroke-miterlimit="10" stroke-linecap="round" stroke-linejoin="round"/>
<path d="M154 166.109L157.289 178.363C157.705 179.911 159.682 180.366 160.732 179.154L173 165" stroke="#666666" stroke-width="2"/>
<path opacity="0.6" d="M161.702 144.068H156.797C150.839 144.068 146 140.54 146 135V154.197C146 160.439 151.439 167 158.151 167C175.741 167 190 158.116 190 141.761V136.006L184.99 136.269C180.864 141.13 173.682 144.068 161.702 144.068Z" fill="#627783"/>
<path fill-rule="evenodd" clip-rule="evenodd" d="M146.352 157H144.861C135.155 157 127.008 163.574 125.322 172.348C125.11 173.434 125 174.561 125 175.704C125 176.256 125.448 176.704 126 176.704C126.552 176.704 127 176.256 127 175.704C127 174.689 127.098 173.689 127.285 172.729L127.285 172.727C128.777 164.963 136.042 159 144.861 159H147.026C146.747 158.348 146.521 157.678 146.352 157ZM182.528 159C183.229 158.369 183.889 157.703 184.503 157H186.001C191.434 157 195.933 158.74 199.318 161.982C202.688 165.21 204.875 169.851 205.848 175.527C205.852 175.55 205.855 175.573 205.858 175.596L206.995 186.9C207.05 187.449 206.65 187.94 206.1 187.995C205.551 188.05 205.06 187.65 205.005 187.1L203.871 175.831C202.946 170.472 200.911 166.277 197.934 163.426C194.965 160.582 190.981 159 186.001 159H182.528Z" fill="#666666"/>
<path d="M190 126.791V115.769C190 104.582 180.151 98 168 98C155.849 98 146 104.589 146 115.769V154.327C146 160.505 151.439 167 158.151 167C175.741 167 190 158.206 190 142.017V136.32" stroke="#666666" stroke-width="2" stroke-miterlimit="10" stroke-linecap="round" stroke-linejoin="round"/>
<path d="M152.298 126.291H152.195C151.194 126.291 150.384 127.105 150.384 128.092C150.384 129.087 151.202 129.893 152.195 129.893H152.298C153.299 129.893 154.109 129.079 154.109 128.092C154.117 127.097 153.299 126.291 152.298 126.291Z" fill="#666666"/>
<path d="M172.726 126.291H172.623C171.622 126.291 170.812 127.105 170.812 128.092C170.812 129.087 171.63 129.893 172.623 129.893H172.726C173.727 129.893 174.537 129.079 174.537 128.092C174.537 127.097 173.727 126.291 172.726 126.291Z" fill="#666666"/>
<path d="M151 122H157.737V135.093C157.737 135.093 157.384 140 164 140" stroke="#666666" stroke-width="2" stroke-miterlimit="10" stroke-linecap="round" stroke-linejoin="round"/>
<path d="M160 147.264C160 147.264 163.196 149.084 168 147" stroke="#666666" stroke-width="2" stroke-miterlimit="10" stroke-linecap="round" stroke-linejoin="round"/>
<path d="M185.967 126.06C185.967 126.06 193 125.033 193 131.5C193 137.967 185 136.94 185 136.94" stroke="#666666" stroke-width="2" stroke-miterlimit="10" stroke-linecap="round" stroke-linejoin="round"/>
<path d="M170 122H177" stroke="#666666" stroke-width="2" stroke-miterlimit="10" stroke-linecap="round" stroke-linejoin="round"/>
<path opacity="0.5" fill-rule="evenodd" clip-rule="evenodd" d="M179.729 37.802C179.729 38.1408 179.992 38.4157 180.316 38.4157C180.64 38.4157 180.903 38.1411 180.903 37.802V35.6137C180.903 35.275 180.64 35 180.316 35C179.992 35 179.729 35.275 179.729 35.6137V37.802ZM183.408 47.8294C183.408 49.5894 182.024 51.0162 180.316 51.0162C178.609 51.0162 177.224 49.5894 177.224 47.8294C177.224 46.0694 178.609 44.6426 180.316 44.6426C182.024 44.6426 183.408 46.0694 183.408 47.8294ZM184.871 39.5633C184.778 39.5633 184.683 39.5399 184.595 39.4908C184.309 39.331 184.202 38.959 184.355 38.6598L185.344 36.7266C185.497 36.428 185.853 36.316 186.139 36.4753C186.424 36.6351 186.532 37.0071 186.379 37.3063L185.389 39.2395C185.284 39.4457 185.081 39.5633 184.871 39.5633ZM187.869 42.4999C187.982 42.676 188.167 42.7712 188.356 42.7712C188.469 42.7712 188.583 42.7374 188.683 42.6665L190.435 41.4342C190.704 41.2451 190.775 40.864 190.595 40.5826C190.413 40.3012 190.049 40.2269 189.78 40.416L188.028 41.6483C187.759 41.8374 187.688 42.2185 187.869 42.4999ZM190.004 47.2962C189.71 47.2962 189.456 47.0657 189.422 46.753C189.384 46.4161 189.615 46.1117 189.937 46.0727L192.04 45.8177C192.361 45.7769 192.653 46.0199 192.69 46.3566C192.727 46.6935 192.497 46.9979 192.175 47.0369L190.072 47.2919C190.049 47.295 190.026 47.2962 190.004 47.2962ZM191.177 52.8226C191.246 52.8496 191.316 52.8628 191.385 52.8628C191.622 52.8628 191.845 52.7115 191.934 52.4666C192.049 52.1499 191.897 51.7955 191.594 51.6749L189.615 50.8887C189.312 50.7687 188.973 50.928 188.858 51.2447C188.743 51.5614 188.895 51.9158 189.199 52.0364L191.177 52.8226ZM188.108 57.6846C187.944 57.6846 187.782 57.6134 187.665 57.4741L186.284 55.817C186.071 55.5614 186.097 55.1735 186.341 54.951C186.586 54.7282 186.956 54.7549 187.169 55.0103L188.55 56.6673C188.763 56.9229 188.738 57.3108 188.493 57.5333C188.382 57.6349 188.245 57.6846 188.108 57.6846ZM182.467 59.8934C182.532 60.1738 182.772 60.3616 183.037 60.3616C183.083 60.3616 183.129 60.3561 183.176 60.3445C183.491 60.2641 183.684 59.932 183.607 59.6028L183.113 57.4783C183.036 57.1488 182.718 56.9481 182.404 57.0272C182.089 57.1076 181.896 57.4397 181.972 57.7689L182.467 59.8934ZM177.328 60.2769C177.277 60.2769 177.227 60.2702 177.176 60.2561C176.863 60.1689 176.676 59.8326 176.76 59.5052L177.296 57.4019C177.379 57.0739 177.701 56.8796 178.014 56.9668C178.328 57.0539 178.514 57.3902 178.43 57.7177L177.894 59.8209C177.824 60.0956 177.587 60.2769 177.328 60.2769ZM171.914 57.3042C172.028 57.4165 172.173 57.4724 172.318 57.4724C172.473 57.4724 172.629 57.4079 172.744 57.2806L174.187 55.6873C174.409 55.4412 174.4 55.0531 174.164 54.8198C173.928 54.5866 173.557 54.5974 173.334 54.8435L171.892 56.4367C171.669 56.6828 171.679 57.071 171.914 57.3042ZM169.164 52.5864C168.921 52.5864 168.694 52.4266 168.609 52.1728C168.504 51.8521 168.666 51.5026 168.973 51.3921L170.972 50.6697C171.279 50.5608 171.613 50.7296 171.718 51.0493C171.824 51.37 171.661 51.7195 171.355 51.83L169.356 52.5524C169.293 52.5754 169.228 52.5864 169.164 52.5864ZM170.59 47.0561C170.617 47.0601 170.643 47.0619 170.67 47.0619C170.959 47.0619 171.21 46.8391 171.25 46.531C171.294 46.195 171.069 45.8857 170.748 45.84L168.666 45.5426C168.345 45.4942 168.049 45.7317 168.005 46.0677C167.962 46.4037 168.186 46.713 168.507 46.7587L170.59 47.0561ZM172.421 42.58C172.303 42.58 172.184 42.5432 172.081 42.4661L170.37 41.1914C170.106 40.9947 170.044 40.6115 170.232 40.3356C170.421 40.0594 170.787 39.9953 171.051 40.1917L172.762 41.4664C173.026 41.6631 173.087 42.0463 172.899 42.3222C172.785 42.4904 172.604 42.58 172.421 42.58ZM175.464 39.121C175.567 39.3342 175.774 39.457 175.988 39.457C176.077 39.457 176.168 39.4358 176.253 39.3904C176.542 39.2373 176.658 38.8678 176.511 38.5655L175.563 36.6108C175.416 36.3089 175.063 36.1873 174.774 36.3414C174.485 36.4945 174.369 36.864 174.516 37.1662L175.464 39.121Z" fill="#7B9AB0"/>
</svg>
