<svg id="Layer_1" data-name="Layer 1" xmlns="http://www.w3.org/2000/svg" viewBox="0 0 32 32"><title>nonselectable_workspace_template</title><g id="Layer_5" data-name="Layer 5"><path d="M14.672,11.609h5.782V4.525A3.136,3.136,0,0,0,17.327,1.4H4.589A3.136,3.136,0,0,0,1.462,4.525V17.264a3.136,3.136,0,0,0,3.127,3.127h6.957V14.736A3.136,3.136,0,0,1,14.672,11.609Z" fill="#627783"/><path d="M17.328,1.4a3.136,3.136,0,0,1,3.127,3.127V11.61H14.673a3.136,3.136,0,0,0-3.127,3.127v5.655H4.589a3.136,3.136,0,0,1-3.127-3.127V4.525A3.136,3.136,0,0,1,4.589,1.4H17.328m0-1H4.589A4.132,4.132,0,0,0,.462,4.526V17.265a4.132,4.132,0,0,0,4.127,4.127h7.957V14.737a2.129,2.129,0,0,1,2.127-2.127h6.782V4.525A4.132,4.132,0,0,0,17.328.4Z" fill="#fff"/><path d="M27.411,11.609H20.454v5.655a3.136,3.136,0,0,1-3.127,3.127H11.545v7.084A3.136,3.136,0,0,0,14.672,30.6H27.411a3.136,3.136,0,0,0,3.127-3.127V14.736A3.136,3.136,0,0,0,27.411,11.609Z" fill="#7b9ab0"/><path d="M27.411,11.609a3.136,3.136,0,0,1,3.127,3.127V27.475A3.136,3.136,0,0,1,27.411,30.6H14.672a3.136,3.136,0,0,1-3.127-3.127V20.391h5.782a3.136,3.136,0,0,0,3.127-3.127V11.609h6.957m0-1H19.454v6.655a2.129,2.129,0,0,1-2.127,2.127H10.545v8.084A4.132,4.132,0,0,0,14.672,31.6H27.411a4.132,4.132,0,0,0,4.127-4.127V14.736a4.131,4.131,0,0,0-4.127-4.127Z" fill="#fff"/><path d="M20.454,17.264V11.609H14.672a3.136,3.136,0,0,0-3.127,3.127v5.655h5.782A3.136,3.136,0,0,0,20.454,17.264Z" fill="#627783"/><path d="M20.454,11.609v5.655a3.136,3.136,0,0,1-3.127,3.127H11.545V14.736a3.136,3.136,0,0,1,3.127-3.127h5.782m1-1H14.672a4.132,4.132,0,0,0-4.127,4.127v6.655h6.782a4.131,4.131,0,0,0,4.127-4.127V10.609Z" fill="#fff"/></g><rect x="8.5" y="9" width="14" height="14" rx="2" fill="#fff"/><path d="M20.5,23.5h-10A2.5,2.5,0,0,1,8,21V11a2.5,2.5,0,0,1,2.5-2.5h10A2.5,2.5,0,0,1,23,11V21A2.5,2.5,0,0,1,20.5,23.5Zm-10-14A1.5,1.5,0,0,0,9,11V21a1.5,1.5,0,0,0,1.5,1.5h10A1.5,1.5,0,0,0,22,21V11a1.5,1.5,0,0,0-1.5-1.5Z" fill="#4a5962"/><path d="M19.891,16A4.391,4.391,0,1,0,15.5,20.391,4.391,4.391,0,0,0,19.891,16ZM15.5,12.584a3.383,3.383,0,0,1,2.036.69l-4.762,4.762A3.379,3.379,0,0,1,12.084,16,3.421,3.421,0,0,1,15.5,12.584Zm-2.036,6.142,4.762-4.762A3.379,3.379,0,0,1,18.916,16,3.421,3.421,0,0,1,15.5,19.416,3.385,3.385,0,0,1,13.464,18.726Z" fill="#df3324"/></svg>