<svg id="Layer_1" data-name="Layer 1" xmlns="http://www.w3.org/2000/svg" viewBox="0 0 32 32"><title>mime_content_server_document_templates</title><path d="M24.5,31.487H6.888a4.193,4.193,0,0,1-4.241-3.872V4.385A4.193,4.193,0,0,1,6.888.513H22.22l6.524,6.453V27.615A4.193,4.193,0,0,1,24.5,31.487Z" fill="#00a389"/><path d="M24.5,32H6.888a4.7,4.7,0,0,1-4.754-4.385V4.385A4.7,4.7,0,0,1,6.888,0H22.431l6.827,6.752V27.615A4.7,4.7,0,0,1,24.5,32ZM6.888,1.027A3.7,3.7,0,0,0,3.161,4.385v23.23a3.7,3.7,0,0,0,3.727,3.358H24.5a3.7,3.7,0,0,0,3.727-3.358V7.18L22.01,1.027Z" fill="#fff"/><polygon points="22.041 1.097 22.041 7.206 28.218 7.206 22.041 1.097" fill="#00795a"/><rect x="18.97" y="13.245" width="5" height="14" fill="#fff"/><path d="M22.97,14.245v12h-3v-12h3m1-1h-5v14h5v-14Z" fill="#00795a"/><rect x="8.103" y="9.453" width="15.362" height="1.995" fill="#fff"/><path d="M23.966,11.948H7.6v-3H23.966Zm-15.363-1H22.966v-1H8.6Z" fill="#00795a"/><rect x="8.405" y="13.891" width="7.721" height="0.806" fill="#fff"/><path d="M16.876,15.447H7.655v-2.2h9.221ZM8.4,14.7h7.721v-.806H8.4Z" fill="#00795a"/><rect x="8.405" y="17.093" width="7.721" height="0.806" fill="#fff"/><path d="M16.876,18.649H7.655v-2.2h9.221ZM8.4,17.9h7.721v-.806H8.4Z" fill="#00795a"/><rect x="8.405" y="20.295" width="7.721" height="0.806" fill="#fff"/><path d="M16.876,21.852H7.655v-2.2h9.221ZM8.4,21.1h7.721V20.3H8.4Z" fill="#00795a"/><rect x="8.405" y="23.497" width="7.721" height="0.806" fill="#fff"/><path d="M16.876,25.054H7.655v-2.2h9.221ZM8.4,24.3h7.721V23.5H8.4Z" fill="#00795a"/><circle cx="23.717" cy="24.772" r="6.66" fill="#cf6830"/><path d="M23.716,31.987a7.215,7.215,0,1,1,7.215-7.215A7.224,7.224,0,0,1,23.716,31.987Zm0-13.32a6.1,6.1,0,1,0,6.105,6.1A6.114,6.114,0,0,0,23.716,18.667Z" fill="#fff"/><path d="M28.157,25.41V24.134h-1.32a3.141,3.141,0,0,0-.469-1.11l.94-.94-.9-.9-.947.947a3.166,3.166,0,0,0-1.1-.455V20.332H23.079v1.341a3.153,3.153,0,0,0-1.1.455l-.947-.947-.9.9.94.94a3.213,3.213,0,0,0-.469,1.11h-1.32V25.41h1.31a3.172,3.172,0,0,0,.46,1.131l-.921.921.9.9.913-.914a3.16,3.16,0,0,0,1.137.476v1.287h1.276V27.926a3.2,3.2,0,0,0,1.137-.476l.914.914.9-.9-.92-.921a3.163,3.163,0,0,0,.459-1.131Zm-4.44,1.3A1.914,1.914,0,1,1,25.631,24.8,1.916,1.916,0,0,1,23.717,26.712Z" fill="#fff"/></svg>