<?xml version="1.0" encoding="utf-8"?>
<!-- Generator: Adobe Illustrator 19.1.0, SVG Export Plug-In . SVG Version: 6.00 Build 0)  -->
<svg version="1.1" xmlns="http://www.w3.org/2000/svg" xmlns:xlink="http://www.w3.org/1999/xlink" x="0px" y="0px"
	 viewBox="0 0 32 32" enable-background="new 0 0 32 32" xml:space="preserve">
<g id="Layer_2">
</g>
<g id="Layer_1">
</g>
<g id="Layer_3">
</g>
<g id="Layer_4">
</g>
<g id="Layer_5">
	<g>
		<g>
			<ellipse fill="#BEA9D0" cx="16" cy="26.607" rx="13.826" ry="3.484"/>
			<path fill="#FFFFFF" d="M16,23.124c7.636,0,13.826,1.56,13.826,3.484S23.636,30.091,16,30.091s-13.826-1.56-13.826-3.484
				S8.364,23.124,16,23.124 M16,22.124c-5.507,0-14.826,0.944-14.826,4.484S10.493,31.091,16,31.091s14.826-0.944,14.826-4.484
				S21.507,22.124,16,22.124L16,22.124z"/>
		</g>
		<path fill="#9370B1" d="M5.012,24.833v0.354c0,0.016,0.004,0.031,0.005,0.048c0.007,0.356,0.1,0.709,0.266,1.024
			c0.118,0.223,0.266,0.448,0.459,0.62c0.328,0.291,0.844,0.334,1.257,0.418c0.37,0.076,0.741,0.143,1.114,0.205
			c2.233,0.367,4.944,0.585,7.873,0.585s5.64-0.217,7.873-0.585c0.4-0.066,0.8-0.139,1.197-0.222c0.268-0.056,0.543-0.092,0.8-0.191
			c0.283-0.109,0.477-0.3,0.655-0.541c0.231-0.313,0.381-0.683,0.431-1.07c0.012-0.096,0.018-0.193,0.018-0.29v-0.354v-0.5v-0.03
			H5.012V24.833z"/>
		<g>
			<path fill="#735796" d="M26.909,22.138c-0.02-0.283-0.038-0.53-0.061-0.763c-0.063-0.644-0.161-1.185-0.43-2.095
				c-0.263-0.89-0.876-1.545-1.874-2.004c-0.852-0.391-1.874-0.587-2.775-0.759c-0.746-0.143-1.45-0.277-1.942-0.498
				c-0.269-0.121-0.504-0.299-0.697-0.531c-0.106-0.127-0.203-0.274-0.288-0.437c0.43-0.353,0.802-0.779,1.116-1.277
				c0.43-0.685,0.747-1.504,0.948-2.447c0.205-0.059,0.406-0.217,0.575-0.456c0.188-0.266,0.329-0.622,0.398-1.002
				c0.1-0.553,0.037-1.081-0.166-1.432c0.018-0.072,0.035-0.146,0.05-0.222c0.094-0.474,0.126-1.024,0.094-1.633
				c-0.054-1.032-0.27-1.869-0.279-1.903c-0.222-0.883-0.884-1.769-1.817-2.432c-0.743-0.527-2-1.156-3.77-1.156
				c-1.77,0-3.027,0.629-3.77,1.156c-0.932,0.662-1.594,1.548-1.817,2.431c-0.012,0.045-0.227,0.879-0.283,1.904
				c-0.033,0.61-0.003,1.16,0.091,1.634c0.015,0.074,0.031,0.146,0.049,0.216c-0.205,0.35-0.269,0.88-0.169,1.436
				c0.069,0.382,0.211,0.739,0.4,1.005c0.17,0.24,0.372,0.397,0.578,0.454c0.201,0.943,0.518,1.762,0.948,2.447
				c0.314,0.5,0.688,0.927,1.12,1.28c-0.084,0.161-0.18,0.307-0.285,0.433c-0.193,0.231-0.428,0.41-0.697,0.531
				c-0.492,0.221-1.196,0.356-1.942,0.498c-0.901,0.172-1.923,0.368-2.775,0.759c-0.999,0.459-1.612,1.114-1.874,2.004
				c-0.269,0.909-0.367,1.449-0.43,2.092c-0.022,0.223-0.122,1.065-0.122,1.244v0.751v0.354c0,0.016,0.005,0.031,0.005,0.048
				c0.007,0.356,0.099,0.709,0.266,1.024c0.118,0.223,0.266,0.448,0.459,0.62c0.328,0.291,0.844,0.334,1.257,0.418
				c0.37,0.076,0.741,0.143,1.114,0.205c2.233,0.368,4.944,0.585,7.873,0.585s5.64-0.217,7.873-0.585
				c0.4-0.066,0.8-0.139,1.197-0.222c0.268-0.056,0.543-0.092,0.8-0.191c0.283-0.109,0.477-0.3,0.655-0.541
				c0.231-0.313,0.381-0.683,0.431-1.07c0.012-0.096,0.018-0.193,0.018-0.291v-0.354v-0.5v-0.25
				C26.96,22.452,26.942,22.292,26.909,22.138z"/>
			<path fill="#FFFFFF" d="M15.987,27.118c-2.854,0-5.605-0.204-7.955-0.591c-0.379-0.062-0.758-0.131-1.133-0.209l-0.211-0.039
				c-0.402-0.071-0.902-0.16-1.277-0.494c-0.21-0.186-0.396-0.435-0.568-0.759c-0.204-0.385-0.316-0.816-0.325-1.248l-0.005-1.162
				c0-0.142,0.058-0.681,0.097-1.039l0.028-0.255c0.071-0.734,0.188-1.306,0.447-2.185c0.306-1.036,1.008-1.794,2.146-2.315
				c0.903-0.416,1.953-0.617,2.88-0.795c0.737-0.141,1.406-0.27,1.841-0.465c0.199-0.089,0.373-0.222,0.518-0.395
				c0.006-0.008,0.013-0.015,0.019-0.022c-0.334-0.323-0.634-0.692-0.892-1.104c-0.421-0.669-0.742-1.461-0.957-2.357
				c-0.204-0.117-0.393-0.294-0.554-0.521C9.855,10.84,9.683,10.412,9.6,9.959C9.495,9.373,9.544,8.807,9.734,8.37
				C9.73,8.351,9.726,8.333,9.722,8.314C9.62,7.8,9.586,7.208,9.622,6.555c0.059-1.059,0.274-1.909,0.299-2.003
				c0.25-0.993,0.983-1.983,2.01-2.713c0.803-0.569,2.158-1.248,4.06-1.248c1.902,0,3.258,0.679,4.06,1.247
				c1.029,0.731,1.763,1.723,2.013,2.718c0.023,0.092,0.237,0.95,0.292,1.999c0.035,0.652,0,1.244-0.103,1.758
				c-0.004,0.021-0.008,0.042-0.013,0.062c0.187,0.436,0.234,0.998,0.131,1.581c-0.081,0.45-0.252,0.877-0.482,1.203
				c-0.16,0.227-0.348,0.403-0.551,0.521c-0.216,0.896-0.537,1.689-0.957,2.358c-0.257,0.409-0.555,0.778-0.89,1.101
				c0.007,0.009,0.014,0.017,0.021,0.024c0.146,0.176,0.32,0.309,0.519,0.397c0.436,0.195,1.104,0.324,1.812,0.459
				c0.956,0.184,2.006,0.385,2.91,0.801c1.138,0.521,1.84,1.279,2.146,2.315c0.259,0.879,0.376,1.452,0.448,2.189
				c0.022,0.228,0.041,0.468,0.06,0.743c0.036,0.184,0.055,0.367,0.055,0.546v1.104c0,0.118-0.007,0.238-0.022,0.355
				c-0.06,0.466-0.24,0.917-0.524,1.302c-0.178,0.242-0.438,0.541-0.877,0.71c-0.225,0.086-0.461,0.134-0.696,0.179l-0.182,0.035
				c-0.404,0.084-0.811,0.158-1.217,0.226C21.591,26.914,18.84,27.118,15.987,27.118z M15.99,1.592c-1.639,0-2.797,0.578-3.48,1.063
				c-0.836,0.594-1.427,1.376-1.621,2.146c-0.009,0.037-0.215,0.833-0.269,1.81c-0.031,0.569-0.003,1.077,0.082,1.51l0.093,0.389
				l-0.103,0.177c-0.144,0.245-0.186,0.665-0.108,1.096c0.056,0.306,0.171,0.6,0.315,0.803c0.099,0.14,0.212,0.237,0.304,0.262
				l0.293,0.081l0.063,0.297c0.188,0.886,0.485,1.655,0.882,2.285c0.285,0.453,0.626,0.843,1.014,1.16l0.316,0.258l-0.19,0.362
				c-0.104,0.197-0.221,0.373-0.347,0.521c-0.241,0.289-0.536,0.513-0.874,0.664c-0.54,0.244-1.266,0.383-2.033,0.529
				c-0.899,0.173-1.886,0.361-2.68,0.727c-0.872,0.4-1.382,0.938-1.604,1.69c-0.271,0.918-0.356,1.429-0.411,1.999l-0.029,0.267
				c-0.035,0.32-0.091,0.802-0.091,0.93v1.104c0.01,0.314,0.082,0.59,0.213,0.837c0.115,0.217,0.229,0.373,0.349,0.479
				c0.166,0.147,0.483,0.204,0.79,0.259l0.235,0.044c0.364,0.075,0.729,0.142,1.096,0.202c2.297,0.378,4.991,0.577,7.792,0.577
				c2.8,0,5.494-0.199,7.792-0.577c0.394-0.065,0.786-0.138,1.178-0.218l0.197-0.039c0.177-0.034,0.355-0.065,0.523-0.13
				c0.158-0.061,0.282-0.167,0.432-0.369c0.183-0.248,0.299-0.537,0.337-0.837c0.01-0.077,0.015-0.152,0.015-0.228v-1.104
				c0-0.122-0.014-0.248-0.04-0.376l-0.01-0.068c-0.019-0.277-0.037-0.519-0.06-0.747c-0.056-0.573-0.142-1.085-0.412-2.004
				c-0.223-0.753-0.732-1.29-1.604-1.69c-0.795-0.365-1.781-0.554-2.652-0.721c-0.796-0.152-1.521-0.291-2.062-0.535
				c-0.337-0.151-0.632-0.375-0.875-0.666c-0.126-0.148-0.243-0.326-0.348-0.526l-0.188-0.36l0.313-0.258
				c0.389-0.318,0.728-0.707,1.009-1.155c0.397-0.632,0.694-1.401,0.883-2.286l0.063-0.294l0.288-0.082
				c0.093-0.026,0.206-0.125,0.305-0.264c0.146-0.206,0.26-0.498,0.314-0.803c0.076-0.429,0.036-0.848-0.106-1.092l-0.103-0.177
				l0.051-0.198c0.017-0.063,0.03-0.128,0.043-0.193c0.087-0.435,0.116-0.942,0.086-1.512c-0.051-0.969-0.255-1.771-0.264-1.805
				C20.9,4.032,20.309,3.25,19.471,2.654C18.788,2.17,17.629,1.592,15.99,1.592z"/>
		</g>
	</g>
</g>
<g id="Layer_7">
</g>
</svg>
