<?xml version="1.0" encoding="utf-8"?>
<!-- Generator: Adobe Illustrator 21.0.2, SVG Export Plug-In . SVG Version: 6.00 Build 0)  -->
<svg version="1.1" id="Layer_1" xmlns="http://www.w3.org/2000/svg" xmlns:xlink="http://www.w3.org/1999/xlink" x="0px" y="0px"
	 viewBox="0 0 16 16" style="enable-background:new 0 0 16 16;" xml:space="preserve">
<style type="text/css">
	.st0{opacity:0.7;fill:#333333;enable-background:new    ;}
	.st1{fill:#FFFFFF;}
</style>
<path class="st0" d="M8,15.5c-4.1,0-7.5-3.4-7.5-7.5S3.9,0.5,8,0.5s7.5,3.4,7.5,7.5S12.1,15.5,8,15.5z"/>
<path class="st1" d="M8,0C3.6,0,0,3.6,0,8c0,4.4,3.6,8,8,8c4.4,0,8-3.6,8-8C16,3.6,12.4,0,8,0z M8,15c-1.6,0-3.1-0.6-4.3-1.5L10,7v4
	c0,0.5,0.5,0.8,1,0.8s1-0.3,1-0.8V4H5.1C4.7,4,4.3,4.5,4.3,5S4.5,6,5,6h4l-6.5,6.3C1.6,11.1,1,9.6,1,8c0-3.9,3.1-7,7-7s7,3.1,7,7
	S11.9,15,8,15z"/>
</svg>
