<?xml version="1.0" encoding="utf-8"?>
<!-- Generator: Adobe Illustrator 19.1.0, SVG Export Plug-In . SVG Version: 6.00 Build 0)  -->
<!DOCTYPE svg PUBLIC "-//W3C//DTD SVG 1.1//EN" "http://www.w3.org/Graphics/SVG/1.1/DTD/svg11.dtd">
<svg version="1.1" id="Layer_1" xmlns="http://www.w3.org/2000/svg" xmlns:xlink="http://www.w3.org/1999/xlink" x="0px" y="0px"
	 viewBox="-470.5 270.5 20 20" style="enable-background:new -470.5 270.5 20 20;" xml:space="preserve">
<style type="text/css">
	.st0{fill:#627783;}
</style>
<path class="st0" d="M-450.8,288.8l-5-5c1.1-1.4,1.8-3.2,1.8-5c0-4.4-3.8-8.2-8.2-8.2s-8.2,3.8-8.2,8.2c0,4.5,3.7,8.2,8.2,8.2
	c1.8,0,3.6-0.6,5-1.7l5,5c0.2,0.2,0.6,0.2,0.8,0.2c0.5,0,0.7-0.2,0.7-0.3c0.1-0.2,0.2-0.4,0.2-0.6
	C-450.5,289.2-450.6,289-450.8,288.8z M-462.3,284.8c-3.4,0-6.2-2.8-6.2-6.2s2.8-6.2,6.2-6.2c1.7,0,3.3,0.7,4.5,1.9
	c1.2,1.2,1.8,2.7,1.7,4.3C-456.1,282.1-458.9,284.8-462.3,284.8z"/>
</svg>
