<?xml version="1.0" encoding="utf-8"?>
<!-- Generator: Adobe Illustrator 19.1.0, SVG Export Plug-In . SVG Version: 6.00 Build 0)  -->
<!DOCTYPE svg PUBLIC "-//W3C//DTD SVG 1.1//EN" "http://www.w3.org/Graphics/SVG/1.1/DTD/svg11.dtd">
<svg version="1.1" id="Layer_1" xmlns="http://www.w3.org/2000/svg" xmlns:xlink="http://www.w3.org/1999/xlink" x="0px" y="0px"
	 viewBox="-470.5 270.5 20 20" enable-background="new -470.5 270.5 20 20" xml:space="preserve">
<path fill="#666666" d="M-450.822,288.796l-5.005-4.996c1.133-1.444,1.752-3.22,1.752-5.05c0-4.445-3.755-8.2-8.2-8.2
	s-8.2,3.755-8.2,8.2c0,4.521,3.679,8.2,8.2,8.2c1.833,0,3.607-0.617,5.046-1.747l4.998,4.998c0.246,0.249,0.604,0.249,0.756,0.249
	c0.462,0,0.659-0.179,0.741-0.347c0.136-0.175,0.209-0.385,0.209-0.604C-450.524,289.237-450.63,288.987-450.822,288.796z
	 M-462.275,284.85c-3.419,0-6.2-2.781-6.2-6.2s2.781-6.2,6.2-6.2c1.665,0,3.299,0.699,4.484,1.917
	c1.15,1.183,1.76,2.699,1.716,4.283C-456.075,282.068-458.856,284.85-462.275,284.85z"/>
</svg>
