<?xml version="1.0" encoding="utf-8"?>
<!-- Generator: Adobe Illustrator 23.0.0, SVG Export Plug-In . SVG Version: 6.00 Build 0)  -->
<svg version="1.1" id="Layer_1" xmlns="http://www.w3.org/2000/svg" xmlns:xlink="http://www.w3.org/1999/xlink" x="0px" y="0px"
	 viewBox="0 0 24 24" style="enable-background:new 0 0 24 24;" xml:space="preserve">
<style type="text/css">
	.st0{fill-rule:evenodd;clip-rule:evenodd;fill:#666666;}
</style>
<path class="st0" d="M14.322,9.134c0.057,0.115,0.166,0.194,0.292,0.213l4.544,0.66c0.319,0.047,0.446,0.438,0.215,0.663
	l-3.288,3.205c-0.092,0.089-0.134,0.218-0.112,0.344l0.776,4.526c0.055,0.317-0.279,0.56-0.563,0.41l-0.449-0.236l-3.615-1.901
	c-0.113-0.06-0.249-0.06-0.361,0l-4.064,2.137c-0.285,0.15-0.619-0.092-0.564-0.41l0.777-4.526c0.022-0.126-0.02-0.255-0.112-0.344
	L4.51,10.67c-0.232-0.225-0.105-0.616,0.214-0.663l4.544-0.66c0.127-0.019,0.236-0.098,0.292-0.213l1.808-3.663l0.224-0.455
	c0.143-0.288,0.555-0.288,0.697,0L14.322,9.134z M13.904,4.22l1.704,3.452l3.811,0.554c1.789,0.262,2.513,2.464,1.211,3.733
	l-0.001,0.001l-2.756,2.686l0.651,3.794c0.306,1.783-1.567,3.155-3.177,2.307l-3.406-1.791l-3.407,1.791
	C6.933,21.59,5.05,20.231,5.36,18.439l0-0.003l0.65-3.79l-2.751-2.682L3.256,11.96c-1.307-1.269-0.581-3.473,1.208-3.735
	l3.811-0.554L9.98,4.217C10.783,2.598,13.1,2.59,13.904,4.22z"/>
</svg>
