<?xml version="1.0" encoding="utf-8"?>
<!-- Generator: Adobe Illustrator 19.1.0, SVG Export Plug-In . SVG Version: 6.00 Build 0)  -->
<svg version="1.1" id="Layer_1" xmlns="http://www.w3.org/2000/svg" xmlns:xlink="http://www.w3.org/1999/xlink" x="0px" y="0px"
	 viewBox="0 0 24 24" style="enable-background:new 0 0 24 24;" xml:space="preserve">
<style type="text/css">
	.st0{fill:#0073AA;}
	.st1{fill:#FFFFFF;}
</style>
<path class="st0" d="M24.01,13.99V10.01h-3.238c-0.228-1.008-0.626-1.949-1.16-2.798l2.291-2.291l-2.814-2.814L16.8,4.396
	C15.952,3.859,15.009,3.46,14,3.231V0h-3.979v3.225C9.009,3.453,8.064,3.852,7.213,4.388L4.932,2.108L2.118,4.922L4.396,7.2
	C3.857,8.051,3.457,8.997,3.228,10.01H0.01v3.979h3.218c0.229,1.013,0.629,1.959,1.168,2.811l-2.278,2.278l2.814,2.814l2.281-2.281
	c0.851,0.537,1.796,0.936,2.808,1.163V24H14v-3.231c1.009-0.229,1.952-0.629,2.8-1.166l2.288,2.288l2.814-2.814l-2.291-2.291
	c0.535-0.848,0.933-1.79,1.16-2.798H24.01z M17,13h-5c-0.552,0-1-0.448-1-1V6c0-0.552,0.448-1,1-1s1,0.448,1,1v5h4
	c0.552,0,1,0.448,1,1C18,12.552,17.552,13,17,13z"/>
<path class="st1" d="M17,11h-4V6c0-0.552-0.448-1-1-1s-1,0.448-1,1v6c0,0.552,0.448,1,1,1h5c0.552,0,1-0.448,1-1
	C18,11.448,17.552,11,17,11z"/>
</svg>
