<?xml version="1.0" encoding="utf-8"?>
<!-- Generator: Adobe Illustrator 18.1.0, SVG Export Plug-In . SVG Version: 6.00 Build 0)  -->
<!DOCTYPE svg PUBLIC "-//W3C//DTD SVG 1.1//EN" "http://www.w3.org/Graphics/SVG/1.1/DTD/svg11.dtd">
<svg version="1.1" id="Layer_1" xmlns="http://www.w3.org/2000/svg" xmlns:xlink="http://www.w3.org/1999/xlink" x="0px" y="0px"
	 viewBox="0 0 352 22" enable-background="new 0 0 352 22" xml:space="preserve">
<g>
	<g>
		<g>
			<g>
				<path fill="#333333" d="M10.378,20.228c-3.345,0-6.414-2.68-6.414-9.297c0-6.862,3.342-9.304,6.414-9.304
					c3.071,0,6.411,2.442,6.411,9.304C16.789,17.548,13.72,20.228,10.378,20.228 M10.581,21.315c5.446,0,9.841-3.943,9.841-10.353
					c0-6.923-4.91-10.418-9.841-10.418c-4.941,0-9.847,3.496-9.847,10.418C0.734,17.372,5.132,21.315,10.581,21.315"/>
			</g>
			<g>
				<path fill="#333333" d="M27.162,6.03c0-0.841,0.33-0.868,1.23-0.868c1.326,0,5.72,0.049,5.72,3.713
					c0,3.885-4.031,3.885-5.148,3.885c-0.624,0-1.232-0.023-1.802-0.075V6.03z M21.667,4.706c2.194,0.177,2.526,0.484,2.526,2.298
					v11.079c0,1.842,0,2.428-2.526,2.583v0.485h8.424v-0.485c-2.319-0.052-2.827-0.434-2.827-2.303v-4.656
					c0.722,0.053,1.293,0.074,2.012,0.074c3.164,0,5.089-0.457,6.382-1.506c0.509-0.41,1.84-1.457,1.84-3.454
					c0-3.254-3.735-4.604-7.889-4.604h-7.942V4.706z"/>
			</g>
			<g>
				<path fill="#333333" d="M54.146,21.152H37.895v-0.485c1.925-0.102,2.621-0.337,2.621-2.303V7.004
					c0-2.019-0.725-2.177-2.621-2.298V4.218h15.978l0.092,3.655h-0.75c-0.451-2.276-1.233-2.684-4.575-2.684h-4.066
					c-0.632,0-0.989,0-0.989,0.866v5.68h4.634c2.673,0,2.981-0.616,3.308-2.43h0.697v5.937h-0.697
					c-0.356-2.045-0.813-2.405-3.308-2.433l-4.634-0.051v6.342c0,1.049,0,1.078,4.484,1.078c3.762,0,5.264-0.768,6.593-3.355H55.5
					L54.146,21.152z"/>
			</g>
			<g>
				<path fill="#333333" d="M77.059,4.706C75.162,4.882,74.2,4.985,74.2,7.979v13.456h-0.51L60.447,7.413h-0.063v9.974
					c0,2.641,0.636,3.201,2.831,3.279v0.485h-7.077v-0.485c2.292-0.127,2.923-0.516,2.923-3.279V6.106
					c-1.233-1.28-1.717-1.401-2.923-1.401V4.218h5.151l11.527,12.3h0.059V7.979c0-2.946-0.842-3.153-2.888-3.273V4.218h7.071V4.706z
					"/>
			</g>
			<g>
				<path fill="#333333" d="M92.544,21.155H83.03v-0.481c2.964-0.129,3.062-0.882,3.214-3.286V2.381h-2.263
					c-3.589,0-4.462,0.626-5.178,4.172h-0.785l0.196-5.394h19.085l0.191,5.394h-0.773c-0.69-3.586-1.607-4.172-5.184-4.172h-2.117
					v15.361c0,2.216,0.387,2.832,3.127,2.931V21.155z"/>
			</g>
			<g>
				<path fill="#333333" d="M114.681,21.152H98.427v-0.485c1.927-0.102,2.614-0.337,2.614-2.303V7.004
					c0-2.019-0.724-2.177-2.614-2.298V4.218h15.981l0.091,3.655h-0.756c-0.447-2.276-1.228-2.684-4.573-2.684h-4.066
					c-0.628,0-0.992,0-0.992,0.866v5.68h4.633c2.682,0,2.982-0.616,3.317-2.43h0.693v5.937h-0.693
					c-0.361-2.045-0.818-2.405-3.317-2.433l-4.633-0.051v6.342c0,1.049,0,1.078,4.489,1.078c3.757,0,5.265-0.768,6.587-3.355h0.847
					L114.681,21.152z"/>
			</g>
			<g>
				<path fill="#333333" d="M136.904,4.706c-1.596,0.097-2.38,0.177-4.489,2.4l-4.391,4.654l5.779,7.014
					c1.177,1.406,1.774,1.766,3.347,1.893v0.485h-8.95v-0.485c1.504-0.079,2.319-0.079,2.319-0.869c0-0.463-1.055-1.838-1.534-2.435
					l-2.86-3.581l-3.578,3.787c-0.632,0.669-1.565,1.668-1.565,2.152c0,0.819,1.112,0.894,2.288,0.946v0.485h-7.018v-0.485
					c1.655-0.102,1.988-0.434,4.371-2.918l4.721-4.939l-3.281-4.093c-3.069-3.835-3.702-3.891-5.449-4.012V4.218h9.093v0.488
					c-1.57,0.019-2.288,0.047-2.288,0.816c0,0.509,0.541,1.354,2.555,3.785l1.265,1.511l3.405-3.531
					c0.687-0.746,1.202-1.256,1.202-1.738c0-0.797-1.087-0.824-2.107-0.843V4.218h7.164V4.706z"/>
			</g>
			<g>
				<path fill="#333333" d="M150.579,21.152h-8.786v-0.485c2.736-0.102,2.828-0.695,2.828-2.583V5.286h-1.117
					c-3.311,0-4.125,0.492-4.787,3.279h-0.729l0.182-4.347h15.966l0.177,4.347h-0.727c-0.624-2.817-1.472-3.279-4.78-3.279h-1.118
					v13.078c0,1.741,0.358,2.224,2.891,2.303V21.152z"/>
			</g>
		</g>
		<g>
			<path fill="#333333" d="M157.674,1.166v0.339h-0.959v2.507h-0.389V1.505h-0.959V1.166H157.674z"/>
			<path fill="#333333" d="M158.018,1.166h0.552l0.819,2.406l0.812-2.406h0.549v2.846h-0.368v-1.68c0-0.058,0.001-0.154,0.004-0.289
				c0.003-0.134,0.004-0.278,0.004-0.432l-0.813,2.4h-0.382l-0.82-2.4v0.087c0,0.07,0.002,0.176,0.006,0.319
				c0.004,0.143,0.006,0.248,0.006,0.315v1.68h-0.368V1.166z"/>
		</g>
	</g>
	<g>
		<path fill="#0072AA" d="M189.201,17.876c0.094,0,0.174,0.032,0.239,0.098l0.563,0.606c-0.413,0.442-0.864,0.839-1.353,1.19
			c-0.489,0.354-1.022,0.654-1.6,0.902c-0.578,0.25-1.212,0.442-1.903,0.578c-0.691,0.137-1.45,0.205-2.276,0.205
			c-1.381,0-2.648-0.242-3.799-0.727s-2.138-1.17-2.96-2.058s-1.463-1.962-1.924-3.221s-0.691-2.659-0.691-4.2
			c0-1.513,0.237-2.895,0.712-4.144s1.142-2.323,2.001-3.221s1.889-1.593,3.087-2.086c1.198-0.494,2.521-0.74,3.968-0.74
			c0.724,0,1.386,0.054,1.987,0.162c0.601,0.108,1.163,0.263,1.685,0.465c0.521,0.202,1.012,0.453,1.473,0.754
			c0.46,0.301,0.911,0.648,1.353,1.043l-0.437,0.634c-0.076,0.113-0.193,0.169-0.353,0.169c-0.085,0-0.192-0.049-0.324-0.148
			c-0.132-0.099-0.298-0.22-0.501-0.366c-0.201-0.146-0.445-0.305-0.732-0.479c-0.287-0.173-0.627-0.333-1.022-0.479
			c-0.395-0.146-0.851-0.268-1.367-0.367c-0.517-0.099-1.104-0.148-1.762-0.148c-1.212,0-2.326,0.209-3.34,0.627
			c-1.015,0.418-1.889,1.015-2.622,1.79s-1.304,1.715-1.712,2.819c-0.409,1.104-0.613,2.342-0.613,3.714
			c0,1.409,0.202,2.668,0.606,3.777c0.404,1.109,0.963,2.046,1.677,2.813c0.714,0.766,1.558,1.353,2.53,1.762
			c0.973,0.408,2.027,0.613,3.165,0.613c0.714,0,1.351-0.047,1.91-0.142c0.559-0.094,1.074-0.235,1.543-0.423
			s0.906-0.418,1.311-0.69s0.804-0.593,1.198-0.958c0.047-0.038,0.092-0.068,0.134-0.092
			C189.095,17.887,189.144,17.876,189.201,17.876z"/>
		<path fill="#0072AA" d="M198.709,6.98c1.006,0,1.905,0.171,2.699,0.515c0.795,0.343,1.464,0.829,2.009,1.458
			c0.545,0.63,0.961,1.389,1.247,2.276c0.287,0.888,0.43,1.882,0.43,2.981c0,1.099-0.143,2.091-0.43,2.974
			c-0.286,0.883-0.702,1.641-1.247,2.27s-1.214,1.113-2.009,1.451c-0.794,0.339-1.693,0.508-2.699,0.508s-1.904-0.169-2.699-0.508
			c-0.794-0.338-1.465-0.822-2.016-1.451c-0.549-0.629-0.967-1.387-1.254-2.27s-0.43-1.875-0.43-2.974c0-1.1,0.143-2.093,0.43-2.981
			c0.287-0.888,0.705-1.646,1.254-2.276c0.551-0.629,1.222-1.116,2.016-1.458C196.804,7.151,197.703,6.98,198.709,6.98z
			 M198.709,20.356c0.836,0,1.566-0.144,2.191-0.43c0.625-0.287,1.146-0.698,1.565-1.234c0.418-0.535,0.73-1.182,0.937-1.938
			c0.207-0.756,0.311-1.604,0.311-2.544c0-0.931-0.104-1.776-0.311-2.537c-0.206-0.761-0.519-1.412-0.937-1.952
			c-0.419-0.541-0.94-0.956-1.565-1.248c-0.625-0.291-1.355-0.437-2.191-0.437s-1.566,0.146-2.191,0.437
			c-0.625,0.292-1.146,0.707-1.564,1.248c-0.418,0.54-0.732,1.191-0.944,1.952c-0.212,0.761-0.317,1.606-0.317,2.537
			c0,0.939,0.105,1.788,0.317,2.544c0.212,0.756,0.526,1.402,0.944,1.938c0.418,0.536,0.939,0.947,1.564,1.234
			C197.142,20.213,197.873,20.356,198.709,20.356z"/>
		<path fill="#0072AA" d="M208.23,21.229V7.205h0.733c0.245,0,0.386,0.118,0.423,0.353l0.127,2.114
			c0.639-0.808,1.384-1.459,2.234-1.952c0.85-0.494,1.797-0.74,2.84-0.74c0.771,0,1.449,0.122,2.037,0.367
			c0.587,0.244,1.073,0.597,1.459,1.057c0.385,0.46,0.676,1.015,0.873,1.663s0.297,1.381,0.297,2.199v8.964h-1.34v-8.964
			c0-1.315-0.301-2.347-0.902-3.094s-1.521-1.121-2.762-1.121c-0.922,0-1.776,0.237-2.565,0.712
			c-0.79,0.475-1.494,1.125-2.114,1.952v10.514H208.23z"/>
		<path fill="#0072AA" d="M226.658,21.456c-0.949,0-1.686-0.264-2.213-0.79c-0.525-0.526-0.789-1.339-0.789-2.438V8.643h-2.016
			c-0.104,0-0.188-0.028-0.254-0.084c-0.065-0.056-0.098-0.136-0.098-0.24V7.797l2.396-0.169l0.335-5.018
			c0.01-0.084,0.044-0.16,0.104-0.225c0.06-0.066,0.142-0.099,0.244-0.099h0.628v5.356h4.411v1h-4.411v9.514
			c0,0.385,0.049,0.717,0.147,0.994s0.235,0.505,0.409,0.684c0.174,0.178,0.378,0.31,0.613,0.395
			c0.234,0.084,0.488,0.127,0.761,0.127c0.338,0,0.63-0.05,0.874-0.148s0.455-0.207,0.634-0.324s0.324-0.226,0.437-0.324
			c0.113-0.099,0.203-0.148,0.269-0.148c0.075,0,0.149,0.048,0.226,0.142l0.366,0.592c-0.357,0.396-0.811,0.712-1.36,0.952
			C227.822,21.335,227.251,21.456,226.658,21.456z"/>
		<path fill="#0072AA" d="M237.308,6.98c0.789,0,1.52,0.136,2.191,0.409c0.672,0.273,1.255,0.669,1.748,1.191
			c0.494,0.521,0.879,1.163,1.156,1.924c0.277,0.761,0.416,1.635,0.416,2.622c0,0.206-0.031,0.348-0.092,0.422
			c-0.062,0.076-0.158,0.113-0.289,0.113h-10.12v0.268c0,1.053,0.122,1.979,0.366,2.777c0.244,0.799,0.592,1.468,1.043,2.008
			c0.451,0.541,0.996,0.947,1.635,1.219c0.639,0.273,1.354,0.409,2.143,0.409c0.705,0,1.315-0.077,1.832-0.232
			c0.518-0.155,0.952-0.329,1.305-0.521c0.352-0.192,0.631-0.366,0.838-0.521s0.357-0.232,0.451-0.232
			c0.122,0,0.217,0.047,0.282,0.141l0.366,0.451c-0.226,0.282-0.523,0.545-0.895,0.79c-0.371,0.244-0.785,0.453-1.24,0.627
			c-0.457,0.174-0.945,0.312-1.467,0.416c-0.521,0.103-1.045,0.154-1.571,0.154c-0.958,0-1.832-0.167-2.622-0.5
			c-0.789-0.334-1.467-0.82-2.031-1.459c-0.565-0.639-1.002-1.422-1.311-2.347c-0.309-0.926-0.463-1.985-0.463-3.179
			c0-1.006,0.143-1.933,0.43-2.784c0.286-0.85,0.699-1.583,1.24-2.199c0.54-0.615,1.203-1.097,1.987-1.445
			S236.312,6.98,237.308,6.98z M237.33,7.981c-0.723,0-1.371,0.112-1.943,0.338s-1.066,0.55-1.484,0.973s-0.756,0.93-1.014,1.522
			c-0.258,0.592-0.429,1.254-0.514,1.988h9.232c0-0.752-0.104-1.426-0.31-2.023s-0.497-1.102-0.872-1.516
			c-0.375-0.413-0.826-0.73-1.352-0.951S237.966,7.981,237.33,7.981z"/>
		<path fill="#0072AA" d="M245.869,21.229V7.205h0.732c0.245,0,0.386,0.118,0.424,0.353l0.127,2.114
			c0.639-0.808,1.383-1.459,2.234-1.952c0.85-0.494,1.797-0.74,2.84-0.74c0.77,0,1.449,0.122,2.036,0.367
			c0.587,0.244,1.073,0.597,1.459,1.057c0.386,0.46,0.677,1.015,0.874,1.663s0.296,1.381,0.296,2.199v8.964h-1.339v-8.964
			c0-1.315-0.301-2.347-0.902-3.094s-1.521-1.121-2.763-1.121c-0.921,0-1.776,0.237-2.565,0.712s-1.494,1.125-2.113,1.952v10.514
			H245.869z"/>
		<path fill="#0072AA" d="M264.296,21.456c-0.949,0-1.688-0.264-2.213-0.79c-0.527-0.526-0.789-1.339-0.789-2.438V8.643h-2.016
			c-0.104,0-0.188-0.028-0.254-0.084c-0.066-0.056-0.1-0.136-0.1-0.24V7.797l2.396-0.169l0.335-5.018
			c0.009-0.084,0.044-0.16,0.104-0.225c0.061-0.066,0.142-0.099,0.244-0.099h0.627v5.356h4.412v1h-4.412v9.514
			c0,0.385,0.05,0.717,0.148,0.994s0.234,0.505,0.408,0.684c0.174,0.178,0.379,0.31,0.613,0.395
			c0.235,0.084,0.488,0.127,0.762,0.127c0.338,0,0.629-0.05,0.873-0.148c0.245-0.099,0.457-0.207,0.635-0.324
			c0.179-0.117,0.324-0.226,0.438-0.324c0.112-0.099,0.201-0.148,0.268-0.148c0.074,0,0.15,0.048,0.226,0.142l0.366,0.592
			c-0.357,0.396-0.811,0.712-1.36,0.952C265.459,21.335,264.888,21.456,264.296,21.456z"/>
		<path fill="#0072AA" d="M286.298,3.71c-0.085,0.16-0.207,0.24-0.367,0.24c-0.122,0-0.28-0.087-0.473-0.261
			c-0.193-0.174-0.455-0.367-0.785-0.578s-0.742-0.406-1.238-0.585c-0.494-0.178-1.104-0.268-1.83-0.268
			c-0.727,0-1.365,0.104-1.916,0.31c-0.552,0.207-1.014,0.489-1.387,0.846c-0.372,0.357-0.654,0.771-0.848,1.24
			c-0.193,0.47-0.29,0.963-0.29,1.48c0,0.677,0.144,1.236,0.431,1.677c0.287,0.442,0.666,0.817,1.137,1.127
			c0.47,0.311,1.004,0.571,1.602,0.783s1.211,0.42,1.842,0.627c0.631,0.207,1.244,0.435,1.842,0.684s1.131,0.562,1.602,0.938
			s0.85,0.838,1.137,1.389c0.287,0.549,0.431,1.232,0.431,2.051c0,0.836-0.144,1.623-0.43,2.36c-0.287,0.737-0.702,1.38-1.247,1.925
			s-1.213,0.975-2.002,1.289s-1.691,0.473-2.706,0.473c-1.315,0-2.448-0.232-3.397-0.698s-1.78-1.102-2.494-1.909l0.395-0.621
			c0.113-0.141,0.244-0.211,0.395-0.211c0.084,0,0.193,0.057,0.324,0.169c0.132,0.112,0.292,0.251,0.48,0.415
			c0.188,0.165,0.414,0.344,0.678,0.536c0.263,0.192,0.568,0.372,0.917,0.536s0.748,0.303,1.2,0.416
			c0.451,0.112,0.964,0.168,1.538,0.168c0.79,0,1.496-0.119,2.117-0.359c0.621-0.239,1.146-0.565,1.573-0.979
			c0.429-0.414,0.756-0.904,0.981-1.474c0.226-0.568,0.339-1.177,0.339-1.825c0-0.705-0.144-1.285-0.431-1.74
			c-0.287-0.456-0.666-0.836-1.136-1.143c-0.471-0.305-1.006-0.561-1.603-0.768c-0.598-0.207-1.212-0.409-1.842-0.606
			c-0.631-0.197-1.245-0.418-1.843-0.662c-0.597-0.244-1.131-0.557-1.602-0.938c-0.471-0.38-0.85-0.855-1.137-1.423
			s-0.43-1.28-0.43-2.136c0-0.667,0.127-1.311,0.381-1.931s0.625-1.167,1.115-1.642c0.489-0.475,1.094-0.855,1.813-1.142
			s1.541-0.43,2.464-0.43c1.034,0,1.963,0.165,2.787,0.493c0.823,0.329,1.573,0.832,2.25,1.508L286.298,3.71z"/>
		<path fill="#0072AA" d="M296.06,6.98c0.789,0,1.52,0.136,2.191,0.409c0.672,0.273,1.254,0.669,1.748,1.191
			c0.493,0.521,0.879,1.163,1.155,1.924c0.277,0.761,0.416,1.635,0.416,2.622c0,0.206-0.03,0.348-0.092,0.422
			c-0.062,0.076-0.157,0.113-0.288,0.113H291.07v0.268c0,1.053,0.122,1.979,0.367,2.777c0.244,0.799,0.592,1.468,1.043,2.008
			c0.451,0.541,0.996,0.947,1.635,1.219c0.639,0.273,1.354,0.409,2.143,0.409c0.705,0,1.314-0.077,1.832-0.232
			c0.517-0.155,0.951-0.329,1.304-0.521s0.632-0.366,0.839-0.521s0.357-0.232,0.451-0.232c0.121,0,0.216,0.047,0.281,0.141
			l0.367,0.451c-0.227,0.282-0.524,0.545-0.896,0.79c-0.371,0.244-0.784,0.453-1.24,0.627s-0.944,0.312-1.466,0.416
			c-0.521,0.103-1.045,0.154-1.572,0.154c-0.958,0-1.832-0.167-2.621-0.5c-0.789-0.334-1.467-0.82-2.031-1.459
			c-0.566-0.639-1.003-1.422-1.312-2.347c-0.309-0.926-0.463-1.985-0.463-3.179c0-1.006,0.144-1.933,0.431-2.784
			c0.285-0.85,0.699-1.583,1.24-2.199c0.539-0.615,1.202-1.097,1.986-1.445C294.173,7.154,295.064,6.98,296.06,6.98z M296.081,7.981
			c-0.723,0-1.37,0.112-1.942,0.338s-1.067,0.55-1.484,0.973c-0.418,0.423-0.756,0.93-1.014,1.522
			c-0.258,0.592-0.43,1.254-0.514,1.988h9.232c0-0.752-0.104-1.426-0.311-2.023c-0.206-0.597-0.496-1.102-0.872-1.516
			c-0.375-0.413-0.825-0.73-1.351-0.951S296.718,7.981,296.081,7.981z"/>
		<path fill="#0072AA" d="M304.621,21.229V7.205h0.705c0.16,0,0.275,0.033,0.346,0.099c0.07,0.066,0.109,0.179,0.119,0.338
			l0.113,2.96c0.451-1.137,1.052-2.027,1.804-2.671s1.677-0.966,2.776-0.966c0.424,0,0.812,0.045,1.17,0.134
			c0.357,0.09,0.695,0.219,1.016,0.388l-0.184,0.93c-0.028,0.15-0.122,0.226-0.281,0.226c-0.057,0-0.137-0.019-0.24-0.056
			s-0.232-0.08-0.388-0.127c-0.155-0.047-0.345-0.089-0.571-0.127c-0.225-0.037-0.484-0.056-0.775-0.056
			c-1.062,0-1.933,0.329-2.614,0.986c-0.681,0.658-1.233,1.607-1.655,2.847v9.119H304.621z"/>
		<path fill="#0072AA" d="M321.444,21.229h-1.184l-5.92-14.024h1.058c0.131,0,0.236,0.035,0.316,0.105
			c0.08,0.071,0.139,0.148,0.176,0.233l4.624,11.064c0.094,0.217,0.164,0.423,0.211,0.62s0.094,0.395,0.141,0.592
			c0.047-0.197,0.097-0.396,0.148-0.599s0.12-0.406,0.204-0.613l4.651-11.064c0.047-0.104,0.11-0.186,0.19-0.247
			s0.176-0.092,0.289-0.092h1.015L321.444,21.229z"/>
		<path fill="#0072AA" d="M334.657,6.98c0.789,0,1.52,0.136,2.191,0.409c0.672,0.273,1.255,0.669,1.748,1.191
			s0.878,1.163,1.155,1.924c0.277,0.761,0.416,1.635,0.416,2.622c0,0.206-0.03,0.348-0.092,0.422
			c-0.061,0.076-0.157,0.113-0.288,0.113h-10.121v0.268c0,1.053,0.122,1.979,0.367,2.777c0.244,0.799,0.592,1.468,1.043,2.008
			c0.45,0.541,0.995,0.947,1.635,1.219c0.639,0.273,1.353,0.409,2.143,0.409c0.704,0,1.315-0.077,1.832-0.232
			s0.951-0.329,1.304-0.521s0.632-0.366,0.839-0.521c0.206-0.155,0.356-0.232,0.451-0.232c0.122,0,0.216,0.047,0.281,0.141
			l0.367,0.451c-0.226,0.282-0.524,0.545-0.896,0.79c-0.371,0.244-0.784,0.453-1.24,0.627s-0.944,0.312-1.466,0.416
			c-0.521,0.103-1.046,0.154-1.571,0.154c-0.959,0-1.833-0.167-2.622-0.5c-0.789-0.334-1.467-0.82-2.032-1.459
			c-0.564-0.639-1.002-1.422-1.311-2.347c-0.309-0.926-0.463-1.985-0.463-3.179c0-1.006,0.144-1.933,0.43-2.784
			c0.287-0.85,0.7-1.583,1.24-2.199c0.541-0.615,1.203-1.097,1.988-1.445C332.77,7.154,333.661,6.98,334.657,6.98z M334.677,7.981
			c-0.723,0-1.37,0.112-1.942,0.338s-1.067,0.55-1.484,0.973c-0.418,0.423-0.756,0.93-1.014,1.522
			c-0.258,0.592-0.43,1.254-0.514,1.988h9.232c0-0.752-0.104-1.426-0.31-2.023c-0.207-0.597-0.498-1.102-0.873-1.516
			c-0.375-0.413-0.825-0.73-1.351-0.951S335.315,7.981,334.677,7.981z"/>
		<path fill="#0072AA" d="M343.217,21.229V7.205h0.705c0.159,0,0.274,0.033,0.345,0.099c0.071,0.066,0.11,0.179,0.12,0.338
			l0.113,2.96c0.45-1.137,1.052-2.027,1.804-2.671s1.678-0.966,2.776-0.966c0.423,0,0.813,0.045,1.17,0.134
			c0.357,0.09,0.695,0.219,1.016,0.388l-0.184,0.93c-0.028,0.15-0.122,0.226-0.282,0.226c-0.056,0-0.136-0.019-0.239-0.056
			s-0.232-0.08-0.388-0.127c-0.155-0.047-0.346-0.089-0.571-0.127c-0.226-0.037-0.483-0.056-0.774-0.056
			c-1.062,0-1.934,0.329-2.615,0.986c-0.682,0.658-1.233,1.607-1.656,2.847v9.119H343.217z"/>
	</g>
</g>
</svg>
