<svg id="Layer_1" data-name="Layer 1" xmlns="http://www.w3.org/2000/svg" viewBox="0 0 285 32"><title>header_content_server_li</title><rect x="128" y="3" width="1" height="23" style="fill:#fff"/><path d="M150.095,16.869a6.962,6.962,0,0,1-.567,2.11,5.174,5.174,0,0,1-3.034,2.8,7.246,7.246,0,0,1-2.51.4,7.1,7.1,0,0,1-2.793-.525,5.574,5.574,0,0,1-2.1-1.533,7.129,7.129,0,0,1-1.334-2.467,10.812,10.812,0,0,1-.473-3.329,10.313,10.313,0,0,1,.5-3.36A7.127,7.127,0,0,1,139.2,8.49a6,6,0,0,1,2.132-1.533,6.7,6.7,0,0,1,2.656-.525,7.194,7.194,0,0,1,2.395.357A4.884,4.884,0,0,1,148.089,7.8a5.069,5.069,0,0,1,1.134,1.554,8.92,8.92,0,0,1,.662,2l-1.89.315a7.707,7.707,0,0,0-.494-1.48,3.75,3.75,0,0,0-.776-1.124,3.148,3.148,0,0,0-1.135-.7,4.713,4.713,0,0,0-1.606-.241,4.132,4.132,0,0,0-3.454,1.711,5.854,5.854,0,0,0-.914,1.953,9.526,9.526,0,0,0-.314,2.53,9.53,9.53,0,0,0,.314,2.531,5.974,5.974,0,0,0,.914,1.963,4.085,4.085,0,0,0,1.47,1.26A4.386,4.386,0,0,0,144,20.5a5.158,5.158,0,0,0,1.753-.263,3.136,3.136,0,0,0,1.2-.746,3.511,3.511,0,0,0,.745-1.155,6.619,6.619,0,0,0,.4-1.47Z" style="fill:#fff"/><path d="M157.366,22.14a5.734,5.734,0,0,1-2.2-.4,4.52,4.52,0,0,1-1.639-1.134A4.948,4.948,0,0,1,152.5,18.8a7.535,7.535,0,0,1-.357-2.394,7.16,7.16,0,0,1,.378-2.394,5.259,5.259,0,0,1,1.071-1.827,4.7,4.7,0,0,1,1.669-1.166,5.572,5.572,0,0,1,2.174-.409,5.681,5.681,0,0,1,2.184.4,4.564,4.564,0,0,1,1.648,1.145,5.014,5.014,0,0,1,1.04,1.8,7.37,7.37,0,0,1,.356,2.373,7.411,7.411,0,0,1-.367,2.415,5.218,5.218,0,0,1-1.05,1.827,4.578,4.578,0,0,1-1.67,1.165A5.694,5.694,0,0,1,157.366,22.14Zm.021-1.512a3.342,3.342,0,0,0,1.512-.315,2.823,2.823,0,0,0,1.04-.882,3.811,3.811,0,0,0,.6-1.354,7.425,7.425,0,0,0,.188-1.732,7.2,7.2,0,0,0-.188-1.7,3.709,3.709,0,0,0-.6-1.333,2.871,2.871,0,0,0-1.04-.872,3.348,3.348,0,0,0-1.512-.315,3.285,3.285,0,0,0-1.5.315,2.882,2.882,0,0,0-1.028.872,3.693,3.693,0,0,0-.6,1.333,7.922,7.922,0,0,0,0,3.444,3.906,3.906,0,0,0,.588,1.344,2.729,2.729,0,0,0,1.029.882A3.342,3.342,0,0,0,157.388,20.628Z" style="fill:#fff"/><path d="M165.1,10.947h1.806v1.659a4.853,4.853,0,0,1,1.764-1.533,4.668,4.668,0,0,1,2.037-.462,3.474,3.474,0,0,1,2.74,1.008,4.336,4.336,0,0,1,.893,2.961V21.8h-1.827V14.937a3.235,3.235,0,0,0-.546-2.131,2.126,2.126,0,0,0-1.68-.62,3.627,3.627,0,0,0-1.207.21,2.984,2.984,0,0,0-1.082.672,3.5,3.5,0,0,0-.8.977,2.829,2.829,0,0,0-.273,1.333V21.8H165.1Z" style="fill:#fff"/><path d="M177.729,12.4h-1.681V10.947h1.681V7.986h1.827v2.961h2.877V12.4h-2.877v6.363a2.1,2.1,0,0,0,.355,1.281,1.272,1.272,0,0,0,1.094.483,4.5,4.5,0,0,0,.807-.063,3.975,3.975,0,0,0,.641-.168l.316,1.407a6.485,6.485,0,0,1-.914.242,6.282,6.282,0,0,1-1.166.094,3.461,3.461,0,0,1-1.49-.273,2.209,2.209,0,0,1-.9-.777,3.036,3.036,0,0,1-.451-1.2,9.2,9.2,0,0,1-.115-1.512Z" style="fill:#fff"/><path d="M193.576,18.759a3.907,3.907,0,0,1-1.4,2.478,5.039,5.039,0,0,1-3.224.9,4.8,4.8,0,0,1-3.8-1.5,6.126,6.126,0,0,1-1.323-4.189,7.624,7.624,0,0,1,.378-2.5,5.1,5.1,0,0,1,1.061-1.827A4.567,4.567,0,0,1,186.9,11a5.853,5.853,0,0,1,4.221.011,3.943,3.943,0,0,1,1.48,1.1,4.681,4.681,0,0,1,.861,1.669,7.53,7.53,0,0,1,.283,2.121v.924h-8.063a5.081,5.081,0,0,0,.22,1.522,3.741,3.741,0,0,0,.63,1.218,2.882,2.882,0,0,0,1.019.808,3.2,3.2,0,0,0,1.407.294,3.138,3.138,0,0,0,2-.515,2.594,2.594,0,0,0,.861-1.4Zm-1.659-3.3a5.449,5.449,0,0,0-.168-1.407,2.96,2.96,0,0,0-.524-1.082,2.393,2.393,0,0,0-.925-.7,3.346,3.346,0,0,0-1.364-.252,2.907,2.907,0,0,0-2.258.882,4.234,4.234,0,0,0-.955,2.562Z" style="fill:#fff"/><path d="M196.193,10.947H198v1.659a4.853,4.853,0,0,1,1.764-1.533,4.671,4.671,0,0,1,2.037-.462,3.476,3.476,0,0,1,2.741,1.008,4.341,4.341,0,0,1,.893,2.961V21.8h-1.827V14.937a3.241,3.241,0,0,0-.546-2.131,2.128,2.128,0,0,0-1.681-.62,3.627,3.627,0,0,0-1.207.21,2.984,2.984,0,0,0-1.082.672,3.5,3.5,0,0,0-.8.977,2.842,2.842,0,0,0-.272,1.333V21.8h-1.827Z" style="fill:#fff"/><path d="M208.826,12.4h-1.68V10.947h1.68V7.986h1.827v2.961h2.877V12.4h-2.877v6.363a2.1,2.1,0,0,0,.356,1.281,1.27,1.27,0,0,0,1.093.483,4.508,4.508,0,0,0,.808-.063,4.03,4.03,0,0,0,.641-.168l.315,1.407a6.415,6.415,0,0,1-.914.242,6.271,6.271,0,0,1-1.165.094,3.465,3.465,0,0,1-1.491-.273,2.221,2.221,0,0,1-.9-.777,3.036,3.036,0,0,1-.451-1.2,9.2,9.2,0,0,1-.115-1.512Z" style="fill:#fff"/><path d="M221.51,17.541a3.261,3.261,0,0,0,1.25,2.279,5.153,5.153,0,0,0,2.971.7,5.273,5.273,0,0,0,1.648-.221,2.885,2.885,0,0,0,1.061-.588,2.058,2.058,0,0,0,.567-.861,3.193,3.193,0,0,0,.168-1.04,3.393,3.393,0,0,0-.105-.85,1.739,1.739,0,0,0-.409-.746,2.626,2.626,0,0,0-.84-.588,5.509,5.509,0,0,0-1.376-.4l-1.89-.336a11.221,11.221,0,0,1-1.974-.5,4.941,4.941,0,0,1-1.46-.809,3.1,3.1,0,0,1-.9-1.229,4.658,4.658,0,0,1-.3-1.785,3.666,3.666,0,0,1,.431-1.806,3.906,3.906,0,0,1,1.165-1.3,5.091,5.091,0,0,1,1.743-.777,8.985,8.985,0,0,1,2.184-.252,8.131,8.131,0,0,1,2.488.326,4.664,4.664,0,0,1,1.628.872,3.7,3.7,0,0,1,.955,1.25A7.256,7.256,0,0,1,231,10.317l-1.807.357a5.267,5.267,0,0,0-.43-1.124,2.465,2.465,0,0,0-.693-.819,3.038,3.038,0,0,0-1.061-.494,6.035,6.035,0,0,0-1.533-.168,6.657,6.657,0,0,0-1.722.189,3.163,3.163,0,0,0-1.113.515,1.825,1.825,0,0,0-.6.777,2.573,2.573,0,0,0-.178.956,3.032,3.032,0,0,0,.136.956,1.7,1.7,0,0,0,.462.714,2.567,2.567,0,0,0,.851.5,7.807,7.807,0,0,0,1.3.347l2.1.378a6.832,6.832,0,0,1,3.423,1.459,3.9,3.9,0,0,1,1.092,2.992,4.16,4.16,0,0,1-.346,1.691,3.852,3.852,0,0,1-1.029,1.375,4.923,4.923,0,0,1-1.712.924,7.8,7.8,0,0,1-2.415.336,10.212,10.212,0,0,1-2.4-.262,5.412,5.412,0,0,1-1.879-.83,4.254,4.254,0,0,1-1.281-1.449,5.257,5.257,0,0,1-.588-2.1Z" style="fill:#fff"/><path d="M243.041,18.759a3.907,3.907,0,0,1-1.4,2.478,5.039,5.039,0,0,1-3.224.9,4.8,4.8,0,0,1-3.8-1.5,6.126,6.126,0,0,1-1.323-4.189,7.624,7.624,0,0,1,.378-2.5,5.1,5.1,0,0,1,1.061-1.827A4.567,4.567,0,0,1,236.363,11a5.853,5.853,0,0,1,4.221.011,3.943,3.943,0,0,1,1.48,1.1,4.681,4.681,0,0,1,.861,1.669,7.53,7.53,0,0,1,.283,2.121v.924h-8.063a5.081,5.081,0,0,0,.22,1.522,3.741,3.741,0,0,0,.63,1.218,2.882,2.882,0,0,0,1.019.808,3.2,3.2,0,0,0,1.407.294,3.138,3.138,0,0,0,2-.515,2.594,2.594,0,0,0,.861-1.4Zm-1.659-3.3a5.449,5.449,0,0,0-.168-1.407,2.96,2.96,0,0,0-.524-1.082,2.393,2.393,0,0,0-.925-.7,3.346,3.346,0,0,0-1.364-.252,2.907,2.907,0,0,0-2.258.882,4.234,4.234,0,0,0-.955,2.562Z" style="fill:#fff"/><path d="M245.657,10.947h1.806v1.68a4.48,4.48,0,0,1,1.428-1.386,3.378,3.378,0,0,1,1.743-.483,4.786,4.786,0,0,1,.966.084l-.23,1.7c-.141-.028-.28-.052-.42-.073a3.13,3.13,0,0,0-.462-.032,3.2,3.2,0,0,0-1.029.179,2.811,2.811,0,0,0-.987.6,2.988,2.988,0,0,0-.725.924,2.692,2.692,0,0,0-.262,1.218V21.8h-1.827Z" style="fill:#fff"/><path d="M252.838,10.947h2.12l3.234,8.82,3.3-8.82h2.017L259.138,21.8h-1.953Z" style="fill:#fff"/><path d="M274.112,18.759a3.907,3.907,0,0,1-1.4,2.478,5.039,5.039,0,0,1-3.224.9,4.8,4.8,0,0,1-3.8-1.5,6.126,6.126,0,0,1-1.323-4.189,7.624,7.624,0,0,1,.378-2.5,5.1,5.1,0,0,1,1.061-1.827A4.567,4.567,0,0,1,267.435,11a5.853,5.853,0,0,1,4.221.011,3.943,3.943,0,0,1,1.48,1.1A4.681,4.681,0,0,1,274,13.782a7.53,7.53,0,0,1,.283,2.121v.924h-8.063a5.081,5.081,0,0,0,.22,1.522,3.741,3.741,0,0,0,.63,1.218,2.882,2.882,0,0,0,1.019.808,3.2,3.2,0,0,0,1.407.294,3.138,3.138,0,0,0,2-.515,2.594,2.594,0,0,0,.861-1.4Zm-1.659-3.3a5.449,5.449,0,0,0-.168-1.407,2.96,2.96,0,0,0-.524-1.082,2.393,2.393,0,0,0-.925-.7,3.346,3.346,0,0,0-1.364-.252,2.907,2.907,0,0,0-2.258.882,4.234,4.234,0,0,0-.955,2.562Z" style="fill:#fff"/><path d="M276.729,10.947h1.806v1.68a4.48,4.48,0,0,1,1.428-1.386,3.378,3.378,0,0,1,1.743-.483,4.786,4.786,0,0,1,.966.084l-.23,1.7c-.141-.028-.28-.052-.42-.073a3.13,3.13,0,0,0-.462-.032,3.2,3.2,0,0,0-1.029.179,2.811,2.811,0,0,0-.987.6,2.988,2.988,0,0,0-.725.924,2.692,2.692,0,0,0-.262,1.218V21.8h-1.827Z" style="fill:#fff"/><path d="M17.063,14.558c0,3.78-2.176,7.874-8.017,7.874C4.837,22.432,1,20.084,1,14.558c0-4.581,2.892-8.1,8.619-7.788C15.718,7.113,17.063,11.837,17.063,14.558ZM6.183,11.681a5.191,5.191,0,0,0-.744,2.849c0,2.319,1.145,4.419,3.608,4.419,2.377,0,3.55-1.932,3.55-4.223a4.866,4.866,0,0,0-1.231-3.66,3.25,3.25,0,0,0-2.577-.81A2.989,2.989,0,0,0,6.183,11.681Z" style="fill:#fff"/><path d="M56.147,8.459a4.3,4.3,0,0,1,1.489-1.174,7.3,7.3,0,0,1,2.72-.515,5.653,5.653,0,0,1,2.663.572c1.575.83,1.976,2.176,1.976,4.5V22.059H60.614V13.641a5.986,5.986,0,0,0-.2-2.233,2,2,0,0,0-1.976-1.145c-2.319,0-2.319,1.861-2.319,3.722v8.075h-4.41V7.141h4.438Z" style="fill:#fff"/><path d="M49.615,18.2c-.4.851-1.7,4.233-7.445,4.233-4.438,0-7.559-2.715-7.559-7.612,0-3.608,1.775-8.051,7.674-8.051a6.883,6.883,0,0,1,5.383,1.952c1.947,2.09,2.062,5.011,2.119,6.7H39.107a3.366,3.366,0,0,0,3.407,3.722,3.955,3.955,0,0,0,3.78-2.634Zm-4.381-5.526a3.555,3.555,0,0,0-.83-2.119,3.105,3.105,0,0,0-2.148-.83,3.032,3.032,0,0,0-2.233.974,3.905,3.905,0,0,0-.888,1.976Z" style="fill:#fff"/><path d="M110.926,10.238h2.921v-3.1h-2.892V4h-4.381V7.141h-.695l-2.006,3.1h2.7v7.1a5.783,5.783,0,0,0,.63,3.379c.945,1.374,2.606,1.46,4.123,1.46a14.089,14.089,0,0,0,2.319-.229V18.509l-1.575.057c-1.174,0-1.174-.773-1.145-1.689Z" style="fill:#fff"/><path d="M67.189,4H71.57V7.142h4.553l-2.005,3.1H71.541v6.638c-.029.916-.029,1.689,1.145,1.689l1.575-.057v3.436a14.089,14.089,0,0,1-2.319.229c-1.518,0-3.178-.086-4.123-1.46a5.783,5.783,0,0,1-.63-3.379Z" style="fill:#fff"/><path d="M117.905,10.239h-.541V7.6h-1V7.141h2.519V7.6h-.98Zm4.245,0h-.532l.019-1.912.028-.634-.149.522-.634,2.024H120.4l-.625-2.024-.159-.513.037.625.019,1.912h-.522v-3.1h.737l.774,2.444.756-2.444h.737Z" style="fill:#fff"/><path d="M89.926,18.212l-.839,1.3c-.785,1.152-2.263,2.924-6.5,2.924-4.438,0-7.42-2.715-7.42-7.612,0-3.608,1.775-8.051,7.674-8.051a6.883,6.883,0,0,1,5.383,1.952c1.947,2.09,2.062,5.011,2.119,6.7H79.667c-.029,1.861.891,3.722,3.268,3.722,2.405,0,3.1-1.575,3.64-2.634Zm-4.131-5.54a3.555,3.555,0,0,0-.83-2.119,3.105,3.105,0,0,0-2.148-.83,3.032,3.032,0,0,0-2.233.974,3.905,3.905,0,0,0-.888,1.976Z" style="fill:#fff"/><polygon points="104.935 22.061 99.458 14.208 104.026 7.141 99.012 7.141 96.856 10.477 94.529 7.141 89.515 7.141 94.444 14.208 89.368 22.061 94.382 22.061 97.046 17.939 99.922 22.061 104.935 22.061" style="fill:#fff"/><path d="M23.123,8.459a4.784,4.784,0,0,1,3.922-1.689c3.665,0,6.243,2.777,6.243,7.76,0,3.064-1.116,7.9-6.427,7.9a4.771,4.771,0,0,1-3.766-1.689V27h-4.41V7.141h4.438ZM26.1,10.212a2.819,2.819,0,0,0-2.262,1.119,5.26,5.26,0,0,0-.916,3.278,5.014,5.014,0,0,0,1.059,3.438,2.7,2.7,0,0,0,1.976.9c2.148,0,3.092-2.262,3.092-4.447,0-1.839-.544-3.784-2.348-4.21A2.332,2.332,0,0,0,26.1,10.212Z" style="fill:#fff"/></svg>