<?xml version="1.0" encoding="utf-8"?>
<!-- Generator: Adobe Illustrator 19.2.1, SVG Export Plug-In . SVG Version: 6.00 Build 0)  -->
<svg version="1.1" id="Layer_1" xmlns="http://www.w3.org/2000/svg" xmlns:xlink="http://www.w3.org/1999/xlink" x="0px" y="0px"
	 viewBox="0 0 275 38" style="enable-background:new 0 0 275 38;" xml:space="preserve">
<style type="text/css">
	.st0{fill:#FFFFFF;}
</style>
<g>
	<g>
		<g>
			<path class="st0" d="M17.488,34.56c-5.639,0-10.813-4.519-10.813-15.674C6.675,7.316,12.309,3.2,17.488,3.2
				c5.178,0,10.809,4.117,10.809,15.686C28.297,30.041,23.122,34.56,17.488,34.56 M17.83,36.392c9.182,0,16.592-6.648,16.592-17.455
				c0-11.672-8.279-17.565-16.592-17.565c-8.33,0-16.603,5.894-16.603,17.565C1.227,29.744,8.643,36.392,17.83,36.392"/>
		</g>
		<g>
			<path class="st0" d="M45.787,10.621c0-1.418,0.557-1.464,2.074-1.464c2.235,0,9.643,0.083,9.643,6.26
				c0,6.55-6.797,6.55-8.679,6.55c-1.052,0-2.077-0.039-3.038-0.126C45.787,21.841,45.787,10.621,45.787,10.621z M36.521,8.388
				c3.7,0.298,4.26,0.816,4.26,3.874v18.68c0,3.106,0,4.094-4.26,4.356v0.818h14.203v-0.818c-3.91-0.088-4.767-0.731-4.767-3.882
				v-7.851c1.218,0.09,2.18,0.125,3.393,0.125c5.334,0,8.58-0.77,10.76-2.539c0.858-0.691,3.102-2.457,3.102-5.823
				c0-5.486-6.297-7.762-13.301-7.762h-13.39C36.521,7.566,36.521,8.388,36.521,8.388z"/>
		</g>
		<g>
			<path class="st0" d="M91.282,36.117H63.883v-0.818c3.246-0.172,4.419-0.568,4.419-3.882V12.262c0-3.403-1.222-3.671-4.419-3.874
				V7.565h26.939l0.156,6.163h-1.265C88.952,9.891,87.633,9.204,82,9.204h-6.855c-1.066,0-1.668,0-1.668,1.461v9.577h7.813
				c4.506,0,5.026-1.039,5.578-4.096h1.175v10.01h-1.175c-0.601-3.448-1.371-4.055-5.578-4.103l-7.813-0.085V32.66
				c0,1.769,0,1.818,7.56,1.818c6.343,0,8.876-1.295,11.116-5.656h1.412L91.282,36.117z"/>
		</g>
		<g>
			<path class="st0" d="M129.914,8.388c-3.197,0.298-4.82,0.471-4.82,5.519v22.688h-0.86l-22.328-23.641H101.8V29.77
				c0,4.452,1.072,5.396,4.774,5.529v0.818H94.641v-0.818c3.864-0.214,4.929-0.87,4.929-5.529V10.75
				c-2.079-2.159-2.895-2.362-4.929-2.362V7.565h8.684l19.435,20.739h0.1V13.907c0-4.967-1.42-5.316-4.869-5.519V7.565h11.923
				L129.914,8.388L129.914,8.388z"/>
		</g>
		<g>
			<path class="st0" d="M156.022,36.121h-16.04V35.31c4.998-0.217,5.163-1.488,5.418-5.54V4.469h-3.815
				c-6.051,0-7.524,1.056-8.73,7.034h-1.324l0.331-9.095h32.178l0.322,9.095h-1.303c-1.164-6.047-2.709-7.034-8.74-7.034h-3.57v25.9
				c0,3.736,0.652,4.775,5.272,4.941v0.811H156.022z"/>
		</g>
		<g>
			<path class="st0" d="M193.346,36.117h-27.404v-0.818c3.249-0.172,4.408-0.568,4.408-3.882V12.262c0-3.403-1.22-3.671-4.408-3.874
				V7.565h26.944l0.153,6.163h-1.275c-0.754-3.837-2.07-4.525-7.71-4.525h-6.856c-1.059,0-1.672,0-1.672,1.461v9.577h7.811
				c4.522,0,5.028-1.039,5.593-4.096h1.168v10.01h-1.168c-0.608-3.448-1.38-4.055-5.593-4.103l-7.811-0.085V32.66
				c0,1.769,0,1.818,7.569,1.818c6.334,0,8.877-1.295,11.107-5.656h1.429L193.346,36.117z"/>
		</g>
		<g>
			<path class="st0" d="M230.816,8.388c-2.69,0.164-4.012,0.298-7.568,4.046l-7.403,7.848l9.743,11.826
				c1.984,2.371,2.992,2.977,5.643,3.191v0.818h-15.09v-0.818c2.537-0.132,3.911-0.132,3.911-1.465c0-0.78-1.778-3.099-2.586-4.106
				l-4.823-6.038l-6.032,6.386c-1.065,1.128-2.638,2.813-2.638,3.628c0,1.381,1.875,1.507,3.858,1.595v0.818h-11.832v-0.818
				c2.791-0.172,3.351-0.731,7.369-4.919l7.959-8.327l-5.531-6.9c-5.174-6.466-6.242-6.561-9.188-6.764V7.565h15.332v0.823
				c-2.648,0.033-3.858,0.078-3.858,1.375c0,0.858,0.912,2.283,4.309,6.382l2.132,2.548l5.742-5.954
				c1.158-1.258,2.027-2.118,2.027-2.93c0-1.343-1.832-1.389-3.553-1.422V7.565h12.078v0.823H230.816z"/>
		</g>
		<g>
			<path class="st0" d="M253.872,36.117h-14.814v-0.818c4.613-0.172,4.768-1.171,4.768-4.356V9.366h-1.884
				c-5.582,0-6.956,0.829-8.071,5.528h-1.229l0.307-7.329h26.92l0.299,7.329h-1.225c-1.052-4.749-2.482-5.528-8.059-5.528h-1.885
				v22.05c0,2.936,0.604,3.75,4.874,3.882v0.819H253.872z"/>
		</g>
	</g>
	<g>
		<path class="st0" d="M265.834,2.42v0.572h-1.617v4.227h-0.657V2.992h-1.617V2.42H265.834z"/>
		<path class="st0" d="M266.415,2.42h0.931l1.38,4.057l1.37-4.057h0.925v4.798H270.4V4.387c0-0.098,0.002-0.26,0.007-0.487
			c0.004-0.226,0.007-0.469,0.007-0.728l-1.37,4.047H268.4l-1.383-4.047v0.147c0,0.118,0.003,0.297,0.01,0.537
			c0.007,0.241,0.01,0.418,0.01,0.531v2.832h-0.621L266.415,2.42L266.415,2.42z"/>
	</g>
</g>
</svg>
