<?xml version="1.0" encoding="utf-8"?>
<!-- Generator: Adobe Illustrator 21.0.0, SVG Export Plug-In . SVG Version: 6.00 Build 0)  -->
<!DOCTYPE svg PUBLIC "-//W3C//DTD SVG 1.1//EN" "http://www.w3.org/Graphics/SVG/1.1/DTD/svg11.dtd">
<svg version="1.1" id="Layer_1" xmlns="http://www.w3.org/2000/svg" xmlns:xlink="http://www.w3.org/1999/xlink" x="0px" y="0px"
	 viewBox="-1 -5 24 24" enable-background="new -1 -5 24 24" xml:space="preserve">
<g id="New_Symbol_16">
	<g>
		<path fill="#CCCCCC" d="M1.667,18.333c-1.103,0-2-0.897-2-2V-2.333c0-1.103,0.897-2,2-2h18.667c1.103,0,2,0.897,2,2v18.667
			c0,1.103-0.897,2-2,2H1.667z"/>
		<path fill="#A9A9A9" d="M20.333-3.667c0.735,0,1.333,0.598,1.333,1.333v18.667c0,0.735-0.598,1.333-1.333,1.333H1.667
			c-0.735,0-1.333-0.598-1.333-1.333V-2.333c0-0.735,0.598-1.333,1.333-1.333H20.333 M20.333-5H1.667C0.2-5-1-3.8-1-2.333v18.667
			C-1,17.8,0.2,19,1.667,19h18.667C21.8,19,23,17.8,23,16.333V-2.333C23-3.8,21.8-5,20.333-5L20.333-5z"/>
	</g>
</g>
</svg>
