<svg version="1.1" xmlns="http://www.w3.org/2000/svg" xmlns:xlink="http://www.w3.org/1999/xlink" x="0px" y="0px" viewBox="0 0 32 32" style="enable-background:new 0 0 32 32;" xml:space="preserve"><circle cx="16" cy="16" r="14" fill="#a0a4bc" stroke="#a0a4bc"/><path d="M22.765,21.46l-3.259-3.253c1.862-2.556,1.339-6.158-1.222-8.076
	c-2.561-1.917-6.227-1.336-8.147,1.278c-1.92,2.614-1.338,6.158,1.222,8.076c0.989,0.697,2.212,1.104,3.434,1.104
	s2.444-0.407,3.434-1.104l3.259,3.253c0.349,0.348,0.873,0.348,1.222,0C23.056,22.39,23.115,21.809,22.765,21.46z M14.793,18.788
	c-2.211,0-4.016-1.801-4.016-4.009c0-2.208,1.804-4.009,4.016-4.009c2.211,0,4.016,1.801,4.016,4.009
	C18.808,16.987,17.004,18.788,14.793,18.788z" fill="#414979"/><circle cx="16" cy="16" r="15.5" fill="none" stroke="none"/></svg>