<svg version="1.1" xmlns="http://www.w3.org/2000/svg" xmlns:xlink="http://www.w3.org/1999/xlink" x="0px" y="0px" viewBox="0 0 32 32" style="enable-background:new 0 0 32 32;" xml:space="preserve"><circle cx="16" cy="16" r="14" fill="none" stroke="none"/><path d="M22.85,17.15c0.635,0,1.15-0.515,1.15-1.15c0-0.635-0.515-1.15-1.15-1.15h-1.229
	c-0.154-0.727-0.445-1.403-0.845-2l0.88-0.88c0.449-0.449,0.449-1.177,0-1.626c-0.449-0.449-1.177-0.449-1.626,0l-0.892,0.892
	c-0.596-0.389-1.267-0.674-1.989-0.821V9.15C17.15,8.515,16.635,8,16,8c-0.635,0-1.15,0.515-1.15,1.15v1.265
	c-0.722,0.146-1.393,0.431-1.989,0.821l-0.892-0.892c-0.449-0.449-1.177-0.449-1.626,0c-0.449,0.449-0.449,1.177,0,1.626
	l0.881,0.881c-0.4,0.597-0.691,1.273-0.845,2H9.15C8.515,14.85,8,15.365,8,16c0,0.635,0.515,1.15,1.15,1.15h1.21
	c0.144,0.74,0.43,1.428,0.828,2.037l-0.844,0.844c-0.449,0.449-0.449,1.177,0,1.626c0.449,0.449,1.177,0.449,1.626,0l0.833-0.833
	c0.61,0.409,1.303,0.705,2.049,0.857v1.17c0,0.635,0.515,1.15,1.15,1.15c0.635,0,1.15-0.515,1.15-1.15v-1.17
	c0.746-0.152,1.439-0.448,2.049-0.857l0.833,0.833c0.449,0.449,1.177,0.449,1.626,0c0.449-0.449,0.449-1.177,0-1.626l-0.844-0.844
	c0.398-0.609,0.684-1.297,0.828-2.037H22.85z M16,19.497c-1.901,0-3.449-1.548-3.449-3.449c0-1.902,1.547-3.449,3.449-3.449
	s3.449,1.547,3.449,3.449C19.449,17.949,17.902,19.497,16,19.497z" fill="#333333"/><circle cx="16" cy="16" r="15.5" fill="none" stroke="#2e3d98"/></svg>