<svg version="1.1" xmlns="http://www.w3.org/2000/svg" xmlns:xlink="http://www.w3.org/1999/xlink" x="0px" y="0px" viewBox="0 0 32 32" style="enable-background:new 0 0 32 32;" xml:space="preserve"><circle cx="16" cy="16" r="14" fill="none" stroke="none"/><g><path d="M22.501,22.263h-1.433c1.841-1.52,2.93-3.832,2.93-6.262c0-4.055-2.947-7.491-6.855-7.993
		C17.107,8.003,17.069,8,17.03,8c-0.423,0-0.782,0.327-0.836,0.761c-0.057,0.475,0.273,0.911,0.739,0.971
		c3.058,0.392,5.365,3.087,5.365,6.269c0,2.175-1.042,4.14-2.799,5.304v-2.108c0-0.479-0.381-0.869-0.852-0.869
		c-0.469,0-0.85,0.389-0.85,0.869v4.672V24h0.128h4.576c0.469,0,0.85-0.389,0.85-0.868C23.353,22.652,22.972,22.263,22.501,22.263z" fill="#333333"/><path d="M15.068,22.269c-3.06-0.392-5.366-3.087-5.366-6.269c0-2.175,1.042-4.14,2.799-5.304v2.108
		c0,0.479,0.381,0.868,0.851,0.868c0.469,0,0.851-0.389,0.851-0.868V8.132V8.001h-0.129H9.498c-0.469,0-0.851,0.389-0.851,0.869
		c0,0.479,0.381,0.868,0.851,0.868h1.433C9.09,11.259,8,13.571,8,16c0,4.055,2.947,7.491,6.855,7.993
		C14.892,23.997,14.927,24,14.962,24c0.427,0,0.79-0.327,0.844-0.76C15.865,22.764,15.533,22.329,15.068,22.269z" fill="#333333"/></g><circle cx="16" cy="16" r="15.5" fill="none" stroke="none"/></svg>