<svg version="1.1" xmlns="http://www.w3.org/2000/svg" xmlns:xlink="http://www.w3.org/1999/xlink" x="0px" y="0px" viewBox="0 0 32 32" style="enable-background:new 0 0 32 32;" xml:space="preserve"><circle cx="16" cy="16" r="14" fill="none" stroke="none"/><path d="M19.5,11.8c-0.387,0-0.7,0.313-0.7,0.7V21c0,1.546-1.254,2.8-2.8,2.8s-2.8-1.254-2.8-2.8V10
	c0-0.994,0.806-1.8,1.8-1.8c0.994,0,1.8,0.806,1.8,1.8v11c0,0.442-0.358,0.8-0.8,0.8s-0.8-0.358-0.8-0.8v-5.5
	c0-0.387-0.313-0.7-0.7-0.7s-0.7,0.313-0.7,0.7V21c0,1.215,0.985,2.2,2.2,2.2c1.215,0,2.2-0.985,2.2-2.2V10
	c0-1.767-1.433-3.2-3.2-3.2s-3.2,1.433-3.2,3.2v11c0,2.32,1.88,4.2,4.2,4.2s4.2-1.88,4.2-4.2v-8.5
	C20.2,12.113,19.887,11.8,19.5,11.8z" fill-rule="evenodd" clip-rule="evenodd" fill="#333333"/><circle cx="16" cy="16" r="15.5" fill="none" stroke="#2e3d98"/></svg>