<svg version="1.1" xmlns="http://www.w3.org/2000/svg" xmlns:xlink="http://www.w3.org/1999/xlink" x="0px" y="0px" viewBox="0 0 32 32" style="enable-background:new 0 0 32 32;" xml:space="preserve"><circle cx="16" cy="16" r="14" fill="#cccccc" stroke="#cccccc"/><g><path d="M25.753,15.319c-0.169,0.16-0.38,0.245-0.599,0.245s-0.43-0.084-0.599-0.245l-1.088-1.097v0.498
		c0,3.72-3.028,6.749-6.748,6.749h-0.498l1.097,1.088c0.329,0.329,0.329,0.869,0,1.198C17.15,23.916,16.939,24,16.72,24
		s-0.43-0.084-0.599-0.245L13,20.626l3.121-3.13c0.329-0.329,0.869-0.329,1.198,0c0.329,0.329,0.329,0.869,0,1.198l-1.097,1.088
		h0.498c2.792,0,5.061-2.269,5.061-5.062v-0.498l-1.088,1.097c-0.329,0.329-0.869,0.329-1.198,0c-0.329-0.329-0.329-0.869,0-1.198
		L22.624,11l3.129,3.121C26.082,14.45,26.082,14.991,25.753,15.319z" fill="#333333"/><path d="M12.504,7c-1.011,0-1.725,0.359-2.145,0.661C9.846,8.029,9.483,8.511,9.365,8.983
		C9.351,9.039,9.23,9.525,9.199,10.115c-0.019,0.356-0.002,0.671,0.05,0.939c0.008,0.042,0.016,0.079,0.025,0.115l0.039,0.15
		l-0.078,0.133c-0.065,0.112-0.115,0.343-0.061,0.653c0.033,0.185,0.102,0.361,0.188,0.483c0.064,0.092,0.125,0.135,0.16,0.145
		l0.215,0.06l0.047,0.22c0.117,0.55,0.3,1.03,0.545,1.424c0.174,0.28,0.385,0.521,0.622,0.718l0.232,0.192l-0.139,0.268
		c-0.066,0.127-0.14,0.241-0.225,0.34c-0.157,0.189-0.348,0.335-0.567,0.435c-0.348,0.156-0.808,0.246-1.295,0.34h0l-0.001,0
		c-0.544,0.104-1.158,0.223-1.654,0.451c-0.529,0.246-0.838,0.574-0.972,1.032c-0.218,0.744-0.248,1.077-0.292,1.7
		C6.01,20.059,6,20.139,6,20.214v0.698C6.016,21.522,6.498,22,7.078,22h5.88l-0.666-0.668l-0.704-0.706l0.704-0.706l3.121-3.13
		l0.001-0.001c0.054-0.054,0.111-0.105,0.171-0.151c-0.311-0.067-0.597-0.142-0.83-0.247c-0.222-0.101-0.414-0.247-0.569-0.437
		c-0.079-0.095-0.156-0.21-0.223-0.34l-0.14-0.268l0.232-0.193c0.237-0.196,0.446-0.437,0.62-0.717
		c0.244-0.391,0.428-0.871,0.544-1.424l0.046-0.219l0.213-0.061c0.035-0.01,0.096-0.054,0.16-0.144
		c0.086-0.124,0.154-0.299,0.187-0.483c0.055-0.308,0.005-0.539-0.06-0.651l-0.076-0.132l0.065-0.267
		c0.052-0.269,0.07-0.585,0.052-0.939c-0.033-0.615-0.161-1.118-0.163-1.123c-0.119-0.48-0.481-0.962-0.994-1.328
		C14.227,7.36,13.513,7,12.504,7z" opacity="0.9" fill-rule="evenodd" clip-rule="evenodd" fill="#333333" enable-background="new"/></g><circle cx="16" cy="16" r="15.5" fill="none" stroke="none"/></svg>