<svg version="1.1" xmlns="http://www.w3.org/2000/svg" xmlns:xlink="http://www.w3.org/1999/xlink" x="0px" y="0px" viewBox="0 0 32 32" style="enable-background:new 0 0 32 32;" xml:space="preserve"><circle cx="16" cy="16" r="14" fill="none" stroke="none"/><path d="M22.4,12.5H9.6c-0.331,0-0.6-0.336-0.6-0.75S9.269,11,9.6,11h12.8c0.331,0,0.6,0.336,0.6,0.75
	S22.731,12.5,22.4,12.5z M23.53,16.5H9.685C9.307,16.5,9,16.164,9,15.75S9.307,15,9.685,15H23.53c0.378,0,0.684,0.336,0.684,0.75
	S23.908,16.5,23.53,16.5z M9.628,20.5h10.785c0.346,0,0.628-0.336,0.628-0.75S20.759,19,20.412,19H9.628C9.281,19,9,19.336,9,19.75
	S9.281,20.5,9.628,20.5z" fill-rule="evenodd" clip-rule="evenodd" fill="#ffffff"/><circle cx="16" cy="16" r="15.5" fill="none" stroke="#cccccc"/></svg>