<svg version="1.1" xmlns="http://www.w3.org/2000/svg" xmlns:xlink="http://www.w3.org/1999/xlink" x="0px" y="0px" viewBox="0 0 32 32" style="enable-background:new 0 0 32 32;" xml:space="preserve"><circle cx="16" cy="16" r="14" fill="#cccccc" stroke="#cccccc"/><g><path d="M14,23.444V12.556C14,11.696,14.703,11,15.571,11h7.072L25,13.333v10.111C25,24.304,24.297,25,23.429,25
		h-7.857C14.703,25,14,24.304,14,23.444z M17.671,15.665c-0.185-0.371-0.636-0.521-1.006-0.335
		c-0.371,0.185-0.521,0.636-0.335,1.006l2.5,5c0.127,0.254,0.387,0.415,0.671,0.415s0.544-0.16,0.671-0.415l2.5-5
		c0.185-0.37,0.035-0.821-0.335-1.006c-0.371-0.185-0.821-0.035-1.006,0.335L19.5,19.323L17.671,15.665z" fill-rule="evenodd" clip-rule="evenodd" fill="#333333"/><path d="M7,8.556v10.889C7,20.304,7.703,21,8.571,21H13v-8.444C13,11.134,14.16,10,15.571,10H18V9.333L15.643,7H8.571
		C7.703,7,7,7.696,7,8.556z" opacity="0.6" fill-rule="evenodd" clip-rule="evenodd" fill="#333333" enable-background="new"/></g><circle cx="16" cy="16" r="15.5" fill="none" stroke="none"/></svg>