<svg version="1.1" xmlns="http://www.w3.org/2000/svg" xmlns:xlink="http://www.w3.org/1999/xlink" x="0px" y="0px" viewBox="0 0 32 32" style="enable-background:new 0 0 32 32;" xml:space="preserve"><circle cx="16" cy="16" r="14" fill="#f3fbff" stroke="#f3fbff"/><g><path d="M25.706,12.898L23,24H6l2.758-11.195C9.07,12,9.656,12,10.5,12h14.409C25.497,12,25.907,12.335,25.706,12.898z
		 M19.571,16.714c0-0.395,0.32-0.714,0.714-0.714S21,16.319,21,16.714V21h-4.286C16.32,21,16,20.68,16,20.285
		s0.32-0.714,0.714-0.714h1.964c-2.614-2.893-3.406-3.616-6.958-3.571h-0.006c-0.392,0-0.711-0.316-0.714-0.709
		c-0.003-0.395,0.314-0.717,0.709-0.72c4.068-0.041,5.301,1.038,7.863,3.859V16.714z" fill-rule="evenodd" clip-rule="evenodd" fill="#333333"/><path d="M6,19.819l1.802-7.316l0.023-0.06c0.25-0.643,0.677-1.08,1.277-1.287c0.455-0.157,0.966-0.156,1.329-0.156
		H10.5h12.467l0.001-1.212c0-0.53-0.22-0.871-0.718-0.871h-6.898c-0.04,0-0.079,0.001-0.118,0.002
		c-0.187,0.006-0.364,0.011-0.513-0.114L12.45,7.333c-0.18-0.151-0.403-0.293-0.631-0.293H6.846C6.35,7.04,6,7.515,6,8.045V19.819z
		 M10.497,12c-0.421,0-0.778,0-1.068,0.101C9.719,12,10.076,12,10.497,12L10.497,12z" opacity="0.5" fill-rule="evenodd" clip-rule="evenodd" fill="#333333" enable-background="new"/></g><circle cx="16" cy="16" r="15.5" fill="none" stroke="none"/></svg>