<svg version="1.1" xmlns="http://www.w3.org/2000/svg" xmlns:xlink="http://www.w3.org/1999/xlink" x="0px" y="0px" viewBox="0 0 32 32" style="enable-background:new 0 0 32 32;" xml:space="preserve"><circle cx="16" cy="16" r="14" fill="#a0a4bc" stroke="#a0a4bc"/><path d="M22,14.5h-0.75v-2.475c-0.004-1.331-0.535-2.607-1.477-3.548C18.832,7.535,17.556,7.004,16.225,7
	h-0.45c-1.331,0.004-2.607,0.535-3.548,1.477c-0.941,0.941-1.472,2.217-1.477,3.548V14.5H10c-0.199,0-0.39,0.079-0.53,0.22
	c-0.141,0.141-0.22,0.331-0.22,0.53v9c0,0.199,0.079,0.39,0.22,0.53C9.61,24.921,9.801,25,10,25h12c0.199,0,0.39-0.079,0.53-0.22
	c0.141-0.141,0.22-0.331,0.22-0.53v-9c0-0.199-0.079-0.39-0.22-0.53C22.39,14.579,22.199,14.5,22,14.5z M12.25,12.025
	c0.001-0.934,0.373-1.83,1.034-2.491c0.661-0.661,1.556-1.033,2.491-1.034h0.45c0.934,0.001,1.83,0.373,2.491,1.034
	c0.661,0.661,1.033,1.557,1.034,2.491V14.5h-7.5V12.025z" fill="#414979"/><circle cx="16" cy="16" r="15.5" fill="none" stroke="none"/></svg>