<svg version="1.1" xmlns="http://www.w3.org/2000/svg" xmlns:xlink="http://www.w3.org/1999/xlink" x="0px" y="0px" viewBox="0 0 32 32" style="enable-background:new 0 0 32 32;" xml:space="preserve"><circle cx="16" cy="16" r="14" fill="#f3fbff" stroke="#f3fbff"/><path d="M19.5,18.909c-0.748,0-1.413,0.328-1.879,0.841l-5.197-2.867
	c0.102-0.276,0.166-0.572,0.166-0.883c0-0.312-0.064-0.607-0.166-0.883l5.197-2.867c0.465,0.513,1.131,0.841,1.879,0.841
	c1.406-0.001,2.545-1.141,2.545-2.547C22.045,9.14,20.906,8,19.5,8c-1.406,0-2.546,1.139-2.546,2.545
	c0,0.133,0.02,0.261,0.039,0.389l-5.457,3.011c-0.42-0.305-0.932-0.491-1.491-0.491C8.64,13.455,7.5,14.594,7.5,16
	s1.139,2.545,2.545,2.545c0.559,0,1.071-0.185,1.491-0.491l5.457,3.011c-0.02,0.128-0.039,0.256-0.039,0.389
	C16.955,22.86,18.094,24,19.5,24c1.406,0,2.545-1.14,2.545-2.546C22.045,20.048,20.906,18.909,19.5,18.909z" fill="#627783"/><circle cx="16" cy="16" r="15.5" fill="none" stroke="none"/></svg>