<svg version="1.1" xmlns="http://www.w3.org/2000/svg" xmlns:xlink="http://www.w3.org/1999/xlink" x="0px" y="0px" viewBox="0 0 32 32" style="enable-background:new 0 0 32 32;" xml:space="preserve"><circle cx="16" cy="16" r="14" fill="none" stroke="none"/><g><path d="M8.353,20.072c-1.361-2.374-1.457-5.171-0.32-7.452c0.442-1.232,1.198-2.359,2.266-3.264
		c0.55-0.466,1.15-0.845,1.782-1.139c0.613-0.331,1.278-0.587,1.989-0.753c0.684-0.16,1.369-0.228,2.044-0.212
		c3.136-0.076,6.094,1.757,7.532,4.65c0.772,1.346,1.137,2.829,1.101,4.276c0.028,1.169-0.192,2.325-0.659,3.387
		c-0.42,1.197-1.15,2.292-2.184,3.169c-0.526,0.446-1.1,0.809-1.705,1.09c-0.586,0.317-1.223,0.561-1.903,0.72
		c-0.813,0.19-1.63,0.245-2.427,0.177C12.74,24.792,9.789,22.96,8.353,20.072z" opacity="0.4" fill="#333333" enable-background="new"/><path d="M7.96,12.835c0.435-0.926,1.069-1.771,1.901-2.476c0.526-0.446,1.1-0.809,1.705-1.09
		c0.586-0.317,1.223-0.561,1.903-0.72c0.813-0.19,1.63-0.245,2.427-0.177c3.13-0.07,6.081,1.762,7.517,4.65
		c1.143,1.994,1.394,4.286,0.772,6.32c0.529-1.317,0.689-2.766,0.474-4.198c-0.04-0.429-0.112-0.861-0.22-1.292
		c-1.27-4.434-5.195-7.441-10.368-6.387c-0.71,0.166-1.376,0.422-1.989,0.753c-0.632,0.294-1.232,0.673-1.782,1.139
		C9.17,10.313,8.388,11.519,7.96,12.835z" opacity="0.04" fill="#333333" enable-background="new"/><path d="M8.241,12.233c-0.764,2.025-0.539,4.351,0.697,6.361c1.731,3.248,5.597,5.109,9.4,4.279
		c0.701-0.153,1.358-0.388,1.962-0.693c0.624-0.27,1.216-0.619,1.758-1.049c1.247-0.986,2.063-2.258,2.444-3.637
		c-0.116,1.98-0.987,3.875-2.597,5.24c-0.526,0.446-1.1,0.809-1.705,1.09c-0.586,0.317-1.223,0.561-1.903,0.72
		c-0.813,0.19-1.63,0.245-2.427,0.177c-3.13,0.07-6.081-1.763-7.517-4.65C6.914,17.562,6.89,14.579,8.241,12.233z" opacity="0.08" fill="#333333" enable-background="new"/><g><ellipse cx="13.344" cy="15.004" rx="1.094" ry="1.504" fill="#333333"/></g><g><ellipse cx="18.656" cy="15.004" rx="1.094" ry="1.504" fill="#333333"/></g><path d="M10.54,18.851c-0.001-0.006-0.002-0.011-0.003-0.016c0.06-0.01,0.147-0.021,0.26-0.03
		c0.277-0.023,0.683-0.039,1.191-0.049c1.015-0.021,2.418-0.021,3.973-0.021c1.554,0,2.879,0,3.855,0.021
		c0.488,0.01,0.885,0.026,1.177,0.049c0.146,0.012,0.263,0.025,0.35,0.039c0.017,0.003,0.033,0.006,0.047,0.008
		c0,0.025-0.003,0.056-0.008,0.094c-0.018,0.122-0.064,0.287-0.144,0.483c-0.16,0.39-0.448,0.879-0.88,1.357
		c-0.86,0.952-2.283,1.855-4.396,1.855c-2.106,0-3.53-0.975-4.394-1.969c-0.433-0.498-0.723-0.999-0.884-1.377
		C10.603,19.104,10.557,18.952,10.54,18.851z" fill="#FFFFFF" stroke="#333333" stroke-width="0.4688" stroke-linecap="round" stroke-linejoin="round"/><path d="M11.035,20.375c0.836,1.166,2.42,2.5,4.927,2.5c2.604,0,4.211-1.328,5.02-2.5H11.035z" fill-rule="evenodd" clip-rule="evenodd" fill="#333333"/><defs><filter filterUnits="userSpaceOnUse" x="10.566" y="19.906" width="10.885" height="3.438"><feColorMatrix type="matrix" values="1 0 0 0 0  0 1 0 0 0  0 0 1 0 0  0 0 0 1 0"/></filter></defs><mask maskUnits="userSpaceOnUse" x="10.566" y="19.906" width="10.885" height="3.438"><path d="M11.035,20.375c0.836,1.166,2.42,2.5,4.927,2.5c2.604,0,4.211-1.328,5.02-2.5H11.035z" fill-rule="evenodd" clip-rule="evenodd" fill="#FFFFFF" filter="url(#Adobe_OpacityMaskFilter)"/></mask><path d="M11.035,20.375v-0.469c-0.176,0-0.337,0.098-0.417,0.255c-0.08,0.156-0.066,0.344,0.036,0.487L11.035,20.375z
		 M20.982,20.375l0.386,0.266c0.099-0.143,0.11-0.33,0.029-0.484s-0.241-0.251-0.415-0.251V20.375z M15.962,22.406
		c-2.317,0-3.772-1.226-4.546-2.304l-0.762,0.546c0.899,1.254,2.611,2.696,5.308,2.696V22.406z M20.596,20.109
		c-0.738,1.069-2.212,2.298-4.635,2.298v0.938c2.785,0,4.526-1.428,5.406-2.702L20.596,20.109z M20.982,19.906h-9.947v0.938h9.947
		V19.906z" mask="url(#path-11-inside-1_1_)" fill="#333333"/><path d="M10.54,18.851c-0.001-0.006-0.002-0.011-0.003-0.016c0.06-0.01,0.147-0.021,0.26-0.03
		c0.277-0.023,0.683-0.039,1.191-0.049c1.015-0.021,2.418-0.021,3.973-0.021c1.554,0,2.879,0,3.855,0.021
		c0.488,0.01,0.885,0.026,1.177,0.049c0.146,0.012,0.263,0.025,0.35,0.039c0.017,0.003,0.033,0.006,0.047,0.008
		c0,0.025-0.003,0.056-0.008,0.094c-0.018,0.122-0.064,0.287-0.144,0.483c-0.16,0.39-0.448,0.879-0.88,1.357
		c-0.86,0.952-2.283,1.855-4.396,1.855c-2.106,0-3.53-0.975-4.394-1.969c-0.433-0.498-0.723-0.999-0.884-1.377
		C10.603,19.104,10.557,18.952,10.54,18.851z" fill="none" stroke="#333333" stroke-width="0.4688" stroke-linecap="round" stroke-linejoin="round"/><path d="M18.106,22.535c-0.622,0.212-1.335,0.34-2.144,0.34c-0.776,0-1.463-0.128-2.068-0.339
		c0.259-0.526,1.104-0.911,2.106-0.911C17.002,21.625,17.846,22.01,18.106,22.535z" opacity="0.7" fill-rule="evenodd" clip-rule="evenodd" fill="#FFFFFF" enable-background="new"/></g><circle cx="16" cy="16" r="15.5" fill="none" stroke="none"/></svg>