<svg version="1.1" xmlns="http://www.w3.org/2000/svg" xmlns:xlink="http://www.w3.org/1999/xlink" x="0px" y="0px" viewBox="0 0 32 32" style="enable-background:new 0 0 32 32;" xml:space="preserve"><circle cx="16" cy="16" r="14" fill="none" stroke="none"/><g><path d="M7,19.444V8.556C7,7.696,7.703,7,8.571,7h7.071L18,9.333V10h-2.429C14.16,10,13,11.134,13,12.556V21H8.571
		C7.703,21,7,20.304,7,19.444z" opacity="0.6" fill-rule="evenodd" clip-rule="evenodd" fill="#333333" enable-background="new"/><path d="M14,12.556v10.889C14,24.304,14.703,25,15.571,25h7.857C24.297,25,25,24.304,25,23.444V13.333L22.643,11
		h-7.072C14.703,11,14,11.696,14,12.556z" fill="#333333"/></g><circle cx="16" cy="16" r="15.5" fill="none" stroke="#cccccc"/></svg>