<svg version="1.1" xmlns="http://www.w3.org/2000/svg" xmlns:xlink="http://www.w3.org/1999/xlink" x="0px" y="0px" viewBox="0 0 32 32" style="enable-background:new 0 0 32 32;" xml:space="preserve"><circle cx="16" cy="16" r="14" fill="#f3fbff" stroke="#f3fbff"/><path d="M21.25,14.5H22c0.199,0,0.39,0.079,0.53,0.22c0.141,0.141,0.22,0.331,0.22,0.53v9
	c0,0.199-0.079,0.39-0.22,0.53C22.39,24.921,22.199,25,22,25H10c-0.199,0-0.39-0.079-0.53-0.22c-0.141-0.141-0.22-0.331-0.22-0.53
	v-9c0-0.199,0.079-0.39,0.22-0.53C9.61,14.579,9.801,14.5,10,14.5h0.75v-2.475c0.004-1.331,0.535-2.607,1.477-3.548
	C13.168,7.535,14.444,7.004,15.775,7h0.45c1.331,0.004,2.607,0.535,3.548,1.477c0.941,0.941,1.472,2.217,1.477,3.548V14.5z
	 M13.284,9.534c-0.661,0.661-1.033,1.557-1.034,2.491V14.5h7.5v-2.475c-0.001-0.934-0.373-1.83-1.034-2.491
	C18.055,8.873,17.16,8.501,16.225,8.5h-0.45C14.84,8.501,13.945,8.873,13.284,9.534z M14.53,17.47c-0.293-0.293-0.768-0.293-1.061,0
	s-0.293,0.768,0,1.061l1.47,1.47l-1.47,1.47c-0.293,0.293-0.293,0.768,0,1.061s0.768,0.293,1.061,0l1.47-1.47l1.47,1.47
	c0.293,0.293,0.768,0.293,1.061,0s0.293-0.768,0-1.061L17.061,20l1.47-1.47c0.293-0.293,0.293-0.768,0-1.061s-0.768-0.293-1.061,0
	L16,18.939L14.53,17.47z" fill-rule="evenodd" clip-rule="evenodd" fill="#627783"/><circle cx="16" cy="16" r="15.5" fill="none" stroke="none"/></svg>