<svg version="1.1" xmlns="http://www.w3.org/2000/svg" xmlns:xlink="http://www.w3.org/1999/xlink" x="0px" y="0px" viewBox="0 0 32 32" style="enable-background:new 0 0 32 32;" xml:space="preserve"><circle cx="16" cy="16" r="14" fill="none" stroke="none"/><path d="M21.497,15.29L16,9.793l-5.497,5.497c-0.391,0.391-0.391,1.023,0,1.414
	c0.391,0.391,1.023,0.391,1.414,0l3.099-3.098v7.601c0,0.552,0.447,1,1,1c0.553,0,1-0.448,1-1v-7.57l3.067,3.067
	c0.195,0.195,0.451,0.293,0.707,0.293c0.256,0,0.512-0.098,0.707-0.293C21.888,16.313,21.888,15.68,21.497,15.29z" fill="#333333"/><circle cx="16" cy="16" r="15.5" fill="none" stroke="none"/></svg>