<svg version="1.1" xmlns="http://www.w3.org/2000/svg" xmlns:xlink="http://www.w3.org/1999/xlink" x="0px" y="0px" viewBox="0 0 32 32" style="enable-background:new 0 0 32 32;" xml:space="preserve"><circle cx="16" cy="16" r="14" fill="#cccccc" stroke="#cccccc"/><path d="M17.935,13.611c0.047,0.096,0.139,0.162,0.243,0.177l3.787,0.55
	c0.266,0.039,0.372,0.365,0.179,0.553l-2.74,2.671c-0.076,0.075-0.111,0.181-0.093,0.287l0.647,3.771
	c0.045,0.264-0.232,0.466-0.47,0.341l-0.374-0.197l-3.013-1.584c-0.095-0.05-0.207-0.05-0.301,0l-3.387,1.781
	c-0.238,0.125-0.516-0.077-0.47-0.341l0.647-3.771c0.018-0.105-0.017-0.212-0.093-0.287l-2.74-2.671
	c-0.194-0.187-0.087-0.514,0.178-0.553l3.787-0.55c0.106-0.015,0.197-0.082,0.244-0.177l1.506-3.052l0.187-0.379
	c0.119-0.24,0.463-0.24,0.581,0L17.935,13.611z M17.587,9.517l1.42,2.877l3.176,0.461c1.491,0.218,2.095,2.054,1.009,3.111
	l-0.001,0.001l-2.296,2.238l0.542,3.162c0.255,1.486-1.306,2.629-2.647,1.922l-2.838-1.492l-2.839,1.493
	c-1.336,0.702-2.904-0.431-2.646-1.924l0-0.002l0.542-3.159L8.716,15.97l-0.003-0.003c-1.089-1.057-0.484-2.894,1.006-3.112
	l3.176-0.461l1.421-2.88C14.986,8.165,16.917,8.158,17.587,9.517z" fill-rule="evenodd" clip-rule="evenodd" fill="#666666"/><circle cx="16" cy="16" r="15.5" fill="none" stroke="none"/></svg>