<svg version="1.1" xmlns="http://www.w3.org/2000/svg" xmlns:xlink="http://www.w3.org/1999/xlink" x="0px" y="0px" viewBox="0 0 32 32" style="enable-background:new 0 0 32 32;" xml:space="preserve"><circle cx="16" cy="16" r="14" fill="none" stroke="none"/><path d="M11.182,8.982h2.454c0.197,0,0.36,0.168,0.364,0.382v3.305C14,12.85,13.859,13,13.687,13H8.313
	C8.141,13,8,12.85,8,12.668V8.382C8,8.173,8.163,8,8.36,8h1.473c0.09,0,0.176,0.032,0.244,0.091l0.878,0.786
	C11.024,8.932,11.092,8.982,11.182,8.982z M11,14.5c0-0.276,0.224-0.5,0.5-0.5s0.5,0.224,0.5,0.5V16h3.5c0.276,0,0.5,0.224,0.5,0.5
	S15.776,17,15.5,17H12v5h3.5c0.276,0,0.5,0.224,0.5,0.5S15.776,23,15.5,23h-4c-0.276,0-0.5-0.224-0.5-0.5v-6V14.5z M22.636,13.982
	h-2.454c-0.09,0-0.158-0.05-0.227-0.104l-0.878-0.786C19.009,13.032,18.923,13,18.833,13H17.36C17.163,13,17,13.173,17,13.382v4.286
	C17,17.85,17.141,18,17.313,18h5.375C22.859,18,23,17.85,23,17.668v-3.305C22.996,14.15,22.833,13.982,22.636,13.982z
	 M20.182,19.982h2.454c0.197,0,0.36,0.168,0.364,0.382v3.305C23,23.85,22.859,24,22.687,24h-5.375C17.141,24,17,23.85,17,23.668
	v-4.286C17,19.173,17.163,19,17.36,19h1.473c0.09,0,0.176,0.032,0.244,0.091l0.878,0.786C20.024,19.932,20.092,19.982,20.182,19.982
	z" fill-rule="evenodd" clip-rule="evenodd" fill="#ffffff"/><circle cx="16" cy="16" r="15.5" fill="none" stroke="#cccccc"/></svg>