<svg version="1.1" xmlns="http://www.w3.org/2000/svg" xmlns:xlink="http://www.w3.org/1999/xlink" x="0px" y="0px" viewBox="0 0 32 32" style="enable-background:new 0 0 32 32;" xml:space="preserve"><circle cx="16" cy="16" r="14" fill="none" stroke="none"/><path d="M21.09,10.672c-2.757-2.801-7.155-2.934-10.074-0.41V8.459c0-0.492-0.392-0.889-0.875-0.889
	c-0.483,0-0.875,0.397-0.875,0.889v5.335h5.251c0.483,0,0.875-0.398,0.875-0.889S15,12.016,14.517,12.016H11.68
	c0.042-0.03,0.09-0.048,0.128-0.086c2.219-2.253,5.827-2.252,8.045,0c2.218,2.253,2.218,5.921,0,8.174
	c-2.218,2.252-5.827,2.252-8.045,0c-0.342-0.348-0.895-0.348-1.238,0c-0.342,0.348-0.342,0.91,0,1.257
	c1.45,1.473,3.355,2.209,5.26,2.209s3.811-0.736,5.26-2.209C23.991,18.414,23.991,13.62,21.09,10.672z" fill="#ffffff"/><circle cx="16" cy="16" r="15.5" fill="none" stroke="#cccccc"/></svg>