<svg version="1.1" xmlns="http://www.w3.org/2000/svg" xmlns:xlink="http://www.w3.org/1999/xlink" x="0px" y="0px" viewBox="0 0 32 32" style="enable-background:new 0 0 32 32;" xml:space="preserve"><circle cx="16" cy="16" r="14" fill="#f3fbff" stroke="#f3fbff"/><path d="M24.75,16c0,4.833-3.917,8.75-8.75,8.75c-2.618,0-4.968-1.15-6.572-2.973
	c0.477-2.757,2.185-5.36,6.927-5.36h1.604l-2.32,2.389c-0.395,0.407-0.395,1.066,0,1.473c0.198,0.204,0.457,0.305,0.715,0.305
	c0.258,0,0.519-0.102,0.715-0.305l4.765-4.904l-4.762-4.903c-0.395-0.407-1.035-0.407-1.431,0c-0.395,0.407-0.395,1.066,0,1.473
	l2.32,2.389h-1.604c-4.224,0-7.134,1.822-8.397,5.123C7.503,18.396,7.25,17.228,7.25,16c0-4.833,3.917-8.75,8.75-8.75
	S24.75,11.167,24.75,16z" opacity="0.75" fill-rule="evenodd" clip-rule="evenodd" fill="#627783" enable-background="new"/><circle cx="16" cy="16" r="15.5" fill="none" stroke="none"/></svg>