<?xml version="1.0" encoding="utf-8"?>
<!-- Generator: Adobe Illustrator 21.1.0, SVG Export Plug-In . SVG Version: 6.00 Build 0)  -->
<svg version="1.1" id="Layer_1" xmlns="http://www.w3.org/2000/svg" xmlns:xlink="http://www.w3.org/1999/xlink" x="0px" y="0px"
	 viewBox="0 0 122 32" style="enable-background:new 0 0 122 32;" xml:space="preserve">
<path d="M16.1,14.6c0,3.8-2.2,7.9-8,7.9c-4.2,0-8-2.3-8-7.9C0,10,2.9,6.5,8.6,6.8C14.7,7.1,16.1,11.8,16.1,14.6z M5.2,11.7
	c-0.5,0.9-0.8,1.8-0.7,2.8c0,2.3,1.1,4.4,3.6,4.4c2.4,0,3.6-1.9,3.6-4.2c0.1-1.3-0.3-2.7-1.2-3.7c-0.7-0.6-1.6-0.9-2.6-0.8
	C6.7,10.2,5.7,10.8,5.2,11.7z"/>
<path d="M55.1,8.5c0.4-0.5,0.9-0.9,1.5-1.2c0.9-0.3,1.8-0.5,2.7-0.5c0.9,0,1.8,0.2,2.7,0.6c1.6,0.8,2,2.2,2,4.5v10.2h-4.4v-8.4
	c0.1-0.8,0-1.5-0.2-2.2c-0.4-0.8-1.1-1.2-2-1.1c-2.3,0-2.3,1.9-2.3,3.7v8.1h-4.4V7.1h4.4L55.1,8.5z"/>
<path d="M48.6,18.2c-0.4,0.9-1.7,4.2-7.4,4.2c-4.4,0-7.6-2.7-7.6-7.6c0-3.6,1.8-8.1,7.7-8.1c2-0.2,4,0.6,5.4,2
	c1.9,2.1,2.1,5,2.1,6.7H38.1c-0.2,1.8,1.1,3.5,3,3.7c0.1,0,0.3,0,0.4,0c1.7,0,3.2-1,3.8-2.6L48.6,18.2z M44.2,12.7
	c0-0.8-0.3-1.5-0.8-2.1c-0.6-0.5-1.4-0.8-2.1-0.8c-0.8,0-1.7,0.4-2.2,1c-0.5,0.6-0.8,1.2-0.9,2L44.2,12.7z"/>
<path d="M109.9,10.2h2.9V7.1H110V4h-4.4v3.1h-0.7l-2,3.1h2.7v7.1c-0.1,1.2,0.1,2.3,0.6,3.4c0.9,1.4,2.6,1.5,4.1,1.5
	c0.8,0,1.6-0.1,2.3-0.2v-3.4l-1.6,0.1c-1.2,0-1.2-0.8-1.1-1.7L109.9,10.2z"/>
<path d="M66.2,4h4.4v3.1h4.6l-2,3.1h-2.6v6.6c0,0.9,0,1.7,1.1,1.7l1.6-0.1v3.4c-0.8,0.1-1.5,0.2-2.3,0.2c-1.5,0-3.2-0.1-4.1-1.5
	c-0.5-1-0.8-2.2-0.6-3.4L66.2,4z"/>
<path d="M116.9,10.2h-0.5V7.6h-1V7.1h2.5v0.5h-1L116.9,10.2z M121.2,10.2h-0.5l0-1.9l0-0.6l-0.1,0.5l-0.6,2h-0.5l-0.6-2l-0.2-0.5
	l0,0.6l0,1.9h-0.5V7.1h0.7l0.8,2.4l0.8-2.4h0.7L121.2,10.2z"/>
<path d="M88.9,18.2l-0.8,1.3c-0.8,1.2-2.3,2.9-6.5,2.9c-4.4,0-7.4-2.7-7.4-7.6c0-3.6,1.8-8.1,7.7-8.1c2-0.2,4,0.6,5.4,2
	c1.9,2.1,2.1,5,2.1,6.7H78.7c0,1.9,0.9,3.7,3.3,3.7c2.4,0,3.1-1.6,3.6-2.6L88.9,18.2z M84.8,12.7c0-0.8-0.3-1.5-0.8-2.1
	c-0.6-0.5-1.4-0.8-2.1-0.8c-0.8,0-1.7,0.4-2.2,1c-0.5,0.6-0.8,1.2-0.9,2L84.8,12.7z"/>
<polygon points="103.9,22.1 98.5,14.2 103,7.1 98,7.1 95.9,10.5 93.5,7.1 88.5,7.1 93.4,14.2 88.4,22.1 93.4,22.1 96,17.9 
	98.9,22.1 "/>
<path d="M22.1,8.5c1-1.1,2.4-1.8,3.9-1.7c3.7,0,6.2,2.8,6.2,7.8c0,3.1-1.1,7.9-6.4,7.9c-1.4,0-2.8-0.6-3.8-1.7V27h-4.4V7.1h4.4
	L22.1,8.5z M25.1,10.2c-0.9,0-1.7,0.4-2.3,1.1c-0.7,1-1,2.1-0.9,3.3c-0.1,1.2,0.3,2.5,1.1,3.4c0.5,0.6,1.2,0.9,2,0.9
	c2.1,0,3.1-2.3,3.1-4.4c0-1.8-0.5-3.8-2.3-4.2C25.5,10.2,25.3,10.2,25.1,10.2z"/>
</svg>
