<?xml version="1.0" encoding="utf-8"?>
<!-- Generator: Adobe Illustrator 21.0.0, SVG Export Plug-In . SVG Version: 6.00 Build 0)  -->
<svg version="1.1" id="Layer_1" xmlns="http://www.w3.org/2000/svg" xmlns:xlink="http://www.w3.org/1999/xlink" x="0px" y="0px"
	 viewBox="0 0 32 32" style="enable-background:new 0 0 32 32;" xml:space="preserve">
<style type="text/css">
	.st0{fill:#CCCCCC;}
	.st1{fill:#333333;}
</style>
<title>Asset 2</title>
<g id="Layer_2">
	<g id="Layer_1-2">
		<g>
			<path class="st0" d="M16,3c7.18,0,13,5.82,13,13s-5.82,13-13,13S3,23.18,3,16S8.82,3,16,3 M16,2C8.268,2,2,8.268,2,16
				s6.268,14,14,14s14-6.268,14-14S23.732,2,16,2z"/>
		</g>
		<path class="st1" d="M12,10c-0.552,0-1,0.448-1,1s0.448,1,1,1h6.586l-8.293,8.293c-0.391,0.391-0.391,1.023,0,1.414
			C10.488,21.902,10.744,22,11,22s0.512-0.098,0.707-0.293L20,13.414V20c0,0.553,0.447,1,1,1s1-0.447,1-1V10H12z"/>
	</g>
</g>
</svg>
